<?xml version="1.0" standalone="no"?>
<!DOCTYPE svg PUBLIC "-//W3C//DTD SVG 20010904//EN"
 "http://www.w3.org/TR/2001/REC-SVG-20010904/DTD/svg10.dtd">
<svg version="1.0" xmlns="http://www.w3.org/2000/svg"
 width="1480.000000pt" height="578.000000pt" viewBox="0 0 1480.000000 578.000000"
 preserveAspectRatio="xMidYMid meet">
<metadata>
Created by potrace 1.13, written by Peter Selinger 2001-2015
</metadata>
<g transform="translate(0.000000,578.000000) scale(0.100000,-0.100000)"
 stroke="none">
<path d="M2396 5351 c-4 -6 -20 -11 -37 -11 -26 0 -29 -3 -29 -34 0 -19 4 -36
9 -38 11 -4 20 -252 26 -778 3 -223 7 -432 10 -465 4 -33 10 -199 15 -370 5
-170 11 -362 14 -425 4 -63 8 -502 11 -975 3 -473 5 -867 5 -875 0 -8 1 -35 1
-60 0 -25 2 -205 5 -400 2 -195 6 -434 7 -530 l2 -175 28 -3 c22 -3 30 1 34
17 3 12 9 21 14 21 5 0 9 9 9 20 0 19 7 20 118 20 64 0 198 -5 297 -10 99 -5
416 -9 705 -10 289 0 572 -5 630 -10 127 -12 860 -21 2055 -26 589 -2 902 -7
925 -14 33 -10 1477 -8 1625 2 33 2 239 6 459 7 219 2 412 7 429 12 16 5 181
9 366 9 184 1 340 5 346 10 12 10 151 19 417 26 183 4 198 6 208 24 10 19 24
20 530 20 l520 0 0 -90 c0 -87 1 -90 23 -90 31 0 47 40 47 117 l0 63 40 0 c28
0 43 5 47 16 8 23 -35 56 -64 49 l-23 -5 0 398 c0 292 3 401 12 410 9 9 9 17
-1 35 -9 16 -11 47 -7 98 3 41 8 209 11 374 3 165 7 343 10 395 3 52 10 221
16 375 5 154 14 415 19 580 20 580 43 1104 49 1120 2 6 1 18 -4 28 -4 10 -3
29 3 41 6 14 11 104 12 212 0 104 5 218 10 254 5 36 10 135 10 221 0 130 3
158 15 163 8 3 15 12 15 21 0 8 5 15 10 15 6 0 10 -9 10 -20 0 -15 7 -20 25
-20 23 0 25 3 25 50 0 36 -5 52 -17 59 -10 5 -15 12 -12 16 4 3 1 22 -6 43
-16 45 -65 64 -95 37 -16 -15 -44 -16 -242 -12 -123 3 -282 8 -354 12 -91 5
-134 3 -138 -4 -4 -6 -27 -11 -51 -11 -24 0 -47 -4 -50 -10 -6 -10 -75 -14
-75 -5 0 3 9 15 20 27 21 23 26 53 11 63 -6 3 -17 -10 -27 -30 -9 -19 -19 -35
-23 -35 -3 0 -17 -10 -31 -22 -31 -29 -106 -68 -129 -68 -9 0 -21 -4 -27 -10
-6 -6 -22 -6 -44 0 -40 12 -2368 11 -2375 0 -3 -4 -87 -6 -187 -4 -101 2 -202
3 -225 3 -310 -3 -1067 -1 -1128 3 -44 3 -214 8 -378 9 -165 2 -301 7 -303 10
-2 4 -85 8 -185 8 -172 2 -182 3 -199 23 -17 22 -40 18 -40 -8 0 -11 -20 -14
-106 -14 -58 0 -113 4 -122 9 -19 10 -264 18 -857 27 -214 3 -430 9 -480 13
-49 5 -245 9 -435 10 -299 2 -347 4 -362 18 -11 10 -27 13 -45 9 -45 -10 -515
-6 -555 5 -25 6 -44 6 -56 0 -10 -5 -24 -6 -31 -2 -7 5 -108 9 -224 10 -202 2
-213 3 -235 24 -19 18 -26 19 -42 9 -25 -15 -172 -16 -187 -1 -8 8 -13 8 -17
0z m98 -100 c30 -17 36 -18 47 -5 7 8 19 12 27 9 8 -3 21 0 28 6 10 8 55 9
151 5 151 -7 292 -12 598 -21 221 -7 316 -13 323 -19 4 -5 -20 -78 -29 -86
-13 -11 -67 -97 -80 -127 -8 -19 -21 -33 -31 -33 -10 0 -18 1 -19 3 0 1 -4 41
-8 90 -4 48 -11 90 -14 93 -3 4 -14 4 -23 0 -14 -5 -16 -19 -12 -96 3 -70 1
-90 -9 -90 -16 0 -17 -42 -2 -57 10 -10 0 -34 -42 -100 -15 -25 -4 -62 13 -45
26 26 38 13 38 -42 0 -30 5 -58 10 -61 6 -3 10 -26 10 -50 0 -24 5 -47 10 -50
12 -8 13 -48 1 -61 -5 -5 -12 -26 -15 -46 -7 -36 -5 -38 19 -38 18 0 25 -5 25
-19 0 -11 5 -23 10 -26 6 -3 10 -28 10 -54 0 -26 4 -51 9 -56 5 -6 11 -34 13
-62 5 -50 4 -53 -18 -53 -35 0 -30 -29 6 -36 30 -6 30 -7 30 -75 0 -37 5 -71
10 -74 6 -3 10 -17 10 -30 0 -13 5 -27 10 -30 6 -3 10 -19 10 -35 0 -16 5 -32
10 -35 6 -3 10 -26 10 -50 0 -24 5 -47 10 -50 6 -3 10 -21 10 -40 0 -19 5 -37
10 -40 6 -3 10 -17 10 -31 0 -13 5 -24 10 -24 6 0 10 -22 10 -49 0 -28 5 -53
10 -56 6 -3 10 -26 10 -50 0 -24 5 -47 10 -50 6 -3 10 -42 10 -86 0 -69 -2
-79 -18 -79 -10 0 -33 -13 -52 -30 -19 -16 -47 -29 -61 -30 -15 0 -29 -6 -32
-14 -3 -7 -27 -24 -54 -38 -65 -33 -93 -50 -117 -70 -11 -10 -24 -18 -29 -18
-10 0 -32 -21 -38 -36 -6 -15 -85 -84 -96 -84 -21 0 -163 -169 -163 -195 0 -8
-18 -33 -40 -55 -22 -22 -40 -46 -40 -53 0 -7 -12 -20 -27 -29 -38 -23 -133
-114 -133 -128 0 -6 -8 -14 -17 -17 -10 -4 -31 -20 -48 -35 -16 -15 -33 -28
-36 -28 -13 0 -139 -132 -139 -145 0 -8 -11 -22 -25 -31 -30 -19 -60 -77 -51
-99 7 -20 46 -20 46 0 0 29 26 61 161 196 143 143 197 189 220 189 8 0 30 22
49 48 19 26 43 56 53 66 9 11 17 26 17 33 0 7 5 13 10 13 6 0 10 6 10 13 0 8
22 38 50 68 27 30 49 57 50 61 0 15 104 118 117 118 16 0 43 24 43 38 0 5 12
18 28 28 15 9 34 25 42 34 8 9 42 29 74 44 33 16 75 44 95 63 19 18 41 33 48
33 7 0 13 4 13 9 0 5 15 11 33 14 107 19 133 33 121 67 -3 8 -8 51 -10 95 -3
44 -9 89 -14 100 -5 11 -11 36 -14 55 -5 33 -17 92 -32 153 -3 15 -10 30 -15
33 -5 3 -9 23 -9 44 0 21 -4 42 -10 45 -5 3 -10 26 -10 50 0 24 -4 47 -10 50
-5 3 -10 17 -10 31 0 13 -4 24 -10 24 -5 0 -10 15 -10 34 0 19 -4 38 -10 41
-5 3 -10 27 -10 52 l0 46 68 -64 c100 -93 155 -139 169 -139 7 0 13 -4 13 -10
0 -5 9 -10 20 -10 11 0 20 -4 20 -10 0 -5 9 -10 20 -10 11 0 20 -4 20 -10 0
-5 9 -10 20 -10 11 0 20 -4 20 -10 0 -5 11 -10 24 -10 14 0 28 -4 31 -10 3 -5
17 -10 30 -10 13 0 27 -4 30 -10 3 -5 18 -10 33 -10 15 0 33 -4 41 -9 20 -13
61 8 61 31 0 10 5 18 10 18 6 0 10 15 10 34 0 32 36 117 53 124 4 2 7 19 7 38
0 19 5 34 10 34 6 0 10 7 10 15 0 8 9 30 19 48 11 19 25 45 33 58 7 13 15 26
18 29 3 3 16 27 29 53 28 55 38 49 48 -33 3 -28 10 -53 14 -56 5 -3 9 -15 9
-26 0 -23 17 -81 31 -110 5 -10 9 -38 9 -63 0 -25 5 -45 10 -45 6 0 10 -15 10
-34 0 -19 5 -38 10 -41 6 -3 10 -21 10 -40 0 -19 5 -37 10 -40 6 -3 10 -37 10
-75 0 -38 5 -72 10 -75 6 -3 10 -30 10 -60 0 -30 4 -76 10 -102 5 -26 11 -84
14 -128 3 -44 8 -104 12 -132 4 -36 3 -57 -5 -67 -15 -18 0 -28 19 -12 28 21
40 55 40 108 0 48 3 54 27 66 15 6 35 12 45 12 10 0 26 4 36 9 9 5 38 19 65
31 26 13 47 27 47 32 0 4 9 8 20 8 11 0 20 5 20 10 0 6 9 10 20 10 11 0 20 6
20 13 0 9 10 12 30 9 18 -3 30 0 30 7 0 6 9 11 20 11 11 0 20 5 20 10 0 6 8
10 18 10 20 0 89 23 98 33 4 4 18 7 30 7 13 0 26 5 29 10 3 6 21 10 40 10 19
0 37 5 40 10 4 6 59 10 131 10 95 0 129 3 140 14 16 17 20 121 4 131 -5 3 -10
21 -10 40 0 19 -4 37 -10 40 -5 3 -10 21 -10 40 0 19 -4 37 -10 40 -5 3 -10
15 -10 26 0 25 -29 71 -41 63 -12 -7 -11 -81 1 -89 6 -3 10 -22 10 -41 0 -19
4 -42 9 -52 19 -35 25 -58 27 -109 l2 -53 -108 0 c-62 0 -111 -4 -115 -10 -3
-5 -19 -10 -36 -10 -16 0 -37 -4 -47 -9 -9 -5 -35 -14 -57 -20 -22 -7 -50 -17
-62 -22 -13 -5 -33 -13 -45 -18 -49 -18 -84 -37 -102 -53 -11 -10 -30 -18 -42
-18 -12 0 -48 -13 -79 -30 -31 -16 -65 -30 -75 -30 -11 0 -22 -4 -25 -10 -3
-5 -17 -10 -30 -10 -13 0 -27 -4 -30 -10 -3 -5 -17 -10 -30 -10 -21 0 -24 6
-30 58 -3 31 -8 100 -11 152 -3 52 -10 99 -15 105 -5 5 -9 39 -9 76 0 37 -4
71 -10 74 -5 3 -10 24 -10 45 0 21 -4 42 -10 45 -5 3 -10 15 -10 26 0 10 -4
19 -10 19 -5 0 -10 9 -10 19 0 11 -4 23 -10 26 -5 3 -10 17 -10 30 0 13 -4 27
-10 30 -5 3 -10 35 -10 70 0 35 -4 67 -10 70 -5 3 -10 21 -10 39 0 17 -4 36
-9 41 -5 6 -12 40 -16 76 -7 61 -5 67 20 97 27 33 28 62 1 62 -8 0 -18 -5 -21
-10 -5 -8 -11 -8 -20 0 -12 10 -18 33 -31 133 -3 23 -9 51 -13 62 -23 56 -31
97 -31 152 0 43 -4 62 -14 66 -18 7 -46 64 -46 93 0 13 -4 26 -10 29 -5 3 -10
17 -10 31 0 13 -4 24 -10 24 -5 0 -10 12 -10 26 0 33 -33 80 -71 99 -40 21
-36 31 9 28 20 -2 199 -5 397 -8 446 -7 696 -14 712 -19 6 -3 9 -14 6 -24 -2
-11 0 -23 6 -26 6 -4 11 -18 11 -31 0 -13 5 -27 10 -30 6 -3 10 -19 10 -35 0
-16 5 -32 10 -35 6 -3 10 -19 10 -34 0 -15 4 -31 9 -36 11 -12 20 -153 25
-378 l3 -159 -33 6 c-19 4 -35 2 -39 -4 -7 -12 22 -50 37 -50 28 0 46 -46 54
-135 3 -27 9 -59 14 -70 5 -11 11 -40 14 -65 9 -80 21 -131 31 -130 14 0 18
117 5 167 -6 26 -7 50 -1 60 5 10 15 31 22 46 l13 28 51 -51 c28 -27 60 -50
71 -50 12 0 29 -9 39 -20 10 -11 24 -20 31 -20 7 0 19 -8 26 -18 8 -12 38 -23
83 -31 60 -11 74 -11 98 2 33 17 56 45 57 68 0 9 9 24 20 34 11 10 20 22 20
27 0 5 9 18 20 30 11 12 20 28 20 35 0 11 14 40 52 103 7 13 25 37 41 54 15
17 27 35 27 41 0 5 7 1 15 -9 8 -11 15 -39 15 -62 0 -24 5 -46 10 -49 6 -3 10
-44 10 -90 0 -46 5 -87 10 -90 6 -3 10 -19 10 -36 0 -16 4 -29 9 -29 8 0 14
-27 27 -137 3 -27 9 -57 14 -68 5 -11 12 -60 14 -110 10 -167 18 -240 27 -249
14 -15 11 -26 -6 -26 -8 0 -15 5 -15 10 0 18 -34 10 -62 -15 -34 -29 -36 -45
-6 -45 17 0 19 -3 10 -12 -20 -20 -14 -59 12 -82 33 -29 88 -104 109 -147 9
-20 23 -42 32 -49 8 -7 15 -23 15 -36 0 -12 5 -26 10 -29 6 -3 10 -17 10 -30
0 -13 5 -27 10 -30 6 -3 10 -24 10 -46 0 -21 3 -39 8 -39 9 0 37 -65 47 -110
4 -19 10 -39 14 -45 4 -5 13 -30 20 -55 7 -25 22 -62 32 -83 10 -22 19 -46 19
-55 0 -20 23 -89 33 -98 4 -4 7 -20 7 -35 0 -15 5 -31 10 -34 6 -3 10 -19 10
-35 0 -16 5 -32 10 -35 6 -3 10 -21 10 -40 0 -19 5 -37 10 -40 6 -3 10 -33 10
-67 0 -59 -1 -60 -25 -56 -14 3 -28 1 -32 -5 -7 -12 36 -46 59 -47 14 0 18
-15 23 -93 11 -162 9 -330 -3 -407 -7 -41 -16 -102 -21 -135 -4 -33 -15 -80
-24 -105 -9 -25 -17 -56 -17 -70 0 -15 -4 -30 -9 -35 -5 -6 -11 -19 -14 -30
-6 -20 -2 49 9 158 3 32 3 66 -1 75 -4 9 -9 42 -12 72 -2 30 -8 59 -14 65 -5
5 -9 23 -9 40 0 24 -12 40 -59 83 -33 28 -64 52 -70 52 -6 0 -11 7 -11 15 0 9
-8 18 -17 21 -23 8 -64 24 -85 35 -10 5 -57 9 -104 9 -76 0 -94 -4 -153 -32
-36 -17 -67 -35 -69 -40 -2 -4 -10 -8 -18 -8 -22 0 -64 -30 -64 -46 0 -7 -8
-19 -19 -26 -10 -7 -24 -31 -32 -53 -7 -22 -17 -44 -21 -49 -4 -6 -8 -22 -8
-37 0 -15 -4 -31 -10 -34 -5 -3 -10 -22 -10 -41 0 -19 -4 -34 -10 -34 -5 0
-10 -11 -10 -24 0 -14 -4 -28 -10 -31 -6 -3 -10 -50 -10 -105 0 -55 4 -102 10
-105 6 -3 10 -12 10 -20 0 -7 28 -42 63 -78 72 -74 107 -87 236 -87 72 0 80 2
86 21 4 11 5 22 3 23 -11 8 -145 26 -197 26 -48 0 -61 3 -61 15 0 22 -20 55
-52 86 -17 16 -28 38 -28 53 0 15 -6 35 -12 46 -10 15 -10 22 0 32 6 6 12 36
12 65 0 29 4 61 9 71 13 26 31 86 31 105 0 17 4 27 28 74 7 13 12 30 12 39 0
16 23 44 37 44 4 0 19 9 33 20 14 11 32 20 40 20 8 0 26 9 40 20 14 11 37 20
52 20 15 0 30 4 33 10 8 13 112 13 120 0 3 -5 14 -10 23 -10 28 0 110 -44 115
-61 2 -9 19 -22 36 -30 17 -8 34 -22 37 -31 3 -10 10 -18 15 -18 5 0 9 -17 9
-38 0 -21 5 -43 11 -49 14 -14 13 -293 -1 -307 -5 -5 -10 -18 -10 -28 0 -9 -6
-21 -14 -25 -20 -12 -86 -101 -86 -117 0 -29 -89 -63 -179 -68 -46 -3 -57 -13
-41 -38 6 -11 28 -14 86 -13 42 1 80 5 83 10 3 4 18 14 34 22 15 8 27 22 27
30 0 9 9 23 21 31 11 8 35 35 51 60 30 44 78 96 78 85 0 -3 -4 -14 -10 -25
-64 -127 -93 -171 -152 -235 -21 -22 -38 -45 -38 -52 0 -6 -4 -13 -8 -15 -4
-1 -23 -23 -42 -47 -49 -63 -91 -105 -122 -126 -16 -9 -28 -23 -28 -29 0 -13
-45 -56 -58 -56 -4 0 -21 -14 -39 -30 -18 -17 -36 -30 -41 -30 -5 0 -16 -8
-23 -17 -8 -9 -32 -29 -54 -45 -22 -16 -56 -44 -75 -61 -85 -77 -115 -97 -148
-97 -29 0 -34 -3 -29 -20 5 -20 0 -20 -527 -20 -306 0 -545 4 -564 10 -19 5
-240 9 -505 10 -260 1 -515 5 -567 10 -52 5 -300 12 -550 15 -250 3 -477 7
-505 9 -110 6 -102 2 -109 48 -15 90 -18 251 -5 274 9 18 9 27 1 37 -9 10 -12
134 -13 438 0 233 -2 447 -4 474 -2 28 -4 109 -5 180 0 72 0 135 -1 140 0 6
-2 305 -4 665 -3 360 -7 675 -11 700 -9 63 -12 174 -14 485 -1 149 -5 284 -10
300 -5 17 -12 172 -15 345 -3 173 -8 422 -10 552 -5 234 -5 237 17 258 27 25
29 25 72 1z m1274 -43 c-11 -17 -12 -28 -5 -39 8 -12 5 -22 -10 -38 -11 -12
-26 -34 -34 -49 -7 -15 -26 -46 -41 -69 -15 -23 -28 -48 -28 -56 0 -8 -18 -30
-40 -50 -22 -19 -40 -42 -40 -50 0 -9 -4 -19 -10 -22 -5 -3 -10 -14 -10 -24 0
-26 -23 -71 -37 -71 -9 0 -13 19 -13 63 0 62 1 64 40 96 29 23 40 39 40 60 0
15 9 36 20 46 11 10 20 23 20 30 0 7 9 20 20 30 11 10 20 24 20 30 0 7 7 18
15 25 9 7 23 29 32 49 19 39 40 60 62 61 11 0 11 -4 -1 -22z m311 9 c31 -13
31 -13 11 -32 -11 -10 -20 -22 -20 -28 0 -5 -15 -27 -32 -47 -18 -21 -58 -68
-88 -105 -30 -37 -74 -88 -97 -113 -40 -44 -54 -84 -34 -96 9 -6 61 66 61 84
0 5 4 10 8 10 4 0 40 37 80 83 40 45 81 92 92 104 11 12 20 28 20 35 0 16 81
98 97 98 7 0 13 -7 13 -15 0 -17 48 -64 65 -65 11 0 35 -46 35 -67 0 -7 5 -13
10 -13 6 0 10 -25 10 -55 0 -36 7 -66 20 -90 29 -51 30 -113 2 -152 -12 -17
-22 -40 -22 -50 0 -10 -9 -25 -21 -33 -11 -8 -35 -35 -52 -60 -17 -25 -44 -61
-61 -81 -53 -61 -66 -79 -66 -88 0 -4 -9 -16 -20 -26 -11 -10 -20 -24 -20 -31
0 -7 -9 -29 -20 -49 -11 -19 -30 -52 -41 -72 -26 -46 -57 -91 -81 -117 -10
-11 -18 -25 -18 -32 0 -7 -3 -14 -7 -16 -16 -7 -54 -90 -49 -105 6 -14 8 -14
26 2 11 10 20 26 20 37 0 10 5 18 10 18 6 0 10 7 10 15 0 8 4 15 8 15 5 0 14
16 22 35 8 19 17 35 21 35 10 0 89 115 89 129 0 6 5 11 10 11 6 0 10 7 10 15
0 19 32 85 41 85 5 0 16 16 25 35 9 19 20 35 25 35 5 0 9 6 9 13 0 7 14 26 30
42 17 16 30 34 30 40 0 6 14 24 30 40 17 16 30 35 30 42 0 7 5 13 10 13 6 0
10 5 10 11 0 19 41 69 56 69 10 0 14 -13 14 -45 0 -41 -3 -47 -40 -71 -29 -19
-38 -30 -30 -38 7 -7 16 -7 30 2 48 30 52 8 10 -53 -16 -24 -30 -48 -30 -54 0
-6 -5 -11 -11 -11 -7 0 -10 -12 -7 -30 3 -18 0 -30 -6 -30 -13 0 -40 -35 -149
-192 -17 -26 -40 -49 -49 -51 -10 -3 -18 -14 -18 -25 0 -12 -4 -24 -10 -27
-11 -7 -14 -58 -4 -68 11 -11 44 17 44 38 0 11 10 31 21 45 21 27 160 225 170
244 3 6 12 22 19 36 8 14 23 42 34 63 11 21 29 47 40 60 l21 22 7 -55 c4 -30
10 -70 14 -88 3 -19 2 -43 -4 -55 -59 -127 -85 -178 -92 -182 -15 -9 -40 -67
-40 -92 0 -13 -9 -33 -20 -45 -35 -37 -80 -138 -80 -178 0 -40 -16 -55 -41
-39 -8 5 -24 9 -37 9 -12 0 -30 4 -40 9 -9 5 -28 13 -42 19 -14 5 -54 23 -89
41 -35 17 -69 31 -75 31 -21 0 -66 25 -66 36 0 13 -157 167 -187 182 -43 23
-66 106 -43 152 6 11 15 29 20 40 6 11 10 26 10 33 0 8 9 22 19 31 11 10 23
37 27 59 9 55 69 179 105 218 16 17 29 37 29 45 0 8 5 14 10 14 6 0 10 11 10
25 0 16 -6 25 -15 25 -8 0 -15 -6 -15 -13 0 -7 -13 -28 -30 -47 -16 -19 -29
-40 -30 -45 0 -6 -9 -16 -20 -23 -11 -7 -20 -19 -20 -27 0 -15 -35 -82 -51
-99 -5 -6 -9 -18 -9 -28 0 -10 -4 -18 -10 -18 -5 0 -10 -8 -10 -17 -1 -25 -35
-69 -44 -55 -14 23 -14 150 0 177 8 15 14 36 14 46 0 11 4 19 9 19 5 0 16 15
25 34 8 18 22 39 31 46 8 7 15 17 15 22 0 5 36 62 80 128 44 66 80 129 80 140
0 25 -26 27 -33 3 -6 -18 -37 -73 -47 -83 -15 -15 -70 -90 -70 -95 0 -4 -14
-26 -30 -50 -17 -25 -46 -73 -64 -107 -18 -34 -38 -64 -44 -66 -20 -6 -13 44
8 63 11 10 20 26 20 36 0 10 5 21 10 24 6 3 10 17 10 31 0 25 44 98 74 123 9
7 28 38 43 70 15 31 39 75 55 98 15 23 28 44 28 48 0 3 9 15 20 27 11 12 20
36 20 53 l0 31 113 2 c77 2 124 -2 146 -11z m8175 -3 l58 -6 -7 -181 c-14
-369 -24 -607 -34 -782 -6 -99 -15 -304 -20 -455 -6 -151 -13 -318 -16 -370
-9 -145 -15 -402 -24 -1000 -5 -300 -13 -664 -19 -810 -5 -146 -8 -268 -6
-272 2 -3 0 -28 -5 -55 -6 -26 -12 -181 -15 -343 -3 -162 -9 -351 -12 -420
l-7 -125 -554 3 c-543 2 -555 2 -583 -18 -25 -17 -44 -20 -152 -20 -68 0 -128
-4 -134 -9 -19 -19 -523 -38 -1204 -46 -234 -3 -465 -9 -515 -15 -49 -5 -247
-9 -439 -10 -192 0 -352 -2 -354 -5 -14 -13 -32 22 -32 61 0 24 -4 44 -10 44
-5 0 -10 11 -10 25 0 14 -9 35 -20 47 -11 12 -20 30 -20 39 0 10 -4 21 -10 24
-5 3 -10 17 -10 30 0 14 -9 40 -20 60 -11 20 -20 41 -20 48 0 18 -24 67 -32
67 -5 0 -8 29 -8 64 0 36 -4 68 -10 71 -5 3 -10 24 -10 45 0 21 -4 41 -9 44
-32 20 -32 542 0 562 5 3 9 25 9 49 0 24 5 47 10 50 6 4 10 55 10 121 l0 114
-44 0 c-25 0 -48 -4 -51 -10 -3 -5 -19 -10 -35 -10 -16 0 -32 -4 -35 -10 -3
-5 -14 -10 -24 -10 -10 0 -47 -14 -82 -31 -35 -18 -75 -36 -89 -41 -14 -6 -33
-14 -42 -19 -10 -5 -30 -9 -46 -9 -16 0 -38 -9 -50 -20 -12 -11 -25 -20 -29
-20 -13 0 -218 -104 -221 -112 -2 -5 -10 -8 -18 -8 -8 0 -24 -5 -37 -12 -49
-25 -58 -28 -82 -28 -14 0 -25 3 -25 7 0 11 33 43 45 43 6 0 27 16 46 36 18
20 44 40 57 45 12 5 22 15 22 24 0 8 5 15 10 15 6 0 10 7 10 15 0 8 -7 15 -15
15 -8 0 -15 -4 -15 -8 0 -4 -13 -16 -30 -25 -16 -10 -35 -23 -42 -30 -7 -7
-33 -27 -58 -44 -49 -34 -90 -77 -90 -95 0 -25 34 -48 71 -48 21 0 41 4 44 10
3 5 17 10 30 10 12 0 47 13 76 28 30 16 63 33 74 39 62 33 149 73 159 73 6 0
17 9 24 20 7 11 21 20 31 20 11 0 23 4 26 10 3 5 15 10 26 10 10 0 19 5 19 10
0 6 20 10 45 10 25 0 45 5 45 10 0 6 9 10 20 10 11 0 35 9 55 20 20 11 42 20
50 20 9 0 23 4 33 9 25 13 101 29 107 23 9 -10 5 -81 -5 -87 -5 -3 -10 -19
-10 -35 0 -16 -4 -31 -9 -34 -5 -3 -11 -23 -14 -43 -3 -21 -12 -67 -19 -103
-22 -113 -12 -558 13 -584 5 -6 9 -27 9 -47 0 -21 5 -41 10 -44 6 -3 10 -18
10 -33 0 -15 9 -38 20 -52 12 -16 20 -41 20 -68 0 -23 5 -52 12 -65 25 -48 28
-58 28 -80 0 -13 4 -27 9 -32 23 -24 51 -88 51 -115 0 -17 5 -39 12 -50 15
-24 4 -37 -18 -20 -12 11 -17 11 -23 1 -8 -12 -353 -12 -1541 0 -85 1 -168 1
-185 0 -16 0 -43 1 -60 3 -16 1 -104 4 -195 5 l-165 1 37 35 c20 19 44 35 52
35 9 0 16 8 16 17 0 25 40 63 66 63 12 0 24 4 26 8 2 5 26 26 53 47 74 55 115
93 115 104 0 11 85 93 103 100 13 5 86 83 87 92 0 3 11 19 25 35 14 16 25 38
25 48 0 22 37 66 55 66 17 0 72 88 124 195 24 50 47 98 52 107 5 10 9 45 9 78
0 33 4 60 10 60 6 0 10 9 10 20 0 11 4 29 10 40 6 11 14 29 20 40 5 11 10 35
10 53 0 18 5 38 11 44 8 8 11 75 11 202 1 131 4 189 11 184 6 -4 36 -5 66 -4
47 2 59 6 75 27 10 14 29 30 42 35 32 11 33 49 2 49 -21 0 -21 0 -2 15 10 8
40 15 65 15 30 0 51 6 59 16 22 25 52 37 113 43 90 9 73 25 -33 31 -93 5 -94
5 -40 13 30 4 93 12 140 17 119 13 151 20 157 36 3 8 0 21 -6 28 -10 12 -2 15
46 20 138 13 163 18 163 32 0 26 -33 31 -115 19 -44 -6 -87 -14 -95 -17 -8 -4
-51 -9 -95 -12 -44 -3 -109 -11 -145 -17 -36 -5 -103 -13 -150 -17 -76 -6 -85
-9 -85 -27 0 -18 7 -20 58 -21 31 -1 60 -4 64 -8 6 -5 -38 -8 -172 -11 -22 0
-47 -4 -55 -7 -8 -4 -24 -8 -34 -10 -11 -2 -18 -7 -15 -13 2 -6 56 -10 131
-10 124 0 193 -13 87 -17 -91 -3 -152 -7 -204 -13 -56 -7 -57 -6 -84 95 -7 25
-17 59 -22 76 -5 17 -9 50 -9 75 0 42 -18 111 -33 125 -4 4 -7 18 -7 30 0 13
-4 26 -10 29 -5 3 -10 19 -10 36 0 16 -4 29 -10 29 -5 0 -10 11 -10 24 0 14
-4 28 -10 31 -5 3 -10 15 -10 26 0 10 -4 19 -10 19 -5 0 -10 10 -10 23 0 13
-5 28 -12 35 -9 9 -2 12 34 12 26 0 50 5 53 10 3 6 35 10 70 10 35 0 67 5 70
10 3 6 39 10 78 10 40 0 87 4 104 9 18 5 92 11 164 13 72 1 133 6 135 10 3 5
59 8 125 8 99 0 119 3 119 15 0 12 -20 15 -119 15 -80 0 -121 -4 -123 -11 -3
-8 -68 -13 -208 -15 -113 -2 -221 -4 -240 -5 -19 -1 -54 2 -78 6 -26 5 -52 4
-65 -2 -42 -20 -106 -36 -120 -30 -14 5 -47 61 -47 79 0 15 23 8 46 -13 24
-23 51 -22 404 6 36 3 111 8 167 11 77 5 103 10 107 21 11 27 -5 36 -53 29
-25 -4 -113 -9 -196 -13 -82 -3 -158 -9 -167 -14 -9 -5 -50 -9 -90 -9 l-73 1
40 13 c22 8 69 17 105 20 143 14 165 19 168 43 3 21 0 22 -65 18 -37 -2 -90
-9 -118 -15 -27 -6 -68 -14 -90 -17 -22 -3 -44 -9 -50 -14 -11 -11 -65 -12
-65 -1 0 13 38 31 80 38 22 4 43 11 46 15 3 5 27 9 54 9 27 0 52 5 55 10 3 6
32 10 65 10 44 0 59 4 64 16 3 9 4 20 0 25 -7 12 -91 11 -99 -1 -3 -5 -28 -10
-55 -10 -28 0 -69 -4 -92 -10 -24 -5 -72 -14 -108 -19 -62 -10 -66 -10 -82 12
-15 19 -20 20 -38 9 -17 -10 -20 -10 -20 5 0 10 -9 29 -20 43 -11 14 -20 33
-20 43 0 9 -4 17 -10 17 -5 0 -10 6 -10 13 0 7 -9 23 -20 35 -11 12 -20 25
-20 30 0 5 -9 17 -20 27 -24 22 -25 38 -4 55 33 28 55 114 35 136 -5 5 -12 61
-15 124 -3 63 -10 147 -16 185 -6 39 -13 93 -16 120 -3 28 -10 54 -15 59 -5 6
-9 21 -9 35 0 26 -20 92 -31 101 -6 5 -14 42 -25 125 -4 22 -10 44 -15 49 -12
14 -12 273 1 281 19 12 11 45 -10 45 -18 0 -20 7 -20 73 0 41 -3 77 -7 81 -11
10 -32 176 -32 252 -1 33 -6 65 -13 72 -6 6 -10 13 -7 14 2 2 162 0 354 -4
193 -4 635 -10 982 -13 l633 -6 -33 -42 c-17 -23 -40 -50 -49 -61 -10 -11 -18
-25 -18 -30 0 -6 -18 -35 -40 -64 -29 -37 -40 -62 -40 -87 0 -18 -4 -37 -10
-40 -5 -3 -10 -21 -10 -40 0 -19 -4 -37 -10 -40 -5 -3 -10 -15 -10 -26 0 -10
-4 -28 -10 -39 -5 -11 -14 -29 -20 -40 -5 -11 -10 -33 -10 -50 0 -16 -4 -30
-9 -30 -5 0 -11 -12 -14 -27 -18 -88 -24 -108 -48 -155 -5 -10 -9 -36 -9 -58
0 -22 -4 -40 -9 -40 -9 0 -12 -22 -27 -182 -3 -35 -10 -67 -15 -72 -5 -6 -9
-25 -9 -42 0 -18 -4 -36 -10 -39 -6 -4 -10 -203 -10 -566 0 -532 -1 -559 -18
-559 -10 0 -22 -4 -27 -9 -6 -6 -75 -12 -155 -15 -80 -3 -192 -9 -250 -13 -96
-7 -105 -10 -105 -28 0 -18 6 -20 70 -18 168 6 432 22 458 28 24 7 27 5 27
-19 0 -24 -4 -26 -39 -26 -42 0 -62 -14 -35 -24 9 -3 33 -6 54 -6 32 0 38 -4
42 -25 8 -42 -16 -65 -70 -65 -55 0 -342 -19 -389 -26 -20 -3 -33 -11 -33 -19
0 -18 56 -29 117 -21 26 3 84 8 128 11 162 10 221 15 243 21 21 6 22 4 22 -50
l0 -56 -76 0 c-42 0 -93 -4 -113 -9 -20 -5 -97 -15 -171 -22 -159 -14 -157
-14 -195 -22 -16 -4 -73 -9 -125 -11 -88 -5 -95 -7 -98 -27 -4 -21 -2 -21 95
-15 54 3 130 11 168 16 74 11 165 22 335 38 58 6 122 14 143 18 l37 7 0 -36
c0 -20 5 -39 10 -42 6 -3 10 -19 10 -36 0 -16 5 -29 10 -29 6 0 10 -20 10 -45
0 -34 -4 -45 -15 -45 -25 0 -65 -31 -65 -51 0 -10 -4 -21 -10 -24 -5 -3 -10
-14 -10 -24 0 -22 -124 -141 -146 -141 -9 0 -42 -25 -74 -56 -33 -31 -76 -68
-97 -82 -21 -14 -47 -34 -57 -44 -11 -10 -24 -18 -29 -18 -12 0 -37 -26 -37
-39 0 -24 45 -9 90 29 26 22 52 40 57 40 5 0 38 30 73 66 36 36 81 73 101 82
54 25 149 111 149 134 0 29 38 78 61 78 20 0 52 15 81 39 16 13 16 15 -2 41
-11 16 -20 41 -20 57 0 16 -3 33 -7 37 -21 20 -33 92 -33 195 0 104 -8 164
-31 216 -10 24 -20 144 -20 240 2 379 14 891 21 906 6 10 10 38 10 63 0 25 4
47 9 50 4 3 11 36 15 73 3 38 11 93 16 123 6 30 13 73 17 95 3 22 9 44 14 49
5 6 9 22 9 37 0 15 5 31 10 34 6 3 10 19 10 36 0 16 5 29 10 29 6 0 10 14 10
30 0 17 5 30 10 30 6 0 10 18 10 39 0 22 5 43 10 46 6 3 10 17 10 31 0 13 5
24 10 24 6 0 10 24 10 53 0 33 8 69 20 95 11 22 20 48 20 56 0 8 8 21 18 28 9
7 28 34 41 61 13 26 28 47 33 47 4 0 8 5 8 11 0 6 18 33 40 59 22 26 40 53 40
59 0 8 100 11 348 12 191 1 379 2 417 4 39 2 95 3 125 2 30 0 71 1 90 3 29 3
1389 2 1725 -1 187 -2 336 10 364 30 26 19 69 28 176 37 33 3 65 10 70 15 11
11 594 5 699 -7z m-6700 -40 c13 -5 14 -10 6 -20 -13 -15 -9 -64 5 -67 6 -1
11 8 13 21 2 12 8 22 13 22 5 0 9 9 9 20 0 18 19 26 52 21 3 0 94 -1 202 -1
178 -1 236 -9 192 -26 -9 -3 -16 -12 -16 -19 0 -25 -30 -71 -75 -115 -25 -24
-45 -48 -45 -53 0 -8 -45 -57 -53 -57 -9 0 -185 -178 -206 -207 -32 -47 -57
-45 -31 2 11 20 20 40 20 45 0 14 66 101 118 156 42 45 55 84 27 84 -8 0 -15
-4 -15 -9 0 -5 -25 -36 -56 -68 -30 -32 -63 -71 -71 -88 -8 -16 -22 -38 -30
-47 -20 -23 -63 -108 -63 -125 0 -7 9 -13 20 -13 11 0 20 -4 20 -10 0 -5 -9
-25 -20 -45 -11 -20 -20 -54 -20 -79 0 -36 4 -45 26 -55 20 -9 30 -9 43 1 23
17 81 81 81 90 0 17 -27 6 -53 -22 -30 -31 -53 -38 -59 -18 -9 26 43 102 126
184 47 47 86 93 86 103 0 9 37 55 83 102 99 103 157 170 157 185 0 5 9 30 21
53 20 43 21 43 62 37 51 -9 69 -23 45 -37 -10 -6 -18 -16 -18 -23 0 -8 -19
-34 -42 -58 -59 -61 -76 -83 -80 -105 -2 -10 -12 -22 -23 -27 -11 -5 -61 -62
-110 -128 -50 -67 -98 -121 -110 -124 -37 -9 -101 -104 -70 -104 18 0 19 -10
3 -41 -16 -30 -67 -99 -89 -119 -8 -8 -24 -27 -33 -42 -22 -33 -32 -35 -39 -8
-3 11 -11 20 -19 20 -25 0 -35 52 -31 160 6 144 6 142 -4 260 l-9 105 33 63
c33 64 41 106 24 117 -6 3 -17 -10 -26 -29 -25 -52 -42 -63 -53 -35 -20 51
-32 96 -32 117 0 11 -4 24 -10 27 -5 3 -10 13 -10 21 0 11 14 14 59 14 33 0
67 -3 75 -6z m649 -201 c4 -6 3 -14 -3 -18 -5 -3 -10 -15 -10 -27 0 -11 -14
-37 -30 -57 -17 -20 -34 -40 -38 -46 -4 -5 -26 -32 -49 -59 -24 -27 -43 -57
-43 -67 0 -10 -11 -26 -24 -34 -20 -13 -62 -60 -142 -158 -8 -9 -14 -21 -14
-25 0 -4 -13 -23 -30 -42 -16 -19 -29 -43 -30 -52 0 -10 -4 -18 -10 -18 -5 0
-10 -5 -10 -12 0 -6 -10 -22 -22 -35 -21 -22 -21 -24 -4 -41 16 -16 18 -16 36
8 11 14 20 36 20 48 0 13 13 36 28 50 15 15 39 43 52 62 27 40 132 174 185
237 19 23 35 45 35 48 0 4 15 24 33 45 17 20 40 47 51 60 l19 23 12 -39 c7
-21 15 -79 18 -129 4 -82 2 -94 -22 -140 -14 -27 -32 -56 -39 -64 -7 -7 -21
-31 -30 -52 -9 -22 -20 -39 -24 -39 -5 0 -8 -7 -8 -15 0 -8 -13 -30 -30 -48
-34 -39 -36 -47 -16 -47 26 0 29 -21 7 -44 -12 -12 -21 -28 -21 -34 0 -7 -4
-12 -10 -12 -5 0 -10 -9 -10 -20 0 -11 -4 -20 -8 -20 -4 0 -16 -13 -25 -30
-16 -27 -23 -30 -67 -30 -27 0 -52 5 -55 10 -3 6 -16 10 -29 10 -13 0 -31 9
-41 20 -10 11 -25 20 -33 20 -20 0 -128 81 -143 108 -15 26 -3 55 46 113 16
20 38 46 48 58 23 29 58 90 86 152 7 14 25 38 40 55 15 16 42 52 60 79 19 28
56 76 83 107 26 31 48 60 48 63 0 8 43 60 108 130 l37 40 5 -40 c3 -22 9 -45
13 -52z m-423 -368 c-7 -9 -15 -13 -18 -10 -3 2 1 11 8 20 7 9 15 13 18 10 3
-2 -1 -11 -8 -20z m-232 -341 c2 -39 2 -39 -13 -14 -18 31 -19 63 -2 58 6 -3
13 -22 15 -44z m1071 -1200 c36 -8 42 -24 8 -24 -13 0 -28 -5 -34 -11 -15 -15
-33 -3 -33 22 0 20 10 23 59 13z m811 -780 c-60 -8 -130 -8 -130 -1 0 4 35 6
78 6 42 -1 66 -3 52 -5z m-177 -21 c-13 -2 -33 -2 -45 0 -13 2 -3 4 22 4 25 0
35 -2 23 -4z m-323 -153 c0 -14 -59 -42 -76 -36 -29 11 -15 35 24 39 20 2 40
4 45 5 4 1 7 -2 7 -8z m20 -79 c0 -9 -43 -28 -75 -33 -12 -2 -21 4 -23 14 -3
13 6 18 40 21 24 2 46 4 51 5 4 1 7 -2 7 -7z"/>
<path d="M6297 3354 c-13 -13 -7 -44 8 -44 8 0 15 7 15 15 0 8 0 18 1 22 1 10
-16 15 -24 7z"/>
<path d="M5865 2790 c-3 -5 -21 -10 -40 -10 -18 0 -35 -3 -37 -8 -6 -14 -173
-91 -203 -94 -30 -3 -43 -24 -31 -53 4 -11 17 -8 62 15 31 17 67 30 80 30 13
0 24 5 24 10 0 6 9 10 20 10 11 0 20 4 20 9 0 27 227 64 254 42 17 -14 26 -4
26 31 l0 28 -84 0 c-47 0 -88 -4 -91 -10z"/>
<path d="M4310 2630 c-8 -5 -25 -10 -38 -10 -12 0 -30 -4 -40 -9 -21 -11 -62
-27 -84 -35 -44 -14 -6 -65 48 -66 22 0 36 8 52 30 13 17 31 30 42 30 10 0 21
3 23 8 8 11 286 15 300 4 7 -6 26 -12 42 -14 24 -2 31 -8 33 -30 3 -25 26 -39
34 -20 2 4 24 18 51 31 35 18 47 30 47 47 0 22 -3 23 -81 22 -46 0 -86 5 -92
11 -14 14 -316 15 -337 1z"/>
<path d="M5695 2310 c-3 -5 -14 -10 -23 -10 -34 0 -62 -126 -43 -195 7 -27 11
-30 51 -30 28 0 45 5 50 15 4 8 12 25 18 37 7 13 12 31 12 42 0 10 9 21 20 24
39 10 15 107 -27 107 -12 0 -25 5 -28 10 -3 6 -10 10 -15 10 -5 0 -12 -4 -15
-10z"/>
<path d="M4595 2211 c-5 -5 -21 -11 -35 -13 -20 -2 -26 -9 -28 -37 -2 -18 1
-38 7 -44 6 -6 11 -31 11 -55 0 -44 9 -60 47 -80 27 -15 83 11 83 38 0 10 5
22 10 25 6 3 10 24 10 46 0 21 5 39 10 39 14 0 12 32 -3 51 -7 9 -23 18 -37
22 -14 3 -34 8 -45 12 -11 3 -24 2 -30 -4z"/>
<path d="M3988 1726 c-20 -6 -40 -14 -44 -18 -4 -5 -19 -8 -33 -8 -14 0 -37
-9 -51 -20 -14 -11 -28 -20 -32 -20 -4 0 -30 -22 -58 -49 -28 -28 -55 -51 -60
-53 -14 -5 -114 -105 -127 -127 -7 -11 -13 -41 -13 -65 0 -25 -4 -48 -10 -51
-5 -3 -10 -35 -10 -70 0 -35 5 -67 10 -70 6 -3 10 -35 10 -71 0 -84 15 -110
100 -178 25 -20 53 -36 63 -36 9 0 17 -3 17 -7 0 -11 50 -33 74 -33 12 0 32
-9 46 -20 14 -11 31 -20 38 -20 7 0 22 -9 34 -20 27 -25 60 -26 82 -2 15 18
15 20 -2 35 -10 10 -24 17 -30 17 -7 0 -12 4 -12 8 0 9 -59 32 -83 32 -9 0
-17 5 -17 10 0 6 -11 10 -25 10 -14 0 -34 5 -45 10 -11 6 -29 14 -40 20 -11 5
-27 10 -35 10 -8 0 -15 5 -15 10 0 6 -8 10 -17 10 -17 0 -43 40 -43 67 0 7 -4
13 -9 13 -11 0 -22 33 -28 80 -2 19 -8 39 -13 44 -14 14 -12 152 1 195 18 57
33 83 48 89 8 3 50 41 93 84 44 43 88 78 97 78 10 0 24 7 31 15 14 17 67 45
87 45 7 0 13 5 13 10 0 18 87 11 132 -11 23 -12 54 -27 68 -33 14 -6 34 -19
44 -28 11 -10 23 -18 28 -18 18 0 58 -45 58 -65 0 -11 16 -36 35 -55 19 -19
47 -60 61 -90 14 -30 36 -75 47 -99 18 -37 21 -61 20 -148 -1 -114 -11 -151
-58 -199 -35 -37 -97 -74 -125 -74 -10 0 -31 -5 -45 -12 -21 -9 -31 -9 -46 0
-10 7 -23 12 -28 12 -14 0 -44 -67 -36 -79 8 -14 82 -14 90 -1 3 6 22 10 42
10 19 0 47 8 61 18 15 10 40 24 56 32 60 30 129 121 141 185 15 84 5 255 -16
255 -5 0 -9 14 -9 30 0 17 -4 30 -10 30 -5 0 -10 6 -10 13 0 18 -24 67 -32 67
-5 0 -8 6 -8 13 0 6 -14 26 -30 44 -17 18 -30 36 -30 41 0 5 -13 23 -30 40
-16 18 -30 37 -30 42 0 16 -47 60 -65 60 -8 0 -15 5 -15 10 0 6 -9 10 -19 10
-11 0 -23 5 -26 10 -3 6 -19 10 -36 10 -16 0 -39 5 -52 12 -64 33 -61 32 -119
14z"/>
<path d="M5343 1423 c-35 -2 -63 -8 -63 -13 0 -6 -9 -10 -19 -10 -11 0 -23 -4
-26 -10 -3 -5 -14 -10 -24 -10 -10 0 -26 -9 -36 -20 -10 -11 -31 -20 -48 -20
-19 0 -50 -15 -90 -46 -70 -52 -78 -63 -97 -121 -15 -49 -8 -62 43 -88 34 -17
132 -20 142 -5 3 6 19 10 35 10 16 0 32 5 35 10 3 6 21 10 40 10 19 0 37 5 40
10 3 6 21 10 39 10 17 0 36 4 42 9 5 5 34 12 64 15 103 9 132 17 137 37 3 11
8 19 12 19 8 0 28 47 36 86 21 104 -56 141 -262 127z m187 -66 c22 -12 25 -19
22 -63 -5 -86 -11 -92 -116 -98 -111 -6 -178 -15 -190 -27 -6 -5 -25 -9 -42
-9 -18 0 -36 -4 -39 -10 -3 -5 -17 -10 -30 -10 -13 0 -27 -4 -30 -10 -9 -14
-67 -12 -87 4 -29 21 -21 49 25 91 53 50 79 65 114 65 16 0 39 9 53 20 14 11
35 20 48 20 12 0 22 5 22 10 0 6 9 10 19 10 11 0 23 5 26 10 9 15 175 12 205
-3z"/>
<path d="M4118 5126 c-20 -15 -24 -36 -7 -36 10 0 3 -40 -10 -50 -16 -13 -33
-61 -27 -77 7 -16 9 -16 26 7 26 34 80 140 80 156 0 18 -40 18 -62 0z"/>
<path d="M3816 5105 c-4 -14 -2 -33 3 -43 11 -18 12 -15 17 36 3 38 -11 43
-20 7z"/>
<path d="M4221 4966 c-9 -11 -9 -19 0 -33 10 -16 2 -31 -54 -105 -36 -48 -78
-113 -93 -145 -16 -32 -36 -66 -44 -75 -9 -10 -25 -34 -36 -55 -45 -83 -58
-103 -109 -158 -36 -39 -75 -110 -75 -136 0 -10 -3 -19 -8 -19 -9 0 -32 -72
-26 -82 3 -5 14 -8 24 -8 13 0 20 10 25 33 8 36 56 140 68 145 4 2 7 9 7 15 1
7 23 41 50 76 26 35 54 76 61 90 8 14 26 45 41 68 15 23 28 46 28 52 0 6 16
32 36 58 20 26 40 57 44 68 4 11 23 41 41 65 19 25 40 57 48 73 8 15 18 27 23
27 4 0 8 14 8 30 0 25 -4 30 -24 30 -13 0 -29 -6 -35 -14z"/>
<path d="M4023 4900 c-18 -20 -33 -42 -33 -48 0 -6 -4 -12 -8 -14 -9 -3 -61
-79 -80 -118 -19 -36 -35 -55 -53 -62 -8 -3 -21 -25 -29 -49 -15 -47 -41 -98
-71 -141 -11 -14 -19 -31 -19 -36 0 -6 -4 -12 -8 -14 -4 -1 -18 -18 -30 -35
-30 -42 -35 -116 -9 -121 10 -2 17 3 17 12 0 9 5 16 10 16 6 0 10 11 10 24 0
14 5 28 10 31 6 3 10 14 10 25 0 10 6 20 13 23 19 7 67 102 67 132 0 14 5 25
10 25 6 0 10 8 10 18 0 11 9 27 20 37 11 10 20 21 20 25 0 5 14 22 30 40 17
18 30 38 30 45 0 7 7 18 15 25 8 7 26 35 40 64 31 62 45 80 68 89 19 7 24 47
5 46 -7 0 -28 -18 -45 -39z"/>
<path d="M4290 4539 c-11 -19 -10 -20 10 -9 11 6 18 15 15 21 -9 13 -13 11
-25 -12z"/>
<path d="M4319 4293 c-6 -15 -9 -43 -7 -60 3 -22 0 -33 -9 -33 -7 0 -13 -6
-13 -14 0 -7 -18 -33 -40 -56 -22 -23 -40 -48 -40 -54 0 -6 -9 -22 -20 -36
-24 -30 -27 -80 -5 -80 8 0 15 7 15 15 0 8 5 15 10 15 6 0 10 7 10 16 0 16 78
137 92 142 4 2 8 12 8 23 0 11 4 27 9 37 26 50 33 71 29 87 -5 30 -27 29 -39
-2z"/>
<path d="M9557 3544 c-4 -4 -7 -28 -7 -54 0 -25 -5 -51 -12 -58 -9 -9 -8 -20
1 -49 7 -22 11 -75 9 -128 l-3 -90 -65 -3 c-35 -2 -73 1 -85 7 -24 12 -122 22
-225 24 -64 2 -75 0 -72 -14 1 -10 -6 -19 -19 -22 -17 -5 -19 -9 -9 -26 9 -17
21 -21 73 -23 34 -1 72 -2 84 -2 11 -1 25 -4 29 -8 4 -5 22 -8 41 -8 38 0 40
-7 13 -55 -11 -20 -20 -46 -20 -58 0 -12 -9 -35 -20 -52 -16 -24 -20 -47 -20
-115 -1 -63 -3 -80 -11 -67 -20 33 -49 15 -49 -32 0 -22 26 -75 44 -90 23 -19
49 35 63 131 5 40 26 67 38 48 13 -20 77 -8 161 32 23 11 52 18 65 16 23 -3
24 -7 27 -90 2 -63 6 -88 15 -88 23 0 37 23 37 61 0 21 5 41 10 44 6 4 10 109
10 284 -1 256 -2 280 -20 309 -11 18 -24 32 -29 32 -6 0 -11 33 -13 72 -2 56
-7 73 -18 76 -9 1 -19 0 -23 -4z m50 -286 c-2 -13 -4 -3 -4 22 0 25 2 35 4 23
2 -13 2 -33 0 -45z m-54 -245 c8 -44 3 -53 -28 -53 -13 0 -27 -4 -30 -10 -3
-5 -17 -10 -30 -10 -13 0 -27 -4 -30 -10 -3 -5 -19 -10 -35 -10 -21 0 -27 4
-25 18 14 70 15 72 40 72 13 0 27 5 30 10 3 6 17 10 30 10 13 0 27 5 30 10 3
6 14 10 24 10 13 0 20 -10 24 -37z m4 -109 c-3 -3 -12 -4 -19 -1 -8 3 -5 6 6
6 11 1 17 -2 13 -5z"/>
<path d="M11413 3487 c-28 -7 -55 -15 -59 -19 -4 -5 -15 -8 -25 -8 -9 0 -36
-10 -58 -22 -40 -21 -41 -23 -41 -75 0 -40 4 -53 15 -53 11 0 15 11 15 36 0
43 19 64 57 64 16 0 34 5 40 11 11 11 207 7 276 -6 35 -7 37 -9 37 -46 0 -40
-11 -67 -42 -103 -10 -11 -18 -26 -18 -33 0 -7 -4 -13 -10 -13 -5 0 -10 -7
-10 -15 0 -9 -8 -19 -17 -22 -23 -9 -82 -74 -83 -90 0 -7 -4 -13 -10 -13 -5 0
-10 -9 -10 -19 0 -11 -4 -21 -8 -23 -4 -1 -18 -17 -30 -35 -39 -56 -22 -112
36 -113 25 0 72 27 72 41 0 13 -37 11 -45 -1 -5 -8 -11 -7 -21 1 -10 8 -12 15
-4 23 5 5 10 19 10 29 0 19 42 71 148 184 28 31 52 60 52 65 0 5 9 18 20 30
16 18 20 36 20 94 0 65 -2 73 -25 88 -13 9 -31 16 -40 16 -8 0 -15 4 -15 9 0
9 -41 16 -132 25 -24 2 -66 -1 -95 -7z"/>
<path d="M9826 3301 c-11 -12 -25 -21 -31 -21 -21 0 -27 -32 -9 -51 18 -21 88
-27 99 -9 3 6 21 10 39 10 17 0 37 5 44 12 9 9 17 8 37 -2 21 -11 25 -21 25
-57 0 -24 -4 -43 -8 -43 -12 0 -32 -46 -32 -74 0 -13 -9 -31 -20 -41 -28 -25
-26 -128 3 -133 10 -2 20 4 24 15 4 10 15 25 25 34 11 10 18 30 18 51 0 19 5
39 12 46 15 15 54 16 63 2 3 -5 28 -10 55 -10 38 0 52 -4 60 -19 9 -18 12 -18
41 -4 24 12 30 20 27 42 -3 23 -8 26 -48 29 -25 2 -49 7 -54 13 -6 5 -26 9
-45 9 -20 0 -44 7 -53 14 -19 14 -25 56 -8 56 6 0 10 22 10 49 0 39 -4 51 -22
63 -29 19 -75 29 -163 35 -62 4 -73 2 -89 -16z"/>
<path d="M8754 3287 c-7 -20 3 -417 13 -525 4 -45 6 -82 4 -82 -2 0 -32 27
-68 60 -35 33 -68 60 -73 60 -13 0 -13 25 -1 48 5 9 12 25 15 35 3 9 17 22 31
27 42 16 30 36 -35 59 -58 21 -128 50 -152 62 -10 5 -36 9 -58 9 -23 0 -60 9
-82 20 -23 11 -54 20 -70 20 -24 0 -28 -4 -28 -29 0 -54 7 -61 68 -61 119 0
271 -46 272 -83 0 -10 -11 -29 -24 -42 -13 -13 -36 -49 -52 -81 -32 -66 -102
-141 -136 -146 -15 -2 -24 -11 -26 -27 -2 -13 -12 -39 -23 -58 -44 -78 -1 -87
63 -12 24 28 67 76 96 106 28 31 52 62 52 69 0 8 10 14 23 14 25 0 74 -65 57
-75 -19 -11 -10 -22 28 -34 48 -16 98 -11 95 9 -2 8 9 20 22 27 24 11 25 10
25 -21 0 -18 4 -36 9 -42 5 -5 12 -40 15 -79 19 -220 19 -205 -5 -231 -20 -21
-20 -24 -5 -30 10 -4 22 -2 29 5 6 6 21 11 33 11 13 0 26 4 29 10 11 18 8 231
-4 243 -6 6 -11 39 -11 73 0 35 -4 66 -10 69 -5 3 -10 33 -10 66 l0 60 113 -4
c61 -3 126 -8 144 -12 25 -6 33 -3 42 13 12 22 6 32 -21 32 -10 0 -30 7 -44
16 -23 15 -53 19 -206 23 -28 1 -28 2 -28 70 0 39 -4 73 -10 76 -5 3 -10 36
-10 73 0 56 -5 78 -30 125 -16 32 -30 64 -30 72 0 20 -19 29 -26 12z m-74
-592 c7 -9 8 -15 2 -15 -5 0 -12 7 -16 15 -3 8 -4 15 -2 15 2 0 9 -7 16 -15z
m53 -32 c-7 -2 -19 -2 -25 0 -7 3 -2 5 12 5 14 0 19 -2 13 -5z"/>
<path d="M6844 3233 c-6 -2 -78 -7 -160 -11 -147 -7 -149 -7 -152 -31 l-4 -24
149 7 c211 10 263 16 263 32 0 8 -11 14 -26 14 -14 0 -33 4 -42 9 -9 4 -22 6
-28 4z"/>
<path d="M10710 3160 c0 -11 -9 -25 -20 -32 -15 -10 -20 -24 -20 -54 0 -49 26
-67 95 -67 90 0 115 36 74 109 -30 54 -43 64 -88 64 -34 0 -41 -3 -41 -20z
m84 -72 l14 -28 -44 0 c-41 0 -44 2 -44 26 0 14 5 34 11 45 10 20 11 20 30 3
10 -9 26 -30 33 -46z"/>
<path d="M10235 2890 c-3 -5 -30 -10 -60 -10 -30 0 -57 -4 -60 -10 -3 -5 -28
-10 -54 -10 -26 0 -51 -4 -56 -9 -6 -5 -37 -11 -70 -14 -111 -11 -140 -20
-143 -45 -4 -23 -2 -24 70 -19 40 3 100 10 133 16 33 7 89 16 125 20 36 5 70
10 75 11 6 2 23 0 38 -5 18 -5 33 -3 40 4 6 6 24 11 39 11 15 0 28 5 28 10 0
6 9 10 20 10 15 0 20 7 20 25 0 24 -2 25 -69 25 -39 0 -73 -4 -76 -10z"/>
<path d="M10815 2872 c-11 -10 -172 -32 -229 -32 -32 0 -36 -3 -36 -25 0 -25
1 -25 84 -25 47 0 88 5 91 10 3 6 27 10 53 10 42 0 45 -1 27 -14 -11 -7 -29
-15 -39 -17 -20 -4 -26 -13 -48 -66 -7 -18 -16 -33 -19 -33 -7 0 -13 -36 -25
-145 -3 -27 -10 -54 -15 -60 -14 -14 -11 -37 9 -51 20 -16 58 -18 67 -4 3 6
26 10 50 10 24 0 47 5 50 10 3 6 17 10 30 10 13 0 27 5 30 10 3 6 42 10 85 10
71 0 79 2 85 21 4 11 5 21 3 22 -1 1 -13 8 -25 15 -27 14 -79 16 -88 2 -3 -5
-21 -10 -40 -10 -19 0 -37 -4 -40 -10 -3 -5 -17 -10 -30 -10 -13 0 -27 -4 -30
-10 -3 -5 -19 -10 -35 -10 -16 0 -32 -4 -35 -10 -16 -26 -27 -7 -21 38 4 26 9
77 12 113 6 77 17 91 108 138 36 19 73 31 97 31 38 0 39 1 39 35 l0 35 -54 0
c-30 0 -58 5 -61 10 -8 12 -37 13 -50 2z"/>
<path d="M7506 2853 c-4 -4 -51 -11 -104 -15 -228 -17 -268 -21 -282 -28 -8
-4 -30 -5 -48 -3 -29 5 -33 3 -30 -13 3 -17 12 -19 88 -17 47 0 135 6 195 13
61 6 164 14 230 18 123 7 145 13 145 38 0 11 -19 14 -93 14 -52 0 -97 -3 -101
-7z"/>
<path d="M7415 2705 c-16 -6 -41 -17 -54 -24 l-24 -13 24 -20 c21 -16 35 -18
104 -14 211 14 266 41 82 41 -59 0 -107 2 -107 4 0 2 7 9 16 16 24 17 -3 24
-41 10z"/>
<path d="M9575 2653 c3 -9 -7 -13 -30 -13 -18 0 -37 -4 -40 -10 -3 -5 -24 -10
-45 -10 -21 0 -42 -4 -45 -10 -3 -5 -24 -10 -46 -10 -41 0 -55 -22 -22 -34 21
-8 6 -23 -27 -28 -17 -2 -25 -9 -25 -23 0 -17 8 -20 55 -23 49 -3 68 2 122 29
10 5 38 9 62 9 32 0 49 5 58 19 7 10 23 21 36 25 20 7 22 4 22 -26 0 -19 -4
-38 -9 -43 -20 -22 -34 -233 -17 -267 5 -12 4 -18 -4 -18 -6 0 -14 9 -17 20
-8 28 -33 25 -33 -4 0 -24 44 -66 68 -66 19 0 42 63 42 115 0 28 5 56 11 62 8
8 7 17 -2 32 -11 16 -11 23 -1 33 6 6 12 21 12 33 0 12 4 25 8 31 5 5 15 42
22 82 18 96 8 107 -90 107 -52 0 -69 -3 -65 -12z"/>
<path d="M10038 2593 l-48 -25 0 -77 c0 -47 5 -82 12 -89 12 -12 80 -17 91 -6
3 3 26 7 51 9 68 4 116 44 116 94 0 54 -26 101 -55 101 -13 0 -27 5 -30 10
-11 18 -89 8 -137 -17z m171 -62 c49 -37 -5 -89 -94 -90 -39 0 -46 2 -32 10
26 15 20 29 -13 29 -31 0 -39 17 -18 38 15 15 75 16 80 0 3 -7 12 -9 22 -5 11
4 16 13 12 22 -7 20 14 19 43 -4z"/>
<path d="M11458 2562 c-7 -10 -21 -21 -30 -25 -10 -3 -18 -17 -18 -30 0 -13
-5 -28 -11 -34 -6 -6 -9 -21 -7 -34 2 -19 10 -25 38 -27 27 -2 44 4 73 28 34
29 37 35 37 86 l0 54 -34 0 c-22 0 -40 -7 -48 -18z m29 -54 c-3 -8 -6 -5 -6 6
-1 11 2 17 5 13 3 -3 4 -12 1 -19z"/>
<path d="M7545 2482 c-44 -7 -120 -17 -168 -21 -77 -7 -120 -21 -106 -35 4 -4
140 4 388 22 96 7 127 23 74 37 -46 13 -103 12 -188 -3z"/>
<path d="M6893 1924 c-3 -8 -1 -20 5 -26 15 -15 62 6 62 27 0 21 -59 20 -67
-1z"/>
<path d="M5708 5123 c-8 -10 -22 -34 -31 -54 -9 -20 -23 -42 -32 -49 -8 -7
-15 -18 -15 -24 0 -6 -18 -35 -40 -64 -39 -52 -50 -85 -30 -97 6 -3 14 4 19
17 5 13 21 34 35 47 14 14 26 29 26 35 0 5 9 19 19 30 29 31 81 131 81 155 0
26 -12 27 -32 4z"/>
<path d="M5853 5110 c-13 -15 -23 -31 -23 -34 0 -4 -9 -16 -20 -28 -22 -24
-27 -58 -7 -57 16 0 97 112 97 133 0 25 -22 18 -47 -14z"/>
<path d="M5537 4814 c-4 -4 -7 -20 -7 -36 0 -24 4 -29 21 -26 11 2 28 15 37
30 17 29 11 48 -11 30 -9 -8 -17 -8 -23 -2 -6 6 -13 7 -17 4z"/>
<path d="M6160 4670 c-10 -6 -11 -10 -2 -10 6 0 12 -7 12 -15 0 -8 -4 -15 -10
-15 -5 0 -10 -8 -10 -18 0 -10 -13 -33 -30 -52 -16 -19 -29 -40 -30 -46 0 -6
-7 -17 -15 -24 -9 -7 -24 -32 -35 -54 -10 -23 -30 -52 -44 -65 -14 -14 -26
-29 -26 -33 0 -5 -14 -29 -31 -54 -33 -48 -35 -87 -6 -92 20 -4 46 24 47 50 0
9 14 30 30 46 20 21 30 40 30 61 0 20 7 34 20 41 11 6 20 15 20 21 0 6 18 36
39 68 22 32 48 73 59 93 11 19 26 44 33 55 24 39 -11 69 -51 43z"/>
</g>
</svg>
