<?xml version="1.0" standalone="no"?>
<!DOCTYPE svg PUBLIC "-//W3C//DTD SVG 20010904//EN"
 "http://www.w3.org/TR/2001/REC-SVG-20010904/DTD/svg10.dtd">
<svg version="1.0" xmlns="http://www.w3.org/2000/svg"
 width="1480.000000pt" height="888.000000pt" viewBox="0 0 1480.000000 888.000000"
 preserveAspectRatio="xMidYMid meet">
<metadata>
Created by potrace 1.13, written by Peter Selinger 2001-2015
</metadata>
<g transform="translate(0.000000,888.000000) scale(0.100000,-0.100000)"
 stroke="none">
<path d="M12186 8702 c-9 -15 5 -48 26 -61 23 -14 37 -6 20 11 -7 7 -12 22
-12 35 0 22 -23 32 -34 15z"/>
<path d="M12403 8625 c-7 -8 -13 -21 -13 -30 0 -8 -4 -15 -10 -15 -5 0 -10 -9
-10 -20 0 -11 -7 -20 -15 -20 -8 0 -15 5 -15 10 0 6 -13 10 -28 10 -16 0 -34
8 -42 20 -8 11 -22 20 -32 20 -10 0 -18 5 -18 10 0 6 -7 10 -15 10 -19 0 -21
-55 -2 -67 27 -18 -488 -24 -2412 -29 -1207 -2 -2019 -8 -2025 -14 -7 -5 -303
-9 -716 -10 -854 -2 -942 -3 -955 -11 -16 -10 -119 -8 -132 3 -7 6 -19 5 -33
-4 -17 -11 -22 -11 -30 2 -8 12 -13 13 -29 3 -16 -10 -249 -13 -1041 -13 -741
-1 -1027 -4 -1046 -12 -18 -9 -27 -9 -36 0 -14 14 -189 16 -204 3 -5 -6 -40
-6 -91 0 -81 10 -249 7 -331 -6 -28 -5 -47 -3 -57 5 -12 10 -18 10 -29 1 -11
-9 -25 -9 -53 -2 -21 6 -101 8 -183 5 -80 -2 -154 -4 -165 -5 -11 0 -53 3 -92
7 -51 5 -77 3 -87 -5 -10 -8 -16 -9 -21 -1 -3 5 -40 10 -82 10 -87 0 -102 -11
-103 -72 0 -27 4 -38 15 -38 10 0 15 10 15 30 l0 30 1193 0 c655 0 1335 0
1511 0 231 0 322 3 333 11 10 9 17 9 25 1 15 -15 294 -17 303 -2 8 13 45 13
45 -1 0 -11 86 -9 106 3 5 4 30 2 54 -3 29 -7 47 -6 54 1 13 13 83 13 91 0 5
-8 11 -8 19 -1 8 7 337 12 972 15 527 2 970 4 984 4 14 1 59 0 100 -2 41 -2
79 -1 85 2 17 10 50 10 63 -1 9 -7 20 -6 38 2 31 14 91 15 99 1 3 -5 17 -10
30 -10 13 0 27 5 30 10 9 14 79 12 93 -2 10 -10 17 -10 32 0 15 9 255 12 1031
12 739 0 1016 3 1026 12 10 8 20 8 38 -2 18 -10 34 -10 67 -2 27 7 44 8 46 2
5 -13 39 -13 47 0 8 12 104 11 129 -2 12 -7 22 -6 29 1 8 8 215 11 699 11 452
0 688 3 688 10 0 16 14 12 38 -10 12 -11 29 -20 38 -20 9 0 18 9 21 20 3 11 9
20 14 20 5 0 9 20 9 45 0 25 -4 45 -10 45 -5 0 -10 9 -10 20 0 23 -19 26 -37
5z"/>
<path d="M2572 8598 c2 -13 8 -23 13 -23 6 0 11 10 13 23 2 15 -2 22 -13 22
-11 0 -15 -7 -13 -22z"/>
<path d="M12392 8398 c3 -55 6 -63 24 -66 27 -4 33 11 26 76 -4 47 -7 52 -29
52 -23 0 -24 -2 -21 -62z"/>
<path d="M2476 8393 c-12 -12 -6 -43 9 -43 8 0 15 9 15 19 0 21 -13 34 -24 24z"/>
<path d="M10731 8330 c-17 -17 -37 -30 -44 -30 -7 0 -19 -9 -27 -20 -9 -13
-26 -20 -45 -20 -33 0 -85 -20 -85 -32 0 -5 -7 -8 -16 -8 -9 0 -29 -13 -44
-30 -15 -16 -33 -30 -40 -30 -7 0 -25 -13 -40 -30 -15 -16 -32 -30 -38 -30 -5
0 -28 -18 -51 -40 -22 -22 -47 -40 -55 -40 -8 0 -18 -9 -21 -20 -3 -11 -11
-20 -17 -20 -5 0 -22 -12 -36 -28 -15 -15 -39 -33 -54 -41 -16 -8 -28 -18 -28
-23 0 -4 -7 -8 -16 -8 -9 0 -24 -8 -33 -18 -9 -10 -24 -21 -33 -25 -10 -3 -18
-13 -18 -22 0 -8 -9 -15 -20 -15 -11 0 -20 -4 -20 -10 0 -5 -12 -10 -26 -10
-16 0 -37 -12 -54 -30 -15 -16 -35 -30 -44 -30 -9 0 -16 -4 -16 -10 0 -5 -9
-10 -20 -10 -11 0 -20 -4 -20 -10 0 -5 -7 -10 -16 -10 -9 0 -18 -9 -21 -20 -3
-11 -14 -20 -24 -20 -11 0 -19 -4 -19 -10 0 -5 -6 -10 -13 -10 -7 0 -22 -8
-33 -17 -25 -23 -74 -53 -96 -60 -10 -3 -18 -9 -18 -14 0 -5 -13 -9 -30 -9
-16 0 -30 -4 -30 -10 0 -5 -9 -10 -20 -10 -11 0 -20 -4 -20 -10 0 -5 -9 -10
-20 -10 -11 0 -20 -4 -20 -10 0 -5 -9 -10 -20 -10 -11 0 -20 -4 -20 -10 0 -5
-9 -10 -20 -10 -11 0 -20 -4 -20 -10 0 -5 -9 -10 -20 -10 -11 0 -20 -4 -20
-10 0 -5 -11 -10 -24 -10 -14 0 -28 -4 -31 -10 -3 -5 -19 -10 -36 -10 -16 0
-29 -4 -29 -10 0 -6 -28 -10 -64 -10 -36 0 -68 5 -71 10 -3 6 -19 10 -35 10
-56 0 -180 86 -180 125 0 8 -9 15 -20 15 -13 0 -20 7 -20 19 0 11 -4 21 -8 23
-14 6 -52 66 -52 82 0 9 -4 16 -10 16 -5 0 -10 9 -10 20 0 11 -4 20 -10 20 -5
0 -10 9 -10 20 0 11 -4 20 -10 20 -5 0 -10 9 -10 19 0 11 -3 21 -7 23 -14 6
-53 90 -53 114 0 13 -4 24 -10 24 -5 0 -10 22 -10 49 0 28 -4 53 -10 56 -6 4
-10 65 -10 151 0 121 -2 144 -15 144 -8 0 -15 -9 -15 -20 0 -11 -4 -20 -10
-20 -5 0 -10 -9 -10 -20 0 -11 -4 -20 -10 -20 -5 0 -10 -9 -10 -20 0 -11 -4
-20 -10 -20 -5 0 -10 -6 -10 -13 0 -7 -9 -23 -20 -35 -11 -12 -20 -28 -20 -37
0 -8 -4 -15 -10 -15 -5 0 -10 -7 -10 -16 0 -9 -13 -30 -30 -46 -16 -15 -30
-35 -30 -42 0 -8 -4 -18 -10 -21 -5 -3 -10 -17 -10 -31 0 -13 -4 -24 -10 -24
-5 0 -10 -6 -10 -13 0 -18 -24 -67 -32 -67 -5 0 -8 -13 -8 -30 0 -16 -4 -30
-8 -30 -5 0 -15 -12 -23 -27 -8 -16 -22 -35 -31 -44 -10 -9 -18 -23 -18 -30 0
-8 -9 -21 -20 -29 -11 -8 -20 -20 -20 -26 0 -6 -13 -24 -28 -40 -16 -17 -31
-38 -35 -47 -3 -9 -11 -17 -17 -17 -15 0 -40 -26 -40 -41 0 -14 -185 -199
-200 -199 -5 0 -24 -13 -42 -30 -17 -16 -37 -30 -44 -30 -8 0 -14 -4 -14 -10
0 -5 -9 -10 -20 -10 -11 0 -20 -4 -20 -10 0 -5 -9 -10 -19 -10 -11 0 -23 -4
-26 -10 -3 -5 -28 -10 -56 -10 -27 0 -49 5 -49 10 0 6 -9 10 -20 10 -11 0 -20
5 -20 10 0 6 -13 10 -29 10 -17 0 -33 5 -36 10 -3 6 -17 10 -30 10 -13 0 -27
5 -30 10 -3 6 -16 10 -28 10 -13 0 -29 9 -37 20 -8 12 -26 20 -42 20 -15 0
-28 5 -28 10 0 6 -9 10 -20 10 -11 0 -20 4 -20 9 0 5 -8 11 -17 14 -34 11 -77
42 -124 90 -26 26 -52 47 -57 47 -5 0 -23 14 -40 30 -18 17 -37 30 -43 30 -16
0 -119 107 -119 124 0 9 -4 16 -9 16 -5 0 -12 9 -16 19 -9 29 -60 81 -80 81
-9 0 -23 -6 -31 -14 -19 -20 -18 -56 2 -56 9 0 18 -9 21 -20 3 -11 9 -20 14
-20 5 0 9 -13 9 -29 0 -17 5 -33 10 -36 6 -3 10 -17 10 -31 0 -13 5 -24 10
-24 6 0 10 -9 10 -19 0 -11 5 -23 10 -26 6 -3 10 -22 10 -41 0 -24 5 -34 15
-34 24 0 20 100 -5 145 -11 20 -20 45 -20 57 0 21 0 21 15 2 8 -10 15 -26 15
-34 1 -21 46 -70 65 -70 8 0 15 -4 15 -8 0 -5 12 -15 28 -23 15 -8 43 -30 62
-49 19 -19 47 -41 62 -49 14 -7 29 -22 31 -32 3 -11 12 -19 21 -19 9 0 16 -4
16 -10 0 -5 8 -10 18 -10 10 0 24 -9 32 -20 8 -11 24 -20 36 -20 27 0 103 -38
125 -62 9 -10 24 -18 33 -18 9 0 16 -4 16 -10 0 -5 13 -10 29 -10 17 0 33 -4
36 -10 3 -5 17 -10 30 -10 13 0 27 -4 30 -10 3 -5 26 -10 51 -10 24 0 44 -4
44 -10 0 -5 16 -10 35 -10 19 0 35 5 35 10 0 6 14 10 30 10 17 0 30 5 30 10 0
6 9 10 20 10 11 0 20 5 20 10 0 6 7 10 16 10 8 0 37 23 64 50 27 28 57 50 68
50 21 0 152 121 152 139 0 27 59 101 80 101 6 0 14 8 17 18 4 9 19 29 35 44
15 14 28 32 28 40 0 7 9 20 20 28 11 8 20 20 20 28 0 7 9 22 20 34 11 12 20
31 20 43 0 11 9 27 20 35 11 8 20 22 20 32 0 10 5 18 10 18 6 0 10 9 10 20 0
11 5 20 10 20 6 0 10 14 10 30 0 17 5 30 10 30 6 0 10 9 10 20 0 11 5 20 10
20 6 0 10 7 10 15 0 8 14 29 30 47 17 17 30 37 30 44 0 8 5 14 10 14 6 0 10 7
10 15 0 9 11 28 25 43 l25 27 0 -122 c0 -70 4 -124 10 -128 6 -3 10 -24 10
-45 0 -21 5 -42 10 -45 6 -3 10 -14 10 -23 0 -10 9 -24 20 -32 11 -8 20 -22
20 -32 0 -10 5 -18 10 -18 6 0 10 -13 10 -30 0 -16 5 -30 10 -30 6 0 10 -9 10
-20 0 -11 5 -20 10 -20 6 0 10 -8 10 -18 0 -10 9 -24 20 -32 11 -8 20 -20 20
-28 0 -18 25 -42 44 -42 9 0 16 -7 16 -15 0 -34 78 -124 108 -125 6 0 12 -3
12 -7 0 -13 53 -33 87 -33 18 0 33 -4 33 -10 0 -12 163 -14 188 -2 9 5 27 14
39 20 13 7 32 12 43 12 11 0 20 5 20 10 0 6 9 10 20 10 11 0 20 5 20 10 0 6 9
10 20 10 11 0 20 5 20 10 0 6 9 10 20 10 11 0 20 5 20 10 0 6 6 10 13 10 22 0
78 31 84 46 3 8 14 14 24 14 10 0 19 5 19 10 0 6 17 10 38 10 26 0 42 6 52 20
8 11 22 20 32 20 10 0 18 4 18 8 0 5 12 15 28 23 15 8 34 22 43 31 9 10 23 18
30 18 8 0 21 9 29 20 8 11 22 20 32 20 10 0 18 4 18 8 0 5 12 15 28 23 15 8
36 22 46 32 11 9 26 17 33 17 7 0 13 5 13 10 0 6 9 10 20 10 11 0 20 5 20 10
0 6 7 10 16 10 9 0 29 14 44 30 15 17 33 30 39 30 6 0 25 14 43 30 17 17 35
30 40 30 13 0 38 26 38 40 0 19 55 60 81 60 6 0 24 14 39 30 15 17 32 30 38
30 5 0 27 17 49 38 21 20 51 43 66 51 15 8 27 18 27 23 0 4 9 8 20 8 11 0 20
5 20 10 0 6 9 10 20 10 11 0 20 3 20 8 0 4 11 12 25 19 20 9 25 8 25 -3 0 -8
-4 -14 -10 -14 -5 0 -10 -9 -10 -20 0 -11 -4 -20 -10 -20 -5 0 -10 -9 -10 -20
0 -11 -4 -20 -10 -20 -5 0 -10 -9 -10 -19 0 -11 -4 -23 -10 -26 -5 -3 -10 -14
-10 -24 0 -9 -9 -27 -20 -39 -11 -12 -20 -33 -20 -47 0 -14 -4 -25 -10 -25 -5
0 -10 -13 -10 -29 0 -17 -4 -33 -10 -36 -5 -3 -10 -31 -10 -61 0 -30 -4 -54
-10 -54 -5 0 -10 -18 -10 -40 0 -22 -4 -40 -10 -40 -6 0 -10 -85 -10 -235 0
-150 4 -235 10 -235 6 0 10 -7 10 -15 0 -20 85 -105 105 -105 8 0 15 -4 15
-10 0 -5 13 -10 28 -10 15 0 33 -5 39 -11 6 -6 33 -11 61 -12 28 -1 54 -6 58
-10 4 -4 40 -7 81 -7 42 0 73 -4 73 -10 0 -6 40 -10 99 -10 56 0 103 -4 106
-10 3 -5 26 -10 51 -10 24 0 44 -4 44 -10 0 -6 43 -10 109 -10 61 0 112 -4
115 -9 3 -4 42 -11 86 -14 45 -3 84 -8 87 -11 6 -5 -114 -125 -143 -142 -10
-6 -22 -19 -28 -29 -15 -26 -68 -79 -99 -100 -15 -9 -27 -22 -27 -27 0 -5 -17
-26 -38 -46 -21 -20 -41 -45 -45 -54 -3 -10 -13 -18 -22 -18 -8 0 -15 -9 -15
-20 0 -11 -4 -20 -10 -20 -5 0 -10 -6 -10 -13 0 -18 -24 -67 -32 -67 -5 0 -8
-9 -8 -20 0 -11 -4 -20 -10 -20 -5 0 -10 -9 -10 -20 0 -11 -4 -20 -10 -20 -5
0 -10 -8 -10 -18 0 -10 -9 -24 -20 -32 -14 -10 -20 -26 -20 -52 0 -21 -4 -38
-10 -38 -6 0 -10 -58 -10 -155 0 -97 4 -155 10 -155 6 0 10 -13 10 -30 0 -16
5 -30 10 -30 6 0 10 -7 10 -15 0 -8 23 -37 50 -64 28 -28 50 -55 50 -62 0 -6
30 -40 67 -75 53 -50 74 -64 98 -64 19 0 36 -8 45 -20 8 -11 21 -20 30 -20 9
0 24 -13 33 -30 10 -16 25 -30 33 -30 8 0 14 -7 14 -15 0 -10 -10 -15 -30 -15
-16 0 -30 -4 -30 -10 0 -5 -15 -10 -34 -10 -19 0 -38 -4 -41 -10 -3 -5 -17
-10 -30 -10 -13 0 -27 -4 -30 -10 -3 -5 -19 -10 -36 -10 -16 0 -29 -4 -29 -10
0 -5 -9 -10 -20 -10 -11 0 -20 -4 -20 -10 0 -5 -18 -10 -40 -10 -22 0 -40 -4
-40 -10 0 -5 -24 -10 -54 -10 -30 0 -58 -4 -61 -10 -3 -5 -15 -10 -25 -10 -11
0 -35 -9 -55 -20 -20 -11 -47 -20 -60 -20 -14 0 -25 -3 -25 -8 0 -7 -70 -32
-92 -32 -7 0 -29 -14 -48 -30 -19 -16 -39 -30 -43 -30 -5 0 -26 -18 -47 -40
-21 -22 -44 -40 -50 -40 -16 0 -80 -70 -80 -87 0 -7 -4 -13 -10 -13 -5 0 -10
-9 -10 -20 0 -11 -4 -20 -10 -20 -5 0 -10 -17 -10 -37 0 -22 -9 -49 -20 -63
-18 -22 -20 -42 -20 -187 0 -89 4 -164 8 -167 5 -3 9 -29 10 -58 0 -29 6 -54
11 -56 6 -2 11 -32 11 -67 0 -35 5 -67 10 -70 6 -3 10 -17 10 -30 0 -13 5 -27
10 -30 6 -3 10 -21 10 -40 0 -19 5 -37 10 -40 6 -3 10 -15 10 -26 0 -10 5 -19
10 -19 6 0 10 -22 10 -50 0 -27 5 -50 10 -50 6 0 10 -13 10 -30 0 -16 5 -30
10 -30 6 0 10 -9 10 -20 0 -11 5 -20 10 -20 6 0 10 -13 10 -30 0 -16 5 -30 10
-30 6 0 10 -13 10 -30 0 -16 5 -30 10 -30 6 0 10 -13 10 -29 0 -17 5 -33 10
-36 6 -3 10 -15 10 -26 0 -11 9 -29 20 -41 11 -12 20 -32 20 -45 0 -13 5 -23
10 -23 6 0 10 -21 10 -46 0 -32 6 -52 18 -63 9 -9 22 -25 28 -36 6 -11 22 -25
36 -32 13 -7 33 -21 43 -33 16 -18 16 -20 2 -20 -10 0 -17 5 -17 10 0 6 -9 10
-19 10 -11 0 -23 4 -26 10 -3 5 -17 10 -30 10 -13 0 -27 5 -30 10 -3 6 -46 10
-96 10 -72 0 -89 -3 -89 -15 0 -11 11 -15 39 -15 22 0 43 -4 46 -10 3 -6 24
-10 45 -10 21 0 42 -4 45 -10 3 -5 15 -10 26 -10 10 0 19 -4 19 -10 0 -5 14
-10 30 -10 17 0 30 -4 30 -10 0 -5 9 -10 20 -10 11 0 20 -4 20 -10 0 -5 9 -10
20 -10 11 0 20 -4 20 -10 0 -5 11 -10 25 -10 22 0 25 4 25 33 0 21 -7 38 -20
47 -11 8 -20 20 -20 27 0 6 -30 42 -67 80 -70 70 -93 102 -93 128 0 8 -4 15
-10 15 -5 0 -10 23 -10 50 0 28 -4 50 -10 50 -5 0 -10 9 -10 20 0 11 -4 20
-10 20 -5 0 -10 14 -10 30 0 17 -4 30 -10 30 -5 0 -10 14 -10 30 0 17 -4 30
-10 30 -5 0 -10 14 -10 30 0 17 -4 30 -10 30 -5 0 -10 11 -10 24 0 14 -4 28
-10 31 -5 3 -10 21 -10 40 0 19 -4 37 -10 40 -5 3 -10 17 -10 30 0 13 -4 27
-10 30 -5 3 -10 19 -10 36 0 16 -4 29 -10 29 -5 0 -10 15 -10 34 0 19 -4 38
-10 41 -5 3 -10 17 -10 30 0 13 -4 27 -10 30 -5 3 -10 19 -10 35 0 16 -4 32
-10 35 -5 3 -10 17 -10 31 0 13 -4 24 -10 24 -6 0 -10 85 -10 235 0 150 4 235
10 235 6 0 10 9 10 20 0 11 5 20 10 20 6 0 10 9 10 20 0 11 4 20 8 20 5 0 15
12 23 28 20 39 90 112 106 112 8 0 32 18 53 40 21 22 46 40 54 40 9 0 16 5 16
10 0 6 9 10 20 10 11 0 20 5 20 10 0 6 14 10 30 10 17 0 30 5 30 10 0 6 14 10
30 10 17 0 30 5 30 10 0 6 9 10 20 10 11 0 20 5 20 10 0 6 14 10 30 10 17 0
30 5 30 10 0 6 14 10 30 10 17 0 30 5 30 10 0 6 14 10 30 10 17 0 30 5 30 10
0 6 27 10 60 10 33 0 60 4 60 10 0 6 14 10 30 10 17 0 30 5 30 10 0 6 13 10
29 10 17 0 33 5 36 10 3 6 22 10 41 10 19 0 34 5 34 10 0 6 33 10 80 10 71 0
80 2 80 18 0 18 -29 52 -44 52 -11 0 -36 27 -36 40 0 6 -8 14 -17 17 -10 4
-30 19 -45 35 -14 15 -30 28 -35 28 -15 0 -63 25 -63 33 0 4 -7 7 -15 7 -17 0
-165 144 -165 161 0 13 -20 33 -42 42 -10 3 -18 15 -18 25 0 10 -9 28 -21 40
-19 21 -20 31 -15 165 5 174 13 227 37 248 11 9 19 24 19 33 0 9 5 16 10 16 6
0 10 9 10 20 0 11 5 20 10 20 6 0 10 14 10 30 0 17 4 30 8 30 5 0 15 12 23 28
7 15 29 43 49 62 19 19 46 51 60 70 13 19 46 56 72 82 27 26 48 52 48 58 0 15
25 40 40 40 7 0 25 14 40 30 15 17 33 30 39 30 6 0 41 29 76 65 66 66 83 105
46 105 -11 0 -23 5 -26 10 -3 6 -39 10 -80 10 -41 0 -77 5 -80 10 -4 6 -68 10
-160 10 -92 0 -156 4 -160 10 -3 6 -28 10 -55 10 -27 0 -52 5 -55 10 -3 6 -32
10 -64 10 -31 0 -61 4 -67 9 -5 5 -34 12 -64 15 -136 14 -166 18 -174 27 -6 5
-25 9 -42 9 -18 0 -36 5 -39 10 -3 6 -13 10 -21 10 -8 0 -27 11 -42 24 -15 14
-37 33 -49 44 -15 12 -23 31 -23 50 0 17 -4 34 -10 37 -6 3 -10 52 -10 110 0
58 4 107 10 110 6 3 10 44 10 90 0 46 5 87 10 90 6 3 10 21 10 40 0 19 5 37
10 40 6 3 10 21 10 40 0 19 5 37 10 40 6 3 10 24 10 46 0 21 5 39 10 39 6 0
10 9 10 20 0 12 9 30 20 42 11 12 20 32 20 45 0 13 5 23 10 23 6 0 10 9 10 20
0 11 5 20 10 20 6 0 10 9 10 20 0 11 5 20 10 20 6 0 10 9 10 20 0 11 5 20 10
20 6 0 10 6 10 14 0 8 14 28 30 46 29 31 39 73 21 84 -5 3 -22 -8 -40 -24z"/>
<path d="M2250 8126 c0 -79 4 -137 10 -141 6 -4 10 -134 10 -359 0 -223 4
-356 10 -362 6 -6 10 -123 11 -309 0 -165 4 -305 9 -310 5 -6 10 -143 10 -303
1 -239 4 -292 15 -292 12 0 14 78 15 456 0 290 -3 461 -9 468 -6 7 -13 139
-16 322 -3 170 -7 446 -10 614 -5 305 -10 350 -42 350 -10 0 -13 -29 -13 -134z"/>
<path d="M12370 8126 c0 -78 -4 -137 -10 -141 -12 -7 -10 -55 2 -72 5 -6 5
-14 -2 -18 -7 -4 -10 -140 -10 -414 0 -243 -4 -430 -10 -462 -8 -39 -8 -77 1
-137 9 -63 10 -85 1 -94 -9 -9 -12 -82 -12 -248 0 -157 -4 -240 -11 -247 -8
-8 -8 -13 0 -17 13 -9 15 -242 2 -250 -13 -9 -13 -187 1 -204 9 -10 9 -15 0
-21 -8 -5 -13 -142 -17 -511 -2 -278 -6 -575 -8 -660 -2 -85 -4 -576 -6 -1090
-1 -514 -7 -940 -11 -946 -5 -5 -10 -186 -10 -402 -1 -216 -5 -394 -10 -397
-4 -3 -9 -244 -9 -536 -2 -373 -5 -538 -13 -555 -8 -16 -8 -28 -2 -32 11 -8
12 -72 1 -89 -4 -6 -7 -52 -6 -103 0 -50 -1 -93 -3 -96 -3 -2 -1726 -4 -3829
-4 -2996 0 -3828 -3 -3837 -12 -10 -10 -17 -10 -31 -1 -22 14 -196 16 -254 3
-21 -4 -40 -4 -43 1 -7 11 -51 12 -58 1 -7 -11 -375 -8 -400 3 -13 6 -21 5
-24 -3 -5 -16 -1220 -16 -1239 0 -14 11 -18 78 -5 78 5 0 15 12 23 28 8 15 26
39 41 54 30 28 38 68 13 68 -8 0 -15 -4 -15 -10 0 -5 -8 -10 -18 -10 -10 0
-25 -12 -33 -27 -8 -16 -22 -37 -31 -47 -10 -11 -18 -27 -18 -35 -1 -13 -4
-12 -15 3 -17 23 -21 176 -5 176 14 0 12 94 -2 108 -10 10 -10 17 -1 31 7 11
8 22 2 28 -5 5 -9 263 -9 622 0 357 -4 620 -10 631 -5 10 -10 260 -11 591 0
316 -5 579 -9 584 -5 6 -11 215 -14 465 -14 1159 -18 1315 -27 1326 -7 8 -6
14 1 19 13 8 13 52 0 60 -6 4 -10 130 -10 346 0 295 -2 339 -15 339 -13 0 -15
-74 -15 -608 0 -385 4 -612 10 -618 6 -6 10 -187 10 -481 0 -260 5 -475 9
-478 5 -2 9 -269 10 -592 2 -399 6 -591 13 -600 7 -9 7 -17 -2 -28 -7 -8 -8
-19 -3 -27 10 -16 9 8 12 -688 1 -385 5 -568 13 -577 7 -9 7 -17 -1 -27 -8 -9
-9 -16 -2 -21 11 -6 9 -47 -4 -76 -3 -10 -2 -20 4 -24 14 -8 14 -72 1 -80 -7
-4 -7 -11 -2 -18 12 -15 14 -214 3 -221 -9 -6 -7 -73 2 -82 3 -3 0 -18 -6 -32
-9 -20 -9 -26 1 -30 13 -4 17 -64 5 -76 -12 -12 -16 -146 -4 -146 6 0 11 -18
11 -40 0 -22 5 -40 11 -40 23 0 39 30 39 72 0 24 5 49 12 56 15 15 494 17 503
2 4 -7 12 -7 25 0 26 14 609 13 626 -1 10 -8 22 -8 45 0 22 8 712 11 2378 11
1544 0 2347 4 2349 10 5 13 45 13 58 0 7 -7 675 -10 1963 -10 1682 0 1954 2
1967 14 25 26 15 36 -36 36 -47 0 -63 11 -40 25 13 8 13 55 0 55 -15 0 -13
713 2 746 9 20 9 27 -1 33 -10 6 -11 24 -6 67 4 33 9 232 11 444 2 212 7 392
11 400 11 24 11 64 0 78 -7 9 -6 21 3 37 10 19 10 27 1 39 -8 10 -9 16 -1 21
7 4 10 340 10 1075 0 971 1 1068 16 1074 12 5 14 13 9 33 -3 14 -5 330 -4 702
3 807 3 764 10 776 4 6 8 183 8 395 1 228 6 389 11 394 14 14 12 90 -2 121 -8
19 -8 29 0 37 8 8 7 16 -1 29 -9 14 -9 21 1 31 16 16 16 162 0 189 -10 17 -10
23 0 26 7 3 12 24 12 54 0 27 5 49 10 49 6 0 10 7 10 15 0 8 -4 15 -10 15 -6
0 -10 113 -10 319 0 203 4 322 10 326 6 3 10 37 10 75 0 37 4 70 9 72 5 2 13
15 16 31 6 24 5 26 -11 20 -17 -6 -17 -5 -5 10 7 9 24 17 37 17 13 0 24 6 24
13 0 25 -24 37 -72 37 l-48 0 0 -134z"/>
<path d="M6770 7355 c0 -25 5 -45 10 -45 6 0 10 -9 10 -20 0 -11 5 -20 10 -20
6 0 10 -22 10 -48 0 -26 5 -53 12 -60 9 -9 9 -15 0 -24 -7 -7 -12 -36 -12 -64
0 -29 -4 -56 -10 -59 -5 -3 -10 -16 -10 -29 0 -12 -5 -27 -11 -33 -14 -14 -7
-85 9 -91 7 -2 12 5 12 17 0 11 5 23 10 26 6 3 10 19 10 36 0 16 5 29 10 29 6
0 10 13 10 29 0 17 5 33 10 36 6 3 10 50 10 106 0 59 -4 99 -10 99 -5 0 -10
14 -10 30 0 17 -4 30 -10 30 -5 0 -10 11 -10 24 0 14 -4 28 -10 31 -5 3 -10
15 -10 26 0 10 -7 19 -15 19 -11 0 -15 -12 -15 -45z"/>
<path d="M4646 7172 c-3 -5 -45 -10 -93 -11 -48 0 -92 -6 -97 -11 -6 -6 -27
-10 -48 -10 -21 0 -38 -4 -38 -10 0 -5 -11 -10 -24 -10 -14 0 -28 -4 -31 -10
-3 -5 -15 -10 -26 -10 -10 0 -19 -4 -19 -10 0 -5 -13 -10 -30 -10 -16 0 -30
-4 -30 -10 0 -5 -13 -10 -30 -10 -16 0 -30 -4 -30 -10 0 -5 -18 -10 -40 -10
-22 0 -40 -4 -40 -10 0 -5 -9 -10 -19 -10 -11 0 -21 -3 -23 -8 -1 -4 -33 -22
-70 -41 -38 -19 -68 -38 -68 -42 0 -5 -7 -9 -16 -9 -9 0 -37 -22 -63 -50 -26
-27 -52 -50 -58 -50 -15 0 -143 -130 -143 -146 0 -8 -4 -14 -10 -14 -5 0 -10
-9 -10 -19 0 -11 -4 -23 -10 -26 -6 -4 -10 -53 -10 -115 0 -62 4 -111 10 -115
6 -3 10 -19 10 -34 0 -15 9 -37 20 -49 11 -12 20 -33 20 -47 0 -14 5 -34 10
-45 6 -11 15 -29 20 -40 6 -11 10 -33 10 -49 0 -17 5 -33 10 -36 22 -14 7 -45
-50 -99 -33 -32 -60 -64 -60 -72 0 -8 -4 -14 -10 -14 -5 0 -10 -8 -10 -18 0
-19 -58 -82 -76 -82 -5 0 -20 -14 -34 -31 -46 -56 -55 -65 -72 -72 -10 -3 -18
-13 -18 -22 0 -8 -4 -15 -10 -15 -5 0 -10 -7 -10 -15 0 -8 7 -15 15 -15 8 0
15 4 15 10 0 5 15 9 34 8 29 -1 41 6 75 43 41 45 58 36 21 -11 -11 -14 -20
-31 -20 -38 0 -19 -26 -42 -47 -42 -11 0 -23 -4 -28 -9 -6 -5 -21 -11 -34 -13
-46 -6 -36 -28 13 -28 25 0 46 5 46 10 0 6 11 10 24 10 14 0 28 5 31 10 3 6
17 10 30 10 13 0 27 5 30 10 3 6 21 10 40 10 19 0 37 5 40 10 3 6 31 10 61 10
58 0 70 -14 34 -40 -11 -8 -20 -20 -20 -27 0 -20 24 -15 40 7 8 11 20 20 27
20 7 0 13 5 13 10 0 6 5 10 10 10 17 0 11 -40 -7 -47 -23 -9 -34 -21 -52 -55
-8 -16 -18 -28 -23 -28 -4 0 -8 -11 -8 -25 0 -16 6 -25 15 -25 8 0 15 6 15 13
0 7 13 28 30 47 16 19 29 43 30 54 0 14 5 17 23 12 12 -3 32 -6 44 -6 19 0 20
-3 10 -25 -7 -14 -15 -25 -19 -25 -5 0 -8 -8 -8 -18 0 -18 -18 -42 -31 -42 -3
0 -4 11 -1 25 2 14 8 25 13 25 12 0 11 37 -1 45 -6 3 -14 -4 -19 -17 -5 -13
-16 -30 -25 -37 -9 -7 -16 -24 -16 -37 0 -23 -4 -24 -62 -25 -81 -2 -102 1
-106 12 -6 15 -32 10 -32 -6 0 -8 4 -15 9 -15 5 0 11 -9 14 -20 4 -17 14 -20
55 -20 28 0 54 5 57 10 3 6 26 10 51 10 24 0 44 5 44 10 0 6 9 10 20 10 11 0
20 5 20 10 0 6 18 10 39 10 22 0 43 5 46 10 3 6 19 10 36 10 24 0 29 -4 29
-24 0 -14 5 -28 10 -31 12 -7 14 -115 2 -115 -5 0 -15 -12 -23 -27 -18 -36
-117 -133 -135 -133 -9 0 -14 -12 -14 -35 0 -22 5 -35 13 -35 18 0 67 -24 67
-32 0 -5 6 -8 13 -8 7 0 28 -13 47 -30 19 -16 45 -29 58 -30 12 0 22 -4 22
-10 0 -5 7 -10 15 -10 9 0 25 -9 37 -20 12 -11 32 -20 45 -20 13 0 23 -4 23
-10 0 -5 14 -10 30 -10 17 0 30 -4 30 -10 0 -5 14 -10 30 -10 17 0 30 -4 30
-10 0 -5 9 -10 20 -10 11 0 20 -4 20 -10 0 -5 25 -10 55 -10 30 0 55 -4 55
-10 0 -5 16 -10 35 -10 19 0 35 -4 35 -10 0 -5 11 -10 24 -10 14 0 28 -4 31
-10 3 -5 19 -10 34 -10 15 0 36 -9 46 -20 15 -17 31 -20 104 -20 60 -1 92 -5
105 -15 19 -15 19 -15 -2 -15 -31 0 -27 -23 8 -43 20 -12 30 -26 30 -43 0 -13
5 -24 10 -24 6 0 10 -11 10 -24 0 -14 5 -28 10 -31 18 -11 11 -35 -10 -35 -11
0 -20 -4 -20 -10 0 -5 -16 -10 -35 -10 -19 0 -35 5 -35 10 0 6 -10 10 -23 10
-13 0 -33 9 -45 20 -12 11 -27 20 -34 20 -19 0 -49 55 -42 74 3 9 10 16 15 16
5 0 9 7 9 15 0 18 -40 20 -73 3 -12 -6 -29 -14 -37 -18 -24 -11 -25 -40 -1
-40 11 0 23 5 26 10 3 6 14 10 24 10 16 0 17 -7 13 -52 -3 -29 -9 -56 -14 -59
-11 -7 -13 -33 -28 -419 -5 -140 -13 -308 -16 -372 -4 -103 -3 -118 10 -118
13 0 16 14 16 78 0 43 4 82 10 88 5 5 10 96 10 216 1 113 4 209 8 213 4 4 8
68 9 142 0 83 5 139 12 146 6 6 11 22 11 36 l0 25 33 -32 c18 -18 38 -32 45
-32 7 0 12 -4 12 -10 0 -5 13 -10 28 -10 15 0 33 -5 39 -11 8 -8 13 -8 17 0 4
6 20 11 36 11 15 0 30 5 32 12 3 8 15 5 36 -11 25 -17 32 -30 32 -55 0 -17 5
-37 12 -44 9 -9 7 -12 -10 -12 -12 0 -22 -4 -22 -10 0 -5 -9 -10 -20 -10 -11
0 -20 -4 -20 -10 0 -5 -11 -10 -24 -10 -14 0 -28 5 -31 10 -3 6 -21 10 -40 10
-19 0 -37 5 -40 10 -3 6 -21 10 -38 10 -21 0 -38 7 -47 20 -20 28 -40 25 -40
-5 0 -14 6 -25 13 -25 18 0 67 -24 67 -32 0 -5 18 -8 40 -8 22 0 40 -4 40 -10
0 -6 28 -10 65 -10 36 0 65 4 65 9 0 10 40 19 58 13 7 -2 12 -17 12 -33 0 -16
5 -29 10 -29 6 0 10 -16 10 -35 0 -24 5 -35 15 -35 11 0 15 12 15 44 0 25 -4
48 -10 51 -5 3 -10 27 -10 53 0 36 -5 50 -20 60 -13 8 -20 23 -20 41 0 17 -4
33 -10 36 -15 9 -12 54 4 71 20 20 50 17 71 -6 10 -11 24 -20 31 -20 7 0 24
-13 37 -30 24 -28 67 -42 67 -21 0 5 9 11 20 14 16 4 20 14 20 51 0 26 5 55
10 66 6 11 15 29 20 40 6 11 10 31 10 44 0 14 5 28 10 31 6 3 10 26 10 51 0
32 -4 44 -15 44 -11 0 -15 -11 -15 -40 0 -22 -4 -40 -10 -40 -5 0 -10 -13 -10
-30 0 -16 -4 -30 -10 -30 -5 0 -10 -8 -10 -18 0 -11 -9 -27 -20 -37 -14 -13
-20 -31 -20 -62 0 -23 -5 -43 -10 -43 -6 0 -39 21 -73 48 -107 81 -145 94
-133 47 8 -30 -16 -44 -39 -25 -21 18 -18 40 5 40 30 0 24 23 -10 43 -16 10
-30 25 -30 33 0 8 -3 14 -7 14 -5 0 -13 11 -20 25 -9 20 -8 25 3 25 18 0 64
29 64 41 0 11 49 59 61 59 5 0 14 11 19 25 5 14 17 28 25 31 8 4 15 15 15 25
0 10 4 19 8 19 4 0 16 14 26 32 28 46 86 108 102 108 8 0 18 8 21 18 4 9 9 19
13 22 19 15 70 101 70 119 0 35 -18 32 -36 -6 -27 -57 -94 -143 -113 -143 -13
0 -77 -76 -95 -114 -8 -17 -26 -42 -40 -55 -14 -14 -26 -29 -26 -33 0 -12 -26
-38 -37 -38 -5 0 -22 -13 -38 -30 -24 -25 -36 -30 -77 -30 -32 0 -48 -4 -48
-12 0 -9 -2 -10 -8 -2 -4 6 -36 12 -72 12 -36 1 -66 6 -68 11 -2 6 -14 11 -27
11 -13 0 -27 5 -30 10 -3 6 -15 10 -26 10 -10 0 -19 5 -19 10 0 6 -26 10 -59
10 -33 0 -63 5 -66 10 -3 6 -14 10 -24 10 -21 0 -71 22 -71 33 0 4 -15 7 -34
7 -19 0 -38 5 -41 10 -3 6 -15 10 -25 10 -11 0 -35 9 -55 20 -20 11 -43 20
-53 20 -10 0 -33 13 -52 28 -19 16 -50 35 -67 43 -18 8 -33 17 -33 21 0 5 -9
8 -20 8 -11 0 -20 5 -20 10 0 6 -15 10 -34 10 -19 0 -38 5 -41 10 -4 6 30 46
74 90 45 45 81 87 81 95 0 8 5 15 10 15 6 0 10 31 10 74 0 41 -4 78 -10 81 -5
3 -10 17 -10 31 0 13 -4 24 -10 24 -5 0 -10 11 -10 24 0 12 -13 37 -30 54 -30
32 -39 65 -20 77 6 3 10 17 10 31 0 13 4 32 9 42 5 9 16 32 23 50 7 17 16 32
20 32 5 0 8 9 8 20 0 11 5 20 10 20 6 0 10 9 10 20 0 11 5 20 10 20 6 0 10 9
10 20 0 11 5 20 10 20 6 0 10 7 10 15 0 36 -49 -1 -50 -37 0 -10 -4 -18 -10
-18 -5 0 -10 -7 -10 -15 0 -8 -4 -15 -10 -15 -5 0 -10 -9 -10 -20 0 -11 -4
-20 -10 -20 -5 0 -10 -9 -10 -19 0 -11 -4 -23 -10 -26 -5 -3 -10 -17 -10 -31
0 -13 -3 -24 -8 -24 -4 0 -13 -14 -21 -30 -13 -31 -13 -31 -31 -10 -19 22 -40
27 -40 9 0 -6 7 -17 15 -25 21 -22 19 -44 -5 -44 -15 0 -20 7 -20 24 0 14 -4
28 -10 31 -5 3 -10 15 -10 26 0 10 -4 19 -10 19 -5 0 -10 12 -9 28 0 15 3 21
6 15 9 -23 35 -15 31 10 -2 15 -11 23 -29 25 -21 3 -27 11 -38 52 -13 52 -41
70 -41 26 0 -25 -58 -96 -78 -96 -17 0 -15 11 8 40 11 14 20 31 20 38 0 6 5
12 10 12 6 0 10 11 10 25 0 32 -13 32 -39 -1 -12 -15 -21 -20 -21 -13 0 8 9
25 20 39 11 14 20 29 20 33 0 4 11 20 24 34 l24 26 13 -22 c17 -25 47 -28 56
-3 4 9 15 24 25 33 10 9 18 21 18 28 0 15 -23 14 -39 -1 -10 -11 -17 -7 -37
17 -13 17 -24 40 -24 53 0 12 -5 22 -11 22 -8 0 -8 4 0 14 8 10 9 16 1 21 -5
3 -10 15 -10 26 0 10 -4 19 -10 19 -5 0 -10 18 -10 40 0 22 -3 40 -7 40 -12 0
-33 51 -33 77 0 13 -4 23 -10 23 -5 0 -10 15 -10 34 0 19 -4 38 -10 41 -19 12
-11 118 10 145 11 14 20 31 20 38 0 6 5 12 10 12 6 0 10 8 10 18 0 10 9 24 20
32 11 8 20 20 20 28 0 19 25 42 47 42 24 0 73 43 73 64 0 9 6 16 13 16 6 0 28
14 47 30 19 16 42 30 51 30 9 0 24 9 34 20 10 11 25 20 33 20 12 0 10 -5 -6
-23 -12 -13 -22 -26 -22 -30 0 -16 21 -4 62 36 l43 42 70 -3 70 -3 68 -62 69
-62 -47 -25 c-56 -31 -61 -44 -17 -48 18 -2 32 1 32 7 0 6 9 11 19 11 11 0 22
6 24 13 3 6 6 -29 6 -79 1 -91 -12 -144 -36 -144 -7 0 -18 -9 -25 -20 -9 -13
-24 -20 -45 -20 -18 0 -33 -4 -33 -10 0 -5 -9 -10 -20 -10 -11 0 -20 -4 -20
-10 0 -15 -151 -12 -183 3 -15 6 -27 15 -27 20 0 4 -12 7 -26 7 -17 0 -28 6
-31 20 -3 11 -9 20 -14 20 -5 0 -9 18 -9 39 0 22 -4 43 -10 46 -23 14 -6 78
30 115 19 19 40 56 40 70 0 26 -40 1 -53 -32 -3 -10 -11 -18 -16 -18 -5 0 -17
-14 -25 -32 -18 -35 -22 -163 -6 -173 6 -3 10 -13 10 -22 0 -18 68 -83 87 -83
7 0 13 -4 13 -10 0 -5 9 -10 20 -10 11 0 20 -4 20 -9 0 -11 154 -14 177 -3 10
5 32 17 48 26 17 10 38 20 48 23 9 3 17 9 17 14 0 5 9 9 19 9 11 0 33 14 50
31 33 32 36 52 33 192 0 31 3 57 8 57 15 0 12 18 -7 41 -91 108 -131 149 -147
149 -9 0 -16 5 -16 10 0 6 -12 11 -27 11 -21 1 -23 2 -8 6 11 3 24 9 29 14 6
5 23 9 38 9 15 0 28 5 28 10 0 6 9 10 20 10 11 0 20 5 20 10 0 6 14 10 30 10
17 0 30 5 30 10 0 6 24 10 53 10 29 0 57 4 63 10 5 5 50 10 99 11 50 1 96 6
103 11 8 7 17 7 26 -1 11 -9 20 -9 35 -2 13 7 22 8 26 1 3 -5 17 -10 30 -10
13 0 27 -4 30 -10 3 -5 18 -10 31 -10 17 0 40 -14 65 -40 22 -22 45 -40 52
-40 18 0 37 -21 37 -40 0 -8 9 -21 20 -28 11 -7 20 -18 20 -26 0 -7 7 -19 15
-26 8 -7 21 -24 28 -39 7 -14 18 -35 24 -46 34 -65 53 -109 53 -125 0 -11 5
-22 10 -25 6 -3 10 -17 10 -31 0 -13 -4 -24 -10 -24 -5 0 -10 -7 -10 -15 0 -8
8 -15 18 -15 21 0 42 -18 42 -37 0 -7 -6 -13 -13 -13 -18 0 -67 -52 -67 -71 0
-8 -7 -24 -15 -35 -23 -31 -17 -36 15 -13 16 13 32 20 35 18 11 -11 -61 -136
-85 -148 -16 -7 -26 -8 -28 -1 -2 5 -19 10 -37 10 -19 0 -37 5 -40 10 -3 6
-21 10 -40 10 -19 0 -37 5 -40 10 -3 6 -17 10 -30 10 -13 0 -27 5 -30 10 -3 6
-19 10 -35 10 -16 0 -45 9 -65 20 -20 11 -46 20 -60 20 -13 0 -27 5 -30 10 -3
6 -21 10 -40 10 -19 0 -37 5 -40 10 -3 6 -24 10 -45 10 -21 0 -42 5 -45 10 -3
6 -21 10 -40 10 -19 0 -37 5 -40 10 -3 6 -26 10 -50 10 -24 0 -47 -4 -50 -10
-3 -5 -17 -10 -30 -10 -13 0 -27 -4 -30 -10 -3 -5 -17 -10 -30 -10 -13 0 -27
-4 -30 -10 -3 -5 -17 -10 -30 -10 -13 0 -27 -4 -30 -10 -3 -5 -17 -10 -31 -10
-25 0 -74 -40 -74 -60 0 -16 19 -12 42 10 14 13 36 20 59 20 21 0 41 5 44 10
3 6 15 10 26 10 10 0 19 5 19 10 0 6 14 10 30 10 17 0 30 5 30 10 0 6 15 10
33 10 18 0 38 5 44 11 8 8 13 8 17 0 4 -6 25 -11 46 -11 21 0 42 -4 45 -10 3
-5 17 -10 30 -10 13 0 27 -4 30 -10 3 -5 24 -10 46 -10 21 0 39 -4 39 -10 0
-5 11 -10 25 -10 13 0 40 -9 60 -20 20 -11 49 -20 65 -20 17 0 30 -4 30 -10 0
-5 18 -10 39 -10 22 0 43 -4 46 -10 3 -5 23 -10 43 -10 46 0 171 -59 172 -81
0 -27 -24 -68 -44 -73 -16 -4 -17 -8 -7 -20 11 -12 10 -21 0 -46 -8 -16 -17
-30 -21 -30 -5 0 -8 -11 -8 -25 0 -16 6 -25 15 -25 8 0 15 8 15 18 0 9 9 28
19 42 19 24 20 24 41 5 11 -10 28 -34 37 -52 8 -18 19 -33 24 -33 5 0 9 -5 9
-12 0 -6 7 -19 16 -29 15 -16 18 -17 39 -3 13 8 22 23 20 32 -1 9 0 11 2 5 3
-7 8 -13 12 -13 10 0 36 31 44 51 6 18 87 64 87 49 0 -5 12 -15 28 -22 21 -10
28 -21 30 -52 4 -42 -16 -92 -48 -121 -20 -18 -20 -18 -20 19 0 24 -5 39 -16
43 -19 7 -64 -16 -72 -37 -3 -8 -10 -21 -16 -29 -9 -11 -12 -7 -16 23 -3 20
-9 38 -15 39 -17 4 -17 -53 0 -90 l17 -35 29 28 c16 15 29 34 29 41 0 7 7 13
16 13 13 0 14 -3 4 -14 -20 -25 -8 -61 20 -64 19 -2 37 9 72 45 46 47 47 50
49 116 2 57 -1 71 -19 90 -12 13 -22 28 -22 34 0 12 -33 43 -46 43 -5 0 -37
-27 -72 -60 -65 -61 -91 -76 -72 -41 5 11 10 49 10 85 0 49 3 66 14 66 7 0 19
7 26 15 21 25 82 50 123 49 43 -2 95 -40 77 -58 -17 -17 -11 -36 15 -46 14 -5
28 -18 31 -27 3 -10 10 -26 15 -35 5 -10 9 -29 9 -42 0 -14 5 -28 10 -31 6 -3
10 -41 10 -83 0 -72 -2 -80 -30 -112 -16 -19 -29 -38 -30 -42 0 -5 -10 -19
-22 -33 -19 -22 -29 -25 -93 -25 -57 0 -75 -4 -88 -18 -10 -10 -17 -22 -17
-25 0 -11 128 -8 135 3 3 6 20 10 36 10 19 0 32 6 36 18 4 9 20 31 35 47 15
17 28 35 28 42 0 7 9 17 20 23 12 6 20 21 20 35 0 14 5 34 12 44 9 15 9 29 -2
62 -11 33 -12 43 -2 47 20 6 14 43 -8 49 -36 10 -26 60 23 112 24 26 46 53 48
60 3 7 11 9 22 5 17 -6 16 -10 -11 -38 -31 -33 -72 -90 -72 -100 0 -3 6 -6 14
-6 9 0 12 -7 9 -20 -4 -14 0 -20 11 -20 9 0 16 5 16 10 0 6 8 10 18 10 29 1
66 35 58 55 -5 14 -9 16 -18 7 -16 -16 -38 -15 -38 1 0 8 11 24 24 36 23 22
23 22 29 2 5 -21 27 -30 27 -11 0 6 6 10 13 10 13 0 167 146 167 159 0 4 -18
17 -41 29 -32 17 -58 22 -118 22 -42 0 -81 -4 -86 -9 -12 -10 -155 -21 -155
-11 0 11 45 50 58 50 6 0 35 28 63 63 59 71 85 97 96 97 5 0 31 23 58 50 27
28 54 50 61 50 6 0 19 9 29 20 10 11 26 20 35 20 10 0 24 14 33 31 8 18 17 27
21 20 4 -6 15 -11 25 -11 41 0 211 -113 211 -140 0 -14 49 -60 64 -60 14 0 56
-41 56 -56 0 -6 18 -28 40 -49 22 -21 40 -47 40 -57 0 -10 5 -18 10 -18 6 0
10 -9 10 -20 0 -11 5 -20 10 -20 6 0 10 -13 10 -30 0 -16 5 -30 10 -30 6 0 10
-9 10 -20 0 -11 5 -20 10 -20 14 0 12 -96 -2 -122 -7 -12 -25 -35 -40 -51 -16
-17 -28 -34 -28 -39 0 -11 -25 -38 -35 -38 -4 0 -20 -9 -36 -21 -37 -26 -38
-49 -1 -49 35 0 122 84 122 118 0 14 6 22 18 22 16 0 42 40 42 67 0 7 5 13 10
13 6 0 10 15 10 34 0 19 -4 38 -10 41 -5 3 -10 19 -10 36 0 32 -15 65 -42 90
-11 9 -18 31 -18 50 0 23 -6 38 -20 47 -11 7 -20 19 -20 28 0 8 -13 27 -30 41
-16 13 -30 33 -30 44 0 11 -7 19 -17 19 -21 0 -163 139 -163 159 0 12 3 12 12
3 7 -7 22 -12 35 -12 16 0 23 -6 23 -19 0 -17 11 -19 118 -25 64 -3 135 -7
157 -9 22 -2 47 0 55 4 8 4 22 10 31 13 17 4 49 58 49 80 0 7 9 18 20 26 25
18 29 100 5 100 -8 0 -15 -7 -15 -15 0 -19 -20 -55 -42 -76 -10 -9 -18 -28
-18 -41 0 -14 -6 -31 -14 -37 -16 -14 -223 -14 -232 0 -3 5 -19 9 -35 9 -18 0
-29 5 -28 13 6 47 5 47 -111 47 -67 0 -110 4 -110 10 0 6 -26 10 -59 10 -38 0
-61 4 -64 13 -4 10 -7 10 -18 0 -8 -8 -43 -13 -95 -13 -46 0 -86 -4 -89 -10
-3 -5 -28 -10 -55 -10 -27 0 -52 -4 -55 -10 -3 -5 -26 -10 -50 -10 -24 0 -47
-4 -50 -10 -3 -5 -19 -10 -35 -10 -16 0 -32 -4 -35 -10 -3 -5 -17 -10 -30 -10
-13 0 -27 -4 -30 -10 -3 -5 -19 -10 -35 -10 -15 0 -30 -6 -33 -12 -3 -10 -10
-10 -30 1 -25 13 -29 13 -50 -7 -32 -30 -59 -28 -74 5 -7 15 -13 33 -13 40 0
13 -36 81 -51 98 -5 5 -9 19 -9 32 0 13 -4 23 -10 23 -5 0 -10 9 -10 20 0 11
-4 20 -10 20 -5 0 -10 6 -10 13 -1 6 -23 36 -50 66 -28 30 -50 59 -50 65 0 6
-22 27 -48 46 -26 19 -55 42 -65 52 -11 9 -42 19 -70 23 -101 12 -225 16 -231
7z m1304 -457 c0 -8 -7 -15 -16 -15 -9 0 -28 -9 -42 -21 l-27 -21 -3 21 c-4
22 -26 29 -37 11 -11 -18 -25 -10 -25 15 0 24 2 25 75 25 60 0 75 -3 75 -15z
m-212 -26 c-7 -12 -25 -35 -40 -51 -16 -17 -28 -36 -28 -44 0 -8 -9 -14 -20
-14 -29 0 -112 -91 -97 -106 2 -2 -43 -50 -99 -106 -57 -57 -104 -108 -104
-114 0 -14 -50 -60 -50 -46 0 24 41 77 132 170 52 54 103 113 114 132 10 19
35 52 54 73 45 50 53 64 39 72 -13 9 -77 -51 -90 -83 -5 -12 -19 -26 -31 -31
-13 -5 -65 -52 -117 -105 -51 -53 -95 -96 -97 -96 -14 0 1 31 26 55 17 16 30
33 30 38 0 5 35 45 78 89 55 56 78 88 82 111 4 25 11 33 30 35 14 2 29 8 35
13 5 5 26 9 46 9 21 0 41 5 44 10 3 6 22 10 41 10 32 0 33 -1 22 -21z m20 -87
c-19 -26 -44 -52 -57 -58 -30 -15 -71 -55 -71 -69 0 -6 -18 -29 -40 -50 -22
-22 -40 -49 -40 -60 0 -12 -9 -30 -20 -40 -28 -25 -25 -37 8 -35 15 1 38 2 52
1 l25 -1 -27 -27 -27 -27 -42 22 c-22 12 -53 22 -67 23 -15 0 -22 3 -15 5 18
8 123 140 123 155 0 18 61 89 76 89 6 0 42 32 80 70 75 77 96 78 42 2z m-268
38 c0 -18 -65 -99 -79 -99 -11 -1 -9 5 6 22 11 12 26 37 34 55 13 30 39 45 39
22z m330 -25 c-7 -9 -15 -13 -17 -11 -7 7 7 26 19 26 6 0 6 -6 -2 -15z m-471
-71 c-23 -24 -45 -42 -47 -39 -3 2 6 27 19 54 15 32 31 51 44 53 35 5 28 -23
-16 -68z m31 -29 c-7 -9 -15 -13 -17 -11 -7 7 7 26 19 26 6 0 6 -6 -2 -15z
m-54 -73 c-17 -17 -26 -22 -26 -12 0 19 44 64 48 50 3 -7 -7 -24 -22 -38z
m-76 -125 c0 -7 -9 -20 -20 -30 -11 -9 -20 -24 -20 -33 0 -9 9 -18 20 -21 21
-6 27 -28 10 -38 -13 -8 -11 -106 2 -123 7 -8 6 -22 -6 -45 l-16 -32 0 28 c0
17 -7 30 -17 34 -48 17 -82 80 -53 98 6 3 10 19 10 36 0 16 5 29 10 29 6 0 10
11 10 23 0 13 9 32 20 42 11 10 20 24 20 32 0 7 7 13 15 13 8 0 15 -6 15 -13z
m659 -5 l43 -7 -21 -19 c-11 -11 -21 -23 -21 -29 0 -11 -59 -67 -70 -67 -5 0
-15 -3 -24 -6 -24 -9 -21 39 4 61 26 24 26 55 0 55 -13 0 -24 -10 -30 -24 -5
-14 -18 -30 -30 -36 -24 -13 -24 -11 -5 26 22 42 56 65 85 58 14 -3 45 -8 69
-12z m-298 -123 c-13 -11 -26 -17 -29 -14 -8 8 20 35 37 35 12 -1 11 -5 -8
-21z m-2016 -405 c-14 -26 -15 -27 -15 -6 0 27 24 69 28 49 1 -7 -4 -26 -13
-43z m135 -15 c0 -12 -8 -23 -20 -26 -11 -3 -20 -14 -20 -24 0 -11 -4 -19 -10
-19 -5 0 -10 -9 -10 -20 0 -11 -7 -20 -15 -20 -17 0 -21 35 -5 45 6 3 10 13
10 21 0 18 40 64 57 64 7 0 13 -9 13 -21z m-200 -19 c0 -5 -5 -10 -11 -10 -5
0 -7 5 -4 10 3 6 8 10 11 10 2 0 4 -4 4 -10z m52 -68 c6 -7 8 -15 4 -19 -3 -3
-6 -1 -6 5 0 7 -7 12 -15 12 -8 0 -15 -6 -15 -14 0 -8 -5 -18 -11 -21 -22 -14
-21 6 2 54 22 46 24 47 27 23 2 -15 9 -33 14 -40z m168 13 c0 -29 -4 -35 -21
-35 -16 0 -19 4 -13 23 6 22 23 47 30 47 2 0 4 -16 4 -35z m188 -166 c16 -25
3 -45 -34 -52 -30 -5 -39 6 -19 26 8 9 15 23 15 31 0 23 23 20 38 -5z"/>
<path d="M9670 6863 c0 -10 14 -34 30 -53 16 -19 30 -39 30 -43 0 -4 18 -24
40 -44 60 -56 54 -123 -12 -123 -15 0 -28 -4 -28 -10 0 -5 -8 -10 -18 -10 -21
0 -56 -33 -45 -43 10 -11 73 -8 73 3 0 6 8 10 18 10 10 0 23 5 29 11 14 14 75
8 81 -8 2 -7 -4 -13 -13 -13 -17 0 -45 -23 -45 -37 0 -4 -9 -19 -20 -33 -11
-14 -20 -37 -20 -52 0 -23 4 -28 25 -28 21 0 25 5 25 30 0 35 7 37 55 10 21
-12 54 -20 80 -20 41 0 45 2 45 25 0 23 -4 25 -40 25 -22 0 -40 5 -40 10 0 6
-9 10 -20 10 -11 0 -20 4 -20 8 0 15 25 62 33 62 4 0 7 11 7 25 0 17 -5 25
-18 25 -26 0 -42 20 -42 51 0 42 -54 129 -80 129 -13 0 -40 25 -40 37 0 5 -6
21 -12 36 -15 31 -58 38 -58 10z"/>
<path d="M4070 6816 c0 -17 -10 -31 -30 -43 -24 -14 -30 -24 -30 -53 0 -28 -5
-37 -27 -47 -15 -7 -31 -13 -36 -13 -12 0 -37 -26 -37 -39 0 -14 37 -14 45 -1
3 6 15 10 26 10 10 0 19 5 19 10 0 19 65 11 80 -10 26 -36 100 -19 100 22 0 8
9 20 20 28 11 8 20 22 20 32 0 9 5 20 10 23 12 8 13 45 1 45 -5 0 -11 9 -14
20 -4 15 -14 20 -41 20 -20 0 -36 5 -36 10 0 6 -16 10 -35 10 -30 0 -35 -3
-35 -24z m110 -46 c20 0 30 -5 30 -15 0 -8 -4 -15 -10 -15 -5 0 -10 -6 -10
-14 0 -7 -13 -27 -29 -43 -22 -23 -35 -29 -55 -26 -15 3 -26 12 -26 22 0 9 -9
22 -20 29 -26 16 -26 42 1 42 16 0 20 5 16 19 -6 25 20 33 50 14 12 -7 36 -13
53 -13z"/>
<path d="M7802 6828 c-14 -14 -16 -38 -3 -38 11 0 21 -58 27 -162 3 -43 10
-78 15 -78 5 0 9 -20 9 -44 0 -25 5 -48 10 -51 6 -3 10 -24 10 -46 0 -21 5
-39 10 -39 6 0 10 -16 10 -36 0 -28 7 -43 28 -60 34 -30 42 -30 42 1 0 14 -4
25 -10 25 -5 0 -10 9 -10 20 0 11 -4 20 -10 20 -5 0 -10 22 -10 49 0 28 -4 53
-10 56 -5 3 -10 26 -10 51 0 24 -4 44 -10 44 -5 0 -10 20 -10 44 0 25 -4 48
-10 51 -5 3 -10 37 -10 76 0 39 -4 69 -10 69 -5 0 -10 14 -10 30 0 31 -17 39
-38 18z"/>
<path d="M9330 6745 c0 -19 5 -35 10 -35 6 0 10 -24 10 -54 0 -30 3 -57 8 -60
4 -2 9 -33 10 -68 2 -34 8 -67 13 -72 5 -6 9 -38 9 -72 0 -35 5 -66 10 -69 6
-3 10 -28 10 -55 0 -27 5 -52 10 -55 6 -4 10 -55 10 -121 0 -91 3 -114 14
-114 14 0 17 15 32 143 4 30 2 53 -5 60 -6 6 -11 37 -11 69 0 32 -4 58 -10 58
-5 0 -10 26 -10 57 0 44 3 54 12 45 7 -7 43 -12 90 -12 63 0 78 3 78 15 0 10
-10 15 -29 15 -17 0 -33 5 -36 10 -3 6 -23 10 -44 10 -20 0 -49 6 -64 13 -25
11 -27 16 -27 74 0 34 -4 65 -10 68 -5 3 -10 28 -10 55 0 27 -4 52 -10 55 -5
3 -10 15 -10 26 0 22 -22 49 -39 49 -6 0 -11 -16 -11 -35z"/>
<path d="M10543 6745 c-9 -10 -13 -53 -13 -139 0 -72 -4 -127 -10 -131 -5 -3
-10 -34 -10 -68 0 -44 -6 -71 -20 -95 -24 -39 -27 -82 -5 -82 8 0 15 9 15 20
0 11 5 20 10 20 6 0 10 9 10 20 0 11 5 20 10 20 6 0 10 15 10 34 0 19 5 38 10
41 6 3 10 24 10 45 0 21 5 42 10 45 6 3 10 52 10 111 0 63 4 104 10 104 6 0
10 7 10 15 0 8 -4 15 -10 15 -5 0 -10 9 -10 20 0 23 -19 26 -37 5z"/>
<path d="M8936 6743 c-3 -3 -6 -19 -6 -34 0 -15 -4 -31 -10 -34 -6 -4 -10 -72
-10 -170 0 -98 4 -166 10 -170 6 -4 10 -54 10 -119 0 -61 4 -116 9 -122 5 -5
12 -43 15 -84 12 -146 21 -210 31 -213 6 -1 11 45 13 121 2 79 -1 122 -8 122
-6 0 -10 36 -10 94 0 52 -4 98 -10 101 -6 4 -5 13 2 25 10 15 10 22 0 32 -9 9
-12 71 -12 229 0 198 -5 241 -24 222z"/>
<path d="M10290 6731 c0 -11 -4 -23 -10 -26 -5 -3 -10 -37 -10 -75 0 -38 -4
-72 -10 -75 -16 -10 -13 -305 3 -305 21 0 42 60 29 81 -8 12 -8 20 -1 24 7 5
6 11 -2 21 -7 9 -9 27 -4 52 13 66 26 156 32 217 2 33 9 65 14 71 5 6 4 15 -3
22 -18 18 -38 14 -38 -7z"/>
<path d="M7276 6683 c-10 -11 -7 -301 4 -308 6 -3 10 -44 10 -90 0 -46 5 -87
10 -90 6 -3 10 -41 10 -84 0 -42 4 -81 10 -87 5 -5 10 -49 11 -97 1 -48 5 -90
10 -93 5 -3 9 -14 9 -25 0 -10 7 -19 15 -19 12 0 15 16 15 85 0 50 -4 85 -10
85 -6 0 -10 36 -10 89 0 50 -4 93 -10 96 -5 3 -10 37 -10 76 l0 69 43 0 c24 0
47 4 53 9 5 5 27 11 49 13 73 6 37 23 -53 25 -48 1 -93 2 -99 2 -9 1 -13 25
-13 85 0 47 -4 88 -10 91 -5 3 -10 42 -10 85 0 73 -8 99 -24 83z"/>
<path d="M8060 6563 c-8 -2 -24 -9 -35 -13 -11 -5 -40 -11 -65 -12 -60 -4 -53
-22 10 -26 36 -2 50 1 50 10 0 10 11 12 40 10 35 -4 40 -2 40 17 0 21 -10 24
-40 14z"/>
<path d="M9097 6553 c-10 -9 23 -43 42 -43 9 0 33 -14 54 -31 30 -24 37 -37
37 -65 l0 -34 -58 0 c-44 0 -72 -7 -120 -30 -64 -32 -82 -60 -38 -60 14 0 28
5 31 10 3 6 19 10 35 10 16 0 32 5 35 10 3 6 31 10 61 10 l54 0 0 -39 c0 -41
13 -60 26 -39 5 7 7 27 5 45 -1 19 2 33 8 33 6 0 11 11 11 25 0 14 -4 25 -10
25 -5 0 -10 25 -10 56 0 57 -14 84 -44 84 -9 0 -16 5 -16 10 0 6 -15 10 -34
10 -19 0 -38 5 -41 10 -7 12 -19 13 -28 3z"/>
<path d="M7510 6515 c0 -24 3 -25 60 -25 l60 0 0 -30 c0 -17 -9 -40 -20 -52
-14 -16 -20 -36 -20 -70 0 -41 3 -48 20 -48 11 0 20 -4 20 -10 0 -5 11 -10 25
-10 14 0 25 5 25 10 0 6 11 10 25 10 16 0 40 16 70 47 43 43 46 50 43 92 -3
39 -6 46 -25 49 -21 3 -23 -1 -23 -43 0 -39 -5 -51 -35 -80 -19 -19 -39 -35
-45 -35 -5 0 -10 -4 -10 -10 0 -15 -29 -12 -46 4 -15 16 -19 56 -6 56 12 0 52
79 52 102 0 11 -12 31 -27 44 -23 19 -39 24 -85 24 -55 0 -58 -1 -58 -25z"/>
<path d="M8660 6503 c-14 -2 -44 -8 -66 -13 -23 -5 -73 -10 -113 -11 -68 -1
-71 -2 -71 -26 0 -24 0 -24 88 -20 48 2 97 7 110 12 17 6 22 4 22 -9 0 -9 -4
-16 -10 -16 -5 0 -10 -11 -10 -24 0 -14 -5 -37 -11 -52 -7 -20 -7 -34 0 -49 6
-11 12 -47 13 -80 5 -96 23 -65 26 42 3 111 15 146 67 190 19 17 35 35 35 40
0 9 -37 25 -50 22 -3 -1 -16 -3 -30 -6z"/>
<path d="M8730 6341 c0 -11 -4 -23 -10 -26 -5 -3 -10 -41 -10 -83 -1 -80 -13
-112 -44 -112 -9 0 -16 -4 -16 -10 0 -5 -16 -10 -36 -10 -35 0 -64 -18 -64
-39 0 -14 67 -14 75 -1 3 6 22 10 41 10 19 0 34 5 34 10 0 6 11 10 24 10 14 0
28 5 31 10 3 6 22 10 41 10 38 0 69 22 61 43 -5 15 -73 11 -83 -4 -3 -5 -12
-9 -20 -9 -16 0 -20 55 -4 65 6 3 10 40 10 81 0 59 -3 74 -15 74 -8 0 -15 -9
-15 -19z"/>
<path d="M4050 6305 c0 -8 7 -15 15 -15 8 0 15 7 15 15 0 8 -7 15 -15 15 -8 0
-15 -7 -15 -15z"/>
<path d="M3955 6233 c-33 -36 -62 -70 -64 -76 -2 -7 -21 -28 -43 -49 -38 -36
-48 -58 -27 -58 14 0 179 171 179 186 0 7 9 14 20 17 22 6 29 47 8 46 -7 0
-40 -30 -73 -66z"/>
<path d="M7025 6280 c-16 -10 -40 -19 -52 -19 -13 -1 -23 -5 -23 -11 0 -5 -7
-10 -15 -10 -8 0 -15 5 -15 10 0 6 -11 10 -25 10 -20 0 -25 -5 -25 -25 0 -23
4 -25 45 -25 25 0 45 5 45 10 0 6 11 10 25 10 13 0 40 9 60 20 20 11 51 20 70
20 33 0 35 -2 35 -35 0 -19 -4 -35 -10 -35 -5 0 -10 -6 -10 -14 0 -17 -42
-100 -52 -104 -5 -2 -8 -11 -8 -21 0 -9 -9 -23 -20 -31 -22 -16 -27 -60 -7
-60 8 0 20 12 28 28 8 15 22 34 31 43 10 9 18 24 18 33 0 9 5 16 10 16 6 0 10
9 10 20 0 11 5 20 10 20 6 0 10 7 10 15 0 8 4 23 9 33 26 51 32 71 29 93 -3
22 -7 24 -73 26 -54 2 -77 -2 -100 -17z"/>
<path d="M9870 6270 c0 -6 -26 -10 -59 -10 -33 0 -63 -4 -66 -10 -3 -5 -26
-10 -50 -10 -24 0 -47 -4 -50 -10 -3 -5 -19 -10 -35 -10 -16 0 -32 -4 -35 -10
-3 -5 -15 -10 -26 -10 -10 0 -19 -4 -19 -10 0 -5 -9 -10 -20 -10 -15 0 -20 -7
-20 -25 0 -18 5 -25 19 -25 11 0 23 5 26 10 3 6 15 10 26 10 10 0 19 5 19 10
0 6 15 10 33 10 18 0 37 4 43 9 12 11 114 20 114 10 0 -4 -4 -11 -10 -14 -16
-10 -13 -365 3 -365 27 0 37 54 37 207 0 95 4 153 10 153 6 0 10 9 10 20 0 16
7 20 34 20 l34 0 6 -67 c11 -122 18 -168 27 -177 5 -6 9 -36 9 -67 0 -32 5
-61 11 -65 7 -4 9 -24 6 -55 -5 -40 -3 -49 9 -49 9 0 22 6 30 14 16 17 19 82
4 91 -5 3 -10 30 -10 60 0 30 -4 57 -10 60 -5 3 -10 26 -10 50 0 24 -4 47 -10
50 -15 9 -12 124 4 140 7 8 33 15 57 17 37 2 45 7 47 26 3 16 -2 22 -15 22
-11 0 -24 5 -31 12 -9 9 -17 8 -37 -2 -20 -10 -28 -11 -37 -2 -15 15 -68 16
-68 2z"/>
<path d="M9227 6126 c-25 -19 -21 -36 8 -36 18 0 25 5 25 19 0 26 -11 32 -33
17z"/>
<path d="M4215 6090 c-3 -5 -17 -10 -31 -10 -26 0 -54 -20 -54 -39 0 -14 47
-14 55 -1 3 6 33 10 65 10 32 0 62 -4 65 -10 3 -5 28 -10 56 -10 37 0 49 4 49
15 0 10 -10 15 -30 15 -16 0 -30 5 -30 10 0 6 -18 10 -39 10 -22 0 -43 5 -46
10 -3 6 -17 10 -30 10 -13 0 -27 -4 -30 -10z"/>
<path d="M7730 6080 c0 -11 -3 -20 -8 -20 -4 0 -13 -15 -20 -32 -7 -18 -18
-41 -23 -50 -5 -10 -9 -26 -9 -36 0 -10 -5 -23 -11 -29 -5 -5 -9 -30 -7 -54 2
-37 7 -45 26 -47 21 -3 22 0 22 67 0 41 4 71 10 71 6 0 10 10 10 23 1 54 60
76 102 37 12 -11 28 -20 35 -20 7 0 13 -4 13 -9 0 -5 14 -14 30 -21 17 -7 30
-16 30 -21 0 -5 16 -9 35 -9 19 0 35 5 35 11 0 14 -25 39 -39 39 -6 0 -25 14
-43 30 -18 18 -42 30 -57 30 -39 0 -81 22 -81 43 0 11 -8 17 -25 17 -18 0 -25
-5 -25 -20z"/>
<path d="M2310 6020 c0 -11 7 -20 15 -20 8 0 15 9 15 20 0 11 -7 20 -15 20 -8
0 -15 -9 -15 -20z"/>
<path d="M4083 6025 c-16 -17 -17 -35 -2 -35 14 0 39 25 39 39 0 15 -23 13
-37 -4z"/>
<path d="M4430 6030 c0 -6 8 -13 18 -16 9 -3 25 -10 34 -15 10 -5 29 -9 42 -9
14 0 28 -4 31 -10 3 -5 19 -10 35 -10 16 0 32 -4 35 -10 3 -5 28 -10 54 -10
52 0 77 -15 60 -37 -7 -7 -17 -13 -24 -13 -7 0 -19 -7 -26 -16 -7 -9 -23 -20
-36 -25 -31 -12 -34 -69 -3 -69 13 0 24 10 30 25 5 14 18 28 27 32 10 3 37 24
61 47 37 36 45 39 62 28 11 -6 29 -12 39 -12 11 0 23 -4 26 -10 3 -5 16 -10
29 -10 13 0 31 -9 41 -20 10 -11 31 -20 47 -20 23 0 28 4 28 25 0 14 -5 25
-12 25 -6 0 -1 11 12 24 36 39 21 56 -50 56 -53 0 -60 -2 -60 -20 0 -30 -47
-28 -52 3 -3 21 -7 22 -79 19 -49 -3 -79 0 -83 7 -4 6 -27 11 -52 11 -24 0
-44 5 -44 10 0 6 -18 10 -39 10 -22 0 -43 5 -46 10 -8 13 -105 13 -105 0z"/>
<path d="M8297 6033 c-4 -3 -7 -23 -7 -44 0 -21 -4 -41 -10 -44 -5 -3 -10 -31
-10 -61 0 -41 4 -54 15 -54 11 0 15 11 15 40 0 22 5 40 10 40 6 0 10 13 10 29
0 17 5 33 10 36 6 3 10 19 10 36 0 21 -5 29 -18 29 -10 0 -22 -3 -25 -7z"/>
<path d="M10208 6034 c-3 -3 -4 -14 -1 -25 8 -28 33 -24 33 6 0 23 -18 34 -32
19z"/>
<path d="M10450 5975 c0 -16 6 -25 15 -25 9 0 15 9 15 25 0 16 -6 25 -15 25
-9 0 -15 -9 -15 -25z"/>
<path d="M4050 5965 c0 -8 7 -15 15 -15 8 0 15 7 15 15 0 8 -7 15 -15 15 -8 0
-15 -7 -15 -15z"/>
<path d="M6183 5820 c-18 -16 -35 -40 -39 -54 -5 -21 -3 -24 15 -19 12 3 21
11 21 18 0 20 50 49 63 36 6 -6 17 -11 24 -11 18 0 52 -32 69 -65 16 -31 19
-165 4 -165 -5 0 -10 -15 -10 -34 0 -19 -4 -38 -10 -41 -5 -3 -10 -19 -10 -36
0 -16 -4 -29 -10 -29 -5 0 -10 -16 -10 -35 0 -33 -32 -85 -52 -85 -16 0 -88
-63 -88 -77 0 -25 35 -13 75 27 22 21 48 39 58 40 10 0 17 8 17 20 0 11 5 20
10 20 6 0 10 9 10 19 0 11 5 23 10 26 6 3 10 22 10 41 0 19 5 34 10 34 6 0 10
14 10 30 0 17 5 39 10 50 6 11 15 29 20 40 6 11 10 45 10 75 0 30 -4 55 -10
55 -5 0 -10 11 -10 25 0 24 -42 75 -62 75 -6 0 -18 8 -27 19 -9 10 -30 21 -46
25 -24 5 -36 0 -62 -24z"/>
<path d="M4766 5735 c-9 -13 -16 -32 -16 -41 0 -19 28 -43 50 -44 21 0 40 33
29 51 -5 8 -9 24 -9 37 0 30 -33 29 -54 -3z"/>
<path d="M4230 5710 c0 -5 -13 -10 -30 -10 -16 0 -30 -4 -30 -10 0 -5 -13 -10
-30 -10 -16 0 -30 -4 -30 -10 0 -5 -13 -10 -30 -10 -16 0 -30 -4 -30 -10 0 -5
-18 -10 -40 -10 -36 0 -40 -2 -40 -25 0 -18 5 -25 19 -25 11 0 23 5 26 10 3 6
15 10 26 10 10 0 19 5 19 10 0 6 14 10 30 10 17 0 30 5 30 10 0 6 13 10 29 10
17 0 33 5 36 10 3 6 19 10 35 10 16 0 32 5 35 11 4 6 31 9 63 8 47 -2 58 0 60
14 3 15 -6 17 -72 17 -44 0 -76 -4 -76 -10z"/>
<path d="M5637 5713 c-4 -3 -7 -28 -7 -55 0 -26 -4 -57 -10 -68 -5 -11 -14
-29 -20 -40 -5 -11 -10 -28 -10 -38 0 -10 -5 -23 -11 -29 -6 -6 -9 -28 -7 -49
2 -32 7 -40 26 -42 21 -3 22 0 22 62 0 37 5 76 12 89 25 48 28 58 28 81 0 14
5 28 10 31 6 3 10 19 10 36 0 21 -5 29 -18 29 -10 0 -22 -3 -25 -7z"/>
<path d="M6107 5646 c-10 -8 -17 -27 -17 -48 0 -20 -7 -41 -15 -48 -34 -28
-61 -120 -35 -120 6 0 18 18 27 40 10 22 21 40 25 40 5 0 8 9 8 20 0 11 5 20
10 20 6 0 10 17 10 38 0 21 5 43 11 49 16 16 -3 23 -24 9z"/>
<path d="M3293 5593 c-24 -30 -22 -43 8 -43 12 0 19 7 19 20 0 11 5 20 10 20
6 0 10 7 10 15 0 23 -23 17 -47 -12z"/>
<path d="M4308 5566 c-10 -7 -18 -21 -18 -30 0 -17 22 -46 35 -46 12 0 35 29
35 44 0 21 -17 20 -29 -1 -10 -17 -10 -17 -11 0 0 9 5 17 10 17 6 0 10 7 10
15 0 18 -9 19 -32 1z"/>
<path d="M3612 5515 c-42 -45 -51 -65 -32 -65 14 0 100 86 100 100 0 22 -28 8
-68 -35z"/>
<path d="M5470 5525 c0 -8 5 -15 10 -15 6 0 10 -9 10 -19 0 -20 40 -104 53
-109 4 -2 7 -16 7 -31 0 -28 26 -61 48 -61 7 0 12 -11 12 -24 0 -30 49 -81 64
-66 7 7 6 14 -2 22 -22 22 -12 28 53 28 36 0 65 -4 65 -9 0 -5 10 -11 21 -13
12 -2 27 -11 33 -20 8 -14 4 -24 -22 -51 -17 -18 -32 -41 -32 -50 0 -19 -44
-66 -103 -110 -20 -15 -37 -36 -37 -46 0 -9 -9 -27 -20 -39 -23 -24 -26 -42
-7 -42 6 0 28 22 47 48 42 57 140 156 147 148 3 -3 15 -1 25 5 14 7 17 14 10
21 -17 17 27 86 60 93 26 6 41 35 18 35 -5 0 -10 7 -10 15 0 8 4 15 9 15 5 0
13 9 16 20 3 11 13 20 21 20 8 0 14 6 14 13 0 6 14 28 30 47 31 37 39 70 17
70 -8 0 -20 -12 -28 -27 -8 -16 -22 -37 -31 -47 -10 -11 -18 -26 -18 -33 0 -7
-6 -13 -14 -13 -8 0 -23 -13 -32 -29 -15 -25 -20 -28 -38 -19 -49 25 -57 28
-81 28 -14 0 -25 5 -25 10 0 6 -29 10 -66 10 -39 0 -70 5 -78 13 -25 26 -56
76 -56 91 0 8 -9 31 -20 51 -11 20 -20 40 -20 46 0 14 -26 39 -39 39 -6 0 -11
-7 -11 -15z"/>
<path d="M5351 5447 c2 -52 -8 -81 -43 -121 -22 -25 -24 -76 -3 -76 8 0 15 8
15 18 0 11 9 27 20 37 11 10 20 23 20 30 0 6 11 22 25 35 29 27 31 42 10 60
-8 7 -15 25 -15 41 0 20 -5 29 -16 29 -12 0 -15 -11 -13 -53z"/>
<path d="M8870 5377 c0 -46 5 -88 11 -94 8 -8 7 -17 -2 -32 -11 -16 -11 -23
-1 -33 7 -7 12 -38 12 -70 0 -45 3 -58 15 -58 12 0 15 15 15 76 0 77 11 104
44 104 8 0 18 5 21 10 8 13 98 13 112 -1 8 -8 13 -8 17 0 4 6 16 11 27 11 22
0 25 16 5 36 -17 16 -52 19 -61 4 -3 -5 -26 -10 -51 -10 -29 0 -44 -4 -44 -13
0 -9 -11 -12 -35 -9 l-35 4 0 62 c-1 60 -15 96 -39 96 -7 0 -11 -28 -11 -83z"/>
<path d="M5456 5366 c-3 -11 -6 -31 -6 -43 0 -13 -4 -23 -10 -23 -5 0 -10 -15
-10 -34 0 -19 -4 -38 -10 -41 -16 -10 -12 -55 5 -55 8 0 15 9 15 19 0 11 5 23
10 26 6 3 10 22 10 41 0 19 5 34 10 34 6 0 10 9 10 19 0 11 5 23 10 26 17 11
11 42 -9 48 -14 3 -21 -2 -25 -17z"/>
<path d="M4750 5350 c-8 -5 -30 -15 -47 -22 -39 -15 -43 -38 -8 -38 14 0 25 5
25 10 0 6 11 10 25 10 14 0 25 5 25 10 0 6 5 10 10 10 6 0 10 -25 10 -55 0
-30 -4 -55 -10 -55 -5 0 -10 -24 -10 -52 0 -29 -7 -61 -14 -71 -13 -17 -15
-16 -39 13 -14 16 -33 30 -41 30 -9 0 -16 5 -16 10 0 6 -7 10 -15 10 -9 0 -25
9 -37 20 -12 11 -28 20 -35 20 -7 0 -13 5 -13 10 0 6 -11 10 -25 10 -14 0 -25
-4 -25 -9 0 -14 92 -101 105 -101 7 0 20 -9 30 -20 10 -11 26 -20 36 -20 10 0
21 -4 24 -10 3 -5 21 -10 39 -10 36 0 38 4 53 103 3 20 9 40 14 43 5 3 9 41 9
85 l0 79 -27 -1 c-16 0 -35 -4 -43 -9z"/>
<path d="M4595 5287 c-29 -18 -45 -34 -45 -46 0 -18 36 -12 55 9 10 11 27 20
37 20 25 0 18 24 -8 27 -10 1 -28 -3 -39 -10z"/>
<path d="M8483 5285 c-15 -17 -18 -135 -3 -135 6 0 10 -9 10 -20 0 -11 7 -20
15 -20 12 0 15 17 15 95 0 97 -8 114 -37 80z"/>
<path d="M8537 5293 c-4 -3 -7 -15 -7 -25 0 -12 7 -18 24 -18 14 0 28 5 31 10
3 6 15 10 26 10 10 0 19 -4 19 -10 0 -5 7 -10 16 -10 17 0 32 -14 52 -48 14
-26 16 -62 2 -62 -5 0 -10 -7 -10 -16 0 -16 -47 -64 -62 -64 -4 0 -10 5 -13
10 -9 15 -25 2 -25 -21 0 -14 7 -19 25 -19 14 0 25 5 25 10 0 6 12 10 26 10
32 0 74 44 74 78 0 12 5 22 10 22 6 0 10 14 10 30 0 23 -11 42 -45 75 -43 44
-46 45 -108 45 -35 0 -67 -3 -70 -7z"/>
<path d="M7230 5231 c0 -17 5 -33 10 -36 6 -3 10 -20 10 -36 0 -20 4 -29 13
-27 15 6 23 88 8 88 -6 0 -11 9 -11 20 0 11 -7 20 -15 20 -10 0 -15 -10 -15
-29z"/>
<path d="M6510 5223 c1 -25 24 -53 44 -53 8 0 21 -9 28 -20 7 -11 19 -20 26
-20 8 0 27 -13 42 -30 15 -16 35 -30 43 -30 9 0 19 -4 22 -10 3 -5 17 -10 31
-10 14 0 24 -6 24 -15 0 -18 46 -65 64 -65 15 0 96 -104 96 -123 0 -7 9 -23
20 -37 16 -20 20 -41 20 -107 0 -49 -4 -83 -10 -83 -5 0 -10 -9 -10 -20 0 -11
-9 -25 -20 -32 -11 -7 -20 -17 -20 -23 0 -6 -12 -26 -28 -45 -15 -19 -34 -48
-42 -65 -8 -16 -26 -43 -41 -60 -14 -16 -32 -45 -40 -62 -8 -18 -18 -33 -24
-33 -5 0 -28 -17 -50 -38 -22 -21 -45 -41 -51 -43 -23 -8 -104 -90 -104 -104
0 -8 -7 -15 -15 -15 -8 0 -28 -13 -43 -30 -16 -16 -35 -30 -41 -30 -15 0 -50
-40 -51 -57 0 -15 46 -17 55 -3 3 6 24 10 46 10 21 0 48 5 59 10 11 6 29 15
40 20 11 6 38 10 60 10 22 0 40 5 40 10 0 6 23 10 50 10 28 0 50 5 50 10 0 6
68 10 184 10 113 0 187 -4 191 -10 3 -5 24 -10 46 -10 42 0 69 -17 69 -44 0
-9 5 -16 10 -16 6 0 10 -9 10 -20 0 -11 5 -20 10 -20 6 0 10 -48 10 -124 0
-73 -4 -127 -10 -131 -5 -3 -10 -39 -10 -80 0 -41 -4 -77 -10 -80 -5 -3 -10
-44 -10 -91 0 -49 -4 -84 -10 -84 -5 0 -10 -9 -10 -19 0 -11 -4 -23 -10 -26
-5 -3 -10 -19 -10 -35 0 -16 -4 -32 -10 -35 -5 -3 -10 -15 -10 -26 0 -10 -4
-19 -10 -19 -5 0 -10 -9 -10 -20 0 -11 -4 -20 -10 -20 -5 0 -10 -9 -10 -20 0
-11 -3 -20 -7 -20 -9 0 -33 -49 -33 -67 0 -7 -4 -13 -10 -13 -5 0 -10 -9 -10
-20 0 -11 -4 -20 -8 -20 -5 0 -15 -12 -23 -27 -8 -16 -22 -35 -31 -44 -10 -9
-18 -28 -18 -43 0 -15 -6 -26 -13 -26 -19 0 -47 -33 -47 -53 0 -11 8 -17 21
-17 22 0 49 22 49 40 0 6 7 13 15 17 25 9 216 204 226 230 5 13 19 27 33 33
13 5 43 28 67 52 24 24 59 55 78 67 18 13 51 41 72 62 22 22 46 39 54 39 8 0
15 5 15 10 0 6 23 10 50 10 28 0 50 5 50 10 0 6 11 10 24 10 14 0 28 5 31 10
3 6 17 10 30 10 13 0 27 5 30 10 3 6 26 10 50 10 24 0 47 5 50 10 3 6 26 10
51 10 24 0 44 -4 44 -10 0 -5 14 -10 30 -10 17 0 30 -4 30 -10 0 -5 14 -10 30
-10 17 0 30 -4 30 -9 0 -5 15 -16 33 -24 37 -18 67 -50 67 -72 0 -8 5 -15 10
-15 6 0 10 -15 10 -34 0 -28 31 -107 50 -126 13 -13 30 -52 30 -69 0 -11 5
-23 10 -26 6 -3 10 -17 10 -30 0 -13 5 -27 10 -30 6 -3 10 -17 10 -30 0 -13 5
-27 10 -30 6 -3 10 -15 10 -26 0 -10 5 -19 10 -19 6 0 10 -20 10 -44 0 -25 5
-48 10 -51 6 -3 10 -19 10 -36 0 -16 5 -29 10 -29 6 0 10 -16 10 -35 0 -22 8
-44 20 -57 12 -13 20 -36 20 -55 0 -18 5 -33 10 -33 6 0 10 -38 10 -94 0 -53
4 -98 10 -101 6 -3 10 -30 10 -60 0 -30 4 -56 9 -60 6 -3 10 -127 11 -303 0
-184 4 -298 10 -300 6 -2 10 -17 10 -33 0 -16 5 -29 10 -29 6 0 10 -9 10 -20
0 -30 27 -24 42 10 7 17 16 30 20 30 5 0 8 7 8 16 0 8 17 32 38 53 46 45 62
73 62 106 0 14 5 25 10 25 6 0 10 6 10 13 0 7 9 23 20 35 11 12 20 26 20 32 0
5 18 29 40 51 22 23 40 48 40 55 0 8 5 14 10 14 6 0 10 8 10 18 0 10 9 24 20
32 11 8 20 21 20 30 0 9 9 22 20 30 11 8 20 26 20 40 0 14 9 32 20 40 11 8 20
22 20 32 0 10 5 18 10 18 6 0 10 9 10 20 0 11 5 20 10 20 6 0 10 9 10 20 0 11
5 20 10 20 6 0 10 7 10 15 0 9 9 25 20 37 11 12 20 28 20 35 0 7 9 13 20 13
13 0 20 7 20 20 0 11 5 20 10 20 6 0 10 9 10 20 0 11 5 20 10 20 6 0 10 7 10
15 0 9 9 25 20 37 11 12 20 36 20 53 0 19 7 36 20 45 11 8 20 20 20 28 0 7 9
22 20 34 11 12 20 28 20 35 0 7 5 13 10 13 6 0 10 9 10 20 0 11 5 20 10 20 6
0 10 9 10 20 0 11 5 20 10 20 6 0 10 7 10 16 0 9 14 29 30 44 17 15 30 32 30
37 0 15 25 63 33 63 4 0 7 14 7 30 0 17 5 30 10 30 6 0 10 7 10 16 0 19 154
173 193 193 15 8 27 23 27 33 0 11 7 18 20 18 11 0 20 5 20 10 0 6 11 10 24
10 14 0 28 5 31 10 3 6 15 10 26 10 10 0 19 5 19 10 0 6 10 10 23 10 13 0 27
4 33 10 6 6 128 11 304 12 224 2 294 6 298 16 2 8 -9 12 -37 12 -23 0 -41 5
-41 10 0 13 -44 13 -91 -1 -28 -9 -42 -9 -52 -1 -16 14 -304 15 -312 2 -4 -6
-19 -10 -35 -10 -16 0 -32 -4 -35 -10 -3 -5 -28 -10 -56 -10 -27 0 -49 -4 -49
-10 0 -5 -13 -10 -30 -10 -16 0 -30 -4 -30 -10 0 -5 -7 -10 -16 -10 -9 0 -29
-13 -44 -30 -15 -16 -32 -30 -37 -30 -12 0 -83 -65 -83 -76 0 -14 -46 -64 -59
-64 -23 0 -41 -28 -41 -62 0 -22 -7 -39 -20 -48 -11 -8 -20 -22 -20 -32 0 -10
-3 -18 -7 -18 -8 0 -33 -48 -33 -63 0 -5 -13 -22 -30 -37 -16 -15 -30 -35 -30
-44 0 -9 -4 -16 -10 -16 -5 0 -10 -9 -10 -20 0 -11 -4 -20 -10 -20 -5 0 -10
-9 -10 -20 0 -11 -4 -20 -10 -20 -5 0 -10 -9 -10 -19 0 -11 -3 -21 -7 -23 -11
-4 -53 -87 -53 -104 0 -8 -4 -14 -10 -14 -5 0 -10 -8 -10 -18 0 -10 -9 -24
-20 -32 -11 -8 -20 -24 -20 -36 0 -12 -22 -45 -50 -75 -27 -30 -50 -59 -50
-66 0 -7 -4 -13 -10 -13 -5 0 -10 -9 -10 -20 0 -11 -4 -20 -10 -20 -5 0 -10
-9 -10 -20 0 -11 -4 -20 -10 -20 -5 0 -10 -9 -10 -20 0 -11 -4 -20 -10 -20 -5
0 -10 -12 -10 -26 0 -15 -8 -34 -18 -43 -9 -9 -23 -28 -31 -43 -8 -16 -18 -28
-23 -28 -4 0 -8 -7 -8 -15 0 -9 -11 -27 -25 -40 -13 -14 -32 -42 -42 -62 -9
-21 -30 -50 -45 -65 -15 -14 -28 -33 -28 -42 0 -9 -4 -16 -10 -16 -5 0 -10
-11 -10 -25 0 -28 -17 -62 -42 -86 -10 -9 -18 -22 -18 -28 0 -17 -26 -41 -43
-41 -8 0 -18 -8 -21 -17 -18 -46 -25 30 -26 262 -1 138 -1 264 -1 282 1 18 -4
35 -9 38 -6 3 -10 30 -10 60 0 30 -4 57 -10 60 -5 3 -10 35 -10 71 0 36 -4 64
-10 64 -5 0 -10 14 -10 30 0 17 -4 30 -10 30 -6 0 -10 27 -10 60 0 33 -4 60
-10 60 -5 0 -10 14 -10 30 0 17 -4 30 -10 30 -5 0 -10 15 -10 34 0 19 -4 38
-10 41 -5 3 -10 26 -10 50 0 24 -4 47 -10 50 -5 3 -10 15 -10 26 0 10 -4 19
-10 19 -5 0 -10 11 -10 24 0 14 -4 28 -10 31 -5 3 -10 19 -10 36 0 16 -4 29
-10 29 -5 0 -10 9 -10 19 0 11 -4 23 -10 26 -5 3 -10 14 -10 24 0 9 -8 26 -17
37 -25 28 -43 61 -43 79 0 8 -4 15 -10 15 -5 0 -10 11 -10 24 0 14 -4 28 -10
31 -5 3 -10 19 -10 36 0 20 -5 29 -16 29 -9 0 -28 12 -42 28 -29 29 -105 72
-128 72 -8 0 -14 5 -14 10 0 6 -35 10 -84 10 -47 0 -88 -4 -91 -10 -3 -5 -24
-10 -45 -10 -21 0 -42 -4 -45 -10 -3 -6 -15 -10 -26 -10 -10 0 -19 -4 -19 -10
0 -5 -13 -10 -30 -10 -16 0 -30 -4 -30 -10 0 -5 -11 -10 -24 -10 -14 0 -28 -4
-31 -10 -3 -5 -15 -10 -26 -10 -10 0 -19 -4 -19 -10 0 -5 -11 -10 -25 -10 -18
0 -42 -16 -76 -50 -27 -27 -54 -50 -59 -50 -10 0 -53 -36 -95 -77 -12 -13 -25
-23 -29 -23 -11 0 -76 -69 -76 -80 0 -14 -25 -40 -39 -40 -6 0 -11 7 -11 15 0
8 5 15 10 15 6 0 10 9 10 20 0 11 5 20 10 20 6 0 10 9 10 20 0 11 5 20 10 20
6 0 10 11 10 24 0 14 5 28 10 31 6 3 10 15 10 26 0 10 5 19 10 19 6 0 10 23
10 50 0 28 5 50 10 50 6 0 10 15 10 34 0 19 5 38 10 41 6 3 10 28 10 55 0 27
5 52 10 55 6 3 10 44 10 90 0 46 5 87 10 90 6 4 10 53 10 116 0 66 -4 109 -10
109 -5 0 -10 14 -10 30 0 17 -4 30 -10 30 -5 0 -10 6 -10 13 0 7 -15 30 -34
50 l-34 37 -255 0 c-160 0 -258 -4 -262 -10 -3 -5 -35 -10 -70 -10 -35 0 -67
-4 -70 -10 -3 -5 -15 -10 -26 -10 -10 0 -19 -4 -19 -10 0 -5 -7 -10 -15 -10
-13 0 -13 4 -3 22 16 29 94 108 106 108 5 0 17 9 27 20 10 11 23 20 29 20 20
1 86 70 86 90 0 11 23 43 50 71 28 28 50 58 50 65 0 8 5 14 10 14 6 0 10 7 10
16 0 8 13 29 30 47 16 18 30 38 30 44 0 7 9 18 20 25 11 7 20 20 20 30 0 9 5
20 10 23 11 7 14 185 3 185 -8 0 -33 48 -33 62 0 5 -9 18 -20 30 -11 12 -20
28 -20 35 0 7 -3 13 -8 13 -4 0 -13 14 -20 30 -8 17 -21 30 -29 30 -9 0 -29
14 -45 30 -15 17 -35 30 -43 30 -8 0 -15 7 -15 16 0 22 -25 44 -51 44 -12 0
-38 15 -59 33 -74 64 -110 87 -140 87 -12 0 -20 -7 -20 -17z"/>
<path d="M6190 5195 c0 -8 -4 -15 -10 -15 -5 0 -10 -9 -10 -21 0 -25 -50 -98
-67 -99 -10 0 -13 -27 -13 -100 l0 -100 -44 0 c-25 0 -48 5 -51 10 -3 6 -39
10 -79 10 -40 0 -77 5 -83 11 -16 16 -43 3 -43 -21 0 -18 6 -20 79 -20 44 0
83 -4 86 -10 3 -5 27 -11 53 -11 32 -2 37 -3 17 -6 -69 -9 -115 -44 -115 -89
0 -18 -4 -36 -10 -39 -5 -3 -10 -33 -10 -66 0 -33 4 -59 10 -59 6 0 10 -9 10
-20 0 -24 16 -25 59 -4 35 17 33 34 -5 34 -23 0 -24 2 -24 73 0 66 3 76 25 95
16 14 38 22 63 22 32 0 39 -4 51 -31 8 -18 14 -48 15 -68 1 -32 4 -36 29 -39
23 -3 26 -6 16 -18 -13 -16 -59 -19 -59 -4 0 16 -19 12 -42 -10 -23 -21 -18
-26 30 -32 20 -3 18 -7 -28 -55 -55 -57 -93 -69 -103 -33 -4 15 -14 20 -39 20
-19 0 -39 -5 -45 -11 -7 -7 -37 -11 -67 -10 -53 1 -56 0 -56 -24 0 -21 5 -25
30 -25 17 0 30 -4 30 -10 0 -5 24 -10 53 -10 47 0 54 -3 80 -34 15 -19 27 -40
27 -45 0 -7 -25 -11 -60 -11 -47 0 -60 -3 -60 -15 0 -11 11 -15 38 -15 30 -1
34 -3 20 -11 -10 -5 -18 -17 -18 -24 0 -8 -4 -15 -10 -15 -5 0 -10 -7 -10 -16
0 -20 -24 -44 -44 -44 -9 0 -16 -7 -16 -15 0 -32 -40 -85 -64 -85 -9 0 -16 -8
-16 -18 0 -10 -13 -31 -30 -47 -16 -16 -30 -34 -30 -40 0 -7 -9 -20 -20 -30
-11 -10 -20 -24 -20 -32 0 -7 -4 -13 -10 -13 -5 0 -10 -6 -10 -12 0 -7 -14
-27 -30 -45 -29 -31 -41 -73 -20 -73 6 0 10 -7 10 -16 0 -8 6 -22 14 -30 16
-16 76 -19 76 -4 0 6 7 10 15 10 8 0 15 -8 15 -18 0 -9 9 -23 20 -30 11 -7 20
-19 20 -28 0 -8 9 -24 20 -36 11 -12 20 -28 20 -35 0 -7 9 -13 20 -13 13 0 20
-7 20 -20 0 -11 4 -20 9 -20 5 0 11 -9 14 -20 3 -11 12 -20 21 -20 9 0 16 -7
16 -15 0 -8 -4 -15 -10 -15 -11 0 -14 -33 -3 -43 9 -9 43 22 43 40 0 7 5 13
10 13 6 0 10 9 10 20 0 11 5 20 10 20 6 0 10 6 10 13 0 7 9 23 20 35 11 12 20
33 20 47 0 14 5 25 10 25 6 0 10 9 10 20 0 11 5 20 10 20 6 0 10 11 10 24 0
14 5 28 10 31 6 3 10 15 10 26 0 10 5 19 10 19 6 0 10 16 10 35 0 24 -5 35
-15 35 -9 0 -15 -9 -15 -24 0 -14 -4 -28 -10 -31 -5 -3 -10 -15 -10 -26 0 -10
-4 -19 -10 -19 -5 0 -10 -11 -10 -24 0 -14 -4 -28 -10 -31 -5 -3 -10 -15 -10
-26 0 -10 -4 -19 -10 -19 -5 0 -10 -8 -10 -17 0 -10 -9 -29 -20 -43 -11 -14
-20 -33 -20 -42 0 -10 -6 -18 -14 -18 -15 0 -77 67 -104 112 -9 15 -20 28 -24
28 -4 0 -8 7 -8 15 0 8 -13 28 -30 43 -16 16 -30 38 -30 49 0 23 40 63 63 63
10 0 17 8 17 18 0 10 9 24 20 32 24 17 27 60 5 60 -8 0 -15 -6 -15 -13 0 -16
-64 -87 -79 -87 -15 0 -80 -72 -81 -88 0 -19 -17 -6 -33 26 -13 27 -12 30 14
53 16 13 29 30 29 37 0 7 13 27 30 45 16 18 30 37 30 43 0 5 14 23 30 39 17
16 30 34 30 41 0 6 13 22 30 35 16 13 30 30 30 38 0 17 55 70 93 90 24 13 29
12 59 -11 30 -22 68 -27 68 -9 0 4 -18 24 -40 46 l-39 38 26 14 c14 7 36 13
49 13 24 0 32 14 15 24 -15 10 11 51 46 74 18 12 46 22 62 22 27 0 28 -1 18
-25 -7 -14 -19 -25 -28 -25 -25 0 -69 -24 -69 -37 0 -9 17 -13 50 -13 28 0 50
5 50 10 0 6 8 10 18 10 27 0 74 26 102 55 13 14 32 25 42 25 10 0 48 23 83 50
49 38 73 50 100 50 28 0 35 4 35 20 0 11 7 20 15 20 8 0 15 5 15 10 0 6 5 10
11 10 14 0 59 51 59 66 0 6 9 19 20 29 11 10 20 24 20 32 0 7 5 13 10 13 6 0
10 9 10 20 0 11 5 20 10 20 18 0 10 26 -20 60 -16 19 -29 41 -30 47 0 21 -42
63 -62 63 -21 0 -23 12 -6 40 10 16 10 24 0 40 -6 11 -12 29 -12 40 0 15 -7
20 -25 20 -16 0 -25 -6 -25 -15 0 -8 5 -15 10 -15 13 0 13 -123 -1 -137 -13
-13 -8 -118 6 -117 6 0 13 11 16 25 23 94 33 93 90 -7 21 -38 25 -23 -40 -138
-38 -66 -46 -76 -63 -76 -10 0 -18 -4 -18 -9 0 -13 -82 -12 -97 1 -7 6 -20 8
-28 4 -17 -6 -20 -41 -5 -51 14 -9 13 -25 -2 -25 -6 0 -22 -10 -35 -22 -20
-19 -26 -20 -48 -8 -22 12 -28 11 -48 -8 -26 -24 -67 -28 -97 -10 -16 10 -24
10 -40 0 -11 -6 -25 -12 -32 -12 -7 0 -32 -19 -55 -42 -36 -35 -47 -41 -61
-32 -9 6 -18 23 -20 38 -3 21 1 26 20 26 15 1 50 26 96 70 62 59 79 70 108 70
27 0 34 4 34 20 0 10 -9 24 -20 30 -15 8 -20 21 -20 50 0 21 -4 42 -10 45 -5
3 -10 28 -10 56 0 42 -3 49 -20 49 -22 0 -27 19 -9 37 8 8 8 26 1 60 -5 26
-10 67 -11 91 -2 36 1 42 18 42 12 0 24 11 33 30 7 17 16 30 20 30 5 0 8 14 8
30 0 17 5 30 10 30 6 0 10 9 10 20 0 11 -7 20 -15 20 -8 0 -15 -7 -15 -15z
m-80 -401 c0 -14 -3 -14 -15 -4 -8 7 -15 14 -15 16 0 2 7 4 15 4 8 0 15 -7 15
-16z"/>
<path d="M6268 5166 c-10 -7 -18 -18 -18 -25 0 -14 46 -15 55 -1 8 13 48 13
80 -2 36 -16 34 -68 -6 -149 -18 -35 -35 -73 -39 -84 -4 -11 -17 -41 -29 -66
-15 -29 -21 -59 -19 -84 3 -44 28 -62 28 -21 0 15 4 34 9 44 5 9 14 31 21 47
7 17 16 38 21 47 5 10 9 23 9 30 0 7 9 24 20 38 11 14 20 33 20 43 0 9 4 25 9
35 34 66 34 70 17 106 -9 20 -23 36 -31 36 -8 0 -15 5 -15 10 0 15 -112 12
-132 -4z"/>
<path d="M8010 5140 c-6 -11 -15 -20 -21 -20 -15 0 -39 -26 -39 -42 0 -7 -9
-19 -20 -26 -40 -24 -20 -122 24 -122 9 0 16 -4 16 -10 0 -6 28 -10 64 -10 36
0 68 5 71 10 3 6 14 10 24 10 30 0 71 24 71 42 0 9 5 20 10 23 6 3 10 19 10
36 0 16 -4 29 -10 29 -5 0 -10 6 -10 13 0 15 -39 58 -67 75 -13 6 -43 12 -68
12 -34 0 -47 -5 -55 -20z m91 -45 c23 -2 69 -50 69 -73 0 -27 -45 -62 -79 -62
-17 0 -33 -4 -36 -10 -3 -5 -15 -10 -26 -10 -10 0 -19 5 -19 10 0 6 -5 10 -11
10 -15 0 -35 22 -43 47 -8 25 42 83 72 83 12 0 24 5 27 10 4 6 12 7 18 3 6 -4
19 -8 28 -8z"/>
<path d="M5511 5098 c-5 -13 -16 -30 -25 -37 -9 -7 -16 -20 -16 -27 0 -8 -4
-14 -10 -14 -5 0 -10 -9 -10 -20 0 -11 -4 -20 -10 -20 -5 0 -10 -7 -10 -15 0
-9 -9 -25 -20 -37 -16 -17 -20 -36 -20 -90 0 -71 13 -88 38 -48 8 13 23 20 42
20 18 0 30 5 30 13 0 18 24 67 33 67 4 0 7 9 7 20 0 11 5 20 10 20 6 0 10 11
10 25 0 29 -25 34 -34 8 -3 -10 -14 -33 -25 -51 -42 -72 -81 -95 -81 -47 0 14
5 25 10 25 6 0 10 9 10 20 0 11 5 20 10 20 6 0 10 7 10 15 0 14 18 53 30 65 3
3 11 17 19 33 8 15 18 27 23 27 11 0 10 38 -2 45 -6 3 -14 -4 -19 -17z"/>
<path d="M7276 5113 c-10 -11 -7 -143 4 -143 6 0 10 -22 10 -50 0 -27 5 -50
10 -50 6 0 10 -16 10 -35 0 -19 5 -35 10 -35 6 0 10 -22 10 -49 0 -28 5 -53
10 -56 6 -3 10 -24 10 -46 0 -21 5 -39 10 -39 6 0 10 -13 10 -30 0 -16 5 -30
10 -30 6 0 10 -7 10 -15 0 -8 7 -15 15 -15 10 0 15 10 15 30 0 17 -4 30 -10
30 -5 0 -10 20 -10 44 0 25 -4 48 -10 51 -5 3 -10 26 -10 50 0 24 -4 47 -10
50 -5 3 -10 19 -10 36 0 16 -4 29 -10 29 -5 0 -10 18 -10 39 0 22 -4 43 -10
46 -5 3 -10 26 -10 50 0 24 -4 47 -10 50 -5 3 -10 24 -10 45 0 37 -10 56 -24
43z"/>
<path d="M8510 5067 c0 -34 15 -57 37 -57 7 0 13 11 13 25 0 14 -4 25 -10 25
-5 0 -10 9 -10 20 0 11 -7 20 -15 20 -10 0 -15 -10 -15 -33z"/>
<path d="M5356 5053 c-3 -3 -6 -24 -6 -45 0 -27 4 -38 15 -38 11 0 15 11 15
39 0 38 -10 57 -24 44z"/>
<path d="M7599 4997 c-52 -50 -69 -77 -70 -114 -2 -24 -2 -25 -6 -5 -7 37 -33
27 -33 -13 0 -19 5 -35 10 -35 6 0 10 -11 10 -23 0 -25 28 -57 48 -57 7 0 12
-4 12 -10 0 -5 9 -10 20 -10 11 0 29 -5 40 -12 14 -9 25 -9 42 -1 13 6 37 17
53 24 17 8 36 19 43 26 17 16 17 200 -1 216 -22 21 -56 37 -76 37 -11 0 -23 5
-26 10 -10 17 -20 12 -66 -33z m102 -54 c8 -16 22 -37 32 -47 20 -23 23 -82 4
-99 -28 -26 -59 -37 -99 -37 -61 1 -78 17 -78 75 0 44 4 53 43 91 50 51 78 55
98 17z"/>
<path d="M8790 5020 c0 -11 -4 -20 -10 -20 -5 0 -10 -9 -10 -20 0 -11 -4 -20
-10 -20 -5 0 -10 -20 -10 -45 0 -38 3 -45 20 -45 11 0 20 -4 20 -10 0 -5 22
-10 48 -10 26 0 53 -5 59 -11 8 -8 13 -8 17 0 4 6 22 11 40 11 41 0 48 7 33
31 -10 16 -24 19 -99 19 l-88 0 0 35 c0 19 5 35 10 35 6 0 10 16 10 35 0 24
-5 35 -15 35 -8 0 -15 -9 -15 -20z"/>
<path d="M5330 4940 c0 -11 -5 -30 -12 -43 -24 -47 -28 -57 -28 -72 0 -8 7
-15 15 -15 8 0 15 9 15 20 0 11 5 20 10 20 6 0 10 9 10 20 0 11 5 20 10 20 6
0 10 16 10 35 0 24 -5 35 -15 35 -8 0 -15 -9 -15 -20z"/>
<path d="M5563 4885 c-15 -17 -17 -41 -4 -50 7 -4 41 46 41 62 0 9 -26 1 -37
-12z"/>
<path d="M3570 4815 c0 -49 16 -60 38 -25 16 25 102 30 102 5 0 -8 -4 -15 -10
-15 -5 0 -10 -9 -10 -19 0 -11 -4 -21 -8 -23 -14 -6 -52 -66 -52 -81 0 -25 21
-31 27 -8 3 12 9 21 14 21 5 0 9 9 9 20 0 11 4 20 8 20 5 0 15 12 23 28 8 15
22 34 31 43 24 22 23 39 -2 39 -11 0 -20 5 -20 10 0 6 -18 10 -40 10 -22 0
-40 5 -40 10 0 6 -16 10 -35 10 -35 0 -35 0 -35 -45z"/>
<path d="M5596 4851 c-4 -5 -2 -12 3 -15 5 -4 12 -2 15 3 4 5 2 12 -3 15 -5 4
-12 2 -15 -3z"/>
<path d="M3830 4805 c0 -8 5 -15 10 -15 6 0 10 -9 10 -19 0 -11 6 -21 13 -24
14 -5 -7 -52 -35 -78 -21 -19 -24 -59 -5 -59 8 0 20 12 28 28 36 70 84 88 144
53 53 -31 46 -55 -45 -142 -58 -56 -80 -84 -76 -95 5 -13 21 -1 70 50 52 53
70 66 95 66 17 0 31 -4 31 -10 0 -5 8 -10 18 -10 16 0 42 -40 42 -67 0 -7 6
-13 14 -13 18 0 49 -47 36 -55 -6 -3 -10 -17 -10 -30 0 -13 -4 -25 -9 -27 -5
-1 -11 -16 -13 -33 -2 -22 2 -31 15 -33 12 -2 17 3 17 17 0 11 5 23 10 26 6 3
10 17 10 31 0 13 5 24 10 24 6 0 10 20 10 45 0 34 -4 45 -15 45 -24 0 -65 46
-65 74 0 18 -6 26 -22 28 -12 2 -23 8 -25 15 -4 12 86 108 126 134 30 19 22
49 -12 49 -17 0 -32 -12 -51 -40 -14 -22 -26 -42 -26 -45 0 -3 -11 -16 -23
-29 -23 -23 -24 -23 -35 -5 -7 10 -12 28 -12 39 0 13 -7 20 -20 20 -11 0 -20
5 -20 10 0 6 -9 10 -19 10 -11 0 -23 5 -26 10 -3 6 -16 10 -29 10 -27 0 -46
18 -46 42 0 14 -8 18 -35 18 -24 0 -35 -5 -35 -15z"/>
<path d="M5556 4811 c-4 -5 -2 -12 3 -15 5 -4 12 -2 15 3 4 5 2 12 -3 15 -5 4
-12 2 -15 -3z"/>
<path d="M9630 4697 c0 -46 -4 -87 -9 -92 -10 -11 -19 -80 -27 -215 -3 -47
-10 -89 -15 -94 -5 -6 -9 -20 -9 -32 0 -13 -4 -26 -10 -29 -13 -8 -13 -45 1
-45 23 0 59 58 59 94 0 14 5 28 10 31 6 3 10 39 10 80 0 41 5 77 10 80 6 3 10
44 10 90 0 46 5 87 10 90 25 15 1 125 -27 125 -10 0 -13 -23 -13 -83z"/>
<path d="M4310 4735 c0 -16 6 -25 15 -25 9 0 15 9 15 25 0 16 -6 25 -15 25 -9
0 -15 -9 -15 -25z"/>
<path d="M6510 4725 c0 -14 -4 -25 -10 -25 -5 0 -10 -8 -10 -19 0 -29 -28 -47
-51 -33 -22 14 -75 16 -83 3 -3 -5 -17 -11 -31 -13 -22 -5 -25 -2 -25 22 0 35
-8 42 -31 27 -23 -14 -24 -30 -3 -48 14 -11 14 -13 0 -21 -9 -5 -16 -18 -16
-28 0 -17 7 -20 39 -20 22 0 43 5 46 10 3 6 35 10 71 10 42 0 70 5 79 14 46
45 73 146 40 146 -9 0 -15 -9 -15 -25z"/>
<path d="M8570 4691 c0 -28 5 -53 10 -56 6 -3 10 -19 10 -36 0 -16 5 -29 10
-29 6 0 10 -7 10 -15 0 -13 -3 -13 -20 -3 -15 10 -22 10 -32 0 -6 -6 -18 -12
-25 -12 -7 0 -30 -18 -52 -40 -22 -22 -44 -40 -50 -40 -6 0 -11 18 -11 40 0
22 -4 40 -10 40 -5 0 -10 13 -10 29 0 17 -4 33 -10 36 -5 3 -10 17 -10 31 0
19 -5 24 -25 24 -16 0 -25 -6 -25 -15 0 -8 5 -15 10 -15 6 0 10 -18 10 -39 0
-22 4 -42 9 -45 5 -3 12 -24 15 -46 3 -22 9 -58 12 -80 3 -22 10 -43 15 -46 5
-3 9 -14 9 -25 0 -10 5 -19 10 -19 6 0 10 -13 10 -29 0 -17 5 -33 10 -36 6 -3
10 -22 10 -41 0 -28 4 -35 17 -32 14 3 16 13 14 63 -1 33 -7 62 -12 63 -5 2
-9 17 -9 33 0 16 -4 29 -10 29 -5 0 -10 7 -10 15 0 21 17 19 30 -5 6 -11 17
-20 25 -20 8 0 15 -7 15 -16 0 -19 24 -44 42 -44 29 0 38 -24 38 -103 0 -92
-10 -107 -69 -107 -23 0 -41 -4 -41 -10 0 -5 -37 -10 -82 -12 -47 -2 -83 -7
-83 -13 0 -14 145 -19 159 -5 6 6 56 10 118 10 l108 0 0 25 c0 23 -4 25 -41
25 l-41 0 7 48 c3 26 6 64 7 85 0 20 4 37 10 37 5 0 16 6 24 14 16 17 20 161
4 171 -5 3 -10 24 -10 46 0 21 -4 39 -10 39 -5 0 -10 9 -10 20 0 11 -4 20 -10
20 -5 0 -10 14 -10 30 0 17 -4 30 -10 30 -5 0 -10 18 -10 40 0 29 -4 40 -15
40 -11 0 -15 -12 -15 -49z m58 -256 c2 -38 7 -74 12 -80 4 -6 2 -15 -5 -22
-11 -10 -20 -5 -47 25 -19 20 -46 43 -61 51 -35 18 -34 25 6 67 24 26 39 33
62 31 30 -2 30 -2 33 -72z"/>
<path d="M9925 4700 c-3 -10 -3 -35 0 -53 4 -21 3 -37 -4 -41 -6 -4 -11 -25
-11 -46 0 -21 -4 -42 -10 -45 -5 -3 -10 -21 -10 -40 0 -19 -4 -37 -10 -40 -5
-3 -10 -24 -10 -45 0 -21 -4 -42 -10 -45 -5 -3 -10 -31 -10 -61 0 -41 4 -54
15 -54 11 0 15 11 15 40 0 22 5 40 10 40 6 0 10 13 10 29 0 17 5 33 10 36 6 3
10 22 10 41 0 19 5 34 10 34 6 0 10 13 10 29 0 17 5 33 10 36 6 3 10 50 10
106 0 79 -3 99 -14 99 -8 0 -17 -9 -21 -20z"/>
<path d="M5535 4700 c-4 -6 -3 -16 3 -22 6 -6 12 -6 17 2 4 6 3 16 -3 22 -6 6
-12 6 -17 -2z"/>
<path d="M5550 4615 c0 -36 3 -45 18 -45 12 -1 33 -34 71 -110 29 -61 59 -110
67 -110 7 0 29 -9 49 -20 20 -11 42 -20 50 -20 30 0 14 27 -27 49 -65 33 -71
40 -112 124 -21 43 -43 83 -50 90 -18 21 -36 56 -36 72 0 8 -7 15 -15 15 -11
0 -15 -12 -15 -45z"/>
<path d="M3557 4614 c-13 -13 -8 -132 6 -138 10 -5 10 -7 0 -12 -15 -7 -17
-34 -3 -34 6 0 10 -13 10 -30 0 -16 5 -30 10 -30 6 0 10 -15 10 -34 0 -19 5
-38 10 -41 6 -3 10 -24 10 -45 0 -21 5 -42 10 -45 6 -3 10 -24 10 -46 0 -21 5
-48 10 -59 6 -11 15 -29 20 -40 6 -11 10 -28 10 -37 1 -25 24 -53 44 -53 9 0
16 -4 16 -10 0 -5 9 -10 20 -10 11 0 20 -4 20 -10 0 -5 9 -10 20 -10 13 0 20
-7 20 -20 0 -12 7 -20 16 -20 9 0 29 -13 44 -30 15 -16 38 -30 49 -30 12 0 35
-13 53 -30 17 -16 35 -30 40 -30 5 0 18 -9 30 -20 12 -11 32 -20 45 -20 13 0
23 -4 23 -10 0 -5 14 -10 30 -10 17 0 30 -4 30 -10 0 -17 40 -11 47 8 4 9 9
19 12 22 11 10 31 50 31 63 0 7 9 19 20 27 11 8 20 22 20 32 0 10 5 18 10 18
6 0 10 16 10 35 0 24 -5 35 -15 35 -10 0 -15 -10 -15 -30 0 -16 -4 -30 -10
-30 -5 0 -10 -7 -10 -16 0 -9 -13 -29 -30 -44 -16 -15 -30 -37 -30 -48 0 -26
-18 -38 -33 -23 -6 6 -26 11 -44 11 -18 0 -33 5 -33 10 0 6 -8 10 -18 10 -10
0 -24 9 -32 20 -8 11 -22 20 -32 20 -10 0 -18 5 -18 10 0 6 -9 10 -20 10 -11
0 -20 4 -20 8 0 5 -12 15 -27 23 -16 8 -37 22 -47 32 -11 9 -24 17 -29 17 -5
0 -22 14 -37 30 -15 17 -32 30 -37 30 -17 0 -83 65 -83 83 0 9 -4 17 -10 17
-5 0 -10 13 -10 29 0 17 -4 33 -10 36 -5 3 -10 15 -10 26 0 17 7 19 80 19 65
0 82 -3 87 -16 12 -32 54 -64 83 -64 17 0 30 5 30 10 0 20 28 9 51 -20 18 -22
32 -30 57 -30 28 0 32 3 32 26 0 22 -4 25 -20 21 -22 -6 -60 26 -60 50 0 7
-11 13 -25 13 -14 0 -25 -4 -25 -10 0 -5 -15 -10 -33 -10 -35 0 -77 36 -77 65
0 18 -21 20 -38 3 -8 -8 -15 -8 -26 1 -10 8 -16 9 -21 1 -3 -5 -26 -10 -51
-10 l-44 0 0 45 c0 25 5 45 10 45 23 0 9 47 -17 61 -34 17 -53 34 -53 47 0 6
-6 13 -12 16 -10 5 -10 7 0 12 14 7 16 34 2 34 -13 0 -13 43 1 57 16 16 7 77
-11 81 -9 1 -19 0 -23 -4z"/>
<path d="M4290 4505 c0 -96 3 -115 15 -115 8 0 15 8 15 18 0 29 89 102 125
102 8 0 15 5 15 10 0 6 9 10 20 10 11 0 20 4 20 9 0 5 9 11 21 14 12 3 18 10
14 16 -10 17 -48 12 -75 -9 -14 -11 -33 -20 -42 -20 -10 0 -18 -4 -18 -10 0
-5 -5 -10 -11 -10 -6 0 -24 -9 -40 -21 l-29 -20 0 70 c0 56 -3 71 -15 71 -12
0 -15 -19 -15 -115z"/>
<path d="M3790 4585 c0 -8 7 -15 15 -15 8 0 15 7 15 15 0 8 -7 15 -15 15 -8 0
-15 -7 -15 -15z"/>
<path d="M8992 4546 c-12 -6 -21 -17 -20 -25 2 -11 17 -14 59 -12 51 2 57 0
62 -20 6 -22 7 -22 27 -4 26 24 26 55 0 55 -11 0 -20 5 -20 10 0 13 -79 11
-108 -4z"/>
<path d="M9050 4411 c0 -6 -18 -11 -40 -11 -22 0 -40 -4 -40 -10 0 -5 -7 -10
-16 -10 -18 0 -44 -23 -44 -39 0 -6 10 -11 23 -12 l22 0 -22 -9 c-16 -6 -23
-18 -23 -35 0 -14 -4 -25 -10 -25 -19 0 -10 -55 14 -82 21 -25 30 -28 85 -28
34 0 61 4 61 10 0 6 10 10 23 10 40 0 77 23 77 48 0 13 -6 22 -15 22 -8 0 -15
-4 -15 -10 0 -5 -15 -10 -33 -10 -18 0 -38 -5 -44 -11 -5 -5 -32 -9 -59 -7
-47 3 -49 4 -52 36 -2 18 1 32 7 32 6 0 11 9 11 19 0 11 8 26 18 33 10 7 21
21 25 31 5 14 19 17 72 17 63 0 66 1 63 23 -2 18 -10 23 -45 25 -26 2 -43 -1
-43 -7z"/>
<path d="M4083 4385 c-27 -30 -6 -49 23 -21 8 8 14 19 14 25 0 15 -23 13 -37
-4z"/>
<path d="M4290 4368 c0 -7 -3 -23 -6 -35 -5 -17 -2 -23 10 -23 9 0 16 -8 16
-20 0 -18 7 -20 55 -20 63 0 72 15 25 43 -16 10 -30 24 -30 30 0 11 -44 37
-62 37 -4 0 -8 -6 -8 -12z"/>
<path d="M4050 4325 c0 -8 7 -15 15 -15 8 0 15 7 15 15 0 8 -7 15 -15 15 -8 0
-15 -7 -15 -15z"/>
<path d="M12930 4285 c0 -8 7 -15 15 -15 8 0 15 7 15 15 0 8 -7 15 -15 15 -8
0 -15 -7 -15 -15z"/>
<path d="M5990 4252 c0 -5 9 -17 20 -27 11 -10 20 -23 20 -29 0 -6 55 -66 122
-133 116 -116 122 -124 120 -159 -2 -22 -11 -44 -22 -54 -11 -10 -20 -25 -20
-34 0 -9 -4 -24 -9 -34 -5 -9 -16 -32 -23 -49 -7 -18 -16 -33 -20 -33 -5 0 -8
-13 -8 -30 0 -16 -4 -30 -10 -30 -5 0 -10 -10 -10 -22 0 -13 -9 -34 -20 -48
-17 -22 -20 -41 -20 -167 0 -83 -4 -144 -10 -148 -5 -3 -10 -39 -10 -80 0 -41
-4 -77 -10 -80 -5 -3 -10 -37 -10 -76 l0 -69 45 0 c45 0 45 0 45 35 0 28 -4
35 -20 35 -18 0 -20 7 -20 69 0 39 5 73 10 76 6 3 10 39 10 80 0 41 5 77 10
80 15 9 13 132 -2 138 -10 3 -10 9 0 26 6 11 12 34 12 51 0 16 5 30 10 30 6 0
10 7 10 15 0 8 5 24 10 35 6 11 15 29 20 40 6 11 10 27 10 35 0 8 5 15 10 15
6 0 10 14 10 30 0 17 5 30 10 30 6 0 10 8 10 18 0 11 9 27 20 37 12 11 20 31
20 52 0 18 5 33 10 33 6 0 10 7 10 15 0 8 -4 15 -10 15 -5 0 -10 6 -10 13 0 8
-58 72 -130 142 -71 71 -130 137 -130 147 0 13 -8 18 -25 18 -14 0 -25 -4 -25
-8z"/>
<path d="M4370 4220 c0 -20 5 -30 15 -30 10 0 15 10 15 30 0 20 -5 30 -15 30
-10 0 -15 -10 -15 -30z"/>
<path d="M4110 4202 c0 -10 -9 -24 -20 -32 -21 -15 -27 -40 -10 -40 6 0 26 16
45 35 41 41 44 55 10 55 -17 0 -25 -5 -25 -18z"/>
<path d="M4356 4151 c-4 -5 -2 -12 3 -15 5 -4 12 -2 15 3 4 5 2 12 -3 15 -5 4
-12 2 -15 -3z"/>
<path d="M5887 4122 c-10 -10 -17 -24 -17 -30 0 -7 -7 -12 -15 -12 -9 0 -19
-8 -22 -17 -4 -10 -13 -24 -20 -31 -19 -20 -27 -62 -14 -75 9 -9 13 -6 17 11
4 12 10 22 15 22 5 0 9 7 9 15 0 17 63 85 79 85 5 0 32 -25 60 -55 48 -53 50
-59 53 -118 3 -61 20 -85 26 -37 2 14 9 31 14 38 12 13 -7 62 -24 62 -4 0 -8
10 -8 22 0 24 -46 78 -67 78 -8 0 -13 12 -13 30 0 26 -4 30 -28 30 -16 0 -36
-8 -45 -18z"/>
<path d="M4327 4078 c-16 -37 -17 -94 -2 -90 6 1 10 20 10 42 0 26 4 40 12 40
15 0 17 26 4 35 -6 3 -16 -9 -24 -27z"/>
<path d="M5050 4066 c0 -19 5 -38 10 -41 6 -3 10 -19 10 -35 0 -16 5 -32 10
-35 6 -3 10 -21 10 -40 0 -19 5 -37 10 -40 6 -3 10 -15 10 -26 0 -10 5 -19 10
-19 6 0 10 -13 10 -30 0 -16 5 -30 10 -30 6 0 10 -9 10 -20 0 -28 23 -100 32
-100 5 0 8 -11 8 -25 0 -14 5 -34 10 -45 6 -11 15 -29 20 -40 6 -11 10 -29 10
-39 0 -11 5 -23 10 -26 6 -3 10 -14 10 -23 0 -10 9 -23 20 -30 11 -7 20 -18
20 -25 0 -15 -46 -37 -77 -37 -14 0 -23 -6 -23 -15 0 -24 76 -20 102 5 12 11
30 20 40 20 10 0 23 -9 30 -20 7 -11 19 -20 25 -20 7 0 27 -13 45 -30 17 -16
35 -30 41 -30 10 0 57 -50 57 -61 0 -13 114 -119 129 -119 12 0 12 -3 3 -12
-14 -14 -16 -108 -2 -108 6 0 10 -31 10 -74 0 -41 5 -78 10 -81 6 -3 10 -19
10 -35 0 -16 5 -32 10 -35 6 -3 10 -22 10 -41 0 -19 5 -34 10 -34 6 0 10 -9
10 -20 0 -11 5 -20 10 -20 6 0 10 -11 10 -24 0 -14 5 -28 10 -31 6 -3 10 -19
10 -36 0 -19 5 -29 15 -29 12 0 15 13 15 55 0 30 -4 55 -10 55 -5 0 -10 9 -10
20 0 11 -4 20 -10 20 -5 0 -10 14 -10 30 0 17 -4 30 -10 30 -5 0 -10 11 -10
24 0 14 -4 28 -10 31 -5 3 -10 19 -10 36 0 16 -4 29 -9 29 -6 0 -11 50 -13
110 -3 112 9 157 14 53 2 -34 8 -58 16 -61 7 -2 12 6 12 22 0 21 5 26 25 26
18 0 25 -5 25 -18 0 -10 12 -25 28 -32 15 -8 44 -32 65 -54 31 -32 42 -38 55
-29 24 14 30 147 8 168 -8 8 -18 15 -22 15 -13 0 -33 -35 -34 -57 0 -13 -4
-23 -10 -23 -5 0 -10 5 -10 10 0 6 -4 10 -10 10 -16 0 -60 42 -60 58 0 18 -25
42 -44 42 -9 0 -16 5 -16 10 0 6 -8 10 -19 10 -10 0 -29 13 -42 30 -13 16 -29
30 -36 30 -16 0 -83 62 -83 76 0 14 -89 104 -102 104 -23 0 -158 109 -158 128
0 7 -4 12 -10 12 -5 0 -10 9 -10 20 0 11 -4 20 -10 20 -5 0 -10 14 -10 30 0
17 -4 30 -10 30 -5 0 -10 14 -10 30 0 17 -4 30 -10 30 -5 0 -10 11 -10 24 0
14 -4 28 -10 31 -5 3 -10 17 -10 30 0 13 -4 27 -10 30 -5 3 -10 15 -10 26 0
10 -4 19 -10 19 -5 0 -10 9 -10 19 0 11 -4 23 -10 26 -5 3 -10 17 -10 31 0 13
-4 24 -10 24 -5 0 -10 18 -10 40 0 22 -4 40 -10 40 -5 0 -10 15 -10 34 0 19
-4 38 -10 41 -5 3 -10 15 -10 26 0 10 -7 19 -15 19 -10 0 -15 -10 -15 -34z"/>
<path d="M9528 4083 c-32 -35 24 -72 58 -39 19 20 18 36 -4 36 -10 0 -23 5
-28 10 -7 7 -16 5 -26 -7z"/>
<path d="M9823 4025 c-22 -24 -15 -35 22 -35 31 0 35 3 35 25 0 19 -5 25 -22
25 -13 -1 -29 -7 -35 -15z"/>
<path d="M9155 4011 c-3 -6 -37 -11 -76 -11 -39 0 -69 -4 -69 -10 0 -5 -13
-10 -29 -10 -17 0 -33 -4 -36 -10 -3 -5 -30 -10 -58 -10 -55 0 -120 -18 -127
-35 -7 -14 140 -19 154 -5 5 5 27 10 48 10 21 0 38 4 38 9 0 10 61 19 183 27
73 5 78 7 75 27 -3 18 -11 22 -50 25 -25 2 -49 -2 -53 -7z"/>
<path d="M8465 3950 c-3 -5 -19 -10 -34 -10 -29 0 -51 -16 -51 -37 0 -15 46
-18 55 -3 3 6 40 10 82 10 l77 0 -62 -59 c-69 -66 -76 -90 -38 -133 17 -21 32
-28 59 -28 20 0 39 5 42 10 3 6 13 10 22 10 20 0 83 69 83 92 0 26 -18 22 -50
-12 -15 -16 -33 -30 -39 -30 -6 0 -20 -6 -31 -12 -25 -16 -54 -1 -58 31 -4 23
19 51 42 51 18 0 76 57 76 74 0 7 -11 22 -25 34 -20 17 -38 22 -84 22 -33 0
-63 -4 -66 -10z"/>
<path d="M4050 3640 c0 -11 -4 -20 -10 -20 -5 0 -10 -9 -10 -20 0 -11 -4 -20
-10 -20 -6 0 -10 -28 -10 -64 0 -36 -4 -68 -10 -71 -5 -3 -10 -22 -10 -41 0
-21 -8 -42 -20 -54 -23 -23 -26 -40 -6 -40 15 0 30 27 27 46 -1 7 5 14 14 18
9 3 15 18 15 35 0 16 5 33 10 36 6 3 10 33 10 66 0 33 4 59 10 59 6 0 10 9 10
20 0 11 5 20 10 20 6 0 10 11 10 25 0 16 -6 25 -15 25 -8 0 -15 -9 -15 -20z"/>
<path d="M4510 3523 c-8 -4 -35 -28 -59 -55 -24 -26 -52 -48 -63 -48 -10 0
-18 -7 -18 -16 0 -15 -23 -44 -35 -44 -8 0 -57 -45 -182 -167 -52 -51 -99 -93
-104 -93 -5 0 -39 -29 -74 -65 -36 -36 -68 -65 -72 -65 -4 0 -2 5 5 12 7 7 12
25 12 40 0 16 5 37 10 48 6 11 15 29 20 40 6 11 10 38 10 59 0 22 5 43 10 46
17 10 12 85 -5 85 -11 0 -15 -11 -15 -40 0 -22 -4 -40 -10 -40 -5 0 -10 -20
-10 -44 0 -25 -4 -48 -10 -51 -5 -3 -10 -15 -10 -26 0 -10 -4 -19 -10 -19 -5
0 -10 -11 -10 -25 0 -14 -9 -35 -20 -47 -21 -23 -27 -58 -10 -58 6 0 10 -9 10
-20 0 -42 40 -18 149 92 61 61 111 106 111 99 0 -6 -9 -21 -20 -33 -11 -12
-20 -28 -20 -35 0 -7 -4 -13 -10 -13 -5 0 -10 -11 -10 -25 0 -16 6 -25 15 -25
8 0 15 9 15 20 0 11 5 20 10 20 6 0 10 6 10 13 0 7 8 22 18 33 22 26 42 61 42
75 0 6 32 42 70 80 39 38 70 76 70 84 0 8 7 15 16 15 8 0 22 7 30 15 15 14 44
11 44 -6 0 -5 9 -9 20 -9 12 0 20 -7 20 -16 0 -20 24 -44 44 -44 9 0 16 -4 16
-10 0 -5 6 -10 13 -10 7 0 23 -9 35 -20 12 -11 28 -20 37 -20 8 0 15 -4 15
-10 0 -5 6 -10 13 -10 18 0 67 -24 67 -32 0 -5 11 -8 24 -8 14 0 28 -4 31 -10
10 -16 40 -11 63 10 12 11 28 20 37 20 8 0 15 5 15 10 0 6 9 10 20 10 11 0 20
5 20 10 0 6 9 10 20 10 11 0 20 5 20 10 0 6 9 10 20 10 11 0 20 5 20 10 0 6 9
10 20 10 11 0 20 5 20 10 0 6 9 10 20 10 11 0 20 5 20 10 0 6 9 10 20 10 11 0
20 5 20 10 0 6 14 10 30 10 20 0 30 5 30 15 0 24 -76 20 -102 -5 -12 -11 -32
-20 -45 -20 -13 0 -23 -4 -23 -10 0 -5 -9 -10 -20 -10 -11 0 -20 -4 -20 -10 0
-5 -9 -10 -20 -10 -11 0 -20 -4 -20 -10 0 -5 -9 -10 -20 -10 -11 0 -20 -4 -20
-10 0 -5 -8 -10 -18 -10 -10 0 -24 -9 -32 -20 -15 -21 -80 -29 -80 -10 0 6
-10 10 -22 10 -13 0 -34 9 -48 20 -14 11 -33 20 -43 20 -21 0 -56 19 -78 43
-9 9 -21 17 -27 17 -7 0 -32 19 -57 43 l-45 43 38 36 c20 19 44 48 52 64 8 16
19 32 25 36 12 9 -2 9 -25 1z"/>
<path d="M4023 2944 c-18 -18 -33 -44 -33 -57 0 -28 -17 -47 -42 -47 -15 0
-18 -8 -18 -45 0 -33 4 -45 15 -45 8 0 15 6 15 13 0 22 31 78 46 84 8 3 14 18
14 34 0 20 5 29 16 29 22 0 44 25 44 49 0 29 -20 24 -57 -15z"/>
<path d="M4723 2925 c-25 -28 -53 -86 -53 -110 0 -13 -4 -27 -10 -30 -5 -3
-10 -15 -10 -26 0 -10 -4 -19 -10 -19 -5 0 -10 -13 -10 -29 0 -17 -4 -33 -10
-36 -5 -3 -10 -17 -10 -31 0 -13 -9 -29 -20 -36 -15 -10 -20 -24 -20 -60 0
-26 5 -50 10 -53 6 -3 10 -19 10 -36 0 -16 5 -29 10 -29 6 0 10 -13 10 -30 0
-16 3 -30 8 -30 11 0 32 -51 32 -77 0 -13 5 -23 10 -23 6 0 10 -13 10 -30 0
-16 5 -30 10 -30 6 0 10 -18 10 -40 0 -22 5 -40 10 -40 6 0 10 -9 10 -20 0
-11 5 -20 10 -20 6 0 10 -10 10 -22 1 -26 22 -58 39 -58 6 0 11 15 11 35 0 19
-4 35 -10 35 -5 0 -10 4 -10 8 0 4 16 6 36 4 29 -4 35 -8 33 -26 -4 -62 2
-104 21 -124 28 -29 25 -49 -10 -82 -18 -17 -30 -38 -30 -54 0 -14 -4 -26 -10
-26 -5 0 -10 -6 -10 -12 0 -7 -14 -29 -30 -48 -16 -19 -30 -41 -30 -47 0 -7
-4 -13 -10 -13 -5 0 -10 -9 -10 -20 0 -17 -7 -20 -50 -20 -27 0 -50 -4 -50
-10 0 -5 -6 -10 -12 -10 -7 0 -29 -14 -48 -30 -19 -16 -45 -30 -57 -30 -13 0
-23 -4 -23 -10 0 -5 -11 -10 -24 -10 -13 0 -26 -5 -28 -11 -8 -23 -98 46 -98
76 0 8 -9 15 -20 15 -11 0 -20 5 -20 10 0 6 -7 10 -16 10 -20 0 -44 24 -44 44
0 9 -7 16 -15 16 -8 0 -15 -5 -15 -11 0 -6 -20 6 -45 27 -48 39 -56 54 -28 54
9 0 32 16 50 36 28 31 31 39 21 53 -26 32 -57 61 -67 61 -18 0 -21 17 -8 44
12 25 37 36 37 16 0 -5 11 -10 25 -10 18 0 25 5 25 19 0 11 -4 23 -10 26 -17
11 -11 50 10 65 26 19 27 60 1 60 -11 0 -23 -4 -26 -10 -3 -5 -17 -10 -31 -10
-19 0 -24 5 -24 24 0 14 -4 28 -10 31 -5 3 -10 19 -10 36 0 19 -5 29 -15 29
-25 0 -21 -101 5 -120 11 -8 20 -22 20 -32 0 -10 5 -18 10 -18 6 0 10 -7 10
-15 0 -8 -4 -15 -10 -15 -5 0 -10 -6 -10 -13 0 -7 -9 -23 -20 -35 -38 -40 -13
-122 36 -122 19 0 24 -5 24 -25 0 -19 -5 -25 -22 -25 -64 -1 -81 -81 -28 -130
21 -19 30 -37 30 -59 0 -17 -4 -31 -10 -31 -5 0 -10 -7 -10 -15 0 -8 -4 -23
-9 -33 -28 -55 -33 -74 -29 -111 2 -29 0 -41 -9 -41 -20 0 -18 -276 1 -296 19
-18 36 -18 36 1 0 8 -4 15 -10 15 -6 0 -10 53 -10 139 0 83 4 142 10 146 6 3
10 16 10 28 0 12 9 33 20 47 11 14 20 35 20 48 0 12 4 22 9 22 6 0 11 14 13
31 4 45 29 58 59 31 12 -12 27 -22 31 -22 14 0 58 -48 58 -62 0 -7 12 -19 27
-25 32 -15 119 -17 128 -3 3 6 17 10 31 10 13 0 24 5 24 10 0 6 8 10 18 10 9
0 23 9 30 20 7 11 21 20 32 20 11 0 20 5 20 10 0 6 9 10 20 10 11 0 20 5 20
10 0 6 18 10 40 10 33 0 40 3 40 20 0 11 4 20 9 20 5 0 16 16 25 35 22 47 36
53 36 16 0 -17 5 -31 10 -31 6 0 10 -22 10 -49 0 -28 -4 -53 -10 -56 -14 -9
-12 -55 3 -55 26 0 41 44 39 115 -1 38 -6 71 -12 73 -13 5 -13 132 0 132 6 0
10 6 10 13 0 7 9 23 20 35 12 12 20 35 20 55 0 34 -19 87 -32 87 -13 0 -9 68
5 73 18 7 -5 41 -32 45 -11 2 -21 8 -21 13 0 5 -12 9 -26 9 -36 0 -74 45 -74
88 0 17 -4 32 -10 32 -5 0 -10 11 -10 24 0 14 -4 28 -10 31 -5 3 -10 15 -10
26 0 10 -4 19 -10 19 -5 0 -10 14 -10 30 0 17 -4 30 -10 30 -5 0 -10 11 -10
25 0 14 -4 34 -10 45 -5 11 -15 29 -20 40 -10 20 5 60 22 60 5 0 8 9 8 19 0
11 5 23 10 26 6 3 10 22 10 41 0 19 5 34 10 34 6 0 10 9 10 20 0 11 5 20 10
20 6 0 10 7 10 15 0 8 9 19 20 25 11 6 20 17 20 25 0 10 11 15 35 15 19 0 35
-4 35 -8 0 -5 12 -15 28 -23 41 -21 52 -35 52 -63 0 -14 5 -26 10 -26 6 0 10
-18 10 -40 0 -22 4 -48 9 -58 12 -24 31 -107 31 -137 0 -14 5 -25 10 -25 6 0
10 -22 10 -50 0 -27 5 -50 10 -50 6 0 10 -10 10 -23 0 -13 9 -33 20 -45 11
-12 20 -28 20 -37 0 -8 5 -15 10 -15 6 0 10 -18 10 -40 0 -22 5 -40 10 -40 6
0 10 -9 10 -20 0 -11 9 -25 20 -32 12 -8 20 -24 20 -40 0 -16 5 -28 10 -28 6
0 10 -9 10 -19 0 -11 4 -21 8 -23 4 -1 20 -29 36 -61 15 -32 39 -69 52 -82 13
-13 24 -28 24 -33 0 -14 25 -62 33 -62 4 0 7 -9 7 -20 0 -11 7 -20 15 -20 17
0 21 45 5 55 -5 3 -10 15 -10 26 0 20 -16 54 -38 77 -7 8 -21 32 -30 53 -9 22
-20 39 -24 39 -5 0 -8 6 -8 13 0 18 -24 67 -32 67 -5 0 -8 9 -8 20 0 11 -4 20
-10 20 -5 0 -10 6 -10 13 0 6 -9 23 -20 37 -11 14 -20 35 -20 48 0 12 -4 22
-10 22 -5 0 -10 9 -10 20 0 11 -4 20 -10 20 -5 0 -10 14 -10 30 0 17 -4 30
-10 30 -5 0 -10 9 -10 20 0 11 -9 35 -20 55 -11 20 -20 53 -20 75 0 21 -4 42
-10 45 -5 3 -10 24 -10 46 0 21 -4 39 -10 39 -5 0 -10 15 -10 33 0 18 -4 37
-9 43 -5 5 -11 33 -14 62 l-6 52 34 0 c20 0 35 5 35 11 0 22 -35 38 -82 39
-26 0 -50 5 -53 10 -3 6 -15 10 -26 10 -15 0 -19 7 -19 36 0 27 -5 37 -20 41
-11 3 -20 9 -20 14 0 14 -44 10 -57 -6z m65 -60 c-3 -3 -9 2 -12 12 -6 14 -5
15 5 6 7 -7 10 -15 7 -18z"/>
<path d="M6036 2883 c-3 -3 -6 -15 -6 -25 0 -11 -7 -18 -20 -18 -23 0 -26 -16
-6 -36 19 -18 26 -18 42 4 23 29 14 98 -10 75z"/>
<path d="M3883 2680 c-8 -12 -9 -21 -3 -25 6 -3 10 -16 10 -29 0 -12 9 -32 20
-44 11 -12 20 -35 20 -51 0 -16 5 -33 10 -36 6 -3 10 -15 10 -26 0 -10 5 -19
10 -19 6 0 10 -18 10 -40 0 -22 4 -40 9 -40 5 0 11 -8 14 -17 8 -24 40 -77 50
-81 4 -2 7 -12 7 -23 0 -10 7 -19 15 -19 10 0 15 11 15 35 0 19 -4 35 -10 35
-5 0 -10 8 -10 18 0 10 -9 24 -20 32 -11 8 -20 22 -20 32 0 10 -4 18 -10 18
-5 0 -10 18 -10 40 0 22 -4 40 -10 40 -5 0 -10 9 -10 20 0 11 -4 20 -10 20 -5
0 -10 18 -10 40 0 22 -4 40 -10 40 -5 0 -10 9 -10 20 0 11 -4 20 -10 20 -5 0
-10 14 -10 30 0 34 -19 40 -37 10z"/>
<path d="M5796 2483 c-10 -10 -7 -141 4 -148 6 -3 10 -17 10 -30 0 -13 5 -27
10 -30 6 -3 10 -21 10 -40 0 -19 5 -37 10 -40 6 -3 10 -21 10 -40 0 -19 5 -37
10 -40 6 -3 10 -15 10 -26 0 -10 5 -19 10 -19 6 0 10 -13 10 -30 0 -16 5 -30
10 -30 6 0 10 -13 10 -30 0 -16 5 -30 10 -30 6 0 10 -11 10 -24 0 -14 5 -28
10 -31 6 -3 10 -15 10 -26 0 -10 5 -19 10 -19 6 0 10 -9 10 -20 0 -11 5 -20
10 -20 6 0 10 -16 10 -35 0 -19 -4 -35 -10 -35 -17 0 -11 -40 8 -47 28 -11 73
-73 52 -73 -5 0 -10 -18 -10 -40 0 -22 -4 -40 -10 -40 -5 0 -10 -9 -10 -19 0
-11 -4 -23 -10 -26 -5 -3 -10 -17 -10 -31 0 -13 -4 -24 -10 -24 -5 0 -10 -9
-10 -19 0 -11 -4 -23 -10 -26 -5 -3 -10 -14 -10 -24 0 -9 -9 -27 -20 -39 -11
-12 -20 -28 -20 -37 0 -8 -3 -15 -8 -15 -4 0 -13 -13 -20 -30 -13 -29 -32 -41
-32 -20 0 24 -50 7 -89 -30 -22 -22 -50 -40 -61 -40 -11 0 -28 -4 -38 -9 -9
-5 -25 -12 -35 -15 -10 -3 -15 -10 -12 -16 8 -13 145 -13 145 0 0 6 9 10 20
10 11 0 20 5 20 10 0 6 9 10 20 10 11 0 20 5 20 10 0 6 11 10 25 10 15 0 28 7
32 18 4 9 9 19 12 22 12 10 31 50 31 65 0 8 5 15 10 15 6 0 10 7 10 15 0 9 9
25 20 37 11 12 20 30 20 40 0 10 4 26 9 36 5 9 15 30 22 46 13 27 14 28 17 8
2 -12 8 -22 13 -22 5 0 9 -9 9 -20 0 -11 5 -20 10 -20 6 0 10 -15 10 -32 0
-18 9 -44 20 -58 21 -27 26 -60 10 -60 -5 0 -10 -13 -10 -30 0 -16 -4 -30 -10
-30 -5 0 -10 -13 -10 -30 0 -16 -9 -45 -20 -65 -11 -20 -20 -50 -20 -68 0 -18
-6 -39 -12 -45 -10 -10 -10 -17 0 -32 15 -24 16 -76 2 -85 -5 -3 -10 -37 -10
-76 0 -39 -4 -69 -10 -69 -5 0 -10 -11 -10 -25 0 -14 -4 -25 -10 -25 -5 0 -10
-12 -10 -27 0 -21 -7 -31 -27 -40 -15 -7 -33 -13 -40 -13 -7 0 -13 -4 -13 -10
0 -5 -20 -10 -43 -10 -31 0 -49 -6 -62 -20 -13 -14 -31 -20 -62 -20 -24 0 -52
-4 -63 -10 -11 -5 -29 -14 -40 -20 -11 -5 -36 -10 -55 -10 -19 0 -35 -5 -35
-10 0 -6 -16 7 -35 27 -19 20 -35 47 -35 60 0 20 -5 23 -38 23 l-38 0 -1 50
c0 28 3 53 8 56 5 3 9 38 9 79 0 41 5 86 12 100 9 19 9 28 0 37 -7 7 -12 21
-12 33 0 25 22 75 33 75 4 0 7 14 7 30 l0 30 60 0 c47 0 60 3 60 15 0 8 -8 15
-18 15 -10 0 -24 9 -32 20 -8 12 -26 20 -42 20 -32 0 -68 45 -68 85 0 30 -20
55 -44 55 -10 0 -16 9 -16 25 0 27 -82 115 -106 115 -9 0 -14 11 -14 28 0 30
20 82 33 82 4 0 7 9 7 20 0 11 5 20 10 20 6 0 10 11 10 25 0 16 -6 25 -15 25
-8 0 -15 -9 -15 -20 0 -11 -4 -20 -8 -20 -12 0 -72 -119 -72 -142 0 -20 42
-68 60 -68 19 0 60 -48 60 -70 0 -11 -5 -29 -12 -39 -9 -15 -8 -22 5 -35 8 -9
23 -16 31 -16 9 0 16 -4 16 -9 0 -5 9 -11 20 -14 16 -4 20 -14 20 -51 0 -34 5
-49 19 -58 18 -11 18 -12 0 -45 -15 -26 -19 -54 -19 -123 0 -49 -4 -92 -10
-95 -6 -4 -10 -63 -10 -146 0 -117 2 -139 15 -139 8 0 15 4 15 9 0 5 11 4 25
-2 14 -7 25 -17 25 -23 0 -13 89 -104 101 -104 5 0 9 5 9 10 0 6 18 10 40 10
22 0 40 5 40 10 0 6 9 10 19 10 11 0 23 5 26 10 3 6 30 10 58 10 41 0 56 4 67
20 9 13 26 20 47 20 17 0 35 4 38 10 3 6 19 10 36 10 16 0 29 5 29 10 0 6 7
10 15 10 9 0 27 11 40 25 21 20 25 34 25 80 0 30 5 55 10 55 6 0 10 14 10 30
0 17 5 30 10 30 6 0 10 43 10 109 0 63 4 112 10 116 6 3 10 21 10 40 0 19 5
37 10 40 6 3 10 17 10 31 0 13 5 24 10 24 6 0 10 14 10 30 0 17 5 30 10 30 6
0 10 9 10 20 0 11 5 20 10 20 6 0 10 16 10 35 0 19 -4 35 -10 35 -5 0 -10 11
-10 24 0 14 -4 28 -10 31 -5 3 -10 13 -10 21 0 8 -9 24 -20 36 -11 12 -20 30
-20 39 0 10 -4 21 -10 24 -5 3 -10 31 -10 61 0 30 5 54 10 54 22 0 8 46 -20
69 -26 20 -30 30 -30 72 0 27 -4 49 -10 49 -5 0 -10 14 -10 30 0 17 -4 30 -10
30 -5 0 -10 9 -10 20 0 11 -4 20 -10 20 -5 0 -10 9 -10 20 0 11 -4 20 -10 20
-5 0 -10 14 -10 30 0 17 -4 30 -10 30 -5 0 -10 14 -10 30 0 17 -4 30 -10 30
-5 0 -10 9 -10 20 0 11 -4 20 -10 20 -5 0 -10 20 -10 44 0 25 -4 48 -10 51 -5
3 -10 19 -10 36 0 16 -4 29 -10 29 -5 0 -10 15 -10 34 0 19 -4 38 -10 41 -5 3
-10 15 -10 26 0 10 -4 19 -10 19 -5 0 -10 22 -10 49 0 47 -9 68 -24 54z"/>
<path d="M4790 1460 c0 -11 -4 -20 -10 -20 -5 0 -10 -12 -10 -28 0 -17 -11
-37 -30 -55 -16 -16 -30 -33 -30 -38 0 -5 -13 -23 -30 -41 -16 -17 -30 -37
-30 -44 0 -8 -4 -14 -10 -14 -5 0 -10 -8 -10 -18 0 -10 -9 -24 -20 -32 -11 -8
-20 -22 -20 -32 0 -11 -7 -18 -20 -18 -16 0 -20 -7 -20 -30 0 -16 -4 -30 -10
-30 -5 0 -10 -7 -10 -15 0 -8 -13 -29 -30 -47 -16 -17 -30 -37 -30 -44 0 -11
-21 -14 -89 -14 -50 0 -93 5 -96 10 -3 6 -34 10 -69 10 -84 0 -116 15 -116 58
0 22 -5 32 -15 32 -12 0 -15 -13 -15 -60 0 -53 2 -60 20 -60 11 0 20 -4 20
-10 0 -6 38 -10 94 -10 53 0 98 -4 101 -10 3 -5 38 -10 76 -10 l71 0 54 56
c30 31 54 65 54 75 0 26 18 55 63 102 20 22 37 46 37 53 0 8 5 14 10 14 6 0
10 6 10 13 0 7 13 28 30 47 16 19 29 39 30 43 0 4 13 22 30 40 16 18 30 42 30
55 0 12 5 22 10 22 6 0 10 16 10 35 0 24 -5 35 -15 35 -8 0 -15 -9 -15 -20z"/>
</g>
</svg>
