<?xml version="1.0" standalone="no"?>
<!DOCTYPE svg PUBLIC "-//W3C//DTD SVG 20010904//EN"
 "http://www.w3.org/TR/2001/REC-SVG-20010904/DTD/svg10.dtd">
<svg version="1.0" xmlns="http://www.w3.org/2000/svg"
 width="1480.000000pt" height="674.000000pt" viewBox="0 0 1480.000000 674.000000"
 preserveAspectRatio="xMidYMid meet">
<metadata>
Created by potrace 1.13, written by Peter Selinger 2001-2015
</metadata>
<g transform="translate(0.000000,674.000000) scale(0.100000,-0.100000)"
 stroke="none">
<path d="M2414 6383 c13 -403 17 -493 26 -493 6 0 10 -69 10 -170 0 -107 4
-170 10 -170 6 0 10 -9 10 -20 0 -11 5 -20 11 -20 8 0 8 -4 0 -14 -14 -16 -13
-333 0 -342 5 -3 9 -56 9 -119 0 -72 4 -116 11 -121 8 -4 7 -9 -2 -14 -9 -6
-10 -12 -2 -22 7 -8 12 -72 14 -168 1 -85 5 -160 10 -165 4 -6 9 -84 10 -173
1 -89 6 -162 10 -162 4 0 8 -75 9 -167 0 -94 5 -172 10 -177 6 -6 10 -91 10
-203 0 -170 2 -193 16 -193 14 0 15 31 10 313 -3 171 -11 382 -16 467 -6 85
-15 225 -20 310 -6 85 -14 232 -18 325 -4 94 -10 175 -14 181 -4 6 -8 113 -10
238 -1 125 -6 230 -10 232 -4 3 -8 34 -8 69 0 35 -4 67 -10 70 -6 4 -10 70
-10 165 0 95 -4 161 -10 165 -6 4 -10 77 -10 185 0 108 -4 181 -10 185 -5 3
-10 31 -10 61 l0 54 368 0 c219 0 373 4 382 10 8 5 13 11 10 12 -3 1 -104 5
-225 10 -121 4 -286 11 -367 14 -83 3 -148 9 -148 15 0 5 -11 9 -25 9 l-26 0
5 -177z"/>
<path d="M3376 6491 c-18 -7 -18 -8 5 -14 13 -4 448 -7 967 -7 586 0 950 -4
961 -10 14 -7 1262 -21 1591 -17 25 0 72 -1 105 -3 49 -3 277 -3 438 -1 17 0
246 0 507 0 261 0 486 0 500 0 14 1 259 -4 545 -10 286 -5 1097 -12 1803 -15
l1283 -4 -3 22 -3 23 -580 -1 c-319 0 -598 -1 -620 -2 -141 -5 -1578 10 -1615
17 -27 6 -734 10 -1728 11 -1063 0 -1692 4 -1708 10 -30 12 -2419 13 -2448 1z"/>
<path d="M12117 6453 c-11 -10 -8 -101 3 -108 13 -8 13 -85 0 -85 -6 0 -9
-153 -10 -405 0 -239 -4 -415 -10 -430 -6 -16 -10 -200 -10 -458 0 -238 -4
-438 -9 -446 -6 -9 -5 -24 2 -38 8 -18 8 -29 -1 -43 -8 -13 -11 -165 -12 -532
0 -282 -5 -531 -10 -552 -5 -21 -9 -280 -10 -574 0 -294 -3 -540 -7 -546 -9
-13 -8 -110 1 -124 3 -6 2 -13 -4 -17 -6 -4 -10 -147 -10 -408 0 -221 -5 -456
-10 -522 -5 -66 -10 -319 -10 -562 -1 -380 -3 -443 -16 -454 -11 -9 -18 -9
-26 -1 -9 9 -96 12 -302 12 -160 0 -308 4 -328 9 -23 5 -40 5 -47 -2 -7 -7
-19 -6 -40 2 -21 9 -35 10 -49 2 -13 -7 -80 -9 -194 -6 -95 3 -692 8 -1327 10
-680 3 -1159 9 -1166 15 -6 5 -16 5 -25 0 -18 -11 -147 -13 -153 -2 -3 4 -204
9 -448 10 -452 4 -465 5 -466 42 0 13 -9 133 -18 255 -1 17 -3 67 -3 111 -2
74 -4 84 -29 108 -18 18 -30 23 -37 16 -12 -12 -9 -101 5 -115 5 -5 9 -34 9
-65 0 -31 3 -60 7 -64 4 -4 8 -52 9 -107 2 -94 1 -99 -17 -94 -15 5 -19 1 -19
-20 0 -19 6 -29 20 -32 12 -3 19 -11 17 -17 -2 -7 -26 -10 -63 -8 -32 1 -628
5 -1324 7 -849 3 -1272 8 -1285 15 -18 10 -1403 7 -1835 -2 l-115 -3 -8 140
c-4 77 -12 259 -17 405 -12 369 -19 537 -26 670 -4 63 -8 220 -11 349 -2 129
-7 240 -12 245 -5 6 -9 101 -10 211 -1 110 -6 218 -11 240 -4 22 -9 128 -10
235 0 107 -5 199 -10 205 -5 5 -9 97 -10 204 0 107 -3 198 -6 203 -19 31 -24
-34 -24 -317 0 -173 3 -316 8 -319 4 -2 9 -100 11 -218 1 -117 5 -229 8 -248
3 -19 7 -150 10 -290 2 -140 8 -259 13 -265 5 -5 9 -104 10 -219 0 -122 5
-217 11 -228 7 -13 7 -23 0 -32 -6 -8 -7 -16 -1 -22 5 -5 10 -130 11 -282 1
-150 5 -274 9 -277 5 -3 9 -82 10 -177 0 -94 3 -174 5 -179 14 -21 -8 -36 -53
-35 -44 1 -47 -1 -50 -26 -3 -26 -2 -27 55 -30 l58 -3 3 -82 c3 -82 3 -83 28
-83 21 0 25 4 19 18 -3 9 -9 47 -12 84 l-6 67 99 6 c286 19 4095 -1 4994 -25
195 -6 778 -12 1295 -16 663 -3 943 -8 953 -16 9 -8 16 -8 24 0 15 15 97 16
132 2 18 -6 34 -6 51 2 17 7 28 8 37 1 9 -7 281 -11 792 -12 563 -2 783 -5
796 -14 14 -8 25 -8 43 2 33 18 47 7 47 -34 0 -46 9 -65 30 -65 27 0 30 56 31
630 0 289 4 559 8 600 5 41 5 79 0 84 -4 5 -3 17 4 26 8 14 8 22 -1 33 -7 7
-8 17 -4 21 9 9 9 5 11 523 1 232 5 425 10 427 4 3 9 225 10 493 2 298 6 492
12 499 7 8 6 15 -1 19 -13 8 -11 379 2 406 4 9 2 21 -4 27 -8 8 -8 15 0 25 8
9 13 159 16 488 11 970 17 1284 26 1294 6 7 5 16 -2 23 -9 9 -9 12 0 12 9 0
12 72 12 294 l0 294 30 57 c23 43 30 70 30 111 0 53 0 54 -30 54 -16 0 -30 5
-30 10 0 11 -33 14 -43 3z"/>
<path d="M11196 6351 c-4 -5 -2 -12 3 -15 5 -4 12 -2 15 3 4 5 2 12 -3 15 -5
4 -12 2 -15 -3z"/>
<path d="M6270 6250 c0 -6 -83 -10 -229 -10 -143 0 -232 -4 -236 -10 -3 -5
-33 -10 -65 -10 -32 0 -62 -4 -65 -10 -3 -5 -19 -10 -35 -10 -15 0 -54 -13
-85 -30 -31 -16 -63 -30 -69 -30 -17 0 -96 -69 -96 -84 0 -7 -12 -23 -26 -37
-25 -24 -49 -66 -57 -104 -3 -11 -5 -1 -6 23 -1 49 -19 56 -38 15 -16 -34 -19
-538 -3 -548 6 -3 10 -19 10 -36 0 -22 -5 -29 -20 -29 -11 0 -20 -4 -20 -10 0
-5 -9 -10 -19 -10 -11 0 -23 -4 -26 -10 -3 -5 -18 -10 -31 -10 -35 0 -26 -23
12 -31 l29 -7 -32 -1 c-17 0 -35 -5 -38 -11 -3 -5 -17 -10 -31 -10 -13 0 -32
-9 -41 -20 -10 -11 -28 -20 -40 -20 -13 0 -23 -4 -23 -10 0 -5 -13 -10 -30
-10 -16 0 -30 -4 -30 -10 0 -5 -11 -10 -24 -10 -14 0 -28 -4 -31 -10 -3 -5
-16 -10 -29 -10 -12 0 -32 -9 -44 -20 -12 -11 -32 -20 -46 -20 -14 0 -28 -4
-31 -10 -3 -5 -17 -10 -31 -10 -13 0 -24 -4 -24 -10 0 -5 -9 -10 -20 -10 -11
0 -20 -7 -20 -15 0 -21 42 -19 85 5 20 11 43 20 53 20 9 0 28 9 42 20 14 11
33 20 43 20 9 0 26 5 37 10 11 6 29 15 40 20 11 6 29 10 40 10 11 0 20 5 20
10 0 6 14 10 30 10 17 0 38 4 48 9 77 39 106 51 122 51 11 0 22 5 25 10 3 6
16 10 28 10 40 1 60 26 60 75 0 41 3 45 24 45 27 0 41 26 24 43 -6 6 -11 26
-11 43 0 18 -5 36 -10 39 -13 8 -12 352 1 360 5 4 9 16 9 29 0 29 47 123 65
130 8 3 15 11 15 19 0 23 73 77 105 77 8 0 15 5 15 10 0 6 8 10 18 10 10 0 22
3 26 7 11 11 97 32 133 33 17 0 35 5 38 10 3 6 48 10 100 10 53 0 97 4 100 10
5 9 275 14 275 6 0 -1 -31 -34 -70 -73 -62 -63 -86 -103 -62 -103 4 0 39 32
77 70 42 42 78 70 90 70 12 0 26 5 33 12 9 9 26 -4 72 -53 33 -35 60 -68 60
-74 0 -5 9 -21 20 -35 34 -43 27 -60 -25 -60 -25 0 -53 -4 -63 -9 -9 -5 -25
-12 -35 -15 -10 -3 -15 -11 -11 -17 4 -8 28 -10 70 -6 35 4 64 3 64 -1 -1 -11
-79 -84 -141 -130 -54 -41 -58 -42 -132 -42 -42 0 -79 5 -82 10 -3 6 -17 10
-31 10 -13 0 -24 6 -24 13 0 8 -9 22 -20 32 -11 10 -20 23 -20 30 0 7 -9 20
-19 29 -47 43 -32 143 31 211 27 29 38 65 20 65 -12 0 -42 -34 -42 -46 0 -6
-18 -28 -40 -49 -35 -34 -40 -45 -40 -85 0 -57 34 -128 86 -181 34 -35 36 -39
17 -39 -12 0 -25 -4 -28 -10 -3 -5 -17 -10 -30 -10 -13 0 -27 -4 -30 -10 -3
-5 -24 -10 -46 -10 -21 0 -39 -4 -39 -10 0 -5 -18 -10 -40 -10 -28 0 -43 -5
-47 -16 -7 -19 11 -41 21 -25 4 6 18 11 31 11 13 0 27 5 30 10 3 6 26 10 50
10 24 0 47 5 50 10 3 6 17 10 30 10 13 0 27 5 30 10 8 12 108 13 121 1 5 -5
27 -11 49 -14 133 -18 146 -19 158 -9 20 17 90 8 139 -19 10 -5 41 -9 70 -9
51 0 54 -2 119 -66 36 -36 77 -71 90 -78 13 -6 26 -22 27 -36 4 -27 29 -60 46
-60 6 0 34 -23 62 -51 29 -28 57 -49 62 -45 19 12 -3 55 -44 84 -55 40 -94
118 -94 189 0 40 -4 53 -15 53 -11 0 -15 -12 -15 -50 0 -27 -4 -50 -9 -50 -5
0 -23 16 -41 36 -60 69 -116 104 -165 104 -26 0 -59 8 -80 20 -27 15 -54 20
-110 20 -62 0 -73 2 -69 15 4 8 11 15 18 15 6 0 29 18 51 40 22 21 46 39 53
40 7 0 16 8 19 17 4 9 13 24 20 33 7 8 20 24 28 35 12 14 18 16 21 8 8 -18 34
-16 34 2 0 33 -98 181 -159 240 -62 59 -57 65 53 65 74 0 96 -3 107 -16 7 -9
23 -20 35 -24 26 -10 74 -102 74 -142 0 -15 5 -28 10 -28 6 0 10 -9 10 -19 0
-11 5 -23 10 -26 6 -3 10 -15 10 -26 0 -10 5 -19 10 -19 6 0 10 -11 10 -24 0
-14 5 -28 10 -31 6 -3 10 -17 10 -30 0 -13 5 -27 10 -30 6 -3 10 -19 10 -36 0
-19 5 -29 15 -29 11 0 15 12 15 49 0 28 -4 53 -10 56 -5 3 -10 14 -10 25 0 10
-10 38 -21 62 -12 23 -26 54 -32 68 -5 14 -13 33 -18 42 -5 10 -9 29 -9 43 0
14 -4 33 -9 43 -5 9 -14 29 -21 44 -7 15 -30 39 -51 53 -37 24 -45 25 -184 25
-90 0 -145 -4 -145 -10z m-983 -397 c-3 -10 -5 -4 -5 12 0 17 2 24 5 18 2 -7
2 -21 0 -30z m0 -160 c-3 -10 -5 -2 -5 17 0 19 2 27 5 18 2 -10 2 -26 0 -35z"/>
<path d="M6225 6040 c-10 -11 -26 -20 -37 -20 -10 0 -18 -3 -18 -7 0 -12 -51
-33 -80 -33 -14 0 -31 5 -38 12 -9 9 -13 7 -18 -5 -8 -21 3 -37 26 -37 10 0
22 -4 25 -10 3 -5 19 -10 36 -10 22 0 29 -5 29 -19 0 -46 131 -87 146 -46 8
21 -5 40 -19 26 -17 -17 -40 -13 -72 15 -20 16 -26 27 -17 30 6 3 12 16 12 28
0 12 11 32 25 44 27 24 45 28 45 12 0 -5 7 -10 16 -10 10 0 14 7 12 23 -4 30
-48 35 -73 7z"/>
<path d="M5303 6025 c-16 -18 -17 -35 -2 -35 12 0 38 29 39 43 0 12 -24 7 -37
-8z"/>
<path d="M10025 5970 c-3 -5 -39 -10 -80 -10 -41 0 -77 -4 -80 -10 -4 -6 -82
-10 -200 -10 -118 0 -196 -4 -200 -10 -3 -5 -30 -10 -60 -10 -30 0 -57 -4 -60
-10 -3 -5 -22 -10 -41 -10 -19 0 -43 -4 -54 -10 -11 -5 -29 -14 -40 -20 -11
-5 -33 -10 -49 -10 -17 0 -33 -4 -36 -10 -3 -5 -17 -10 -31 -10 -13 0 -24 -4
-24 -10 0 -5 -11 -10 -24 -10 -14 0 -28 -4 -31 -10 -3 -5 -15 -10 -26 -10 -10
0 -19 -4 -19 -10 0 -5 -14 -10 -31 -10 -45 0 -31 -24 16 -28 21 -2 42 1 48 7
6 6 21 11 34 11 13 0 23 5 23 10 0 6 11 10 24 10 14 0 28 5 31 10 3 6 21 10
40 10 19 0 37 5 40 10 3 6 19 10 36 10 16 0 29 5 29 10 0 6 13 10 29 10 17 0
33 5 36 10 3 6 26 10 50 10 24 0 47 5 50 10 4 6 87 10 215 10 128 0 211 4 215
10 3 6 37 10 75 10 38 0 72 5 75 10 4 6 65 10 150 10 85 0 146 -4 150 -10 3
-5 21 -10 40 -10 19 0 37 -4 40 -10 3 -5 15 -10 26 -10 10 0 19 -4 19 -10 0
-5 14 -10 30 -10 17 0 30 -4 30 -10 0 -5 9 -10 20 -10 11 0 28 -4 38 -9 9 -5
34 -17 55 -26 21 -9 41 -23 44 -31 3 -8 14 -14 24 -14 10 0 19 -4 19 -10 0 -5
13 -10 29 -10 17 0 33 -4 36 -10 3 -5 17 -10 29 -10 13 0 29 -7 36 -15 7 -9
29 -23 49 -32 20 -10 45 -25 55 -35 11 -10 26 -18 33 -18 7 0 13 -8 13 -17 1
-18 112 -111 149 -124 10 -4 34 -26 52 -49 19 -23 49 -59 67 -80 17 -21 32
-47 32 -59 0 -12 8 -24 18 -28 35 -12 82 -66 82 -95 0 -21 5 -28 20 -28 11 0
20 -6 20 -12 0 -7 9 -24 20 -38 11 -14 20 -35 20 -47 0 -13 5 -23 10 -23 6 0
10 -18 10 -40 0 -27 4 -40 14 -40 20 0 46 -45 46 -79 0 -16 5 -33 10 -36 6 -4
10 -90 10 -225 0 -135 -4 -221 -10 -225 -6 -4 -10 -70 -10 -165 0 -95 -4 -161
-10 -165 -6 -3 -10 -50 -10 -105 0 -55 -4 -102 -10 -105 -5 -3 -10 -28 -10
-56 0 -27 -4 -49 -10 -49 -5 0 -10 -18 -10 -40 0 -22 -9 -55 -20 -75 -11 -20
-20 -42 -20 -50 0 -8 -7 -15 -15 -15 -9 0 -19 -8 -22 -17 -10 -26 -119 -138
-151 -154 -15 -8 -37 -26 -50 -41 -13 -16 -32 -28 -43 -28 -10 0 -19 -4 -19
-10 0 -5 -11 -10 -24 -10 -24 0 -108 -39 -114 -52 -2 -5 -13 -8 -25 -8 -12 0
-33 -9 -47 -20 -14 -11 -33 -20 -42 -20 -9 0 -20 -4 -23 -10 -3 -5 -17 -10
-30 -10 -13 0 -27 -4 -30 -10 -3 -5 -15 -10 -26 -10 -10 0 -19 -4 -19 -10 0
-5 -9 -10 -19 -10 -11 0 -23 -4 -26 -10 -3 -5 -19 -10 -35 -10 -16 0 -32 -5
-35 -10 -3 -5 -21 -10 -40 -10 -19 0 -37 -4 -40 -10 -3 -6 -19 -10 -36 -10
-19 0 -29 -5 -29 -15 0 -12 14 -15 65 -15 37 0 65 4 65 10 0 6 15 10 34 10 19
0 38 5 41 10 3 6 15 10 26 10 10 0 19 5 19 10 0 6 11 10 24 10 14 0 28 4 31
10 3 6 15 10 26 10 10 0 27 4 37 9 9 5 29 14 45 20 55 22 77 35 77 43 0 4 7 8
15 8 8 0 23 4 33 9 9 5 38 19 65 31 26 13 47 27 47 32 0 4 13 8 29 8 21 0 36
8 51 30 12 16 30 30 41 30 10 0 19 4 19 8 0 5 11 15 25 22 14 8 59 56 100 107
56 68 75 100 75 122 0 16 5 33 10 36 6 3 10 15 10 26 0 10 5 19 10 19 6 0 10
14 10 30 0 17 5 30 10 30 6 0 10 22 10 49 0 28 5 53 10 56 6 3 10 48 10 100 0
52 4 97 10 100 6 4 10 68 10 160 0 92 4 156 10 160 6 4 10 100 10 255 0 231
-1 252 -20 285 -11 20 -20 42 -20 50 0 8 -4 15 -8 15 -5 0 -14 10 -21 23 -6
12 -20 36 -30 52 -11 17 -20 42 -20 58 -1 15 -4 27 -9 27 -4 0 -13 15 -21 33
-8 17 -49 69 -93 114 -43 46 -78 87 -78 93 0 7 -6 18 -12 25 -7 7 -31 36 -53
64 -22 27 -47 50 -55 51 -9 0 -47 32 -85 70 -38 39 -75 70 -81 70 -7 0 -24 14
-37 30 -14 17 -33 30 -41 30 -9 0 -16 3 -16 8 0 12 -53 32 -87 32 -18 0 -33 5
-33 10 0 6 -9 10 -20 10 -11 0 -25 9 -32 20 -7 11 -18 20 -23 20 -17 0 -65 24
-65 33 0 4 -7 7 -15 7 -9 0 -25 9 -37 20 -12 11 -30 20 -39 20 -10 0 -21 5
-24 10 -3 6 -15 10 -26 10 -10 0 -19 5 -19 10 0 6 -15 10 -34 10 -19 0 -38 5
-41 10 -3 6 -26 10 -50 10 -24 0 -47 5 -50 10 -4 6 -62 10 -140 10 -78 0 -136
-4 -140 -10z"/>
<path d="M8815 5750 c-3 -5 -15 -10 -26 -10 -10 0 -19 -4 -19 -10 0 -5 -9 -10
-20 -10 -11 0 -20 -4 -20 -10 0 -5 -9 -10 -20 -10 -11 0 -20 -4 -20 -10 0 -5
-9 -10 -20 -10 -11 0 -20 -4 -20 -10 0 -5 -9 -10 -20 -10 -11 0 -20 -4 -20
-10 0 -5 -6 -10 -12 -10 -7 0 -40 -27 -73 -60 -33 -32 -68 -59 -77 -60 -10 0
-18 -4 -18 -10 0 -5 -6 -10 -12 -10 -7 -1 -29 -14 -48 -30 -19 -17 -38 -30
-42 -30 -15 0 -78 -69 -78 -85 0 -8 -6 -15 -12 -15 -17 -1 -128 -103 -128
-118 0 -7 -5 -22 -12 -35 -24 -46 -28 -57 -28 -70 0 -8 -9 -22 -20 -32 -11
-10 -20 -24 -20 -32 0 -7 -4 -13 -10 -13 -5 0 -10 -9 -10 -21 0 -11 -13 -40
-30 -64 -16 -24 -30 -50 -30 -59 0 -8 -4 -18 -10 -21 -5 -3 -10 -28 -10 -55 0
-27 -4 -52 -10 -55 -5 -3 -10 -24 -10 -46 0 -21 -4 -39 -9 -39 -11 0 -23 -74
-15 -94 10 -26 34 -19 34 9 0 14 5 34 10 45 6 11 15 29 20 40 6 11 10 36 10
55 0 19 5 35 10 35 6 0 10 23 10 50 0 28 5 50 10 50 6 0 10 9 10 19 0 11 5 23
10 26 6 3 10 19 10 36 0 16 5 29 10 29 6 0 10 7 10 15 0 8 9 20 20 27 11 7 20
21 20 30 0 10 4 18 8 18 10 0 52 77 52 96 0 30 55 104 78 104 17 0 42 24 42
41 0 17 87 99 106 99 7 0 14 4 14 8 0 4 12 15 28 24 15 9 39 28 54 42 15 14
31 26 36 26 5 0 28 18 51 40 23 22 47 40 54 40 7 0 19 9 27 20 8 11 19 20 25
20 17 0 65 24 65 33 0 4 9 7 20 7 11 0 20 5 20 10 0 6 9 10 20 10 11 0 20 5
20 10 0 6 11 10 24 10 14 0 28 5 31 10 3 6 15 10 26 10 10 0 19 7 19 15 0 17
-75 22 -85 5z"/>
<path d="M5578 5623 c-16 -8 -28 -20 -28 -27 0 -15 -65 -76 -81 -76 -16 0 -78
-72 -79 -92 0 -9 -4 -20 -10 -23 -5 -3 -10 -15 -10 -26 0 -10 -4 -28 -10 -39
-5 -11 -14 -29 -20 -40 -6 -12 -6 -21 0 -25 13 -8 13 -48 1 -61 -6 -5 -11 -31
-13 -59 l-3 -50 -115 -3 c-129 -3 -149 -7 -132 -24 7 -7 12 -22 12 -34 0 -13
5 -26 10 -29 6 -4 10 -86 10 -214 0 -204 0 -208 23 -229 20 -19 35 -22 108
-22 47 0 89 4 95 9 5 5 25 11 44 13 32 3 35 6 38 38 2 19 8 39 13 45 13 13 11
47 -5 68 -18 23 -23 22 -51 -10 -17 -20 -24 -40 -25 -69 0 -45 4 -43 -97 -61
-83 -14 -126 51 -105 156 14 67 16 185 3 209 -4 9 -11 41 -14 70 l-6 53 111
-3 111 -3 18 -30 c10 -16 18 -44 18 -62 1 -17 6 -35 11 -38 6 -3 10 -21 10
-40 0 -19 5 -37 10 -40 6 -3 10 -19 10 -35 0 -15 14 -54 30 -85 17 -31 30 -70
30 -85 0 -16 5 -32 10 -35 6 -3 10 -21 10 -39 0 -32 30 -73 43 -59 11 10 8
191 -2 198 -5 3 -13 0 -16 -6 -7 -11 -55 74 -55 98 0 7 -4 13 -10 13 -18 0
-10 28 9 33 14 3 19 13 18 40 -1 25 8 47 34 80 l34 45 3 -76 c2 -43 -2 -86 -8
-97 -13 -25 -9 -101 5 -98 18 4 28 66 34 227 l6 159 30 18 c17 10 40 18 52 18
12 1 25 6 28 11 3 6 16 10 29 10 13 0 31 9 41 20 24 26 41 25 48 -2 5 -18 8
-19 21 -9 20 16 46 68 38 75 -13 14 -70 5 -87 -14 -10 -11 -26 -20 -37 -20
-10 0 -27 -4 -38 -10 -11 -5 -29 -14 -40 -20 -11 -5 -33 -10 -49 -10 -17 0
-33 -4 -36 -10 -13 -21 -118 -9 -170 19 -43 23 -50 32 -53 61 -3 30 2 50 29
102 5 10 9 23 9 28 0 23 52 86 88 106 20 11 41 30 47 42 6 13 19 22 32 22 12
0 25 5 28 10 3 6 22 10 41 10 37 0 87 26 78 41 -8 14 -126 8 -156 -8z m-128
-474 c0 -11 -9 -17 -27 -17 -35 0 -63 24 -63 54 l0 22 45 -22 c25 -12 45 -28
45 -37z m120 -101 c0 -5 -7 -8 -15 -8 -12 0 -15 12 -14 53 l0 52 15 -45 c7
-25 14 -48 14 -52z m-60 48 c0 -8 -14 -37 -31 -65 -25 -40 -35 -49 -45 -40
-20 17 -18 27 19 75 32 44 57 56 57 30z"/>
<path d="M5797 5633 c-4 -3 0 -15 10 -25 17 -19 58 -24 68 -8 12 19 141 12
180 -10 29 -16 54 -20 136 -20 55 0 109 5 120 10 26 15 26 -11 -1 -35 -11 -10
-20 -22 -20 -27 0 -12 34 -10 48 4 15 15 141 13 156 -2 14 -14 56 -12 56 3 0
13 -45 37 -71 37 -9 0 -22 7 -29 15 -9 10 -9 15 -1 15 6 0 11 7 11 15 0 12
-15 15 -79 15 -44 0 -83 -4 -86 -10 -3 -5 -44 -10 -90 -10 -46 0 -87 5 -90 10
-3 6 -17 10 -30 10 -13 0 -27 5 -30 10 -7 11 -247 14 -258 3z"/>
<path d="M6185 5496 c-54 -29 -121 -79 -177 -132 -26 -24 -51 -44 -56 -44 -5
0 -17 -9 -27 -20 -17 -18 -17 -20 -1 -26 12 -4 28 4 50 25 17 17 37 31 44 31
7 0 17 11 22 25 5 14 18 29 27 32 10 4 27 15 37 25 11 10 24 18 29 18 4 0 27
13 50 28 23 16 50 32 60 35 19 7 14 28 -6 26 -7 -1 -30 -11 -52 -23z"/>
<path d="M6575 5511 c-3 -6 12 -18 32 -27 53 -24 150 -120 174 -171 11 -24 26
-43 33 -43 12 0 12 -5 0 -30 -22 -42 -34 -46 -34 -10 0 16 -5 40 -12 53 -6 12
-14 29 -18 37 -10 21 -40 25 -40 6 0 -9 5 -16 10 -16 6 0 10 -15 10 -34 0 -19
5 -38 10 -41 16 -10 13 -95 -3 -95 -8 0 -22 -9 -32 -20 -16 -18 -31 -20 -161
-20 -146 0 -168 -6 -143 -37 11 -13 29 -15 104 -10 72 4 96 2 118 -11 22 -14
31 -14 47 -4 24 15 33 15 25 2 -4 -6 -2 -16 3 -23 6 -7 13 -55 16 -107 9 -181
9 -180 91 -261 41 -40 93 -81 117 -92 24 -11 45 -21 46 -22 2 -2 -19 -36 -46
-77 -49 -71 -112 -138 -162 -172 -14 -9 -55 -46 -92 -81 -36 -36 -69 -65 -73
-65 -3 0 -23 -13 -43 -29 -20 -16 -52 -35 -69 -42 -18 -8 -33 -20 -33 -26 0
-18 55 -16 70 2 12 14 90 55 104 55 4 0 6 -11 6 -24 0 -14 5 -28 10 -31 6 -3
10 -19 10 -35 0 -16 5 -32 10 -35 6 -3 10 -24 10 -45 0 -21 5 -42 10 -45 6 -3
10 -24 10 -45 0 -21 5 -42 10 -45 6 -3 10 -24 10 -45 0 -21 5 -42 10 -45 14
-9 12 -25 -3 -25 -15 0 -57 41 -57 55 0 13 -52 65 -65 65 -13 0 -55 42 -55 55
0 15 -53 65 -69 65 -9 0 -27 -9 -41 -20 -14 -11 -29 -20 -33 -20 -5 0 -25 -13
-45 -29 -58 -45 -72 -46 -72 -7 0 18 -7 47 -16 64 -17 34 -41 41 -74 20 -25
-16 -33 -6 -25 31 5 23 12 31 29 31 12 0 27 -5 33 -11 13 -13 33 -4 33 16 0
20 -57 45 -102 45 -21 0 -38 5 -38 10 0 6 -6 10 -13 10 -24 0 -67 25 -73 43
-3 9 -11 17 -18 17 -8 0 -19 7 -26 15 -16 19 -68 45 -91 45 -10 0 -21 5 -24
10 -3 6 -15 10 -25 10 -11 0 -35 14 -53 30 -19 17 -41 30 -48 30 -8 0 -25 9
-39 20 -14 11 -38 20 -55 21 -41 1 -89 31 -93 58 -4 25 -118 150 -156 170 -13
8 -33 11 -42 7 -15 -6 -7 -17 45 -66 34 -33 66 -60 71 -60 5 0 10 -17 12 -37
3 -33 7 -38 29 -41 17 -2 29 -11 32 -23 3 -10 14 -19 25 -19 10 0 34 -7 51
-16 26 -13 32 -21 27 -38 -3 -11 -6 -29 -6 -38 0 -13 -8 -18 -27 -18 -29 1
-63 20 -63 37 0 11 -73 83 -84 83 -5 0 -31 21 -58 46 l-49 46 -20 -21 c-33
-36 -36 -26 -13 64 6 24 4 26 -17 23 -23 -3 -24 -7 -27 -82 -4 -104 1 -116 34
-85 21 20 28 21 44 11 11 -7 29 -12 39 -12 11 0 33 -16 48 -36 15 -21 43 -54
61 -74 17 -21 32 -42 32 -47 0 -14 94 -103 109 -103 19 0 130 -83 130 -97 1
-7 18 -24 39 -39 20 -15 52 -41 70 -58 32 -30 32 -30 32 -127 0 -55 -4 -101
-10 -104 -14 -8 -13 -35 1 -35 19 0 38 33 39 67 0 37 13 49 30 28 7 -8 18 -15
25 -15 8 0 15 -5 17 -11 3 -8 41 -11 117 -10 67 1 118 -2 125 -8 10 -8 18 -6
31 9 10 11 23 20 29 20 14 0 36 -47 36 -78 0 -13 5 -32 11 -44 9 -16 6 -24
-13 -45 -21 -23 -28 -24 -98 -19 -41 3 -96 8 -122 11 -40 6 -48 4 -48 -9 0
-10 9 -16 24 -16 14 0 28 -4 31 -10 9 -14 198 -13 213 2 20 20 42 -10 42 -58
0 -25 6 -53 12 -64 21 -34 -1 -56 -53 -52 -128 8 -185 14 -194 23 -5 5 -33 9
-62 9 -35 0 -53 4 -54 13 0 6 0 69 1 138 1 81 -3 129 -9 134 -6 3 -14 -2 -17
-12 -3 -10 -10 -26 -16 -37 -6 -12 -6 -21 0 -25 5 -3 11 -47 13 -98 l4 -92
-108 -3 c-61 -2 -108 -7 -110 -13 -1 -5 10 -11 26 -13 15 -2 27 -9 27 -16 0
-15 72 -86 87 -86 6 0 13 -8 15 -18 3 -9 25 -28 50 -40 38 -20 48 -22 71 -11
21 10 30 10 39 1 7 -7 44 -12 89 -12 43 0 81 -4 84 -10 3 -5 16 -10 29 -10 12
0 34 -6 48 -12 l26 -12 -29 -43 c-16 -23 -29 -44 -29 -48 0 -3 -14 -23 -31
-44 -23 -29 -30 -47 -27 -72 2 -22 -3 -38 -12 -46 -13 -10 -13 -13 0 -27 22
-22 129 -76 150 -76 11 0 22 -4 25 -10 3 -5 33 -10 65 -10 32 0 62 -4 65 -10
3 -5 24 -10 45 -10 21 0 42 5 45 10 3 6 38 10 76 10 60 0 70 2 67 16 -4 23
-39 43 -45 27 -3 -9 -31 -13 -89 -13 -76 0 -101 8 -74 25 6 3 10 15 10 26 0
10 5 19 10 19 6 0 10 7 10 15 0 8 -5 15 -10 15 -14 0 -59 -51 -60 -66 0 -7 -6
-14 -14 -17 -15 -6 -95 1 -108 9 -19 12 -5 42 43 90 37 37 50 57 45 70 -6 16
-8 16 -26 -1 -11 -10 -20 -22 -20 -27 0 -5 -23 -33 -52 -63 -34 -36 -56 -51
-62 -45 -6 6 -18 10 -28 10 -44 0 -43 73 3 132 16 20 29 40 29 43 0 3 23 40
51 81 31 47 48 81 44 91 -4 13 -8 14 -17 5 -15 -15 -94 -16 -103 -2 -3 6 -30
10 -60 10 -30 0 -57 5 -60 10 -3 6 -47 10 -97 10 -89 0 -91 1 -128 34 -20 18
-44 37 -51 42 -8 5 -20 20 -27 32 l-13 24 58 -5 c82 -8 135 -17 158 -27 25
-11 91 -19 219 -26 86 -5 104 -3 140 14 22 12 50 22 61 24 11 2 20 8 20 13 0
15 -64 18 -80 5 -24 -20 -35 -1 -35 55 0 30 -4 57 -10 60 -5 3 -10 28 -10 55
0 27 -4 52 -10 55 -5 3 -10 17 -10 30 0 13 -4 27 -10 30 -5 3 -10 21 -10 40 0
19 -4 37 -10 40 -5 3 -10 19 -10 35 0 16 -4 32 -10 35 -5 3 -10 19 -10 34 0
15 -5 32 -12 39 -9 9 -9 12 2 12 8 1 31 14 50 30 41 36 79 38 108 7 12 -13 22
-26 22 -30 0 -15 175 -187 191 -187 10 0 21 -4 24 -10 8 -13 55 -13 55 -1 0 6
-4 13 -10 16 -5 3 -10 19 -10 36 0 28 -3 37 -28 86 -7 13 -12 32 -12 43 0 11
-4 20 -10 20 -5 0 -10 18 -10 39 0 22 -4 43 -10 46 -5 3 -10 21 -10 40 0 19
-4 37 -10 40 -5 3 -10 19 -10 34 0 15 -6 33 -12 39 -10 10 -10 17 0 32 7 12 8
21 2 25 -20 12 -10 51 18 67 15 9 46 36 70 59 47 46 84 69 111 69 10 0 30 14
46 30 16 17 34 30 40 30 6 0 29 18 50 40 21 22 47 40 56 40 10 0 21 5 24 10 3
6 16 10 28 10 16 0 18 -3 9 -12 -19 -19 -14 -30 10 -26 13 2 24 11 26 23 5 24
40 54 65 55 10 0 17 6 15 13 -6 16 -47 22 -61 8 -6 -6 -23 -11 -37 -11 -31 0
-82 -23 -100 -45 -7 -8 -17 -15 -23 -15 -6 0 -21 -10 -34 -22 -38 -36 -38 -12
0 47 21 30 37 58 37 61 0 12 -34 33 -53 34 -22 0 -81 39 -97 63 -10 17 -5 26
41 73 63 64 89 72 59 18 -20 -35 -20 -36 -1 -41 10 -3 21 -13 24 -24 7 -25 29
-24 52 1 18 20 59 27 69 12 3 -5 -2 -21 -10 -36 -16 -32 -18 -56 -6 -56 12 0
42 34 42 46 0 29 24 31 73 5 54 -28 70 -58 47 -86 -19 -23 16 -31 40 -10 29
26 27 83 -3 94 -13 5 -29 16 -36 25 -7 9 -23 16 -36 16 -12 0 -30 9 -40 20
-10 11 -28 20 -39 20 -13 0 -26 10 -33 25 -10 22 -9 25 6 25 30 0 77 29 118
71 96 101 150 148 173 151 17 2 26 10 28 26 2 13 -2 22 -10 22 -19 0 -68 23
-68 33 0 4 -6 7 -13 7 -18 0 -75 28 -82 41 -4 5 -25 18 -49 29 -23 10 -49 26
-56 35 -7 8 -18 15 -24 15 -6 0 -35 18 -64 40 -34 26 -63 40 -82 40 -17 0 -38
4 -48 9 -9 5 -32 16 -49 23 -18 7 -33 18 -33 24 0 17 -32 42 -60 46 -15 2 -30
14 -38 31 -7 15 -19 27 -26 27 -6 0 -30 18 -51 40 -30 30 -47 40 -71 40 -18 0
-35 -4 -39 -9z m375 -240 c0 -14 -38 -24 -52 -14 -9 5 -3 10 17 14 17 4 31 7
33 8 1 0 2 -3 2 -8z m80 -46 c14 -14 44 -38 67 -53 24 -15 43 -29 43 -32 0
-10 -256 -260 -266 -260 -13 0 -80 -71 -87 -92 -7 -21 -27 -24 -27 -5 0 6 18
34 39 62 22 27 37 53 34 58 -2 4 36 50 86 100 90 91 127 142 112 152 -5 2 -19
-10 -32 -27 -48 -64 -71 -88 -83 -88 -7 0 -30 -18 -51 -40 -21 -22 -43 -40
-47 -40 -4 0 -5 15 -1 33 3 20 24 51 54 82 27 28 49 58 49 67 0 9 6 19 13 21
9 4 9 6 -1 6 -15 1 -51 -34 -96 -92 -27 -35 -56 -49 -56 -26 0 21 184 199 206
199 11 0 31 -11 44 -25z m-160 -16 c0 -22 -22 -49 -39 -49 -6 0 -15 -9 -21
-20 -11 -21 -30 -27 -30 -10 0 16 64 99 78 99 6 1 12 -8 12 -20z m330 -99 c14
-11 30 -20 37 -20 6 0 21 -13 33 -30 18 -25 28 -30 63 -30 l42 0 -52 -51 c-29
-28 -53 -52 -53 -55 0 -12 -85 -79 -98 -76 -8 2 -32 -13 -52 -33 -21 -21 -44
-35 -50 -33 -12 4 186 208 202 208 4 0 8 7 8 15 0 8 -7 15 -15 15 -8 0 -15 -4
-15 -10 0 -5 -6 -10 -12 -11 -7 0 -53 -40 -103 -89 -80 -79 -92 -88 -105 -74
-13 12 -13 16 -1 23 8 6 11 16 7 27 -6 15 -16 8 -69 -43 -34 -33 -70 -63 -79
-66 -10 -4 -18 -12 -18 -19 0 -21 -43 -58 -67 -58 -13 0 -23 5 -23 11 0 20
163 198 223 242 20 15 37 34 37 42 0 8 18 27 40 41 22 15 40 31 40 35 0 10 41
59 49 59 3 0 17 -9 31 -20z m-430 -225 c0 -16 -6 -25 -15 -25 -18 0 -20 21 -3
38 17 17 18 16 18 -13z m260 -90 c0 -8 -7 -15 -16 -15 -14 0 -14 3 -4 15 7 8
14 15 16 15 2 0 4 -7 4 -15z m-1252 -597 c7 -7 12 -27 12 -45 0 -28 -4 -33
-24 -33 -33 0 -47 21 -40 59 7 33 30 41 52 19z m97 -58 c3 -5 16 -10 29 -10
13 0 31 -9 41 -20 10 -11 23 -20 30 -20 6 0 24 -13 40 -30 20 -21 38 -30 61
-30 36 0 49 -13 49 -47 1 -19 -4 -23 -31 -23 -17 0 -37 7 -44 15 -17 20 -118
65 -147 65 -8 0 -32 15 -52 33 -42 38 -45 77 -6 77 13 0 27 -4 30 -10z m-217
-22 c6 -6 12 -16 12 -23 0 -18 30 -28 45 -15 13 11 70 -11 59 -23 -3 -3 -3
-11 1 -17 5 -8 11 -7 23 2 12 10 16 10 19 1 3 -7 12 -13 21 -13 10 0 28 -9 42
-20 14 -11 39 -20 56 -20 17 0 37 -7 44 -15 18 -22 152 -85 181 -85 31 0 49
-17 49 -47 0 -13 5 -23 10 -23 6 0 10 -11 10 -24 0 -13 7 -29 15 -36 13 -11
20 -9 40 10 l25 23 0 -26 c0 -14 5 -29 10 -32 17 -10 11 -32 -10 -38 -11 -3
-20 -13 -20 -22 0 -15 -8 -16 -57 -11 -32 3 -88 9 -125 12 l-67 6 -3 52 c-3
48 -5 52 -36 62 -18 6 -41 23 -51 38 -19 28 -129 126 -143 126 -4 0 -8 6 -8
14 0 13 -71 66 -88 66 -5 0 -17 9 -27 20 -10 11 -23 20 -28 20 -13 0 -57 40
-57 52 0 11 39 1 58 -14z m352 -383 c0 -24 -5 -35 -15 -35 -10 0 -15 11 -15
35 0 24 5 35 15 35 10 0 15 -11 15 -35z"/>
<path d="M7097 5012 c-26 -26 -47 -53 -47 -59 0 -6 -5 -13 -12 -15 -7 -3 -8
-10 -4 -17 6 -9 19 -3 47 25 22 21 39 43 39 49 0 6 9 17 20 25 20 14 28 40 12
40 -4 0 -29 -22 -55 -48z"/>
<path d="M10730 5285 c0 -8 5 -15 10 -15 6 0 10 -15 10 -34 0 -19 4 -37 8 -40
13 -8 15 -293 2 -301 -8 -5 -8 -10 0 -20 15 -18 17 -328 2 -333 -15 -5 -16
-32 -1 -32 16 0 39 26 39 44 0 9 5 16 10 16 6 0 10 54 10 143 l0 142 110 -3
c61 -2 117 -1 125 2 22 8 6 36 -18 34 -12 0 -34 2 -48 6 -16 5 -29 3 -33 -3
-9 -14 -63 -14 -71 -1 -3 6 -18 10 -33 10 -43 0 -52 34 -52 192 0 135 -5 160
-37 195 -16 18 -33 16 -33 -2z"/>
<path d="M5025 5271 c-3 -6 -24 -11 -46 -11 -21 0 -48 -4 -59 -10 -11 -5 -29
-14 -40 -20 -11 -5 -27 -10 -35 -10 -8 0 -15 -4 -15 -10 0 -5 -8 -10 -17 -10
-21 0 -90 -23 -99 -33 -4 -4 -17 -7 -29 -7 -12 0 -30 -9 -40 -20 -10 -11 -28
-20 -40 -20 -12 0 -30 -9 -40 -20 -10 -11 -31 -20 -47 -20 -15 0 -28 -4 -28
-10 0 -5 -9 -10 -20 -10 -11 0 -20 -5 -20 -10 0 -13 66 -80 79 -80 12 0 41
-45 41 -65 0 -8 8 -15 18 -15 10 0 31 -13 47 -30 16 -16 34 -30 39 -30 6 -1
27 -14 46 -30 19 -17 44 -30 55 -30 28 0 75 -22 75 -36 0 -6 -9 -19 -20 -29
-11 -10 -20 -23 -20 -30 0 -17 -38 -47 -95 -74 -56 -28 -105 -68 -105 -87 0
-13 54 -44 76 -44 15 0 73 -31 116 -61 14 -11 31 -19 37 -19 6 0 11 -4 11 -10
0 -5 6 -10 14 -10 12 0 44 -14 118 -51 10 -5 29 -9 42 -9 14 0 28 -4 31 -10 3
-5 22 -10 41 -10 24 0 34 -5 34 -15 0 -8 -7 -15 -15 -15 -9 0 -28 -8 -42 -17
-15 -10 -45 -27 -67 -38 -22 -11 -46 -31 -53 -44 -17 -36 -69 -81 -92 -81 -23
0 -28 -19 -10 -37 14 -14 37 -3 84 38 17 14 44 32 61 39 17 8 40 26 50 42 15
21 27 28 53 28 32 0 33 -1 26 -32 -3 -18 -9 -57 -12 -85 -5 -51 -22 -69 -38
-43 -9 15 -25 12 -25 -5 0 -8 9 -30 20 -50 11 -20 20 -52 21 -73 1 -44 28 -96
54 -100 15 -4 16 1 10 35 -9 46 -9 221 0 318 7 70 30 115 61 115 7 0 18 8 23
18 8 15 4 17 -36 13 -25 -2 -50 2 -56 8 -6 6 -24 11 -39 11 -15 0 -28 5 -28
10 0 6 -9 10 -19 10 -11 0 -23 5 -26 10 -3 6 -17 10 -30 10 -13 0 -27 5 -30
10 -3 6 -14 10 -24 10 -22 0 -116 47 -131 65 -7 8 -17 15 -23 15 -6 0 -20 8
-31 18 -12 10 -41 25 -64 32 -35 11 -40 15 -25 21 10 4 25 14 32 23 7 9 19 16
26 16 6 0 20 9 30 20 10 11 24 20 32 20 7 0 18 11 23 25 5 14 20 29 33 34 13
5 36 23 50 41 15 17 31 28 37 25 5 -3 10 -1 10 4 0 6 9 11 19 11 26 0 37 18
15 27 -10 4 -22 0 -30 -11 -10 -14 -18 -16 -40 -9 -30 10 -45 33 -21 33 8 0
20 7 27 15 12 14 51 35 93 49 10 3 17 12 14 19 -8 22 -59 6 -131 -41 -60 -41
-74 -46 -93 -38 -13 6 -23 14 -23 18 0 5 -9 8 -20 8 -11 0 -20 6 -20 13 0 18
21 37 40 37 8 0 21 9 28 20 7 11 21 20 32 20 11 0 20 5 20 10 0 6 7 10 15 10
14 0 54 19 65 30 3 3 31 19 63 34 41 20 56 31 48 39 -11 11 -75 -16 -133 -55
-14 -10 -33 -18 -42 -18 -9 0 -16 -4 -16 -10 0 -5 -8 -10 -18 -10 -11 0 -27
-9 -37 -20 -10 -11 -26 -20 -37 -20 -10 0 -18 -3 -18 -7 0 -5 -10 -13 -23 -19
-17 -8 -30 -6 -51 6 -16 8 -29 20 -29 25 0 10 80 57 156 92 36 17 43 33 19 41
-7 2 -12 -3 -12 -11 0 -10 -7 -13 -19 -10 -10 3 -22 0 -25 -6 -4 -6 -15 -11
-25 -11 -9 0 -27 -9 -39 -20 -12 -11 -28 -20 -37 -20 -8 0 -15 -4 -15 -10 0
-19 -46 -10 -68 13 l-21 22 29 14 c40 17 39 41 -1 41 -16 0 -28 4 -25 9 8 12
187 101 204 101 7 0 21 5 32 10 11 6 29 15 40 20 11 6 29 10 39 10 11 0 23 5
26 10 3 6 17 10 30 10 13 0 27 5 30 10 3 6 19 10 34 10 15 0 31 4 37 9 5 5 23
11 39 13 17 2 30 8 30 13 0 14 -72 19 -80 6z"/>
<path d="M5105 5165 c-33 -19 -76 -42 -95 -51 -95 -44 -117 -53 -135 -56 -11
-2 -20 -8 -20 -13 0 -19 52 -16 89 4 20 12 42 21 49 21 7 0 23 9 35 20 12 11
26 20 32 20 6 0 20 5 33 12 46 24 57 28 70 28 23 0 78 31 72 41 -12 18 -72 6
-130 -26z"/>
<path d="M9730 5046 c0 -66 4 -117 10 -121 6 -3 10 -39 10 -79 0 -39 4 -76 9
-81 5 -6 12 -55 15 -110 3 -55 8 -132 11 -172 6 -66 5 -72 -14 -83 -24 -12
-19 -30 8 -30 35 0 43 38 37 186 -10 228 -17 318 -27 329 -5 5 -9 39 -9 76 0
37 -4 71 -10 74 -5 3 -10 33 -10 66 0 46 -3 59 -15 59 -12 0 -15 -19 -15 -114z"/>
<path d="M10001 5114 c0 -11 3 -14 6 -6 3 7 2 16 -1 19 -3 4 -6 -2 -5 -13z"/>
<path d="M5925 5090 c-22 -5 -77 -9 -122 -9 -45 -1 -85 -5 -88 -11 -3 -5 -15
-10 -26 -10 -10 0 -19 -7 -19 -15 0 -11 13 -15 54 -15 30 0 58 5 61 11 5 7 59
10 159 9 211 -2 218 -2 214 13 -3 6 -31 15 -64 19 -32 4 -75 9 -94 12 -19 2
-53 1 -75 -4z"/>
<path d="M9170 5086 c0 -8 5 -18 10 -21 6 -3 10 -33 10 -65 0 -32 5 -62 10
-65 6 -3 10 -24 10 -46 0 -21 5 -39 10 -39 6 0 10 -9 10 -20 0 -11 7 -20 15
-20 11 0 15 12 15 49 0 28 -4 52 -9 55 -4 3 -11 31 -15 62 -8 66 -32 124 -52
124 -8 0 -14 -6 -14 -14z"/>
<path d="M8475 5070 c-3 -5 -33 -10 -66 -10 -46 0 -59 -3 -59 -15 0 -12 17
-15 90 -15 86 0 101 -5 81 -25 -5 -6 -11 -23 -13 -39 -2 -21 -12 -35 -33 -46
-16 -9 -38 -34 -49 -56 -23 -49 -33 -68 -57 -111 -22 -40 -25 -83 -5 -83 7 0
16 8 20 18 10 30 44 84 72 113 35 37 54 24 54 -37 0 -24 4 -44 9 -44 24 0 41
14 41 35 0 13 5 27 10 30 6 3 10 13 10 21 0 23 98 144 116 144 4 0 18 10 31
22 l23 21 0 -36 c0 -20 5 -39 10 -42 6 -3 10 -28 10 -56 0 -27 5 -58 12 -68
15 -25 5 -46 -31 -62 -32 -14 -42 -39 -16 -39 8 0 25 6 37 13 46 25 50 34 44
95 -3 31 -8 85 -12 120 -3 34 -10 62 -14 62 -5 0 -10 10 -12 23 -2 16 -9 21
-23 19 -11 -2 -21 -8 -23 -13 -2 -5 -10 -9 -18 -9 -13 0 -124 -104 -124 -117
0 -14 -43 -63 -56 -63 -10 0 -14 14 -14 55 0 30 5 55 10 55 6 0 10 8 10 18 0
9 9 28 20 42 24 31 25 59 3 76 -21 16 -79 18 -88 4z"/>
<path d="M9970 5066 c0 -8 5 -18 10 -21 6 -3 10 -30 10 -60 l0 -54 83 -5 c45
-3 111 -8 146 -12 40 -4 67 -2 74 5 6 6 19 11 29 11 13 0 18 8 18 25 0 16 -6
25 -15 25 -8 0 -15 -4 -15 -10 0 -6 -40 -10 -99 -10 -56 0 -103 4 -106 10 -3
6 -19 10 -34 10 -31 0 -51 16 -51 42 0 10 -6 18 -14 18 -9 0 -12 7 -9 20 4 14
0 20 -11 20 -9 0 -16 -6 -16 -14z"/>
<path d="M8102 5028 c-27 -27 -13 -38 47 -38 33 0 63 5 66 10 3 6 27 10 51 10
32 0 44 4 42 13 -6 15 -107 22 -121 8 -14 -14 -47 -14 -47 -1 0 14 -23 13 -38
-2z"/>
<path d="M5528 4915 c-12 -28 -4 -55 20 -63 15 -5 17 74 2 83 -5 3 -15 -6 -22
-20z"/>
<path d="M5924 4927 c-25 -30 -24 -49 6 -79 19 -18 36 -28 46 -24 9 3 20 6 26
6 15 0 0 71 -19 93 -18 20 -43 22 -59 4z"/>
<path d="M6462 4928 c-17 -17 -15 -87 3 -94 19 -8 75 33 75 55 0 21 -30 51
-51 51 -8 0 -20 -5 -27 -12z"/>
<path d="M9408 4926 c-35 -26 -20 -36 51 -36 39 0 73 -4 76 -10 3 -5 15 -10
26 -10 28 0 69 -29 69 -49 0 -9 -9 -27 -20 -41 -11 -14 -20 -35 -20 -47 0 -12
-4 -25 -10 -28 -5 -3 -10 -21 -10 -39 0 -18 -8 -41 -20 -54 -23 -25 -25 -40
-6 -64 18 -24 36 -23 36 1 0 11 4 22 9 25 5 3 11 23 15 43 13 90 19 113 27
113 5 0 9 9 9 20 0 11 5 20 10 20 6 0 10 23 10 51 0 56 -16 78 -57 79 -13 0
-23 5 -23 10 0 6 -26 10 -59 10 -33 0 -63 5 -66 10 -8 14 -26 12 -47 -4z"/>
<path d="M10550 4888 c0 -16 -51 -68 -67 -68 -7 0 -13 -7 -13 -16 0 -9 -9 -23
-19 -32 -23 -20 -61 -86 -61 -107 0 -24 23 -17 45 12 41 55 43 55 78 23 18
-16 35 -30 38 -30 4 0 18 -18 33 -40 14 -22 33 -40 41 -40 17 0 21 35 5 45 -5
3 -10 13 -10 20 0 17 -69 84 -86 85 -6 0 -17 7 -24 15 -10 12 -3 23 39 63 57
54 65 82 26 82 -14 0 -25 -5 -25 -12z"/>
<path d="M8924 4864 c3 -9 6 -19 6 -24 0 -4 25 -8 56 -9 82 -1 107 -32 64 -79
-11 -12 -20 -29 -20 -39 0 -10 -9 -29 -20 -43 -24 -30 -24 -42 -5 -81 18 -33
35 -30 35 7 0 13 4 32 9 42 5 9 15 36 22 59 6 23 20 51 31 62 10 11 18 33 18
48 0 22 -7 31 -32 41 -18 7 -41 18 -50 23 -10 5 -41 9 -69 9 -43 0 -50 -3 -45
-16z"/>
<path d="M5027 4794 c-4 -4 -7 -11 -7 -16 0 -13 50 -6 53 7 2 12 -36 19 -46 9z"/>
<path d="M9250 4756 c0 -25 4 -48 10 -51 11 -7 10 -154 -2 -161 -4 -3 -8 -23
-8 -45 0 -28 4 -39 15 -39 9 0 15 9 15 24 0 14 5 28 10 31 6 4 10 55 10 120 0
65 -4 116 -10 120 -5 3 -10 15 -10 26 0 10 -7 19 -15 19 -11 0 -15 -12 -15
-44z"/>
<path d="M10235 4770 c-4 -6 -58 -10 -126 -10 -121 0 -199 -15 -199 -37 0 -15
266 -18 275 -3 4 6 26 10 51 10 29 0 44 4 44 13 0 17 -37 39 -45 27z"/>
<path d="M8477 4654 c-4 -4 -7 -53 -7 -109 0 -87 3 -104 20 -123 11 -12 20
-27 20 -34 0 -22 60 -43 81 -29 10 6 35 11 54 11 19 0 35 5 35 10 0 6 15 10
34 10 19 0 38 5 41 10 3 6 15 10 26 10 10 0 19 7 19 15 0 17 -75 22 -85 5 -3
-5 -21 -10 -40 -10 -19 0 -37 -4 -40 -10 -9 -14 -56 -13 -87 2 -28 13 -30 23
-44 168 -6 65 -14 87 -27 74z"/>
<path d="M10065 4647 c-41 -24 -75 -55 -75 -70 0 -25 16 -28 35 -7 10 11 30
20 45 20 14 0 31 5 38 12 8 8 15 8 27 -2 23 -19 21 -148 -2 -166 -21 -16 -113
-19 -113 -4 0 6 -7 10 -15 10 -8 0 -15 -8 -15 -18 0 -30 33 -52 77 -52 36 0
48 6 87 46 43 43 46 49 46 99 0 30 -4 57 -10 60 -5 3 -10 17 -10 30 0 16 -9
28 -32 39 -36 18 -55 19 -83 3z"/>
<path d="M4995 4611 c-3 -6 -15 -11 -26 -11 -10 0 -19 -3 -19 -7 0 -9 -49 -33
-67 -33 -7 0 -13 -7 -13 -15 0 -22 21 -18 84 14 30 16 65 31 78 33 13 2 22 8
21 13 -3 14 -50 18 -58 6z"/>
<path d="M4793 4526 c-25 -12 -29 -21 -12 -32 14 -9 59 16 59 33 0 15 -16 15
-47 -1z"/>
<path d="M6235 4530 c-3 -5 -15 -10 -25 -10 -19 0 -85 -32 -104 -51 -6 -5 -16
-9 -24 -9 -15 0 -42 -24 -42 -38 0 -4 10 -18 23 -30 18 -17 36 -22 74 -22 42
0 52 -3 56 -20 5 -21 31 -27 42 -10 3 6 15 10 26 10 10 0 28 5 39 10 11 6 29
15 40 20 11 6 30 10 42 10 29 0 78 48 78 76 0 14 -13 33 -33 48 -30 23 -44 26
-110 26 -42 0 -79 -4 -82 -10z m159 -38 c16 -10 29 -22 29 -27 0 -15 -55 -43
-86 -44 -15 -1 -36 -5 -47 -11 -11 -5 -29 -15 -41 -21 -17 -8 -25 -7 -43 10
-13 12 -38 21 -66 23 l-45 3 38 23 c21 12 47 22 58 22 10 0 29 5 42 12 12 6
29 15 37 19 26 13 94 8 124 -9z"/>
<path d="M5050 4510 c0 -5 -16 -10 -35 -10 -24 0 -35 -5 -35 -15 0 -17 65 -22
75 -5 3 6 13 10 22 10 14 0 13 -4 -5 -23 -37 -39 -21 -69 24 -48 13 6 34 15
47 20 70 28 97 43 92 52 -8 12 -42 12 -50 -1 -11 -17 -42 -11 -48 10 -4 16
-14 20 -46 20 -23 0 -41 -4 -41 -10z"/>
<path d="M9974 4476 c-8 -22 3 -33 18 -18 9 9 9 15 0 24 -9 9 -13 7 -18 -6z"/>
<path d="M7790 4438 c-30 -22 -56 -45 -58 -50 -2 -4 -9 -8 -17 -8 -7 0 -18 -7
-25 -15 -7 -9 -28 -23 -46 -31 -19 -9 -34 -20 -34 -25 0 -5 -10 -9 -22 -9 -29
-1 -98 -64 -98 -90 0 -16 7 -20 38 -21 90 -3 218 4 227 12 5 5 35 9 66 9 32 0
61 5 64 10 3 6 29 10 56 10 47 0 52 -2 62 -30 10 -25 17 -30 45 -30 26 0 36
-6 50 -30 9 -16 20 -30 25 -30 4 0 7 -9 7 -20 0 -11 5 -20 10 -20 6 0 10 -9
10 -19 0 -11 5 -23 10 -26 6 -3 10 -14 10 -24 0 -21 22 -71 33 -71 4 0 7 -9 7
-20 0 -11 9 -35 20 -55 11 -20 20 -47 20 -60 0 -14 5 -25 10 -25 6 0 10 -9 10
-20 0 -11 5 -20 10 -20 6 0 10 -6 10 -13 0 -8 9 -22 20 -32 11 -10 20 -24 20
-30 0 -7 14 -27 30 -45 17 -18 30 -38 30 -46 0 -8 9 -14 19 -14 11 0 26 -8 33
-17 7 -10 25 -24 41 -32 15 -8 27 -20 27 -27 0 -7 17 -21 38 -31 20 -9 39 -19
42 -22 11 -12 50 -31 65 -31 8 0 15 -4 15 -10 0 -5 6 -10 14 -10 8 0 33 -9 55
-20 23 -11 59 -29 82 -40 22 -11 54 -20 70 -20 32 0 65 -15 90 -42 9 -10 24
-18 33 -18 9 0 16 -4 16 -10 0 -5 9 -10 20 -10 11 0 20 -4 20 -10 0 -5 6 -10
13 -10 18 0 67 -24 67 -32 0 -5 9 -8 20 -8 11 0 20 -4 20 -10 0 -5 6 -10 13
-10 7 0 23 -9 35 -20 12 -11 28 -20 37 -20 8 0 15 -4 15 -10 0 -5 11 -10 24
-10 14 0 28 -4 31 -10 3 -5 28 -10 56 -10 37 0 49 4 49 15 0 8 -9 15 -20 15
-11 0 -28 4 -38 9 -9 5 -29 14 -44 20 -59 23 -84 37 -102 54 -11 9 -26 17 -33
17 -7 0 -13 5 -13 10 0 6 -9 10 -20 10 -11 0 -20 5 -20 10 0 6 -9 10 -20 10
-11 0 -20 5 -20 10 0 6 -9 10 -20 10 -11 0 -20 5 -20 10 0 6 -9 10 -20 10 -11
0 -20 3 -20 8 0 11 -51 32 -77 32 -13 0 -23 5 -23 10 0 6 -9 10 -19 10 -11 0
-23 5 -26 10 -3 6 -17 10 -31 10 -13 0 -24 3 -24 8 0 8 -49 32 -67 32 -7 0
-13 5 -13 10 0 6 -6 10 -13 10 -18 0 -67 24 -67 33 0 4 -6 7 -13 7 -27 0 -117
53 -146 86 -17 19 -37 34 -44 34 -18 0 -97 85 -97 104 0 9 -4 16 -10 16 -5 0
-10 6 -10 13 0 8 -9 22 -20 32 -11 10 -20 23 -20 30 0 7 -9 20 -20 30 -11 10
-20 26 -20 37 0 10 -4 18 -10 18 -5 0 -10 16 -10 35 0 19 -4 43 -9 53 -37 74
-51 106 -51 118 0 8 -4 14 -10 14 -5 0 -10 11 -10 24 0 14 -4 28 -10 31 -5 3
-10 15 -10 26 0 10 -4 19 -10 19 -5 0 -10 6 -10 13 0 15 -79 93 -128 127 -35
23 -54 21 -32 -5 11 -13 9 -15 -13 -15 -14 0 -29 -4 -32 -10 -3 -5 -30 -10
-60 -10 -30 0 -57 -4 -60 -10 -3 -5 -33 -10 -65 -10 -32 0 -62 -4 -65 -10 -6
-10 -145 -14 -145 -4 0 10 44 43 58 44 6 0 12 5 12 10 0 6 6 10 14 10 27 0
115 58 162 107 12 12 43 31 68 43 26 11 44 25 41 30 -13 20 -52 8 -105 -32z"/>
<path d="M9236 4433 c-11 -11 -6 -23 9 -23 8 0 15 4 15 9 0 13 -16 22 -24 14z"/>
<path d="M9210 4385 c0 -8 7 -15 15 -15 8 0 15 7 15 15 0 8 -7 15 -15 15 -8 0
-15 -7 -15 -15z"/>
<path d="M6826 4261 c-12 -13 -14 -21 -6 -26 8 -5 8 -11 1 -19 -18 -22 1 -27
23 -7 22 21 33 18 116 -30 61 -35 94 -84 84 -124 -4 -15 0 -24 10 -28 9 -4 16
-17 16 -31 0 -14 5 -28 10 -31 6 -3 10 -15 10 -26 0 -10 5 -28 10 -39 6 -11
15 -29 20 -40 6 -11 10 -31 10 -44 0 -13 10 -44 21 -68 12 -23 25 -52 29 -63
14 -38 54 -120 71 -145 12 -17 19 -54 23 -110 8 -125 17 -194 27 -205 12 -13
11 -125 -1 -125 -6 0 -18 4 -28 9 -9 5 -28 13 -42 19 -51 20 -125 57 -128 65
-5 10 -40 9 -47 -2 -3 -5 -1 -12 5 -16 5 -3 10 -15 10 -26 0 -10 5 -19 10 -19
6 0 10 -6 10 -14 0 -8 14 -28 30 -46 24 -26 30 -41 30 -76 0 -26 9 -59 21 -81
16 -29 19 -41 10 -55 -6 -10 -11 -26 -12 -35 0 -10 -8 -31 -18 -48 -13 -23
-26 -31 -52 -33 -19 -2 -38 -8 -43 -13 -6 -5 -20 -9 -33 -9 -16 0 -23 6 -23
20 0 32 -26 23 -44 -14 -8 -18 -22 -39 -31 -46 -8 -7 -15 -28 -15 -46 0 -43
-15 -43 -57 -2 -53 52 -52 34 8 -84 5 -10 9 -40 9 -67 0 -28 5 -53 10 -56 6
-3 10 -16 10 -29 0 -31 24 -77 55 -106 14 -13 25 -29 25 -35 0 -6 14 -24 30
-40 21 -20 30 -38 30 -59 0 -17 9 -46 20 -64 11 -18 20 -39 20 -47 0 -8 5 -15
10 -15 6 0 10 -15 10 -34 0 -19 5 -38 10 -41 6 -3 10 -19 10 -35 0 -16 5 -32
10 -35 6 -3 10 -17 10 -30 0 -13 8 -30 18 -37 10 -7 25 -29 35 -49 9 -20 23
-42 32 -49 8 -7 15 -20 15 -29 0 -9 9 -22 20 -29 11 -7 20 -19 20 -28 0 -8 12
-26 28 -39 25 -22 36 -24 125 -25 80 0 97 3 97 15 0 12 -15 15 -78 15 l-78 0
-42 43 c-23 23 -42 50 -42 60 0 9 -4 17 -10 17 -5 0 -10 6 -10 13 0 7 -9 23
-20 35 -11 12 -20 27 -20 34 0 7 -9 19 -20 26 -11 7 -20 21 -20 31 0 11 -4 23
-10 26 -5 3 -10 19 -10 35 0 16 -4 32 -10 35 -5 3 -10 19 -10 34 0 31 -23 83
-45 101 -8 7 -15 22 -15 34 0 26 -22 76 -32 76 -5 0 -8 10 -8 23 0 14 -19 41
-50 72 -43 42 -50 55 -50 87 0 21 -4 46 -9 56 -12 24 -34 122 -28 128 2 3 16
-9 30 -26 25 -29 47 -39 47 -21 0 9 23 19 70 30 17 4 26 14 29 31 1 14 6 27
10 30 4 3 18 21 31 40 12 19 46 58 73 87 46 48 50 56 49 99 0 25 -5 51 -11 57
-6 6 -11 19 -11 29 0 10 -4 18 -10 18 -5 0 -10 11 -10 24 0 14 -5 28 -10 31
-6 3 -7 16 -4 29 4 16 -3 32 -21 54 -20 24 -23 32 -11 32 8 0 18 -4 21 -10 3
-5 21 -10 38 -10 18 0 43 -9 57 -20 14 -11 31 -20 38 -20 7 0 22 -6 35 -12 30
-17 167 -150 167 -162 0 -6 14 -25 32 -43 18 -19 33 -44 33 -56 0 -13 5 -21
14 -19 7 1 24 -4 36 -12 27 -18 35 -12 35 24 0 19 -8 31 -27 41 -42 21 -113
94 -113 116 0 26 -110 133 -138 133 -19 0 -22 5 -22 39 0 22 -4 43 -10 46 -5
3 -10 37 -10 75 0 38 -4 72 -10 75 -5 3 -10 35 -10 70 0 35 -4 67 -10 70 -5 3
-10 26 -10 50 0 24 -4 47 -10 50 -5 3 -10 14 -10 25 0 10 -13 44 -30 75 -16
31 -30 63 -30 71 0 8 -4 14 -10 14 -5 0 -10 9 -10 20 0 11 -4 28 -9 38 -15 31
-31 88 -31 115 0 14 -4 29 -10 32 -41 25 47 35 96 10 16 -8 58 -44 94 -80 35
-36 69 -65 75 -65 6 0 18 -17 28 -37 9 -21 28 -57 42 -81 14 -24 25 -58 25
-78 0 -27 5 -37 20 -41 14 -4 20 -14 20 -34 0 -15 5 -31 10 -34 6 -3 10 -17
10 -31 0 -13 5 -24 10 -24 6 0 10 -11 10 -24 0 -14 5 -28 10 -31 6 -3 10 -19
10 -36 0 -16 3 -29 8 -29 9 0 32 -49 32 -67 0 -7 4 -21 9 -31 5 -9 14 -30 21
-47 7 -16 16 -38 21 -47 5 -10 9 -24 9 -32 0 -7 7 -19 15 -26 22 -18 45 -70
45 -101 0 -15 3 -29 8 -31 12 -5 72 -129 72 -150 0 -10 4 -26 9 -36 5 -9 13
-28 19 -42 5 -14 15 -38 21 -53 6 -15 11 -45 11 -67 0 -21 5 -42 10 -45 6 -3
10 -50 10 -106 0 -59 4 -99 10 -99 6 0 10 -18 10 -40 0 -22 5 -40 10 -40 6 0
10 -9 10 -20 0 -11 5 -20 10 -20 6 0 10 -9 10 -20 0 -11 5 -20 10 -20 6 0 10
-22 10 -49 0 -32 5 -51 14 -54 18 -7 46 -63 46 -92 0 -11 5 -26 11 -32 20 -20
-20 -103 -48 -103 -5 0 -18 -8 -29 -17 -42 -39 -132 -103 -142 -103 -7 0 -12
-3 -12 -8 0 -4 -18 -15 -40 -25 -22 -9 -40 -22 -40 -27 0 -13 -41 -29 -57 -23
-7 3 -13 10 -13 16 0 18 -52 67 -72 67 -31 0 -19 -43 28 -103 28 -34 91 -38
114 -7 8 11 22 20 32 20 10 0 18 5 18 10 0 6 5 10 10 10 10 0 128 78 173 113
9 8 17 22 17 31 0 11 9 16 28 16 16 0 43 7 61 16 28 14 31 19 29 60 -1 25 -5
47 -10 50 -4 3 -8 20 -8 39 0 19 -4 37 -10 40 -5 3 -10 14 -10 23 0 9 -9 28
-20 42 -11 14 -20 33 -20 43 0 9 -4 17 -10 17 -5 0 -10 9 -10 20 0 11 -4 20
-10 20 -5 0 -10 18 -10 40 0 22 -4 40 -10 40 -5 0 -10 15 -10 34 0 19 -4 38
-10 41 -6 3 -10 50 -10 105 0 54 -4 101 -9 104 -5 3 -11 23 -14 43 -7 50 -17
94 -26 118 -5 11 -14 38 -21 60 -18 59 -34 95 -42 95 -5 0 -8 7 -8 15 0 15
-34 82 -51 100 -5 5 -9 17 -9 27 0 10 -4 18 -10 18 -5 0 -10 9 -10 20 0 11 -4
28 -9 38 -5 9 -13 28 -18 42 -18 44 -35 84 -44 102 -5 10 -9 26 -9 35 0 10 -9
29 -20 43 -11 14 -20 35 -20 48 0 12 -4 31 -10 42 -5 11 -14 29 -20 40 -5 11
-10 29 -10 39 0 11 -4 23 -10 26 -5 3 -10 15 -10 25 0 10 -3 20 -7 22 -14 5
-73 130 -73 152 0 12 -9 32 -20 46 -11 14 -20 31 -20 38 0 7 -7 15 -15 18 -25
10 -125 106 -125 121 0 7 -11 18 -24 23 -13 5 -27 13 -30 19 -4 5 -19 16 -34
24 -85 44 -109 56 -125 61 -9 3 -21 16 -26 28 -5 13 -21 34 -35 47 -14 14 -26
30 -26 36 0 13 -52 65 -66 65 -5 1 -25 14 -44 30 -39 34 -79 38 -104 11z m274
-1577 c0 -3 -16 -24 -35 -47 -19 -22 -35 -45 -35 -50 0 -5 -7 -4 -15 3 -20 17
-19 24 8 65 16 26 29 35 50 35 15 0 27 -3 27 -6z m-112 -30 c-3 -19 -34 -41
-43 -32 -9 9 18 48 33 48 7 0 12 -7 10 -16z"/>
<path d="M10473 4190 l6 -70 -55 0 c-30 0 -63 -4 -74 -10 -11 -5 -29 -14 -40
-20 -31 -16 -65 -12 -85 10 -10 11 -24 20 -32 20 -7 0 -13 3 -13 8 0 10 -50
32 -75 32 -12 0 -26 5 -33 12 -9 9 -15 9 -23 1 -10 -10 0 -45 32 -105 46 -89
49 -96 49 -123 0 -14 -5 -25 -11 -25 -7 0 -10 -15 -7 -40 3 -38 -4 -51 -17
-30 -9 15 -25 2 -25 -21 0 -12 7 -19 20 -19 27 0 70 29 70 46 0 8 9 14 20 14
11 0 20 3 20 8 0 12 52 32 85 32 17 0 35 4 41 9 5 6 36 11 69 13 54 3 60 5 63
26 3 20 0 22 -47 22 -27 0 -53 -4 -56 -10 -3 -5 -17 -10 -30 -10 -13 0 -27 -4
-30 -10 -3 -5 -10 -10 -15 -10 -10 0 -5 20 12 57 8 17 8 26 -2 38 -11 13 -9
15 13 15 14 0 29 5 32 10 3 6 16 10 29 10 12 0 27 5 33 11 7 7 20 8 30 5 17
-7 17 -8 1 -20 -22 -16 -23 -36 -3 -36 8 0 15 5 15 10 0 6 12 10 26 10 25 0
26 -1 20 -62 -3 -35 -8 -84 -12 -110 -5 -40 -3 -48 10 -48 9 0 16 8 16 19 0
11 5 23 10 26 6 4 10 72 10 170 0 98 -4 166 -10 170 -5 3 -10 15 -10 26 0 11
-7 19 -16 19 -15 0 -16 -9 -11 -70z m-313 -91 c0 -5 5 -9 12 -9 21 0 78 -63
77 -84 -2 -52 -69 -117 -69 -67 0 11 -4 23 -10 26 -5 3 -10 19 -10 34 0 15 -9
36 -19 45 -18 16 -33 61 -24 70 7 7 43 -6 43 -15z"/>
<path d="M9742 4200 c-19 -31 -15 -53 8 -47 18 5 20 0 20 -50 0 -31 5 -74 12
-96 10 -32 10 -41 0 -45 -14 -4 -16 -38 -2 -47 6 -4 10 -67 10 -155 0 -88 4
-151 10 -155 6 -3 10 -17 10 -31 0 -14 6 -24 15 -24 12 0 14 21 14 120 0 66
-5 122 -10 125 -5 4 -9 26 -9 51 l0 44 40 0 c43 0 121 16 158 33 30 14 28 37
-3 37 -14 0 -25 -4 -25 -10 0 -6 -35 -10 -85 -10 l-85 0 -1 58 c0 64 -5 117
-15 180 -5 34 -10 42 -28 42 -11 0 -27 -9 -34 -20z"/>
<path d="M4757 4063 c-15 -8 -25 -18 -22 -24 8 -12 55 -12 55 1 0 6 7 10 16
10 19 0 13 24 -7 27 -8 0 -26 -6 -42 -14z"/>
<path d="M6306 4057 c-12 -9 -17 -23 -14 -47 3 -34 5 -35 47 -38 36 -3 48 1
72 24 16 15 29 31 29 36 0 12 -58 10 -65 -2 -3 -5 -14 -10 -25 -10 -13 0 -17
5 -13 19 6 25 -10 34 -31 18z"/>
<path d="M4635 4010 c-16 -16 -34 -30 -40 -30 -6 0 -29 -18 -50 -40 -21 -22
-44 -40 -50 -40 -7 0 -20 -9 -30 -20 -10 -11 -23 -20 -30 -20 -7 0 -20 -9 -30
-20 -10 -11 -24 -20 -32 -20 -7 0 -13 -4 -13 -10 0 -5 -9 -10 -20 -10 -12 0
-24 -9 -29 -22 -5 -13 -23 -36 -41 -53 -40 -38 -60 -76 -60 -114 0 -16 -4 -33
-10 -36 -5 -3 -10 -17 -10 -31 0 -14 -4 -33 -10 -43 -5 -10 -10 -64 -11 -120
-1 -55 -5 -101 -10 -101 -5 0 -9 -13 -9 -29 0 -17 -4 -33 -10 -36 -5 -3 -10
-19 -10 -35 0 -16 -5 -32 -11 -36 -7 -4 -9 -25 -5 -60 3 -30 9 -79 12 -109 4
-30 10 -55 15 -55 13 0 11 -307 -1 -315 -5 -3 -10 -42 -10 -85 0 -43 -4 -82
-10 -85 -5 -3 -10 -31 -10 -61 0 -30 -4 -54 -10 -54 -5 0 -10 -13 -10 -29 0
-17 -4 -33 -10 -36 -11 -7 -14 -168 -3 -178 3 -4 15 0 25 9 13 13 15 20 7 30
-7 8 -9 32 -5 59 3 25 9 65 12 90 3 25 10 45 15 45 5 0 9 17 9 38 0 21 4 42 9
48 5 5 11 50 12 99 1 50 6 95 11 102 5 6 7 85 4 175 -5 180 -14 268 -26 283
-5 6 -5 17 0 25 6 8 10 41 10 73 0 31 5 57 10 57 6 0 10 11 10 24 0 14 5 28
10 31 6 3 10 33 10 65 0 32 5 62 10 65 6 3 10 39 10 80 0 41 5 77 10 80 6 3
10 17 10 30 0 13 5 27 10 30 6 3 10 16 10 29 0 12 14 35 30 51 17 16 30 34 30
40 0 17 48 55 69 55 10 0 24 7 31 15 15 19 68 45 90 45 9 0 29 -13 45 -30 16
-16 39 -30 51 -30 13 0 32 -13 46 -30 13 -17 34 -45 48 -63 32 -41 50 -73 50
-90 0 -7 13 -28 28 -47 l29 -34 16 33 c16 31 16 33 -3 38 -10 3 -26 19 -35 36
-44 88 -104 167 -127 167 -21 0 -97 67 -97 86 -1 21 37 64 55 64 6 0 23 14 39
30 16 17 37 30 47 30 10 0 18 7 18 15 0 27 -54 18 -85 -15z"/>
<path d="M9342 4028 c-30 -30 5 -57 76 -58 28 0 52 -4 52 -9 0 -5 16 -16 35
-25 46 -22 49 -30 14 -45 -17 -8 -29 -20 -29 -32 0 -12 -7 -19 -20 -19 -11 0
-20 -4 -20 -10 0 -5 -6 -10 -13 -10 -7 0 -23 -9 -35 -20 -12 -11 -26 -20 -31
-20 -5 0 -16 -12 -23 -27 -12 -25 -11 -33 6 -65 12 -23 27 -38 38 -38 10 0 18
-4 18 -10 0 -5 20 -10 45 -10 25 0 45 5 45 10 0 6 11 10 24 10 14 0 28 5 31
10 3 6 16 10 28 10 33 1 57 24 57 54 0 33 -11 33 -46 1 -15 -14 -37 -25 -50
-25 -12 0 -26 -4 -29 -10 -9 -15 -97 -12 -117 4 -10 7 -18 21 -18 30 0 23 45
66 69 66 10 0 36 18 57 40 21 22 43 40 50 40 6 0 19 9 28 19 17 18 17 21 1 45
-10 14 -25 26 -34 26 -9 0 -27 9 -41 20 -14 11 -35 20 -47 20 -13 0 -23 5 -23
10 0 6 -13 10 -30 10 -16 0 -30 5 -30 10 0 14 -23 13 -38 -2z"/>
<path d="M5525 3897 c-22 -11 -49 -25 -60 -31 -11 -5 -41 -21 -68 -34 -44 -22
-54 -42 -21 -42 13 0 52 18 64 30 13 13 52 30 70 30 11 0 20 4 20 9 0 5 10 11
22 14 15 4 32 -4 59 -27 21 -17 48 -37 61 -43 86 -40 117 -60 121 -75 4 -14
15 -18 46 -18 23 0 41 4 41 8 0 4 -17 24 -37 44 -32 30 -45 36 -78 34 -33 -1
-45 4 -69 32 -15 17 -34 32 -40 32 -7 0 -25 14 -41 30 -33 35 -36 35 -90 7z"/>
<path d="M5293 3783 c-2 -10 -28 -30 -56 -44 -30 -14 -54 -33 -56 -44 -3 -18
-2 -18 23 -2 14 9 32 17 41 17 8 0 15 5 15 10 0 6 5 10 11 10 15 0 69 56 62
64 -12 12 -35 6 -40 -11z"/>
<path d="M11010 3770 c0 -5 -6 -10 -14 -10 -8 0 -24 -12 -35 -27 l-21 -26 32
-28 c33 -28 68 -38 68 -19 0 6 14 10 30 10 28 0 30 2 30 38 0 25 -7 45 -18 55
-20 18 -72 23 -72 7z"/>
<path d="M11295 3764 c-4 -10 -10 -26 -14 -34 -25 -51 9 -121 43 -88 9 9 24
14 36 11 18 -5 20 -1 20 37 0 42 -17 70 -42 70 -8 0 -19 5 -26 12 -9 9 -13 7
-17 -8z"/>
<path d="M10266 3715 c-9 -13 -16 -35 -16 -49 0 -14 -4 -27 -8 -30 -5 -3 -9
-21 -10 -40 -1 -27 6 -42 34 -70 33 -33 41 -36 94 -36 33 0 62 5 65 10 3 6 17
10 31 10 17 0 24 6 24 19 0 22 -29 36 -44 21 -14 -14 -118 -12 -138 4 -23 17
-30 146 -9 162 9 7 10 13 4 17 -6 4 -18 -4 -27 -18z"/>
<path d="M10730 3702 c0 -28 71 -92 103 -92 25 0 27 3 27 43 0 38 -3 44 -31
56 -22 9 -33 10 -38 3 -4 -7 -12 -8 -21 -2 -23 15 -40 12 -40 -8z"/>
<path d="M4670 3573 c0 -3 30 -38 68 -77 l67 -71 -39 -3 c-21 -2 -43 1 -49 7
-6 6 -23 11 -38 11 -15 0 -29 7 -33 16 -9 25 -7 72 4 79 16 10 11 25 -8 25
-24 0 -52 -31 -52 -56 0 -11 -11 -24 -29 -32 -25 -11 -34 -9 -86 18 -31 16
-65 30 -75 30 -20 0 -70 -70 -70 -100 0 -11 -4 -20 -10 -20 -24 0 -6 -41 32
-74 23 -20 44 -36 48 -36 3 0 7 -23 8 -52 1 -29 7 -57 12 -62 6 -6 10 -47 10
-92 0 -46 5 -86 10 -89 6 -3 10 -37 10 -75 0 -38 5 -72 10 -75 6 -3 10 -17 10
-30 0 -13 5 -27 10 -30 6 -3 10 -23 10 -44 0 -43 10 -54 73 -85 34 -17 43 -27
47 -55 4 -26 13 -39 40 -54 61 -33 97 -65 113 -100 9 -19 23 -40 32 -47 8 -7
15 -18 15 -26 0 -7 15 -24 33 -38 25 -19 46 -26 80 -26 25 0 49 5 52 10 3 6
21 10 40 10 27 0 37 6 47 27 7 15 21 29 31 31 13 3 17 -3 17 -27 0 -17 4 -31
9 -31 13 0 50 49 66 88 13 29 45 46 45 22 0 -13 37 -13 45 -1 3 6 -4 15 -15
21 -20 11 -28 50 -10 50 13 0 13 37 1 45 -6 3 3 30 19 60 16 30 30 64 32 76 4
28 52 57 96 58 37 1 51 23 31 48 -11 13 -11 17 -1 20 6 3 12 11 12 19 0 10 14
14 55 14 30 0 55 4 55 10 0 5 37 10 83 12 81 3 82 3 85 31 2 15 8 27 13 27 5
0 9 9 9 19 0 11 5 23 10 26 6 3 10 15 10 25 0 11 9 35 20 55 25 45 26 107 3
126 -28 22 -61 39 -78 39 -8 0 -31 9 -51 21 -46 25 -76 19 -49 -11 10 -11 23
-20 30 -20 7 0 20 -9 30 -20 11 -12 31 -20 50 -20 42 0 64 -24 47 -51 -7 -10
-12 -26 -12 -34 0 -8 -4 -23 -9 -33 -5 -9 -19 -39 -31 -67 -12 -27 -26 -57
-30 -65 -6 -12 -33 -16 -134 -18 -82 -2 -126 1 -126 8 0 29 93 140 117 140 8
0 17 8 20 18 4 9 19 33 35 52 15 19 28 40 28 47 0 24 -28 13 -54 -19 -19 -24
-26 -28 -26 -15 0 9 5 17 10 17 6 0 10 40 10 99 0 56 -4 103 -10 106 -5 3 -10
21 -10 40 0 19 -5 37 -11 41 -6 3 -61 6 -122 5 l-111 -1 32 33 c45 47 39 87
-14 87 -13 0 -26 5 -29 10 -3 6 -22 10 -41 10 -25 0 -34 -4 -34 -16 0 -13 8
-15 40 -12 32 3 41 0 50 -18 13 -24 -1 -58 -35 -83 -17 -13 -92 -17 -104 -5
-2 2 -3 26 -2 54 1 38 -3 52 -14 57 -26 10 -39 -13 -36 -67 l2 -50 -42 0 -41
0 17 26 c12 19 14 29 6 37 -6 6 -11 18 -11 27 0 21 -31 50 -53 50 -19 0 -23
-15 -7 -25 14 -9 12 -61 -2 -88 -7 -12 -13 -23 -14 -25 -2 -4 -84 73 -84 79 0
4 14 9 32 13 47 9 21 28 -33 24 -39 -3 -44 -6 -47 -29 -2 -19 6 -34 32 -57 45
-39 46 -54 4 -50 -22 2 -36 10 -44 26 -6 13 -23 35 -36 50 -14 15 -28 35 -31
45 -4 10 -17 17 -31 17 -14 0 -28 5 -31 10 -7 11 -25 14 -25 3z m-169 -145
c67 -33 89 -50 99 -73 7 -16 21 -39 30 -50 19 -22 31 -71 23 -92 -7 -19 -27
-16 -48 7 -10 11 -24 20 -32 20 -7 0 -13 5 -13 12 0 24 -34 48 -68 48 -25 0
-49 11 -83 37 -50 38 -56 47 -39 58 6 3 10 16 10 29 0 20 16 46 29 46 3 0 45
-19 92 -42z m996 -29 c7 -7 13 -29 13 -50 0 -21 5 -41 10 -44 6 -3 10 -30 10
-60 0 -30 -4 -57 -10 -60 -15 -9 -12 -83 3 -88 15 -5 -9 -37 -28 -37 -7 0 -33
-22 -58 -50 -41 -45 -48 -61 -61 -137 -2 -13 -9 -29 -15 -37 -10 -11 -9 -16 5
-24 21 -11 10 -32 -17 -32 -10 0 -19 -4 -19 -10 0 -6 -28 -10 -64 -10 -36 0
-68 -4 -71 -10 -3 -6 -48 -10 -100 -10 -57 0 -96 -4 -101 -11 -4 -8 -9 -8 -17
0 -14 14 -134 15 -142 1 -4 -6 -65 -10 -150 -10 l-144 0 -12 43 c-6 23 -15 50
-20 59 -5 10 -9 47 -9 82 0 36 -4 67 -9 70 -4 3 -11 41 -15 83 -3 43 -9 96
-12 118 -3 26 0 50 9 68 l15 28 31 -31 c17 -17 31 -38 31 -45 0 -15 53 -45 78
-45 24 0 72 51 72 77 0 18 6 23 24 23 14 0 28 -4 31 -10 3 -5 16 -10 29 -10
12 0 26 -4 32 -9 11 -12 195 -18 212 -8 20 13 3 27 -33 27 -19 0 -37 5 -40 10
-3 6 -42 10 -85 10 -60 0 -88 5 -114 20 -23 12 -38 16 -42 9 -8 -13 -40 15
-58 52 -10 20 -11 30 -3 38 14 14 84 14 92 1 3 -5 25 -10 49 -10 23 0 47 -5
54 -12 9 -9 18 -6 37 12 19 18 28 21 37 12 14 -14 104 -16 113 -3 3 6 69 10
148 10 79 0 154 4 166 9 35 13 133 13 148 1z m-232 -688 c3 -5 1 -12 -5 -16
-5 -3 -10 -14 -10 -23 0 -9 -10 -38 -22 -64 -22 -46 -48 -62 -63 -38 -3 6 -14
10 -23 10 -9 0 -28 9 -42 20 -26 20 -114 28 -124 11 -10 -15 -55 -19 -60 -5
-7 17 -66 -11 -66 -32 0 -8 -5 -14 -11 -14 -15 0 -89 53 -118 84 l-24 26 51 0
c29 0 60 4 70 8 9 5 27 14 40 21 17 9 27 9 37 1 15 -12 174 -12 190 1 6 4 42
10 80 12 39 1 75 4 82 5 6 1 14 -2 18 -7z m-560 -101 c38 -38 68 -60 82 -60
13 0 23 -3 24 -7 3 -36 3 -83 0 -83 -8 0 -71 72 -71 80 0 5 -12 12 -28 18 -15
5 -34 22 -42 38 -8 16 -23 39 -34 52 -15 17 -16 22 -5 22 8 0 41 -27 74 -60z
m392 -51 c6 -6 23 -9 39 -7 18 2 36 -4 47 -15 18 -18 18 -20 -9 -48 -29 -31
-74 -39 -74 -15 0 8 5 18 10 21 6 4 8 11 4 16 -4 6 -17 1 -31 -13 -18 -16 -27
-19 -30 -10 -3 6 -12 12 -20 12 -11 0 -14 7 -10 25 4 24 3 25 -17 12 -11 -8
-26 -24 -32 -36 -6 -12 -23 -35 -38 -50 -26 -27 -36 -81 -16 -81 6 0 32 23 58
50 53 55 69 61 74 28 4 -27 -59 -88 -90 -88 -12 0 -23 -4 -27 -9 -5 -10 -78
23 -102 46 -19 17 -16 47 7 68 11 10 20 29 20 42 0 18 5 23 24 23 14 0 28 5
31 10 3 6 17 10 30 10 13 0 27 5 30 10 8 13 108 13 122 -1z"/>
<path d="M5180 3325 c0 -8 9 -15 19 -15 11 0 23 -4 26 -10 3 -5 33 -10 66 -10
l59 0 0 -42 c0 -24 5 -61 10 -83 12 -51 1 -63 -58 -67 -40 -3 -47 -6 -50 -25
-4 -26 16 -30 48 -11 15 9 24 9 44 -1 47 -26 56 -11 56 92 0 62 -5 107 -15
131 -14 34 -18 36 -60 36 -24 0 -47 5 -50 10 -3 6 -26 10 -51 10 -32 0 -44 -4
-44 -15z"/>
<path d="M5150 3206 c0 -52 4 -98 10 -101 6 -3 10 -15 10 -26 0 -24 27 -36 43
-20 9 9 9 16 -1 31 -6 11 -12 41 -12 67 0 56 -22 135 -38 141 -9 3 -12 -24
-12 -92z"/>
<path d="M4714 3185 c-10 -24 6 -35 51 -35 24 0 47 -4 50 -10 3 -5 30 -10 60
-10 30 0 57 -4 60 -10 3 -5 21 -10 39 -10 17 0 37 -5 43 -11 17 -17 58 -7 58
14 0 22 -61 47 -117 47 -20 0 -40 5 -43 10 -3 6 -39 10 -80 10 -41 0 -77 5
-80 10 -9 15 -35 12 -41 -5z"/>
<path d="M4685 3052 c-5 -6 -21 -12 -35 -14 -14 -1 -24 -7 -23 -13 2 -6 75
-11 189 -12 129 -1 190 -5 200 -14 12 -10 18 -9 32 4 33 34 -12 44 -223 53
-80 4 -134 2 -140 -4z"/>
<path d="M5256 2892 c-3 -5 -66 -9 -141 -10 -75 -1 -142 -5 -148 -9 -7 -4 -72
-10 -145 -13 -78 -3 -132 -9 -132 -15 -1 -16 85 -21 220 -12 69 4 182 10 253
13 96 4 127 8 127 18 0 18 -27 40 -34 28z"/>
<path d="M2575 3420 c4 -6 11 -8 16 -5 14 9 11 15 -7 15 -8 0 -12 -5 -9 -10z"/>
<path d="M6680 3305 c0 -8 9 -15 20 -15 11 0 35 -9 55 -20 20 -11 43 -20 53
-20 9 0 28 -9 42 -20 14 -11 33 -20 42 -20 9 0 20 -4 23 -10 3 -5 13 -10 21
-10 8 0 31 -11 51 -25 39 -26 53 -25 53 5 0 27 -211 130 -268 130 -23 0 -42 5
-42 10 0 6 -11 10 -25 10 -16 0 -25 -6 -25 -15z"/>
<path d="M9467 3054 c-16 -16 10 -24 83 -24 43 0 82 -4 85 -10 3 -5 39 -10 79
-10 39 0 77 -5 82 -10 14 -14 424 -14 438 0 5 5 49 10 97 10 48 0 91 5 94 10
3 6 17 10 31 10 15 0 24 6 24 15 0 12 -18 15 -99 15 -56 0 -103 -4 -106 -10
-3 -5 -42 -10 -86 -10 -46 0 -79 -4 -79 -10 0 -5 -11 -10 -24 -10 -14 0 -28 5
-31 10 -4 6 -63 10 -145 10 -82 0 -141 4 -145 10 -7 11 -287 14 -298 4z"/>
<path d="M5990 3026 c0 -8 5 -18 10 -21 14 -9 13 -422 0 -430 -8 -5 -7 -11 0
-20 8 -9 10 -43 7 -97 -3 -46 -8 -144 -11 -218 -4 -74 -11 -151 -16 -170 -5
-19 -12 -120 -14 -225 -3 -104 -7 -223 -9 -263 -3 -40 -1 -75 4 -78 5 -3 9
-135 9 -293 0 -280 -1 -289 -20 -294 -26 -7 -25 -27 0 -55 44 -47 50 -33 50
111 0 72 4 138 9 145 6 11 16 9 45 -8 33 -18 51 -20 157 -18 145 4 162 22 24
26 -52 1 -95 7 -95 12 0 6 -11 10 -24 10 -14 0 -28 5 -31 10 -3 5 -14 10 -24
10 -30 0 -61 42 -61 83 0 20 5 39 10 42 13 8 13 158 -1 172 -15 15 4 663 22
698 6 13 8 180 7 450 l-3 430 -22 3 c-15 2 -23 -2 -23 -12z"/>
<path d="M6556 2973 c-26 -25 -33 -43 -18 -43 9 1 34 21 50 42 22 28 -4 29
-32 1z"/>
<path d="M6708 2887 c-32 -33 -58 -64 -58 -68 0 -22 29 -2 79 52 74 80 54 95
-21 16z"/>
<path d="M5334 2689 c-4 -7 -9 -62 -11 -123 -2 -61 -5 -123 -8 -138 -2 -15 0
-30 5 -33 13 -8 13 -72 0 -80 -6 -4 -10 -85 -10 -210 0 -125 -4 -206 -10 -210
-5 -3 -10 -15 -10 -25 0 -10 -30 -49 -66 -87 -36 -37 -77 -84 -92 -103 -55
-73 -187 -199 -231 -221 -25 -13 -64 -35 -86 -50 -45 -29 -95 -43 -95 -25 0 6
-15 17 -32 24 -18 7 -41 18 -50 23 -10 5 -26 9 -36 9 -10 0 -31 14 -47 30 -16
16 -32 30 -37 30 -4 0 -27 18 -49 40 -23 22 -50 40 -61 40 -19 0 -80 36 -86
52 -2 4 -10 8 -17 8 -25 0 -105 52 -168 109 -39 35 -64 88 -48 104 6 6 11 26
11 43 0 18 5 36 10 39 6 3 10 17 10 30 0 13 5 27 10 30 6 3 10 16 10 29 0 13
9 31 20 41 11 10 20 23 20 28 0 6 7 19 17 29 9 10 21 27 27 37 6 10 30 46 54
79 43 62 51 82 32 82 -12 0 -59 -50 -60 -63 0 -4 -13 -22 -30 -40 -16 -18 -30
-36 -30 -41 0 -4 -14 -25 -30 -45 -49 -58 -50 -59 -50 -75 0 -8 -4 -18 -10
-21 -5 -3 -10 -17 -10 -30 0 -13 -4 -27 -10 -30 -5 -3 -10 -33 -10 -65 0 -32
-4 -60 -9 -62 -5 -1 -13 -15 -16 -31 -7 -24 1 -35 76 -107 46 -44 89 -80 96
-80 7 0 13 -4 13 -10 0 -5 6 -10 13 -10 18 0 67 -24 67 -32 0 -5 9 -8 20 -8
11 0 20 -4 20 -10 0 -5 8 -10 18 -10 10 0 31 -14 47 -30 16 -16 35 -30 42 -30
7 0 18 -9 25 -20 7 -11 18 -20 24 -20 6 0 32 -18 57 -40 25 -22 50 -40 56 -40
6 0 11 -4 11 -10 0 -5 9 -10 19 -10 11 0 23 -4 26 -10 10 -16 111 -12 125 5
14 17 67 45 87 45 7 0 13 5 13 10 0 6 6 10 14 10 20 0 146 124 146 143 0 10 6
17 14 17 8 0 30 18 48 41 18 22 54 64 79 92 26 29 68 78 93 110 26 31 51 57
57 57 13 0 12 173 -2 187 -7 7 -8 44 -4 109 3 55 8 193 11 308 4 196 -1 249
-22 215z"/>
<path d="M6390 2621 c0 -11 5 -23 10 -26 6 -3 10 -25 10 -49 0 -23 4 -46 9
-51 5 -6 12 -77 15 -160 8 -208 16 -308 27 -319 5 -6 9 -56 9 -112 0 -58 4
-106 10 -109 6 -3 10 -30 10 -60 0 -30 5 -57 10 -60 6 -3 10 -28 10 -56 0 -27
5 -49 10 -49 6 0 10 -30 10 -69 0 -39 5 -73 10 -76 6 -3 10 -21 10 -40 0 -19
5 -37 10 -40 6 -3 10 -21 10 -40 0 -19 5 -37 10 -40 6 -3 10 -42 10 -85 0 -43
5 -82 10 -85 6 -3 10 -17 10 -31 0 -14 9 -44 20 -66 11 -23 20 -54 20 -69 0
-15 5 -31 10 -34 6 -3 10 -18 10 -32 0 -16 7 -27 20 -30 11 -3 20 -9 20 -14 0
-5 9 -9 19 -9 11 0 23 -4 26 -10 3 -5 19 -10 35 -10 16 0 32 -4 35 -10 3 -5
19 -10 36 -10 16 0 29 -4 29 -10 0 -5 7 -10 15 -10 34 0 108 -45 123 -74 7
-14 18 -26 25 -26 6 0 25 -13 42 -29 30 -29 55 -35 138 -32 25 1 27 4 27 44 0
24 5 48 11 54 6 6 8 16 4 22 -9 15 -28 2 -21 -15 3 -7 -1 -17 -8 -21 -8 -5
-16 -19 -18 -33 -2 -21 -8 -25 -31 -22 -31 3 -136 78 -159 114 -15 22 -34 34
-95 59 -16 6 -36 15 -45 20 -10 5 -27 9 -37 9 -11 0 -23 5 -26 10 -3 6 -26 10
-50 10 -37 0 -47 5 -64 29 -12 16 -21 43 -21 60 0 17 -9 46 -20 66 -11 20 -20
48 -20 63 0 16 -4 32 -9 37 -5 6 -12 37 -15 70 -13 142 -18 175 -27 175 -5 0
-9 14 -9 32 0 31 -14 87 -31 120 -5 10 -9 31 -9 48 0 16 -4 30 -10 30 -6 0
-10 38 -10 94 0 53 -4 98 -10 101 -6 4 -10 53 -10 115 0 62 -4 111 -10 115 -5
3 -10 28 -10 55 0 27 -4 52 -10 55 -6 4 -10 57 -10 125 0 68 -4 121 -10 125
-6 3 -10 49 -10 104 0 53 -4 101 -9 107 -5 5 -11 23 -13 39 -2 22 -9 31 -25
33 -17 3 -23 -2 -23 -17z"/>
<path d="M4390 2564 c-21 -24 -60 -106 -60 -124 0 -9 -5 -21 -11 -27 -13 -13
-8 -78 6 -78 6 0 12 11 13 25 2 14 8 29 13 35 5 5 9 16 9 25 0 10 8 32 17 51
27 52 42 99 33 104 -4 3 -13 -2 -20 -11z"/>
<path d="M7523 1443 c-2 -54 -5 -190 -8 -302 -4 -151 -3 -206 6 -212 9 -5 8
-14 -1 -36 -12 -27 -30 -39 -83 -57 -10 -3 -15 -10 -12 -16 8 -13 55 -13 55 0
0 6 9 10 20 10 11 0 20 5 20 10 0 6 6 10 13 10 33 0 63 69 37 85 -5 3 -10 21
-10 40 0 19 -5 57 -11 86 -8 35 -8 58 -1 73 12 24 22 325 13 371 -3 16 -13 31
-21 33 -12 2 -15 -15 -17 -95z"/>
<path d="M4682 1288 c-7 -7 -12 -43 -12 -94 0 -46 -4 -86 -10 -89 -5 -3 -10
-38 -10 -76 0 -69 12 -99 39 -99 16 0 53 -22 72 -42 9 -10 23 -18 30 -18 8 0
20 -9 27 -20 8 -13 23 -20 43 -20 26 0 29 -2 20 -14 -7 -8 -8 -17 -3 -20 12
-7 22 -64 28 -151 3 -38 9 -74 14 -79 6 -6 10 -34 10 -62 0 -29 5 -56 10 -59
6 -3 10 -38 10 -76 0 -53 4 -71 15 -76 32 -12 73 54 45 72 -5 3 -10 21 -10 40
0 19 -4 37 -10 40 -5 3 -10 30 -10 60 0 30 -4 57 -10 60 -5 3 -10 21 -10 40 0
19 -4 36 -9 39 -11 7 -14 146 -4 146 19 0 103 -46 103 -57 0 -6 14 -20 30 -30
17 -9 30 -21 30 -25 0 -4 7 -8 15 -8 9 0 25 -9 37 -20 12 -11 30 -20 39 -20
10 0 21 -4 24 -10 3 -5 15 -10 26 -10 10 0 19 -4 19 -10 0 -5 16 -10 35 -10
24 0 35 5 35 15 0 8 -8 15 -18 15 -10 0 -22 4 -27 9 -18 17 -85 51 -100 51 -8
0 -15 4 -15 9 0 5 -16 16 -35 25 -19 9 -38 22 -42 30 -4 7 -16 15 -25 19 -10
3 -18 13 -18 22 0 8 -8 15 -17 15 -10 0 -29 9 -43 20 -14 11 -41 20 -62 20
-21 0 -38 4 -38 9 0 5 -16 16 -36 26 -19 9 -38 23 -41 31 -3 8 -11 14 -19 14
-7 0 -34 15 -58 33 l-45 32 0 71 c-1 38 4 75 9 80 14 14 9 156 -5 161 -6 2
-16 -2 -23 -9z"/>
<path d="M6400 1091 l-35 -7 49 -7 c50 -7 71 -3 61 14 -7 10 -21 10 -75 0z"/>
<path d="M5845 768 c-16 -6 -39 -15 -50 -21 -11 -5 -28 -14 -37 -19 -10 -4
-27 -12 -38 -18 -11 -5 -31 -10 -45 -10 -14 0 -25 -4 -25 -10 0 -5 -8 -10 -18
-10 -16 0 -93 -55 -100 -72 -2 -5 -39 -8 -82 -8 -75 0 -112 -13 -73 -26 10 -3
35 -14 55 -24 36 -18 37 -18 54 1 9 10 25 19 36 19 10 0 18 5 18 10 0 6 6 10
14 10 7 0 19 7 26 15 7 9 29 22 49 31 20 9 44 20 53 25 10 5 25 9 33 9 8 0 23
4 33 9 48 25 109 50 127 53 12 2 21 12 23 26 4 24 -5 26 -53 10z"/>
</g>
</svg>
