<?xml version="1.0" standalone="no"?>
<!DOCTYPE svg PUBLIC "-//W3C//DTD SVG 20010904//EN"
 "http://www.w3.org/TR/2001/REC-SVG-20010904/DTD/svg10.dtd">
<svg version="1.0" xmlns="http://www.w3.org/2000/svg"
 width="1480.000000pt" height="738.000000pt" viewBox="0 0 1480.000000 738.000000"
 preserveAspectRatio="xMidYMid meet">
<metadata>
Created by potrace 1.13, written by Peter Selinger 2001-2015
</metadata>
<g transform="translate(0.000000,738.000000) scale(0.100000,-0.100000)"
 stroke="none">
<path d="M2050 7205 c0 -8 7 -15 15 -15 8 0 15 7 15 15 0 8 -7 15 -15 15 -8 0
-15 -7 -15 -15z"/>
<path d="M3116 7111 c-4 -5 -2 -12 3 -15 5 -4 12 -2 15 3 4 5 2 12 -3 15 -5 4
-12 2 -15 -3z"/>
<path d="M2522 7102 c-10 -7 -12 -173 -12 -816 0 -471 -4 -814 -9 -824 -5 -10
-10 -85 -12 -167 -1 -83 -6 -155 -11 -162 -6 -7 -5 -19 1 -30 6 -12 6 -25 0
-34 -12 -19 -11 -66 1 -74 13 -8 13 -222 0 -230 -6 -4 -10 -116 -10 -304 0
-215 -3 -300 -12 -309 -9 -9 -8 -17 2 -37 10 -20 11 -28 2 -37 -15 -15 -15
-53 -1 -80 8 -14 8 -23 0 -31 -7 -7 -11 -104 -11 -297 0 -162 -4 -290 -9 -295
-6 -6 -10 -213 -12 -495 -1 -267 -6 -496 -10 -510 -5 -14 -11 -272 -13 -575
-7 -807 -16 -1239 -27 -1249 -12 -13 -12 -93 1 -101 7 -4 6 -13 -1 -27 -12
-21 4 -68 23 -68 20 0 38 31 38 65 l0 36 333 -5 c182 -2 341 -5 352 -5 11 0
81 0 155 0 74 0 140 0 145 0 6 0 75 1 154 4 100 3 148 1 158 -7 10 -8 19 -8
36 1 34 18 1744 6 1812 -13 5 -1 8 -19 7 -39 -3 -31 0 -37 17 -37 21 0 55 55
45 72 -6 9 326 4 429 -8 39 -4 62 -2 72 6 10 8 19 9 28 3 6 -5 46 -8 87 -6
125 6 183 5 228 -2 27 -5 47 -3 56 4 16 13 433 13 442 0 4 -7 1215 -16 1412
-10 54 1 99 -2 106 -8 8 -7 201 -11 574 -11 309 -1 564 -5 566 -9 3 -4 209 -8
458 -10 249 -1 491 -4 538 -7 47 -3 97 -5 113 -4 15 0 44 0 65 0 20 -1 376 -3
790 -6 673 -4 752 -3 752 11 0 8 -6 15 -14 15 -11 0 -15 30 -20 142 -4 79 -11
204 -16 278 -5 74 -12 207 -16 295 -3 88 -10 164 -15 170 -5 5 -9 71 -9 146 0
76 -4 149 -10 163 -5 15 -10 95 -11 178 0 84 -4 159 -9 168 -11 20 -20 376
-26 1014 -3 336 -8 494 -15 503 -8 9 -8 17 0 27 9 11 9 19 0 34 -10 16 -10 23
0 35 7 9 8 18 2 21 -6 4 -10 169 -11 429 -1 232 -4 442 -7 467 -10 102 -14
902 -4 914 6 8 11 84 11 189 1 97 6 179 11 182 11 7 12 85 1 85 -4 0 -7 12 -6
28 1 15 3 27 5 27 7 0 5 92 -3 102 -5 7 -5 14 2 18 7 4 10 154 10 461 0 356 3
454 13 455 6 1 23 0 37 0 30 -2 73 41 68 67 -2 12 -16 18 -48 20 -25 2 -49 7
-54 13 -13 12 -46 11 -46 -2 0 -11 -415 -12 -434 -1 -16 9 -91 8 -104 -2 -8
-6 -21 -5 -35 3 -22 12 -91 10 -103 -2 -4 -3 -15 -2 -24 3 -11 6 -382 10 -961
10 -659 1 -947 4 -956 11 -7 7 -20 8 -30 3 -29 -12 -72 -15 -78 -4 -8 14 -41
12 -65 -2 -15 -10 -22 -10 -31 -1 -8 8 -18 9 -29 3 -9 -5 -34 -5 -58 1 -46 10
-804 15 -3597 24 -984 3 -1801 9 -1815 14 -14 5 -117 7 -230 5 -113 -1 -212
-3 -220 -3 -574 4 -824 11 -843 24 -24 17 -36 18 -55 7z m104 -82 c7 -7 25 -8
55 -1 51 11 424 10 435 -1 11 -12 52 -10 59 2 5 8 11 8 19 1 8 -7 24 -7 42 -2
33 9 233 7 368 -4 54 -5 91 -4 99 3 13 11 125 10 143 -1 7 -4 731 -7 1610 -7
1206 0 1601 -3 1611 -12 11 -9 19 -9 32 -1 17 11 372 10 390 -1 5 -3 241 -6
524 -6 327 0 518 -4 522 -11 4 -5 12 -6 18 -2 21 13 144 15 167 3 16 -9 25 -9
36 1 11 9 20 9 37 1 29 -14 90 -14 99 0 5 9 11 8 22 -1 13 -11 25 -11 66 0 39
10 57 10 83 1 24 -9 239 -12 820 -12 527 0 788 -4 792 -11 5 -6 12 -6 22 2 10
9 19 10 32 2 11 -7 239 -11 696 -12 487 -1 689 -5 713 -13 35 -13 36 -21 32
-165 -1 -29 2 -58 7 -65 10 -17 12 -207 1 -214 -12 -8 -10 -52 3 -60 8 -4 8
-9 0 -17 -15 -15 -14 -50 1 -65 7 -7 8 -12 2 -12 -7 0 -11 -26 -11 -62 0 -232
-7 -395 -16 -406 -8 -10 -7 -16 3 -22 8 -5 10 -15 5 -26 -22 -53 -41 -1287
-22 -1456 4 -42 3 -69 -3 -73 -12 -8 -13 -52 -1 -59 11 -7 11 -55 0 -62 -5 -3
-5 -12 0 -22 5 -9 9 -143 10 -297 2 -182 6 -282 13 -286 7 -4 7 -9 -1 -13 -14
-9 -15 -106 -1 -106 6 0 10 -7 10 -15 0 -8 -4 -15 -10 -15 -14 0 -13 -66 2
-106 9 -26 9 -39 0 -60 -8 -17 -9 -30 -3 -38 5 -6 10 -94 12 -196 3 -274 4
-314 10 -325 4 -5 7 -102 8 -213 1 -112 6 -215 12 -229 5 -13 9 -187 9 -394 0
-280 3 -369 12 -369 9 0 9 -3 0 -12 -7 -7 -8 -16 -3 -22 5 -6 12 -65 15 -131
4 -66 11 -205 16 -310 6 -104 13 -255 16 -335 3 -80 9 -149 15 -155 5 -5 9
-40 9 -77 l0 -68 -85 0 c-47 0 -105 5 -129 12 -35 9 -53 9 -85 -2 -30 -9 -44
-10 -54 -2 -9 8 -99 11 -275 12 -143 0 -272 4 -285 9 -14 5 -238 10 -503 11
-263 0 -483 4 -488 9 -6 5 -213 10 -461 12 -247 2 -495 5 -550 6 -55 2 -351 6
-658 8 l-558 6 8 37 c10 44 9 107 -2 224 -8 85 -8 86 15 90 26 3 58 50 59 85
1 12 6 25 11 28 6 3 10 31 10 60 0 49 3 57 30 77 16 12 30 27 30 34 0 12 40
27 49 19 8 -9 1 -89 -9 -99 -6 -6 -10 -55 -10 -110 0 -92 -8 -138 -32 -192
-14 -31 -6 -59 17 -59 13 0 21 8 23 24 2 13 12 39 23 58 15 27 19 54 19 143 0
62 4 111 10 115 6 3 10 21 10 40 0 19 5 37 10 40 19 12 10 51 -17 76 -58 52
-62 53 -83 34 -11 -10 -20 -23 -20 -30 0 -6 -12 -22 -26 -36 -29 -26 -46 -60
-50 -99 -2 -14 -8 -35 -14 -47 -33 -73 -33 -73 -47 -62 -19 16 -16 53 7 94 11
20 20 49 20 65 0 16 5 32 10 35 6 3 10 17 10 31 0 14 9 34 20 46 13 14 20 36
20 60 0 42 -17 56 -46 40 -21 -12 -46 -80 -32 -88 6 -4 6 -10 -1 -17 -6 -6
-11 -21 -11 -33 0 -13 -5 -26 -10 -29 -6 -3 -10 -22 -10 -42 0 -30 -2 -34 -15
-23 -11 9 -15 34 -15 94 l0 82 50 49 c27 26 47 52 44 57 -10 15 -51 8 -69 -12
-22 -24 -29 -19 -32 23 -1 29 -12 110 -29 225 -3 23 -10 45 -15 48 -5 3 -9 14
-9 24 0 11 -9 35 -20 55 -21 37 -26 93 -11 123 28 55 35 82 32 125 -1 13 -8
17 -23 15 -20 -3 -24 -11 -28 -53 -3 -31 -8 -45 -13 -37 -11 17 -27 15 -27 -3
0 -8 5 -15 10 -15 6 0 10 -11 10 -25 0 -16 -6 -25 -15 -25 -9 0 -19 -8 -22
-17 -7 -19 -19 -32 -45 -48 -54 -34 -138 -97 -138 -103 0 -4 -11 -12 -25 -19
-24 -10 -25 -9 -25 18 l0 29 -65 0 c-58 0 -65 -2 -65 -20 0 -11 -4 -20 -10
-20 -5 0 -10 -7 -10 -15 0 -18 31 -20 48 -3 9 9 12 -1 12 -45 l0 -57 -53 0
c-29 0 -57 -4 -62 -9 -6 -5 -29 -12 -52 -15 -105 -15 -123 -19 -129 -27 -3 -5
-14 -9 -25 -9 -10 0 -19 -4 -19 -10 0 -5 -19 -10 -43 -10 -24 0 -47 -4 -52 -9
-20 -19 -640 -40 -658 -22 -6 6 -30 11 -53 11 -24 0 -46 5 -49 10 -3 6 -24 10
-46 10 -21 0 -49 5 -62 12 -48 25 -58 28 -81 28 -14 0 -28 5 -31 10 -3 6 -19
10 -35 10 -16 0 -32 5 -35 10 -3 6 -37 10 -76 10 -39 0 -69 4 -69 10 0 6 -8
10 -18 10 -11 0 -27 9 -37 20 -10 11 -26 20 -36 20 -9 0 -36 10 -58 22 -33 17
-41 27 -41 49 0 58 3 60 116 58 57 0 104 -5 104 -10 0 -5 22 -9 49 -9 28 0 53
-4 56 -10 3 -5 21 -10 40 -10 19 0 44 -4 57 -9 14 -5 80 -10 149 -12 100 -3
131 -7 161 -23 36 -19 38 -19 58 -1 15 14 20 31 20 71 0 29 4 56 10 59 6 3 10
30 10 60 0 30 5 57 10 60 6 3 10 21 10 40 0 19 5 37 10 40 6 3 10 19 10 35 0
16 5 32 10 35 6 3 10 25 10 49 0 23 5 47 10 52 6 6 12 84 15 175 3 90 9 220
15 289 5 69 12 161 16 205 3 44 10 84 15 90 5 5 9 126 9 277 0 265 0 267 22
279 16 9 23 9 26 0 2 -6 17 -11 32 -11 16 0 32 -4 35 -10 3 -5 30 -10 60 -10
30 0 57 -5 60 -10 15 -25 215 -7 262 23 22 14 28 -19 35 -213 4 -107 12 -235
18 -285 5 -49 12 -115 16 -145 3 -30 10 -59 15 -64 5 -6 9 -45 9 -88 0 -43 5
-87 10 -98 6 -11 15 -29 20 -40 6 -11 10 -62 10 -114 0 -53 4 -98 10 -101 6
-3 10 -19 10 -35 0 -16 4 -31 9 -34 8 -6 14 -31 27 -119 4 -20 10 -40 15 -43
5 -3 9 -52 9 -109 0 -58 4 -107 10 -110 6 -3 10 -22 10 -41 0 -30 3 -34 25
-34 24 0 25 3 25 59 0 33 -4 63 -10 66 -5 3 -10 19 -10 34 0 15 -4 31 -9 37
-5 5 -12 54 -15 109 -5 121 -15 185 -27 185 -5 0 -9 24 -9 54 0 30 -4 58 -10
61 -5 3 -10 37 -10 75 0 37 -4 70 -10 72 -5 2 -11 27 -13 55 -2 29 -6 56 -10
59 -4 4 -7 34 -7 66 0 32 -4 58 -10 58 -6 0 -10 28 -10 63 0 35 -4 67 -9 73
-10 9 -13 49 -30 364 -6 96 -13 192 -17 213 -4 24 -2 37 5 37 6 0 11 7 11 15
0 8 -9 15 -20 15 -18 0 -20 7 -20 54 0 30 -4 58 -10 61 -5 3 -10 26 -10 50 0
24 -4 47 -10 50 -5 3 -10 25 -10 48 0 32 -9 53 -36 91 -26 35 -39 45 -47 37
-8 -8 -2 -28 21 -72 18 -34 32 -70 32 -80 0 -10 5 -21 10 -24 6 -3 10 -46 10
-96 0 -49 5 -97 11 -107 9 -14 7 -25 -8 -52 l-20 -35 -118 -3 c-72 -2 -122 1
-129 8 -5 5 -32 10 -58 10 -26 0 -48 5 -48 10 0 6 -15 10 -34 10 -19 0 -38 5
-41 10 -3 6 -16 10 -28 10 -14 0 -18 3 -10 8 7 4 13 35 15 70 l3 62 30 -17
c24 -13 57 -16 169 -15 84 0 143 5 149 11 6 6 25 11 42 11 19 0 39 8 50 20 16
18 17 23 5 45 -16 29 -40 33 -40 7 0 -32 -22 -42 -95 -42 -39 0 -75 -4 -81
-10 -12 -12 -138 5 -180 25 -46 21 -57 40 -50 77 4 18 10 50 13 71 3 22 13 41
24 48 10 5 19 16 19 24 0 8 7 15 15 15 8 0 15 -4 15 -10 0 -16 22 -12 36 8 7
9 14 26 14 38 0 11 5 25 12 32 9 9 9 15 0 24 -7 7 -12 23 -12 36 0 32 24 23
28 -11 2 -15 19 -40 39 -57 l35 -32 30 36 c24 29 36 36 65 36 19 0 47 -8 61
-18 15 -10 35 -22 45 -25 9 -4 20 -15 24 -24 11 -29 62 -88 104 -123 32 -26
43 -29 54 -20 8 7 15 25 15 41 0 15 5 31 10 34 15 9 12 45 -4 45 -17 0 -33
-19 -38 -45 -3 -16 -19 -4 -88 68 -46 48 -97 94 -113 102 -43 22 -126 20 -134
-2 -12 -34 -25 -44 -39 -32 -8 6 -14 20 -14 30 0 11 -3 19 -8 19 -11 0 -34 58
-27 69 6 10 31 23 103 52 17 8 32 17 32 21 0 5 9 8 20 8 11 0 20 7 20 15 0 33
-109 7 -155 -36 -5 -5 -37 -9 -71 -9 -35 0 -66 -4 -69 -10 -16 -26 -92 -6
-185 47 -14 8 -33 17 -43 20 -12 4 -16 12 -12 24 4 12 2 19 -6 19 -17 0 -49
-30 -49 -46 0 -14 51 -54 90 -71 14 -5 45 -20 68 -32 46 -22 136 -29 147 -11
8 13 55 13 55 0 0 -5 -9 -26 -21 -47 -14 -24 -20 -49 -17 -75 3 -37 -4 -49
-17 -28 -3 6 -24 10 -45 10 -29 0 -42 5 -50 20 -6 11 -17 20 -25 20 -8 0 -15
5 -15 10 0 6 -22 10 -50 10 -46 0 -53 -3 -91 -45 -44 -47 -69 -88 -69 -110 0
-20 -43 -96 -69 -123 -21 -21 -27 -22 -46 -12 -43 23 -115 92 -115 110 0 10
-12 29 -27 42 -16 13 -33 33 -39 44 -6 10 -23 25 -38 32 -15 8 -31 23 -36 35
-4 12 -24 38 -44 56 -20 19 -36 40 -36 46 0 7 -9 20 -20 30 -26 24 -25 37 5
65 22 21 29 23 46 12 18 -12 21 -11 26 7 3 12 14 21 24 21 11 0 19 5 19 10 0
6 8 10 18 10 23 0 42 19 42 42 0 23 -27 35 -43 19 -6 -6 -21 -11 -32 -11 -12
0 -30 -9 -39 -19 -26 -29 -63 -33 -129 -16 -32 8 -71 15 -87 15 -16 0 -32 5
-35 10 -3 6 -21 10 -40 10 -19 0 -37 5 -40 10 -3 6 -19 10 -34 10 -15 0 -31 4
-37 9 -5 5 -67 12 -139 15 -363 17 -359 16 -382 38 -12 12 -29 18 -37 15 -25
-10 -18 -44 13 -66 25 -18 44 -21 144 -21 67 0 118 -4 122 -10 3 -6 50 -10
106 -10 l99 0 0 -53 c0 -29 -4 -57 -10 -63 -5 -5 -11 -83 -13 -174 -6 -208
-12 -246 -48 -290 -16 -19 -29 -42 -29 -51 0 -8 -11 -26 -25 -39 -14 -13 -38
-49 -53 -79 -15 -31 -42 -71 -61 -89 -32 -31 -35 -32 -52 -16 -17 15 -19 15
-25 0 -8 -22 -27 -20 -49 4 -14 15 -31 20 -71 20 -29 0 -56 4 -59 10 -3 6 -31
10 -61 10 -30 0 -54 5 -54 10 0 6 -18 10 -39 10 -22 0 -43 5 -46 10 -8 12 -57
13 -71 1 -10 -9 -178 10 -190 22 -4 4 -19 7 -32 7 l-25 0 21 23 c25 26 20 37
-15 37 -13 0 -32 6 -43 12 -15 10 -22 10 -32 0 -7 -7 -38 -12 -70 -12 l-58 0
0 34 c0 19 -4 38 -10 41 -5 3 -10 13 -10 21 0 8 -8 24 -18 35 -19 20 -31 41
-54 97 -7 17 -16 32 -20 32 -5 0 -8 15 -8 33 0 21 -8 41 -20 52 -11 10 -20 26
-20 35 0 26 -37 32 -44 8 -5 -20 12 -58 26 -58 5 0 8 -9 8 -20 0 -11 5 -20 10
-20 6 0 10 -9 10 -20 0 -11 5 -20 10 -20 6 0 10 -18 10 -40 0 -22 5 -40 10
-40 6 0 10 -6 10 -13 0 -7 9 -23 20 -35 11 -12 20 -28 20 -36 0 -8 5 -18 10
-21 6 -3 10 -19 10 -35 0 -16 5 -32 10 -35 6 -3 10 -15 10 -26 0 -17 7 -19 75
-19 43 0 75 4 75 10 0 6 7 10 15 10 9 0 15 -10 15 -26 0 -34 22 -54 59 -54 16
0 33 -4 36 -10 4 -6 72 -10 170 -10 146 0 168 -2 200 -20 20 -11 44 -20 55
-20 10 0 22 -4 25 -10 3 -5 26 -10 50 -10 82 0 145 -42 145 -97 0 -18 -4 -33
-10 -33 -5 0 -10 -13 -10 -29 0 -17 -4 -33 -10 -36 -6 -4 -10 -54 -10 -119 0
-61 -4 -116 -9 -121 -5 -6 -12 -32 -15 -60 -2 -27 -8 -78 -12 -112 -3 -35 -10
-63 -15 -63 -5 0 -9 -27 -9 -59 0 -33 -4 -63 -10 -66 -5 -3 -10 -28 -10 -55 0
-27 -5 -52 -10 -55 -6 -3 -10 -24 -10 -45 0 -21 -4 -42 -10 -45 -5 -3 -10 -22
-10 -41 0 -19 -4 -34 -10 -34 -5 0 -10 -18 -10 -40 0 -22 -4 -49 -10 -60 -6
-11 -15 -29 -20 -40 -6 -11 -10 -38 -10 -59 0 -22 -4 -43 -10 -46 -5 -3 -10
-17 -10 -30 0 -13 -4 -27 -10 -30 -15 -9 -12 -81 5 -95 19 -16 35 -4 35 25 0
13 4 27 10 30 5 3 10 21 10 40 0 19 4 37 10 40 6 3 10 26 10 50 0 24 5 47 10
50 6 3 10 19 10 35 0 16 4 32 10 35 6 3 10 26 10 51 0 24 5 44 10 44 6 0 10
15 10 34 0 19 5 38 10 41 6 3 10 21 10 39 0 17 4 36 9 41 5 6 12 35 15 65 3
30 10 84 16 120 7 36 14 118 17 183 2 64 8 117 14 117 5 0 9 29 9 64 0 36 5
68 10 71 6 3 10 28 10 55 0 27 4 52 10 55 6 3 10 25 10 48 1 51 19 77 54 77
15 0 26 6 26 14 0 18 78 106 95 106 7 0 15 -11 17 -25 4 -17 1 -25 -8 -25 -8
0 -14 -8 -14 -18 0 -11 -9 -27 -20 -37 -11 -10 -20 -22 -20 -27 0 -5 -9 -19
-20 -30 -18 -20 -19 -24 -5 -38 14 -13 19 -13 53 6 39 23 53 51 30 65 -10 6
-10 9 0 9 7 0 12 13 12 31 0 17 13 49 30 74 42 61 40 85 -5 85 -28 0 -35 -4
-35 -19 0 -10 -8 -21 -17 -25 -10 -3 -24 -9 -31 -12 -7 -3 -1 18 15 47 15 30
31 56 36 57 4 2 7 11 7 21 0 9 14 30 30 46 17 16 30 34 30 40 0 7 9 20 20 30
15 14 20 31 20 71 0 29 5 56 10 59 6 4 10 75 10 181 0 150 2 174 15 174 21 0
30 27 15 45 -11 13 -6 15 33 15 25 0 49 -4 52 -10 3 -5 24 -10 45 -10 21 0 42
-4 45 -10 3 -5 24 -10 45 -10 21 0 42 -4 45 -10 3 -6 17 -10 30 -10 l25 0 -18
-32 c-19 -35 -15 -55 20 -95 9 -10 17 -22 19 -28 9 -24 74 -105 84 -105 11 0
55 -45 55 -55 0 -3 22 -29 50 -58 27 -29 50 -57 50 -64 0 -15 62 -63 80 -63
18 0 60 -40 60 -57 0 -9 8 -13 21 -11 15 2 30 20 47 53 13 28 29 58 33 67 5
10 9 27 9 39 0 11 14 40 30 64 17 24 30 47 30 51 0 4 10 18 22 31 37 39 91 31
187 -28 24 -16 29 -41 6 -33 -31 12 -45 -15 -45 -91 0 -64 -2 -73 -20 -78 -12
-3 -20 -14 -20 -26 0 -11 9 -26 20 -33 17 -11 20 -24 20 -95 0 -49 -4 -83 -10
-83 -6 0 -10 -46 -10 -119 0 -68 -4 -122 -10 -126 -6 -4 -5 -13 2 -25 10 -15
9 -35 0 -90 -7 -39 -12 -108 -12 -153 0 -46 -4 -87 -9 -92 -5 -6 -12 -39 -15
-75 -4 -36 -11 -105 -16 -155 -6 -49 -13 -187 -16 -305 -2 -118 -9 -224 -14
-235 -9 -20 -16 -55 -27 -128 -3 -20 -9 -37 -14 -37 -5 0 -9 -13 -9 -29 0 -17
-4 -33 -10 -36 -6 -3 -10 -35 -10 -70 0 -35 -4 -67 -10 -70 -6 -3 -10 -22 -10
-41 0 -24 -5 -34 -15 -34 -8 0 -15 6 -15 13 0 11 -26 14 -117 14 -129 0 -301
23 -328 43 -5 4 -73 8 -150 9 -76 2 -144 5 -149 9 -5 3 -55 9 -110 13 -161 13
-186 18 -186 40 0 10 -7 19 -15 19 -8 0 -15 -5 -15 -10 0 -6 -10 -2 -22 10
-19 18 -80 27 -134 21 -7 -1 -14 9 -17 21 -5 18 -9 20 -19 10 -6 -6 -20 -12
-29 -12 -9 0 -22 -7 -29 -15 -19 -23 14 -55 56 -55 18 0 36 -4 39 -10 3 -5 21
-10 40 -10 18 0 35 -5 37 -10 2 -6 14 -12 28 -14 14 -1 32 -5 40 -9 8 -3 58
-8 110 -11 52 -3 119 -8 148 -11 l52 -7 0 -82 c0 -46 -3 -86 -7 -90 -12 -12
-33 -80 -33 -108 0 -16 -4 -28 -10 -28 -5 0 -10 -15 -10 -33 0 -18 -4 -37 -9
-42 -5 -6 -12 -39 -15 -75 -4 -36 -11 -96 -16 -135 -5 -38 -12 -92 -16 -120
-3 -27 -10 -54 -15 -60 -5 -5 -9 -42 -9 -81 0 -40 -4 -76 -10 -79 -5 -3 -10
-26 -10 -50 0 -24 -4 -47 -10 -50 -6 -3 -10 -44 -10 -91 l0 -85 -472 6 c-597
7 -572 7 -1687 0 -661 -5 -937 -3 -944 4 -6 6 -19 11 -29 11 -17 0 -18 21 -18
390 0 275 3 397 12 415 9 20 8 31 -2 51 -11 20 -11 29 -2 44 8 14 11 158 12
530 0 282 4 519 9 528 4 10 9 226 10 481 1 256 6 472 11 481 5 9 11 162 14
341 3 178 8 466 11 639 3 173 10 337 15 363 13 63 13 197 0 197 -13 0 -13 106
0 130 7 12 11 160 11 392 1 232 5 378 11 386 7 8 7 17 -1 26 -8 10 -9 16 -1
21 13 8 13 109 0 155 -6 22 -6 38 0 44 13 13 13 56 0 76 -5 8 -5 19 0 25 4 5
8 80 8 165 -1 525 0 550 22 550 23 0 24 4 8 29 -9 14 -8 22 3 34 17 19 22 20
35 7z m5372 -5317 c6 -15 12 -44 12 -64 0 -21 5 -41 10 -44 6 -3 10 -25 10
-49 0 -23 5 -47 10 -52 6 -6 12 -81 15 -170 5 -197 14 -306 26 -318 5 -6 9
-38 9 -73 0 -35 4 -63 10 -63 6 0 10 -49 10 -127 1 -71 5 -148 10 -173 6 -32
5 -47 -3 -52 -9 -5 -9 -10 1 -20 6 -6 12 -18 12 -26 0 -11 -57 -13 -331 -10
-182 2 -333 6 -335 10 -3 4 -372 7 -822 8 -449 1 -851 5 -892 10 -41 4 -77 8
-80 8 -23 -2 -30 6 -30 30 0 15 5 33 12 40 9 9 9 15 0 24 -15 15 -16 64 -2 73
6 3 10 26 10 50 0 24 5 47 10 50 6 3 10 41 10 84 0 42 4 81 9 86 11 12 20 80
27 195 3 47 10 89 15 95 5 5 9 24 9 42 0 36 18 119 31 145 5 10 9 31 9 48 0
16 5 30 10 30 6 0 10 9 10 20 0 21 24 28 35 10 3 -5 17 -10 30 -10 13 0 27 -4
30 -10 3 -5 21 -10 40 -10 19 0 37 -4 40 -10 3 -5 19 -10 35 -10 16 0 32 -4
35 -10 3 -5 19 -10 35 -10 16 0 32 -4 35 -10 3 -5 17 -10 30 -10 13 0 27 -4
30 -10 3 -5 19 -10 36 -10 16 0 38 -4 49 -10 11 -5 29 -14 40 -20 11 -5 35
-10 54 -10 19 0 38 -4 41 -10 3 -5 17 -10 30 -10 13 0 27 -4 30 -10 3 -6 51
-10 109 -10 60 0 106 -4 113 -11 7 -7 35 -9 79 -5 38 3 116 9 174 12 58 3 109
10 115 15 5 5 45 9 89 9 84 0 147 15 218 51 10 5 40 9 67 9 28 0 53 5 56 10 3
6 19 10 35 10 16 0 32 5 35 10 3 6 17 10 30 10 13 0 27 5 30 10 3 6 14 10 24
10 9 0 30 14 46 30 16 17 34 30 41 30 7 0 30 18 52 40 21 22 42 40 46 40 15 0
116 74 131 96 20 31 37 30 53 -3z"/>
<path d="M6645 6950 c-11 -5 -57 -9 -102 -9 -45 -1 -89 -4 -98 -7 -43 -17 25
-24 233 -24 122 0 222 -3 222 -8 0 -4 15 -13 33 -20 17 -7 40 -18 49 -23 10
-5 25 -9 33 -9 8 0 15 -5 15 -11 0 -6 18 -31 39 -55 21 -25 46 -60 55 -78 9
-19 22 -36 29 -39 12 -4 45 -65 69 -127 6 -14 14 -33 19 -42 5 -10 9 -27 9
-37 0 -11 5 -23 10 -26 6 -3 10 -48 10 -99 0 -50 4 -96 10 -102 5 -5 11 -23
14 -39 4 -33 12 -61 27 -88 6 -11 8 -21 6 -24 -7 -6 -47 20 -47 31 0 6 -12 23
-27 38 -21 22 -36 28 -69 28 -24 0 -46 5 -49 10 -3 6 -17 10 -30 10 -13 0 -27
5 -30 10 -4 6 -65 10 -150 10 -79 0 -146 4 -149 9 -3 5 -51 10 -107 10 -86 1
-104 -1 -129 -19 -16 -11 -44 -20 -64 -20 -20 0 -45 -6 -56 -12 -16 -10 -24
-10 -40 -1 -12 8 -21 9 -25 3 -3 -6 -18 -10 -32 -10 -16 0 -27 -7 -30 -19 -3
-11 -52 -54 -109 -97 -57 -42 -111 -88 -119 -101 -9 -12 -33 -35 -55 -49 -22
-15 -40 -31 -40 -36 0 -14 -119 -158 -131 -158 -5 0 -18 5 -29 12 -14 9 -24 9
-42 1 -13 -7 -38 -15 -55 -18 -29 -6 -34 -3 -43 19 -6 16 -17 26 -30 26 -18 0
-20 7 -21 63 -1 34 -1 66 0 71 1 4 -3 14 -9 21 -8 9 -8 15 0 20 5 3 10 21 10
40 0 19 5 37 10 40 6 3 10 19 10 35 0 16 5 32 10 35 6 3 10 50 10 105 0 55 4
102 10 105 6 3 10 42 10 85 0 43 5 82 10 85 6 3 10 28 10 55 0 27 5 52 10 55
6 3 10 19 10 34 0 33 39 113 71 147 31 33 75 54 115 54 18 0 36 5 39 10 3 6
24 10 45 10 21 0 42 5 45 10 3 6 21 10 40 10 19 0 37 5 40 10 3 6 25 10 49 10
23 0 46 4 52 10 5 5 45 10 89 12 47 2 79 7 78 13 -4 14 -223 19 -237 5 -5 -5
-29 -10 -53 -10 -24 0 -53 -5 -66 -12 -50 -25 -58 -28 -96 -28 -22 0 -43 -4
-46 -10 -3 -5 -18 -10 -33 -10 -20 0 -42 -15 -83 -57 -30 -32 -60 -69 -66 -83
-18 -44 -33 -96 -33 -118 0 -11 -4 -24 -10 -27 -5 -3 -10 -30 -10 -60 0 -30
-5 -57 -10 -60 -8 -5 -7 -11 1 -21 9 -11 9 -18 1 -26 -7 -7 -12 -33 -12 -59 0
-26 -4 -51 -10 -54 -6 -3 -10 -48 -10 -100 0 -52 -4 -97 -10 -100 -5 -3 -10
-22 -10 -41 0 -19 -4 -34 -10 -34 -5 0 -10 -15 -10 -34 0 -19 -5 -38 -10 -41
-6 -4 -8 -15 -5 -26 6 -17 1 -19 -39 -19 -27 0 -60 -8 -81 -20 -20 -11 -42
-20 -51 -20 -23 0 -91 -49 -97 -70 -3 -10 -25 -28 -49 -39 -25 -11 -51 -27
-58 -36 -16 -19 -34 -19 -50 0 -11 13 -9 23 8 58 36 72 36 218 1 240 -26 16
-81 -15 -98 -55 -8 -18 -27 -52 -43 -75 -15 -23 -28 -46 -28 -50 0 -5 -18 -27
-40 -48 -22 -21 -40 -47 -40 -57 0 -10 -7 -21 -15 -24 -17 -7 -65 -100 -65
-128 0 -12 -9 -32 -20 -46 -11 -14 -20 -30 -20 -35 0 -6 -13 -19 -30 -28 -16
-10 -30 -27 -30 -37 0 -10 -4 -22 -10 -25 -5 -3 -10 -16 -10 -28 0 -23 -79
-189 -92 -195 -5 -2 -8 -12 -8 -22 0 -10 -4 -22 -10 -25 -5 -3 -10 -17 -10
-30 0 -13 -4 -27 -10 -30 -5 -3 -10 -25 -10 -48 0 -26 -8 -51 -20 -67 -11 -14
-20 -31 -20 -38 0 -7 -4 -20 -9 -30 -5 -9 -14 -30 -21 -47 -7 -16 -16 -38 -21
-47 -5 -10 -9 -26 -9 -36 0 -11 -9 -27 -20 -37 -11 -10 -20 -26 -20 -36 0 -10
-4 -21 -10 -24 -5 -3 -10 -15 -10 -26 0 -10 -4 -19 -10 -19 -5 0 -10 -9 -10
-19 0 -11 -4 -23 -10 -26 -5 -3 -10 -17 -10 -30 0 -14 -9 -40 -20 -60 -12 -21
-20 -54 -20 -80 0 -25 -4 -45 -10 -45 -5 0 -10 -13 -10 -29 0 -17 -4 -33 -10
-36 -5 -3 -10 -13 -10 -22 0 -8 -9 -27 -19 -42 -17 -23 -25 -61 -22 -98 2 -25
31 -13 31 12 0 14 5 25 10 25 6 0 10 6 10 13 0 18 24 67 33 67 4 0 7 25 7 55
0 30 5 55 10 55 6 0 10 11 10 25 0 14 4 33 9 43 39 77 51 106 51 122 0 11 5
22 10 25 6 3 10 14 10 25 0 18 53 126 71 145 5 5 9 17 9 27 0 10 5 18 10 18 6
0 10 11 10 24 0 14 5 28 10 31 6 3 10 17 10 30 0 13 5 27 10 30 6 3 10 22 10
41 0 19 5 34 10 34 6 0 10 9 10 20 0 11 4 29 10 40 5 11 14 29 20 40 5 11 10
29 10 39 0 11 5 23 10 26 6 3 10 14 10 24 0 10 7 24 15 31 9 7 22 29 31 49 9
20 20 44 25 53 5 10 9 27 9 38 0 11 4 28 9 38 5 9 15 30 22 45 7 15 18 26 25
23 8 -3 11 1 7 10 -3 8 1 14 10 14 19 0 30 -30 22 -63 -4 -14 -2 -28 4 -31 6
-4 11 -40 11 -86 0 -43 5 -82 10 -85 6 -3 10 -16 10 -28 0 -44 27 -102 49
-105 22 -4 30 21 11 33 -5 3 -10 24 -10 45 0 21 -4 42 -10 45 -6 3 -10 17 -10
31 l0 25 30 -21 c24 -17 41 -20 92 -18 65 3 86 20 33 26 -16 2 -34 8 -39 13
-6 5 -20 9 -33 9 -43 0 -20 25 55 60 23 11 42 26 42 33 0 17 48 37 90 37 36 0
70 23 70 48 0 7 17 12 44 12 25 0 48 5 51 10 3 6 17 10 31 10 23 0 33 3 81 28
13 7 32 12 43 12 11 0 28 4 38 9 35 18 69 30 137 52 39 12 78 25 87 30 10 5
25 9 33 9 8 0 23 4 33 9 9 5 31 14 47 21 17 7 38 16 47 21 29 15 75 10 115
-12 71 -39 74 -45 67 -118 -4 -36 -10 -68 -13 -71 -13 -10 -33 -86 -29 -111 4
-31 22 -31 26 1 2 14 8 29 13 35 5 5 9 21 9 36 0 15 5 31 10 34 6 3 10 17 10
30 0 13 5 27 10 30 6 3 10 17 10 31 0 17 6 24 19 24 19 0 127 -53 145 -71 6
-5 22 -9 37 -9 15 0 29 -6 32 -12 3 -9 12 -6 29 9 13 13 37 24 54 25 29 1 104
61 104 83 0 6 13 18 29 28 16 9 40 29 53 45 14 16 31 26 44 24 11 -2 28 6 39
18 10 11 29 20 42 20 15 0 27 7 30 18 4 15 47 39 133 74 14 6 33 14 42 19 31
16 58 10 103 -21 24 -16 48 -30 54 -30 15 0 45 -18 105 -62 28 -21 56 -38 61
-38 6 0 38 -28 72 -62 59 -61 61 -65 67 -128 19 -175 17 -168 55 -212 21 -24
40 -51 44 -60 4 -11 17 -18 32 -18 14 0 25 -3 25 -8 0 -4 15 -13 33 -20 17 -7
40 -18 49 -23 10 -5 31 -9 46 -9 31 0 72 -36 72 -62 0 -9 6 -28 14 -44 9 -15
13 -40 9 -58 -6 -37 -30 -93 -43 -101 -16 -10 -39 -65 -29 -70 16 -11 -43 -95
-67 -95 -8 0 -31 -24 -52 -52 -22 -29 -51 -64 -66 -77 -14 -14 -26 -32 -26
-40 0 -18 -42 -71 -56 -71 -5 0 -33 -23 -61 -50 -29 -28 -56 -50 -61 -50 -4 0
-26 -18 -47 -40 -21 -22 -45 -40 -52 -40 -7 0 -13 -4 -13 -8 0 -5 -11 -15 -25
-22 -34 -18 -32 -40 3 -40 19 0 40 12 67 40 21 22 44 40 50 40 5 1 33 23 60
50 28 28 53 50 58 50 10 0 87 78 87 89 0 5 7 14 15 21 13 11 14 8 9 -21 l-7
-34 70 65 c39 36 94 84 122 108 28 24 51 50 51 58 0 8 9 14 20 14 11 0 20 5
20 10 0 6 6 10 13 10 14 0 156 143 174 176 6 12 15 37 18 57 6 32 52 87 73 87
5 0 21 14 37 30 35 37 29 55 -31 85 -22 11 -52 28 -67 38 -14 9 -37 17 -51 17
-14 0 -28 5 -31 10 -3 6 -17 10 -31 10 -34 0 -31 28 4 32 23 3 27 8 27 35 0
22 10 42 33 65 17 19 32 43 32 55 0 12 8 23 20 26 25 6 27 49 4 68 -9 7 -20
23 -25 36 -5 14 -17 23 -29 23 -11 0 -28 4 -38 9 -9 5 -28 13 -42 19 -62 24
-123 57 -127 69 -3 8 -24 22 -47 33 -22 10 -61 39 -86 64 -24 25 -49 46 -56
46 -6 0 -14 12 -17 28 -4 15 -10 45 -14 67 -6 30 -13 40 -28 40 -23 0 -34 -40
-16 -58 6 -6 10 -34 9 -61 -1 -41 -2 -44 -5 -16 -3 19 -8 39 -12 45 -19 24
-21 67 -5 100 19 41 12 55 -25 55 -41 0 -89 28 -107 61 -8 16 -15 51 -16 77 0
26 -5 52 -10 59 -5 7 -7 17 -4 22 4 6 0 27 -9 47 -8 20 -15 58 -15 85 0 26 -4
51 -10 54 -5 3 -10 17 -10 30 0 13 -4 27 -10 30 -5 3 -10 24 -10 45 0 21 -4
42 -10 45 -5 3 -10 15 -10 26 0 10 -4 19 -10 19 -5 0 -10 11 -10 23 0 13 -10
32 -21 43 -12 10 -43 51 -69 89 -78 114 -142 165 -209 165 -22 0 -43 5 -46 10
-3 6 -21 10 -40 10 -19 0 -37 5 -40 10 -7 12 -142 12 -170 0z m110 -764 c17
-1 -26 -3 -95 -3 -69 0 -109 2 -90 6 32 6 116 4 185 -3z m-257 -25 c64 -33 73
-34 169 -27 54 5 105 8 113 7 38 -2 91 -14 96 -22 3 -5 36 -9 75 -9 38 0 78
-4 89 -10 11 -5 29 -14 40 -20 11 -5 36 -10 55 -10 19 0 35 -4 35 -10 0 -5 19
-10 43 -10 26 0 51 -8 67 -20 14 -11 31 -20 37 -20 7 0 25 -18 39 -40 15 -22
32 -40 39 -40 6 0 16 -10 22 -22 6 -13 23 -48 37 -79 15 -32 33 -62 41 -69 9
-8 15 -30 15 -56 0 -23 5 -46 10 -49 6 -3 10 -17 10 -30 0 -13 5 -27 10 -30
17 -11 11 -30 -12 -40 -29 -13 -76 8 -88 40 -10 27 -93 85 -120 85 -11 0 -27
11 -35 24 -23 35 -153 122 -220 146 -11 4 -32 13 -47 20 -24 12 -33 11 -70 -7
-24 -12 -69 -33 -100 -48 -32 -14 -60 -30 -63 -35 -3 -5 -23 -17 -43 -27 -20
-9 -53 -29 -72 -45 -19 -15 -42 -28 -51 -28 -9 0 -24 -9 -34 -20 -10 -11 -24
-20 -32 -20 -7 0 -18 -11 -23 -25 -5 -14 -20 -29 -33 -34 -12 -5 -29 -16 -36
-25 -7 -9 -28 -16 -47 -16 -18 0 -36 -4 -39 -10 -10 -16 -62 -11 -98 9 -56 31
-70 38 -110 56 -22 9 -42 27 -47 41 -8 19 -17 24 -44 24 -25 0 -35 5 -39 20
-6 23 -37 26 -66 8 -24 -14 -51 4 -51 33 0 26 41 88 63 95 9 3 17 11 17 19 0
7 9 15 19 18 11 2 21 15 23 28 4 31 34 36 62 10 l22 -21 35 30 c18 16 41 29
49 30 9 0 36 21 60 46 25 25 73 59 108 75 57 28 76 49 53 64 -5 3 -26 -4 -46
-16 -56 -33 -52 -15 7 30 54 41 75 48 106 32z m617 -1 c3 -5 14 -10 24 -10 21
0 78 -27 86 -41 4 -5 -5 -9 -19 -9 -14 0 -28 5 -31 10 -3 6 -22 10 -41 10 -19
0 -53 8 -74 19 -26 12 -62 19 -105 19 -37 0 -69 3 -73 6 -3 3 47 6 111 6 66 0
118 -4 122 -10z m-786 -36 c-15 -16 -25 -21 -28 -13 -2 7 4 18 15 26 30 22 39
15 13 -13z m-59 -59 c-13 -14 -30 -25 -39 -25 -18 0 -5 16 31 35 33 19 34 18
8 -10z m-63 -101 c-3 -3 -12 -4 -19 -1 -8 3 -5 6 6 6 11 1 17 -2 13 -5z
m-1080 -83 c-7 -65 -20 -109 -49 -164 -7 -14 -5 -22 9 -33 10 -7 23 -14 29
-14 31 -1 84 -94 64 -114 -5 -5 -10 -20 -10 -31 0 -12 -9 -30 -21 -41 -18 -16
-19 -20 -5 -30 13 -9 12 -13 -12 -24 -15 -8 -43 -29 -63 -48 -39 -36 -162
-102 -190 -102 -16 0 -18 15 -21 143 -4 156 3 186 53 237 16 16 29 33 29 38 0
5 7 15 15 22 8 7 21 24 28 39 25 49 59 106 68 116 5 5 9 18 9 30 0 25 39 46
58 31 9 -6 12 -24 9 -55z m1050 63 c-3 -3 -12 -4 -19 -1 -8 3 -5 6 6 6 11 1
17 -2 13 -5z m-630 -136 c24 -22 31 -62 13 -73 -18 -11 -11 -35 13 -45 22 -9
22 -9 -3 -10 -14 -1 -35 -1 -47 0 -22 1 -125 -63 -158 -100 -10 -11 -23 -20
-30 -20 -6 0 -24 -13 -40 -30 -35 -36 -55 -38 -55 -6 0 14 -4 28 -10 31 -5 3
-10 21 -10 40 0 19 -4 37 -10 40 -15 9 -12 35 3 35 8 0 22 9 32 20 10 11 24
20 32 20 7 0 18 11 23 24 8 22 58 56 84 56 6 0 22 9 36 20 35 27 97 26 127 -2z
m2104 -104 c15 -15 38 -32 50 -38 39 -19 32 -31 -17 -27 -25 2 -51 -2 -57 -8
-20 -20 -25 -11 -25 44 1 62 9 67 49 29z m-1956 -41 c-16 -3 -34 -9 -39 -14
-6 -5 -21 -9 -34 -9 -13 0 -32 -5 -43 -10 -15 -8 -19 -7 -19 5 0 9 9 15 24 15
14 0 28 5 31 10 3 6 30 9 58 9 33 -1 41 -4 22 -6z m110 -18 c-27 -13 -62 -24
-77 -24 -15 -1 -30 -5 -33 -11 -3 -5 -15 -10 -26 -10 -20 0 -28 -3 -96 -38
-23 -12 -57 -22 -75 -21 -33 0 -33 0 -8 11 14 6 38 17 54 25 16 7 35 13 43 13
7 0 21 4 31 9 9 5 37 15 62 22 25 7 49 16 55 21 5 4 19 8 31 8 13 0 26 5 29
10 3 6 18 10 33 10 23 -1 20 -4 -23 -25z m1838 -62 c-7 -2 -19 -2 -25 0 -7 3
-2 5 12 5 14 0 19 -2 13 -5z m216 -23 c9 -4 39 -18 66 -30 79 -35 80 -36 83
-61 3 -26 -32 -49 -75 -49 -36 0 -114 -21 -156 -41 -22 -11 -47 -19 -57 -19
-11 0 -22 -4 -25 -10 -3 -5 -15 -10 -26 -10 -10 0 -28 -4 -39 -10 -11 -5 -29
-14 -40 -20 -11 -5 -26 -10 -34 -10 -8 0 -19 -7 -24 -16 -8 -14 -12 -12 -31
14 -12 17 -21 45 -21 66 0 20 -4 36 -10 36 -5 0 -10 25 -10 55 0 49 12 73 22
44 7 -20 78 -13 102 10 12 12 32 21 44 21 11 0 24 5 27 10 3 6 16 10 29 10 12
0 26 4 32 9 21 20 104 21 143 1z m-2406 -37 c-7 -2 -21 -2 -30 0 -10 3 -4 5
12 5 17 0 24 -2 18 -5z m-56 -19 c-3 -3 -12 -4 -19 -1 -8 3 -5 6 6 6 11 1 17
-2 13 -5z m2489 -154 c13 0 26 5 29 10 3 6 14 10 23 10 12 0 7 -9 -16 -33 -22
-22 -50 -38 -85 -47 -28 -7 -67 -21 -85 -32 -18 -10 -41 -18 -51 -18 -10 0
-26 -9 -36 -20 -10 -11 -30 -20 -45 -20 -31 0 -80 21 -80 35 0 12 88 55 112
55 9 0 20 5 23 10 3 6 18 10 33 10 15 0 38 9 52 20 14 11 35 20 47 20 12 0 25
5 29 11 4 8 9 8 17 0 6 -6 21 -11 33 -11z m-49 -154 c-4 -9 -17 -16 -30 -16
-13 0 -29 -6 -35 -12 -10 -10 -17 -10 -32 0 -11 6 -30 12 -42 12 -21 0 -21 1
6 15 15 8 36 15 45 16 9 0 30 9 46 18 29 18 30 18 39 0 5 -10 6 -25 3 -33z
m153 -39 c0 -7 -17 -20 -37 -29 -44 -20 -83 -52 -83 -67 0 -16 18 -13 48 7 15
10 48 28 73 41 45 22 48 22 73 6 14 -10 26 -18 26 -20 0 -1 -16 -20 -35 -41
-31 -33 -38 -37 -55 -26 -12 7 -21 8 -25 2 -3 -6 -16 -10 -29 -10 -12 0 -26
-4 -31 -9 -6 -5 -23 -11 -40 -13 -26 -3 -30 1 -33 23 -2 15 -16 39 -33 55 -16
15 -29 31 -29 35 0 11 59 39 82 39 10 0 18 5 18 10 0 6 25 10 55 10 38 0 55
-4 55 -13z m-100 -207 c0 -5 -7 -10 -16 -10 -8 0 -12 5 -9 10 3 6 10 10 16 10
5 0 9 -4 9 -10z m46 -80 c-53 -59 -139 -141 -176 -168 -19 -14 -63 -53 -97
-86 -97 -93 -74 -45 27 58 73 75 90 98 90 122 0 55 120 141 167 119 21 -10 21
-10 -11 -45z"/>
<path d="M6402 6035 c-23 -12 -50 -29 -60 -37 -9 -8 -25 -18 -34 -21 -15 -5
-27 -47 -13 -47 22 0 186 111 179 121 -8 13 -24 10 -72 -16z"/>
<path d="M6475 5990 c-3 -5 -16 -10 -28 -10 -25 -1 -57 -22 -57 -39 0 -15 45
-14 73 2 37 20 57 39 51 48 -7 12 -31 11 -39 -1z"/>
<path d="M6315 5916 c-25 -21 -28 -27 -16 -38 11 -10 14 -10 18 0 3 6 10 12
17 12 13 0 46 31 46 43 0 15 -37 5 -65 -17z"/>
<path d="M6461 5884 c-78 -40 -116 -76 -107 -99 5 -14 13 -10 52 24 26 23 53
41 61 41 28 0 96 47 87 61 -8 14 -24 9 -93 -27z"/>
<path d="M6563 5786 c-26 -14 -63 -59 -63 -75 0 -18 19 -13 38 10 9 11 32 29
50 40 48 31 26 53 -25 25z"/>
<path d="M7770 5510 c-8 -5 -28 -10 -44 -10 -28 0 -76 -12 -121 -31 -11 -5
-36 -10 -55 -11 -49 -4 -39 -22 15 -28 l46 -5 -33 -13 c-78 -31 -102 -53 -64
-60 16 -3 57 12 128 49 10 5 27 9 38 9 28 0 26 30 -2 31 -19 1 -20 2 -4 6 10
3 23 0 29 -6 15 -15 73 -14 97 2 17 10 22 9 28 -1 7 -10 15 -9 40 4 18 8 32
17 32 19 0 2 -12 16 -27 30 -29 26 -75 33 -103 15z"/>
<path d="M6735 6830 c-3 -5 -21 -10 -40 -10 -19 0 -37 -4 -40 -10 -3 -5 -21
-10 -38 -10 -18 0 -43 -9 -57 -20 -14 -11 -32 -20 -41 -20 -9 0 -24 -9 -34
-20 -10 -11 -22 -20 -27 -20 -26 0 -81 -51 -104 -96 l-25 -51 20 -37 c12 -20
21 -53 21 -74 1 -30 10 -47 45 -84 24 -27 48 -48 55 -48 6 0 31 -13 55 -30 52
-36 129 -42 173 -12 15 9 36 22 47 28 11 6 26 22 32 36 14 28 34 47 66 63 12
5 30 28 40 50 11 22 23 48 28 57 5 10 9 30 9 45 1 34 21 63 44 63 28 0 18 28
-11 32 -27 3 -28 6 -31 65 -3 58 -6 65 -36 88 -26 20 -44 25 -89 25 -31 0 -59
-4 -62 -10z m-59 -71 c4 -8 22 -9 53 -4 25 4 67 9 94 11 l47 4 0 -40 c0 -22 5
-49 12 -59 20 -32 -5 -51 -66 -51 -56 0 -76 12 -76 45 0 12 -9 30 -20 40 -20
18 -22 17 -81 -13 -34 -18 -70 -32 -81 -32 -10 0 -22 -10 -27 -22 -5 -13 -18
-32 -30 -43 -18 -16 -25 -17 -41 -7 -11 7 -29 12 -40 12 -14 0 -20 7 -20 23 0
29 18 47 46 47 12 0 27 7 34 15 15 18 109 65 131 65 10 0 21 5 24 10 8 13 32
13 41 -1z m14 -129 c0 -22 -4 -48 -9 -58 -5 -9 -14 -29 -22 -44 -16 -36 -26
-35 -66 4 -36 35 -43 72 -15 81 9 4 35 17 57 31 22 13 43 25 48 25 4 1 7 -17
7 -39z m161 -132 c-36 -65 -46 -78 -59 -78 -7 0 -17 -11 -22 -25 -5 -14 -18
-28 -27 -32 -10 -3 -30 -15 -45 -25 -38 -26 -117 -24 -167 5 -67 38 -111 78
-111 101 0 12 -5 27 -11 33 -15 15 -7 54 13 67 12 7 24 6 42 -3 13 -8 31 -11
39 -8 9 3 32 -12 58 -39 24 -24 51 -44 61 -44 23 0 78 39 78 55 0 6 6 23 13
38 11 24 17 26 82 29 65 3 70 1 73 -18 2 -12 -6 -37 -17 -56z"/>
<path d="M5170 6211 c-8 -4 -25 -13 -37 -19 -13 -7 -32 -12 -43 -12 -23 0
-122 -89 -114 -102 10 -15 29 -8 61 22 18 17 36 30 42 30 5 0 18 10 28 23 15
19 26 22 76 19 60 -3 73 8 40 34 -20 15 -32 16 -53 5z"/>
<path d="M5176 6082 c-52 -3 -106 -33 -106 -58 0 -17 12 -18 27 -3 6 6 39 11
74 12 53 2 64 5 67 21 5 26 -6 31 -62 28z"/>
<path d="M9395 6050 c-3 -5 -17 -10 -30 -10 -13 0 -27 -4 -30 -10 -3 -5 -15
-10 -26 -10 -10 0 -19 -4 -19 -10 0 -5 -8 -10 -18 -10 -9 0 -23 -9 -30 -20 -7
-11 -21 -20 -31 -20 -11 0 -23 -4 -26 -10 -3 -5 -30 -10 -60 -10 -30 0 -57 -4
-60 -10 -3 -5 -19 -10 -35 -10 -22 0 -37 -10 -62 -41 -18 -23 -48 -58 -65 -79
-18 -21 -33 -40 -33 -43 0 -9 -69 -77 -78 -77 -19 0 -42 -38 -42 -68 0 -17 -4
-34 -10 -37 -5 -3 -10 -17 -10 -30 0 -13 -4 -27 -10 -30 -5 -3 -10 -19 -10
-35 0 -16 -9 -45 -20 -65 -11 -20 -20 -49 -20 -65 0 -16 -4 -32 -10 -35 -5 -3
-10 -22 -10 -41 0 -19 -4 -34 -10 -34 -6 0 -10 -26 -10 -59 0 -33 5 -63 10
-66 6 -3 10 -19 10 -36 0 -19 5 -29 15 -29 17 0 18 4 15 87 -2 57 9 112 31
155 5 10 9 31 9 48 0 29 3 38 28 87 7 13 12 43 12 68 0 25 4 53 9 63 5 9 15
30 22 45 15 32 162 180 184 185 8 2 17 12 20 23 4 13 15 19 35 19 15 0 30 6
33 14 6 15 62 46 84 46 7 0 13 5 13 10 0 6 11 10 24 10 14 0 28 5 31 10 3 6
17 10 30 10 13 0 27 5 30 10 3 6 15 10 26 10 10 0 19 5 19 10 0 14 84 12 98
-2 10 -10 14 -8 19 10 5 21 11 23 67 21 33 -1 64 -7 68 -12 3 -6 31 -10 62 -9
30 1 58 -3 61 -8 3 -6 30 -10 60 -10 30 0 57 -4 60 -10 3 -5 41 -10 84 -10 72
0 85 -3 156 -40 43 -22 84 -40 92 -40 18 0 71 -49 86 -81 7 -13 22 -28 35 -34
12 -5 22 -13 22 -17 0 -5 7 -8 15 -8 8 0 19 -9 25 -19 5 -11 22 -21 37 -23 21
-2 33 -14 54 -53 15 -27 28 -62 28 -77 1 -15 6 -30 11 -33 6 -3 10 -37 10 -75
0 -38 5 -72 10 -75 6 -3 10 -17 10 -30 0 -13 5 -27 10 -30 6 -3 10 -52 10
-110 0 -58 -4 -107 -10 -110 -5 -3 -10 -24 -10 -45 0 -21 -4 -41 -8 -44 -4 -2
-8 7 -7 21 0 20 -7 28 -29 36 -24 8 -34 5 -69 -20 -74 -51 -57 -93 37 -93 55
0 56 0 56 -29 0 -17 -4 -33 -10 -36 -5 -3 -10 -15 -10 -26 0 -10 -4 -19 -10
-19 -5 0 -10 -9 -10 -20 0 -11 -4 -20 -10 -20 -5 0 -10 -7 -10 -15 0 -18 -18
-51 -42 -79 -10 -11 -18 -25 -18 -31 0 -7 -27 -37 -59 -68 -33 -32 -61 -65
-63 -74 -3 -18 -53 -51 -79 -52 -9 -1 -19 -7 -22 -15 -3 -8 -18 -20 -34 -28
-52 -26 -78 -43 -94 -60 -9 -10 -26 -18 -37 -18 -11 0 -24 -4 -27 -10 -3 -5
-19 -10 -36 -10 -16 0 -29 -4 -29 -9 0 -11 -52 -21 -140 -27 -36 -3 -74 -9
-85 -15 -25 -12 -322 -6 -380 8 -62 15 -85 25 -85 34 0 5 -9 9 -20 9 -11 0
-20 5 -20 10 0 6 -10 10 -23 10 -26 0 -116 43 -132 62 -14 18 -52 38 -70 38
-8 0 -15 5 -15 10 0 6 -7 10 -15 10 -33 0 -111 61 -128 100 -6 14 -11 36 -11
50 -1 23 -5 25 -60 28 -32 2 -64 -2 -69 -7 -6 -6 -21 -11 -33 -11 -13 0 -26
-4 -29 -10 -3 -5 -26 -10 -50 -10 -24 0 -47 -4 -50 -10 -3 -5 -35 -10 -71 -10
-50 0 -64 3 -64 15 0 8 6 15 13 15 6 0 30 18 52 40 22 21 49 39 59 40 22 0 76
47 76 65 0 15 134 145 149 145 6 0 11 9 11 20 0 17 -7 20 -39 20 -34 0 -42 -5
-60 -33 -11 -18 -31 -43 -45 -56 -14 -14 -26 -29 -26 -36 0 -16 -103 -115
-121 -115 -8 0 -30 -13 -49 -30 -19 -16 -38 -29 -42 -30 -18 -1 -48 -36 -48
-56 0 -41 29 -54 123 -54 47 0 89 5 92 10 3 6 23 10 44 10 20 0 41 4 47 10 5
5 29 11 52 12 24 1 45 5 48 10 8 13 34 9 34 -5 0 -8 12 -24 26 -38 14 -13 32
-38 41 -56 11 -24 22 -33 40 -33 13 0 38 -13 56 -30 18 -16 38 -30 45 -30 6 0
12 -4 12 -10 0 -5 9 -10 20 -10 11 0 20 -4 20 -10 0 -5 9 -10 20 -10 11 0 25
-9 32 -20 7 -11 21 -20 30 -20 10 0 18 -4 18 -10 0 -5 12 -10 28 -10 15 0 38
-9 52 -20 14 -11 37 -20 53 -20 15 0 27 -4 27 -10 0 -5 9 -10 20 -10 11 0 20
-4 20 -10 0 -6 75 -10 204 -10 126 0 207 4 211 10 3 6 37 10 75 10 38 0 72 5
75 10 3 6 21 10 40 10 19 0 37 5 40 10 3 6 17 10 30 10 13 0 27 5 30 10 3 6
15 10 26 10 10 0 19 5 19 10 0 6 6 10 13 10 8 0 22 9 32 20 10 11 26 20 37 20
10 0 18 5 18 10 0 6 6 10 13 10 7 0 31 18 52 40 21 22 44 40 51 40 15 0 178
166 182 186 2 8 8 14 13 14 5 0 9 8 9 19 0 10 7 24 15 31 25 20 45 71 45 112
0 21 5 38 10 38 6 0 10 14 10 30 0 17 5 30 10 30 6 0 10 11 10 24 0 14 5 28
10 31 6 3 10 37 10 75 0 38 5 72 10 75 24 15 9 198 -21 257 -5 10 -9 31 -9 47
0 17 -4 33 -10 36 -5 3 -10 19 -10 35 0 16 -4 32 -10 35 -5 3 -10 28 -10 55 0
27 -4 52 -10 55 -5 3 -10 15 -10 26 0 11 -7 19 -16 19 -8 0 -48 32 -87 70 -39
39 -76 70 -82 70 -6 0 -27 16 -45 35 -38 39 -82 65 -111 65 -10 0 -21 5 -24
10 -3 6 -22 10 -41 10 -19 0 -34 5 -34 10 0 6 -13 10 -29 10 -17 0 -33 5 -36
10 -3 6 -30 10 -60 10 -30 0 -57 5 -60 10 -3 6 -25 10 -47 10 -48 0 -155 18
-179 31 -10 4 -55 9 -100 10 -46 1 -89 6 -96 11 -7 5 -14 5 -18 -2z"/>
<path d="M4363 5981 c-14 -22 -8 -31 23 -31 13 0 26 -4 29 -10 3 -5 23 -10 43
-10 28 0 33 -3 24 -12 -7 -7 -12 -27 -12 -45 0 -32 -1 -33 -39 -33 -22 0 -43
-4 -46 -10 -3 -5 -26 -10 -51 -10 -31 0 -44 -4 -44 -14 0 -23 73 -45 85 -25 4
5 42 9 86 9 64 0 79 3 79 15 0 8 -4 15 -9 15 -17 0 -20 44 -4 77 8 19 14 35
12 37 -42 31 -73 46 -97 46 -17 0 -34 5 -37 10 -10 16 -29 12 -42 -9z"/>
<path d="M4796 5943 c-3 -3 -6 -18 -6 -33 0 -32 -17 -50 -47 -50 -23 0 -32 23
-13 35 6 3 10 15 10 26 0 17 -7 19 -75 19 -60 0 -75 -3 -75 -15 0 -8 6 -15 13
-15 22 0 67 -24 67 -36 0 -6 -9 -19 -20 -29 -11 -10 -20 -23 -20 -29 0 -6 -9
-22 -20 -36 -11 -14 -20 -31 -20 -37 0 -22 38 -14 58 12 11 14 22 25 25 25 3
0 15 -16 27 -35 12 -19 28 -35 36 -35 24 0 28 29 8 53 -25 29 -47 68 -41 73 2
3 10 -2 17 -11 7 -8 21 -15 31 -15 15 0 19 -7 19 -33 0 -33 30 -74 43 -60 4 3
7 55 7 114 0 99 -6 129 -24 112z"/>
<path d="M4430 5685 c0 -8 6 -15 13 -15 7 0 25 -6 40 -12 21 -10 27 -20 27
-45 0 -18 -4 -33 -10 -33 -5 0 -10 -16 -10 -36 0 -31 3 -35 22 -32 14 2 24 11
26 23 2 11 6 27 9 35 8 20 10 29 11 64 2 28 3 28 20 13 10 -10 28 -17 40 -17
11 0 24 -4 27 -10 3 -5 24 -10 46 -10 40 0 51 -14 27 -38 -10 -10 -10 -17 0
-32 7 -12 8 -20 2 -20 -13 0 -13 -37 0 -45 17 -11 40 15 40 44 0 15 5 32 11
38 5 5 9 30 7 54 l-3 44 -60 3 c-32 2 -64 7 -70 12 -6 5 -39 9 -74 9 -35 0
-68 4 -74 10 -17 17 -67 14 -67 -4z"/>
<path d="M4267 5674 c-12 -13 4 -24 34 -24 27 0 28 -1 17 -22 -7 -12 -20 -30
-29 -41 -15 -16 -15 -22 -2 -48 12 -23 21 -29 48 -29 21 0 35 6 39 16 9 22 -1
34 -30 34 -35 0 -29 21 16 52 24 17 40 36 40 48 0 18 -7 20 -63 20 -35 0 -67
-3 -70 -6z"/>
<path d="M9454 5668 c-11 -18 -6 -270 6 -282 5 -5 10 -34 10 -62 0 -29 5 -56
10 -59 6 -4 10 -73 10 -176 0 -144 2 -169 15 -169 10 0 15 10 15 28 0 15 5 33
11 39 10 10 8 119 -6 244 l-7 56 34 7 c39 8 47 8 111 0 51 -6 128 19 110 37
-5 5 -67 10 -138 11 l-130 3 -3 168 c-2 157 -4 167 -22 167 -10 0 -22 -5 -26
-12z"/>
<path d="M9850 5631 c0 -16 -4 -33 -10 -36 -5 -3 -10 -34 -10 -69 0 -69 5 -78
73 -115 48 -27 88 -27 105 -1 9 16 23 20 62 20 44 0 70 9 133 47 4 3 3 10 -2
17 -15 18 -131 -4 -131 -25 0 -5 -11 -9 -24 -9 -14 0 -28 -4 -31 -10 -3 -5
-26 -10 -49 -10 -47 0 -49 2 -68 85 -9 39 -10 70 -5 110 1 14 -5 21 -20 23
-20 3 -23 -1 -23 -27z"/>
<path d="M5895 5602 c-16 -2 -34 -8 -39 -13 -6 -5 -18 -9 -28 -9 -9 0 -33 -9
-53 -20 -20 -11 -42 -20 -50 -20 -9 0 -23 -4 -33 -9 -9 -5 -39 -19 -67 -31
-27 -12 -58 -26 -67 -31 -10 -5 -25 -9 -34 -9 -23 0 -11 -24 13 -28 11 -2 37
6 57 17 20 12 45 21 55 21 10 0 21 3 25 7 9 9 77 33 96 33 8 0 26 9 40 20 14
11 37 20 52 20 15 0 30 5 33 10 3 6 17 10 30 10 13 0 26 4 30 9 8 14 -26 27
-60 23z"/>
<path d="M6015 5542 c-16 -2 -34 -8 -39 -13 -6 -5 -22 -9 -37 -9 -15 0 -31 -4
-34 -10 -3 -5 -17 -10 -30 -10 -14 0 -40 -9 -58 -19 -19 -11 -44 -21 -56 -23
-12 -1 -22 -7 -22 -13 0 -14 40 -19 65 -7 63 29 77 32 95 20 15 -9 24 -7 46
10 15 12 35 22 44 22 21 1 65 34 60 46 -2 5 -17 8 -34 6z"/>
<path d="M5415 5430 c-3 -5 -15 -10 -26 -10 -10 0 -27 -4 -37 -9 -9 -5 -28
-13 -42 -18 -14 -6 -45 -20 -68 -32 -24 -11 -57 -21 -72 -21 -16 0 -32 -4 -35
-10 -3 -5 -17 -10 -30 -10 -30 0 -39 -14 -21 -29 16 -13 73 -7 116 11 14 6 34
14 45 18 43 16 72 28 113 49 24 11 50 21 58 21 8 0 22 4 32 9 9 5 25 12 35 15
10 3 15 10 12 16 -8 13 -72 13 -80 0z"/>
<path d="M5620 5431 c-46 -26 -145 -71 -157 -71 -7 0 -21 -4 -31 -9 -9 -5 -28
-13 -42 -19 -14 -5 -63 -28 -110 -51 -47 -23 -95 -41 -107 -41 -16 0 -23 -6
-23 -20 0 -13 -7 -20 -19 -20 -28 0 -52 -11 -45 -21 3 -5 31 -9 63 -9 32 0 61
-3 64 -7 4 -3 23 -8 43 -10 21 -2 45 -8 55 -13 10 -6 26 -10 36 -10 10 0 25
-4 32 -9 12 -8 6 -19 -31 -58 -25 -27 -50 -59 -56 -70 -7 -12 -45 -37 -85 -57
-90 -45 -141 -86 -163 -132 -17 -35 -17 -35 12 -65 20 -21 36 -29 52 -26 23 4
31 -19 13 -38 -9 -10 -16 -71 -27 -247 -4 -68 -9 -90 -25 -104 -10 -9 -19 -22
-20 -28 0 -6 -32 -37 -70 -69 -38 -32 -69 -63 -69 -69 0 -5 -18 -30 -40 -55
-21 -25 -45 -58 -52 -74 -7 -16 -16 -29 -20 -29 -5 0 -8 -11 -8 -25 0 -14 4
-25 8 -25 5 0 57 49 117 109 60 61 117 112 127 114 19 5 24 32 8 42 -18 11 31
82 68 96 21 8 22 13 22 132 0 68 4 127 9 132 6 6 11 34 13 64 3 62 24 85 58
63 12 -7 55 -12 110 -12 50 0 98 -4 108 -9 53 -28 88 -39 96 -31 18 18 -24 50
-66 50 -21 0 -38 5 -38 10 0 6 -26 10 -59 10 -33 0 -63 5 -66 10 -3 6 -27 10
-51 10 -49 0 -59 22 -13 28 13 2 33 12 44 22 11 10 38 24 60 31 22 7 44 17 50
21 5 4 19 8 31 8 13 0 26 5 29 10 3 6 15 10 26 10 10 0 28 5 39 12 26 17 40 0
15 -18 -11 -8 -55 -32 -97 -52 -79 -38 -90 -48 -62 -59 15 -6 41 6 129 57 99
58 149 78 168 68 24 -12 17 -32 -14 -36 -13 -2 -28 -8 -33 -13 -6 -5 -17 -9
-25 -9 -19 -1 -101 -73 -101 -89 0 -13 32 -2 43 15 10 16 65 44 88 44 10 0 21
5 24 10 3 6 16 10 29 10 12 0 27 5 33 11 8 8 19 8 42 -2 35 -16 39 -27 14 -35
-10 -3 -26 -10 -35 -15 -10 -5 -24 -9 -33 -9 -20 0 -100 -46 -98 -57 4 -17 37
-14 82 7 74 36 84 39 126 42 37 3 40 5 38 31 -1 23 2 27 23 27 17 0 42 17 74
50 53 52 60 67 35 76 -18 7 -44 -12 -55 -42 -11 -28 -64 -54 -104 -53 -27 2
-28 2 -6 6 29 6 62 32 54 44 -8 13 -71 11 -93 -3 -26 -16 -45 -5 -85 49 l-36
48 3 105 2 105 49 24 c45 22 48 25 31 38 -18 12 -18 13 2 13 11 0 28 9 38 20
20 22 45 26 63 8 8 -8 15 -8 27 2 13 11 15 9 15 -10 0 -24 27 -68 74 -117 34
-37 56 -42 56 -14 0 11 5 23 10 26 13 8 13 92 0 100 -6 3 -13 -2 -16 -12 -3
-10 -12 -31 -19 -46 l-12 -29 -22 30 c-11 17 -21 37 -21 45 0 8 -7 21 -16 28
-9 7 -20 24 -25 37 -5 12 -15 22 -21 21 -40 -5 -56 24 -18 34 11 3 20 13 20
22 0 14 -6 16 -27 10 -16 -3 -37 -14 -48 -23 -33 -28 -63 -42 -89 -42 -23 0
-58 -15 -168 -72 -13 -6 -31 -15 -40 -20 -10 -4 -38 -8 -62 -8 -25 0 -48 -4
-51 -10 -3 -5 -17 -10 -31 -10 -28 0 -32 -18 -6 -26 9 -3 25 -10 34 -15 11 -5
19 -5 23 1 3 6 19 10 35 10 16 0 32 5 35 10 3 6 19 10 34 10 15 0 36 9 46 20
10 11 24 20 31 20 7 0 34 12 60 26 25 14 48 23 52 20 10 -11 -52 -67 -96 -87
-40 -19 -49 -39 -16 -39 25 0 13 -44 -12 -48 -12 -2 -30 -12 -40 -23 -9 -10
-22 -19 -29 -19 -6 0 -24 -13 -40 -30 -25 -26 -26 -30 -11 -36 11 -4 26 1 40
15 12 11 27 21 33 21 5 0 18 9 28 20 32 35 45 25 45 -35 0 -48 -2 -55 -20 -55
-11 0 -28 -4 -38 -9 -21 -11 -61 -27 -85 -35 -29 -9 -9 -26 31 -26 l37 0 -29
-15 c-15 -8 -39 -15 -52 -15 -13 0 -39 -9 -59 -20 -20 -11 -44 -20 -54 -20
-10 0 -26 -9 -36 -20 -10 -11 -28 -20 -41 -20 -13 0 -26 -4 -29 -10 -3 -5 -15
-10 -26 -10 -11 0 -31 -7 -44 -16 -28 -18 -85 -11 -85 12 0 8 6 14 13 14 8 0
22 9 32 20 14 16 31 20 76 20 40 0 70 6 94 20 20 11 44 20 53 20 10 0 22 4 28
9 5 5 20 11 34 13 14 1 25 8 25 13 0 14 -54 19 -79 7 -37 -18 -136 -42 -136
-33 0 15 25 31 47 31 15 0 27 8 32 23 5 12 43 50 85 85 47 39 76 70 76 82 0
18 27 35 83 54 10 3 15 10 12 16 -10 16 -52 11 -92 -11 -26 -15 -46 -19 -67
-14 -17 3 -46 8 -64 12 -18 3 -35 9 -38 14 -3 5 -29 10 -57 10 -50 1 -50 2
-15 8 20 4 49 16 64 27 40 29 49 33 127 63 55 21 75 30 115 50 24 11 51 21 59
21 8 0 27 8 41 19 15 10 35 20 45 22 10 2 19 9 20 14 3 13 -53 17 -73 6z m10
-476 c0 -11 -11 -15 -42 -14 -24 1 -34 3 -23 6 11 3 24 9 30 14 14 14 35 11
35 -6z m-37 -52 c-7 -2 -19 -2 -25 0 -7 3 -2 5 12 5 14 0 19 -2 13 -5z m-582
-714 c-13 -11 -26 -17 -29 -14 -8 8 20 35 37 35 12 -1 11 -5 -8 -21z"/>
<path d="M7105 5351 c-6 -5 -23 -11 -40 -13 -26 -3 -30 -7 -30 -33 0 -23 5
-31 23 -33 17 -3 22 2 22 17 0 18 6 21 44 21 25 0 47 4 51 9 8 13 85 11 107
-3 21 -13 53 2 53 25 0 11 -24 15 -110 17 -61 1 -115 -2 -120 -7z"/>
<path d="M9946 5328 c-9 -17 -16 -39 -16 -49 0 -10 -4 -21 -10 -24 -5 -3 -10
-35 -10 -70 0 -35 5 -67 10 -70 6 -3 10 -18 10 -33 0 -15 9 -38 20 -52 29 -37
25 -50 -13 -50 -21 0 -41 8 -52 20 -22 24 -48 26 -65 5 -17 -21 10 -51 59 -66
48 -14 356 -7 395 9 27 12 28 13 12 31 -14 16 -23 18 -49 10 -18 -5 -48 -9
-68 -9 -33 0 -36 2 -31 25 2 14 8 28 13 31 14 8 11 208 -3 222 -9 9 -9 12 0
12 14 0 17 46 3 54 -4 3 -16 0 -25 -7 -15 -11 -17 -31 -17 -144 1 -79 -3 -134
-9 -138 -5 -3 -10 -17 -10 -31 0 -21 -5 -24 -35 -24 -28 0 -35 4 -35 19 0 11
6 22 13 25 6 3 2 3 -9 1 -23 -6 -31 7 -45 80 -18 95 -21 133 -10 139 6 4 11
20 11 36 0 16 5 32 10 35 6 3 10 15 10 26 0 31 -36 23 -54 -13z"/>
<path d="M6500 5342 c-54 -3 -110 -27 -110 -47 0 -20 20 -29 33 -16 6 6 21 11
33 11 13 0 26 5 29 10 8 13 98 13 112 -1 8 -8 13 -8 17 0 9 14 96 15 96 1 0
-15 26 -12 40 5 8 10 9 19 4 25 -9 9 -177 17 -254 12z"/>
<path d="M9110 5330 c0 -5 -6 -10 -13 -10 -7 0 -34 -22 -60 -48 -37 -38 -47
-55 -47 -81 0 -35 21 -60 51 -61 20 0 69 -23 69 -32 0 -5 15 -8 34 -8 25 0 45
10 76 38 l43 38 -13 52 c-18 68 -66 122 -109 122 -17 0 -31 -4 -31 -10z m68
-52 c7 -7 12 -20 12 -30 0 -10 7 -29 15 -41 13 -20 13 -26 -1 -46 -13 -18 -24
-21 -57 -19 -35 2 -43 7 -45 26 -2 12 1 22 7 22 6 0 11 7 11 15 0 17 -35 21
-45 5 -9 -15 -25 -12 -25 4 0 17 77 75 101 76 8 0 20 -5 27 -12z"/>
<path d="M9136 5231 c-4 -5 -2 -12 3 -15 5 -4 12 -2 15 3 4 5 2 12 -3 15 -5 4
-12 2 -15 -3z"/>
<path d="M6653 5163 c-3 -10 -15 -28 -27 -41 -26 -30 -11 -58 29 -55 29 2 85
48 85 68 0 37 -75 60 -87 28z"/>
<path d="M7126 5161 c-22 -24 -18 -90 7 -105 23 -15 47 1 71 47 19 36 19 37 1
57 -23 25 -57 26 -79 1z"/>
<path d="M4977 4973 c-9 -8 22 -43 38 -43 7 0 20 -9 30 -20 22 -24 35 -26 35
-3 0 40 -79 91 -103 66z"/>
<path d="M5994 4793 c-11 -34 -21 -48 -40 -51 -10 -2 -28 -7 -39 -12 -11 -5
-29 -10 -39 -12 -11 -2 -20 -7 -20 -13 -1 -14 84 -19 97 -6 15 15 50 14 65 -1
7 -7 12 -24 12 -38 0 -46 26 -82 145 -200 63 -63 115 -121 115 -128 0 -7 8
-16 18 -19 9 -4 19 -9 22 -13 13 -17 101 -70 115 -70 36 0 8 41 -60 87 -38 26
-74 58 -81 70 -16 34 -46 64 -72 74 -12 5 -26 19 -31 31 -5 13 -34 48 -65 78
-31 30 -56 61 -56 70 0 8 -9 26 -20 40 -12 16 -20 41 -20 67 0 32 -5 45 -20
53 -17 9 -21 8 -26 -7z"/>
<path d="M7025 4740 c-11 -12 -31 -20 -51 -20 -18 0 -36 -4 -39 -10 -3 -5 -19
-10 -36 -10 -16 0 -29 -4 -29 -10 0 -5 -5 -10 -12 -10 -15 0 -68 -50 -68 -65
0 -6 18 -28 39 -49 37 -36 41 -38 87 -32 126 15 150 20 181 37 19 11 45 19 58
19 14 0 25 4 25 9 0 5 9 11 20 14 13 3 20 14 20 30 0 14 6 28 13 30 20 9 -41
57 -71 57 -37 -1 -95 11 -108 21 -7 6 -18 1 -29 -11z m160 -60 c9 -15 -14 -40
-36 -40 -10 0 -34 -9 -54 -20 -20 -11 -53 -20 -75 -20 -21 0 -42 -4 -45 -10
-16 -26 -118 0 -113 28 2 9 19 24 38 35 19 10 39 23 45 28 13 13 232 12 240
-1z"/>
<path d="M5742 4686 c-27 -13 -24 -30 7 -34 28 -4 94 26 86 39 -8 12 -64 9
-93 -5z"/>
<path d="M5557 4653 c-32 -32 33 -63 133 -63 83 0 100 -9 100 -49 0 -29 34
-91 50 -91 5 0 10 -6 10 -12 1 -14 26 -44 81 -96 l35 -32 54 52 c53 51 53 52
38 79 -15 25 -15 28 0 34 11 4 13 8 4 17 -9 9 -17 9 -34 0 -13 -6 -38 -13 -57
-14 -55 -5 -50 -26 7 -30 l50 -3 -29 -35 c-29 -34 -30 -34 -57 -18 -15 9 -32
26 -39 39 -6 12 -19 26 -27 31 -9 5 -16 18 -16 28 0 10 -4 22 -10 25 -15 9
-12 55 3 55 8 0 22 9 32 20 11 12 31 20 50 20 31 0 72 30 58 43 -9 10 -50 9
-71 -2 -9 -5 -34 -17 -54 -26 -22 -9 -38 -23 -38 -32 0 -14 -4 -13 -23 5 -17
16 -40 23 -87 27 -83 6 -129 15 -136 26 -6 11 -18 12 -27 2z"/>
<path d="M7496 4382 c-11 -18 24 -68 109 -152 47 -46 85 -90 85 -96 0 -7 14
-26 30 -44 17 -18 30 -40 31 -49 1 -24 32 -73 54 -85 28 -16 45 -33 45 -45 0
-6 5 -20 12 -30 9 -15 9 -31 0 -71 -15 -64 -16 -406 -2 -415 6 -3 10 -21 10
-40 0 -19 5 -37 10 -40 6 -3 10 -28 10 -56 0 -46 1 -49 26 -49 24 0 26 2 20
33 -4 17 -9 59 -12 92 -4 33 -10 64 -15 70 -5 5 -9 98 -9 207 0 169 2 198 15
198 10 0 15 -10 15 -27 0 -16 9 -39 20 -53 11 -14 20 -35 20 -47 0 -12 5 -25
10 -28 6 -3 10 -15 10 -26 0 -10 5 -19 10 -19 6 0 10 -23 10 -51 0 -40 6 -60
30 -94 17 -24 30 -53 30 -64 0 -11 5 -23 10 -26 6 -3 10 -15 10 -26 0 -10 5
-19 10 -19 6 0 10 -11 10 -24 0 -14 5 -28 10 -31 6 -3 10 -15 10 -25 0 -11 9
-35 20 -55 11 -20 20 -42 20 -50 0 -8 5 -15 10 -15 6 0 10 -9 10 -20 0 -11 4
-28 9 -38 5 -9 14 -30 21 -47 7 -16 16 -38 21 -47 5 -10 9 -40 9 -67 0 -28 5
-53 10 -56 6 -3 10 -17 10 -30 0 -13 5 -27 10 -30 6 -3 10 -17 10 -30 0 -13 5
-27 10 -30 6 -3 10 -19 10 -35 0 -16 5 -32 10 -35 6 -3 10 -24 10 -45 0 -21 5
-42 10 -45 6 -3 10 -17 10 -30 0 -13 5 -27 10 -30 6 -3 10 -17 10 -30 0 -13 5
-27 10 -30 6 -3 10 -19 10 -35 0 -16 5 -32 10 -35 6 -3 10 -26 10 -50 0 -24 5
-47 10 -50 6 -3 10 -17 10 -31 0 -13 5 -24 10 -24 6 0 10 -9 10 -20 0 -11 5
-20 10 -20 6 0 10 -17 10 -38 0 -39 14 -62 37 -62 9 0 13 18 13 65 0 36 -3 65
-7 65 -11 0 -33 50 -33 71 0 10 -4 21 -10 24 -5 3 -10 26 -10 50 0 24 -4 47
-10 50 -5 3 -10 19 -10 36 0 16 -4 29 -10 29 -5 0 -10 11 -10 24 0 14 -4 28
-10 31 -5 3 -10 21 -10 40 0 19 -4 37 -10 40 -5 3 -10 19 -10 35 0 16 -4 32
-10 35 -5 3 -10 17 -10 31 0 13 -4 33 -10 44 -5 11 -14 29 -20 40 -5 11 -10
33 -10 49 0 17 -4 33 -10 36 -5 3 -10 15 -10 26 0 10 -5 29 -12 42 -6 12 -15
30 -20 39 -4 10 -8 38 -8 62 0 24 -8 61 -19 83 -10 21 -29 61 -41 88 -12 28
-26 58 -31 67 -5 10 -9 27 -9 37 0 11 -4 23 -10 26 -5 3 -10 15 -10 26 0 10
-4 19 -10 19 -5 0 -10 7 -10 16 0 9 -8 28 -18 42 -10 15 -24 41 -31 57 -7 17
-17 38 -22 47 -5 10 -9 27 -9 38 0 11 -4 20 -10 20 -5 0 -10 20 -10 44 0 25
-4 48 -10 51 -5 3 -10 17 -10 30 0 13 -4 27 -10 30 -5 3 -10 16 -10 27 0 12
-7 30 -16 40 -9 9 -26 37 -38 60 -11 23 -32 48 -44 54 -36 18 -102 86 -102
104 0 22 -26 75 -45 90 -8 7 -15 17 -15 22 0 8 -153 166 -197 202 -12 9 -24
13 -27 8z"/>
<path d="M7397 4333 c-11 -10 -8 -51 3 -58 6 -3 10 -16 10 -28 0 -12 9 -33 20
-47 16 -20 20 -41 20 -110 1 -84 12 -120 39 -120 14 0 16 192 2 218 -5 9 -21
42 -35 73 -27 59 -48 84 -59 72z"/>
<path d="M5077 4234 c-4 -4 -7 -31 -7 -60 0 -29 -4 -56 -10 -59 -5 -3 -10 -39
-10 -79 0 -39 -5 -77 -11 -83 -13 -13 -8 -78 6 -78 6 0 11 12 13 26 2 15 16
39 33 55 16 15 29 32 29 37 0 4 7 15 15 23 8 9 15 11 15 5 0 -5 -4 -13 -10
-16 -5 -3 -10 -17 -10 -31 0 -19 5 -24 25 -24 21 0 25 5 25 29 0 17 5 33 10
36 6 3 10 17 10 31 0 13 4 32 9 42 37 72 52 112 47 121 -11 17 -36 13 -43 -6
-4 -10 -19 -34 -34 -53 -15 -19 -36 -50 -46 -69 -29 -53 -42 -50 -30 6 16 81
14 147 -3 151 -9 1 -19 0 -23 -4z"/>
<path d="M4028 3966 c-14 -10 -18 -28 -18 -84 0 -39 -4 -74 -10 -77 -5 -3 -10
-44 -10 -90 0 -46 5 -87 10 -90 6 -3 10 -22 10 -41 0 -19 5 -34 10 -34 6 0 10
-7 10 -16 0 -18 23 -44 39 -44 7 0 11 21 11 51 0 40 -5 55 -21 68 -19 16 -21
26 -20 136 0 65 5 123 11 129 12 12 14 106 3 106 -5 0 -16 -7 -25 -14z"/>
<path d="M3876 3853 c7 -41 8 -98 5 -180 -2 -38 11 -119 21 -140 15 -30 51
-30 67 1 16 30 6 53 -15 35 -11 -9 -14 -7 -14 14 0 14 -4 29 -10 32 -6 4 -10
56 -10 125 0 85 -3 120 -12 123 -10 4 -10 6 0 6 25 2 12 31 -14 31 -26 0 -27
-1 -18 -47z"/>
<path d="M7717 3583 c-16 -16 10 -92 44 -127 5 -6 9 -31 9 -56 0 -25 4 -50 9
-55 5 -6 11 -30 14 -55 3 -25 11 -65 17 -90 7 -25 15 -81 17 -125 2 -44 9 -84
14 -89 5 -6 9 -36 9 -67 0 -32 5 -61 10 -64 6 -3 10 -17 10 -30 0 -13 5 -27
10 -30 6 -3 10 -28 10 -54 0 -26 4 -51 9 -56 6 -6 11 -40 13 -77 2 -37 7 -70
11 -74 4 -4 7 -27 7 -50 0 -24 5 -46 10 -49 6 -3 10 -28 10 -56 0 -27 5 -49
10 -49 6 0 10 -20 10 -44 0 -25 5 -48 10 -51 6 -3 10 -31 10 -61 0 -40 4 -55
13 -52 16 6 23 216 7 232 -5 5 -10 27 -10 47 0 21 -4 40 -9 43 -9 6 -19 73
-27 176 -3 36 -9 69 -15 75 -5 5 -9 33 -9 61 0 29 -4 55 -9 58 -8 6 -14 32
-27 129 -3 23 -9 51 -14 62 -5 11 -11 54 -14 95 -6 99 -16 159 -27 166 -5 3
-9 21 -9 40 0 19 -4 34 -10 34 -5 0 -10 13 -10 29 0 17 -4 33 -10 36 -5 3 -10
17 -10 31 0 13 -4 24 -10 24 -5 0 -10 18 -10 40 0 22 -4 40 -10 40 -5 0 -10
11 -10 25 0 18 -5 25 -18 25 -10 0 -22 -3 -25 -7z"/>
<path d="M8055 2530 c-3 -6 1 -17 10 -26 19 -20 41 -5 32 20 -7 18 -33 21 -42
6z"/>
<path d="M8490 1971 c0 -28 5 -53 10 -56 6 -3 10 -33 10 -66 0 -32 3 -59 8
-59 4 0 12 -12 19 -25 10 -22 9 -27 -8 -38 -11 -7 -19 -23 -19 -38 0 -14 -9
-34 -20 -44 -11 -10 -20 -25 -20 -33 0 -7 -8 -26 -17 -40 -10 -15 -23 -36 -29
-47 -6 -11 -20 -22 -30 -23 -30 -6 -144 -128 -144 -155 0 -42 13 -38 69 20 65
67 151 143 163 143 4 0 8 -15 8 -34 0 -19 5 -38 10 -41 6 -3 10 -46 10 -96 0
-53 4 -89 10 -89 6 0 10 -22 10 -50 0 -27 -4 -50 -10 -50 -6 0 -10 -30 -10
-70 0 -40 -4 -70 -10 -70 -5 0 -10 -11 -10 -24 0 -14 -4 -28 -10 -31 -5 -3
-10 -17 -10 -30 0 -12 -6 -25 -14 -28 -23 -9 -5 -61 22 -65 16 -3 22 2 22 17
0 11 5 23 10 26 6 3 10 33 10 65 0 32 5 62 10 65 6 3 10 19 10 35 0 16 5 32
10 35 6 3 10 17 10 31 0 13 5 24 10 24 6 0 10 26 10 59 0 33 -4 63 -10 66 -5
3 -10 19 -10 35 0 16 -4 32 -10 35 -5 3 -10 28 -10 55 0 27 -4 52 -10 55 -5 3
-10 24 -10 46 0 21 -4 39 -10 39 -5 0 -10 11 -10 25 0 14 5 25 10 25 6 0 10
11 10 25 0 31 16 61 53 98 32 32 34 54 7 102 -11 20 -20 44 -20 55 0 10 -4 22
-10 25 -5 3 -10 15 -10 26 0 10 -4 19 -10 19 -5 0 -10 23 -10 50 0 38 -4 50
-15 50 -11 0 -15 -12 -15 -49z"/>
<path d="M8330 1266 c0 -19 27 -39 40 -31 8 5 6 13 -6 26 -20 22 -34 25 -34 5z"/>
<path d="M8421 787 c-6 -8 -10 -23 -10 -33 4 -38 -1 -52 -22 -57 -29 -8 -21
-41 12 -45 41 -5 61 26 57 89 -3 54 -16 70 -37 46z"/>
<path d="M2334 7086 c-4 -10 -2 -22 4 -28 8 -8 13 -7 18 6 4 10 2 22 -4 28 -8
8 -13 7 -18 -6z"/>
<path d="M2296 7031 c-4 -5 -2 -12 3 -15 5 -4 12 -2 15 3 4 5 2 12 -3 15 -5 4
-12 2 -15 -3z"/>
</g>
</svg>
