<?xml version="1.0" standalone="no"?>
<!DOCTYPE svg PUBLIC "-//W3C//DTD SVG 20010904//EN"
 "http://www.w3.org/TR/2001/REC-SVG-20010904/DTD/svg10.dtd">
<svg version="1.0" xmlns="http://www.w3.org/2000/svg"
 width="1220.000000pt" height="866.000000pt" viewBox="0 0 1220.000000 866.000000"
 preserveAspectRatio="xMidYMid meet">
<metadata>
Created by potrace 1.13, written by Peter Selinger 2001-2015
</metadata>
<g transform="translate(0.000000,866.000000) scale(0.100000,-0.100000)"
 stroke="none">
<path d="M0 8651 c0 -11 3063 -13 3092 -1 14 5 -582 9 -1534 9 -866 1 -1558
-3 -1558 -8z"/>
<path d="M7458 8653 c7 -3 16 -2 19 1 4 3 -2 6 -13 5 -11 0 -14 -3 -6 -6z"/>
<path d="M7515 8649 c7 -10 152 -6 163 5 3 4 -34 6 -82 6 -59 0 -85 -3 -81
-11z"/>
<path d="M8015 8650 c4 -6 11 -8 16 -5 14 9 11 15 -7 15 -8 0 -12 -5 -9 -10z"/>
<path d="M8054 8651 c7 -11 292 -12 355 -1 30 5 -24 8 -157 9 -114 0 -201 -3
-198 -8z"/>
<path d="M4895 8310 c-39 -10 -95 -39 -95 -49 0 -4 -14 -23 -31 -42 -37 -41
-219 -313 -219 -326 0 -6 -11 -22 -25 -37 l-24 -26 -138 6 c-118 5 -141 4
-158 -10 -20 -16 -19 -17 18 -47 58 -48 52 -59 -43 -73 -165 -24 -189 -32
-190 -64 0 -10 146 -160 205 -210 8 -7 15 -24 15 -37 0 -25 -4 -27 -80 -39
-43 -7 -83 -33 -74 -48 4 -6 25 -19 48 -30 22 -10 59 -30 81 -43 22 -13 51
-29 65 -34 72 -31 74 -47 14 -107 -37 -38 -45 -51 -37 -63 6 -9 19 -15 29 -14
52 6 203 5 213 -1 6 -4 11 -28 11 -52 0 -25 3 -44 8 -42 4 2 24 12 45 23 45
23 70 13 75 -29 7 -56 -53 -85 -98 -48 -19 16 -32 17 -89 10 -182 -22 -247
-31 -266 -38 -11 -4 -47 -16 -80 -25 -33 -10 -83 -28 -110 -41 -28 -13 -55
-24 -60 -24 -6 0 -23 -12 -39 -26 -24 -21 -27 -30 -21 -57 8 -37 7 -60 -1
-140 -4 -44 -2 -63 10 -82 9 -13 16 -33 16 -44 0 -18 -93 -121 -110 -121 -15
0 -240 -228 -250 -254 -5 -14 -7 -32 -4 -40 7 -19 -41 -89 -106 -156 -28 -28
-50 -56 -50 -62 0 -5 -11 -18 -24 -29 -53 -42 -96 -171 -142 -424 -9 -49 -22
-124 -30 -165 -7 -41 -27 -149 -43 -240 -25 -139 -33 -167 -52 -180 -63 -44
-65 -49 -72 -165 -5 -106 -48 -301 -91 -424 -25 -69 -20 -106 35 -248 49 -124
54 -133 85 -143 20 -7 66 -9 113 -6 62 4 80 2 84 -8 7 -18 59 -29 98 -21 21 5
29 11 25 22 -3 8 -3 33 0 55 l7 40 47 -6 c58 -8 60 -5 61 107 0 45 4 107 9
137 24 148 25 142 -9 195 -17 27 -31 54 -31 61 0 6 -7 17 -16 25 -18 15 -12
68 13 106 20 31 24 129 7 171 -15 37 -9 80 25 174 11 29 23 70 27 91 3 20 10
39 14 42 5 3 16 31 25 63 10 31 26 82 37 112 11 30 26 84 35 120 8 36 19 74
23 85 5 11 16 63 25 115 24 134 43 187 79 221 42 40 91 54 142 40 75 -20 77
-23 75 -157 -2 -115 -14 -199 -32 -218 -5 -6 -9 -22 -9 -37 0 -23 -11 -57 -39
-124 -5 -11 -23 -65 -40 -120 -18 -55 -36 -109 -41 -120 -5 -11 -16 -47 -25
-80 -22 -82 -35 -116 -57 -144 -10 -13 -18 -36 -18 -52 0 -16 -7 -46 -15 -66
-23 -60 -42 -180 -43 -273 -1 -47 -6 -94 -11 -105 -10 -19 -63 -274 -81 -385
-17 -113 -41 -236 -50 -265 -5 -16 -11 -52 -14 -80 -5 -50 -39 -192 -55 -230
-5 -11 -19 -65 -31 -120 -13 -55 -30 -125 -37 -155 -8 -30 -17 -68 -19 -85 -3
-16 -14 -59 -24 -95 -11 -36 -26 -92 -34 -125 -35 -145 -54 -203 -78 -240 -42
-68 -88 -156 -88 -169 0 -7 -11 -35 -25 -62 -14 -27 -35 -100 -47 -163 -13
-70 -30 -125 -43 -145 -29 -42 -55 -96 -55 -113 0 -27 -92 -291 -135 -388 -29
-67 -34 -82 -40 -134 -7 -64 -18 -87 -43 -96 -40 -12 -47 -67 -52 -377 0 -9
-8 -19 -17 -22 -10 -3 -36 -22 -57 -41 -22 -19 -46 -35 -53 -35 -7 0 -13 -4
-13 -10 0 -5 -25 -24 -56 -41 -31 -18 -58 -38 -61 -45 -3 -8 -9 -14 -15 -14
-17 0 -79 -55 -95 -84 -8 -16 -17 -68 -20 -121 -5 -83 -4 -96 15 -122 13 -18
38 -35 64 -43 24 -7 48 -17 53 -21 20 -15 261 -16 405 -3 194 18 240 28 320
66 62 30 69 36 75 68 4 19 10 44 15 55 5 11 14 49 20 85 7 36 15 70 20 75 4 6
10 23 14 39 4 16 16 41 27 54 10 14 19 31 19 38 0 8 9 19 20 26 11 7 20 17 20
22 0 6 18 36 40 67 33 47 40 66 40 104 0 45 40 135 60 135 5 0 12 9 15 21 4
11 20 35 35 53 48 54 73 150 100 381 22 190 82 443 133 562 15 34 27 69 27 77
0 7 6 16 14 19 7 3 16 17 20 32 4 15 15 39 25 54 9 14 26 40 38 56 11 17 30
62 43 100 12 39 29 75 36 81 8 6 14 21 14 33 0 12 11 49 25 83 14 34 25 72 25
84 0 13 6 38 14 56 8 18 24 71 36 118 12 47 28 97 36 111 7 14 18 48 24 75 6
27 14 58 19 69 5 11 17 52 26 90 10 39 21 75 25 80 4 6 10 26 13 45 6 45 44
153 72 210 13 25 28 63 34 85 6 22 25 56 41 75 25 28 34 33 47 24 26 -16 49
-64 57 -116 4 -26 11 -50 17 -53 5 -4 9 -22 9 -41 0 -20 11 -69 25 -110 14
-41 25 -81 25 -89 0 -9 4 -23 10 -33 5 -9 16 -48 24 -87 27 -125 48 -209 62
-240 7 -17 18 -53 25 -80 6 -28 16 -59 20 -70 17 -40 42 -111 59 -175 10 -36
31 -105 46 -155 24 -79 28 -108 29 -235 2 -150 10 -226 26 -236 5 -3 9 -13 9
-22 0 -9 20 -57 44 -107 54 -112 65 -163 71 -334 8 -240 17 -345 30 -376 11
-26 37 -59 90 -116 8 -9 15 -20 15 -25 0 -6 9 -29 20 -52 11 -22 20 -50 20
-61 0 -11 4 -22 9 -25 12 -8 21 -110 25 -296 4 -169 13 -205 63 -251 41 -38
130 -45 661 -50 l233 -2 39 38 c21 21 41 48 44 61 4 13 11 24 16 24 21 0 -15
168 -44 200 -23 26 -115 90 -224 156 -35 21 -69 49 -77 64 -7 14 -17 75 -20
135 -4 61 -13 137 -21 169 -10 45 -10 63 -2 74 17 20 14 139 -4 160 -18 22
-65 180 -74 252 -4 30 -10 60 -14 65 -5 6 -11 33 -15 60 -11 84 -56 236 -92
311 -18 39 -33 79 -33 87 0 9 -4 19 -10 22 -5 3 -9 64 -9 143 0 194 -34 452
-79 587 -6 17 -22 71 -37 120 -32 108 -76 237 -98 286 -14 31 -14 39 -2 55 12
17 25 19 102 16 118 -3 129 6 149 125 9 48 19 97 24 108 30 71 17 122 -58 230
-80 115 -86 125 -121 179 -17 27 -31 60 -31 73 0 24 -36 103 -51 113 -8 5 -89
165 -89 175 0 3 -8 24 -19 48 -86 195 -146 391 -180 582 -5 28 -16 70 -25 95
-9 25 -16 57 -16 72 0 15 -4 30 -10 33 -5 3 -10 15 -10 25 0 11 -9 36 -19 57
-37 74 -35 93 20 163 55 72 60 102 34 200 -24 91 -41 302 -27 348 16 54 14
188 -3 237 -8 22 -15 49 -15 60 0 11 -7 29 -15 39 -27 36 -19 64 28 92 47 29
87 64 87 75 0 3 -18 26 -40 49 -22 24 -39 48 -37 54 2 6 19 14 38 17 33 6 71
21 134 56 17 9 53 27 80 41 28 14 69 38 93 54 24 15 50 28 58 28 23 0 54 38
54 65 0 14 -8 37 -17 51 -21 33 -20 117 2 151 21 31 37 25 48 -18 14 -53 24
-56 43 -10 16 40 19 42 46 37 26 -5 30 -2 40 24 11 34 41 40 67 15 39 -37 108
-88 142 -106 21 -10 40 -23 44 -29 8 -13 52 -13 60 0 9 14 -28 87 -65 129 -16
18 -30 40 -30 47 0 8 -4 14 -9 14 -5 0 -18 15 -30 33 -41 65 -46 71 -64 87
-29 24 -32 94 -7 175 85 284 92 322 67 400 -23 76 -87 152 -208 250 -24 19
-51 41 -59 47 -31 27 -160 93 -247 127 -140 55 -381 92 -458 71z"/>
<path d="M10275 8140 c-134 -29 -192 -45 -206 -57 -8 -7 -22 -13 -30 -14 -13
-1 -49 -22 -135 -80 -22 -15 -57 -45 -79 -68 -21 -23 -45 -41 -52 -41 -7 0
-13 -5 -13 -10 0 -6 -28 -43 -62 -83 -66 -76 -109 -133 -145 -195 -27 -44 -83
-162 -83 -172 0 -4 -6 -13 -14 -19 -8 -7 -18 -27 -21 -44 -4 -18 -13 -39 -20
-47 -7 -8 -21 -44 -31 -80 -9 -36 -20 -69 -24 -75 -6 -10 -35 -90 -58 -165 -6
-19 -29 -111 -51 -205 -61 -262 -74 -433 -46 -590 21 -120 25 -132 67 -235 22
-52 45 -110 52 -129 7 -18 17 -36 22 -40 5 -3 22 -33 37 -66 34 -70 214 -344
240 -363 9 -7 17 -20 17 -28 0 -8 7 -17 15 -20 8 -4 15 -10 15 -15 0 -13 47
-79 77 -107 44 -42 117 -105 153 -132 18 -14 40 -33 49 -42 9 -9 27 -22 41
-27 14 -6 39 -20 55 -31 17 -11 35 -21 40 -23 70 -25 127 -40 171 -44 81 -9
87 -20 63 -123 -11 -47 -33 -113 -49 -148 -67 -141 -24 -151 102 -23 48 49 88
92 88 95 0 3 20 34 45 69 25 34 49 73 52 87 11 44 53 89 94 100 21 6 45 17 53
25 8 8 20 15 27 15 27 0 229 147 278 202 14 17 34 37 44 46 10 10 39 46 64 81
26 36 55 73 65 83 10 10 18 23 18 29 0 6 11 25 23 42 41 56 112 214 124 277 2
14 8 34 13 45 4 11 13 47 20 80 7 33 16 71 20 85 19 56 32 333 28 555 -6 232
-29 436 -64 565 -53 191 -70 238 -131 360 -24 46 -43 89 -43 96 0 7 -6 14 -13
17 -7 3 -26 24 -42 48 -92 137 -328 387 -421 446 -10 7 -36 24 -57 38 -21 13
-50 28 -65 31 -15 4 -32 11 -39 16 -16 13 -228 19 -278 8z m-545 -1435 c8 -10
12 -42 11 -89 -2 -82 4 -92 59 -98 48 -4 44 -22 -5 -26 -22 -2 -43 -9 -47 -15
-4 -7 -8 -56 -8 -109 0 -98 0 -98 -25 -98 l-25 0 0 218 c0 120 3 222 7 225 10
11 19 8 33 -8z m460 5 c11 -7 14 -34 12 -142 -2 -81 -7 -135 -14 -139 -6 -4
-4 -10 7 -17 14 -7 17 -18 12 -51 -4 -30 -1 -44 8 -47 19 -8 -19 -44 -45 -44
-20 0 -24 14 -24 82 1 22 -37 31 -141 33 -99 3 -95 2 -95 20 0 13 20 15 121
15 116 0 120 1 115 20 -3 11 -9 29 -12 40 -5 18 -26 30 -23 13 1 -5 1 -19 0
-32 -1 -34 -12 -20 -13 18 -1 33 -15 42 -24 16 -4 -8 -12 -15 -20 -15 -8 0
-14 7 -14 15 0 23 -30 18 -52 -10 -41 -53 -143 -74 -143 -30 0 12 11 25 30 34
41 18 125 107 125 131 0 19 -5 20 -134 33 -11 1 -21 7 -23 13 -4 12 198 26
225 17 6 -3 12 -16 12 -28 0 -20 5 -23 28 -22 23 2 28 8 36 45 9 42 19 49 46
32z m418 -33 c2 -9 -8 -28 -22 -42 -33 -33 -35 -59 -3 -51 25 6 87 -26 87 -45
0 -11 -74 -8 -175 7 -23 3 -64 -1 -97 -10 -56 -14 -123 -12 -134 5 -8 14 76
51 102 45 13 -4 24 -2 24 3 0 4 12 11 28 15 15 3 43 19 62 35 l35 30 -112 -2
c-113 -2 -137 3 -114 26 8 8 51 12 136 12 68 0 127 4 131 8 10 10 48 -17 52
-36z m-675 26 c-7 -2 -19 -2 -25 0 -7 3 -2 5 12 5 14 0 19 -2 13 -5z m50 0
c-7 -2 -19 -2 -25 0 -7 3 -2 5 12 5 14 0 19 -2 13 -5z m1033 -20 c24 -16 35
-54 27 -96 -9 -42 -48 -57 -156 -59 -118 -2 -147 13 -147 76 0 82 47 110 170
100 47 -4 95 -13 106 -21z m-900 -19 c-5 -13 -10 -14 -18 -6 -6 6 -8 18 -4 28
5 13 10 14 18 6 6 -6 8 -18 4 -28z m-496 -35 c0 -16 -10 -50 -22 -76 l-22 -46
42 -39 c41 -38 48 -52 36 -81 -5 -13 -9 -13 -35 0 -16 8 -29 20 -29 26 0 7
-11 20 -24 29 -23 16 -24 16 -62 -18 -49 -46 -70 -57 -94 -49 -23 7 -27 35 -5
35 9 0 18 7 21 15 4 8 11 15 18 15 19 1 116 148 116 177 0 9 -19 13 -65 13
-50 0 -65 3 -65 15 0 11 19 15 88 17 48 2 90 2 95 0 4 -2 7 -16 7 -33z m1684
10 c39 -31 37 -93 -7 -151 -18 -24 -38 -55 -44 -70 -8 -18 -20 -28 -33 -28
-42 0 -34 37 24 113 50 65 32 130 -34 126 -47 -2 -60 1 -60 16 0 25 120 21
154 -6z m-884 7 c0 -11 -19 -15 -25 -6 -3 5 1 10 9 10 9 0 16 -2 16 -4z m-485
-96 c3 -5 1 -10 -4 -10 -6 0 -11 5 -11 10 0 6 2 10 4 10 3 0 8 -4 11 -10z
m558 -27 c-7 -2 -21 -2 -30 0 -10 3 -4 5 12 5 17 0 24 -2 18 -5z m-31 -21
c137 -1 236 -5 247 -12 12 -6 96 -10 205 -10 101 0 192 -3 201 -6 40 -16 -19
-24 -179 -24 l-169 0 19 -21 c13 -14 19 -36 19 -67 0 -45 1 -46 35 -54 19 -4
75 -7 123 -7 52 1 93 -3 99 -9 18 -18 -26 -23 -177 -20 l-140 3 1 65 c0 36 4
75 8 88 6 18 4 22 -13 22 -11 0 -23 -5 -26 -11 -5 -7 -14 -4 -27 8 -17 15 -44
18 -234 19 -119 1 -217 3 -218 5 -2 2 -7 15 -10 29 -4 14 -4 20 1 14 5 -8 82
-11 235 -12z m-395 -58 c-3 -3 -12 -4 -19 -1 -8 3 -5 6 6 6 11 1 17 -2 13 -5z
m506 -16 c14 -7 31 -23 36 -35 6 -13 17 -23 26 -23 8 0 15 -7 15 -15 0 -8 -6
-12 -14 -9 -8 3 -16 -4 -20 -20 -10 -40 -56 -56 -160 -55 -123 1 -150 16 -154
85 -3 48 -1 51 30 66 42 20 202 23 241 6z m-302 -51 c-13 -13 -26 -3 -16 12 3
6 11 8 17 5 6 -4 6 -10 -1 -17z m576 -29 c-3 -8 -6 -5 -6 6 -1 11 2 17 5 13 3
-3 4 -12 1 -19z m407 3 c11 -17 -6 -41 -29 -41 -27 0 -39 14 -31 35 6 16 51
20 60 6z m-1131 -8 c-7 -2 -21 -2 -30 0 -10 3 -4 5 12 5 17 0 24 -2 18 -5z
m151 -24 c-3 -5 -10 -7 -15 -3 -5 3 -7 10 -3 15 3 5 10 7 15 3 5 -3 7 -10 3
-15z m-159 -19 c3 -5 3 -15 -1 -21 -6 -11 -23 6 -24 24 0 10 18 9 25 -3z m149
-21 c-8 -14 -24 -10 -24 6 0 9 6 12 15 9 8 -4 12 -10 9 -15z"/>
<path d="M10056 6573 c-9 -22 13 -34 49 -27 58 12 55 44 -5 44 -26 0 -40 -5
-44 -17z"/>
<path d="M10861 6656 c-8 -9 -22 -16 -33 -16 -23 0 -22 -39 2 -50 8 -4 25 -12
36 -18 32 -16 108 8 112 36 6 39 -91 79 -117 48z"/>
<path d="M10455 6400 c-2 -4 -17 -10 -32 -13 -16 -3 -37 -12 -48 -20 -18 -14
-17 -16 28 -36 36 -17 56 -20 85 -14 20 4 42 7 47 8 6 0 11 11 13 25 2 22 -4
27 -43 41 -25 9 -47 13 -50 9z"/>
<path d="M7305 7843 c-149 -33 -293 -85 -309 -112 -4 -6 -14 -11 -23 -11 -8 0
-27 -10 -42 -22 -15 -13 -40 -32 -57 -43 -51 -35 -264 -259 -264 -277 0 -6
-12 -25 -27 -43 -70 -83 -83 -100 -83 -109 0 -5 -16 -33 -35 -62 -19 -29 -35
-58 -35 -66 0 -7 -9 -24 -20 -38 -11 -14 -20 -32 -20 -41 0 -9 -7 -22 -15 -29
-8 -7 -15 -21 -15 -31 0 -11 -4 -27 -9 -37 -9 -17 -47 -106 -76 -177 -9 -22
-20 -48 -25 -57 -6 -10 -10 -25 -10 -34 0 -9 -6 -30 -13 -47 -8 -18 -21 -57
-30 -87 -8 -30 -25 -85 -36 -121 -12 -36 -21 -77 -21 -91 0 -20 -6 -27 -27
-31 -16 -3 -34 0 -43 8 -8 7 -27 16 -42 20 -15 4 -32 13 -39 21 -6 8 -18 14
-26 14 -19 0 -96 45 -118 70 -20 22 -65 27 -65 8 1 -48 127 -202 261 -320 41
-36 42 -38 35 -84 -3 -26 -10 -52 -16 -59 -13 -16 -60 -432 -60 -537 0 -114
40 -395 60 -423 4 -5 11 -26 15 -45 4 -19 12 -44 19 -55 7 -11 19 -42 26 -70
14 -53 92 -230 139 -315 4 -8 23 -46 42 -83 19 -38 40 -71 47 -74 6 -3 12 -13
12 -22 0 -9 5 -22 11 -28 10 -10 31 -47 66 -113 20 -40 48 -81 183 -272 19
-27 37 -48 42 -48 4 0 8 -6 8 -13 0 -7 10 -22 23 -34 12 -11 52 -51 88 -89 88
-92 163 -155 205 -175 20 -9 35 -20 34 -24 -3 -14 93 -56 185 -81 103 -27 197
-31 296 -10 100 21 241 71 284 101 21 14 50 28 64 32 14 3 42 20 62 37 19 17
53 45 75 61 78 59 270 264 285 304 4 9 17 27 31 41 30 32 43 52 108 175 29 55
57 104 61 110 5 5 9 17 9 26 0 9 6 22 14 28 7 6 16 26 20 44 3 17 14 55 25 82
10 28 24 68 31 89 20 62 70 327 70 372 0 22 5 45 10 50 16 16 22 152 22 484 0
331 -7 508 -22 555 -5 17 -16 91 -25 165 -9 74 -34 210 -56 301 -44 188 -56
227 -75 250 -8 8 -14 26 -14 38 0 12 -10 41 -22 64 -32 63 -38 76 -38 86 0 9
-69 131 -80 141 -3 3 -16 26 -30 53 -13 26 -28 47 -31 47 -4 0 -10 11 -13 25
-4 14 -11 25 -16 25 -5 0 -22 19 -37 42 -16 23 -39 54 -52 68 -13 14 -37 45
-54 70 -17 25 -39 51 -49 58 -10 7 -18 20 -18 28 0 8 -7 18 -17 21 -22 9 -132
123 -139 146 -3 9 -14 17 -25 17 -10 0 -19 6 -19 13 -1 13 -86 75 -132 94 -15
7 -28 16 -28 21 0 26 -293 53 -375 35z m240 -72 c34 -5 83 -19 110 -32 64 -30
188 -132 251 -206 27 -32 70 -80 96 -106 27 -27 48 -51 48 -53 0 -3 29 -42 65
-87 99 -126 165 -219 165 -234 0 -4 6 -14 14 -22 20 -24 71 -127 101 -206 15
-38 30 -74 33 -80 4 -5 8 -19 9 -30 2 -10 10 -29 18 -42 8 -12 15 -32 15 -43
0 -11 4 -28 9 -38 5 -9 19 -62 31 -117 11 -55 25 -113 30 -130 9 -29 31 -175
49 -335 29 -245 21 -881 -14 -1055 -7 -38 -16 -90 -20 -115 -8 -60 -64 -291
-76 -312 -5 -10 -9 -26 -9 -35 0 -10 -9 -31 -20 -48 -11 -16 -20 -38 -20 -48
0 -22 -80 -174 -128 -244 -21 -30 -44 -66 -53 -82 -8 -16 -23 -36 -32 -45 -9
-9 -31 -37 -48 -61 -18 -25 -36 -45 -41 -45 -5 0 -11 -7 -15 -16 -11 -30 -151
-161 -228 -213 -27 -19 -51 -38 -53 -43 -2 -4 -12 -8 -22 -8 -10 0 -21 -4 -24
-8 -8 -13 -128 -68 -186 -86 -109 -32 -206 -40 -309 -26 -53 7 -114 20 -136
28 -63 25 -166 87 -209 126 -21 20 -41 36 -44 36 -8 0 -152 153 -152 163 0 4
-6 7 -14 7 -7 0 -16 8 -20 18 -6 19 -60 96 -129 187 -31 40 -87 125 -87 131 0
13 -83 144 -91 144 -5 0 -9 8 -9 18 0 10 -4 22 -9 27 -5 6 -40 71 -78 145 -62
121 -90 185 -161 370 -19 48 -44 145 -72 276 -13 62 -14 333 -1 460 6 61 20
160 32 220 32 173 34 191 15 219 -9 14 -21 25 -27 25 -25 0 -189 154 -189 177
0 16 31 10 65 -13 11 -8 29 -14 41 -14 12 0 24 -7 28 -15 3 -8 13 -15 23 -15
10 0 32 -9 49 -19 29 -17 34 -18 53 -5 13 10 21 26 21 44 0 16 6 47 14 67 16
44 45 135 76 243 32 110 40 132 97 265 33 76 151 313 169 340 8 11 14 27 14
37 0 10 6 18 14 18 7 0 37 35 67 78 29 42 67 92 83 110 63 68 162 161 201 188
22 15 56 38 75 52 134 91 363 139 545 113z"/>
<path d="M6876 6354 c-3 -9 -6 -42 -6 -75 l0 -59 -51 0 c-47 0 -50 -2 -47 -22
3 -20 10 -23 51 -26 l47 -3 0 -77 c0 -55 5 -84 16 -101 13 -18 18 -20 25 -10
14 22 11 363 -3 377 -16 16 -25 15 -32 -4z"/>
<path d="M7354 6358 c-12 -19 -6 -480 6 -492 7 -7 14 -6 22 2 15 15 23 454 8
482 -12 23 -25 26 -36 8z"/>
<path d="M7513 6345 c-3 -9 -2 -20 3 -25 5 -5 68 -11 139 -12 l130 -3 0 -62
c0 -70 11 -89 38 -68 15 11 17 26 15 96 l-3 84 -158 3 c-136 2 -158 0 -164
-13z"/>
<path d="M6650 6323 c-77 -4 -103 -15 -93 -39 4 -11 26 -14 88 -14 l84 0 -12
-23 c-17 -33 -114 -121 -140 -127 -24 -6 -35 -46 -19 -62 12 -12 42 3 99 50
l43 34 37 -36 c39 -38 61 -44 81 -24 16 16 15 38 -1 38 -8 0 -24 9 -37 20 -13
11 -27 20 -32 20 -14 0 -9 47 6 59 8 7 19 26 25 42 9 25 7 33 -9 49 -11 11
-26 19 -32 18 -7 -1 -47 -4 -88 -5z"/>
<path d="M7123 6322 c-91 -3 -93 -3 -93 -27 0 -25 1 -25 91 -25 83 0 90 -2 84
-17 -5 -10 -10 -32 -13 -50 -2 -18 -10 -38 -18 -44 -8 -6 -14 -17 -14 -24 0
-16 -99 -105 -116 -105 -9 0 -14 -11 -14 -30 0 -34 8 -37 53 -13 73 37 167
173 167 241 0 15 4 34 10 42 10 16 -3 36 -29 48 -9 4 -58 6 -108 4z"/>
<path d="M7647 6233 c-4 -3 -7 -23 -7 -44 0 -45 -13 -51 -97 -48 -66 3 -103
-6 -103 -26 0 -22 38 -29 145 -28 80 1 92 0 58 -7 -84 -18 -122 -49 -119 -100
6 -86 51 -114 174 -108 62 3 83 8 110 27 29 23 32 30 32 78 0 62 -16 77 -102
98 l-53 13 113 1 c92 1 114 4 119 17 11 28 -14 36 -119 38 -103 1 -103 1 -104
26 -3 66 -4 70 -22 70 -10 0 -22 -3 -25 -7z m104 -224 c49 -24 48 -46 -1 -72
-58 -30 -176 -2 -168 40 4 21 65 53 101 53 15 0 46 -9 68 -21z"/>
<path d="M6633 6013 c-8 -3 -13 -25 -13 -58 0 -89 -7 -85 155 -85 150 0 175 4
175 25 0 21 -25 25 -151 25 l-119 0 0 38 c0 21 -5 43 -12 50 -13 13 -16 13
-35 5z"/>
<path d="M6891 5746 c-20 -24 18 -36 118 -36 50 0 91 -4 91 -9 0 -4 -21 -16
-47 -25 -27 -10 -56 -21 -65 -27 -10 -5 -25 -9 -35 -9 -9 0 -32 -5 -50 -12
-25 -9 -33 -17 -31 -33 4 -25 59 -33 91 -12 12 8 39 19 59 26 32 11 43 10 81
-7 56 -25 118 -35 136 -23 19 12 6 41 -18 41 -11 0 -23 5 -26 10 -3 6 -19 10
-36 10 -37 0 -37 10 2 39 23 17 29 29 27 49 l-3 27 -141 3 c-114 2 -143 0
-153 -12z"/>
<path d="M6572 5689 c-17 -6 -22 -15 -20 -31 3 -24 15 -26 71 -12 15 3 40 1
57 -6 57 -23 34 -78 -80 -191 -24 -24 -51 -55 -58 -68 -24 -46 -12 -51 113
-51 97 0 117 3 122 16 9 24 -15 34 -88 34 -36 0 -68 3 -72 6 -3 4 19 29 48 56
30 28 55 56 55 64 0 7 9 18 20 24 16 9 20 21 20 63 -1 55 -11 76 -47 95 -26
14 -108 15 -141 1z"/>
<path d="M7037 5593 c-4 -3 -7 -17 -7 -29 0 -23 -3 -23 -102 -26 -95 -3 -103
-4 -103 -23 0 -19 8 -20 221 -23 192 -2 223 0 234 14 22 25 -4 34 -102 34 -87
0 -88 0 -103 30 -15 30 -26 36 -38 23z"/>
<path d="M6949 5447 c-48 -22 -59 -38 -59 -81 0 -67 52 -98 162 -97 67 1 134
25 149 53 17 32 1 94 -29 114 -34 22 -184 30 -223 11z m166 -51 c50 -18 53
-29 16 -55 -55 -40 -191 -20 -191 28 0 31 113 48 175 27z"/>
<path d="M6875 5148 c-3 -7 -4 -117 -3 -243 3 -222 4 -230 23 -230 19 0 20 7
20 240 0 221 -1 240 -18 243 -9 2 -19 -3 -22 -10z"/>
<path d="M7326 5152 c-3 -5 -5 -58 -4 -118 0 -60 0 -125 -1 -144 l-1 -35 -52
-1 c-29 0 -86 -4 -126 -9 l-73 -8 3 44 3 44 75 3 c41 2 80 8 87 14 20 16 17
152 -3 173 -9 9 -23 14 -31 11 -8 -3 -50 -6 -94 -6 -78 0 -79 0 -79 -25 0 -25
1 -25 80 -25 l80 0 0 -46 0 -45 -85 3 -85 3 0 -66 c0 -37 3 -81 6 -98 l7 -31
101 0 c55 0 118 5 139 11 22 6 41 8 44 5 3 -3 5 -33 4 -66 -1 -47 2 -62 14
-67 31 -11 38 14 39 134 l1 118 35 5 c27 4 35 10 35 25 0 16 -8 21 -37 23
l-37 3 -3 87 c-2 71 -6 87 -20 90 -9 2 -19 -1 -22 -6z"/>
<path d="M7817 5153 c-4 -3 -7 -21 -7 -40 0 -31 -2 -33 -35 -33 -25 0 -37 5
-41 18 -14 44 -16 45 -124 43 -58 -1 -106 -4 -108 -6 -9 -8 -7 -202 2 -222 9
-22 15 -23 112 -23 94 0 104 2 114 21 9 15 19 19 43 17 30 -3 32 -6 35 -48 4
-51 16 -70 44 -70 16 0 19 5 14 23 -3 12 -6 91 -6 175 0 141 -1 152 -18 152
-10 0 -22 -3 -25 -7z m-147 -138 l0 -75 -60 0 -60 0 0 68 c0 38 3 72 7 75 3 4
30 7 60 7 l53 0 0 -75z m140 -10 c0 -22 -4 -25 -40 -25 -36 0 -40 3 -40 25 0
23 4 25 40 25 36 0 40 -2 40 -25z"/>
<path d="M6608 5103 c-71 -44 -77 -211 -11 -287 47 -53 168 -23 193 48 5 16
10 58 10 93 0 70 -25 134 -59 153 -30 15 -103 12 -133 -7z m120 -72 c28 -49
29 -110 2 -144 -11 -14 -20 -30 -20 -36 0 -6 -16 -11 -35 -11 -23 0 -35 5 -35
13 0 8 -9 24 -20 37 -37 43 -16 150 34 170 38 16 52 10 74 -29z"/>
<path d="M7987 4953 c-4 -3 -7 -21 -7 -40 0 -39 21 -44 44 -11 23 32 -10 78
-37 51z"/>
<path d="M8124 4946 c-11 -29 1 -51 28 -54 33 -4 57 30 37 54 -15 18 -58 18
-65 0z"/>
<path d="M8282 4948 c-16 -16 -15 -33 3 -52 19 -18 42 -11 50 15 12 36 -27 63
-53 37z"/>
<path d="M7567 4834 c-9 -9 -9 -57 -1 -118 l7 -46 149 0 c126 0 150 2 155 16
11 29 -14 36 -133 37 l-119 1 -5 56 c-4 46 -8 55 -25 58 -12 2 -24 0 -28 -4z"/>
<path d="M7981 7594 c0 -11 3 -14 6 -6 3 7 2 16 -1 19 -3 4 -6 -2 -5 -13z"/>
<path d="M1155 5430 c-155 -30 -293 -90 -405 -175 -36 -28 -76 -57 -90 -66
-54 -35 -227 -195 -275 -255 -16 -21 -38 -44 -47 -53 -10 -8 -18 -20 -18 -26
0 -6 -9 -16 -20 -23 -11 -7 -20 -17 -20 -22 0 -6 -17 -33 -38 -60 -46 -60 -82
-118 -82 -131 0 -5 -14 -35 -30 -66 -17 -31 -30 -66 -30 -79 0 -12 -9 -38 -20
-56 -10 -18 -22 -53 -25 -78 -5 -45 -28 -90 -45 -90 -11 0 -14 -417 -4 -444 7
-19 30 -21 37 -3 4 10 6 10 6 0 1 -8 16 -13 41 -13 22 0 40 -4 40 -10 0 -5 14
-10 30 -10 23 0 30 -4 30 -20 0 -13 7 -20 20 -20 13 0 20 -7 20 -20 0 -13 7
-20 20 -20 13 0 20 -7 20 -20 0 -11 5 -20 10 -20 6 0 10 -29 9 -67 0 -38 -3
-62 -6 -55 -2 6 -16 12 -29 12 -19 0 -24 -5 -24 -25 0 -18 5 -25 20 -25 16 0
20 -7 20 -35 0 -19 -4 -35 -10 -35 -5 0 -10 -13 -10 -30 0 -16 -4 -30 -10 -30
-5 0 -10 -18 -10 -40 0 -22 -4 -40 -10 -40 -5 0 -10 -22 -10 -50 0 -27 -4 -50
-10 -50 -5 0 -10 -13 -10 -30 0 -16 -4 -30 -10 -30 -5 0 -10 -9 -10 -20 0 -11
-4 -20 -10 -20 -5 0 -10 -13 -10 -30 0 -16 -4 -30 -10 -30 -5 0 -10 -9 -10
-20 0 -13 -7 -20 -20 -20 -11 0 -20 -4 -20 -10 0 -5 -18 -10 -39 -10 -26 0
-41 -5 -45 -16 -3 -9 -6 -148 -6 -311 0 -287 1 -295 21 -312 11 -9 22 -30 24
-46 4 -33 112 -354 125 -370 4 -5 42 -77 85 -160 43 -82 81 -152 85 -155 3 -3
23 -31 43 -62 20 -32 41 -58 47 -58 5 0 10 -6 10 -12 0 -13 161 -178 173 -178
4 0 15 -7 24 -16 55 -48 200 -124 304 -158 94 -30 286 -48 393 -36 81 10 223
42 261 59 76 35 139 61 149 61 7 0 43 20 80 45 38 25 73 45 78 45 5 0 11 7 14
15 4 8 12 15 20 15 7 0 35 20 61 45 26 24 54 45 61 45 6 0 12 4 12 8 0 5 19
29 43 53 84 88 157 180 157 197 0 5 7 15 15 22 22 18 145 234 145 254 0 9 7
19 15 22 8 4 15 15 15 25 0 16 23 75 51 131 5 10 9 26 9 36 0 10 5 23 10 28
21 21 92 311 126 514 52 314 69 759 39 1020 -17 148 -21 172 -56 365 -21 116
-76 295 -109 356 -11 20 -20 44 -20 53 0 8 -15 40 -34 69 -19 29 -41 69 -50
88 -18 38 -38 71 -48 79 -12 10 -57 74 -67 98 -6 12 -15 22 -21 22 -5 0 -10 4
-10 9 0 27 -260 283 -341 336 -9 6 -47 31 -87 58 -39 26 -75 47 -80 47 -6 0
-12 7 -16 15 -3 8 -12 15 -20 15 -8 0 -48 15 -88 34 -151 70 -358 102 -493 76z
m-188 -1242 c-3 -8 -6 -5 -6 6 -1 11 2 17 5 13 3 -3 4 -12 1 -19z m302 -19 c8
-11 26 -19 40 -19 l24 0 -24 -22 c-19 -19 -25 -20 -28 -8 -2 8 -17 27 -35 42
-26 23 -29 29 -16 37 10 7 16 7 19 -1 2 -6 11 -19 20 -29z m-374 25 c13 -5 11
-9 -11 -20 -26 -14 -44 -11 -44 6 0 5 8 11 18 13 9 3 18 5 19 6 1 0 9 -2 18
-5z m675 -4 c0 -5 -9 -10 -20 -10 -11 0 -20 5 -20 10 0 6 9 10 20 10 11 0 20
-4 20 -10z m139 -15 c3 -17 2 -17 -13 -3 -19 20 -21 31 -3 26 6 -3 14 -13 16
-23z m-583 -41 c-12 -8 -13 -13 -4 -22 8 -8 8 -12 1 -12 -6 0 -16 7 -23 15 -9
10 -9 15 -1 15 6 0 11 7 11 15 0 18 -12 19 -27 4 -8 -8 -17 -7 -32 2 -16 11
-23 11 -33 1 -6 -6 -19 -12 -27 -12 -13 0 -13 2 1 16 9 9 42 19 75 23 52 5 59
4 66 -14 5 -13 3 -23 -7 -31z m344 44 c0 -7 -12 -18 -26 -25 -20 -9 -32 -9
-57 2 -28 12 -30 14 -13 21 10 4 27 2 38 -5 15 -9 20 -9 24 4 7 18 34 20 34 3z
m-666 -19 c-3 -5 -16 -6 -28 -3 -18 4 -28 -1 -40 -17 l-16 -23 0 26 c0 14 5
28 11 30 20 7 79 -4 73 -13z m-421 4 c-13 -2 -33 -2 -45 0 -13 2 -3 4 22 4 25
0 35 -2 23 -4z m1303 -60 c3 -18 4 -50 2 -70 -6 -46 6 -83 27 -83 8 0 15 -4
15 -10 0 -5 -10 -9 -22 -7 -22 2 -23 -1 -20 -53 2 -30 5 -62 8 -72 3 -9 -6
-29 -20 -45 -33 -37 -48 -22 -54 54 -5 59 -13 73 -46 73 -12 0 -16 -5 -13 -14
11 -27 -19 -37 -105 -35 -48 1 -94 -3 -106 -10 -25 -13 -43 -15 -22 -1 12 7 8
12 -19 23 -24 10 -29 16 -17 20 13 5 15 19 10 79 -2 40 -7 81 -10 90 -14 45
39 82 98 69 20 -5 53 -5 74 -1 39 7 93 -10 95 -30 1 -6 2 -16 3 -22 0 -7 15
-14 32 -16 32 -3 32 -3 32 47 0 27 3 54 6 60 12 19 46 -11 52 -46z m-730 32
c10 -8 15 -14 9 -14 -5 0 -19 6 -29 14 -11 8 -15 15 -10 15 6 0 19 -7 30 -15z
m551 9 c-3 -3 -12 -4 -19 -1 -8 3 -5 6 6 6 11 1 17 -2 13 -5z m93 -25 c0 -10
-7 -19 -15 -19 -15 0 -21 31 -9 43 11 10 24 -3 24 -24z m-770 12 c0 -5 -6 -14
-14 -20 -10 -9 -15 -8 -19 3 -3 8 -3 17 0 20 9 9 33 7 33 -3z m388 -7 c12 -8
20 -20 16 -25 -7 -11 -7 -440 0 -447 3 -2 -7 -14 -22 -27 -25 -21 -28 -22 -44
-8 -15 14 -18 35 -18 140 0 91 -3 123 -12 124 -7 0 -34 3 -60 5 -39 4 -48 2
-48 -10 0 -20 -29 -21 -44 -1 -8 11 -20 14 -43 9 -27 -5 -31 -10 -31 -40 0
-40 8 -47 40 -35 13 5 47 14 76 21 47 11 55 10 73 -5 22 -21 25 -48 5 -64 -15
-12 -215 -26 -251 -17 -18 5 -25 14 -27 39 -2 19 -8 31 -15 29 -7 -1 -13 2
-13 8 0 5 7 10 15 10 11 0 14 10 11 40 -2 29 2 48 16 65 17 22 23 24 83 18
l65 -6 0 41 0 40 -62 0 c-35 -1 -68 -5 -75 -10 -14 -11 -32 17 -26 42 6 22 59
54 68 40 9 -15 88 -12 110 4 23 16 46 10 38 -10 -3 -8 1 -14 8 -14 7 0 20 -7
30 -16 16 -15 16 -18 3 -31 -9 -9 -14 -29 -12 -47 3 -28 6 -31 39 -32 l36 -2
1 84 c0 46 4 88 7 94 9 15 37 12 63 -6z m-448 -4 c0 -5 -4 -10 -9 -10 -6 0
-13 5 -16 10 -3 6 1 10 9 10 9 0 16 -4 16 -10z m965 -78 c-12 -31 -27 4 -19
44 l7 39 9 -34 c5 -18 7 -40 3 -49z m-1182 46 c50 0 104 1 119 3 41 3 90 -20
82 -40 -3 -9 -8 -41 -10 -71 -3 -30 -9 -86 -15 -124 -6 -46 -6 -73 0 -79 12
-12 22 7 25 55 5 61 7 65 16 43 5 -11 6 -34 3 -52 -3 -23 1 -40 18 -62 14 -20
19 -35 13 -41 -7 -7 -343 -14 -476 -11 -12 1 -18 9 -18 25 0 34 30 39 185 30
105 -5 133 -4 141 7 13 16 24 84 30 187 l4 72 -150 0 c-133 0 -150 2 -150 17
0 30 30 53 61 46 16 -3 71 -5 122 -5z m245 -39 c-2 -6 -8 -10 -13 -10 -5 0
-11 4 -13 10 -2 6 4 11 13 11 9 0 15 -5 13 -11z m132 -48 c0 -5 8 -12 18 -14
9 -2 4 -3 -13 0 -37 4 -58 23 -27 23 12 0 22 -4 22 -9z m177 -13 c-3 -8 -6 -5
-6 6 -1 11 2 17 5 13 3 -3 4 -12 1 -19z m623 2 c0 -5 -8 -10 -17 -10 -15 0
-16 2 -3 10 19 12 20 12 20 0z m-905 -14 c12 -12 11 -15 -5 -19 -11 -3 -20 -4
-20 -2 0 2 -3 10 -6 19 -8 20 12 21 31 2z m-460 -66 c3 -5 -1 -10 -9 -10 -9 0
-16 5 -16 10 0 6 4 10 9 10 6 0 13 -4 16 -10z m80 -10 c-3 -5 -10 -10 -16 -10
-5 0 -9 5 -9 10 0 6 7 10 16 10 8 0 12 -4 9 -10z m8 -36 c14 19 15 19 26 -2 7
-14 17 -20 24 -15 7 4 7 0 -2 -10 -10 -13 -17 -14 -33 -6 -11 6 -49 9 -86 7
-49 -2 -66 0 -70 11 -4 11 2 12 23 7 21 -5 32 -2 47 14 l19 21 19 -23 c18 -23
19 -23 33 -4z m1274 -26 c-3 -8 -6 -5 -6 6 -1 11 2 17 5 13 3 -3 4 -12 1 -19z
m-1172 2 c3 -5 1 -10 -4 -10 -6 0 -11 5 -11 10 0 6 2 10 4 10 3 0 8 -4 11 -10z
m35 0 c0 -5 -5 -10 -11 -10 -5 0 -7 5 -4 10 3 6 8 10 11 10 2 0 4 -4 4 -10z
m-226 -29 c3 -5 -1 -12 -10 -15 -27 -10 -44 -7 -44 9 0 16 45 21 54 6z m84 -8
c-10 -2 -28 -2 -40 0 -13 2 -5 4 17 4 22 1 32 -1 23 -4z m980 -1 c8 -5 13 -31
13 -66 l1 -57 134 3 c136 3 161 -3 149 -34 -9 -23 -32 -26 -187 -29 -100 -2
-140 0 -152 10 -10 9 -16 34 -18 79 l-3 67 -42 -1 c-24 0 -43 3 -43 8 0 4 19
8 43 8 23 0 49 5 57 10 18 12 31 12 48 2z m150 -39 c-10 -2 -28 -2 -40 0 -13
2 -5 4 17 4 22 1 32 -1 23 -4z m29 -35 c-3 -8 -6 -5 -6 6 -1 11 2 17 5 13 3
-3 4 -12 1 -19z m-317 -39 c0 -11 -4 -17 -10 -14 -5 3 -10 13 -10 21 0 8 5 14
10 14 6 0 10 -9 10 -21z m37 -65 c-3 -3 -12 -4 -19 -1 -8 3 -5 6 6 6 11 1 17
-2 13 -5z m-200 -26 c-3 -8 -6 -5 -6 6 -1 11 2 17 5 13 3 -3 4 -12 1 -19z
m-757 -3 c0 -10 -10 -15 -26 -15 -22 0 -25 2 -14 15 7 8 19 15 26 15 8 0 14
-7 14 -15z m1300 -9 c0 -8 -71 -12 -76 -4 -3 4 13 8 35 8 23 0 41 -2 41 -4z
m-370 -35 c-6 -12 -16 -19 -21 -15 -6 4 -3 13 8 24 23 22 28 18 13 -9z m-858
2 c26 -23 22 -33 -12 -33 -25 0 -30 4 -30 25 0 29 16 32 42 8z m193 -3 c3 -5
-1 -10 -9 -10 -9 0 -16 5 -16 10 0 6 4 10 9 10 6 0 13 -4 16 -10z m600 0 c3
-5 -1 -10 -10 -10 -9 0 -13 5 -10 10 3 6 8 10 10 10 2 0 7 -4 10 -10z m151
-57 c-3 -7 0 -16 7 -20 12 -8 178 -5 186 3 3 2 -4 11 -15 18 -18 14 -18 15 -1
21 9 4 17 13 17 21 0 22 59 -4 66 -30 3 -12 4 -55 2 -96 l-3 -75 -63 -5 c-93
-7 -71 -25 32 -25 73 0 91 -3 100 -17 17 -28 -8 -43 -67 -42 -38 1 -46 -1 -30
-7 29 -11 42 -73 22 -108 -14 -25 -18 -26 -124 -27 -130 -1 -135 -1 -135 -14
0 -5 57 -11 137 -12 146 -3 162 -9 123 -48 -14 -14 -28 -19 -38 -15 -9 4 -78
8 -154 9 -75 0 -139 4 -143 8 -11 10 -7 110 4 121 6 6 66 9 145 8 109 -2 136
1 136 12 0 10 -27 13 -130 12 -136 -2 -169 6 -157 38 5 13 26 17 109 20 l103
3 -116 2 c-98 2 -118 -1 -123 -14 -3 -8 -10 -13 -15 -10 -16 10 -23 64 -11 86
10 19 13 19 33 5 31 -21 157 -21 157 0 0 13 -12 15 -60 14 -34 -1 -65 2 -69 7
-14 15 -21 73 -10 80 6 4 8 22 4 46 -6 33 -3 44 16 64 l23 24 23 -22 c13 -12
21 -28 19 -35z m464 42 c0 -8 -2 -15 -4 -15 -2 0 -6 7 -10 15 -3 8 -1 15 4 15
6 0 10 -7 10 -15z m-1485 -25 c16 -16 27 -31 24 -33 -2 -3 -21 -2 -41 1 -34 4
-38 7 -38 33 0 37 18 37 55 -1z m314 9 c-16 -10 -23 -4 -14 10 3 6 11 8 17 5
6 -4 5 -9 -3 -15z m142 7 c7 4 10 2 7 -7 -6 -20 -68 -25 -68 -5 0 18 21 26 37
14 7 -5 17 -6 24 -2z m-231 -11 c0 -9 -9 -15 -25 -15 -16 0 -25 6 -25 15 0 9
9 15 25 15 16 0 25 -6 25 -15z m1550 11 c0 -3 -4 -8 -10 -11 -5 -3 -10 -1 -10
4 0 6 5 11 10 11 6 0 10 -2 10 -4z m-1090 -16 c0 -5 -5 -10 -11 -10 -5 0 -7 5
-4 10 3 6 8 10 11 10 2 0 4 -4 4 -10z m-30 -4 c0 -3 -4 -8 -10 -11 -5 -3 -10
-1 -10 4 0 6 5 11 10 11 6 0 10 -2 10 -4z m-390 -22 c0 -8 -5 -12 -10 -9 -6 4
-8 11 -5 16 9 14 15 11 15 -7z m1475 -5 c4 -5 4 -21 1 -33 -6 -22 -9 -23 -70
-19 -87 7 -196 -5 -196 -22 0 -18 56 -27 163 -24 96 2 118 -8 104 -45 -6 -15
-22 -17 -132 -15 -68 2 -128 0 -131 -4 -4 -3 -4 -13 -1 -21 5 -13 27 -15 132
-14 128 2 154 -5 142 -36 -5 -14 -31 -16 -177 -16 l-170 0 -1 33 c0 17 -2 70
-3 117 -1 47 2 90 7 97 11 15 323 18 332 2z m-1523 -17 c19 -8 30 -22 38 -51
9 -36 8 -42 -14 -65 -20 -22 -25 -24 -35 -12 -10 12 -6 18 21 33 l33 18 -50 5
c-60 6 -105 -4 -122 -27 -17 -22 -17 -47 -1 -37 22 14 99 3 132 -19 38 -25 46
-51 36 -125 -8 -62 -31 -84 -104 -99 -52 -11 -62 -10 -96 7 -45 23 -81 65 -73
86 3 9 -5 29 -17 47 -15 20 -19 32 -12 35 7 2 12 11 12 20 0 9 12 47 27 85 21
55 34 72 64 91 42 24 112 28 161 8z m393 8 c3 -5 1 -10 -4 -10 -6 0 -11 5 -11
10 0 6 2 10 4 10 3 0 8 -4 11 -10z m198 -24 c15 -11 27 -25 27 -32 0 -6 7 -17
16 -25 13 -10 14 -30 10 -116 -7 -159 -39 -197 -156 -189 -56 5 -67 9 -85 33
-25 35 -28 49 -28 153 1 159 16 189 103 195 28 2 54 6 57 9 6 6 15 2 56 -28z
m65 22 c19 -19 14 -30 -8 -18 -11 6 -20 15 -20 20 0 14 14 12 28 -2z m-369
-14 c36 -26 53 -79 56 -181 4 -102 -7 -137 -53 -174 -23 -18 -36 -20 -96 -16
-61 4 -73 8 -92 32 -12 15 -27 24 -33 21 -6 -4 -11 -2 -11 3 0 6 5 11 11 11 7
0 9 8 4 23 -15 50 -16 113 0 182 14 64 20 77 48 94 41 26 132 29 166 5z m-528
-10 c10 -13 10 -17 -1 -24 -18 -11 -30 -3 -30 21 0 23 13 25 31 3z m-11 -79
c0 -14 -4 -25 -10 -25 -5 0 -10 11 -10 25 0 14 5 25 10 25 6 0 10 -11 10 -25z
m183 0 c1 -5 -6 -11 -15 -13 -11 -2 -18 3 -18 13 0 17 30 18 33 0z m-183 -175
c0 -5 -5 -10 -11 -10 -5 0 -7 5 -4 10 3 6 8 10 11 10 2 0 4 -4 4 -10z m1851
-42 c5 -7 7 -17 6 -23 -4 -12 -451 -24 -485 -13 -19 7 -21 11 -12 27 13 26 19
26 269 24 166 -1 216 -4 222 -15z m-1211 -62 c0 -16 -2 -15 -19 5 -10 13 -16
29 -14 36 7 18 32 -14 33 -41z m-290 -1 c0 -8 -7 -15 -15 -15 -16 0 -20 12 -8
23 11 12 23 8 23 -8z m560 5 c0 -5 -4 -10 -10 -10 -5 0 -10 5 -10 10 0 6 5 10
10 10 6 0 10 -4 10 -10z m57 -146 c-3 -3 -12 -4 -19 -1 -8 3 -5 6 6 6 11 1 17
-2 13 -5z m-957 -18 c0 -3 -4 -8 -10 -11 -5 -3 -10 -1 -10 4 0 6 5 11 10 11 6
0 10 -2 10 -4z m1074 -11 c-4 -8 -8 -15 -10 -15 -2 0 -4 7 -4 15 0 8 4 15 10
15 5 0 7 -7 4 -15z m-692 -42 c2 -55 4 -93 6 -109 1 -7 18 -15 37 -18 31 -6
35 -11 35 -36 0 -21 -5 -30 -17 -31 -10 -1 -25 -2 -33 -3 -17 -1 -27 -86 -24
-188 l2 -58 -34 0 -33 0 1 238 c0 130 2 240 5 245 2 4 15 7 29 7 22 0 24 -4
26 -47z m508 -198 l0 -245 -40 0 -40 0 0 245 0 245 40 0 40 0 0 -245z m390 0
c0 -162 -4 -245 -10 -245 -6 0 -25 6 -44 14 l-33 14 4 66 c4 65 -3 79 -26 52
-15 -18 -148 -20 -199 -4 -30 9 -31 11 -16 22 15 11 16 28 12 142 -5 154 -4
164 27 164 31 0 38 -33 33 -158 -3 -95 -3 -95 22 -102 14 -3 56 -4 93 -2 l69
4 -7 26 c-9 35 -9 35 -58 38 -59 2 -57 1 -57 29 0 17 6 25 18 26 9 0 35 1 57
2 l40 2 2 70 c0 39 2 73 2 78 1 4 17 7 36 7 l35 0 0 -245z m80 0 l0 -245 -24
0 c-21 0 -24 5 -28 58 -4 45 -3 420 1 430 1 1 12 2 26 2 l25 0 0 -245z m-931
158 c-1 -86 -6 -81 -12 15 -2 34 0 62 5 62 4 0 7 -35 7 -77z m-256 54 c8 7 83
6 109 -3 14 -4 18 -16 18 -49 0 -24 -4 -47 -10 -50 -5 -3 -10 -23 -10 -43 -1
-88 -86 -232 -137 -232 -9 0 -13 15 -13 45 0 32 4 45 14 45 10 0 14 16 15 61
0 34 3 64 6 67 3 3 5 -9 5 -26 0 -41 16 -41 24 0 4 21 2 34 -6 40 -10 6 -10 8
1 8 8 0 11 7 8 19 -3 13 1 21 14 24 27 7 23 27 -5 27 -28 0 -51 -24 -43 -44 3
-8 -1 -20 -9 -26 -8 -7 -14 -21 -14 -31 0 -10 -5 -21 -10 -24 -8 -5 -7 -11 1
-21 9 -11 7 -14 -10 -14 -23 0 -27 -10 -10 -27 16 -16 -36 -45 -74 -41 -26 2
-32 7 -32 28 0 14 13 38 30 55 42 44 55 69 55 113 0 37 -1 38 -34 34 -40 -5
-87 31 -67 51 13 13 152 26 167 15 6 -4 14 -5 17 -1z m954 -64 c-2 -16 -4 -3
-4 27 0 30 2 43 4 28 2 -16 2 -40 0 -55z m-394 61 c27 -6 38 -36 17 -49 -6 -4
-10 -12 -9 -18 1 -7 -5 -29 -14 -49 -27 -60 -21 -90 24 -114 25 -12 29 -20 29
-55 l0 -41 -37 7 c-46 8 -53 12 -53 29 0 7 -9 21 -19 30 -18 17 -21 15 -68
-33 -27 -27 -61 -54 -76 -60 -22 -9 -29 -7 -42 12 -8 12 -15 28 -15 35 0 17
101 122 117 122 6 0 20 14 30 30 9 17 21 30 26 30 4 0 5 5 2 10 -4 6 -1 18 6
26 18 22 5 27 -70 26 -51 -1 -74 3 -86 14 -36 37 -7 50 119 52 50 1 103 -1
119 -4z m1039 -31 c20 -21 28 -39 29 -73 3 -49 -14 -90 -35 -90 -8 0 -19 -7
-26 -15 -10 -12 -10 -15 3 -15 16 0 27 -29 27 -72 0 -27 2 -28 49 -28 55 0 67
-8 48 -34 -11 -15 -40 -17 -235 -21 l-222 -3 0 27 c0 33 47 62 61 39 13 -21
32 6 33 47 1 20 8 41 16 46 13 9 13 11 1 16 -8 3 -26 17 -39 30 -22 22 -24 30
-18 76 5 40 13 57 33 74 34 28 47 30 158 26 82 -2 91 -5 117 -30z m-1757 -48
c0 -5 -10 -11 -22 -13 -16 -2 -23 2 -23 13 0 11 7 15 23 13 12 -2 22 -7 22
-13z m459 -6 c-3 -5 -10 -7 -15 -3 -5 3 -7 10 -3 15 3 5 10 7 15 3 5 -3 7 -10
3 -15z m140 -8 c5 -1 6 -4 2 -8 -8 -9 -77 -13 -90 -5 -21 12 20 18 88 13z
m453 -23 c-3 -7 -5 -2 -5 12 0 14 2 19 5 13 2 -7 2 -19 0 -25z m-1009 -3 c-2
-14 -7 -26 -13 -26 -5 0 -11 12 -13 26 -2 18 1 25 13 25 12 0 15 -7 13 -25z
m-54 -63 c-14 -13 -28 -21 -32 -17 -4 4 -1 10 6 12 15 6 16 50 0 55 -7 3 -8 9
-3 18 6 10 14 7 31 -16 l24 -29 -26 -23z m770 53 c-4 -8 -8 -15 -10 -15 -2 0
-4 7 -4 15 0 8 4 15 10 15 5 0 7 -7 4 -15z m-247 -50 c-12 -23 -52 -53 -61
-44 -10 10 37 69 54 69 16 0 17 -3 7 -25z m231 7 c2 -7 -5 -12 -17 -12 -14 0
-19 5 -14 15 6 17 25 15 31 -3z m308 -49 c-7 -7 -26 7 -26 19 0 6 6 6 15 -2 9
-7 13 -15 11 -17z m-616 -37 c0 -8 -5 -18 -11 -21 -6 -4 -9 -39 -8 -88 1 -45
-2 -81 -7 -79 -9 2 -7 179 2 194 8 13 24 9 24 -6z m-170 -33 c0 -10 -8 -31
-19 -46 -15 -23 -20 -25 -24 -13 -7 19 1 46 14 46 5 0 9 7 9 15 0 8 5 15 10
15 6 0 10 -8 10 -17z m370 -27 c0 -2 -7 -9 -15 -16 -12 -10 -15 -10 -15 4 0 9
7 16 15 16 8 0 15 -2 15 -4z m-43 -58 c-3 -8 -6 -5 -6 6 -1 11 2 17 5 13 3 -3
4 -12 1 -19z m163 11 c0 -5 -4 -8 -10 -4 -5 3 -18 0 -29 -7 -17 -11 -23 -10
-38 5 -16 16 -15 17 30 17 26 0 47 -5 47 -11z m-540 -30 c18 -32 2 -36 -28 -6
-26 26 -26 27 -5 27 12 0 27 -9 33 -21z m-72 -16 c-4 -22 -22 -20 -26 1 -2 10
3 16 13 16 10 0 15 -7 13 -17z m832 7 c0 -12 -8 -12 -35 0 -18 8 -17 9 8 9 15
1 27 -3 27 -9z m97 4 c-3 -3 -12 -4 -19 -1 -8 3 -5 6 6 6 11 1 17 -2 13 -5z
m-800 -29 c7 -21 2 -25 -25 -18 -18 4 -20 8 -11 19 15 18 28 18 36 -1z m471 8
c-10 -2 -26 -2 -35 0 -10 3 -2 5 17 5 19 0 27 -2 18 -5z m397 0 c-11 -3 -23
-10 -26 -15 -3 -5 -19 -8 -35 -6 l-29 4 35 11 c19 6 44 11 55 11 l20 0 -20 -5z
m422 1 c-3 -3 -12 -4 -19 -1 -8 3 -5 6 6 6 11 1 17 -2 13 -5z"/>
<path d="M1393 4033 c-4 -10 -1 -19 6 -21 8 -3 7 -8 -5 -16 -15 -11 -15 -14 0
-28 20 -21 20 -28 0 -28 -9 0 -14 -6 -12 -12 4 -12 76 -30 89 -22 6 3 6 82 0
132 -2 19 -70 15 -78 -5z m67 -7 c0 -11 -19 -15 -25 -6 -3 5 1 10 9 10 9 0 16
-2 16 -4z"/>
<path d="M1567 3974 c-4 -4 -7 -11 -7 -16 0 -13 50 -6 53 7 2 12 -36 19 -46 9z"/>
<path d="M1395 3401 c-10 -17 11 -21 99 -19 82 2 105 9 70 22 -25 10 -162 7
-169 -3z"/>
<path d="M1548 3243 c7 -3 16 -2 19 1 4 3 -2 6 -13 5 -11 0 -14 -3 -6 -6z"/>
<path d="M463 3253 c-23 -4 -37 -41 -27 -68 13 -32 91 -42 96 -11 0 6 2 16 2
21 1 6 5 15 9 21 13 22 -37 45 -80 37z m52 -33 c9 -15 -23 -43 -40 -36 -19 7
-19 26 0 26 8 0 15 5 15 10 0 13 17 13 25 0z"/>
<path d="M1069 3394 c-23 -12 -29 -25 -38 -79 -16 -90 -3 -139 42 -154 28 -11
34 -9 50 10 9 12 17 27 17 34 0 8 7 20 15 29 13 13 13 21 1 70 -13 50 -43 107
-56 105 -3 -1 -17 -7 -31 -15z"/>
<path d="M763 3396 c-33 -15 -50 -149 -25 -208 10 -24 18 -28 49 -28 32 0 40
4 50 28 23 52 26 90 9 144 -19 59 -46 80 -83 64z m13 -144 c4 -36 8 -41 20
-31 8 6 14 7 14 1 0 -16 -29 -35 -45 -28 -12 4 -14 19 -11 68 5 84 8 99 13 63
2 -16 6 -49 9 -73z"/>
<path d="M1955 2821 c-16 -3 -45 -14 -64 -24 l-34 -19 22 -21 c18 -19 33 -22
100 -22 61 0 82 4 96 18 17 17 17 19 0 37 -10 11 -27 20 -37 20 -11 0 -27 4
-36 8 -9 5 -30 6 -47 3z"/>
<path d="M1923 2654 c-2 -7 -3 -29 -1 -50 l3 -38 50 0 50 -1 1 37 c1 21 6 44
13 52 10 12 3 14 -50 13 -36 -1 -63 -7 -66 -13z"/>
<path d="M18 3733 c12 -2 32 -2 45 0 12 2 2 4 -23 4 -25 0 -35 -2 -22 -4z"/>
<path d="M84 3711 c5 -8 56 -3 56 5 0 2 -14 4 -31 4 -16 0 -28 -4 -25 -9z"/>
<path d="M155 3680 c10 -11 20 -18 23 -16 5 6 -23 36 -34 36 -4 0 1 -9 11 -20z"/>
<path d="M187 3645 c-4 -8 -2 -17 3 -20 6 -4 10 3 10 14 0 25 -6 27 -13 6z"/>
<path d="M213 3575 c0 -27 2 -38 4 -22 2 15 2 37 0 50 -2 12 -4 0 -4 -28z"/>
<path d="M212 3475 c0 -16 2 -22 5 -12 2 9 2 23 0 30 -3 6 -5 -1 -5 -18z"/>
<path d="M186 3442 c-2 -4 -1 -14 5 -22 7 -12 9 -10 9 8 0 23 -5 28 -14 14z"/>
<path d="M168 3403 c-2 -5 -1 -24 3 -43 l6 -35 2 43 c1 39 -3 52 -11 35z"/>
<path d="M147 3323 c-2 -5 -1 -19 4 -33 7 -23 7 -23 8 8 1 31 -3 40 -12 25z"/>
<path d="M126 3262 c-2 -4 -1 -14 5 -22 7 -12 9 -10 9 8 0 23 -5 28 -14 14z"/>
<path d="M97 3212 c-11 -12 -13 -22 -7 -32 8 -12 10 -11 10 7 0 12 6 23 13 26
6 2 9 7 6 11 -3 3 -13 -2 -22 -12z"/>
<path d="M65 3160 c-3 -5 -1 -10 4 -10 6 0 11 5 11 10 0 6 -2 10 -4 10 -3 0
-8 -4 -11 -10z"/>
<path d="M26 3142 c-10 -16 9 -30 21 -17 10 10 9 14 -2 19 -8 3 -16 2 -19 -2z"/>
<path d="M9645 2750 c-38 -4 -105 -17 -148 -29 l-78 -22 -62 23 c-55 20 -79
23 -218 23 -100 0 -165 -4 -180 -12 -13 -6 -48 -19 -77 -28 -29 -9 -75 -34
-102 -56 -46 -36 -150 -161 -150 -181 0 -20 -96 -107 -141 -128 -59 -28 -66
-45 -75 -190 -7 -114 4 -197 34 -264 11 -23 24 -53 30 -68 6 -16 16 -28 22
-28 5 0 10 -4 10 -10 0 -15 70 -110 81 -110 5 0 9 -6 10 -12 0 -7 31 -38 70
-68 71 -56 94 -94 68 -114 -15 -12 -45 -113 -61 -206 -6 -30 -11 -111 -12
-180 -1 -158 11 -194 72 -205 22 -3 50 -17 62 -30 20 -21 22 -31 16 -72 -17
-124 -18 -148 -5 -201 15 -62 73 -136 116 -147 32 -8 29 -37 -7 -63 -16 -13
-30 -29 -30 -37 0 -29 33 -33 168 -23 l133 9 30 -25 c42 -36 79 -40 288 -32
295 11 327 19 381 92 19 24 38 44 42 44 5 0 21 8 36 18 15 11 55 37 88 59 64
41 174 151 174 174 0 7 6 20 14 28 14 16 56 130 56 153 0 7 8 32 18 55 12 30
26 46 47 55 17 6 41 19 55 29 14 9 40 20 58 24 27 5 32 11 32 35 0 15 -7 41
-15 56 -25 48 -19 58 55 95 68 33 70 35 70 71 0 20 -11 68 -25 105 -31 86 -26
91 86 105 120 14 123 17 116 92 -7 70 -54 266 -68 281 -5 5 -9 22 -9 37 0 24
8 32 52 53 28 14 60 25 70 25 10 0 26 4 36 10 24 13 163 61 187 65 11 1 48 12
82 24 34 11 69 21 76 21 31 0 45 33 36 85 -4 28 -13 78 -19 113 -5 34 -16 75
-24 90 -7 15 -21 92 -30 172 -19 161 -27 190 -53 190 -18 0 -158 -69 -203
-100 -14 -9 -32 -20 -40 -24 -8 -3 -35 -20 -60 -36 -25 -16 -58 -37 -75 -46
-16 -9 -34 -23 -38 -30 -4 -8 -12 -14 -17 -14 -11 0 -62 -34 -118 -78 -47 -37
-67 -40 -83 -11 -17 33 -59 67 -114 93 -67 31 -81 48 -57 68 9 9 26 18 36 19
24 5 41 32 33 52 -10 26 -125 75 -217 93 -47 9 -94 20 -105 25 -45 18 -324 31
-430 19z m845 -414 c0 -14 -61 -66 -77 -66 -5 0 -16 -8 -24 -17 -9 -10 -44
-40 -77 -68 -34 -27 -61 -57 -61 -66 -1 -18 56 -130 100 -199 16 -25 37 -61
46 -80 10 -19 24 -41 31 -48 6 -7 12 -17 12 -22 0 -4 16 -32 35 -61 51 -78 48
-89 -36 -135 -40 -21 -78 -49 -86 -61 -14 -21 -12 -28 18 -90 18 -38 41 -80
51 -95 29 -42 23 -62 -26 -86 -24 -12 -49 -29 -56 -37 -16 -19 -7 -66 22 -122
22 -41 22 -42 4 -62 -11 -12 -30 -21 -43 -21 -18 0 -23 5 -23 26 0 31 -34 153
-56 201 -8 17 -14 35 -14 40 0 5 -18 35 -40 67 -22 31 -40 61 -40 66 0 6 -4
10 -10 10 -5 0 -16 12 -24 28 -8 15 -44 59 -80 97 -36 39 -65 73 -66 77 0 4
-13 22 -30 40 -16 18 -30 38 -30 44 0 6 -6 17 -14 23 -8 7 -22 38 -31 69 -10
31 -21 70 -26 86 -5 16 -9 42 -9 57 0 15 -4 31 -10 34 -5 3 -10 33 -10 66 0
33 -7 94 -16 135 -24 117 -36 109 166 110 177 0 363 24 458 59 48 18 72 18 72
1z"/>
<path d="M6875 10 c-217 -3 51 -5 605 -6 547 0 952 1 900 3 -203 6 -1134 8
-1505 3z"/>
<path d="M10900 10 c-258 -4 -129 -6 473 -8 546 -1 827 1 827 8 0 10 -614 10
-1300 0z"/>
<path d="M58 3 c34 -2 90 -2 125 0 34 2 6 3 -63 3 -69 0 -97 -1 -62 -3z"/>
<path d="M4168 3 c83 -2 221 -2 305 0 83 1 15 3 -153 3 -168 0 -236 -2 -152
-3z"/>
<path d="M4648 3 c12 -2 32 -2 45 0 12 2 2 4 -23 4 -25 0 -35 -2 -22 -4z"/>
</g>
</svg>
