<?xml version="1.0" standalone="no"?>
<!DOCTYPE svg PUBLIC "-//W3C//DTD SVG 20010904//EN"
 "http://www.w3.org/TR/2001/REC-SVG-20010904/DTD/svg10.dtd">
<svg version="1.0" xmlns="http://www.w3.org/2000/svg"
 width="1220.000000pt" height="880.000000pt" viewBox="0 0 1220.000000 880.000000"
 preserveAspectRatio="xMidYMid meet">
<metadata>
Created by potrace 1.13, written by Peter Selinger 2001-2015
</metadata>
<g transform="translate(0.000000,880.000000) scale(0.100000,-0.100000)"
 stroke="none">
<path d="M3155 8702 c-69 -4 -372 -82 -400 -102 -5 -4 -37 -17 -70 -30 -70
-28 -223 -106 -246 -126 -8 -8 -21 -14 -27 -14 -6 0 -15 -6 -19 -12 -4 -7 -24
-22 -43 -32 -64 -35 -137 -96 -162 -134 -68 -103 -63 -74 -65 -347 0 -137 2
-281 7 -320 9 -80 1 -105 -50 -145 -17 -14 -39 -32 -48 -41 -9 -9 -24 -20 -33
-25 -20 -10 -126 -102 -182 -156 -21 -21 -42 -38 -47 -38 -5 0 -12 -9 -15 -20
-3 -11 -11 -20 -17 -20 -6 0 -20 -7 -29 -16 -14 -13 -16 -21 -8 -36 9 -17 17
-19 62 -13 29 4 77 13 108 21 31 8 64 14 73 14 23 0 20 -23 -6 -52 -67 -73
-117 -131 -148 -172 -64 -86 -100 -131 -116 -148 -9 -9 -14 -28 -12 -45 2 -23
9 -30 43 -38 22 -5 45 -13 50 -16 6 -3 39 -14 75 -23 36 -10 74 -22 85 -27 11
-4 39 -11 62 -14 60 -9 138 -41 138 -56 0 -7 -20 -20 -45 -28 -25 -9 -66 -28
-93 -43 -26 -15 -56 -30 -67 -33 -37 -12 -11 -65 32 -65 13 0 47 -7 74 -15 51
-15 191 -41 304 -56 90 -12 110 -18 110 -31 0 -6 -28 -39 -63 -72 -93 -90 -95
-94 -63 -106 26 -10 46 -8 300 31 84 13 91 6 66 -65 -39 -113 -40 -119 -28
-133 16 -20 41 -12 216 73 85 41 158 74 163 74 24 0 110 -69 134 -108 48 -76
14 -73 -82 8 -16 13 -60 13 -68 0 -3 -5 -12 -10 -19 -10 -12 0 -49 -20 -124
-65 -9 -6 -47 -27 -84 -48 -37 -21 -70 -43 -74 -48 -3 -5 -14 -9 -25 -9 -11 0
-36 -12 -55 -26 -47 -36 -46 -71 4 -119 34 -34 37 -41 36 -90 0 -72 -40 -136
-119 -192 -33 -23 -65 -42 -72 -42 -35 -2 -103 -87 -103 -129 0 -10 -6 -24
-12 -30 -7 -7 -18 -45 -24 -85 -16 -103 -43 -289 -54 -377 -26 -189 -59 -307
-112 -402 -21 -37 -38 -72 -38 -77 0 -5 -20 -38 -44 -73 -24 -35 -51 -82 -62
-104 -10 -21 -28 -52 -40 -69 -39 -55 -39 -79 5 -143 21 -32 57 -74 79 -94 55
-49 55 -51 33 -105 -40 -98 -70 -179 -81 -223 -35 -135 -140 -363 -210 -455
-56 -73 -120 -172 -120 -185 0 -6 -5 -10 -10 -10 -6 0 -15 -12 -21 -27 -5 -14
-23 -46 -39 -70 -17 -24 -30 -48 -30 -53 0 -5 -6 -13 -14 -17 -7 -4 -31 -35
-52 -68 -50 -76 -154 -219 -195 -267 -26 -32 -38 -38 -71 -38 -33 0 -47 -8
-90 -47 -28 -27 -54 -57 -59 -68 -5 -11 -25 -42 -44 -69 -19 -27 -38 -60 -42
-75 -9 -39 -19 -48 -97 -88 -120 -61 -125 -64 -131 -74 -4 -5 -14 -9 -24 -9
-17 0 -105 -31 -141 -50 -9 -4 -34 -11 -57 -15 -44 -7 -82 -44 -98 -95 -4 -14
-15 -34 -24 -45 -25 -30 -61 -83 -61 -90 0 -3 -18 -33 -40 -66 -22 -33 -40
-63 -40 -67 0 -3 -22 -37 -48 -76 -48 -70 -65 -105 -76 -157 -5 -22 0 -31 32
-53 21 -14 46 -26 55 -26 43 0 150 84 224 175 43 54 55 40 43 -45 -5 -36 -13
-144 -16 -240 -7 -211 -6 -216 74 -205 63 8 66 13 99 144 42 167 43 172 55
165 7 -5 8 -34 3 -93 -16 -169 -6 -212 58 -246 46 -25 63 -16 97 50 20 40 26
74 35 185 8 106 13 135 25 138 11 1 22 -19 39 -70 13 -40 34 -95 47 -122 13
-28 24 -57 24 -66 0 -17 40 -60 56 -60 5 0 26 5 46 11 29 8 38 15 38 32 0 12
4 28 8 35 10 15 -12 173 -34 249 -9 28 -14 66 -12 85 3 28 10 37 53 60 28 15
60 32 73 38 55 24 162 123 203 188 9 15 41 52 71 84 121 129 134 150 149 257
16 112 48 162 266 421 45 54 118 147 163 206 45 60 91 115 101 123 10 7 19 19
19 26 0 8 4 15 8 17 22 9 78 97 136 214 36 72 66 134 66 138 0 3 8 25 19 49
10 23 22 55 27 71 15 47 32 43 27 -6 -2 -24 -8 -101 -13 -173 -14 -183 -26
-299 -56 -524 -14 -108 -29 -230 -34 -271 -5 -41 -12 -90 -16 -108 -8 -40 12
-44 28 -4 6 15 17 41 24 59 8 17 14 40 14 50 0 10 4 23 8 29 5 5 14 41 21 79
13 68 17 99 41 270 9 73 24 254 50 640 5 77 14 158 19 180 5 22 12 72 16 110
3 39 10 98 16 132 6 35 9 121 6 195 -4 123 -14 195 -51 398 -8 41 -22 120 -31
175 -10 55 -23 110 -31 122 -24 38 2 34 67 -10 160 -108 462 -210 657 -222 73
-4 77 -5 84 -30 4 -15 10 -119 14 -231 l7 -203 -26 -10 c-15 -6 -75 -15 -134
-21 -143 -14 -210 -28 -217 -46 -3 -7 -12 -14 -21 -14 -8 0 -15 -7 -15 -15 0
-8 -7 -15 -15 -15 -8 0 -15 -4 -15 -10 0 -5 16 -10 35 -10 24 0 35 -5 35 -15
0 -8 -6 -15 -14 -15 -17 0 -26 -58 -31 -184 -2 -50 -12 -125 -23 -166 -11 -41
-21 -82 -21 -90 -4 -47 -14 -106 -21 -115 -5 -5 -8 -27 -8 -47 0 -20 -4 -43
-8 -50 -5 -7 -12 -42 -16 -78 -4 -36 -12 -96 -18 -135 -6 -38 -13 -90 -16
-115 -3 -25 -10 -49 -15 -55 -5 -5 -9 -29 -9 -55 -1 -98 -41 -180 -87 -180
-23 0 -32 23 -14 35 6 3 13 27 17 53 7 46 9 68 12 138 2 26 6 35 16 31 11 -4
14 5 14 41 -1 98 19 225 38 239 10 7 13 13 7 13 -12 0 -10 48 6 141 23 127 42
235 51 284 5 28 12 64 14 80 3 17 12 64 21 105 31 146 32 137 -9 138 -34 1
-35 1 -41 -46 -3 -26 -12 -76 -20 -112 -19 -84 -42 -212 -50 -275 -4 -27 -11
-59 -16 -70 -5 -11 -13 -51 -18 -90 -6 -38 -15 -97 -20 -130 -6 -33 -17 -105
-26 -160 -8 -55 -22 -140 -30 -190 -30 -189 -31 -201 -21 -233 17 -48 42 -62
86 -47 19 7 51 15 71 19 33 6 37 10 43 44 3 20 6 60 6 89 0 28 5 53 10 55 6 2
13 35 16 73 3 39 10 81 15 95 5 14 16 70 24 125 8 55 22 136 29 180 8 44 19
109 25 145 6 36 16 83 21 105 6 22 14 83 19 135 5 52 14 117 20 143 6 26 11
72 12 103 3 75 25 95 121 111 40 6 94 12 121 12 35 1 47 5 47 16 0 22 18 18
32 -7 13 -24 22 -106 34 -308 3 -63 10 -123 15 -132 5 -9 9 -38 9 -65 1 -110
57 -394 83 -420 10 -11 17 -13 17 -5 0 7 -4 12 -9 12 -5 0 -10 42 -10 94 0 52
-10 173 -21 268 -18 159 -36 399 -46 623 -2 50 -9 124 -14 165 -5 41 -14 137
-20 214 -6 76 -13 142 -16 147 -3 5 -9 127 -14 271 -5 145 -12 282 -15 305 -5
36 -3 43 15 53 12 7 32 9 45 6 27 -7 25 7 44 -366 6 -124 16 -281 22 -350 5
-69 14 -181 20 -250 5 -68 14 -129 19 -134 24 -24 28 16 18 191 -6 101 -8 188
-5 195 5 15 56 30 175 53 46 9 91 20 100 25 10 5 62 23 117 41 55 17 118 40
139 50 22 11 43 19 47 19 10 0 87 36 129 60 32 18 56 37 145 112 18 16 35 28
38 28 3 0 30 25 60 55 29 30 56 52 59 50 3 -3 3 -70 1 -148 -5 -156 8 -237 33
-216 8 7 13 28 13 53 -2 54 10 106 24 106 20 -1 74 -80 145 -210 13 -25 32
-58 42 -75 48 -80 52 -113 56 -440 2 -170 7 -326 10 -345 7 -36 8 -47 24 -275
5 -71 12 -143 14 -160 18 -96 47 -242 65 -320 12 -49 25 -110 30 -135 23 -112
43 -198 53 -233 10 -32 9 -40 -5 -54 -13 -13 -21 -14 -39 -6 -40 20 -425 61
-503 54 l-70 -6 78 -23 c48 -15 115 -25 179 -28 56 -3 105 -7 110 -10 4 -3 54
-9 110 -14 57 -5 121 -16 143 -24 22 -8 59 -15 81 -16 26 0 44 -5 47 -14 3 -7
18 -16 34 -19 106 -20 148 -60 158 -151 7 -67 -9 -192 -27 -214 -13 -15 -60
-12 -135 7 -168 43 -264 61 -373 71 -52 5 -133 14 -180 20 -54 7 -198 10 -390
8 l-305 -3 -3 28 c-2 16 -10 31 -18 34 -7 3 -12 9 -9 13 5 9 -41 130 -55 144
-6 6 -10 17 -10 27 0 9 -9 27 -19 40 -10 14 -25 45 -32 69 -7 25 -18 52 -24
60 -6 8 -24 47 -40 85 -15 39 -32 75 -36 80 -4 6 -12 37 -19 70 -6 33 -15 76
-20 95 -9 38 -23 141 -40 295 -6 55 -15 127 -20 160 -5 33 -14 107 -20 165 -6
58 -15 132 -20 165 -14 84 -19 265 -9 292 7 18 18 22 76 28 60 6 192 24 278
39 17 3 48 10 70 15 33 8 24 9 -50 6 -209 -11 -291 -18 -300 -25 -5 -4 -24
-11 -42 -15 -28 -6 -33 -3 -48 24 -8 17 -20 31 -25 31 -14 0 -23 -46 -16 -78
7 -29 11 -75 21 -262 7 -146 32 -402 45 -470 6 -29 10 -88 10 -131 0 -43 4
-80 8 -83 5 -3 10 -31 11 -63 3 -105 35 -252 58 -260 7 -3 13 -15 13 -27 0
-11 9 -32 20 -46 11 -14 20 -31 20 -38 0 -12 16 -48 41 -92 5 -8 11 -21 14
-28 3 -6 7 -18 10 -25 3 -6 19 -34 36 -62 16 -27 39 -70 50 -95 11 -25 33 -72
50 -104 27 -56 28 -60 12 -78 -28 -31 -93 -14 -93 26 0 9 -11 37 -24 64 -35
69 -141 292 -157 330 -22 50 -34 32 -36 -54 -3 -112 -24 -274 -40 -307 -8 -15
-11 -32 -8 -38 4 -5 -1 -21 -9 -34 -17 -26 -50 -33 -61 -15 -4 6 0 66 9 133
27 212 38 418 27 483 -5 32 -13 111 -16 174 -6 110 -9 129 -19 119 -10 -9 -5
-391 5 -424 2 -5 -5 -25 -14 -42 -17 -33 -18 -33 -90 -33 -40 0 -77 -4 -82 -9
-6 -6 -41 -15 -78 -21 -38 -6 -76 -15 -85 -20 -36 -18 -103 -40 -127 -40 -14
0 -25 -4 -25 -10 0 -5 -9 -10 -21 -10 -11 0 -17 -5 -14 -10 4 -7 13 -6 26 1
11 5 52 16 92 24 40 7 128 25 197 39 146 30 198 33 206 11 4 -9 1 -50 -6 -93
-6 -42 -14 -124 -18 -180 l-7 -104 -40 -14 c-22 -7 -52 -14 -66 -14 -14 0 -29
-3 -33 -7 -4 -4 -42 -15 -84 -24 -42 -10 -95 -23 -117 -29 -22 -6 -51 -14 -65
-17 -14 -2 -38 -11 -55 -18 -49 -22 -191 -75 -201 -75 -17 0 -218 -90 -234
-105 -9 -8 -21 -15 -27 -15 -6 0 -17 -10 -25 -21 -21 -32 -56 -17 -79 36 -22
49 -39 155 -38 240 0 51 4 65 27 92 15 17 39 34 53 38 33 8 85 63 72 76 -6 6
-27 0 -58 -17 -39 -22 -51 -25 -66 -16 -25 16 -25 16 -44 -20 -12 -24 -18 -72
-22 -178 -5 -139 -4 -149 21 -225 15 -44 41 -102 59 -129 31 -49 35 -68 76
-341 5 -38 17 -149 26 -245 23 -261 35 -376 59 -570 l22 -175 105 0 c119 1
254 29 227 49 -21 16 -30 56 -12 56 12 0 12 4 4 20 -7 14 -7 20 0 20 5 0 10 7
10 16 0 13 -3 14 -14 5 -12 -10 -15 -7 -18 16 -2 16 -9 29 -18 29 -28 3 -60
16 -60 25 0 5 14 9 30 9 17 0 43 9 58 20 24 17 69 31 202 61 68 16 373 16 449
1 104 -21 98 -11 93 -167 -3 -84 -1 -140 5 -146 6 -6 26 -8 45 -4 l34 6 -2 72
c-1 40 3 77 8 84 15 19 0 71 -20 69 -11 -1 -18 8 -20 23 -3 21 -1 23 22 17 13
-3 27 -2 31 4 6 10 51 -5 75 -27 12 -11 12 -15 -2 -30 -13 -13 -20 -14 -31 -4
-16 13 -27 -3 -27 -39 0 -30 29 -33 40 -4 9 22 13 24 25 14 11 -9 12 -16 4
-26 -6 -7 -9 -27 -7 -45 2 -21 -2 -34 -11 -37 -10 -3 -12 2 -7 22 5 21 3 26
-13 26 -25 0 -37 -18 -22 -33 6 -6 11 -28 11 -48 0 -35 2 -37 33 -37 l32 0 -1
74 c-1 57 2 74 13 74 10 0 13 -17 11 -76 -2 -85 3 -94 65 -94 l37 0 0 48 c0
26 -5 171 -11 322 -6 151 -12 307 -13 345 -2 39 -6 82 -11 97 -6 24 -3 29 16
37 33 12 48 5 94 -45 60 -66 84 -99 100 -141 7 -21 29 -67 48 -103 20 -36 90
-174 157 -307 68 -133 129 -244 137 -247 23 -9 73 -7 73 3 0 5 -9 11 -20 14
-12 3 -20 14 -20 25 0 11 -6 27 -13 34 -15 14 -30 98 -18 98 4 0 12 -5 18 -11
13 -13 18 -5 27 38 6 26 4 34 -14 43 -24 13 -40 6 -40 -18 0 -15 -2 -15 -10
-2 -14 22 -12 40 5 40 10 0 15 10 15 29 0 24 5 31 29 36 16 3 35 13 42 21 6 8
19 14 28 14 9 0 29 7 45 15 64 33 265 95 331 101 39 4 76 11 83 17 7 6 79 12
161 15 l148 5 1 -51 c0 -28 8 -64 16 -81 9 -16 16 -37 16 -46 0 -21 -27 -19
-39 3 -6 9 -11 12 -11 5 0 -23 13 -43 29 -43 13 0 13 -2 2 -9 -17 -11 -5 -32
14 -24 11 4 15 -3 15 -25 0 -17 5 -34 10 -37 6 -3 10 -15 10 -26 0 -10 4 -19
9 -19 5 0 11 -24 14 -52 3 -29 9 -68 12 -85 l7 -33 139 1 c109 1 139 4 139 14
0 21 -20 116 -36 170 -8 28 -19 70 -24 95 -5 25 -18 83 -30 130 -21 85 -25 99
-55 220 -9 36 -22 85 -29 110 -8 25 -19 72 -26 105 -7 33 -23 97 -36 142 -13
45 -28 110 -35 145 -6 35 -15 72 -20 83 -5 11 -20 67 -34 125 -14 58 -37 146
-51 195 -28 98 -30 119 -15 150 21 42 44 143 48 212 5 82 -20 192 -73 318 -42
102 -116 347 -178 588 -57 226 -83 431 -100 807 -12 273 -10 320 19 320 7 0
24 9 39 21 40 32 64 22 98 -41 34 -61 49 -89 127 -220 41 -71 55 -104 61 -153
19 -153 46 -259 105 -412 38 -101 85 -251 85 -274 0 -12 4 -29 10 -39 14 -25
60 -180 60 -202 0 -10 6 -25 13 -32 8 -7 16 -39 20 -70 3 -32 10 -72 16 -90
10 -35 30 -137 38 -200 4 -30 0 -42 -21 -63 -34 -34 -34 -86 -1 -220 36 -144
35 -153 -28 -216 -127 -130 -134 -151 -119 -351 12 -158 10 -370 -3 -400 -4
-10 -4 -26 0 -35 12 -34 41 59 55 177 17 147 19 152 73 144 31 -4 52 -16 81
-46 35 -36 38 -43 32 -76 -18 -98 -33 -153 -44 -164 -6 -6 -12 -31 -12 -54 0
-30 -7 -51 -23 -70 l-23 -26 -40 20 c-21 11 -48 29 -58 41 -24 27 -43 27 -51
0 -4 -11 -5 -22 -3 -23 1 -1 23 -18 48 -38 35 -28 57 -37 102 -42 45 -5 64
-13 85 -34 16 -15 48 -37 72 -49 43 -21 46 -21 74 -5 16 9 42 32 58 50 16 18
42 35 59 38 16 4 35 13 41 20 6 8 16 14 21 14 5 0 34 18 64 41 30 22 87 56
126 76 39 20 86 52 105 71 l35 34 -7 97 c-3 53 -8 103 -11 112 -2 8 -9 60 -15
115 -6 54 -15 142 -21 194 -16 142 -15 208 5 223 11 8 19 40 26 109 22 195 9
254 -63 294 -22 12 -43 28 -47 36 -8 15 -38 218 -74 518 -15 118 -38 271 -51
340 -26 130 -89 407 -103 450 -4 14 -19 59 -32 100 -13 41 -27 77 -31 78 -5 2
-8 14 -8 26 0 12 -5 27 -10 32 -6 6 -23 42 -38 80 -27 66 -69 149 -113 224
-82 136 -137 270 -111 270 4 0 22 19 40 42 34 44 44 109 19 125 -7 4 -30 34
-50 66 -21 31 -42 57 -48 57 -5 0 -9 7 -9 15 0 7 -6 18 -13 22 -8 4 -18 15
-23 24 -10 19 -68 90 -101 126 -13 13 -23 26 -23 29 0 6 -68 88 -122 148 -21
22 -38 44 -38 47 0 3 -11 19 -24 34 -28 32 -47 75 -71 160 -10 33 -40 106 -66
162 -27 56 -49 105 -49 109 0 16 -86 112 -127 141 -58 41 -157 73 -229 73 -32
0 -71 4 -88 10 -17 5 -57 12 -88 15 -52 6 -59 9 -64 33 -4 15 -13 36 -20 47
-20 28 -17 50 11 95 21 34 24 44 14 62 -16 29 -46 54 -89 71 -61 25 -348 55
-542 56 -59 1 -110 5 -113 11 -3 5 5 20 18 32 187 174 245 245 294 359 35 83
60 119 83 119 10 0 22 5 25 10 3 6 13 10 22 10 9 0 50 17 91 38 216 108 213
105 153 129 -23 9 -41 20 -41 24 0 5 37 26 83 48 100 49 168 87 176 99 3 5 14
11 24 15 26 10 21 25 -20 60 -20 18 -70 62 -112 100 -42 37 -80 67 -85 67 -10
0 -35 30 -36 43 0 4 22 7 49 7 28 0 52 4 56 9 7 13 -41 57 -83 78 -30 14 -70
68 -59 80 3 2 24 -5 47 -17 40 -20 43 -21 61 -4 28 25 24 62 -12 95 -17 16
-37 29 -44 29 -7 0 -18 6 -24 14 -7 8 -25 18 -41 21 -15 3 -36 15 -46 26 -9
10 -22 19 -27 19 -5 0 -47 18 -92 40 l-82 40 -7 93 c-4 50 -13 130 -21 177 -7
47 -19 123 -26 170 -19 135 -60 230 -132 308 -28 28 -58 52 -68 52 -10 0 -20
8 -23 18 -12 36 -173 100 -321 127 -140 26 -220 42 -235 49 -17 7 -222 13
-285 8z m345 -56 c47 -9 112 -24 145 -34 33 -11 86 -27 117 -36 31 -10 87 -33
124 -52 37 -19 71 -34 76 -34 32 0 142 -147 152 -205 4 -21 14 -48 22 -59 8
-11 14 -34 14 -51 0 -16 6 -64 14 -105 21 -117 38 -272 35 -310 -4 -40 4 -39
-123 -11 -49 11 -121 21 -160 22 -39 1 -75 5 -81 8 -41 22 -588 -3 -637 -30
-10 -5 -28 -9 -40 -9 -29 -1 -115 -23 -124 -33 -4 -4 -17 -7 -29 -7 -47 0
-412 -121 -450 -149 -18 -14 -145 -64 -150 -60 -23 24 -35 530 -15 654 14 92
91 252 129 268 14 6 30 17 34 24 4 7 14 13 21 13 8 0 19 7 26 15 11 14 72 45
173 89 21 9 49 16 62 16 13 0 26 4 29 9 4 5 24 12 45 16 22 3 47 13 58 20 10
8 32 15 48 16 17 0 66 9 110 19 93 22 235 20 375 -4z m-1193 -858 c-2 -13 -4
-3 -4 22 0 25 2 35 4 23 2 -13 2 -33 0 -45z m-70 -97 c8 -19 16 -56 17 -82 4
-90 21 -68 30 36 2 28 5 53 5 58 2 15 17 6 18 -10 1 -10 5 -51 9 -90 7 -72 7
-73 -17 -74 -21 -1 -21 -2 -4 -6 31 -8 38 -19 20 -37 -13 -12 -21 -14 -36 -6
-11 6 -23 9 -28 6 -18 -11 -33 25 -37 86 -11 174 -12 211 -6 226 4 11 8 1 10
-28 2 -25 10 -60 19 -79z m13 37 c0 -19 -2 -20 -10 -8 -13 19 -13 30 0 30 6 0
10 -10 10 -22z m1507 2 c134 -10 215 -16 236 -19 4 -1 7 -5 7 -11 0 -5 -17
-10 -37 -10 -40 0 -35 -13 8 -23 15 -4 33 -1 45 7 22 16 82 10 102 -11 7 -7
28 -13 45 -13 18 -1 50 -9 72 -20 22 -11 45 -19 52 -20 21 0 123 -65 123 -77
0 -20 -39 -15 -67 7 -14 11 -36 20 -49 20 -15 0 -24 6 -24 15 0 19 -14 19 -67
0 -30 -10 -50 -12 -67 -5 -14 5 -110 7 -223 4 -253 -7 -248 -7 -378 -32 -60
-12 -163 -26 -227 -31 -64 -5 -121 -12 -128 -16 -6 -4 -37 -9 -68 -11 -97 -8
-106 -10 -139 -27 -18 -10 -45 -17 -61 -17 -15 0 -33 -5 -40 -12 -7 -7 -60
-11 -159 -12 -146 0 -223 10 -230 29 -3 11 46 35 138 70 32 11 63 26 70 32 8
6 28 13 44 16 34 5 97 29 105 38 3 3 28 9 55 13 61 9 194 43 217 56 24 14 156
40 200 40 20 0 39 4 43 9 3 6 19 8 35 6 16 -2 51 0 77 5 70 11 123 11 290 0z
m23 -247 c0 -7 -22 -26 -59 -52 -18 -13 -40 -39 -47 -57 -19 -44 -38 -45 -29
-1 13 56 43 105 72 114 26 9 63 7 63 -4z m220 -15 c19 -10 40 -18 46 -18 6 0
30 -14 53 -31 55 -39 76 -33 68 21 -4 29 -1 40 8 40 21 0 34 -23 51 -96 16
-70 15 -149 -6 -289 -5 -33 -11 -132 -15 -220 -6 -181 -21 -305 -41 -352 -8
-17 -14 -37 -14 -45 0 -7 -14 -29 -32 -48 -18 -19 -54 -62 -82 -95 -27 -33
-54 -64 -61 -70 -6 -5 -34 -28 -60 -50 -27 -22 -58 -50 -70 -61 -30 -32 -92
-62 -154 -75 -56 -12 -111 -50 -111 -76 0 -26 -42 -36 -129 -29 -46 3 -89 10
-95 16 -6 5 -43 14 -81 21 -39 7 -79 19 -90 26 -11 7 -27 13 -37 13 -10 0 -42
11 -72 25 -30 14 -59 25 -64 25 -18 0 -128 65 -158 93 -17 16 -56 63 -85 104
-81 113 -94 127 -111 120 -14 -5 -15 -10 -2 -48 8 -23 11 -46 7 -50 -10 -10
-161 51 -205 82 -91 65 -150 142 -178 233 -18 55 -9 199 13 221 9 9 17 20 17
25 0 4 16 11 35 14 39 8 80 -15 149 -79 64 -60 64 -61 57 195 -2 58 0 127 4
153 7 44 6 49 -14 54 -25 6 -26 23 -5 80 28 73 74 65 74 -13 0 -40 2 -44 24
-44 17 0 30 10 44 34 26 45 73 68 139 71 52 1 70 -9 36 -22 -30 -11 -103 -75
-103 -90 0 -8 -7 -28 -17 -46 -17 -33 -42 -173 -43 -238 0 -45 34 -120 43 -94
4 9 7 45 7 79 0 115 47 245 109 303 66 63 143 67 213 11 36 -28 38 -33 38 -84
0 -49 2 -54 23 -54 12 0 49 22 82 48 33 26 77 58 97 71 l38 23 8 -24 c5 -13
10 -43 11 -67 1 -25 11 -89 22 -144 10 -54 19 -100 19 -103 0 -2 6 -4 13 -4
16 0 50 52 80 125 14 33 41 89 60 125 18 36 37 78 41 95 7 28 21 44 39 45 4 0
7 -17 7 -39 0 -44 26 -77 35 -45 18 60 70 145 100 164 55 34 141 19 190 -34
42 -45 95 -187 95 -253 0 -29 34 -73 46 -61 3 4 5 39 5 80 0 84 -21 170 -51
210 -11 15 -20 31 -20 36 0 16 -81 82 -125 102 -25 12 -43 25 -40 30 9 14 83
1 125 -22z m-843 -56 c10 -6 8 -19 -6 -57 -10 -27 -23 -51 -29 -53 -6 -2 -28
8 -49 21 -21 14 -53 28 -70 32 -49 10 -40 22 25 35 31 7 66 16 77 20 26 11 37
11 52 2z m1158 -566 c-16 -80 -41 -143 -52 -132 -9 9 -4 127 9 236 8 66 18
104 32 123 l21 29 3 -88 c2 -54 -4 -120 -13 -168z m-165 -813 c8 -3 53 -7 100
-8 108 -2 219 -15 226 -26 3 -5 22 -9 43 -9 36 0 61 -14 61 -35 0 -6 -18 -32
-40 -59 -46 -55 -52 -86 -17 -86 32 0 51 -15 43 -35 -5 -14 -13 -16 -39 -11
-71 15 -175 25 -197 19 -19 -5 -22 -3 -17 10 4 10 2 17 -3 17 -6 0 -10 -7 -10
-15 0 -11 -11 -15 -40 -15 -54 0 -53 21 3 75 l44 41 34 -23 c19 -13 40 -31 47
-40 9 -13 18 -15 40 -7 42 15 39 43 -9 89 -39 37 -47 40 -98 40 -41 0 -72 -8
-113 -28 -32 -15 -58 -32 -58 -37 0 -5 -8 -11 -17 -14 -10 -3 -49 -37 -88 -76
-38 -38 -75 -70 -82 -70 -7 0 -16 -6 -20 -12 -4 -7 -28 -29 -53 -47 -25 -19
-49 -41 -53 -48 -4 -7 -13 -13 -20 -13 -7 0 -32 -14 -56 -30 -24 -17 -52 -30
-63 -30 -10 0 -18 -4 -18 -9 0 -5 -14 -14 -31 -21 -41 -18 -56 -2 -29 32 11
15 20 33 20 41 0 20 41 119 57 138 7 8 13 25 13 36 0 12 11 43 24 70 14 27 29
61 35 76 6 15 15 27 21 27 5 0 10 16 10 35 0 29 6 39 31 54 27 17 47 18 167
14 75 -2 144 -7 152 -10z m-425 -3 c23 -9 26 -14 20 -38 -3 -15 -12 -34 -20
-42 -21 -25 -75 -158 -75 -186 0 -9 -11 -38 -25 -66 -14 -27 -25 -55 -25 -61
-1 -17 -51 -126 -74 -160 -16 -23 -25 -28 -55 -25 -26 2 -35 7 -32 18 47 190
66 261 77 287 8 17 14 39 14 48 0 9 14 46 30 82 17 35 30 70 30 77 0 11 83 73
102 75 4 1 19 -4 33 -9z m-649 -132 c16 -24 31 -45 34 -48 12 -12 137 -207
143 -222 4 -10 11 -18 17 -18 5 0 10 -6 10 -14 0 -7 9 -25 20 -39 22 -28 27
-87 8 -87 -28 0 -51 27 -163 192 -25 36 -52 69 -60 72 -8 3 -15 10 -15 16 0
11 -59 70 -71 70 -15 0 -20 39 -8 62 9 17 45 55 55 58 1 0 14 -19 30 -42z
m261 -98 c31 -17 63 -28 70 -26 7 3 26 0 43 -6 23 -8 29 -15 24 -27 -3 -9 -10
-30 -14 -47 -4 -18 -15 -46 -24 -64 -8 -18 -13 -37 -10 -42 3 -5 0 -23 -6 -39
-21 -50 -48 -35 -93 51 -57 105 -89 200 -75 217 15 18 21 17 85 -17z m-375 -7
c16 -10 32 -29 35 -44 3 -14 18 -33 34 -43 16 -9 29 -24 29 -32 0 -8 8 -22 18
-32 54 -56 112 -125 112 -133 0 -6 7 -17 16 -26 11 -12 12 -19 4 -27 -8 -8
-19 -6 -41 7 -17 9 -36 17 -42 17 -7 0 -22 11 -34 24 -13 13 -35 26 -50 29
-16 2 -64 15 -108 27 -44 12 -111 25 -149 29 -69 6 -70 6 -102 53 -28 39 -31
48 -19 58 8 7 22 10 30 6 9 -3 18 1 21 9 3 7 19 17 35 20 16 4 35 12 42 18 21
19 56 37 72 37 8 0 15 5 15 10 0 16 49 12 82 -7z m1146 -95 c8 -8 8 -19 -2
-42 -7 -17 -11 -36 -9 -42 2 -6 -3 -17 -12 -24 -8 -7 -15 -20 -15 -29 0 -9
-12 -27 -25 -40 -14 -13 -25 -31 -25 -42 0 -10 -6 -22 -12 -26 -7 -4 -34 -35
-60 -68 -65 -81 -117 -132 -150 -146 -16 -6 -28 -15 -28 -20 0 -5 -22 -20 -49
-34 -27 -13 -51 -29 -53 -35 -2 -7 -19 -12 -38 -13 l-34 -2 -22 125 -22 125
36 32 c21 18 46 33 57 33 11 1 38 12 60 25 22 14 59 33 81 45 23 11 47 26 53
34 7 8 26 18 42 21 16 4 29 10 29 14 0 4 20 22 45 41 25 19 45 39 45 45 0 10
48 31 81 34 8 0 20 -4 27 -11z m532 -18 c8 -4 45 -11 83 -15 37 -4 70 -12 73
-17 3 -5 -9 -24 -26 -41 -41 -40 -70 -86 -70 -112 0 -11 -9 -49 -20 -85 -20
-66 -80 -365 -80 -399 0 -11 -24 -65 -54 -121 -42 -81 -73 -123 -151 -206 -54
-57 -103 -104 -108 -104 -5 0 -30 -15 -56 -33 -82 -58 -322 -166 -373 -167 -9
0 -21 -6 -25 -13 -4 -7 -39 -21 -78 -31 -38 -10 -87 -24 -108 -32 -20 -8 -48
-14 -61 -14 -24 0 -25 3 -29 83 -3 45 -11 152 -18 238 -15 183 -8 252 27 257
31 4 56 36 59 74 2 18 3 36 4 40 1 3 26 18 57 32 31 14 70 37 87 51 30 23 44
35 109 88 113 94 268 258 268 283 0 4 9 17 19 28 11 12 36 53 56 91 21 39 49
87 64 109 l25 38 156 -7 c85 -4 162 -11 170 -15z m408 -96 c19 -13 40 -24 46
-24 25 0 113 -168 136 -262 7 -26 18 -53 26 -59 8 -6 14 -19 14 -28 0 -9 4
-21 8 -27 5 -5 14 -29 21 -54 7 -25 21 -54 32 -65 42 -45 69 -78 69 -86 0 -5
7 -9 15 -9 8 0 15 -8 15 -19 0 -10 7 -24 15 -31 8 -7 15 -18 15 -24 0 -6 8
-16 18 -22 9 -6 31 -31 47 -55 16 -24 38 -54 49 -66 11 -13 17 -23 14 -23 -3
0 12 -19 33 -42 22 -24 39 -48 39 -54 0 -6 16 -28 36 -48 42 -43 36 -56 -27
-56 -20 0 -39 -6 -42 -12 -2 -7 -33 -24 -68 -38 -35 -13 -81 -34 -101 -47 -21
-13 -42 -23 -48 -23 -6 0 -40 -22 -75 -49 -84 -64 -88 -68 -143 -123 -84 -83
-118 -122 -152 -175 -18 -29 -37 -53 -41 -53 -22 0 -39 15 -39 35 0 24 -46
131 -59 140 -5 2 -12 25 -15 49 -4 24 -16 52 -26 61 -26 23 -25 41 1 48 17 5
20 11 15 29 -3 13 -6 34 -6 47 0 19 -3 21 -14 12 -11 -9 -16 -9 -22 0 -4 8 -1
17 8 22 14 9 14 12 -1 29 -8 10 -21 18 -29 18 -7 0 -17 10 -22 23 -5 12 -9 16
-9 9 -1 -17 -78 -6 -102 14 -8 8 -21 14 -28 14 -10 0 -11 33 -7 143 6 182 35
400 65 502 5 17 12 53 16 80 18 135 68 275 98 275 5 0 24 11 41 23 17 13 38
27 46 30 27 10 103 -5 138 -29z m-2264 -57 c18 -37 18 -39 0 -52 -11 -8 -31
-15 -47 -15 -26 0 -27 1 -21 43 3 23 8 48 10 55 7 24 39 7 58 -31z m300 -75
c38 -6 61 -14 68 -25 5 -9 13 -17 18 -17 6 0 19 -9 30 -20 11 -11 27 -20 36
-20 15 0 16 -13 10 -132 -4 -73 -11 -137 -16 -142 -10 -10 -90 21 -90 36 0 4
-9 8 -21 8 -12 0 -23 8 -26 20 -3 11 -9 20 -13 20 -18 0 -68 51 -84 85 -9 19
-21 35 -26 35 -6 0 -10 10 -10 23 0 12 -8 36 -18 52 -10 17 -22 45 -25 64 l-7
34 57 -7 c32 -4 84 -10 117 -14z m326 -5 c0 -22 -26 -51 -38 -43 -13 8 -16 39
-5 49 11 12 43 7 43 -6z m64 -59 c12 -13 63 -302 68 -385 1 -24 -3 -48 -10
-55 -7 -7 -46 -13 -95 -14 -45 -2 -95 -4 -111 -6 l-29 -3 1 68 c0 37 1 132 1
212 1 132 3 145 20 155 13 7 28 7 46 0 28 -11 63 1 78 26 10 17 15 17 31 2z
m-678 -25 c21 -65 48 -114 83 -152 23 -24 41 -50 41 -58 0 -7 8 -17 18 -20 9
-4 29 -18 44 -32 71 -69 66 -65 211 -136 29 -14 37 -24 37 -45 0 -35 17 -50
56 -50 41 0 49 -12 51 -80 0 -30 6 -154 12 -274 7 -121 9 -226 6 -233 -7 -19
-124 -8 -230 22 -44 13 -94 26 -112 30 -17 3 -37 12 -43 20 -6 7 -30 17 -53
20 -23 4 -47 11 -53 16 -6 5 -48 27 -92 49 -54 26 -95 55 -124 86 -24 26 -53
57 -65 69 -13 12 -23 29 -23 37 0 8 -5 19 -12 26 -6 6 -15 35 -20 64 -14 87
-26 159 -37 223 -5 33 -12 94 -15 135 -2 41 -8 83 -11 93 -8 20 19 67 39 67 7
0 19 7 26 15 7 8 23 15 36 15 12 0 26 5 29 11 4 6 13 8 21 5 8 -3 11 0 8 8 -7
18 18 36 89 62 78 28 76 28 83 7z m-366 -507 c12 -99 29 -194 36 -213 18 -43
44 -165 44 -207 0 -19 9 -62 20 -96 21 -67 27 -125 10 -115 -5 3 -10 14 -10
24 0 10 -15 38 -32 62 -45 60 -58 85 -58 108 0 24 -37 71 -56 71 -8 0 -15 -11
-16 -27 -2 -41 1 -57 15 -93 3 -8 11 -34 17 -57 6 -24 14 -43 18 -43 9 0 7
-38 -3 -63 -4 -10 -4 -21 -1 -24 4 -4 9 3 13 15 6 25 14 27 31 10 17 -17 15
-25 -7 -31 -19 -5 -35 -54 -20 -62 4 -3 7 -13 7 -23 -1 -23 9 -69 18 -83 4 -7
8 -45 9 -85 3 -93 24 -204 43 -226 10 -12 11 -18 4 -18 -7 0 -12 -7 -12 -15 0
-8 5 -15 11 -15 7 0 9 -10 5 -25 -5 -18 -1 -27 13 -34 27 -15 31 1 32 142 1
91 3 112 9 82 5 -22 9 -92 9 -156 l0 -116 -71 4 c-79 4 -113 16 -213 75 -68
41 -175 137 -175 158 0 5 -6 10 -12 10 -20 0 -73 73 -70 95 4 27 30 83 42 90
6 4 7 11 4 17 -4 6 -3 13 2 17 12 8 32 40 47 74 7 17 17 25 25 22 10 -3 12 0
9 10 -4 8 -2 17 4 20 5 4 7 11 3 16 -3 5 5 24 18 42 65 87 146 294 131 333 -3
7 0 28 6 46 9 28 22 144 37 318 4 55 14 119 21 144 11 39 22 -6 43 -178z
m2375 -383 c8 -31 16 -133 10 -133 -2 0 -11 14 -19 31 -11 23 -13 36 -5 45 10
13 -6 32 -18 20 -3 -3 -15 6 -26 20 -17 22 -18 27 -6 35 29 18 57 10 64 -18z
m851 -95 c32 -69 57 -115 89 -163 17 -27 40 -72 50 -100 10 -27 24 -57 31 -65
19 -23 68 -114 130 -240 31 -63 61 -116 65 -118 5 -2 9 -16 9 -31 0 -15 9 -45
20 -66 21 -40 41 -116 61 -229 5 -33 12 -63 15 -68 15 -25 131 -690 150 -858
3 -30 12 -86 19 -124 8 -38 11 -74 9 -78 -3 -5 -67 -8 -142 -6 -76 2 -169 -1
-209 -5 l-72 -9 -10 39 c-10 38 -65 299 -77 363 -3 19 -12 45 -20 57 -8 12
-14 29 -14 37 0 9 -6 35 -14 58 -8 24 -22 70 -31 103 -35 122 -47 160 -55 180
-4 11 -13 40 -20 65 -7 25 -16 50 -20 55 -14 18 -60 177 -70 242 -6 35 -22
105 -36 155 -35 127 -35 128 -44 128 -4 0 -15 17 -24 38 -9 20 -30 57 -46 82
-16 25 -34 56 -40 70 -6 13 -29 50 -51 82 -21 32 -39 61 -39 65 0 5 -14 26
-30 47 -29 38 -40 86 -20 86 9 0 135 85 158 107 6 6 21 14 31 18 11 3 22 12
25 20 3 8 20 21 38 30 18 9 53 27 78 40 64 34 88 32 106 -7z m-3084 -390 c-13
-13 -26 8 -17 30 6 16 7 16 17 -1 7 -13 7 -22 0 -29z m2399 -73 c16 -13 35
-22 43 -19 30 12 36 -22 37 -212 0 -190 31 -617 48 -664 5 -14 17 -68 27 -120
9 -52 23 -113 30 -135 7 -22 15 -58 19 -80 4 -22 13 -47 19 -55 7 -8 22 -59
35 -112 13 -54 27 -100 32 -104 5 -3 9 -14 9 -25 0 -22 45 -160 63 -194 14
-26 26 -95 17 -95 -4 0 -28 11 -54 25 -26 14 -56 25 -67 25 -25 0 -80 28 -95
49 -7 8 -12 32 -12 52 -1 75 -61 421 -104 604 -37 158 -59 344 -68 585 -5 129
-11 295 -14 368 -3 72 -3 132 0 132 4 0 19 -11 35 -25z m-2733 -372 c7 -7 18
-13 23 -13 5 0 22 -9 37 -20 27 -19 106 -42 217 -63 33 -6 63 -16 67 -22 12
-16 -18 -136 -49 -197 -7 -15 -25 -58 -39 -95 -30 -81 -50 -128 -70 -166 -8
-16 -14 -35 -14 -43 0 -13 -7 -29 -31 -74 -5 -8 -17 -33 -27 -55 -29 -62 -290
-425 -361 -503 -18 -20 -45 -53 -60 -72 -14 -19 -39 -49 -56 -67 -44 -47 -109
-123 -119 -140 -4 -9 -17 -24 -27 -34 -11 -11 -19 -23 -19 -29 0 -25 -40 -7
-61 28 -12 20 -39 53 -59 73 -40 40 -142 99 -172 99 -35 0 -31 29 13 93 23 34
71 105 105 157 34 52 69 102 77 111 7 8 37 56 66 105 120 205 160 265 220 331
39 44 61 77 70 110 7 27 19 62 26 78 40 86 85 203 85 218 0 9 3 17 8 17 7 0
23 39 46 115 21 71 33 86 64 78 15 -3 33 -12 40 -20z m3965 -1398 c16 -8 27
-9 27 -3 0 6 9 8 23 3 12 -3 50 -12 85 -19 88 -18 93 -28 89 -154 -2 -56 -8
-107 -14 -113 -7 -7 -28 -4 -69 9 -96 32 -230 37 -352 13 -57 -12 -110 -21
-117 -21 -7 0 -17 15 -20 33 -4 17 -12 37 -17 44 -5 7 -11 43 -13 80 -4 67 -4
68 29 96 60 48 275 69 349 32z m-4848 -45 c0 -10 -8 -14 -25 -13 -14 2 -40 4
-57 5 -31 2 -40 8 -28 20 3 3 29 5 58 4 39 -1 52 -5 52 -16z m-130 -20 c-3 -5
-10 -10 -16 -10 -5 0 -9 5 -9 10 0 6 7 10 16 10 8 0 12 -4 9 -10z m73 -30 c15
0 18 -6 14 -30 -3 -21 0 -30 9 -31 8 0 27 -2 43 -2 23 -2 31 -9 39 -31 7 -21
6 -30 -4 -37 -11 -6 -11 -11 -1 -21 6 -6 12 -16 12 -20 0 -16 -37 -8 -55 12
-10 11 -26 20 -35 20 -9 0 -27 8 -38 19 -23 19 -29 41 -12 41 6 0 10 12 10 26
0 19 -4 25 -17 22 -10 -2 -18 -10 -18 -18 0 -8 -4 -21 -8 -27 -10 -16 -47 -17
-47 -2 0 7 -12 10 -30 7 -40 -6 -38 10 6 47 41 35 72 45 96 33 9 -4 25 -8 36
-8z m2432 -4 c0 -6 13 -37 29 -68 33 -65 30 -73 -36 -84 -50 -8 -57 1 -44 58
6 24 13 60 16 80 4 27 10 36 20 31 8 -3 15 -10 15 -17z m-2283 -3 c-10 -3 -17
-12 -16 -21 3 -32 -1 -42 -16 -42 -21 0 -19 47 3 59 9 6 24 10 32 10 10 -1 9
-3 -3 -6z m53 -33 c0 -15 -38 -32 -45 -20 -3 5 -3 15 0 20 8 13 45 13 45 0z
m-50 -50 c0 -5 -4 -10 -10 -10 -5 0 -10 5 -10 10 0 6 5 10 10 10 6 0 10 -4 10
-10z m3324 -299 c4 -5 2 -12 -3 -15 -5 -4 -13 -2 -16 4 -4 7 -11 7 -18 2 -7
-5 -30 -9 -52 -11 -22 -1 -48 -4 -57 -7 -22 -7 -24 -44 -3 -44 8 0 15 5 15 10
0 6 14 10 30 10 17 0 30 -5 30 -12 0 -9 3 -9 9 1 8 13 12 13 26 1 10 -8 19
-10 23 -4 4 5 14 9 22 9 8 0 18 13 21 30 l7 30 1 -32 c1 -40 18 -43 27 -5 10
46 12 48 13 11 1 -47 12 -56 27 -22 l12 28 9 -24 c8 -21 10 -22 16 -6 6 14 10
15 22 5 8 -7 15 -19 15 -26 0 -20 10 -17 36 7 14 13 29 19 40 15 14 -5 11 -12
-22 -41 -24 -22 -33 -35 -23 -35 8 0 26 11 39 25 29 31 52 18 43 -26 -5 -25
-2 -29 16 -29 25 0 41 -13 62 -50 13 -24 15 -30 18 -49 0 -5 10 -11 22 -14 11
-3 25 -19 32 -36 6 -17 18 -31 25 -31 17 0 62 -41 62 -56 0 -7 10 -14 21 -17
15 -4 20 -11 15 -22 -4 -10 2 -19 18 -25 13 -4 32 -19 42 -33 11 -13 29 -29
41 -35 12 -7 24 -25 28 -42 4 -16 11 -32 16 -35 5 -4 9 -24 9 -46 0 -21 5 -39
10 -39 6 0 10 -8 10 -18 0 -10 5 -23 10 -28 6 -6 15 -53 21 -105 6 -52 16
-103 24 -115 7 -11 15 -36 17 -55 l3 -34 -105 -6 c-126 -8 -198 -18 -206 -30
-3 -5 -36 -9 -73 -9 -69 0 -227 -25 -246 -39 -5 -4 -41 -13 -80 -21 -38 -7
-77 -17 -85 -21 -81 -41 -122 -59 -135 -59 -9 0 -39 -12 -67 -26 -36 -18 -62
-25 -89 -22 -32 3 -39 0 -39 -14 0 -10 -3 -18 -7 -18 -15 0 -53 67 -53 92 0
14 -7 31 -15 38 -18 15 -20 53 -3 48 12 -4 22 -20 33 -53 5 -13 9 -15 12 -7 3
6 16 12 29 12 15 0 24 6 24 16 0 13 7 15 35 10 34 -7 35 -6 35 23 0 24 -7 34
-32 47 -18 9 -37 23 -41 30 -4 8 -14 14 -21 14 -8 0 -31 17 -52 38 -22 21 -66
55 -99 75 -33 19 -65 45 -72 55 -7 11 -25 23 -42 27 -18 4 -31 14 -34 27 -4
13 -11 19 -21 15 -8 -3 -20 0 -26 8 -6 8 -34 28 -61 45 l-49 32 0 88 c0 49 -5
123 -11 166 -11 82 -12 97 -24 297 -7 113 -6 127 8 127 9 0 18 -4 21 -9 3 -4
121 -8 263 -7 238 1 258 2 258 18 0 10 5 17 10 15 6 -1 9 -6 7 -11 -1 -4 0
-17 3 -27 10 -30 27 -11 20 21 -6 26 -3 29 22 32 77 9 192 8 197 -1z m236 -4
c0 -16 -47 -43 -57 -34 -8 9 27 47 44 47 7 0 13 -6 13 -13z m150 -7 c12 -8 11
-10 -7 -10 -12 0 -25 5 -28 10 -8 13 15 13 35 0z m151 -20 c10 -6 19 -16 19
-22 0 -7 -4 -7 -13 1 -17 13 -27 5 -27 -23 0 -12 -7 -32 -16 -45 -15 -21 -15
-24 -1 -39 15 -14 18 -11 42 39 21 46 25 50 25 26 0 -15 6 -30 14 -33 18 -7
40 -85 34 -124 -3 -21 1 -35 14 -47 10 -9 18 -26 18 -38 0 -11 5 -26 11 -32 6
-6 8 -21 4 -34 l-8 -24 -8 23 c-5 12 -20 27 -34 34 -14 6 -25 20 -25 30 0 10
-7 21 -15 24 -8 4 -15 11 -15 16 0 6 -20 33 -45 60 -25 28 -45 59 -45 69 0 10
-4 19 -8 19 -14 0 -58 43 -72 69 -15 29 -6 37 50 44 25 3 37 3 28 0 -18 -5
-23 -28 -12 -57 5 -14 9 -14 31 1 20 13 24 22 19 45 -6 30 3 35 35 18z m-1442
-77 c14 -82 38 -247 53 -363 5 -47 16 -116 23 -155 7 -38 11 -72 9 -74 -10
-11 -54 25 -63 51 -6 17 -20 32 -31 35 -24 6 -80 95 -80 127 0 14 -4 37 -10
51 -5 14 -12 50 -14 78 -2 29 -9 98 -16 155 -7 56 -11 104 -9 106 2 2 16 2 31
-1 24 -5 26 -8 21 -39 -6 -36 13 -49 23 -16 3 9 12 29 20 44 8 14 14 38 14 53
0 47 16 18 29 -52z m-2850 22 c17 -20 31 -46 31 -58 0 -31 -166 -211 -198
-215 -24 -3 -25 -2 -19 38 3 23 29 94 58 156 61 130 75 139 128 79z m2616 -75
c4 -22 4 -44 0 -50 -7 -12 8 -42 21 -41 5 1 10 -22 12 -51 2 -29 7 -57 13 -64
5 -6 12 -39 15 -72 7 -63 -3 -92 -32 -92 -12 0 -42 44 -46 67 0 5 -8 13 -17
20 -14 11 -14 12 5 13 13 0 24 -8 27 -20 5 -20 37 -29 37 -9 0 5 -22 31 -49
57 -39 38 -49 55 -54 90 -3 29 -14 51 -31 67 -28 26 -35 65 -12 65 8 0 22 7
30 16 10 9 16 11 16 4 0 -17 25 -6 26 11 2 34 5 38 18 33 8 -3 17 -23 21 -44z
m-3084 -82 c14 -33 9 -42 -67 -121 -32 -35 -86 -93 -119 -130 -61 -68 -96 -84
-109 -51 -4 10 0 26 9 38 8 12 23 32 32 46 9 14 29 44 44 67 16 23 29 44 29
47 0 3 16 30 35 60 19 30 35 58 35 61 0 4 10 15 22 24 20 17 24 17 50 2 15 -9
33 -28 39 -43z m2479 -98 c0 -5 -5 -10 -11 -10 -5 0 -7 5 -4 10 3 6 8 10 11
10 2 0 4 -4 4 -10z m-2376 -30 c54 -20 65 -78 36 -190 -6 -25 -15 -65 -19 -90
-4 -25 -15 -67 -24 -95 -9 -27 -20 -68 -24 -90 -5 -27 -14 -41 -27 -43 -17 -4
-18 4 -11 160 3 89 10 191 15 225 5 34 6 71 3 82 -6 24 2 51 16 51 5 0 21 -4
35 -10z m2535 -17 c-4 -49 -1 -53 49 -52 26 0 79 -3 117 -6 64 -6 72 -10 87
-36 10 -16 25 -29 35 -29 10 0 40 -16 67 -35 53 -38 116 -49 116 -20 0 22 10
18 45 -17 17 -18 57 -53 88 -78 30 -24 60 -55 66 -67 6 -13 17 -23 25 -23 7 0
19 -7 26 -15 11 -13 10 -18 -6 -29 -10 -8 -16 -18 -12 -22 4 -4 14 -2 21 5 31
25 38 -11 37 -215 -1 -110 -1 -208 -2 -219 0 -11 3 -30 7 -42 6 -19 4 -23 -13
-23 -12 0 -23 9 -27 19 -7 22 -11 22 -139 10 -61 -7 -92 -6 -101 1 -44 36
-434 39 -647 4 -32 -5 -38 -3 -39 12 -1 17 -2 17 -6 2 -2 -10 -11 -18 -19 -18
-18 0 -18 4 1 40 9 18 11 31 5 35 -6 3 -14 -4 -19 -17 l-10 -23 0 22 c-1 13
-10 28 -21 35 -18 11 -18 14 -3 30 9 10 13 18 10 18 -3 0 -1 15 4 33 6 17 10
64 9 103 -1 52 3 74 14 83 12 10 13 18 5 32 -5 11 -7 30 -3 42 4 12 7 45 8 74
1 41 -3 53 -14 54 -10 0 -11 2 -2 6 7 3 12 27 13 66 l2 62 7 -45 c5 -25 6 -53
3 -64 -3 -12 -1 -17 8 -14 12 4 18 50 20 153 1 28 3 41 6 30 2 -11 9 -29 14
-41 6 -11 9 -24 7 -30 -2 -5 1 -9 7 -9 5 0 8 6 7 14 -2 8 2 17 8 21 7 4 15 22
18 39 8 37 25 42 33 9 3 -13 8 11 12 56 7 83 15 96 55 96 16 0 23 -5 21 -17z
m342 7 c10 -6 19 -15 19 -20 0 -17 -26 -11 -45 10 -20 22 -7 27 26 10z m-444
-52 c-3 -8 -6 -5 -6 6 -1 11 2 17 5 13 3 -3 4 -12 1 -19z m-2199 -46 c22 -17
22 -20 12 -112 -19 -183 -37 -301 -47 -311 -26 -26 -34 22 -37 198 -1 98 -5
188 -10 200 -7 19 -4 25 15 32 34 14 41 13 67 -7z m2159 -54 c-3 -7 -5 -2 -5
12 0 14 2 19 5 13 2 -7 2 -19 0 -25z m-1913 -63 c10 -38 23 -79 28 -90 14 -31
6 -160 -10 -160 -7 0 -25 33 -39 75 -14 41 -36 92 -49 112 -13 20 -26 49 -30
65 -4 15 -11 33 -16 40 -17 22 3 34 50 31 l47 -3 19 -70z m5007 35 c39 -42 37
-72 -8 -130 -6 -8 -25 -42 -42 -75 -38 -73 -80 -134 -102 -148 -13 -8 -32 -4
-75 15 l-59 25 -3 59 c-2 45 2 67 18 92 21 35 37 41 46 17 5 -13 10 -12 29 7
17 18 25 40 30 93 4 39 10 74 13 79 2 5 32 6 65 3 51 -5 64 -10 88 -37z m83
-153 c23 -17 14 -36 -33 -69 -66 -47 -81 -29 -36 42 27 42 40 48 69 27z
m-1904 -316 c0 -10 12 -23 26 -30 25 -11 26 -12 9 -31 -21 -24 -35 -17 -35 16
0 13 -4 24 -9 24 -12 0 -23 29 -15 41 8 14 24 1 24 -20z m150 -86 c0 -8 -4
-15 -10 -15 -5 0 -10 7 -10 15 0 8 5 15 10 15 6 0 10 -7 10 -15z m1116 -36 c4
-7 0 -15 -8 -20 -13 -7 -13 -15 -3 -56 7 -26 9 -49 4 -51 -12 -5 -12 -35 0
-48 13 -14 20 -79 10 -95 -7 -11 -9 -9 -9 7 0 11 -3 24 -7 28 -5 4 -9 17 -10
29 -6 53 -13 86 -31 144 l-20 62 27 4 c14 2 29 5 33 6 4 0 10 -4 14 -10z m32
-81 c-4 -27 -28 -36 -28 -10 0 20 8 32 22 32 5 0 8 -10 6 -22z m-2688 -33 c0
-8 -4 -15 -10 -15 -5 0 -7 7 -4 15 4 8 8 15 10 15 2 0 4 -7 4 -15z m2700 -29
c0 -2 -7 -9 -15 -16 -12 -10 -15 -10 -15 4 0 9 7 16 15 16 8 0 15 -2 15 -4z
m15 -78 c-2 -18 -8 -46 -13 -63 l-10 -30 -3 30 c-4 57 3 95 20 95 5 0 8 -15 6
-32z m-1702 -60 c7 -25 1 -38 -18 -38 -9 0 -13 11 -13 30 1 35 23 40 31 8z
m-1065 -28 c14 -23 10 -25 -19 -9 -11 5 -17 14 -14 20 9 14 19 11 33 -11z"/>
<path d="M3195 8500 c-3 -5 -14 -10 -23 -10 -18 0 -109 -36 -157 -62 -46 -25
-91 -71 -114 -116 -23 -46 -29 -127 -8 -134 6 -3 52 -4 101 -3 81 1 90 4 107
26 10 13 19 29 19 36 0 16 86 73 110 73 11 0 39 5 63 12 38 10 50 9 91 -8 29
-12 58 -33 73 -54 44 -60 69 -74 138 -73 83 1 105 9 105 39 0 13 -4 24 -10 24
-5 0 -10 13 -10 28 0 38 -47 102 -115 155 -48 38 -68 46 -143 60 -97 19 -217
22 -227 7z m232 -80 c25 -11 53 -20 63 -20 18 0 77 -51 97 -85 33 -54 36 -66
25 -77 -17 -17 -57 -1 -70 27 -6 14 -18 25 -27 25 -8 0 -21 13 -29 28 -11 22
-29 33 -73 47 -31 10 -69 19 -82 21 -34 4 -124 -17 -136 -31 -5 -6 -23 -15
-38 -19 -15 -3 -38 -18 -50 -33 -12 -14 -30 -33 -39 -42 -10 -8 -18 -21 -18
-28 0 -16 -22 -17 -38 -1 -10 10 -16 7 -28 -11 -13 -18 -18 -20 -25 -10 -14
22 -11 38 11 56 11 10 20 25 20 34 0 20 27 44 60 54 14 4 31 16 38 26 7 11 18
19 24 19 6 0 19 6 27 14 43 38 209 41 288 6z"/>
<path d="M3243 8267 c-23 -7 -50 -20 -61 -30 -21 -19 -34 -74 -20 -83 4 -3 8
-15 8 -28 0 -40 62 -76 131 -76 52 0 134 42 153 79 13 25 13 32 -1 63 -31 68
-121 101 -210 75z m124 -58 c113 -55 -28 -140 -153 -92 -8 3 -14 19 -14 38 0
34 3 37 85 66 31 11 36 10 82 -12z"/>
<path d="M3650 8137 c-19 -5 -59 -7 -88 -4 -40 4 -54 2 -58 -8 -8 -20 -71 -85
-82 -85 -5 0 -23 -7 -38 -15 -19 -10 -58 -15 -110 -15 -66 0 -86 4 -107 20
-14 11 -29 20 -34 20 -5 0 -17 16 -27 36 -15 32 -20 35 -44 30 -15 -4 -45 -6
-67 -5 -105 6 -110 5 -113 -18 -5 -36 46 -130 91 -167 53 -42 126 -76 167 -76
17 0 41 -5 52 -11 43 -23 292 25 381 73 45 24 96 77 103 105 4 15 15 40 25 55
37 52 13 83 -51 65z m-18 -66 c-5 -51 -81 -116 -162 -138 -153 -42 -179 -46
-263 -32 -101 15 -170 46 -221 98 -36 37 -39 43 -28 67 9 17 18 24 28 20 9 -3
25 -6 37 -6 25 0 112 -74 104 -87 -3 -5 2 -9 11 -10 9 0 44 -5 77 -10 69 -10
183 2 205 22 8 7 24 16 35 19 26 8 69 47 78 69 5 14 16 17 54 15 44 -3 48 -6
45 -27z"/>
<path d="M3901 7664 c0 -11 3 -14 6 -6 3 7 2 16 -1 19 -3 4 -6 -2 -5 -13z"/>
<path d="M4155 7610 c-3 -5 -1 -10 4 -10 6 0 11 5 11 10 0 6 -2 10 -4 10 -3 0
-8 -4 -11 -10z"/>
<path d="M3781 7283 c-40 -49 -45 -79 -38 -242 4 -99 11 -152 26 -196 11 -33
21 -70 21 -82 0 -12 8 -26 18 -31 16 -9 116 -1 127 9 2 3 7 61 11 130 6 111 3
155 -20 319 -8 54 -67 130 -102 130 -7 0 -26 -17 -43 -37z m99 -119 c0 -17 -7
-37 -16 -45 -13 -11 -19 -8 -40 17 -21 25 -24 36 -19 78 4 28 9 54 12 59 10
16 63 -77 63 -109z m21 -179 c4 -168 -5 -215 -40 -215 -32 0 -55 49 -68 143
-6 42 11 52 21 12 4 -14 13 -25 20 -25 29 0 46 31 46 80 0 39 -4 52 -22 64
-25 18 -35 13 -51 -22 l-11 -27 -4 28 c-5 41 4 57 32 57 14 0 28 5 32 11 4 8
13 4 25 -12 14 -17 19 -43 20 -94z"/>
<path d="M2944 7179 c-24 -15 -35 -33 -48 -77 -23 -84 -21 -238 5 -352 l21
-91 -21 -23 c-12 -12 -21 -24 -21 -27 0 -3 33 -1 73 3 133 14 176 32 160 68
-8 18 -8 34 -1 126 3 39 1 98 -3 130 -5 33 -9 79 -10 104 -2 35 -10 53 -36 83
-18 20 -33 42 -33 47 0 16 -20 12 -27 -5 -3 -9 1 -21 10 -28 19 -15 33 -112
18 -122 -18 -11 -47 4 -59 31 -17 35 -15 80 4 110 24 35 6 48 -32 23z m28
-195 c10 -9 31 -17 48 -18 35 -1 34 3 55 -229 4 -48 -25 -79 -69 -75 -28 3
-30 7 -47 78 -9 41 -15 78 -12 83 2 4 18 -4 35 -18 16 -14 33 -25 38 -25 17 0
26 82 14 128 -5 18 -13 22 -32 20 -22 -2 -28 -11 -37 -48 -6 -25 -14 -40 -17
-35 -10 17 -19 120 -12 138 8 21 13 21 36 1z"/>
<path d="M2368 6802 c-18 -3 -36 -48 -24 -59 3 -3 12 0 21 7 23 19 30 4 17
-33 -16 -44 -15 -99 1 -122 19 -25 34 -12 42 34 8 46 19 58 60 63 39 4 46 34
12 47 -14 6 -28 15 -32 20 -10 17 -78 47 -97 43z"/>
<path d="M2510 6671 c0 -5 5 -13 10 -16 6 -3 10 -15 10 -26 0 -10 5 -19 11
-19 18 0 6 64 -13 68 -10 2 -18 -1 -18 -7z"/>
<path d="M3527 6663 c-4 -3 -7 -28 -7 -55 0 -50 15 -63 40 -33 25 31 -6 115
-33 88z"/>
<path d="M2533 6538 c0 -50 21 -88 48 -88 28 0 23 29 -6 40 -21 8 -25 16 -25
50 0 22 -4 40 -9 40 -4 0 -8 -19 -8 -42z"/>
<path d="M3483 6296 c-23 -8 -44 -11 -47 -9 -17 17 -106 -48 -106 -78 0 -26
13 -24 25 4 23 52 176 62 195 11 17 -44 90 -22 90 27 0 44 -18 59 -68 58 -26
0 -66 -6 -89 -13z"/>
<path d="M3474 6195 c-18 -14 -18 -14 9 -15 17 0 27 5 27 15 0 19 -11 19 -36
0z"/>
<path d="M4258 5983 c7 -3 16 -2 19 1 4 3 -2 6 -13 5 -11 0 -14 -3 -6 -6z"/>
<path d="M3870 5971 c0 -5 7 -12 16 -15 22 -9 24 -8 24 9 0 8 -9 15 -20 15
-11 0 -20 -4 -20 -9z"/>
<path d="M4120 5960 c0 -5 5 -10 10 -10 6 0 10 5 10 10 0 6 -4 10 -10 10 -5 0
-10 -4 -10 -10z"/>
<path d="M4158 5963 c6 -2 18 -2 25 0 6 3 1 5 -13 5 -14 0 -19 -2 -12 -5z"/>
<path d="M4760 5098 c0 -17 3 -28 7 -25 9 10 10 57 1 57 -4 0 -8 -14 -8 -32z"/>
<path d="M4765 5050 c-3 -5 -1 -27 4 -49 5 -22 6 -42 4 -45 -3 -2 -1 -11 3
-18 10 -16 22 21 23 73 1 35 -21 60 -34 39z"/>
<path d="M4723 4875 c0 -27 2 -38 4 -22 2 15 2 37 0 50 -2 12 -4 0 -4 -28z"/>
<path d="M4750 4615 c0 -9 9 -15 21 -15 18 0 19 2 9 15 -7 8 -16 15 -21 15 -5
0 -9 -7 -9 -15z"/>
<path d="M4820 4549 c0 -11 5 -17 10 -14 6 3 10 13 10 21 0 8 -4 14 -10 14 -5
0 -10 -9 -10 -21z"/>
<path d="M2635 5250 c-3 -5 -1 -10 4 -10 6 0 11 5 11 10 0 6 -2 10 -4 10 -3 0
-8 -4 -11 -10z"/>
<path d="M2736 5253 c-7 -7 19 -33 33 -33 6 0 8 6 5 14 -6 16 -29 28 -38 19z"/>
<path d="M2678 5203 c6 -2 18 -2 25 0 6 3 1 5 -13 5 -14 0 -19 -2 -12 -5z"/>
<path d="M2195 4030 c-3 -5 -1 -10 4 -10 6 0 11 5 11 10 0 6 -2 10 -4 10 -3 0
-8 -4 -11 -10z"/>
<path d="M2200 3770 c0 -5 5 -10 10 -10 6 0 10 5 10 10 0 6 -4 10 -10 10 -5 0
-10 -4 -10 -10z"/>
<path d="M6160 2108 c0 -4 14 -8 30 -8 17 0 30 4 30 8 0 5 -13 9 -30 9 -16 0
-30 -4 -30 -9z"/>
<path d="M6258 2113 c-27 -7 -22 -23 7 -23 16 0 25 6 25 15 0 15 -2 16 -32 8z"/>
<path d="M5852 2079 c2 -6 8 -10 13 -10 5 0 11 4 13 10 2 6 -4 11 -13 11 -9 0
-15 -5 -13 -11z"/>
<path d="M1280 1955 c0 -8 5 -15 10 -15 6 0 10 7 10 15 0 8 -4 15 -10 15 -5 0
-10 -7 -10 -15z"/>
<path d="M4580 1614 c0 -8 5 -12 10 -9 6 4 8 11 5 16 -9 14 -15 11 -15 -7z"/>
<path d="M4980 1469 c0 -5 11 -9 25 -9 14 0 25 4 25 9 0 5 -11 9 -25 9 -14 0
-25 -4 -25 -9z"/>
<path d="M5305 1181 c-3 -11 -12 -22 -20 -25 -20 -7 -19 -26 0 -26 8 0 15 6
15 13 0 7 9 18 20 25 12 7 18 17 15 22 -10 16 -23 12 -30 -9z"/>
<path d="M5460 911 c0 -24 21 -61 35 -61 20 0 19 16 -1 24 -12 5 -14 10 -5 20
6 7 8 16 4 19 -10 10 -33 8 -33 -2z"/>
<path d="M5483 823 c-15 -5 -18 -33 -4 -33 8 0 25 30 19 35 -2 1 -9 0 -15 -2z"/>
<path d="M5501 744 c0 -11 3 -14 6 -6 3 7 2 16 -1 19 -3 4 -6 -2 -5 -13z"/>
<path d="M5500 685 c0 -9 9 -15 21 -15 18 0 19 2 9 15 -7 8 -16 15 -21 15 -5
0 -9 -7 -9 -15z"/>
<path d="M4497 482 c-22 -3 -28 -8 -25 -25 5 -33 36 -34 48 -1 12 31 13 30
-23 26z"/>
<path d="M5337 1503 c-13 -12 -7 -43 8 -43 8 0 15 6 15 13 0 18 -15 38 -23 30z"/>
<path d="M5336 1413 c-4 -9 -2 -21 4 -27 7 -7 10 -2 10 17 0 31 -5 34 -14 10z"/>
<path d="M3841 1514 c0 -11 3 -14 6 -6 3 7 2 16 -1 19 -3 4 -6 -2 -5 -13z"/>
<path d="M3790 1429 c0 -5 5 -7 10 -4 6 3 10 8 10 11 0 2 -4 4 -10 4 -5 0 -10
-5 -10 -11z"/>
<path d="M3134 1267 c-3 -9 -3 -25 1 -34 6 -16 8 -16 18 5 7 16 7 26 -1 34 -8
8 -13 7 -18 -5z"/>
<path d="M3356 1191 c-3 -5 0 -14 8 -20 10 -8 16 -8 25 2 6 8 8 17 4 20 -9 10
-31 9 -37 -2z"/>
<path d="M3849 828 c0 -2 -2 -34 -3 -73 -2 -38 -7 -107 -11 -152 -8 -94 -1
-143 18 -124 7 7 13 49 14 104 4 142 9 207 19 210 4 1 7 -18 6 -43 -1 -25 2
-63 7 -85 7 -34 9 -28 10 46 1 82 0 88 -24 103 -23 15 -34 19 -36 14z"/>
<path d="M3900 502 c0 -11 -4 -23 -9 -27 -15 -9 -7 -60 9 -60 11 0 14 12 11
50 -3 50 -11 77 -11 37z"/>
<path d="M3034 489 c-3 -5 6 -9 20 -9 31 0 34 6 6 13 -11 3 -23 1 -26 -4z"/>
<path d="M8225 8590 c-442 -35 -695 -69 -1020 -134 -139 -28 -406 -114 -533
-172 -143 -65 -267 -129 -275 -141 -4 -7 -12 -13 -17 -13 -22 0 -310 -206
-310 -222 0 -5 -4 -8 -10 -8 -5 0 -40 -32 -77 -71 -37 -39 -76 -79 -85 -87
-10 -9 -18 -22 -18 -29 0 -7 -4 -13 -10 -13 -24 0 -177 -277 -196 -355 -3 -16
-12 -41 -19 -55 -19 -39 -46 -154 -67 -290 -20 -133 -26 -386 -10 -417 6 -10
13 -51 17 -91 4 -39 11 -75 16 -78 5 -3 9 -14 9 -25 0 -26 60 -209 77 -234 7
-11 13 -25 13 -31 0 -12 51 -122 73 -159 18 -30 132 -174 180 -227 23 -26 89
-86 147 -132 58 -47 112 -91 121 -98 23 -19 51 -37 79 -50 14 -7 29 -18 33
-25 4 -7 14 -13 21 -13 8 0 18 -6 24 -13 6 -7 44 -30 84 -50 40 -21 80 -42 88
-47 15 -9 115 -54 155 -69 11 -5 41 -18 68 -30 26 -11 53 -21 60 -21 7 0 32
-9 56 -20 23 -12 85 -32 139 -46 53 -14 113 -30 132 -36 64 -18 293 -62 405
-77 222 -31 314 -42 381 -43 121 -3 121 1 27 -189 -44 -90 -87 -182 -96 -204
-14 -38 -58 -147 -98 -245 -26 -66 -75 -208 -89 -262 -9 -35 -25 -58 -63 -94
-28 -26 -69 -71 -91 -98 -21 -28 -46 -58 -56 -66 -9 -8 -47 -61 -85 -117 -37
-57 -72 -103 -77 -103 -4 0 -8 -6 -8 -13 0 -8 -24 -61 -53 -118 -68 -135 -89
-185 -127 -294 -17 -49 -37 -103 -45 -120 -16 -35 -60 -192 -70 -250 -4 -22
-11 -45 -15 -50 -8 -9 -21 -68 -55 -240 -12 -61 -25 -119 -54 -230 -4 -17 -12
-39 -18 -50 -5 -11 -17 -35 -26 -53 -9 -19 -17 -41 -17 -50 -1 -20 -28 -97
-59 -166 -49 -111 -90 -280 -91 -375 0 -109 73 -281 163 -381 7 -8 46 -54 86
-102 39 -49 75 -88 80 -88 4 0 25 -17 47 -39 21 -21 71 -60 109 -86 39 -26 77
-54 86 -61 8 -8 34 -24 56 -36 119 -66 206 -124 257 -169 66 -61 70 -82 32
-181 -24 -65 -90 -320 -102 -395 l-7 -43 35 0 34 0 13 78 c7 42 15 84 19 92 3
8 6 22 7 30 5 41 31 127 44 141 12 15 17 15 49 2 19 -8 52 -32 73 -54 20 -21
40 -39 42 -39 4 0 51 -43 186 -168 20 -19 55 -45 77 -58 41 -24 44 -24 265
-22 l224 3 22 45 c43 86 25 157 -51 195 -27 14 -56 25 -63 25 -7 0 -48 16 -91
36 -227 105 -342 154 -364 154 -32 0 -306 151 -429 236 -25 18 -66 42 -90 55
-24 12 -58 32 -75 45 -17 13 -38 24 -47 24 -10 0 -17 4 -17 8 0 5 -29 29 -65
55 -43 31 -65 54 -65 67 0 11 4 20 9 20 12 0 54 83 74 145 40 126 42 142 42
305 0 167 -16 284 -49 355 -57 122 -80 164 -92 169 -8 3 -14 13 -14 23 0 34
-98 130 -176 174 -73 40 -75 42 -68 72 3 17 10 38 15 47 16 32 69 239 69 273
0 19 5 37 12 39 7 3 20 40 29 84 38 177 94 380 110 399 5 5 9 19 9 31 0 12 6
27 14 33 8 7 18 27 21 44 7 34 27 79 97 220 62 128 85 171 95 182 4 6 23 33
40 60 18 28 37 55 43 62 5 7 10 17 10 22 0 6 6 14 13 18 7 4 26 30 43 56 25
42 197 227 211 227 2 0 19 15 37 33 47 48 96 86 130 104 31 15 65 50 66 66 0
23 -143 -36 -182 -75 -29 -29 -39 -6 -21 51 8 25 18 58 23 72 4 15 14 42 22
60 8 19 25 61 38 94 38 102 94 229 191 432 l44 93 358 2 c196 1 392 3 435 3
87 0 96 -10 54 -62 -12 -15 -56 -71 -98 -123 -124 -155 -280 -324 -329 -356
-12 -8 -36 -16 -55 -19 -46 -6 -120 -29 -159 -50 -34 -17 -32 -41 3 -31 51 15
324 37 466 37 146 0 251 -9 395 -31 33 -5 94 -14 135 -20 41 -6 84 -15 95 -20
11 -5 45 -14 75 -21 30 -7 89 -23 130 -36 41 -12 82 -23 92 -23 9 0 20 -4 23
-10 3 -6 16 -10 28 -10 12 0 36 -9 52 -20 17 -11 36 -20 44 -20 16 0 254 -115
291 -141 14 -9 58 -37 99 -60 40 -24 88 -52 105 -62 17 -11 40 -27 51 -36 53
-46 114 -68 122 -44 3 7 -10 26 -28 43 -21 19 -30 33 -24 39 14 13 110 67 173
97 28 14 52 30 52 35 0 5 8 9 17 9 10 0 35 6 58 14 22 8 81 29 130 46 50 18
99 36 110 40 11 5 43 14 70 20 28 6 64 18 80 25 30 13 38 15 150 34 53 9 115
21 265 51 25 5 86 12 135 15 50 4 95 11 100 15 6 4 69 11 140 14 72 4 151 9
178 12 46 6 47 7 47 40 l0 34 -127 -1 c-71 0 -150 -5 -178 -10 -27 -5 -95 -14
-150 -18 -231 -20 -567 -100 -820 -194 -44 -16 -105 -39 -135 -50 -55 -20
-112 -46 -162 -73 -56 -30 -164 -64 -206 -64 -44 0 -84 16 -187 74 -76 43
-288 146 -300 146 -7 0 -18 6 -24 14 -7 8 -27 18 -44 22 -18 3 -37 10 -42 14
-14 12 -186 65 -270 83 -65 15 -206 38 -400 67 -44 7 -168 14 -275 16 -107 2
-196 8 -198 12 -1 5 9 22 24 38 14 16 49 55 77 87 29 33 60 66 70 75 9 9 17
20 17 25 0 5 9 19 20 31 37 39 168 214 184 243 25 49 42 57 165 69 116 12 196
23 345 49 98 17 111 11 102 -50 -4 -22 -16 -57 -26 -78 -11 -21 -20 -43 -20
-49 0 -12 -43 -83 -82 -135 -34 -44 -35 -51 -3 -59 27 -7 47 6 183 115 79 63
194 180 254 259 64 85 90 109 123 115 17 2 46 10 65 17 19 7 44 16 55 20 11 4
41 17 68 29 26 11 53 21 59 21 6 0 44 16 85 35 41 19 80 35 88 35 8 0 15 4 15
9 0 5 26 21 57 36 31 14 72 37 89 50 18 14 37 25 43 25 10 0 81 45 91 58 3 4
12 12 21 17 61 37 126 84 138 98 7 10 18 17 24 17 12 0 187 175 187 187 0 4
11 18 24 31 32 30 121 162 145 214 56 125 69 162 106 303 39 150 56 270 57
414 1 206 -9 270 -87 556 -8 28 -25 75 -38 105 -45 103 -70 155 -77 160 -4 3
-19 27 -35 54 -16 27 -43 65 -62 85 -18 20 -36 44 -39 54 -3 9 -12 17 -19 17
-8 0 -24 13 -37 30 -12 16 -30 32 -40 36 -10 3 -18 11 -18 17 0 16 -146 133
-228 182 -10 6 -37 24 -62 40 -75 50 -83 55 -127 76 -23 11 -45 24 -48 29 -3
6 -13 10 -22 10 -9 0 -24 6 -32 13 -17 13 -67 37 -246 112 -82 35 -302 97
-460 130 -175 38 -259 51 -460 74 -99 12 -193 24 -210 27 -116 21 -789 38
-960 24z m-821 -906 c3 -9 6 -31 6 -50 0 -38 21 -54 45 -34 9 8 15 8 15 2 0
-6 7 -18 16 -27 25 -24 10 -43 -37 -47 l-43 -3 3 -58 c2 -52 0 -58 -20 -66
-30 -11 -57 -3 -63 18 -3 9 -3 54 -1 101 2 47 4 106 4 133 1 47 1 47 35 47 22
0 36 -6 40 -16z m756 -9 l0 -25 -145 0 c-122 0 -145 -2 -145 -15 0 -13 23 -15
145 -15 l145 0 0 -25 c0 -25 0 -25 -97 -26 -54 -1 -107 -2 -118 -3 -11 -1 -32
-3 -47 -4 -17 -1 -28 -8 -28 -17 0 -8 1 -15 3 -16 1 0 66 -3 145 -6 109 -3
142 -2 142 8 0 8 8 5 21 -7 19 -17 19 -19 4 -30 -10 -7 -14 -18 -10 -24 10
-16 -349 -11 -372 5 -13 10 -16 30 -15 109 1 54 4 102 7 107 4 5 86 9 186 9
l179 0 0 -25z m581 3 c5 -163 0 -261 -14 -275 -14 -15 -18 -15 -41 1 -14 9
-26 25 -26 36 0 15 -7 20 -25 20 -14 0 -28 0 -32 1 -18 2 -12 -20 7 -26 26 -8
18 -19 -18 -23 -44 -6 -235 -8 -260 -4 -22 4 -23 6 -20 141 l3 136 35 -3 c19
-2 53 -4 74 -5 22 -1 41 -8 43 -14 3 -8 -9 -11 -38 -10 -42 2 -43 1 -46 -30
-1 -18 1 -33 5 -34 4 0 32 -1 62 -2 55 -2 55 -2 53 26 -3 42 13 77 36 77 34 0
51 -12 51 -35 0 -31 12 -37 44 -25 18 6 26 17 26 33 0 31 7 37 47 37 27 0 33
-4 34 -22z m1063 0 c2 -13 4 -36 3 -53 -2 -28 1 -30 41 -36 48 -6 67 -20 59
-43 -5 -11 -20 -16 -50 -16 -24 0 -46 -2 -49 -6 -3 -3 -2 -21 3 -41 5 -24 4
-44 -3 -57 -13 -23 -11 -190 1 -216 4 -8 5 -26 1 -40 l-6 -25 -162 -1 c-114
-1 -167 2 -179 11 -14 10 -16 29 -15 116 l1 104 32 3 c38 4 66 -22 48 -44 -18
-22 21 -31 121 -28 l95 3 3 33 c2 18 9 37 15 41 9 6 9 10 0 14 -10 3 -13 44
-13 154 l0 149 25 0 c18 0 26 -6 29 -22z m574 -180 c2 -168 0 -199 -14 -212
-42 -42 -69 4 -61 105 3 36 2 71 -3 78 -4 8 -27 15 -50 16 -27 1 -46 8 -52 19
-12 22 -28 20 -28 -4 0 -12 15 -28 40 -42 21 -13 44 -33 51 -45 29 -54 -44
-60 -103 -8 -23 21 -44 33 -51 28 -7 -4 -37 -26 -69 -50 -31 -24 -63 -43 -71
-43 -32 0 -47 13 -47 40 0 23 8 32 42 50 61 32 138 99 138 120 0 10 7 20 15
24 8 3 15 13 15 21 0 13 -9 15 -52 11 -52 -4 -133 5 -145 18 -3 3 2 15 12 25
16 18 27 20 138 15 66 -2 126 -8 133 -12 12 -7 8 -28 -21 -95 -7 -16 -2 -18
51 -15 l59 3 3 78 3 78 32 -3 32 -3 3 -197z m529 194 c9 -6 12 -76 13 -262 1
-140 1 -260 0 -267 0 -18 -39 -26 -55 -13 -12 10 -15 58 -15 275 0 144 3 265
7 268 9 9 35 9 50 -1z m-3407 -17 c10 -13 9 -15 -8 -15 -15 0 -20 5 -16 15 4
8 7 15 9 15 1 0 8 -7 15 -15z m2086 5 c13 0 41 -16 64 -36 36 -33 40 -41 40
-86 0 -54 -10 -80 -48 -120 -27 -30 -105 -46 -161 -33 -119 26 -145 210 -37
260 33 15 83 24 104 18 8 -1 25 -3 38 -3z m-2372 -11 c27 -13 54 -61 63 -113
7 -44 -19 -98 -64 -132 -32 -24 -39 -26 -101 -19 -79 8 -103 21 -126 68 -31
66 -12 157 38 188 36 22 149 26 190 8z m2696 -4 c0 -8 -4 -15 -9 -15 -13 0
-22 16 -14 24 11 11 23 6 23 -9z m-3054 -16 c12 -10 9 -136 -5 -249 -6 -54 -7
-55 -39 -54 -18 1 -40 5 -50 9 -16 6 -16 7 1 20 16 12 19 29 20 122 l2 108
-150 3 c-82 1 -156 5 -163 7 -8 3 -12 13 -10 22 3 16 22 19 168 24 173 5 207
4 226 -12z m846 4 c24 -21 23 -58 -3 -100 -12 -18 -19 -43 -16 -53 3 -12 0
-20 -6 -20 -12 0 -64 -117 -59 -133 1 -5 -7 -21 -18 -37 -11 -15 -20 -33 -20
-39 0 -5 -5 -22 -12 -36 -9 -20 -18 -25 -50 -25 -22 0 -38 5 -38 11 0 7 16 45
35 85 19 40 35 79 35 86 0 8 11 36 24 64 13 27 26 60 30 74 11 40 50 124 61
132 14 11 16 10 37 -9z m1570 -1 c8 -8 8 -15 1 -24 -6 -7 -11 -69 -12 -136 -3
-138 -5 -149 -32 -157 -25 -8 -73 21 -62 38 8 12 33 155 34 195 1 13 -1 26 -5
29 -3 3 -74 5 -159 4 -143 -2 -155 0 -172 19 -21 24 -17 30 25 39 54 11 370 5
382 -7z m1478 -1 c37 -71 -41 -263 -136 -331 -20 -14 -41 -30 -48 -36 -35 -32
-102 -22 -89 14 8 20 43 51 59 52 34 1 133 130 145 190 3 19 10 43 14 53 7 16
-2 17 -98 17 -81 0 -107 3 -117 15 -7 9 -10 19 -6 23 4 4 62 10 129 13 67 3
125 6 129 7 4 1 12 -7 18 -17z m-1583 -98 c-3 -10 -5 -4 -5 12 0 17 2 24 5 18
2 -7 2 -21 0 -30z m-220 11 c-3 -3 -12 -4 -19 -1 -8 3 -5 6 6 6 11 1 17 -2 13
-5z m-1220 -40 c-3 -3 -12 -4 -19 -1 -8 3 -5 6 6 6 11 1 17 -2 13 -5z m1354
-36 c1 -7 4 -44 6 -83 2 -38 5 -81 6 -95 l2 -25 112 2 c62 2 124 -2 138 -7 30
-11 33 -36 5 -45 -15 -5 -393 -9 -537 -5 -29 0 -31 35 -4 50 11 5 54 10 95 10
54 0 76 4 76 13 0 9 3 8 9 -2 5 -7 11 -9 13 -5 9 17 8 89 -1 122 -9 30 -7 37
14 58 26 26 64 32 66 12z m-2399 -55 c1 -32 2 -78 2 -103 l1 -45 122 0 c103 0
125 -3 140 -18 37 -37 11 -39 -395 -38 -129 1 -154 3 -159 17 -11 29 15 38
109 39 107 0 105 -2 107 121 1 39 4 74 8 77 3 4 19 7 35 7 27 0 28 -1 30 -57z
m1330 -8 c243 0 268 -4 255 -39 -6 -14 -41 -16 -286 -16 -255 0 -279 1 -286
17 -3 10 -2 19 3 21 5 1 18 9 28 17 11 8 26 11 34 7 8 -4 122 -7 252 -7z m722
-56 c12 -11 9 -100 -4 -113 -7 -7 -62 -11 -143 -11 -125 0 -132 -1 -132 -20 0
-19 7 -20 130 -22 72 -1 140 -2 153 -2 28 -1 30 -36 3 -51 -11 -6 -88 -10
-179 -10 -140 0 -163 2 -182 18 -21 17 -22 23 -14 78 l9 59 143 3 c108 2 142
6 139 15 -3 9 -42 12 -140 12 -139 0 -166 7 -154 39 5 13 30 16 139 18 149 3
219 -1 232 -13z m953 15 c-3 -3 -12 -4 -19 -1 -8 3 -5 6 6 6 11 1 17 -2 13 -5z
m-2582 -34 c0 -47 -2 -46 177 -41 34 1 37 4 40 34 3 30 5 32 43 32 l40 0 2
-113 c2 -108 1 -113 -20 -121 -12 -5 -25 -7 -28 -5 -11 6 -263 6 -280 -1 -25
-9 -36 31 -33 120 2 44 3 90 3 103 1 19 6 23 29 20 21 -2 27 -8 27 -28z m49 5
c4 -10 -1 -15 -16 -15 -17 0 -18 2 -8 15 7 8 14 15 15 15 2 0 5 -7 9 -15z
m1833 -17 c-3 -8 -6 -5 -6 6 -1 11 2 17 5 13 3 -3 4 -12 1 -19z m-832 -107 c0
-98 -8 -116 -38 -86 -9 8 -21 15 -27 15 -7 0 -8 6 0 19 5 11 8 35 6 53 l-3 33
-152 1 c-153 1 -180 7 -168 38 8 19 24 21 217 21 l165 0 0 -94z m742 93 c-3
-3 -12 -4 -19 -1 -8 3 -5 6 6 6 11 1 17 -2 13 -5z m1181 -62 l3 -63 122 1
c204 3 197 3 197 -24 0 -21 -6 -24 -52 -30 -29 -3 -111 -7 -181 -7 -148 -2
-146 -3 -146 81 0 87 7 112 32 108 20 -3 22 -10 25 -66z m-128 38 c0 -5 -2
-10 -4 -10 -3 0 -8 5 -11 10 -3 6 -1 10 4 10 6 0 11 -4 11 -10z m-23 -52 c-3
-8 -6 -5 -6 6 -1 11 2 17 5 13 3 -3 4 -12 1 -19z m897 -63 c8 -41 -10 -87 -25
-64 -5 8 -9 33 -9 57 0 53 25 58 34 7z m-3704 -85 c0 -5 -4 -10 -10 -10 -5 0
-10 5 -10 10 0 6 5 10 10 10 6 0 10 -4 10 -10z m2660 -5 c0 -8 -4 -15 -9 -15
-5 0 -11 7 -15 15 -3 9 0 15 9 15 8 0 15 -7 15 -15z m-1683 -51 c-3 -3 -12 -4
-19 -1 -8 3 -5 6 6 6 11 1 17 -2 13 -5z m-1544 -21 c-7 -2 -19 -2 -25 0 -7 3
-2 5 12 5 14 0 19 -2 13 -5z m1594 -15 c-3 -8 -6 -5 -6 6 -1 11 2 17 5 13 3
-3 4 -12 1 -19z m1780 0 c-3 -8 -6 -5 -6 6 -1 11 2 17 5 13 3 -3 4 -12 1 -19z
m392 -23 c1 -5 -6 -2 -15 7 -10 9 -13 21 -8 29 5 9 9 8 15 -7 4 -10 8 -23 8
-29z m71 20 c0 -14 -4 -25 -9 -25 -4 0 -6 11 -3 25 2 14 6 25 8 25 2 0 4 -11
4 -25z m-3526 2 c15 -11 17 -37 16 -274 0 -144 -3 -268 -6 -277 -10 -25 -38
-29 -55 -7 -14 16 -16 36 -12 108 5 87 5 88 -14 71 -14 -13 -37 -18 -81 -18
l-62 0 -1 -42 c-1 -24 -1 -49 0 -56 3 -20 -27 -62 -44 -62 -26 0 -43 38 -37
85 7 63 -5 73 -89 73 -79 0 -103 12 -76 39 12 13 39 17 119 20 57 1 138 7 182
12 43 5 85 7 92 4 13 -5 14 17 11 148 -5 183 5 214 57 176z m531 -7 c15 -17
17 -31 11 -115 l-7 -95 33 0 c38 0 58 -15 58 -42 0 -17 -15 -18 -277 -16 -173
2 -278 7 -280 13 -1 6 1 16 6 24 8 12 44 15 193 15 l183 1 2 30 c0 17 3 51 6
77 6 58 6 58 -165 58 l-128 0 0 25 c0 25 1 25 98 26 53 1 125 1 158 0 37 -2
64 2 68 8 10 16 21 14 41 -9z m1275 5 c17 -20 14 -286 -3 -297 -9 -6 -9 -13 2
-30 15 -24 16 -107 1 -122 -4 -4 -69 -9 -143 -10 -75 0 -139 -4 -143 -9 -21
-21 22 -29 153 -28 118 2 142 -1 153 -14 10 -12 11 -21 4 -32 -8 -13 -37 -16
-186 -16 -97 1 -181 4 -187 7 -6 4 -11 37 -11 77 l0 69 83 1 c45 1 107 2 137
3 30 0 55 6 55 11 0 10 -37 13 -186 14 -71 1 -88 4 -93 18 -4 9 -3 20 1 24 5
5 80 9 166 11 154 2 193 9 145 27 -15 5 -23 16 -23 32 0 21 -5 24 -35 24 -30
0 -35 -3 -35 -25 0 -24 -2 -25 -85 -30 -47 -3 -110 -5 -140 -5 l-55 0 -2 132
c-1 152 7 177 51 154 23 -13 26 -21 26 -63 l0 -49 58 3 c53 3 57 5 60 28 9 86
12 92 40 85 36 -9 52 -23 52 -47 0 -16 6 -19 33 -16 25 2 31 7 29 22 -4 20 34
66 54 66 6 0 17 -7 24 -15z m460 5 c0 -5 -5 -10 -11 -10 -5 0 -7 5 -4 10 3 6
8 10 11 10 2 0 4 -4 4 -10z m-1029 -10 c24 -13 25 -50 2 -51 -10 0 -76 -1
-147 -2 -92 -2 -130 -6 -133 -14 -3 -9 32 -13 144 -15 140 -3 148 -4 148 -23
0 -19 -7 -20 -130 -22 -150 -3 -178 -8 -173 -29 2 -12 29 -15 143 -18 184 -5
229 -17 174 -47 -32 -16 -378 -16 -389 0 -4 7 -10 52 -13 99 -9 135 -13 132
189 132 95 0 174 -4 185 -10z m1276 4 c-3 -3 -12 -4 -19 -1 -8 3 -5 6 6 6 11
1 17 -2 13 -5z m287 -3 c21 -5 51 -22 67 -37 38 -36 41 -105 7 -135 -40 -34
-70 -41 -179 -40 -121 1 -159 14 -190 65 -25 41 -18 73 27 113 34 30 43 32
118 36 44 1 88 4 96 5 8 1 32 -3 54 -7z m599 -24 c45 -34 61 -86 37 -124 -33
-54 -58 -63 -181 -63 -147 0 -186 15 -194 74 -8 58 6 97 42 117 42 24 56 26
165 24 87 -2 101 -5 131 -28z m-3566 -9 c30 -30 4 -41 -98 -39 -92 1 -113 9
-102 37 6 17 23 19 110 19 55 0 76 -4 90 -17z m2509 -21 c20 -30 21 -39 13
-137 -4 -58 -8 -115 -8 -127 -1 -13 -12 -30 -27 -39 -24 -16 -26 -16 -46 4
-20 19 -20 25 -9 62 21 69 26 180 10 191 -8 5 -80 8 -161 7 -157 -3 -184 4
-162 40 10 15 33 17 174 20 90 1 166 5 169 7 11 12 28 2 47 -28z m-1509 -23
c-3 -3 -12 -4 -19 -1 -8 3 -5 6 6 6 11 1 17 -2 13 -5z m-956 -45 l21 -21 -42
-37 -43 -38 40 -6 c48 -8 71 -30 54 -51 -18 -22 -69 -27 -108 -11 -39 17 -103
20 -103 6 0 -5 6 -12 13 -15 6 -4 2 -4 -11 -2 -13 2 -34 -2 -49 -9 -32 -17
-67 -6 -71 22 -3 22 54 63 88 63 10 0 22 5 25 10 4 6 22 17 41 25 56 23 40 34
-52 33 -87 0 -111 8 -101 36 5 13 28 16 142 16 123 0 137 -2 156 -21z m758
-41 c12 -15 11 -18 -3 -18 -10 0 -16 8 -16 22 0 12 1 19 3 17 1 -2 9 -12 16
-21z m1788 -50 c-3 -8 -6 -5 -6 6 -1 11 2 17 5 13 3 -3 4 -12 1 -19z m1100 0
c-3 -8 -6 -5 -6 6 -1 11 2 17 5 13 3 -3 4 -12 1 -19z m-1427 -104 l0 -104 36
0 37 0 -5 94 c-5 95 2 126 27 126 25 0 32 -31 27 -126 l-5 -94 102 0 c100 0
101 0 101 -24 l0 -25 -257 -3 c-142 -2 -264 1 -270 6 -7 5 -13 17 -13 27 0 17
8 19 76 19 l76 0 -4 97 c-3 94 -2 98 21 109 45 23 51 11 51 -102z m1108 81
c269 -1 305 -3 319 -18 36 -36 7 -40 -294 -42 -431 -3 -405 -1 -401 -27 2 -14
11 -24 24 -26 34 -5 45 -39 42 -132 l-3 -85 -32 -3 c-37 -4 -41 5 -45 98 l-3
55 -75 2 c-41 1 -114 2 -162 2 -79 1 -88 3 -88 20 0 28 25 44 59 36 24 -5 30
-3 36 15 12 38 -11 51 -81 46 -52 -4 -65 -1 -80 15 -35 39 -9 44 219 42 116 0
219 3 227 7 8 5 19 6 25 2 5 -3 146 -7 313 -7z m-1081 -27 c-3 -8 -6 -5 -6 6
-1 11 2 17 5 13 3 -3 4 -12 1 -19z m260 -20 c-3 -8 -6 -5 -6 6 -1 11 2 17 5
13 3 -3 4 -12 1 -19z m-1044 -7 c5 -5 7 -16 4 -24 -4 -11 -41 -15 -174 -19
-92 -3 -217 -5 -278 -4 -108 1 -110 2 -113 25 -2 13 1 26 6 30 17 10 544 3
555 -8z m-817 -19 c24 -16 29 -45 24 -137 -4 -81 -8 -99 -24 -111 -13 -9 -23
-11 -30 -4 -6 6 -76 10 -168 10 l-158 0 0 114 c0 63 4 117 8 120 5 3 22 2 38
-3 25 -7 29 -12 27 -38 -3 -38 8 -41 127 -38 76 2 85 4 83 21 -4 47 41 88 73
66z m1414 -11 c0 -6 -4 -13 -10 -16 -5 -3 -10 1 -10 9 0 9 5 16 10 16 6 0 10
-4 10 -9z m1504 -17 c3 -9 6 -36 6 -60 0 -57 -13 -62 -141 -56 -112 5 -169 -2
-169 -23 0 -12 29 -15 156 -17 136 -3 158 -5 168 -20 21 -35 -4 -40 -199 -42
-174 -1 -188 0 -201 18 -7 11 -10 24 -7 29 3 6 8 31 10 56 2 25 6 47 8 49 2 2
69 3 149 3 125 -2 146 0 146 14 0 13 -23 15 -158 15 -87 0 -162 3 -165 6 -3 4
-2 15 4 25 9 18 24 19 198 19 163 0 190 -2 195 -16z m-2191 -49 c21 -9 22 -19
1 -36 -13 -10 -15 -24 -10 -62 6 -53 -6 -87 -29 -87 -24 0 -35 35 -28 89 l6
51 -172 0 c-106 0 -172 4 -172 10 -5 29 -2 35 20 40 34 8 363 4 384 -5z m2277
0 c0 -10 -10 -15 -27 -15 -26 0 -26 1 -7 15 25 19 34 19 34 0z m-3620 -55 c0
-5 -4 -10 -9 -10 -6 0 -13 5 -16 10 -3 6 1 10 9 10 9 0 16 -4 16 -10z m2025
-80 c-3 -4 -15 -6 -27 -2 -21 5 -21 6 -2 12 21 8 37 3 29 -10z m-45 -40 c0 -5
-4 -10 -9 -10 -6 0 -13 5 -16 10 -3 6 1 10 9 10 9 0 16 -4 16 -10z m-884 -136
c22 -15 24 -22 20 -65 -3 -30 0 -54 9 -66 21 -28 30 -7 27 57 -3 51 -1 60 20
74 39 28 45 5 44 -184 -1 -170 -1 -171 -26 -190 -24 -18 -24 -21 -10 -47 9
-15 35 -40 58 -56 47 -32 52 -49 20 -71 -33 -24 -50 -20 -83 19 -17 19 -35 35
-40 35 -6 0 -27 -16 -48 -36 -44 -43 -73 -41 -118 7 -32 34 -40 36 -57 9 -7
-11 -17 -20 -24 -20 -6 0 -21 -9 -33 -20 -19 -18 -23 -18 -43 -4 -29 20 -28
48 2 67 13 9 29 22 37 29 8 8 21 17 30 20 11 4 18 21 21 47 l4 41 -53 0 -53 0
-24 49 c-21 41 -24 54 -15 84 5 21 24 47 42 61 l32 26 -47 0 c-44 0 -48 2 -48
25 0 22 4 25 35 25 35 0 35 0 20 24 -21 32 -12 36 78 41 105 6 128 -5 90 -47
-15 -17 -14 -18 30 -18 49 0 55 7 35 40 -10 15 -9 23 6 39 23 25 30 26 62 5z
m478 -6 c9 -12 16 -30 16 -39 0 -25 66 -76 109 -84 47 -9 61 -21 61 -56 0 -28
-2 -29 -44 -29 -25 0 -48 5 -51 10 -3 6 -14 10 -22 10 -9 0 -38 18 -64 40 -36
30 -50 37 -56 27 -8 -12 -32 -30 -92 -69 -29 -19 -106 -24 -116 -7 -14 22 5
59 33 64 39 8 114 48 123 65 4 8 13 29 19 47 7 19 20 34 33 36 12 2 25 5 29 6
4 0 14 -9 22 -21z m722 0 c7 -24 5 -286 -3 -426 -3 -55 -1 -88 6 -95 16 -16
14 -25 -8 -37 -13 -7 -28 -7 -45 0 -25 9 -26 12 -26 100 0 71 -3 90 -14 90 -8
0 -16 -5 -18 -11 -3 -8 -52 -12 -148 -13 -150 -1 -187 5 -173 26 4 7 9 42 9
78 1 36 2 107 3 158 l1 92 35 0 35 0 2 -92 c0 -51 0 -117 -1 -145 -3 -61 -13
-58 127 -41 53 6 100 16 105 22 5 7 12 4 22 -8 13 -18 15 -4 15 134 0 129 3
156 17 172 22 25 50 23 59 -4z m511 10 c4 -7 8 -56 8 -108 l0 -95 55 -1 c41
-1 56 -5 58 -16 5 -26 -27 -48 -68 -48 -25 0 -40 -5 -44 -16 -11 -27 -7 -242
4 -249 16 -10 -8 -35 -34 -35 -38 0 -41 14 -34 137 3 65 5 183 3 262 -2 83 0
152 6 163 11 21 34 24 46 6z m-2729 -10 c8 -8 12 -46 12 -105 l0 -93 40 0 c28
0 43 -5 47 -16 8 -22 -22 -44 -59 -44 l-28 0 0 -70 c0 -59 -3 -71 -20 -80 -14
-8 -26 -8 -40 0 -16 9 -19 18 -15 58 3 26 2 40 -1 32 -4 -8 -12 -18 -17 -22
-6 -3 -89 -7 -184 -8 -150 0 -174 2 -180 15 -9 25 7 33 77 37 59 3 65 5 68 26
2 16 -2 22 -15 22 -10 0 -34 14 -53 30 -33 27 -35 32 -34 86 2 52 5 61 33 86
28 25 38 28 105 28 65 0 78 -3 105 -26 28 -24 31 -31 31 -87 0 -53 -4 -66 -25
-90 -14 -15 -35 -27 -45 -27 -13 0 -20 -7 -20 -20 0 -11 1 -20 3 -20 1 0 28 4
61 10 39 6 65 6 77 -1 18 -9 19 -4 14 127 -5 141 -1 164 34 164 9 0 22 -5 29
-12z m2641 -73 c1 -54 -17 -143 -38 -184 -6 -11 -16 -31 -22 -42 -61 -120 -78
-140 -113 -137 -28 3 -31 6 -29 32 1 17 9 34 18 38 8 5 15 13 15 19 0 5 11 27
24 48 13 21 30 58 37 82 7 24 16 48 21 54 4 5 8 21 8 36 0 26 -3 28 -37 25
-36 -2 -38 -4 -46 -46 -9 -53 -39 -118 -81 -177 -26 -38 -34 -43 -68 -43 -51
0 -50 23 2 86 23 27 44 60 47 74 4 14 15 39 25 55 29 48 24 56 -30 54 -62 -3
-96 14 -82 41 11 21 38 23 247 20 48 -1 84 3 88 9 11 18 12 13 14 -44z m-2085
27 c3 -4 2 -43 -1 -85 l-6 -77 -158 0 -158 0 3 -25 c1 -14 6 -28 10 -32 3 -4
76 -7 160 -8 137 0 157 -3 175 -19 27 -24 13 -36 -44 -36 -52 0 -60 -7 -61
-51 l0 -37 70 1 c39 0 81 -4 94 -9 20 -9 21 -12 9 -28 -13 -18 -29 -19 -278
-17 -145 1 -268 6 -273 11 -5 5 -6 16 -3 24 5 12 22 16 72 16 51 0 67 4 72 16
10 27 -10 69 -35 72 -12 2 -22 8 -22 14 0 6 -7 19 -16 29 -13 15 -14 24 -2 70
l13 54 158 3 c93 1 157 6 157 12 0 6 -4 10 -10 10 -5 0 -10 7 -10 15 0 8 5 15
12 15 8 0 9 3 1 11 -6 6 -65 9 -161 7 -136 -3 -151 -1 -162 15 -6 10 -8 22 -5
27 7 12 392 14 399 2z m2301 -2 c3 -5 -1 -10 -10 -10 -9 0 -13 5 -10 10 3 6 8
10 10 10 2 0 7 -4 10 -10z m211 -23 c41 -21 56 -58 48 -117 -5 -39 -14 -56
-41 -80 -19 -18 -43 -51 -53 -75 -10 -24 -28 -46 -39 -50 -23 -7 -61 10 -61
28 0 15 28 61 73 121 37 47 42 81 18 110 -13 15 -68 12 -102 -5 -11 -6 -22 -2
-34 11 -16 18 -16 21 -2 44 11 16 28 26 49 28 64 6 113 1 144 -15z m-236 -37
c0 -5 -4 -10 -10 -10 -5 0 -10 5 -10 10 0 6 5 10 10 10 6 0 10 -4 10 -10z
m-540 -30 c0 -5 -7 -10 -15 -10 -8 0 -15 5 -15 10 0 6 7 10 15 10 8 0 15 -4
15 -10z m-823 -36 c-9 -9 -28 6 -21 18 4 6 10 6 17 -1 6 -6 8 -13 4 -17z
m1390 -10 c-9 -9 -28 6 -21 18 4 6 10 6 17 -1 6 -6 8 -13 4 -17z m81 5 c-12
-7 -24 -7 -35 0 -15 9 -12 10 17 10 29 0 32 -1 18 -10z m-658 -29 c0 -5 -4
-10 -10 -10 -5 0 -10 5 -10 10 0 6 5 10 10 10 6 0 10 -4 10 -10z m213 -35
c-16 -34 -33 -46 -33 -24 0 18 33 68 41 63 5 -3 1 -20 -8 -39z m-755 1 c33
-11 33 -12 14 -29 -13 -12 -38 -19 -71 -20 -57 -2 -68 -17 -23 -31 29 -8 29
-9 11 -27 -15 -15 -19 -34 -19 -89 0 -117 3 -115 -200 -114 -106 1 -176 6
-182 12 -6 6 -10 48 -9 96 0 62 -3 89 -14 99 -12 13 -8 16 30 27 56 16 79 2
70 -41 l-6 -28 106 -3 c58 -2 109 -2 113 0 5 1 7 16 4 32 -4 25 0 31 22 40 61
23 12 30 -184 28 -155 -2 -202 1 -214 11 -38 31 -11 36 240 41 137 3 256 6
264 7 8 1 30 -4 48 -11z m1222 0 c0 -8 -7 -16 -15 -20 -10 -4 -15 1 -15 14 0
11 7 20 15 20 8 0 15 -6 15 -14z m-650 -6 c0 -5 -4 -10 -10 -10 -5 0 -10 5
-10 10 0 6 5 10 10 10 6 0 10 -4 10 -10z m-210 -20 c0 -5 -4 -10 -10 -10 -5 0
-10 5 -10 10 0 6 5 10 10 10 6 0 10 -4 10 -10z m820 -26 c0 -3 -7 -1 -15 6 -8
7 -15 17 -15 22 0 5 7 3 15 -6 8 -8 15 -18 15 -22z m-42 -41 c-10 -2 -26 -2
-35 0 -10 3 -2 5 17 5 19 0 27 -2 18 -5z m-3170 -101 l3 -62 159 0 160 0 0
-25 0 -25 -182 2 -183 3 -3 74 c-3 86 1 104 25 99 15 -3 19 -16 21 -66z m3306
2 c8 -21 -21 -74 -41 -74 -36 0 -70 60 -46 83 13 14 81 7 87 -9z m-377 -36
c-3 -8 -6 -5 -6 6 -1 11 2 17 5 13 3 -3 4 -12 1 -19z m-544 -5 c-7 -2 -21 -2
-30 0 -10 3 -4 5 12 5 17 0 24 -2 18 -5z m395 -5 c-3 -7 -11 -13 -18 -13 -7 0
-15 6 -17 13 -3 7 4 12 17 12 13 0 20 -5 18 -12z m257 -108 c3 -5 -1 -10 -10
-10 -9 0 -13 5 -10 10 3 6 8 10 10 10 2 0 7 -4 10 -10z m-108 -26 c-3 -3 -12
-4 -19 -1 -8 3 -5 6 6 6 11 1 17 -2 13 -5z m-2482 -3654 c4 -6 -5 -10 -19 -10
-14 0 -26 5 -26 10 0 6 9 10 19 10 11 0 23 -4 26 -10z m-125 -110 c0 -38 -12
-52 -25 -30 -9 14 4 70 16 70 5 0 9 -18 9 -40z m-2 -134 c5 -67 -2 -93 -22
-77 -8 7 -12 29 -11 57 1 24 -2 47 -5 49 -4 3 -5 16 -2 31 4 23 6 24 20 10 8
-8 17 -39 20 -70z m-57 -93 c2 -111 9 -216 17 -255 1 -5 11 -8 22 -8 17 0 20
-7 20 -46 0 -31 -4 -44 -12 -42 -15 5 -51 68 -44 76 3 3 0 10 -8 16 -18 15
-38 186 -25 228 5 18 9 50 9 70 0 21 5 38 10 38 6 0 11 -33 11 -77z m46 -45
c-3 -7 -5 -2 -5 12 0 14 2 19 5 13 2 -7 2 -19 0 -25z m43 -72 c0 -8 -5 -16
-12 -18 -8 -3 -11 -22 -9 -52 2 -41 0 -47 -16 -44 -10 2 -18 9 -17 16 1 6 2
35 3 62 1 46 3 50 26 50 15 0 25 -6 25 -14z m357 -88 c-3 -8 -6 -5 -6 6 -1 11
2 17 5 13 3 -3 4 -12 1 -19z m-20 -160 c-3 -8 -6 -5 -6 6 -1 11 2 17 5 13 3
-3 4 -12 1 -19z m-293 -73 c4 -21 13 -35 21 -35 8 0 15 -4 15 -10 0 -17 -40
-11 -47 8 -3 9 -13 25 -20 34 -16 18 -10 38 11 38 8 0 17 -16 20 -35z m166
-196 c0 -6 -4 -7 -10 -4 -5 3 -10 11 -10 16 0 6 5 7 10 4 6 -3 10 -11 10 -16z"/>
<path d="M8594 7555 c-12 -29 19 -45 60 -29 23 9 20 19 -9 32 -34 16 -44 15
-51 -3z"/>
<path d="M8380 7506 c0 -40 17 -46 110 -38 15 2 20 9 20 32 l0 30 -65 0 c-62
0 -65 -1 -65 -24z"/>
<path d="M9533 7243 c-9 -3 -10 -10 -3 -24 10 -17 22 -19 115 -19 l105 0 0 25
0 25 -102 -1 c-57 0 -109 -3 -115 -6z"/>
<path d="M9493 7605 c-41 -29 -22 -119 27 -129 39 -7 90 32 90 69 -1 17 -6 38
-13 47 -19 25 -77 32 -104 13z m94 -57 c-3 -8 -6 -5 -6 6 -1 11 2 17 5 13 3
-3 4 -12 1 -19z"/>
<path d="M7072 7602 c-29 -15 -32 -21 -30 -57 2 -31 8 -41 23 -44 11 -2 24 -9
28 -17 4 -8 16 -14 25 -14 23 0 81 36 88 55 11 27 -15 71 -50 83 -40 15 -43
15 -84 -6z"/>
<path d="M7133 7243 c-35 -4 -45 -26 -17 -37 20 -8 133 -8 173 0 21 5 31 12
31 25 0 17 -8 19 -77 17 -43 0 -93 -3 -110 -5z"/>
<path d="M8528 6864 c-3 -3 -4 -14 -1 -25 4 -14 14 -19 39 -19 30 0 34 3 34
25 0 22 -4 25 -33 25 -19 0 -36 -3 -39 -6z"/>
<path d="M8320 6794 c0 -31 1 -31 54 -33 56 -1 86 14 86 45 0 15 -4 16 -87 18
-53 1 -53 1 -53 -30z"/>
<path d="M9505 6930 c-22 -10 -46 -19 -52 -20 -7 0 -13 -8 -13 -18 0 -13 16
-21 71 -33 66 -15 75 -15 113 -1 67 26 70 49 8 70 -63 23 -85 23 -127 2z"/>
<path d="M10070 6939 c-8 -5 -27 -13 -42 -19 -31 -11 -37 -38 -10 -46 9 -3 30
-11 45 -19 24 -13 36 -12 97 2 55 13 70 21 70 35 0 10 -6 20 -12 22 -7 2 -35
11 -63 20 -56 18 -64 19 -85 5z"/>
<path d="M9543 6703 c-29 -4 -33 -8 -33 -34 0 -35 9 -37 35 -6 17 19 20 20 23
5 5 -24 42 -24 42 0 0 18 -19 44 -29 40 -4 0 -21 -3 -38 -5z"/>
<path d="M7137 6542 c-20 -3 -27 -8 -25 -20 3 -14 17 -17 88 -18 103 -1 119 2
116 24 -3 14 -15 17 -77 17 -41 0 -87 -1 -102 -3z"/>
<path d="M7638 6223 c12 -2 32 -2 45 0 12 2 2 4 -23 4 -25 0 -35 -2 -22 -4z"/>
<path d="M7729 6151 c39 -21 49 -40 50 -93 1 -54 -14 -84 -49 -99 -29 -13 -29
-14 -8 -19 15 -4 24 -16 28 -35 15 -72 58 -103 85 -61 28 42 38 85 25 101 -7
8 -18 15 -26 15 -24 0 -32 33 -28 121 l4 87 -58 0 -57 1 34 -18z m81 -256 c0
-8 -2 -15 -4 -15 -2 0 -6 7 -10 15 -3 8 -1 15 4 15 6 0 10 -7 10 -15z"/>
<path d="M7628 6096 c-40 -30 -7 -93 41 -81 48 12 57 62 14 83 -33 15 -34 15
-55 -2z"/>
<path d="M7893 6098 c-4 -7 -8 -37 -9 -66 0 -28 -4 -55 -7 -59 -18 -17 -5 -33
27 -33 33 0 34 1 27 28 -5 15 -6 53 -3 85 4 47 2 57 -11 57 -9 0 -19 -6 -24
-12z"/>
<path d="M6543 6213 c-34 -7 -41 -48 -13 -78 34 -36 56 -39 95 -15 74 46 14
114 -82 93z"/>
<path d="M7174 5959 c-4 -7 -8 -27 -10 -46 l-3 -33 51 2 51 3 1 40 c1 30 -3
41 -16 43 -12 2 -18 -3 -18 -15 -1 -17 -1 -17 -11 0 -11 19 -34 23 -45 6z"/>
<path d="M8190 5826 l0 -26 99 0 c108 0 131 5 131 26 0 8 -1 14 -2 14 -2 1
-54 3 -115 6 l-113 6 0 -26z"/>
<path d="M895 6479 c-33 -11 -71 -31 -86 -45 -14 -13 -29 -24 -33 -24 -10 0
-146 -121 -146 -130 0 -3 -28 -36 -62 -72 -96 -100 -138 -148 -138 -154 0 -4
-9 -16 -20 -28 -48 -53 -168 -216 -192 -261 -15 -28 -36 -86 -48 -130 -21 -76
-22 -95 -17 -410 9 -594 36 -1112 63 -1240 32 -150 53 -202 108 -269 58 -70
117 -126 135 -126 6 0 11 -4 11 -9 0 -5 21 -22 48 -37 26 -15 53 -34 60 -41 7
-7 22 -13 32 -13 10 0 20 -4 22 -9 4 -11 192 -111 208 -111 7 0 23 -9 37 -20
14 -11 33 -20 41 -20 9 0 23 -6 31 -13 9 -7 34 -19 56 -26 21 -8 71 -28 110
-46 155 -70 152 -69 194 -55 56 18 142 104 201 200 42 70 66 108 124 197 25
40 46 75 46 78 0 3 16 28 35 55 19 27 35 55 35 61 0 6 9 30 21 53 12 22 27 54
35 69 8 16 14 45 14 66 0 20 4 41 8 47 17 19 33 112 72 414 19 153 33 568 27
837 l-6 271 42 35 c63 52 82 70 98 93 8 12 36 45 62 74 75 83 84 98 64 117
-15 15 -19 14 -50 -9 -47 -37 -212 -108 -248 -108 -11 0 -25 14 -36 38 -49
104 -171 287 -257 387 -164 190 -272 261 -471 309 -111 26 -164 28 -230 5z
m221 -84 c4 -9 20 -15 43 -15 20 -1 54 -9 76 -20 22 -11 44 -19 48 -20 4 0 37
-20 74 -45 36 -25 69 -45 74 -45 5 0 9 -4 9 -10 0 -5 34 -44 75 -86 41 -42 75
-81 75 -85 0 -4 12 -21 26 -36 14 -15 36 -45 48 -67 34 -63 42 -75 58 -93 18
-20 82 -146 93 -181 12 -39 40 -46 93 -21 26 12 59 31 75 41 15 11 35 18 45
16 13 -3 6 -14 -33 -51 -27 -27 -65 -55 -83 -64 -63 -30 -65 -40 -52 -240 11
-160 8 -483 -5 -668 -12 -165 -27 -316 -35 -365 -6 -30 -12 -75 -14 -100 -2
-25 -15 -99 -29 -165 -31 -150 -91 -280 -218 -474 -27 -40 -49 -78 -49 -83 0
-5 -18 -33 -40 -62 -22 -29 -40 -56 -40 -60 0 -4 -26 -34 -59 -66 -80 -81 -77
-82 -299 21 -35 16 -66 29 -69 29 -17 0 -359 174 -366 186 -4 8 -14 14 -20 14
-12 0 -96 57 -146 100 -13 11 -28 20 -33 20 -4 0 -8 6 -8 13 -1 6 -19 30 -40
52 -22 22 -40 45 -40 51 0 6 -7 17 -15 24 -8 7 -15 25 -15 41 0 15 -4 30 -9
33 -8 5 -22 82 -41 226 -5 41 -12 149 -16 240 -3 91 -7 188 -10 215 -12 159
-26 619 -22 796 l3 206 38 75 c20 42 37 79 37 83 0 3 6 12 13 19 6 8 30 39 52
71 41 58 84 112 121 151 11 12 38 44 60 70 21 27 51 62 66 79 16 16 28 33 28
36 0 4 9 9 20 12 11 3 23 13 27 24 11 28 122 129 170 154 24 13 46 26 49 31 3
4 50 8 105 8 79 0 101 -3 105 -15z"/>
<path d="M722 5058 c-9 -9 -12 -68 -12 -210 l0 -198 25 0 25 0 0 110 0 110 34
0 c19 0 38 5 41 10 8 13 -40 31 -59 24 -13 -5 -16 9 -18 77 -3 81 -12 101 -36
77z"/>
<path d="M902 5037 c-13 -15 -19 -158 -8 -176 4 -6 18 -11 32 -11 23 0 24 -3
24 -56 l0 -57 -54 6 c-53 5 -101 -11 -84 -29 8 -8 417 -6 430 2 21 13 -8 24
-63 24 l-59 0 0 54 0 55 38 3 c20 2 36 8 35 13 -2 6 -56 12 -125 15 l-123 5
-5 79 c-5 79 -16 100 -38 73z m166 -246 l3 -51 -35 0 -36 0 0 54 0 54 33 -3
c31 -2 32 -4 35 -54z"/>
<path d="M471 5008 c-30 -30 -31 -35 -31 -115 0 -50 4 -83 10 -83 6 0 14 -8
17 -17 11 -30 36 -42 83 -42 54 0 79 16 98 66 16 44 18 131 2 147 -5 5 -10 19
-10 29 0 10 -9 21 -20 24 -11 3 -20 9 -20 14 0 5 -22 9 -49 9 -42 0 -53 -5
-80 -32z m116 -30 c33 -31 33 -131 1 -165 -29 -31 -51 -29 -82 8 -33 39 -35
97 -5 145 24 40 52 44 86 12z"/>
<path d="M1292 4878 c-26 -26 -2 -64 30 -47 10 5 18 16 18 24 0 21 -34 37 -48
23z"/>
<path d="M1414 4865 c-9 -22 9 -37 37 -33 16 2 24 10 24 23 0 26 -52 35 -61
10z"/>
<path d="M1550 4855 c0 -20 5 -25 25 -25 20 0 25 5 25 25 0 20 -5 25 -25 25
-20 0 -25 -5 -25 -25z"/>
<path d="M4202 3792 c-33 -5 -38 -29 -13 -56 12 -13 21 -35 21 -54 0 -17 6
-51 14 -74 7 -24 26 -87 42 -140 16 -54 32 -98 36 -98 4 0 8 -20 8 -45 0 -25
5 -55 12 -68 23 -46 28 -57 28 -70 0 -7 8 -28 19 -47 10 -19 22 -46 26 -60 7
-24 61 -150 111 -258 13 -29 24 -57 24 -62 0 -5 11 -29 25 -52 14 -24 34 -62
44 -84 11 -23 24 -45 30 -48 6 -4 11 -14 11 -22 0 -7 14 -43 31 -79 l30 -65
53 0 c41 0 62 7 99 30 26 16 47 35 47 43 0 7 -16 36 -35 66 -19 29 -35 58 -35
64 0 7 -7 21 -15 31 -8 11 -15 26 -15 34 0 13 -27 77 -80 187 -36 74 -60 131
-60 140 0 4 -7 23 -16 43 -9 21 -22 52 -30 70 -8 18 -14 37 -14 43 0 6 -6 25
-14 42 -22 49 -76 216 -76 236 0 10 -7 24 -15 31 -8 7 -15 23 -15 35 0 12 -7
28 -15 35 -8 7 -15 23 -15 35 0 25 -20 87 -52 158 -14 30 -29 49 -42 52 -32 6
-128 11 -154 7z m114 -60 c18 -12 34 -49 34 -81 0 -16 4 -32 9 -35 5 -3 8 -14
6 -24 -2 -9 -7 -34 -10 -54 -8 -52 -31 -49 -40 4 -4 23 -16 62 -26 86 -22 50
-24 83 -7 100 14 14 19 14 34 4z m174 -483 c0 -9 7 -22 15 -29 8 -7 15 -21 15
-31 0 -10 16 -54 35 -98 19 -43 35 -86 35 -95 0 -15 34 -83 51 -101 5 -5 9
-20 9 -33 0 -13 13 -48 29 -77 25 -46 29 -61 27 -126 -3 -87 -21 -103 -32 -27
-4 29 -9 45 -12 36 -5 -25 -22 -23 -22 2 0 11 -4 29 -10 40 -5 11 -14 29 -20
40 -5 11 -10 24 -10 30 0 5 -18 48 -41 96 -22 47 -39 94 -36 104 3 11 -4 27
-18 40 -12 11 -35 59 -50 105 l-27 84 22 31 c12 16 19 30 15 30 -3 0 -3 5 1
11 8 13 24 -8 24 -32z m250 -680 c-7 -11 -14 -18 -17 -15 -8 8 5 36 17 36 7 0
7 -6 0 -21z m20 -49 c8 -5 11 -12 7 -16 -4 -4 -15 0 -24 9 -18 18 -8 23 17 7z"/>
<path d="M10725 3479 c-9 -13 3 -97 15 -104 5 -3 16 -29 26 -58 9 -28 24 -62
32 -75 8 -12 15 -30 16 -40 4 -44 31 -139 43 -153 7 -8 13 -28 13 -42 0 -15 7
-53 14 -85 48 -188 56 -694 17 -1022 -29 -242 -34 -274 -66 -410 -50 -218 -81
-481 -64 -545 6 -22 13 -58 16 -80 5 -39 5 -40 -14 -23 -11 10 -24 18 -30 18
-6 0 -30 11 -54 24 -55 30 -105 30 -101 1 3 -19 26 -43 84 -88 26 -20 41 -29
125 -74 34 -18 89 -54 124 -80 35 -27 76 -56 91 -66 15 -9 35 -25 45 -35 10
-10 59 -50 108 -89 81 -65 306 -287 411 -406 l41 -47 71 0 70 0 -99 103 c-55
56 -103 106 -107 110 -4 4 -40 39 -79 76 -40 38 -73 74 -73 80 0 6 -5 11 -11
11 -7 0 -44 31 -83 69 -85 83 -166 152 -221 189 -42 29 -141 130 -166 172 -39
63 -59 140 -59 230 0 85 4 112 31 220 6 25 13 72 15 105 3 33 12 101 20 150 9
50 20 122 24 160 5 39 14 86 19 105 14 48 32 332 38 586 5 208 -15 502 -36
529 -5 5 -11 28 -14 50 -3 22 -15 91 -27 153 -11 62 -18 117 -16 121 3 5 70 9
148 10 316 3 761 58 1116 138 18 4 22 12 22 45 l0 40 -47 -7 c-27 -3 -68 -13
-93 -20 -62 -19 -216 -45 -325 -54 -49 -5 -126 -13 -170 -19 -118 -16 -214
-21 -221 -11 -8 14 -52 11 -56 -3 -4 -10 -57 -14 -212 -16 -219 -4 -236 -1
-236 42 0 12 -14 35 -30 51 -20 19 -27 32 -20 39 6 6 3 14 -8 22 -21 16 -49
18 -57 3z"/>
<path d="M10936 3441 c-4 -7 -5 -15 -2 -18 9 -9 19 4 14 18 -4 11 -6 11 -12 0z"/>
<path d="M10845 3430 c4 -6 11 -8 16 -5 14 9 11 15 -7 15 -8 0 -12 -5 -9 -10z"/>
<path d="M10980 3420 c0 -5 5 -10 10 -10 6 0 10 5 10 10 0 6 -4 10 -10 10 -5
0 -10 -4 -10 -10z"/>
<path d="M11010 3420 c0 -5 7 -10 15 -10 8 0 15 5 15 10 0 6 -7 10 -15 10 -8
0 -15 -4 -15 -10z"/>
<path d="M11060 3404 c0 -8 10 -14 26 -14 28 0 25 15 -6 23 -13 3 -20 0 -20
-9z"/>
<path d="M11233 3383 c9 -2 23 -2 30 0 6 3 -1 5 -18 5 -16 0 -22 -2 -12 -5z"/>
<path d="M10880 3369 c0 -5 18 -9 40 -9 22 0 40 4 40 9 0 5 -18 9 -40 9 -22 0
-40 -3 -40 -9z"/>
<path d="M10975 3370 c-3 -5 -1 -10 4 -10 6 0 11 5 11 10 0 6 -2 10 -4 10 -3
0 -8 -4 -11 -10z"/>
<path d="M2835 2751 c-3 -5 -1 -12 5 -16 5 -3 10 1 10 9 0 18 -6 21 -15 7z"/>
<path d="M12095 2446 c-16 -7 -77 -23 -135 -36 -101 -22 -239 -56 -345 -85
-146 -40 -171 -47 -179 -56 -6 -5 -17 -9 -26 -9 -22 0 -50 -32 -50 -57 0 -23
36 -109 49 -117 5 -3 11 -17 15 -30 3 -13 21 -51 40 -84 19 -34 37 -71 41 -83
4 -12 11 -27 16 -33 5 -6 28 -47 50 -91 23 -44 50 -97 60 -117 11 -21 24 -38
29 -38 6 0 10 -8 10 -19 0 -10 12 -40 26 -67 15 -27 46 -87 70 -134 24 -47 48
-90 54 -97 5 -7 10 -21 10 -32 0 -11 4 -22 8 -25 5 -3 37 -62 72 -131 35 -69
67 -125 72 -125 4 0 8 -6 8 -14 0 -18 140 -300 151 -304 5 -2 9 -12 9 -22 0
-32 11 -50 31 -50 17 0 19 9 19 105 0 98 -1 105 -20 105 -15 0 -20 7 -20 25 0
14 -10 42 -23 63 -30 49 -107 208 -107 221 0 6 -5 11 -10 11 -6 0 -20 21 -31
48 -31 72 -62 132 -68 132 -3 0 -17 27 -31 60 -14 33 -30 60 -37 60 -6 0 -14
13 -18 29 -5 24 -50 114 -85 171 -5 8 -18 35 -29 60 -12 25 -30 59 -41 75 -11
17 -23 37 -26 45 -3 8 -24 52 -45 97 -22 44 -39 85 -39 90 0 6 -9 18 -21 29
-33 29 -90 152 -76 161 14 9 120 43 252 80 50 14 99 29 110 34 33 13 183 49
207 49 12 0 53 10 90 23 68 22 68 22 68 60 0 36 -1 37 -37 37 -21 -1 -51 -7
-68 -14z"/>
<path d="M2663 1974 c-24 -14 -43 -30 -43 -36 0 -14 61 1 92 23 15 10 32 19
38 19 5 0 10 5 10 10 0 19 -55 9 -97 -16z"/>
<path d="M4617 281 c-4 -17 -3 -21 5 -13 5 5 8 16 6 23 -3 8 -7 3 -11 -10z"/>
<path d="M5430 161 c0 -27 19 -36 37 -18 18 18 9 37 -18 37 -12 0 -19 -7 -19
-19z"/>
<path d="M4623 145 c-18 -20 -20 -30 -13 -61 10 -42 23 -59 40 -49 7 4 8 11 1
19 -5 6 -8 35 -6 64 3 29 4 52 2 51 -1 -1 -12 -12 -24 -24z"/>
</g>
</svg>
