<?xml version="1.0" standalone="no"?>
<!DOCTYPE svg PUBLIC "-//W3C//DTD SVG 20010904//EN"
 "http://www.w3.org/TR/2001/REC-SVG-20010904/DTD/svg10.dtd">
<svg version="1.0" xmlns="http://www.w3.org/2000/svg"
 width="1480.000000pt" height="612.000000pt" viewBox="0 0 1480.000000 612.000000"
 preserveAspectRatio="xMidYMid meet">
<metadata>
Created by potrace 1.13, written by Peter Selinger 2001-2015
</metadata>
<g transform="translate(0.000000,612.000000) scale(0.100000,-0.100000)"
 stroke="none">
<path d="M2712 6098 c3 -23 48 -41 48 -20 0 24 -14 42 -32 42 -14 0 -19 -6
-16 -22z"/>
<path d="M12006 6070 c2 -27 -1 -52 -5 -55 -5 -3 -5 -20 -1 -39 5 -22 4 -38
-3 -45 -8 -8 -8 -14 1 -23 9 -9 8 -16 -5 -30 -13 -14 -32 -18 -95 -18 -44 0
-88 5 -98 10 -10 6 -21 7 -24 2 -5 -9 -43 -8 -66 2 -8 3 -292 8 -630 11 -338
3 -694 7 -790 9 -96 3 -663 5 -1260 6 -643 0 -1101 5 -1125 11 -41 9 -858 17
-2685 24 -558 2 -1109 7 -1225 10 -373 11 -1280 11 -1280 0 0 -7 171 -11 490
-12 270 -1 500 -5 513 -8 12 -3 32 0 44 6 17 9 23 8 30 -5 8 -14 46 -16 343
-16 212 0 336 -4 340 -10 4 -7 241 -10 679 -10 673 0 674 0 679 -21 5 -19 7
-19 29 -5 41 27 168 2 168 -33 0 -7 8 -21 18 -30 9 -9 42 -45 72 -81 30 -36
58 -66 62 -68 5 -2 8 -14 8 -26 0 -12 9 -32 20 -44 11 -12 20 -25 20 -30 0 -5
7 -15 15 -22 19 -16 45 -68 45 -90 0 -10 7 -23 15 -30 9 -7 22 -29 31 -49 9
-20 20 -44 25 -53 5 -10 9 -27 9 -38 0 -11 5 -20 10 -20 6 0 10 -9 10 -19 0
-10 6 -21 14 -24 16 -7 46 -63 46 -88 0 -10 5 -21 10 -24 6 -3 10 -17 10 -31
0 -13 4 -32 9 -42 5 -9 14 -29 22 -44 17 -37 39 -36 39 1 0 17 -4 33 -10 36
-5 3 -10 19 -10 35 0 16 -4 32 -10 35 -5 3 -10 19 -10 34 0 15 -8 36 -17 47
-25 27 -83 143 -83 165 0 10 -4 21 -10 24 -5 3 -10 15 -10 26 0 10 -4 19 -10
19 -5 0 -10 6 -10 13 0 6 -14 26 -30 44 -17 18 -30 42 -30 53 0 21 -36 81 -52
88 -4 2 -8 12 -8 22 0 10 -4 22 -10 25 -5 3 -10 15 -10 26 0 10 -4 19 -8 19
-13 0 -52 36 -52 47 0 5 -8 18 -18 29 -10 11 -27 32 -36 47 -10 15 -23 27 -28
27 -13 0 -38 26 -38 39 0 14 416 15 543 1 51 -5 430 -12 842 -15 413 -2 779
-6 815 -8 36 -2 489 -5 1008 -7 519 -2 945 -7 948 -12 3 -4 178 -8 390 -8 391
0 408 -2 375 -36 -5 -5 -12 -43 -14 -84 -3 -41 -10 -100 -17 -130 -6 -30 -14
-74 -17 -97 -3 -24 -9 -43 -13 -43 -5 0 -11 -48 -13 -107 -5 -102 -12 -160
-36 -278 -6 -27 -13 -66 -16 -85 -4 -19 -10 -44 -15 -55 -5 -11 -11 -33 -14
-50 -2 -16 -10 -50 -16 -75 -6 -25 -14 -63 -17 -85 -3 -22 -9 -44 -14 -49 -5
-6 -9 -52 -9 -102 0 -51 -4 -96 -10 -99 -5 -3 -10 -21 -10 -40 0 -19 5 -37 10
-40 6 -3 10 -16 10 -28 -1 -20 -2 -20 -11 -4 -7 12 -23 17 -52 17 -26 0 -51 8
-67 20 -14 11 -31 20 -38 20 -8 0 -25 9 -39 20 -48 37 -89 16 -65 -33 6 -12
14 -85 16 -162 6 -162 13 -232 27 -261 17 -33 -1 -364 -20 -364 -3 0 -17 9
-31 20 -14 11 -35 20 -47 20 -13 0 -23 5 -23 10 0 6 -11 10 -24 10 -14 0 -28
5 -31 10 -3 6 -24 10 -46 10 -29 0 -41 -5 -45 -17 -3 -10 -10 -26 -15 -35 -5
-10 -9 -45 -9 -77 0 -33 -4 -63 -10 -66 -5 -3 -10 -17 -10 -30 0 -13 -4 -27
-10 -30 -5 -3 -10 -24 -10 -45 0 -21 -4 -42 -10 -45 -5 -3 -10 -17 -10 -30 0
-14 -9 -40 -20 -60 -11 -20 -20 -44 -20 -54 0 -15 -26 -74 -71 -163 -13 -25
-11 -37 10 -66 48 -68 60 -101 62 -171 1 -44 -2 -76 -10 -85 -17 -20 -6 -36
25 -36 l24 0 1 -147 c1 -156 2 -178 13 -204 4 -10 3 -20 -3 -24 -6 -3 -11 -21
-11 -40 0 -19 -4 -37 -10 -40 -5 -3 -10 -15 -10 -26 0 -10 -4 -28 -10 -39 -5
-11 -14 -29 -20 -40 -5 -11 -10 -29 -10 -39 0 -11 -4 -23 -10 -26 -5 -3 -10
-17 -10 -30 0 -13 -4 -27 -10 -30 -5 -3 -10 -24 -10 -45 0 -21 -4 -42 -10 -45
-5 -3 -10 -19 -10 -35 0 -16 -4 -32 -10 -35 -5 -3 -10 -14 -10 -23 0 -9 -9
-28 -20 -42 -11 -14 -20 -40 -20 -58 0 -31 -4 -41 -32 -94 -7 -13 -23 -45 -36
-71 -14 -28 -35 -52 -48 -57 -19 -8 -24 -17 -24 -45 0 -19 -3 -35 -8 -35 -4 0
-13 -14 -20 -30 -6 -16 -18 -43 -24 -60 -7 -17 -16 -30 -20 -30 -5 0 -8 -7 -8
-15 0 -8 -4 -24 -10 -35 -5 -11 -14 -29 -20 -40 -5 -11 -10 -33 -10 -48 0 -40
-24 -85 -65 -121 -39 -34 -44 -51 -16 -51 26 0 91 62 91 88 0 12 9 37 20 57
11 20 20 42 20 50 0 9 4 23 9 33 5 9 20 41 33 69 25 58 34 64 43 31 12 -41 34
-85 50 -98 8 -7 15 -21 15 -31 0 -11 3 -19 8 -19 8 0 32 -49 32 -67 0 -7 5
-13 10 -13 6 0 10 -11 10 -23 0 -13 9 -32 20 -42 11 -10 20 -29 20 -41 0 -14
12 -32 30 -45 16 -12 41 -45 54 -74 32 -64 68 -99 95 -92 11 2 30 -2 42 -11
20 -14 23 -14 35 3 9 12 10 23 4 36 -6 10 -10 33 -10 53 0 19 -4 38 -10 41 -5
3 -10 19 -10 34 0 15 -5 32 -11 38 -5 5 -9 34 -7 63 l3 53 30 -24 c42 -34 72
-49 94 -49 11 0 23 -4 26 -10 9 -14 34 -12 51 4 19 20 18 25 -10 47 -14 11
-37 44 -52 74 -14 30 -30 55 -35 55 -5 0 -9 9 -9 19 0 11 -4 23 -10 26 -5 3
-10 14 -10 24 0 10 -7 24 -15 31 -22 18 -45 70 -45 101 0 15 -4 31 -10 34 -6
4 -10 85 -10 210 0 125 -4 206 -10 210 -5 3 -10 21 -11 38 -1 40 -28 88 -58
103 -34 17 -45 31 -32 38 6 4 11 18 11 31 0 13 5 27 10 30 6 3 10 15 10 25 0
11 9 35 20 55 11 20 20 44 20 55 0 10 5 22 10 25 6 3 10 48 10 100 0 52 4 97
10 100 6 3 10 15 10 26 0 10 5 19 10 19 6 0 10 4 10 9 0 5 14 23 30 41 17 18
30 36 30 41 0 5 18 32 40 61 22 29 40 59 40 66 0 6 5 12 10 12 6 0 10 7 10 15
0 9 9 25 20 37 11 12 20 28 20 35 0 7 5 13 10 13 6 0 10 14 10 30 0 17 4 30 8
30 5 0 15 12 23 27 32 62 112 124 133 103 5 -5 17 -10 26 -10 21 0 60 -41 60
-63 0 -9 5 -17 10 -17 6 0 10 -6 10 -13 0 -21 97 -110 113 -104 10 4 17 25 20
64 5 64 14 107 27 138 5 11 11 38 15 60 3 22 8 57 11 78 4 20 10 40 15 43 5 3
9 38 9 79 0 41 5 77 10 80 6 3 10 26 10 51 0 39 2 44 23 44 23 0 87 -56 87
-76 0 -14 93 -104 108 -104 7 0 12 -11 12 -25 0 -40 31 -48 73 -19 21 14 37
29 37 34 0 6 6 10 13 10 19 0 147 133 147 153 0 20 57 87 74 87 14 0 116 105
134 137 15 29 16 70 0 75 -8 3 -5 11 10 23 12 11 22 29 22 40 0 11 36 61 80
112 44 50 80 97 80 102 0 6 6 11 13 11 18 0 64 50 69 74 3 17 5 15 18 -8 11
-21 11 -29 2 -35 -10 -6 -12 -132 -8 -582 8 -919 23 -1781 31 -1817 4 -19 3
-37 -3 -45 -6 -7 -7 -18 -2 -26 4 -8 9 -141 10 -295 1 -155 4 -310 7 -346 4
-36 8 -158 10 -271 l4 -206 -75 5 c-41 2 -83 1 -93 -3 -10 -4 -31 -7 -48 -6
-16 2 -203 5 -415 8 -211 3 -391 8 -400 13 -8 4 -91 8 -185 9 -93 1 -174 6
-180 11 -5 4 -71 9 -145 11 -74 1 -157 4 -185 5 -27 2 -158 8 -290 14 -550 23
-680 34 -632 53 9 3 17 14 17 23 0 19 21 86 30 94 3 3 11 19 19 35 25 56 28
60 45 63 9 2 16 -3 16 -13 0 -8 7 -27 16 -40 21 -32 74 -36 74 -5 0 11 5 20
10 20 6 0 10 9 10 20 0 11 4 28 9 38 37 74 51 106 51 118 0 20 -40 17 -46 -3
-8 -25 -19 -51 -45 -109 -23 -50 -24 -51 -36 -26 -7 13 -13 31 -13 38 0 8 -4
14 -10 14 -5 0 -10 11 -10 25 0 37 -28 31 -45 -9 -8 -18 -25 -47 -37 -62 -13
-16 -30 -42 -37 -59 -39 -85 -35 -81 -45 -44 -4 19 -11 63 -13 98 -3 35 -11
70 -18 78 -16 15 -81 18 -90 3 -3 -5 -16 -10 -28 -10 -12 0 -33 -9 -47 -20
-14 -11 -31 -20 -37 -20 -7 0 -13 -4 -13 -10 0 -5 -15 -10 -34 -10 -34 0 -34
0 -20 28 7 15 25 39 39 52 14 13 25 31 25 41 0 10 5 21 10 24 6 4 10 100 10
255 0 258 -10 344 -38 338 -12 -3 -14 -50 -13 -284 l2 -282 -26 -43 c-14 -24
-28 -52 -32 -61 -3 -10 -9 -18 -14 -18 -5 0 -9 -9 -9 -19 0 -11 -4 -23 -10
-26 -5 -3 -10 -17 -10 -31 0 -21 4 -24 38 -24 39 0 92 19 92 33 0 4 15 7 33 7
19 0 42 8 55 20 12 11 34 20 51 20 27 0 29 -3 35 -47 11 -101 18 -138 27 -148
5 -5 9 -19 9 -32 0 -12 8 -27 18 -33 12 -7 -57 -8 -238 -4 -693 15 -2603 2
-2636 -19 -6 -3 -100 -7 -210 -8 -109 0 -203 -5 -209 -9 -5 -5 -190 -10 -410
-11 -220 -1 -420 -6 -445 -10 -25 -5 -522 -11 -1105 -14 -583 -3 -1180 -8
-1327 -11 l-268 -5 0 25 c0 14 5 28 10 31 13 8 13 102 0 110 -5 3 -7 38 -5 78
5 91 21 610 33 1099 6 207 12 381 15 385 3 5 7 98 8 207 1 181 3 198 20 209
21 13 26 66 8 84 -7 7 -8 129 -5 389 4 208 9 936 12 1617 4 1035 7 1237 19
1237 7 0 15 -6 18 -12 3 -10 9 -10 23 -2 50 29 6 57 -76 47 -50 -6 -50 -6 -50
-42 0 -21 5 -42 10 -47 11 -11 7 -2518 -4 -2944 -9 -333 -17 -610 -26 -860 -4
-129 -11 -345 -14 -480 -4 -135 -9 -276 -11 -315 -3 -38 -7 -169 -10 -290 -5
-227 -13 -421 -19 -465 -1 -14 -4 -33 -4 -42 -2 -14 -11 -18 -43 -18 -36 0
-40 -2 -37 -23 l3 -22 255 2 c140 1 743 5 1340 8 596 4 1091 10 1098 14 8 5
32 4 53 -2 26 -6 43 -6 52 1 8 7 145 11 386 12 219 0 381 5 392 10 12 7 20 7
24 0 4 -7 11 -8 18 -1 7 5 103 10 214 10 111 1 215 6 231 11 17 4 95 9 174 10
79 0 177 3 218 5 41 2 147 8 235 12 101 5 169 13 183 21 13 8 31 11 40 7 9 -3
343 -8 742 -10 784 -3 1091 -10 1157 -25 23 -6 77 -10 121 -10 43 0 92 -4 108
-10 16 -5 106 -12 199 -15 94 -4 247 -10 340 -16 94 -5 276 -13 405 -19 307
-13 467 -23 475 -32 4 -4 17 -3 30 2 12 5 26 5 31 0 5 -5 162 -11 349 -14 187
-4 450 -9 585 -12 243 -5 245 -5 258 17 10 15 11 24 3 32 -7 7 -11 74 -11 187
0 96 -4 202 -10 234 -5 33 -10 216 -11 408 0 201 -4 350 -10 353 -5 4 -9 193
-9 461 0 304 -4 462 -11 475 -7 15 -7 24 2 35 9 11 9 17 -1 29 -9 11 -10 18
-1 28 6 8 7 17 3 21 -9 10 -9 -19 -11 712 -2 484 1 647 10 667 9 20 9 30 0 40
-15 19 -17 1665 -2 1680 6 6 11 22 11 36 l0 24 25 -23 24 -23 11 28 c14 36 8
50 -27 67 l-28 13 2 133 c2 132 2 132 -21 132 -21 0 -22 -4 -20 -50z m-658
-252 c8 -8 15 -8 26 1 12 10 21 9 46 -5 16 -10 30 -23 30 -29 -1 -12 -67 -85
-77 -85 -11 0 -163 -153 -163 -164 0 -13 -81 -96 -93 -96 -6 0 -29 -17 -52
-37 -24 -21 -55 -46 -69 -56 -33 -23 -33 -70 -1 -75 25 -3 105 62 105 86 0 21
37 63 71 81 15 7 33 25 40 40 18 33 189 211 204 211 18 0 65 55 65 76 0 34 21
44 89 43 45 0 60 -3 46 -9 -12 -4 -27 -15 -34 -24 -11 -13 -11 -17 3 -22 9 -3
23 -1 31 6 9 7 18 11 21 8 7 -8 -45 -68 -59 -68 -15 0 -107 -91 -107 -105 0
-7 -12 -22 -26 -36 -14 -13 -42 -45 -61 -71 -19 -27 -40 -48 -46 -48 -16 0
-127 -107 -127 -122 0 -16 -101 -118 -116 -118 -7 0 -33 -23 -59 -52 -51 -56
-57 -91 -17 -96 28 -4 49 13 104 88 23 32 47 56 53 53 17 -6 38 24 42 60 2 24
22 50 75 104 40 40 78 73 84 73 15 0 104 98 104 115 0 16 118 145 133 145 21
0 87 74 87 97 0 23 1 23 123 23 l122 0 13 -27 c16 -35 18 -1648 2 -1658 -5 -3
-10 -13 -10 -22 0 -9 -38 -55 -84 -102 -100 -101 -156 -170 -156 -191 0 -8 -9
-26 -20 -40 -11 -14 -20 -30 -20 -36 0 -7 -8 -14 -17 -16 -18 -5 -63 -79 -63
-103 0 -7 -7 -18 -15 -25 -9 -7 -25 -33 -36 -57 -12 -26 -30 -48 -44 -53 -17
-6 -25 -17 -25 -32 0 -15 -30 -55 -88 -116 -80 -85 -90 -92 -124 -92 -26 0
-38 5 -38 14 0 8 -20 36 -44 62 -25 27 -70 77 -101 111 l-57 62 19 28 c11 15
27 45 37 66 10 21 25 41 34 44 40 12 65 29 72 48 4 12 15 27 24 34 9 7 16 23
16 35 0 12 14 35 30 51 17 16 30 34 30 40 0 6 18 29 40 50 22 21 40 43 40 48
0 11 26 37 37 37 13 0 57 50 73 85 8 17 66 81 128 144 64 64 121 132 132 155
10 23 42 64 70 91 54 53 86 107 75 125 -8 13 -45 -16 -45 -35 0 -7 -9 -20 -20
-30 -11 -10 -20 -23 -20 -29 0 -6 -10 -16 -22 -21 -13 -6 -27 -20 -33 -32 -5
-13 -13 -23 -17 -23 -5 0 -8 -7 -8 -16 0 -9 -27 -45 -60 -81 -33 -35 -60 -68
-60 -73 0 -6 -6 -10 -13 -10 -17 0 -107 -96 -107 -114 0 -8 -33 -48 -72 -89
-129 -133 -188 -196 -188 -203 0 -10 -112 -128 -125 -132 -5 -2 -47 -22 -93
-44 -83 -41 -106 -43 -84 -8 7 11 12 26 12 34 0 12 14 44 51 118 5 10 9 27 9
38 0 11 6 29 12 40 11 17 9 23 -10 42 -22 22 -22 22 -53 4 -17 -10 -30 -14
-28 -8 2 6 102 110 222 230 119 120 217 222 217 227 0 4 10 16 23 27 12 11 33
29 47 42 14 12 33 25 43 29 9 3 21 17 26 29 11 27 45 68 57 68 12 0 124 115
124 127 0 4 10 13 22 18 13 6 27 19 33 30 5 12 30 44 54 72 47 56 94 140 85
154 -12 21 -35 6 -53 -34 -11 -24 -27 -50 -36 -57 -8 -7 -15 -18 -15 -25 0 -6
-9 -20 -20 -30 -11 -10 -20 -23 -20 -30 0 -6 -28 -38 -62 -71 -95 -92 -177
-178 -178 -187 0 -13 -48 -57 -62 -57 -16 0 -191 -186 -201 -213 -4 -9 -15
-20 -24 -24 -26 -8 -203 -184 -214 -211 -5 -12 -19 -26 -32 -31 -13 -5 -42
-30 -64 -55 -37 -42 -44 -46 -86 -46 -25 0 -49 -4 -52 -10 -3 -5 -17 -10 -31
-10 -21 0 -24 4 -24 39 0 22 5 43 10 46 6 3 10 23 10 43 0 21 9 48 20 62 11
14 20 32 20 40 1 8 23 33 50 55 28 22 50 46 50 53 0 6 6 12 13 12 16 0 127
102 127 117 0 7 8 17 18 22 10 5 24 21 32 35 7 14 17 26 22 26 22 0 168 126
168 145 0 17 125 135 143 135 14 0 107 99 116 123 6 17 126 137 136 137 13 0
105 92 105 105 0 6 14 24 30 40 17 16 30 34 30 40 0 7 9 20 20 30 27 25 17 35
-37 35 -44 0 -45 0 -25 18 25 21 35 52 22 72 -15 23 -44 -1 -50 -41 -3 -22
-13 -37 -28 -45 -13 -6 -58 -46 -101 -88 -43 -42 -84 -76 -90 -76 -6 0 -14 -8
-18 -17 -8 -24 -44 -63 -57 -63 -13 0 -206 -191 -206 -204 0 -14 -42 -56 -55
-56 -17 0 -185 -170 -185 -187 0 -22 -48 -45 -102 -49 l-52 -4 60 61 c32 33
69 65 82 70 12 5 22 16 22 26 0 18 41 73 54 73 11 0 66 57 66 67 0 5 18 27 41
48 22 22 53 58 69 80 15 22 79 92 141 155 63 63 123 126 133 140 11 14 69 75
129 137 81 83 108 117 103 129 -5 13 -9 15 -18 6 -7 -7 -27 -12 -44 -12 -39 0
-55 -19 -24 -27 19 -5 12 -15 -62 -93 -46 -48 -96 -102 -111 -121 -16 -19 -79
-86 -140 -150 -157 -163 -279 -297 -297 -325 -8 -13 -18 -24 -22 -24 -10 0
-88 -78 -88 -88 0 -4 -25 -32 -55 -62 l-55 -54 0 86 c0 48 5 90 10 93 6 3 10
19 10 35 0 16 5 32 10 35 6 3 10 24 10 45 0 21 5 42 10 45 6 3 10 24 10 45 0
21 4 41 9 44 9 6 12 24 27 134 3 29 11 55 15 58 5 3 9 29 9 59 0 30 5 57 10
60 6 3 10 48 10 99 0 50 4 96 9 102 13 14 22 85 27 219 3 66 9 124 15 130 5 5
9 17 9 27 0 17 13 18 168 18 114 0 172 -4 180 -12z m383 -677 c-12 -16 -21
-35 -21 -42 0 -16 -120 -139 -136 -139 -13 0 -91 -83 -114 -120 -18 -31 -133
-140 -147 -140 -5 0 -37 -28 -70 -62 -92 -96 -155 -152 -188 -168 -44 -21 -85
-61 -85 -83 0 -21 -136 -167 -156 -167 -6 0 -15 16 -19 36 -5 27 -2 41 12 57
20 24 106 109 149 148 16 14 73 71 127 127 54 56 105 102 113 102 8 0 17 8 21
18 8 24 225 242 241 242 7 0 15 7 19 16 7 18 50 64 61 64 4 1 23 14 42 30 19
17 42 30 51 30 9 0 24 9 34 20 10 11 24 20 31 20 7 0 16 9 19 20 3 11 13 20
21 20 12 0 11 -6 -5 -29z m-661 -26 c-7 -8 -17 -15 -22 -15 -6 0 -5 7 2 15 7
8 17 15 22 15 6 0 5 -7 -2 -15z m-224 -692 c-14 -15 -26 -24 -26 -19 0 12 42
57 48 52 2 -3 -8 -17 -22 -33z m-221 -111 c64 -15 68 -21 66 -113 -1 -46 -6
-88 -11 -93 -6 -6 -10 -17 -10 -26 0 -9 -18 -33 -40 -55 -42 -41 -43 -55 -3
-55 23 0 25 -3 18 -27 -15 -61 -17 -104 -5 -118 14 -16 80 -20 96 -6 9 9 200
22 208 14 3 -3 -4 -20 -15 -39 -10 -19 -19 -41 -19 -48 0 -7 -8 -28 -17 -47
-29 -57 -39 -93 -33 -119 8 -36 46 -37 113 -1 31 16 57 26 57 21 0 -11 -35
-74 -61 -112 -11 -15 -19 -43 -19 -66 0 -23 -4 -43 -9 -46 -11 -7 -21 -61 -28
-148 -2 -38 -9 -68 -14 -68 -5 0 -9 -13 -9 -29 0 -34 -18 -127 -31 -156 -4
-11 -10 -33 -11 -49 -4 -39 -35 -58 -50 -31 -6 11 -38 48 -71 83 -82 85 -101
85 -190 -4 -37 -36 -67 -74 -67 -85 0 -21 -16 -53 -42 -83 -10 -11 -18 -30
-18 -42 0 -12 -4 -24 -8 -26 -10 -4 -109 -146 -137 -197 -11 -20 -23 -38 -26
-41 -3 -3 -9 -12 -12 -20 -3 -8 -6 36 -6 98 -1 62 -5 121 -11 132 -5 11 -14
29 -20 40 -5 11 -10 36 -10 55 0 19 -4 35 -10 35 -5 0 -10 11 -10 25 0 24 -3
33 -28 82 -14 27 -16 96 -3 121 5 9 14 31 21 47 7 17 16 38 21 47 5 10 9 29 9
43 0 14 5 25 10 25 6 0 10 9 10 19 0 11 5 23 10 26 6 3 10 21 10 40 0 19 5 37
10 40 6 3 10 35 10 71 0 36 4 64 10 64 6 0 10 15 10 34 0 19 5 38 10 41 6 3
10 15 10 26 0 16 7 19 55 19 30 0 55 -4 55 -10 0 -5 7 -10 15 -10 8 0 29 -8
47 -18 39 -22 90 -34 103 -24 19 13 23 323 6 432 -7 47 -15 145 -18 219 l-4
134 28 -7 c15 -4 42 -10 58 -14z m165 -111 c0 -3 -12 -14 -25 -24 l-25 -18 0
29 c0 26 3 29 25 24 14 -2 25 -7 25 -11z m-63 -73 c-3 -8 -6 -5 -6 6 -1 11 2
17 5 13 3 -3 4 -12 1 -19z m-573 -2240 c9 -17 16 -39 16 -49 0 -10 5 -21 10
-24 6 -3 10 -21 10 -40 0 -19 5 -37 10 -40 14 -9 13 -145 -2 -200 -10 -36 -10
-50 0 -65 7 -11 12 -40 12 -65 0 -25 5 -45 10 -45 6 0 10 -22 10 -48 0 -36 5
-54 20 -67 11 -10 20 -26 20 -37 0 -10 5 -18 10 -18 6 0 10 -10 10 -23 0 -13
9 -33 20 -45 11 -12 20 -26 20 -32 0 -22 -28 -8 -75 40 -31 31 -58 50 -72 50
-27 0 -41 -26 -24 -43 6 -6 11 -26 11 -43 0 -18 4 -35 9 -38 11 -7 21 -56 12
-56 -4 0 -12 5 -17 10 -7 7 -16 4 -27 -8 -17 -18 -16 -22 3 -66 11 -26 20 -60
19 -74 0 -15 -3 -20 -6 -12 -16 48 -38 84 -78 127 -25 26 -45 55 -45 63 0 8
-9 26 -20 40 -11 14 -20 32 -20 41 0 21 -61 139 -72 139 -4 0 -8 9 -8 20 0 11
-4 20 -10 20 -5 0 -10 17 -10 37 0 29 3 34 12 25 7 -7 16 -12 20 -12 15 0 8
37 -11 54 -17 15 -17 21 -6 42 7 14 23 38 36 53 38 43 49 68 49 106 0 19 9 50
20 70 11 20 20 41 20 48 0 7 9 23 20 37 11 14 20 35 20 47 0 12 5 25 10 28 6
3 10 17 10 31 0 13 5 24 10 24 6 0 10 9 10 21 0 26 15 17 34 -23z"/>
<path d="M11249 5783 c-8 -10 -21 -31 -29 -47 -8 -16 -62 -78 -120 -139 -113
-117 -130 -144 -103 -154 12 -5 23 2 37 23 12 16 48 58 82 94 121 131 177 211
158 230 -7 7 -15 5 -25 -7z"/>
<path d="M11751 5697 c-5 -13 -16 -29 -25 -36 -9 -7 -16 -19 -16 -25 0 -11
-124 -135 -212 -211 -19 -16 -39 -37 -44 -45 -12 -19 -183 -172 -209 -186 -11
-6 -25 -20 -31 -32 -16 -32 -183 -202 -198 -202 -19 0 -46 -34 -46 -58 0 -12
-4 -22 -9 -22 -14 0 -48 -52 -56 -83 -7 -26 -5 -27 28 -27 39 0 56 15 38 33
-15 15 -14 30 2 24 15 -5 47 10 47 24 0 17 60 99 73 99 7 0 28 19 47 41 19 23
43 49 53 57 9 9 17 22 17 28 0 7 10 25 23 41 12 15 27 37 33 48 6 11 23 21 37
23 16 2 33 14 43 30 8 15 34 41 56 57 22 17 49 44 61 60 30 44 79 95 92 95 6
0 37 27 70 60 33 33 65 60 73 60 7 0 16 8 19 18 4 9 28 45 55 79 26 34 48 65
48 68 0 3 -14 5 -30 5 -23 0 -33 -6 -39 -23z"/>
<path d="M11790 5050 c0 -5 -6 -10 -14 -10 -15 0 -68 -75 -59 -84 14 -14 33
-4 77 42 25 26 46 50 46 55 0 4 -11 7 -25 7 -14 0 -25 -4 -25 -10z"/>
<path d="M11669 4912 c-20 -21 -72 -72 -117 -115 -45 -43 -82 -82 -82 -87 0
-5 -6 -10 -14 -12 -8 -2 -74 -59 -147 -128 -74 -69 -174 -163 -224 -210 -49
-47 -98 -97 -108 -112 -11 -16 -26 -28 -35 -28 -10 -1 -44 -28 -77 -61 l-60
-61 24 -19 c13 -10 28 -19 35 -19 27 1 88 39 101 63 17 33 4 44 -20 17 -10
-11 -24 -20 -32 -20 -7 0 -13 -4 -13 -10 0 -5 -10 -10 -22 -10 -20 0 -18 5 22
45 25 24 49 44 53 45 8 0 266 249 316 304 14 16 43 42 65 57 21 16 89 77 150
135 61 59 121 113 134 121 12 9 22 20 22 25 0 12 17 29 53 52 25 17 36 49 20
59 -5 3 -24 -11 -44 -31z"/>
<path d="M11808 4701 c-43 -42 -78 -83 -78 -89 0 -7 -4 -12 -10 -12 -5 0 -10
-8 -10 -18 0 -11 -28 -45 -62 -76 -127 -116 -153 -143 -167 -172 -19 -38 -91
-114 -108 -114 -8 0 -16 -6 -19 -14 -3 -8 -37 -48 -75 -88 -38 -40 -69 -78
-69 -84 0 -13 -43 -54 -56 -54 -16 0 -101 -93 -115 -127 -8 -18 -17 -33 -21
-33 -5 0 -8 -7 -8 -15 0 -8 8 -15 18 -15 21 0 40 20 62 64 21 41 89 116 106
116 8 0 18 8 21 18 4 9 32 45 63 79 32 33 72 79 90 102 19 23 39 41 45 41 14
0 57 47 74 82 8 15 40 52 72 83 33 30 59 60 59 65 0 6 6 10 13 10 14 0 87 70
87 84 0 21 118 156 136 156 17 0 49 69 38 80 -5 5 -41 -24 -86 -69z"/>
<path d="M11814 4362 c-11 -9 -28 -33 -37 -53 -9 -20 -23 -42 -32 -49 -8 -7
-15 -16 -15 -21 0 -10 -6 -18 -79 -104 -28 -33 -67 -81 -87 -107 -20 -27 -42
-48 -49 -48 -14 0 -45 -42 -45 -63 0 -7 -16 -29 -36 -48 -20 -18 -54 -58 -76
-87 -22 -29 -47 -56 -56 -59 -21 -7 -92 -74 -92 -86 0 -5 -27 -39 -61 -74 -33
-36 -58 -70 -56 -76 2 -7 17 -13 34 -15 23 -2 38 4 62 28 17 17 31 39 31 49 0
10 9 26 20 36 11 10 20 25 20 33 0 22 49 82 75 92 23 9 145 150 145 168 0 5 7
16 16 23 9 7 20 24 25 36 5 13 19 27 33 32 13 6 34 25 47 43 12 18 44 57 71
86 26 30 48 60 48 69 0 8 22 39 49 69 27 29 55 67 63 84 7 16 16 30 20 30 5 0
8 7 8 15 0 20 -20 19 -46 -3z"/>
<path d="M11862 4219 c-12 -5 -25 -17 -29 -26 -10 -28 -78 -126 -102 -147 -11
-11 -21 -26 -21 -34 0 -7 -22 -34 -50 -59 -27 -25 -50 -49 -50 -54 0 -5 -36
-56 -80 -114 -44 -58 -80 -108 -80 -111 0 -5 -64 -80 -167 -195 -29 -33 -53
-62 -53 -66 0 -5 7 -17 15 -27 14 -19 15 -19 35 -1 11 10 20 23 20 30 0 6 14
24 30 40 17 16 30 34 30 40 0 6 27 43 60 83 33 39 60 77 60 85 0 8 27 42 60
76 33 34 60 68 60 75 0 7 14 25 30 41 17 16 30 33 30 38 0 9 47 68 118 147 23
26 42 52 42 57 0 5 9 18 20 28 11 10 20 23 20 28 0 6 10 21 22 34 25 27 15 45
-20 32z"/>
<path d="M11058 4018 c-30 -34 -31 -42 -4 -32 16 6 41 52 34 60 -2 1 -16 -11
-30 -28z"/>
<path d="M10987 3962 c-20 -22 -21 -32 -6 -32 12 0 38 29 39 43 0 13 -17 7
-33 -11z"/>
<path d="M12103 5705 c-16 -17 -17 -35 -2 -35 14 0 39 25 39 39 0 15 -23 13
-37 -4z"/>
<path d="M5517 5364 c-11 -12 -8 -72 5 -93 18 -29 -5 -51 -53 -51 -28 0 -39
-4 -39 -15 0 -12 13 -15 60 -15 l60 0 0 -45 c0 -38 -3 -45 -19 -45 -11 0 -23
-4 -26 -10 -3 -5 -28 -10 -56 -10 l-49 0 0 40 c0 22 -4 40 -9 40 -5 0 -7 9 -4
20 5 18 0 20 -36 20 -49 0 -51 -11 -11 -48 29 -26 30 -29 18 -66 -7 -21 -24
-51 -39 -67 -32 -34 -45 -81 -20 -71 9 3 32 23 51 44 23 25 44 38 61 38 14 0
29 4 35 9 16 15 124 20 124 5 0 -7 -4 -16 -10 -19 -5 -3 -10 -22 -10 -41 0
-31 3 -35 23 -32 21 3 22 9 25 88 3 78 -1 97 -29 152 -5 10 -9 44 -9 75 0 57
-26 114 -43 97z"/>
<path d="M4240 5285 c-10 -12 -10 -19 -2 -27 7 -7 12 -24 12 -39 0 -15 5 -31
10 -34 6 -3 10 -19 10 -36 0 -28 -2 -29 -44 -29 -25 0 -48 -4 -51 -10 -3 -5
-19 -10 -34 -10 -31 0 -51 -16 -51 -42 0 -22 19 -23 46 -3 28 21 154 21 154 0
0 -9 6 -18 13 -20 8 -4 11 -21 9 -50 -3 -36 -1 -45 12 -45 12 0 16 10 16 39 0
22 -4 43 -10 46 -5 3 -10 37 -10 75 0 50 -5 79 -19 104 -11 18 -21 46 -23 62
-4 33 -20 41 -38 19z"/>
<path d="M4005 5222 c-11 -2 -24 -8 -29 -13 -6 -5 -27 -9 -48 -9 -35 0 -38 -2
-38 -27 1 -28 20 -63 35 -63 4 0 16 11 26 24 22 27 73 56 99 56 10 0 20 -9 23
-21 6 -23 27 -17 27 7 0 32 -48 55 -95 46z"/>
<path d="M5170 5165 c0 -30 5 -65 12 -78 6 -12 15 -30 20 -39 4 -10 8 -41 8
-69 0 -46 2 -50 21 -47 34 5 47 33 26 56 -10 11 -17 35 -17 60 0 22 -4 44 -10
47 -5 3 -10 26 -10 51 l0 44 40 0 c29 0 40 4 40 15 0 12 -14 15 -65 15 l-65 0
0 -55z"/>
<path d="M7904 5171 c-9 -20 -29 -63 -45 -95 -16 -32 -29 -71 -29 -86 0 -15
-6 -30 -14 -33 -24 -9 -46 -68 -46 -123 0 -29 -4 -56 -10 -59 -5 -3 -10 -17
-10 -30 0 -14 -9 -40 -19 -58 -10 -19 -21 -58 -24 -88 -3 -30 -11 -76 -17
-104 -7 -27 -14 -77 -17 -110 -3 -33 -9 -65 -14 -71 -5 -6 -10 -83 -10 -170
-1 -87 -6 -164 -11 -171 -15 -19 6 -545 23 -579 8 -15 8 -27 0 -42 -6 -11 -11
-39 -11 -61 0 -22 -4 -43 -10 -46 -6 -4 -10 -67 -10 -155 0 -146 0 -149 -22
-152 -22 -3 -23 -7 -19 -81 2 -52 -1 -83 -10 -93 -9 -11 -9 -18 -1 -26 7 -7 5
-20 -9 -44 -10 -19 -19 -43 -19 -54 0 -10 -4 -22 -10 -25 -5 -3 -10 -19 -10
-35 0 -16 -4 -32 -10 -35 -12 -7 -12 -81 0 -110 6 -17 9 -13 14 20 4 22 11 48
17 57 5 10 9 27 9 38 0 16 7 20 30 20 34 0 30 -26 32 220 0 69 3 109 5 90 2
-19 9 -39 14 -44 5 -6 9 -36 9 -68 0 -32 4 -58 10 -58 6 0 10 -11 10 -25 0
-14 4 -33 9 -43 5 -9 21 -42 35 -73 15 -32 33 -62 41 -69 8 -7 15 -25 15 -40
0 -32 13 -59 55 -115 59 -78 98 -115 122 -115 15 0 42 -21 80 -61 63 -66 196
-179 211 -179 5 0 15 -7 22 -15 18 -22 70 -45 101 -45 15 0 31 -4 34 -10 3 -5
22 -10 41 -10 19 0 34 -4 34 -10 0 -5 11 -10 24 -10 14 0 28 -5 31 -10 3 -6
19 -10 34 -10 15 0 31 -4 37 -9 20 -20 280 -39 297 -22 6 6 32 11 58 11 26 0
51 4 54 10 3 5 30 10 60 10 30 0 57 5 60 10 3 6 22 10 40 10 19 0 50 9 70 20
20 11 44 20 55 20 10 0 22 5 25 10 3 6 15 10 25 10 11 0 36 9 56 20 20 12 44
20 53 18 19 -3 124 46 141 67 7 8 18 15 24 15 14 0 126 112 126 126 0 5 18 28
40 49 22 21 40 44 40 50 0 7 9 20 20 30 11 10 20 24 20 32 0 7 4 13 9 13 5 0
21 25 36 56 17 34 36 59 51 64 25 10 33 45 12 53 -10 3 -7 15 10 46 13 26 22
61 22 86 0 24 5 47 10 50 6 3 10 16 10 29 0 12 5 27 11 33 6 6 8 62 6 159 -5
154 -13 220 -28 230 -5 3 -9 15 -9 28 0 13 -18 40 -45 66 -25 25 -58 70 -72
100 -31 65 -70 110 -95 110 -19 0 -25 -25 -8 -35 6 -3 10 -17 10 -30 0 -15 11
-32 30 -45 21 -15 30 -30 30 -49 0 -34 27 -91 43 -91 7 -1 31 -18 55 -39 l42
-39 0 -201 c0 -114 -4 -210 -10 -221 -5 -11 -14 -29 -20 -40 -5 -11 -10 -31
-10 -45 0 -14 -4 -25 -10 -25 -5 0 -10 -8 -10 -17 0 -33 -15 -46 -39 -34 -11
6 -30 15 -41 21 -11 5 -64 10 -117 10 -82 0 -102 -4 -123 -20 -14 -11 -28 -20
-32 -20 -9 0 -83 -56 -120 -91 -16 -15 -28 -36 -28 -48 0 -11 -3 -21 -7 -21
-11 0 -33 -50 -33 -75 0 -12 -5 -26 -12 -33 -7 -7 -11 -46 -10 -105 0 -75 5
-101 21 -131 12 -20 21 -41 21 -46 0 -6 -20 -10 -44 -10 -25 0 -48 -5 -51 -10
-3 -5 -15 -10 -26 -10 -10 0 -28 -4 -39 -10 -11 -5 -29 -14 -40 -20 -11 -5
-33 -10 -49 -10 -17 0 -33 -5 -36 -10 -3 -6 -33 -10 -65 -10 -32 0 -62 -4 -65
-10 -3 -5 -28 -10 -55 -10 -27 0 -52 -4 -55 -10 -3 -5 -42 -10 -85 -10 -43 0
-82 5 -85 10 -3 6 -26 10 -50 10 -24 0 -47 5 -50 10 -3 6 -19 10 -35 10 -16 0
-32 4 -35 10 -3 5 -21 10 -40 10 -19 0 -37 5 -40 10 -3 6 -17 10 -31 10 -23 0
-33 3 -81 28 -13 7 -39 12 -58 12 -21 0 -35 5 -35 12 0 7 -17 29 -37 50 l-36
37 26 21 c16 13 27 31 27 46 0 13 5 24 10 24 6 0 10 14 10 30 0 17 5 30 10 30
6 0 10 11 10 24 0 14 4 27 9 30 5 3 11 23 15 43 3 21 8 56 12 77 6 38 -9 134
-27 168 -5 10 -9 27 -9 37 0 11 -4 23 -10 26 -5 3 -10 16 -10 29 0 28 -29 56
-57 56 -11 0 -28 9 -38 20 -10 11 -26 20 -36 20 -10 0 -33 9 -51 20 -36 22
-151 29 -163 10 -3 -5 -16 -10 -29 -10 -25 0 -76 -21 -76 -32 0 -5 -9 -8 -20
-8 -11 0 -20 -4 -20 -10 0 -5 -9 -10 -20 -10 -11 0 -20 -5 -20 -11 0 -8 -5 -8
-15 1 -8 7 -15 27 -15 46 0 18 -4 36 -10 39 -6 4 -10 95 -10 241 0 136 4 243
10 254 6 11 15 30 21 42 9 17 9 23 0 26 -15 5 -14 24 3 58 17 31 13 44 -13 44
-17 0 -19 16 -20 244 -1 134 2 246 6 249 5 3 4 37 -1 76 -7 55 -7 73 4 86 12
14 17 13 47 -17 18 -17 33 -37 33 -43 0 -14 52 -65 66 -65 6 0 19 -9 29 -20
10 -11 26 -20 36 -20 10 0 34 -9 54 -20 45 -25 101 -27 108 -2 3 9 12 28 20
42 14 23 20 38 47 105 6 14 14 35 19 48 6 12 11 31 13 42 2 12 12 21 26 23 20
3 22 -1 22 -42 0 -25 5 -48 10 -51 6 -3 10 -24 10 -45 0 -21 5 -42 10 -45 6
-3 10 -21 10 -39 0 -46 24 -89 74 -133 83 -73 153 -98 196 -71 15 10 32 10 77
0 38 -8 61 -8 67 -2 13 13 79 13 92 1 10 -10 79 -17 319 -31 88 -5 191 -12
229 -16 44 -4 72 -2 79 5 6 6 30 11 54 11 39 0 43 2 43 24 0 14 5 28 10 31 6
3 10 31 10 60 0 36 7 67 20 90 11 20 20 49 20 65 0 17 5 30 10 30 6 0 10 7 10
16 0 10 8 6 25 -14 14 -17 25 -37 25 -46 0 -9 5 -16 10 -16 6 0 10 -6 10 -13
0 -7 17 -30 38 -50 30 -29 46 -37 75 -37 20 0 37 5 37 10 0 6 6 10 14 10 7 0
19 7 26 15 17 21 67 42 113 48 37 6 46 0 28 -18 -5 -6 -12 -46 -15 -90 -10
-161 -29 -288 -46 -310 -9 -12 -12 -164 -4 -177 3 -5 15 -2 25 8 15 14 19 31
19 85 0 37 5 71 10 74 6 3 10 21 10 39 0 17 4 36 9 41 9 10 17 92 27 290 3 61
9 119 14 130 11 23 19 112 26 275 3 63 9 119 15 125 5 5 9 34 9 65 0 31 4 60
9 65 15 16 23 134 23 350 1 238 -4 275 -38 275 -18 0 -24 -6 -24 -22 0 -13 -9
-34 -20 -48 -11 -14 -20 -37 -20 -52 0 -15 -4 -30 -10 -33 -5 -3 -10 -13 -10
-21 0 -8 -11 -26 -23 -40 -13 -14 -41 -60 -63 -102 -21 -42 -47 -86 -56 -96
-10 -11 -18 -29 -18 -41 0 -12 -9 -30 -20 -40 -11 -10 -20 -24 -20 -32 0 -7
-4 -13 -10 -13 -5 0 -10 -9 -10 -19 0 -11 -4 -23 -10 -26 -5 -3 -10 -21 -10
-40 0 -19 -4 -37 -10 -40 -5 -3 -10 -16 -10 -29 0 -13 -9 -31 -20 -41 -11 -10
-20 -24 -20 -32 0 -7 -4 -13 -10 -13 -5 0 -10 -7 -10 -15 0 -8 -4 -23 -9 -33
-5 -9 -13 -28 -18 -42 -10 -24 -37 -81 -61 -127 -28 -54 -32 -64 -32 -83 0
-11 -4 -20 -10 -20 -5 0 -10 -11 -10 -24 0 -14 -4 -28 -10 -31 -5 -3 -10 -26
-10 -50 0 -24 -4 -47 -10 -50 -5 -3 -10 -16 -10 -29 0 -12 -9 -32 -20 -44 -11
-12 -20 -33 -20 -47 0 -22 -4 -25 -34 -25 -19 0 -38 -4 -41 -10 -8 -13 -68
-13 -80 -1 -6 5 -80 12 -165 15 -228 9 -324 17 -336 27 -6 5 -78 9 -160 8 -82
0 -161 -1 -176 0 -32 1 -138 94 -138 121 0 11 -4 22 -10 25 -5 3 -10 15 -10
26 0 10 -4 19 -9 19 -5 0 -12 42 -15 93 -6 112 -15 179 -27 192 -5 5 -9 24 -9
41 0 18 -4 36 -10 39 -5 3 -10 17 -10 30 0 13 -4 27 -10 30 -5 3 -10 17 -10
30 0 13 -4 27 -10 30 -5 3 -10 17 -10 30 0 13 -4 27 -10 30 -5 3 -10 17 -10
30 0 13 -4 27 -10 30 -5 3 -10 31 -10 62 0 46 -3 56 -20 60 -16 4 -20 14 -20
44 0 22 -4 39 -10 39 -5 0 -10 13 -10 29 0 17 5 33 10 36 17 11 12 55 -6 55
-33 0 -60 69 -34 85 17 11 11 54 -10 67 -11 7 -20 21 -20 30 0 10 -4 18 -10
18 -5 0 -10 8 -10 19 0 13 -9 20 -30 23 -27 4 -32 1 -46 -31z m66 -98 c0 -13
5 -23 10 -23 27 0 6 -49 -40 -94 -27 -27 -69 -75 -92 -107 -23 -31 -45 -56
-49 -53 -8 4 1 55 11 69 22 28 50 88 50 105 0 10 4 21 9 24 5 3 23 36 41 72
29 61 33 64 45 47 8 -10 15 -28 15 -40z m2080 -28 c0 -14 -4 -25 -10 -25 -14
0 -13 -37 1 -42 13 -4 -2 -36 -33 -72 -10 -11 -18 -27 -18 -35 0 -9 -9 -27
-20 -41 -11 -14 -20 -30 -20 -36 0 -5 -27 -37 -60 -70 -32 -32 -59 -64 -60
-70 0 -15 -30 -40 -30 -26 0 15 42 94 63 116 9 11 17 26 17 33 0 7 9 28 20 48
11 19 29 52 41 73 12 20 30 46 40 58 10 11 19 35 19 52 0 18 5 32 10 32 6 0
10 7 10 15 0 8 7 15 15 15 9 0 15 -9 15 -25z m-2071 -283 c-18 -26 -54 -73
-81 -104 -26 -31 -48 -61 -48 -67 0 -6 -4 -11 -10 -11 -5 0 -10 -5 -10 -11 0
-6 -9 -24 -21 -40 -23 -33 -22 -72 3 -77 11 -2 22 10 36 40 10 24 26 49 35 57
10 7 17 19 17 26 0 7 7 18 15 25 9 7 23 29 32 49 10 20 30 50 45 66 15 17 28
41 28 55 l0 25 15 -29 c21 -40 19 -106 -5 -136 -11 -14 -20 -34 -20 -45 0 -22
-72 -98 -102 -108 -10 -4 -18 -13 -18 -22 0 -8 -4 -15 -10 -15 -14 0 -50 -33
-50 -46 0 -6 -7 -17 -15 -24 -17 -14 -45 -67 -45 -86 0 -7 -5 -14 -12 -16 -9
-3 -9 -6 -1 -11 7 -4 31 17 59 50 75 90 127 143 141 143 8 0 18 11 23 24 12
33 30 42 30 17 0 -30 23 -26 38 6 15 33 16 70 2 78 -8 5 -7 11 1 21 18 22 39
17 39 -10 0 -14 5 -28 10 -31 6 -3 10 -15 10 -26 0 -10 5 -19 10 -19 6 0 10
-9 10 -20 0 -11 5 -29 10 -40 6 -11 15 -29 20 -40 17 -35 11 -44 -48 -72 -67
-32 -102 -60 -102 -81 0 -8 -7 -20 -15 -27 -23 -19 -19 9 5 40 11 14 20 37 20
53 0 15 5 27 10 27 6 0 10 8 10 18 0 10 5 23 11 29 7 7 3 19 -15 38 l-26 28
-30 -28 c-17 -16 -30 -32 -30 -37 0 -13 -86 -120 -134 -168 -25 -24 -46 -50
-46 -58 0 -10 -7 -9 -27 6 -16 10 -35 21 -44 25 -15 5 -15 10 -1 59 8 29 17
85 19 123 2 45 11 83 24 107 15 29 18 42 9 57 -7 13 -7 22 0 26 5 3 10 21 10
40 0 19 5 37 10 40 6 3 10 17 10 31 0 17 6 24 18 24 10 0 26 8 34 18 9 9 32
34 52 56 40 43 44 53 19 58 -14 3 -10 11 20 44 20 23 37 46 37 52 0 6 10 12
23 14 21 3 22 -1 25 -70 3 -67 1 -76 -29 -120z m2067 52 c-7 -20 -46 -18 -46
2 0 9 10 30 23 47 l22 32 3 -33 c2 -19 1 -40 -2 -48z m-93 -128 c-22 -22 -46
-54 -53 -71 -8 -16 -32 -48 -52 -70 -21 -22 -38 -45 -38 -52 0 -6 -13 -21 -29
-32 -16 -11 -36 -36 -44 -54 -17 -34 -57 -77 -57 -60 0 13 44 100 62 121 8 9
20 29 28 45 7 15 17 27 22 27 4 0 8 6 8 13 0 7 14 26 30 42 17 16 30 34 30 40
0 6 23 33 50 60 28 27 50 54 50 60 0 6 6 17 13 24 10 10 13 6 15 -20 3 -26 -4
-40 -35 -73z m97 45 c0 -6 -4 -13 -10 -16 -5 -3 -10 -30 -10 -59 0 -40 -5 -57
-20 -71 -14 -12 -20 -31 -20 -58 0 -38 -7 -48 -97 -141 -54 -56 -105 -105
-114 -111 -9 -5 -35 -32 -58 -60 -76 -90 -100 -115 -111 -115 -17 0 -11 45 10
68 11 12 20 26 20 32 0 5 6 10 13 10 31 0 117 133 95 146 -5 3 0 13 11 21 12
8 21 21 21 29 0 18 24 44 40 44 6 0 13 8 17 18 3 9 14 26 24 37 9 11 25 34 36
51 74 124 153 214 153 175z m-44 -306 c-4 -16 -14 -25 -26 -25 -18 0 -18 1 3
34 23 35 33 31 23 -9z m-2005 -73 c-6 -2 -11 -11 -11 -20 0 -9 -9 -28 -20 -42
-11 -14 -20 -30 -20 -36 0 -5 -13 -23 -30 -39 -16 -16 -30 -37 -30 -47 0 -10
-4 -18 -10 -18 -5 0 -10 -13 -10 -30 0 -21 5 -30 17 -30 19 0 53 28 53 44 0 7
23 34 50 61 28 27 50 53 50 58 0 15 28 37 49 37 11 0 23 5 26 10 7 12 45 14
45 2 0 -5 -7 -17 -15 -28 -8 -10 -15 -27 -15 -36 0 -10 -4 -18 -9 -18 -14 0
-111 -133 -111 -152 0 -9 -9 -20 -21 -23 -16 -6 -20 -13 -17 -36 6 -38 -14
-38 -55 1 -18 16 -36 30 -42 30 -14 0 -95 82 -95 97 0 7 7 13 15 13 9 0 19 10
24 23 5 12 30 42 55 67 25 24 46 49 46 54 0 6 19 30 43 54 34 35 43 40 46 25
2 -9 -2 -19 -8 -21z m1955 -4 c-3 -13 -6 -31 -6 -40 0 -9 -28 -47 -63 -85 -83
-90 -157 -195 -157 -222 0 -35 27 -36 61 -2 37 38 59 40 59 6 0 -17 -6 -25
-17 -25 -10 0 -29 -9 -43 -20 -35 -27 -62 -25 -94 9 -53 55 -56 71 -25 117 15
22 35 46 44 54 9 8 21 25 26 37 5 13 19 27 32 32 22 9 65 53 120 125 32 42 73
51 63 14z m23 -294 c-6 -8 -16 -14 -22 -14 -6 0 -21 -10 -34 -22 -23 -21 -23
-21 -23 -1 0 11 -9 28 -20 38 -17 15 -24 16 -46 6 -15 -6 -29 -10 -31 -7 -5 5
35 56 113 145 22 25 47 61 55 79 13 31 14 25 17 -89 2 -81 -1 -126 -9 -135z
m-1921 -12 c-23 -46 -37 -62 -52 -62 -19 1 -19 2 -3 11 9 5 17 19 17 30 0 18
59 94 67 86 2 -2 -11 -32 -29 -65z m25 -1297 c17 -8 40 -15 52 -15 22 0 82
-50 103 -88 6 -12 12 -46 12 -76 0 -30 5 -58 10 -61 6 -3 10 -30 10 -60 0 -30
-4 -57 -10 -60 -5 -3 -10 -29 -10 -57 0 -32 -6 -59 -18 -76 -11 -15 -25 -42
-33 -59 -8 -18 -17 -33 -21 -33 -5 0 -8 -9 -8 -20 0 -34 -23 -23 -85 40 -33
33 -63 60 -68 60 -45 0 -197 173 -197 224 0 6 -9 18 -20 26 -11 8 -20 25 -20
37 0 13 -4 31 -9 41 -5 9 -14 31 -21 47 -7 17 -16 38 -21 47 -13 26 -12 28 21
39 17 6 30 15 30 20 0 5 15 9 33 9 19 0 37 3 41 8 32 32 170 36 229 7z m1733
-204 c5 -5 20 -11 33 -13 28 -4 53 -38 34 -45 -7 -3 -13 -13 -13 -24 0 -10 -4
-19 -9 -19 -5 0 -16 -16 -25 -35 -9 -19 -32 -55 -51 -80 -19 -25 -35 -50 -35
-55 0 -6 -3 -10 -8 -10 -4 0 -13 -13 -20 -30 -8 -16 -19 -30 -26 -30 -7 0 -23
-12 -37 -26 -29 -32 -124 -104 -162 -123 -26 -14 -29 -13 -52 12 -14 14 -25
39 -25 54 0 15 -5 46 -10 68 -6 25 -5 44 0 49 6 6 10 20 10 32 0 13 5 26 10
29 6 3 10 14 10 24 0 10 17 51 38 92 29 58 43 75 62 78 14 1 36 10 50 20 14 9
34 21 45 28 24 14 167 17 181 4z"/>
<path d="M9915 4509 c-4 -6 -5 -13 -2 -16 7 -7 27 6 27 18 0 12 -17 12 -25 -2z"/>
<path d="M3477 5153 c-15 -15 27 -43 64 -43 21 0 41 -4 44 -10 3 -5 17 -10 30
-10 14 0 39 -14 60 -35 34 -34 35 -38 35 -110 0 -40 -4 -77 -10 -80 -5 -3 -10
-21 -10 -39 0 -19 -6 -38 -12 -43 -12 -9 -51 -16 -73 -13 -80 10 -155 10 -155
-1 0 -24 36 -38 95 -39 34 0 66 -5 73 -12 9 -9 26 -9 74 0 35 6 96 11 137 12
84 1 91 3 91 31 0 20 -34 27 -45 9 -3 -5 -38 -10 -76 -10 -56 0 -71 3 -76 17
-4 9 -1 19 5 21 7 2 12 21 12 42 0 21 5 42 10 45 6 3 10 35 10 71 0 36 -4 64
-10 64 -5 0 -10 7 -10 15 0 8 -21 35 -46 60 -36 36 -52 45 -80 45 -19 0 -34 5
-34 10 0 11 -93 14 -103 3z"/>
<path d="M4867 5146 c-19 -15 -25 -110 -7 -121 29 -18 -4 -25 -132 -27 l-143
-3 3 -118 c2 -65 7 -126 12 -135 5 -9 11 -25 14 -34 9 -29 125 -25 171 5 33
21 47 47 25 47 -5 0 -25 -9 -45 -20 -44 -25 -93 -26 -111 -2 -7 9 -14 37 -14
61 0 24 -5 61 -11 82 -19 60 -2 69 125 69 64 0 106 4 106 10 0 6 4 10 9 10 12
0 41 -80 41 -113 0 -15 5 -27 10 -27 6 0 10 -11 10 -24 0 -14 5 -28 10 -31 6
-3 10 -19 10 -36 0 -19 5 -29 15 -29 11 0 15 12 15 49 0 28 -4 53 -10 56 -5 3
-10 24 -10 45 0 21 -4 42 -10 45 -19 12 -11 45 10 45 11 0 20 7 20 15 0 8 -9
15 -20 15 -11 0 -20 -4 -20 -10 0 -5 -4 -10 -10 -10 -5 0 -10 13 -10 29 0 17
-4 33 -10 36 -5 3 -10 33 -10 65 0 64 -6 75 -33 56z"/>
<path d="M4030 5100 c-14 -22 -28 -40 -32 -40 -5 0 -8 -9 -8 -19 0 -11 -4 -23
-10 -26 -5 -3 -10 -25 -10 -49 0 -96 120 -134 132 -41 2 22 -2 31 -14 33 -13
2 -18 -3 -18 -17 0 -28 -21 -27 -49 3 -14 15 -19 26 -12 31 6 3 11 14 11 23 0
9 14 35 30 56 31 41 40 86 17 86 -7 0 -23 -18 -37 -40z"/>
<path d="M4990 4945 c0 -11 12 -15 45 -15 33 0 45 4 45 15 0 11 -12 15 -45 15
-33 0 -45 -4 -45 -15z"/>
<path d="M5536 4931 c-4 -5 -2 -12 3 -15 5 -4 12 -2 15 3 4 5 2 12 -3 15 -5 4
-12 2 -15 -3z"/>
<path d="M6530 4866 c0 -44 4 -76 10 -76 6 0 10 -9 10 -20 0 -11 5 -20 10 -20
6 0 10 -7 10 -15 0 -8 9 -29 20 -47 11 -18 20 -45 20 -60 0 -15 5 -30 10 -33
6 -3 10 -44 10 -90 0 -46 5 -87 10 -90 6 -3 10 -37 10 -75 0 -38 5 -72 10 -75
14 -9 13 -88 -1 -102 -9 -9 -9 -23 0 -55 17 -61 20 -333 4 -349 -7 -7 -13 -23
-13 -35 0 -13 -4 -26 -10 -29 -5 -3 -10 -39 -10 -80 0 -41 -5 -86 -10 -101 -8
-19 -8 -30 0 -38 5 -5 10 -18 10 -28 0 -10 5 -18 10 -18 6 0 10 -11 10 -25 0
-14 4 -33 9 -43 5 -9 14 -29 20 -44 24 -60 36 -83 48 -91 15 -9 43 -65 43 -86
0 -8 33 -48 72 -88 60 -61 69 -73 50 -73 -23 0 -35 5 -87 34 -16 9 -47 24 -67
34 -21 9 -38 20 -38 24 0 5 -6 8 -14 8 -17 0 -100 42 -104 53 -2 4 -12 7 -22
7 -10 0 -22 5 -25 10 -4 7 -13 6 -26 -1 -15 -7 -24 -7 -34 1 -11 9 -16 7 -24
-9 -9 -16 -8 -22 4 -29 14 -7 13 -11 -5 -27 -13 -12 -20 -31 -20 -56 0 -21 -4
-41 -10 -44 -5 -3 -10 -28 -10 -55 0 -27 -4 -52 -10 -55 -5 -3 -10 -17 -10
-30 0 -13 -4 -27 -10 -30 -5 -3 -10 -15 -10 -26 0 -10 -9 -28 -20 -39 -11 -11
-20 -31 -20 -45 0 -14 -4 -25 -10 -25 -5 0 -10 -9 -10 -20 0 -11 -5 -20 -11
-20 -7 0 -10 -18 -7 -50 2 -35 -1 -50 -9 -50 -7 0 -13 -5 -13 -10 0 -19 -204
-210 -224 -210 -9 0 -16 -8 -16 -20 0 -11 -6 -20 -13 -20 -7 0 -23 -9 -35 -20
-12 -11 -33 -20 -47 -20 -14 0 -25 -4 -25 -10 0 -5 -6 -10 -13 -10 -7 0 -23
-9 -35 -20 -12 -11 -28 -20 -36 -20 -8 0 -21 -8 -28 -17 -7 -10 -32 -28 -55
-40 -24 -13 -62 -33 -85 -45 -24 -13 -44 -26 -46 -30 -2 -5 -12 -8 -23 -8 -10
0 -19 -3 -19 -7 0 -13 -53 -33 -87 -33 -18 0 -33 -4 -33 -10 0 -5 -9 -10 -20
-10 -11 0 -28 -4 -38 -9 -51 -26 -91 -38 -165 -48 -20 -3 -40 -9 -43 -14 -3
-5 -20 -9 -39 -9 -18 0 -59 -13 -90 -30 -31 -16 -65 -30 -75 -30 -11 0 -22 -4
-25 -10 -3 -5 -24 -10 -46 -10 -21 0 -39 -4 -39 -10 0 -5 -13 -10 -30 -10 -16
0 -30 -4 -30 -10 0 -5 -18 -10 -39 -10 -22 0 -43 -5 -46 -10 -8 -13 -815 -11
-815 2 0 4 -27 8 -59 8 -33 0 -63 5 -66 10 -3 6 -21 10 -39 10 -17 0 -36 4
-42 8 -5 5 -34 14 -64 22 -30 7 -64 18 -75 23 -47 24 -56 27 -70 27 -8 0 -23
4 -33 9 -9 5 -41 20 -69 33 -29 13 -53 28 -53 34 0 20 -47 44 -85 44 -19 0
-35 5 -35 10 0 6 -7 10 -15 10 -27 0 -124 71 -127 93 -2 13 -13 23 -28 27 -16
4 -26 14 -28 29 -2 12 -11 25 -20 29 -9 3 -26 14 -36 24 -11 10 -28 18 -38 18
-22 0 -88 58 -88 77 0 7 -11 18 -25 23 -31 12 -41 35 -25 55 15 18 6 45 -15
45 -8 0 -15 9 -15 19 0 23 -16 36 -25 21 -13 -22 -115 56 -115 88 0 6 -7 12
-15 12 -10 0 -15 -10 -15 -30 0 -22 10 -39 38 -65 20 -19 41 -35 45 -35 19 0
37 -31 37 -62 0 -27 8 -40 43 -70 85 -73 105 -88 118 -88 8 0 49 -36 92 -79
43 -44 85 -82 93 -85 8 -3 14 -11 14 -18 0 -21 67 -58 105 -58 19 0 35 -4 35
-10 0 -5 6 -10 13 -10 18 0 67 -24 67 -32 0 -5 7 -8 15 -8 9 0 19 -8 22 -18 9
-24 34 -41 61 -42 12 0 22 -4 22 -10 0 -5 11 -10 24 -10 21 0 49 -11 128 -51
10 -5 29 -9 42 -9 14 0 28 -5 31 -10 3 -6 22 -10 41 -10 19 0 34 -4 34 -10 0
-6 38 -10 94 -10 53 0 98 -4 101 -10 8 -14 812 -14 820 0 3 5 33 10 65 10 32
0 62 5 65 10 3 6 26 10 50 10 24 0 47 5 50 10 3 6 17 10 30 10 13 0 27 5 30
10 3 6 15 10 26 10 10 0 19 5 19 10 0 6 9 10 20 10 11 0 20 5 20 10 0 6 18 10
39 10 22 0 42 4 45 9 3 5 23 11 43 15 88 13 113 19 119 27 3 5 16 9 30 9 13 0
24 5 24 10 0 6 11 10 24 10 14 0 28 5 31 10 3 6 15 10 25 10 11 0 35 9 55 20
20 11 44 20 55 20 10 0 22 5 25 10 3 6 15 10 26 10 10 0 19 5 19 10 0 6 7 10
15 10 9 0 25 9 37 20 12 11 29 20 38 20 9 0 29 14 45 30 16 17 37 30 47 30 10
0 18 4 18 8 0 5 12 15 28 23 15 8 34 22 43 31 9 10 24 18 33 18 9 0 16 5 16
10 0 6 12 10 26 10 17 0 28 6 31 20 3 11 10 20 17 20 6 0 27 14 46 30 19 16
38 30 42 30 11 0 133 130 136 146 2 8 8 14 13 14 5 0 9 9 9 20 0 11 5 29 10
40 6 11 15 29 20 40 6 11 10 29 10 40 0 11 5 20 10 20 6 0 10 6 10 13 0 18 24
67 33 67 4 0 7 9 7 20 0 11 5 20 10 20 6 0 10 13 10 29 0 17 5 33 10 36 6 3
10 19 10 35 0 16 5 32 10 35 6 3 10 28 10 55 0 27 5 52 10 55 6 3 10 16 10 29
0 33 29 55 63 49 15 -3 27 -9 27 -14 0 -5 9 -9 20 -9 11 0 20 -4 20 -10 0 -5
9 -10 20 -10 11 0 20 -4 20 -10 0 -5 9 -10 20 -10 11 0 20 -4 20 -10 0 -5 9
-10 20 -10 11 0 20 -4 20 -10 0 -5 9 -10 20 -10 11 0 20 -4 20 -10 0 -5 15
-10 34 -10 19 0 38 -4 41 -10 3 -5 19 -10 36 -10 16 0 29 -4 29 -10 0 -5 15
-10 34 -10 62 0 54 25 -35 109 -44 42 -87 91 -96 109 -8 17 -19 32 -24 32 -5
0 -9 13 -9 29 0 16 -3 31 -7 33 -15 6 -73 131 -73 154 0 13 -4 24 -10 24 -5 0
-10 13 -10 29 0 16 -6 32 -12 34 -10 4 -10 6 0 6 14 1 17 51 2 51 -5 0 -10 20
-10 44 0 25 5 48 10 51 6 3 10 24 10 45 0 22 9 55 20 75 17 30 20 54 20 160 0
72 -4 126 -10 130 -6 4 -10 70 -10 165 0 95 -4 161 -10 165 -6 3 -10 50 -10
106 0 59 -4 99 -10 99 -5 0 -10 15 -10 34 0 19 -4 38 -10 41 -5 3 -10 15 -10
26 0 10 -4 19 -10 19 -5 0 -10 9 -10 20 0 11 -4 20 -10 20 -5 0 -10 14 -10 30
0 17 -4 30 -10 30 -5 0 -10 15 -10 33 0 18 -4 37 -9 43 -5 5 -11 20 -13 33 -1
14 -9 26 -15 29 -10 3 -13 -16 -13 -72z"/>
<path d="M4325 4910 c-3 -5 -32 -10 -64 -10 -43 0 -62 -5 -74 -18 -10 -10 -14
-22 -10 -25 10 -11 91 -8 98 4 4 6 38 9 83 8 65 -2 78 0 80 14 3 14 -5 17 -37
17 -22 0 -43 5 -46 10 -3 6 -10 10 -15 10 -5 0 -12 -4 -15 -10z"/>
<path d="M5336 4873 c-3 -3 -6 -28 -6 -54 0 -62 34 -129 67 -129 28 0 29 14 5
40 -10 11 -23 46 -30 79 -12 59 -23 77 -36 64z"/>
<path d="M4315 4800 c-16 -10 -40 -19 -52 -19 -12 -1 -25 -5 -28 -11 -3 -5
-14 -10 -24 -10 -22 0 -75 -26 -90 -44 -17 -20 3 -29 31 -15 49 26 59 29 83
29 14 0 25 5 25 10 0 6 11 10 24 10 14 0 28 5 31 10 3 6 30 10 60 10 57 0 75
11 55 35 -17 20 -79 18 -115 -5z"/>
<path d="M5430 4685 c0 -11 12 -15 43 -17 69 -3 81 -4 100 -12 9 -5 24 -6 32
-2 13 5 13 9 3 26 -11 17 -23 20 -95 20 -67 0 -83 -3 -83 -15z"/>
<path d="M4260 4620 c-14 -11 -31 -20 -37 -20 -7 0 -13 -9 -13 -20 0 -11 -4
-20 -10 -20 -5 0 -10 -12 -10 -27 0 -47 75 -106 94 -74 3 5 -5 16 -19 25 -42
28 -31 76 21 88 27 7 43 -20 47 -77 2 -33 6 -41 25 -43 20 -3 22 0 22 52 0 31
-4 56 -10 56 -5 0 -10 6 -10 13 0 15 -51 67 -66 67 -5 0 -20 -9 -34 -20z"/>
<path d="M4736 4369 c-3 -8 -7 -41 -10 -74 -8 -98 -17 -137 -30 -127 -13 11
-69 23 -108 24 -27 1 -28 3 -28 54 0 51 -1 54 -25 54 -22 0 -25 -4 -25 -39 0
-22 5 -43 10 -46 18 -11 11 -23 -21 -34 -28 -10 -30 -13 -24 -43 10 -46 22
-65 50 -84 20 -13 25 -25 25 -60 0 -32 4 -44 15 -44 9 0 15 9 15 21 0 18 2 19
15 9 21 -17 19 -67 -3 -79 -10 -5 -24 -21 -32 -35 -11 -22 -20 -26 -61 -26
-26 0 -51 -4 -54 -10 -3 -5 -31 -10 -61 -10 -41 0 -54 -4 -54 -15 0 -10 12
-16 38 -17 72 -3 177 4 187 13 13 12 125 11 125 -1 0 -5 9 -10 20 -10 15 0 20
7 20 25 0 18 -5 25 -19 25 -11 0 -23 5 -26 10 -3 6 -17 10 -31 10 -29 0 -30 7
-4 40 23 29 25 61 8 91 -11 18 -10 23 10 37 33 22 78 91 87 132 13 63 17 202
6 213 -7 7 -12 6 -15 -4z m-91 -239 c-5 -14 -2 -20 9 -20 19 0 20 -9 2 -32
-15 -21 -66 -24 -84 -6 -13 13 -16 60 -5 71 3 4 24 7 45 7 35 0 39 -2 33 -20z"/>
<path d="M3583 4245 c-7 -8 -13 -19 -13 -25 0 -6 -9 -20 -20 -32 -11 -12 -20
-28 -20 -35 0 -7 -4 -13 -10 -13 -5 0 -10 -9 -10 -19 0 -11 -4 -23 -10 -26 -5
-3 -10 -17 -10 -31 0 -13 -4 -24 -10 -24 -5 0 -10 -6 -10 -12 0 -7 -9 -24 -20
-38 -11 -14 -20 -37 -20 -52 0 -15 -4 -29 -9 -32 -5 -3 -12 -20 -15 -38 -10
-51 -27 -181 -28 -203 0 -45 15 -146 23 -151 5 -3 9 -14 9 -25 0 -10 6 -19 13
-19 7 0 23 -9 35 -20 30 -29 118 -29 127 0 3 11 10 20 15 20 8 0 19 20 49 93
6 15 11 54 11 85 -1 51 -4 61 -35 95 -46 48 -88 51 -133 7 -48 -45 -58 -40
-54 27 2 32 8 62 13 67 5 6 9 22 9 37 0 15 5 31 10 34 6 3 10 17 10 31 0 13 5
24 10 24 6 0 10 9 10 20 0 11 5 20 10 20 6 0 10 9 10 20 0 11 5 20 10 20 6 0
10 6 10 13 0 18 24 67 33 67 4 0 7 14 7 30 0 17 6 31 13 32 62 7 81 26 53 54
-18 18 -47 17 -63 -1z m26 -619 c-1 -112 -17 -140 -86 -144 -43 -3 -52 0 -65
20 -8 13 -17 51 -20 86 -4 54 -2 62 13 62 10 0 24 12 31 28 11 22 22 28 58 32
69 8 70 8 69 -84z"/>
<path d="M5050 4090 c0 -5 -33 -10 -72 -12 -65 -3 -73 -5 -73 -23 0 -15 8 -21
34 -23 18 -2 38 1 44 7 6 6 44 11 84 11 74 0 87 8 59 36 -16 16 -76 19 -76 4z"/>
<path d="M5010 4010 c0 -5 -6 -10 -12 -10 -19 -1 -68 -47 -68 -64 0 -8 -4 -18
-10 -21 -26 -16 -6 -110 32 -148 24 -24 90 -22 113 3 10 11 26 20 37 20 10 0
18 5 18 10 0 6 9 10 20 10 13 0 20 7 20 20 0 33 -26 34 -74 1 -46 -32 -93 -40
-114 -19 -7 7 -12 31 -12 54 0 34 6 49 31 73 27 28 37 31 90 31 57 0 60 1 57
23 -3 20 -9 22 -65 25 -39 2 -63 -1 -63 -8z"/>
<path d="M12110 3855 c0 -27 18 -33 38 -13 20 20 14 38 -13 38 -20 0 -25 -5
-25 -25z"/>
<path d="M3827 3842 c-10 -10 -17 -24 -17 -30 0 -7 -3 -12 -7 -12 -23 0 -43
-93 -23 -105 6 -3 10 -15 10 -26 0 -10 5 -19 10 -19 6 0 10 -9 10 -20 0 -18 7
-20 58 -20 51 0 62 4 84 28 26 29 38 104 18 117 -5 3 -10 13 -10 22 0 9 -11
31 -26 50 -19 26 -32 33 -58 33 -19 0 -40 -8 -49 -18z m81 -57 c12 -14 22 -36
22 -49 0 -13 7 -29 15 -36 13 -11 11 -16 -20 -37 -35 -24 -38 -24 -71 -8 -33
16 -34 17 -34 75 0 53 2 60 20 60 11 0 20 5 20 10 0 18 26 10 48 -15z"/>
<path d="M4063 3780 c-10 -22 -21 -40 -25 -40 -13 0 -8 -44 7 -64 21 -28 104
-66 146 -66 27 0 45 8 68 29 17 16 31 35 31 43 0 21 -25 63 -61 102 -30 33
-36 36 -91 36 l-58 0 -17 -40z m161 -50 c47 -52 40 -70 -27 -70 -63 0 -97 27
-97 77 0 32 1 33 44 33 38 0 48 -5 80 -40z"/>
<path d="M5176 3693 c-4 -4 -72 -10 -152 -13 -79 -3 -144 -9 -145 -14 0 -16
82 -39 94 -27 7 7 59 11 132 11 67 0 124 3 128 6 3 3 1 15 -6 25 -12 19 -38
25 -51 12z"/>
<path d="M4420 3640 c-23 -17 -24 -19 -6 -26 10 -4 27 -2 37 4 10 7 50 12 89
12 90 0 92 -16 5 -60 -70 -36 -84 -58 -64 -99 49 -98 109 -105 203 -23 38 33
46 52 21 52 -8 0 -15 -4 -15 -10 0 -5 -7 -10 -15 -10 -9 0 -25 -9 -37 -20 -12
-11 -34 -20 -48 -20 -26 0 -70 36 -70 56 0 17 45 54 64 54 26 0 76 39 76 59 0
38 -31 51 -126 51 -72 0 -94 -4 -114 -20z"/>
<path d="M5573 3210 c-19 -23 -23 -41 -23 -102 l0 -74 41 -22 c71 -38 109 -27
148 41 22 39 29 127 11 127 -5 0 -10 8 -10 18 0 31 -22 42 -84 41 -55 0 -63
-3 -83 -29z m138 -35 c24 -40 23 -71 -2 -106 -17 -25 -27 -29 -65 -29 l-44 0
0 40 c0 22 -5 40 -11 40 -23 0 -4 54 26 71 42 25 75 20 96 -16z"/>
<path d="M5337 3213 c-10 -10 -8 -203 2 -203 9 0 14 -31 27 -155 4 -33 11 -65
16 -72 5 -6 8 -82 7 -170 -1 -126 2 -158 13 -158 16 0 28 61 35 179 3 56 1 92
-6 99 -6 6 -11 44 -11 83 0 40 -4 76 -10 79 -5 3 -10 21 -10 40 0 19 -4 37
-10 40 -6 4 -10 57 -10 126 0 109 -2 119 -18 119 -10 0 -22 -3 -25 -7z"/>
<path d="M4157 3033 c-11 -10 -8 -131 3 -138 6 -3 10 -26 10 -50 0 -24 5 -47
10 -50 6 -3 10 -17 10 -31 0 -20 -5 -24 -29 -24 -21 0 -30 -6 -34 -21 -7 -25
17 -37 38 -19 30 25 45 4 45 -64 0 -36 5 -68 10 -71 6 -3 10 -37 10 -76 0 -39
-4 -69 -10 -69 -5 0 -10 -8 -10 -18 0 -10 -5 -23 -11 -29 -15 -15 3 -24 21 -9
36 28 41 55 39 211 0 85 -5 157 -10 161 -5 3 -9 16 -9 29 0 13 -4 27 -10 30
-5 3 -10 28 -10 55 0 26 -4 50 -10 52 -5 2 -10 27 -11 55 -2 50 -26 93 -42 76z"/>
<path d="M8107 3034 c-11 -12 8 -39 61 -89 30 -27 58 -51 63 -53 5 -2 22 -16
38 -31 16 -15 57 -41 92 -58 52 -26 80 -33 146 -36 45 -3 86 -8 92 -11 5 -4
12 -2 16 4 3 5 19 10 36 10 32 0 37 13 15 36 -11 10 -43 14 -130 14 -71 0
-116 4 -116 10 0 6 -9 10 -20 10 -11 0 -20 5 -20 10 0 6 -7 10 -16 10 -8 0
-29 13 -47 30 -18 16 -37 30 -44 30 -6 0 -23 14 -36 30 -14 17 -30 30 -36 30
-6 0 -24 14 -39 30 -29 30 -43 36 -55 24z"/>
<path d="M4795 3018 c-10 -24 -1 -163 10 -163 13 0 19 155 6 168 -7 7 -12 5
-16 -5z"/>
<path d="M4923 2973 c-16 -6 -18 -143 -3 -143 6 0 10 -6 10 -13 0 -16 72 -87
88 -87 7 0 12 -4 12 -10 0 -15 39 -12 56 4 8 8 14 22 14 30 0 9 5 16 10 16 6
0 10 11 10 25 0 14 -6 25 -12 25 -14 0 -38 -44 -38 -68 0 -21 -13 -12 -73 57
-41 45 -57 72 -57 92 0 15 5 31 10 34 25 16 2 48 -27 38z"/>
<path d="M5110 2970 c-8 -5 -23 -11 -34 -14 -14 -5 -16 -9 -7 -20 11 -13 61
-10 71 4 8 11 79 20 85 10 3 -5 1 -11 -5 -15 -13 -8 -13 -98 0 -111 5 -5 11
-54 12 -109 2 -60 7 -99 13 -98 6 2 11 22 13 45 2 24 7 47 12 52 4 4 4 22 -1
39 -5 18 -9 44 -9 60 0 15 -5 35 -11 45 -8 13 -7 29 4 62 8 25 13 48 11 52 -6
9 -136 8 -154 -2z"/>
<path d="M5589 2968 c-4 -53 5 -185 14 -199 14 -23 -3 -45 -43 -53 -17 -3 -30
-11 -30 -18 0 -7 -13 -19 -30 -26 -28 -13 -49 -47 -35 -60 3 -3 15 -1 25 6 11
7 26 12 33 12 8 0 19 11 27 24 11 21 23 26 76 32 36 3 67 10 70 15 7 12 71 11
79 -1 9 -14 25 -2 25 19 0 14 7 16 35 13 28 -3 35 -1 35 13 0 12 -8 16 -32 13
-42 -4 -58 23 -58 98 0 29 -4 56 -10 59 -5 3 -10 19 -10 36 0 20 -5 29 -16 29
-13 0 -15 -12 -11 -77 2 -43 9 -97 14 -120 l10 -43 -57 0 -58 0 -6 48 c-3 26
-9 80 -12 120 -5 52 -10 72 -20 72 -8 0 -14 -6 -15 -12z"/>
<path d="M4480 2951 c-8 -5 -23 -12 -33 -15 -42 -13 0 -26 87 -26 84 0 95 -2
114 -23 25 -27 27 -56 8 -112 -14 -39 -23 -48 -59 -59 -12 -4 -15 -10 -10 -18
17 -28 -8 -93 -38 -101 -15 -4 -19 -14 -19 -46 0 -51 21 -55 44 -7 8 18 22 39
31 46 8 7 15 18 15 24 0 7 5 17 11 23 12 12 58 -7 79 -32 18 -21 62 -20 58 1
-2 9 -12 22 -22 28 -11 6 -29 19 -40 29 -11 9 -26 17 -33 17 -18 0 -17 25 2
40 25 21 45 72 45 117 0 23 -4 43 -10 43 -5 0 -10 6 -10 14 0 22 -44 45 -96
50 -27 3 -62 7 -79 10 -16 3 -37 2 -45 -3z"/>
<path d="M3577 2914 c-12 -12 4 -24 33 -24 16 0 32 -4 35 -10 3 -5 39 -10 78
-10 75 -1 107 -14 107 -44 0 -9 5 -16 10 -16 6 0 10 -15 10 -34 0 -19 -4 -38
-10 -41 -5 -3 -10 -17 -10 -31 0 -13 -4 -24 -10 -24 -5 0 -10 -15 -10 -34 0
-27 -10 -46 -51 -90 -28 -31 -60 -56 -70 -56 -10 0 -19 -4 -19 -10 0 -5 -7
-10 -15 -10 -8 0 -15 5 -15 10 0 6 -11 10 -25 10 -32 0 -32 -16 1 -46 30 -29
44 -30 70 -6 10 10 35 25 55 34 19 10 41 29 49 43 7 14 17 25 22 25 4 0 8 6 8
14 0 8 14 40 30 71 17 31 30 65 30 75 0 11 5 22 10 25 14 9 13 48 -2 63 -9 9
-8 12 8 12 11 0 25 5 32 12 9 9 22 2 57 -32 40 -39 45 -49 45 -87 0 -24 -4
-51 -9 -61 -5 -9 -17 -34 -26 -55 -9 -21 -23 -41 -31 -44 -22 -8 -17 -33 7
-33 44 0 109 117 109 197 0 29 -4 53 -10 53 -5 0 -10 8 -10 18 -1 36 -130 108
-130 72 0 -21 -58 -10 -73 14 -28 42 -71 56 -177 56 -53 0 -100 -3 -103 -6z"/>
<path d="M6110 2830 c0 -5 -13 -10 -30 -10 -29 0 -30 -2 -30 -45 l0 -45 45 0
c25 0 45 5 45 10 0 6 9 10 20 10 17 0 20 7 20 45 0 45 0 45 -35 45 -19 0 -35
-4 -35 -10z m37 -46 c-3 -3 -12 -4 -19 -1 -8 3 -5 6 6 6 11 1 17 -2 13 -5z"/>
<path d="M4814 2806 c-3 -8 -3 -43 1 -78 3 -35 8 -111 11 -170 4 -85 8 -108
20 -108 9 0 14 11 14 29 0 17 4 33 10 36 5 3 7 27 5 53 -3 26 -8 72 -11 102
-3 30 -10 59 -15 65 -5 5 -9 24 -9 41 0 36 -17 55 -26 30z"/>
<path d="M9030 2782 c0 -26 32 -52 63 -52 15 0 36 -4 47 -10 11 -5 29 -14 40
-20 11 -5 51 -10 89 -10 39 0 73 5 76 10 3 6 33 10 65 10 32 0 62 5 65 10 3 6
32 10 64 10 68 0 121 22 121 51 0 15 -7 19 -35 19 -19 0 -35 -4 -35 -10 0 -5
-15 -10 -34 -10 -19 0 -38 -4 -41 -10 -3 -5 -17 -10 -30 -10 -13 0 -27 -4 -30
-10 -4 -6 -65 -10 -151 -10 -89 0 -144 4 -144 10 0 6 -6 10 -13 10 -18 0 -67
24 -67 33 0 4 -11 7 -25 7 -18 0 -25 -5 -25 -18z"/>
<path d="M4292 2751 c-10 -6 -8 -10 10 -14 39 -11 70 -8 66 6 -5 15 -58 21
-76 8z"/>
<path d="M8734 2374 c-55 -27 -104 -79 -104 -109 0 -39 26 -54 91 -55 30 0 60
-5 66 -11 11 -11 59 -9 147 7 22 4 50 17 64 29 23 22 23 22 5 55 -19 34 -25
38 -78 60 -16 7 -37 16 -45 20 -37 18 -115 20 -146 4z m168 -76 c97 -47 90
-58 -36 -58 -59 0 -108 4 -111 10 -3 6 -17 10 -31 10 -29 0 -30 4 -3 41 29 41
90 40 181 -3z"/>
<path d="M7516 2373 c-10 -10 -7 -101 4 -123 6 -11 15 -29 20 -40 6 -11 10
-29 10 -40 0 -26 20 -110 31 -132 5 -10 9 -27 9 -37 0 -11 5 -23 10 -26 6 -3
10 -17 10 -31 0 -17 -5 -24 -20 -24 -12 0 -21 -7 -22 -17 -1 -10 -3 -36 -4
-58 -4 -61 -15 -115 -25 -121 -5 -3 -9 -56 -9 -119 0 -98 -3 -119 -22 -156
-25 -46 -105 -130 -150 -157 -15 -9 -28 -20 -28 -24 0 -4 -7 -8 -16 -8 -19 0
-44 -24 -44 -42 0 -7 -16 -23 -35 -35 -19 -13 -52 -46 -73 -75 -22 -29 -60
-72 -86 -96 -31 -28 -46 -51 -46 -67 0 -14 -4 -25 -10 -25 -5 0 -10 -11 -10
-25 0 -16 6 -25 15 -25 8 0 15 3 15 8 0 4 15 13 33 21 17 8 44 22 59 33 32 22
38 22 38 3 0 -8 -4 -15 -10 -15 -5 0 -10 -6 -10 -13 0 -7 -9 -23 -20 -35 -11
-12 -20 -28 -20 -36 0 -8 -4 -18 -10 -21 -15 -9 -12 -65 3 -65 6 0 23 9 37 20
14 11 30 20 36 20 6 0 19 9 29 20 10 11 24 20 32 20 7 0 13 5 13 10 0 6 5 10
11 10 6 0 9 -15 7 -38 -3 -32 0 -37 20 -40 17 -3 47 22 131 107 68 70 116 111
129 111 12 0 24 5 27 10 3 6 16 10 29 10 12 0 32 9 44 20 12 11 26 20 32 20 5
0 10 4 10 8 0 5 12 15 28 22 15 8 39 22 54 32 14 10 33 18 40 18 8 0 23 9 33
20 10 11 23 20 29 20 7 0 40 -28 74 -63 60 -60 62 -64 62 -114 0 -28 -4 -53
-8 -55 -5 -2 -28 -32 -52 -68 -24 -36 -61 -83 -82 -105 -21 -22 -38 -47 -38
-56 0 -8 -5 -20 -11 -26 -6 -6 -8 -16 -5 -22 14 -22 53 -11 86 24 35 37 82 65
107 65 7 0 13 9 13 20 0 12 7 20 18 20 9 0 28 9 42 20 32 25 55 26 44 3 -4
-10 -10 -46 -12 -81 -4 -71 12 -102 54 -102 25 0 94 73 94 101 0 35 25 41 70
17 32 -17 44 -20 47 -10 3 6 15 12 28 12 23 0 41 16 60 54 6 11 21 22 33 24
29 4 30 43 1 83 -33 47 -68 30 -38 -19 10 -15 5 -26 -22 -63 -53 -71 -83 -79
-102 -27 -13 35 -87 9 -87 -30 0 -7 -4 -12 -9 -12 -5 0 -16 -16 -26 -36 -19
-40 -39 -52 -59 -35 -17 14 -3 97 25 148 20 36 14 63 -16 63 -18 0 -71 -28
-85 -45 -7 -8 -20 -15 -29 -15 -9 0 -32 -18 -51 -40 -23 -26 -43 -40 -59 -40
l-24 0 21 23 c12 13 22 27 22 31 0 4 13 21 30 39 16 18 30 43 30 57 1 29 17
53 43 63 25 9 21 28 -13 64 -17 18 -30 37 -30 44 0 7 -22 38 -49 69 -35 40
-47 60 -39 68 7 7 -3 16 -35 31 -36 17 -50 31 -71 73 -14 28 -26 58 -26 65 0
7 -4 13 -10 13 -5 0 -10 20 -10 44 0 25 -4 48 -10 51 -5 3 -10 17 -10 30 0 13
-4 27 -10 30 -5 3 -10 19 -10 35 0 16 -4 32 -10 35 -5 3 -10 26 -10 50 0 24
-4 47 -10 50 -5 3 -10 24 -10 45 0 21 -4 42 -10 45 -5 3 -10 19 -10 35 0 16
-4 32 -10 35 -5 3 -10 24 -10 45 0 21 -4 42 -10 45 -5 3 -10 15 -10 25 0 11
-8 34 -19 53 -10 18 -21 51 -24 73 -13 88 -20 114 -28 120 -5 3 -9 16 -9 29 0
13 -4 27 -10 30 -5 3 -10 19 -10 35 0 29 -12 45 -24 33z m134 -584 c0 -15 5
-31 10 -34 6 -3 10 -24 10 -45 0 -21 5 -42 10 -45 6 -3 10 -26 10 -50 0 -24 5
-47 10 -50 6 -3 10 -15 10 -26 0 -10 5 -28 10 -39 6 -11 15 -29 20 -40 6 -11
10 -29 10 -40 0 -11 5 -20 10 -20 6 0 10 -16 10 -35 0 -40 13 -66 54 -112 l29
-32 -24 -20 c-13 -11 -29 -20 -35 -21 -6 0 -17 -7 -24 -15 -7 -9 -29 -23 -49
-32 -20 -9 -56 -34 -80 -55 -24 -21 -50 -38 -57 -38 -8 0 -14 -4 -14 -10 0 -5
-13 -10 -30 -10 -16 0 -30 -4 -30 -10 0 -5 -9 -10 -19 -10 -11 0 -21 -4 -23
-9 -5 -16 -160 -173 -164 -168 -5 5 27 66 57 109 47 66 0 65 -66 -2 -27 -28
-55 -50 -61 -50 -7 0 -26 -13 -44 -30 -39 -37 -52 -38 -37 -5 7 14 15 25 20
25 4 0 7 6 7 13 0 7 13 28 30 47 16 19 29 39 30 43 0 5 10 17 23 27 32 27 12
44 -33 28 -58 -19 -84 -31 -107 -52 -13 -11 -25 -17 -28 -15 -8 8 7 49 18 49
11 0 167 157 167 168 0 14 66 72 82 72 10 0 18 5 18 10 0 6 5 10 11 10 19 0
129 113 129 132 0 10 7 21 15 24 25 10 46 63 34 86 -15 27 3 233 22 253 5 5 9
18 9 30 0 12 5 33 12 47 l12 25 13 -24 c7 -14 13 -38 13 -54z"/>
<path d="M8346 1585 c4 -27 10 -54 14 -60 5 -5 11 -39 14 -75 3 -36 10 -99 15
-140 6 -41 13 -97 16 -125 6 -50 36 -124 64 -157 15 -19 51 -25 51 -8 0 9 -34
75 -50 95 -14 19 -39 170 -46 285 -3 47 -10 89 -15 95 -5 5 -9 23 -9 40 0 20
-11 43 -30 65 l-30 35 6 -50z"/>
<path d="M8435 1470 c-9 -14 21 -60 39 -60 7 0 19 -7 26 -15 16 -19 68 -45 92
-45 10 0 18 -4 18 -10 0 -6 70 -10 190 -10 149 0 190 3 190 13 0 33 -23 37
-201 37 -108 0 -180 4 -184 10 -3 6 -14 10 -23 10 -10 0 -33 13 -52 30 -19 16
-42 29 -50 30 -9 0 -21 5 -27 11 -8 8 -13 8 -18 -1z"/>
</g>
</svg>
