<?xml version="1.0" standalone="no"?>
<!DOCTYPE svg PUBLIC "-//W3C//DTD SVG 20010904//EN"
 "http://www.w3.org/TR/2001/REC-SVG-20010904/DTD/svg10.dtd">
<svg version="1.0" xmlns="http://www.w3.org/2000/svg"
 width="1480.000000pt" height="736.000000pt" viewBox="0 0 1480.000000 736.000000"
 preserveAspectRatio="xMidYMid meet">
<metadata>
Created by potrace 1.13, written by Peter Selinger 2001-2015
</metadata>
<g transform="translate(0.000000,736.000000) scale(0.100000,-0.100000)"
 stroke="none">
<path d="M2590 7205 c0 -8 7 -15 15 -15 8 0 15 7 15 15 0 8 -7 15 -15 15 -8 0
-15 -7 -15 -15z"/>
<path d="M2363 7165 c-21 -23 -15 -35 15 -35 17 0 37 -10 50 -23 21 -22 22
-33 22 -185 0 -96 4 -163 10 -167 13 -8 13 -68 -1 -82 -8 -8 -8 -13 0 -17 7
-5 11 -86 11 -250 0 -178 3 -245 12 -254 10 -10 10 -17 -1 -33 -9 -15 -10 -24
-2 -32 7 -7 11 -108 11 -307 0 -178 4 -300 10 -306 6 -6 10 -168 10 -419 1
-230 5 -414 10 -420 5 -6 12 -151 14 -321 3 -170 10 -442 15 -604 5 -162 13
-468 16 -680 4 -212 10 -389 15 -394 4 -4 4 -22 -1 -38 -4 -17 -5 -36 -1 -42
4 -6 10 -297 14 -646 8 -727 8 -652 2 -1094 -5 -323 -6 -340 -24 -353 -31 -22
-27 -89 7 -125 27 -29 61 -36 79 -18 6 6 82 11 190 11 107 1 184 5 192 12 8 7
20 7 35 0 12 -5 33 -8 47 -5 46 8 257 11 1028 13 420 2 765 6 768 11 3 5 10 6
15 2 6 -3 37 -6 69 -5 40 0 62 -4 70 -14 14 -17 71 -20 86 -5 6 6 69 11 150
12 76 1 154 5 172 10 24 7 38 6 48 -3 13 -10 17 -10 24 2 7 11 12 11 22 1 15
-15 110 -16 125 -1 8 8 13 8 17 0 9 -14 1132 -16 1141 -1 3 5 25 7 48 4 89
-11 122 -12 132 -3 6 4 40 4 75 -1 87 -13 277 -13 285 0 8 13 51 13 74 0 12
-6 625 -10 1680 -10 913 -1 1663 -5 1666 -10 3 -4 18 -3 34 3 21 7 37 8 53 1
13 -6 37 -7 55 -4 18 4 36 3 42 -3 7 -7 18 -7 33 1 22 11 166 11 185 -1 4 -3
24 -4 43 -2 19 3 76 4 125 4 50 0 315 -1 590 -2 l500 -2 0 24 c0 19 -7 26 -29
32 -17 5 -35 4 -41 -1 -8 -6 -21 -5 -38 3 l-27 12 -1 205 c-2 258 -5 388 -14
567 -5 97 -4 147 3 156 7 8 7 18 2 27 -6 8 -10 57 -10 109 0 84 2 97 22 118
l22 24 -22 6 -22 5 -1 612 c0 336 -1 738 -1 893 0 156 -3 285 -8 288 -4 3 -6
42 -3 87 3 46 4 124 2 173 -1 50 -4 684 -6 1409 -2 881 -7 1324 -14 1332 -7 8
-7 14 0 19 12 7 12 213 1 220 -6 4 -4 94 5 209 2 32 9 64 15 71 6 7 12 29 14
49 2 20 11 45 20 54 20 23 20 29 2 48 -17 16 -116 20 -116 4 0 -13 -401 -11
-417 2 -7 5 -14 5 -18 -1 -4 -7 -12 -7 -25 1 -14 9 -22 9 -33 -1 -9 -7 -18 -8
-21 -3 -3 6 -315 10 -757 11 -554 2 -756 5 -770 14 -14 9 -21 9 -31 -1 -16
-16 -503 -17 -513 -2 -6 10 -131 12 -149 2 -13 -7 -130 -7 -142 0 -11 7 -45 4
-59 -4 -10 -5 -73 -4 -450 7 -93 3 -592 5 -1107 6 -601 0 -940 4 -944 10 -4 6
-11 6 -19 -1 -10 -8 -14 -8 -17 2 -3 9 -11 9 -37 -1 -25 -11 -38 -11 -57 -2
-17 8 -163 11 -487 11 -337 0 -466 3 -475 12 -8 8 -15 8 -24 1 -14 -11 -345
-16 -363 -5 -14 9 -104 10 -1276 11 -570 1 -1039 5 -1043 8 -8 8 -134 5 -147
-3 -5 -2 -28 1 -54 7 -30 8 -49 8 -58 1 -7 -6 -30 -7 -62 -2 -87 15 -298 11
-312 -5z m693 -45 c6 -6 21 -6 42 2 26 10 37 10 54 -1 17 -10 25 -11 45 0 18
10 26 10 35 1 15 -15 50 -16 65 -1 8 8 22 8 49 0 27 -7 384 -11 1121 -11 644
0 1084 -4 1088 -9 3 -6 108 -10 237 -10 127 -1 233 -3 236 -5 14 -14 -17 -26
-68 -26 -32 0 -62 -4 -65 -10 -3 -5 -17 -10 -31 -10 -23 0 -33 -3 -81 -28 -13
-7 -39 -12 -58 -12 -19 0 -35 -4 -35 -9 0 -6 -16 -11 -35 -13 -20 -2 -35 -7
-35 -13 0 -14 90 -19 103 -6 6 6 26 11 43 11 18 0 36 5 39 10 3 6 17 10 31 10
13 0 24 5 24 10 0 6 11 10 24 10 14 0 28 5 32 11 3 6 28 9 58 8 55 -4 106 20
106 48 0 12 82 14 598 12 328 -1 638 -5 687 -10 50 -4 463 -9 918 -10 455 -1
830 -6 833 -10 6 -11 96 -8 111 3 7 6 20 5 32 -1 11 -6 67 -11 125 -11 l106 0
0 -25 c0 -14 -4 -25 -10 -25 -5 0 -10 -9 -10 -20 0 -11 -4 -20 -10 -20 -5 0
-10 -7 -10 -15 0 -8 -4 -24 -10 -35 -5 -11 -14 -29 -20 -40 -5 -11 -10 -29
-10 -39 0 -11 -4 -23 -10 -26 -5 -3 -10 -21 -10 -38 0 -18 -9 -43 -20 -57 -11
-14 -20 -39 -20 -57 0 -17 -4 -34 -9 -37 -5 -3 -11 -20 -14 -38 -9 -55 -18
-92 -27 -113 -5 -11 -11 -40 -14 -65 -12 -104 -18 -136 -26 -155 -5 -11 -12
-63 -14 -115 -3 -52 -10 -133 -16 -180 -6 -47 -13 -130 -16 -185 -3 -55 -10
-104 -15 -110 -5 -5 -9 -55 -9 -111 0 -58 -4 -106 -10 -109 -6 -3 -10 -30 -10
-60 0 -30 -5 -57 -11 -60 -5 -4 -9 -32 -8 -63 4 -156 -3 -472 -11 -477 -13 -8
-13 -62 0 -70 6 -4 10 -78 10 -190 0 -112 4 -186 10 -190 6 -3 10 -28 10 -56
l0 -49 -109 0 c-66 0 -112 -4 -116 -10 -4 -7 -74 -10 -198 -10 -232 2 -217 3
-217 -15 0 -19 57 -55 86 -55 22 0 146 -59 152 -72 2 -5 10 -8 18 -8 7 0 29
-9 49 -20 20 -11 53 -20 75 -20 21 0 42 -5 45 -10 3 -6 17 -10 30 -10 13 0 27
-4 30 -10 3 -5 14 -10 24 -10 45 0 88 -38 61 -55 -5 -3 -10 -21 -10 -40 0 -19
-4 -37 -10 -40 -5 -3 -10 -16 -10 -28 0 -12 -9 -33 -20 -47 -11 -14 -20 -33
-20 -42 0 -9 -5 -20 -10 -23 -5 -3 -10 -17 -10 -31 0 -13 -4 -24 -10 -24 -5 0
-10 -24 -10 -54 0 -30 -4 -58 -10 -61 -5 -3 -10 -15 -10 -26 0 -10 -4 -19 -10
-19 -5 0 -10 -13 -10 -30 0 -16 -4 -30 -10 -30 -5 0 -10 -9 -10 -19 0 -11 -4
-23 -10 -26 -5 -3 -10 -21 -10 -40 0 -19 -4 -37 -10 -40 -5 -3 -10 -17 -10
-30 0 -13 -4 -27 -10 -30 -5 -3 -10 -28 -10 -56 0 -27 -4 -58 -10 -69 -5 -11
-14 -29 -20 -40 -13 -26 -13 -247 0 -255 6 -4 10 -60 10 -135 0 -75 4 -131 10
-135 6 -3 10 -37 10 -75 0 -38 5 -72 10 -75 6 -3 10 -30 10 -60 0 -30 5 -57
10 -60 6 -3 10 -26 10 -50 0 -24 5 -47 10 -50 6 -3 10 -16 10 -28 0 -12 9 -33
20 -47 11 -14 20 -31 20 -37 0 -7 5 -13 10 -13 6 0 10 -9 10 -20 0 -11 5 -20
10 -20 6 0 10 -6 10 -12 0 -19 272 -288 290 -288 9 0 26 -9 38 -20 12 -11 27
-20 35 -20 8 0 22 -9 32 -20 10 -11 24 -20 32 -20 7 0 13 -4 13 -10 0 -5 9
-10 20 -10 11 0 20 -3 20 -7 0 -12 51 -33 76 -33 13 0 26 -5 29 -10 3 -5 17
-10 31 -10 13 0 24 -4 24 -10 0 -6 30 -10 69 -10 39 0 73 -4 76 -10 3 -5 21
-10 40 -10 19 0 37 -4 40 -10 3 -5 30 -10 60 -10 30 0 57 -5 60 -10 8 -13 52
-13 61 1 4 8 9 8 17 0 6 -6 51 -11 107 -11 53 0 100 -4 106 -9 10 -10 106 -18
319 -27 71 -3 135 -10 142 -15 14 -12 372 -10 388 2 6 4 89 10 185 13 272 9
384 16 394 27 6 5 23 9 38 9 15 0 28 5 28 10 0 6 26 10 59 10 33 0 63 5 66 10
3 6 30 10 60 10 30 0 57 5 60 10 3 6 48 10 101 10 56 0 102 5 114 12 10 7 21
10 24 8 2 -3 6 -223 7 -488 2 -266 6 -485 10 -488 4 -2 3 -19 -1 -38 -4 -19
-5 -38 -2 -41 12 -12 13 -86 0 -98 -14 -13 -142 -16 -154 -4 -4 4 -763 7
-1687 7 -1193 0 -1684 3 -1693 11 -10 8 -23 8 -46 0 -40 -13 -1115 -14 -1123
-1 -6 10 -250 8 -260 -2 -8 -7 -229 -1 -257 8 -9 3 -19 0 -23 -6 -8 -13 -72
-13 -81 1 -4 8 -61 9 -188 4 -328 -13 -1136 -17 -1149 -6 -8 6 -18 6 -27 1
-24 -16 -70 -12 -70 5 0 8 6 15 13 15 8 0 22 9 32 20 10 11 24 20 30 20 7 0
18 7 25 15 19 22 70 45 102 45 38 0 46 25 19 54 -11 12 -21 26 -21 31 0 5 -14
24 -32 42 -23 24 -28 33 -16 33 9 0 20 5 23 10 11 18 -15 40 -46 40 -23 0 -29
4 -29 23 0 26 38 47 85 47 18 0 80 25 148 59 64 33 127 61 139 63 17 2 23 10
23 27 0 25 -5 28 -66 55 -20 9 -42 22 -49 31 -7 8 -19 15 -26 15 -8 0 -14 6
-14 14 0 21 -19 30 -34 17 -10 -9 -23 -7 -52 8 -22 10 -60 29 -86 41 -41 20
-48 28 -48 52 0 26 -3 28 -40 28 -24 0 -40 5 -40 12 0 16 -51 68 -67 68 -7 0
-13 7 -13 16 0 11 6 14 23 8 39 -12 52 -10 52 11 0 17 -8 20 -46 23 -46 3 -47
4 -53 40 -4 20 -9 84 -12 142 -3 58 -10 109 -15 115 -5 5 -9 28 -9 51 0 24 -4
46 -10 49 -5 3 -10 21 -10 40 0 19 -4 37 -10 40 -5 3 -10 19 -10 35 0 16 -4
32 -10 35 -5 3 -10 19 -10 35 0 16 -4 32 -10 35 -5 3 -10 14 -10 23 0 10 -9
24 -20 32 -12 9 -20 26 -20 45 0 16 -7 39 -15 49 -8 11 -15 27 -15 37 0 9 -47
63 -105 120 -58 57 -105 112 -105 122 0 10 -8 17 -20 17 -11 0 -20 5 -20 10 0
6 -22 10 -48 10 -26 0 -52 4 -58 9 -11 12 -122 21 -339 27 -93 3 -174 9 -179
14 -13 13 -69 13 -83 -1 -8 -8 -17 -8 -31 0 -27 14 -528 15 -537 1 -3 -6 -24
-10 -45 -10 -21 0 -42 -5 -45 -10 -3 -6 -15 -10 -26 -10 -33 0 -199 -139 -199
-167 0 -7 -6 -13 -14 -13 -18 0 -66 -95 -66 -132 0 -15 -5 -28 -10 -28 -7 0
-10 -30 -8 -82 3 -95 20 -110 30 -28 7 65 16 107 28 135 28 70 42 93 64 114
14 14 26 28 26 32 0 10 49 59 59 59 4 0 20 13 36 30 16 16 39 30 51 30 13 0
26 5 29 10 3 6 17 10 30 10 13 0 27 5 30 10 8 14 642 13 650 -1 4 -5 88 -9
190 -9 112 0 186 -4 190 -10 3 -5 23 -10 44 -10 20 0 43 -6 49 -12 10 -10 17
-10 33 1 15 9 24 10 32 2 6 -6 31 -11 56 -12 44 0 48 -3 94 -60 26 -32 54 -59
62 -59 7 0 17 -9 20 -20 3 -11 13 -20 21 -20 8 0 14 -6 14 -12 0 -7 18 -33 40
-58 22 -24 40 -53 40 -65 0 -11 9 -31 20 -45 11 -14 20 -39 20 -57 0 -17 5
-35 10 -38 6 -3 10 -17 10 -30 0 -13 5 -27 10 -30 6 -3 10 -17 10 -31 0 -13 4
-32 9 -42 19 -37 31 -90 31 -135 0 -25 5 -49 10 -52 6 -3 10 -48 10 -100 0
-52 4 -97 10 -100 6 -3 10 -16 10 -28 0 -17 -12 -27 -51 -45 -28 -12 -57 -22
-64 -22 -8 0 -17 -5 -20 -10 -4 -6 -81 -10 -198 -10 -178 0 -194 -2 -222 -21
-21 -15 -24 -20 -10 -16 11 2 25 6 30 7 6 1 39 2 75 1 l65 -2 -34 -14 c-18 -8
-44 -15 -57 -15 -12 0 -26 -4 -29 -10 -3 -5 -18 -10 -33 -10 -15 0 -47 -7 -71
-16 -25 -8 -48 -11 -53 -6 -10 10 29 49 55 54 10 1 18 8 18 13 -1 6 -37 11
-81 13 -80 3 -80 3 -80 30 0 64 -13 178 -21 187 -5 5 -9 22 -9 37 0 16 -4 36
-10 46 -19 34 -50 106 -50 115 0 13 -48 58 -79 74 -13 7 -36 13 -52 13 -15 0
-31 5 -34 10 -3 6 -15 10 -26 10 -10 0 -28 4 -39 10 -11 5 -30 15 -41 21 -13
6 -68 10 -133 9 -141 -3 -137 -3 -129 17 7 17 5 17 -18 2 -14 -9 -47 -19 -74
-22 -123 -12 -158 -17 -169 -26 -25 -21 -59 -265 -58 -410 1 -55 -3 -100 -10
-108 -14 -17 -174 -18 -184 -1 -4 6 -2 14 4 16 7 2 12 12 12 22 0 14 -5 17
-22 13 -13 -3 -27 -9 -33 -13 -5 -4 -26 -10 -46 -13 -32 -5 -41 -1 -72 31
l-36 37 1 190 c1 105 5 195 10 202 13 17 5 136 -9 141 -9 2 -13 -9 -13 -37 0
-23 -4 -49 -9 -59 -32 -63 -34 -72 -25 -139 9 -75 10 -174 0 -242 -3 -26 -1
-49 5 -57 17 -21 7 -87 -16 -99 -46 -24 -162 -105 -185 -129 -13 -15 -52 -40
-86 -57 -34 -16 -64 -36 -68 -44 -3 -8 -18 -15 -32 -15 -34 0 -64 -26 -64 -56
0 -16 13 -31 46 -51 25 -15 61 -40 79 -56 18 -15 39 -27 48 -27 8 0 41 -14 72
-30 31 -17 63 -30 70 -30 7 0 24 -6 38 -13 20 -11 23 -17 15 -25 -7 -7 -15
-12 -19 -12 -14 0 -101 -62 -106 -76 -3 -8 0 -20 6 -28 8 -10 5 -18 -12 -33
-12 -11 -30 -23 -39 -26 -10 -4 -18 -13 -18 -21 0 -11 -14 -16 -47 -18 -40 -3
-48 -6 -48 -23 0 -18 8 -20 70 -23 39 -2 74 -7 80 -13 5 -5 21 -9 36 -9 15 0
31 -5 34 -10 3 -6 24 -10 47 -10 25 0 51 -8 69 -21 27 -19 32 -20 47 -6 18 16
95 14 137 -2 11 -5 40 -13 65 -19 40 -10 47 -9 62 8 9 11 19 20 23 20 13 0 48
-40 41 -47 -13 -13 -75 -14 -335 -8 -112 3 -209 1 -215 -3 -9 -7 -169 -8 -246
-2 -8 0 -24 0 -35 -2 -13 -2 -24 6 -33 24 -7 16 -20 28 -28 28 -7 0 -14 7 -14
14 0 8 -12 21 -27 28 -21 10 -28 21 -28 41 -1 16 -7 32 -13 36 -13 8 -12 243
2 701 2 63 -1 126 -6 139 -5 15 -5 28 1 34 7 7 7 15 1 22 -5 6 -11 141 -14
300 -14 734 -18 870 -27 886 -5 10 -9 294 -9 673 0 418 -4 666 -11 683 -6 18
-6 30 0 36 7 7 7 15 1 21 -5 6 -11 140 -13 296 -3 157 -7 312 -10 345 -3 33
-6 175 -8 315 l-4 255 27 3 c20 2 32 13 43 36 9 18 25 43 35 54 11 12 20 25
20 30 0 5 14 23 30 40 30 32 38 52 21 52 -5 0 -39 -29 -75 -65 -47 -46 -66
-72 -66 -90 0 -14 -6 -25 -13 -25 -28 0 -36 58 -41 300 -3 135 -7 313 -11 395
-10 272 -17 468 -19 605 -6 265 -8 465 -7 486 1 17 11 22 59 31 76 13 485 16
498 3z m6590 -59 c5 -5 403 -12 939 -15 512 -3 941 -8 955 -9 14 -2 175 -5
358 -5 321 -2 332 -3 332 -21 0 -11 -4 -23 -10 -26 -18 -11 -11 -69 10 -83 20
-12 20 -23 20 -471 0 -359 3 -460 13 -464 9 -3 9 -9 -1 -29 -11 -21 -13 -230
-8 -1199 2 -646 7 -1213 9 -1261 2 -48 0 -93 -3 -99 -4 -6 -4 -26 0 -45 5 -20
4 -37 -2 -40 -5 -4 -5 -10 1 -18 11 -13 4 -56 -9 -56 -4 0 -13 7 -20 16 -8 8
-29 22 -48 30 -39 16 -148 19 -157 4 -3 -5 -14 -10 -24 -10 -10 0 -26 -8 -35
-19 -14 -15 -16 -36 -14 -122 l3 -104 50 0 50 1 2 62 c1 68 14 91 62 115 23
11 31 11 56 -3 29 -16 30 -20 33 -91 3 -72 2 -76 -23 -89 -33 -18 -82 -115
-67 -133 7 -8 7 -18 2 -27 -13 -20 -13 -127 0 -135 6 -3 10 -17 10 -31 0 -33
28 -74 51 -74 15 0 19 7 19 38 0 21 -5 43 -11 49 -6 6 -11 47 -11 95 1 67 5
93 21 122 12 20 21 45 21 54 0 21 18 42 36 42 19 0 20 -1375 1 -1394 -7 -8
-31 -16 -53 -19 -21 -3 -61 -11 -89 -17 -27 -7 -76 -14 -107 -17 -32 -3 -58
-9 -58 -14 0 -5 -46 -9 -103 -9 -57 0 -107 -4 -113 -9 -5 -5 -38 -12 -74 -15
-91 -9 -228 -24 -275 -31 -22 -4 -67 -2 -100 3 -36 6 -64 7 -69 1 -14 -13
-683 -12 -691 1 -3 5 -34 10 -69 10 -34 0 -66 4 -72 9 -9 9 -110 16 -384 27
-85 3 -159 10 -164 15 -6 5 -20 9 -33 9 -12 0 -38 9 -58 20 -20 11 -46 20 -60
20 -13 0 -27 5 -30 10 -3 6 -26 10 -51 10 -24 0 -44 3 -44 8 0 4 -10 12 -23
18 -69 35 -89 48 -94 60 -3 8 -11 14 -17 14 -18 0 -66 24 -66 33 0 4 -9 7 -20
7 -11 0 -20 5 -20 10 0 6 -8 10 -18 10 -29 0 -302 285 -302 315 0 14 -9 40
-20 60 -12 21 -20 54 -20 80 0 24 -4 47 -10 50 -5 3 -10 28 -10 54 0 26 -4 51
-9 56 -10 10 -16 79 -27 280 -3 61 -10 114 -15 120 -12 13 -12 252 1 260 6 3
10 28 10 55 0 27 5 52 10 55 6 3 10 19 10 35 0 16 5 32 10 35 6 3 10 19 10 35
0 16 5 32 10 35 6 3 10 17 10 30 0 14 9 41 21 62 15 26 20 50 17 85 -2 32 1
49 10 53 6 2 12 13 12 24 0 11 5 23 10 26 6 3 10 15 10 26 0 10 5 19 10 19 6
0 10 9 10 20 0 11 4 28 9 38 39 77 51 106 51 123 0 10 5 19 10 19 6 0 10 14
10 30 0 17 5 30 10 30 6 0 10 7 10 15 0 8 6 24 13 36 10 17 9 22 -13 39 -14
11 -33 20 -42 20 -9 0 -20 5 -23 10 -3 6 -30 10 -60 10 -30 0 -57 5 -60 10 -3
6 -17 10 -31 10 -13 0 -24 5 -24 10 0 6 -7 10 -15 10 -8 0 -25 5 -38 12 -45
23 -57 28 -67 28 -6 0 -23 11 -38 25 l-27 25 112 0 c67 0 114 4 118 10 4 7 48
10 113 10 59 -1 115 -1 125 -1 14 1 17 11 17 66 0 37 -4 65 -10 65 -6 0 -10
71 -10 194 0 119 -4 197 -10 201 -5 3 -10 30 -10 60 0 30 5 57 10 60 14 8 13
78 -2 110 -9 19 -9 28 0 37 8 8 12 66 12 184 0 105 4 175 10 179 6 3 10 28 10
55 0 27 5 52 10 55 6 3 10 52 10 111 0 65 4 104 10 104 7 0 10 65 10 191 -1
126 2 195 9 202 6 6 11 37 11 68 0 32 5 61 10 64 6 3 10 24 10 45 0 21 5 42
10 45 6 3 10 26 10 50 0 24 5 47 10 50 6 3 10 24 10 45 0 21 5 42 10 45 6 3
10 21 10 40 0 19 5 37 10 40 6 3 10 21 10 40 0 19 5 37 10 40 6 3 10 15 10 25
0 11 9 35 20 55 11 20 20 49 20 65 0 17 5 40 12 53 24 48 28 57 28 77 0 11 5
20 10 20 6 0 10 17 10 38 0 29 7 45 29 66 51 48 96 67 117 47z m-5747 -5258
c-45 -5 -103 -58 -75 -69 9 -3 23 -1 31 6 9 7 18 11 20 8 2 -2 -16 -21 -41
-42 -25 -21 -48 -35 -52 -32 -11 12 -1 91 15 108 17 19 41 25 98 25 l40 0 -36
-4z m374 -7 c42 -14 41 -16 -30 -54 -33 -18 -43 -20 -43 -9 0 8 9 22 20 32 11
10 17 22 14 26 -9 16 -64 10 -105 -12 -47 -23 -65 -16 -30 12 28 23 116 26
174 5z m117 -51 c-23 -25 -60 -34 -60 -16 0 11 48 38 69 40 10 1 7 -7 -9 -24z
m-403 -22 c-14 -16 -43 -37 -64 -48 -21 -10 -49 -27 -62 -37 -26 -20 -41 -23
-41 -9 0 5 17 20 38 32 20 13 42 29 47 35 14 17 77 52 94 53 10 1 5 -9 -12
-26z m178 16 c-11 -16 -128 -99 -141 -99 -6 0 -24 -7 -40 -15 -18 -9 -32 -11
-38 -5 -12 12 -15 9 59 44 33 16 68 35 78 44 37 32 96 55 82 31z m329 -44 c-4
-8 1 -17 10 -21 24 -9 20 -20 -21 -59 -48 -45 -132 -90 -145 -77 -9 9 74 72
96 72 6 1 22 10 35 20 19 17 21 23 11 35 -11 14 -17 13 -47 -5 -19 -11 -42
-20 -52 -20 -10 0 -24 -7 -31 -15 -10 -12 -16 -13 -24 -5 -12 12 -14 10 74 62
51 30 103 37 94 13z m-298 -34 c-13 -21 -74 -49 -87 -40 -11 7 -11 9 2 9 9 0
24 9 34 20 18 19 62 29 51 11z m99 -26 c-11 -5 -39 -28 -64 -51 -49 -44 -111
-65 -111 -39 0 8 11 17 24 21 14 3 32 14 42 25 9 10 21 19 25 19 5 0 28 13 51
29 27 18 45 25 47 18 2 -6 -4 -16 -14 -22z m-495 -40 c-7 -8 -16 -12 -21 -9
-13 8 -1 24 18 24 13 0 13 -3 3 -15z m300 11 c0 -3 -4 -8 -10 -11 -5 -3 -10
-1 -10 4 0 6 5 11 10 11 6 0 10 -2 10 -4z m-105 -36 c-32 -35 -112 -64 -135
-50 -13 8 68 50 96 50 7 0 16 5 19 10 3 6 13 10 22 10 14 0 14 -3 -2 -20z
m575 10 c0 -12 -54 -40 -77 -40 -10 1 1 11 27 25 53 28 50 27 50 15z m-755
-30 c-18 -20 -45 -27 -45 -12 0 8 53 40 59 35 2 -1 -4 -12 -14 -23z m264 -31
c-18 -11 -50 -11 -68 0 -15 10 -5 14 54 23 24 4 33 -11 14 -23z m514 -71 c3
-35 8 -77 12 -94 6 -27 4 -32 -17 -36 -12 -3 -43 -4 -67 -2 -26 2 -56 -3 -73
-12 -39 -20 -53 -7 -52 48 1 23 -3 57 -9 75 -15 45 3 63 62 64 25 0 64 4 86 8
22 5 43 9 47 10 3 0 9 -27 11 -61z m-738 31 c4 -6 32 -9 66 -8 32 1 61 0 65
-3 3 -3 7 -42 9 -87 l4 -81 -77 -2 c-170 -3 -155 -7 -169 48 -14 53 -17 127
-6 137 11 11 101 8 108 -4z m484 -7 c8 -15 15 -110 12 -159 -1 -10 -27 -13
-94 -13 l-93 0 -13 45 c-12 42 -8 124 7 126 63 8 75 2 79 -36 2 -23 13 -74 20
-95 4 -13 7 -12 18 4 10 13 12 34 8 69 -5 41 -3 52 12 63 25 18 32 18 44 -4z
m-227 -4 c3 -7 1 -30 -3 -52 -4 -25 -2 -50 7 -72 21 -51 19 -54 -33 -47 -59 7
-60 8 -40 30 13 16 14 21 2 43 -20 35 -18 67 5 90 22 22 56 27 62 8z m1262
-183 c-23 -18 -34 -19 -34 -4 0 18 33 39 44 28 6 -5 3 -14 -10 -24z m-1864 0
c16 -8 36 -12 44 -9 25 9 19 -19 -6 -35 -13 -8 -45 -26 -73 -39 -27 -14 -66
-36 -86 -48 -34 -21 -49 -22 -49 -3 0 4 34 26 75 48 41 23 75 46 75 51 0 16
-37 11 -76 -10 -20 -12 -38 -19 -40 -17 -7 7 80 71 104 76 2 1 16 -6 32 -14z
m1095 -5 c3 -5 34 -10 68 -10 54 0 59 -2 42 -13 -11 -7 -38 -19 -60 -26 -36
-12 -91 -36 -165 -70 -14 -6 -38 -20 -55 -30 -16 -11 -37 -20 -46 -20 -19 -1
-77 -29 -84 -41 -3 -5 2 -13 11 -18 50 -28 -223 -222 -312 -222 -18 0 -36 -4
-39 -10 -3 -5 -16 -10 -29 -10 -23 0 -102 -36 -131 -60 -24 -20 -147 -80 -164
-80 -9 0 -32 -14 -51 -30 -37 -31 -43 -34 -53 -23 -11 11 117 113 142 113 6 0
11 3 11 8 0 4 23 21 51 37 28 17 63 38 78 47 14 9 42 17 62 17 37 1 129 42
149 66 7 8 16 15 21 15 4 0 20 11 35 25 29 27 80 55 99 55 7 0 23 8 36 19 13
10 30 16 37 14 6 -3 12 3 12 11 0 12 -6 15 -25 10 -19 -5 -25 -2 -25 10 0 9 6
16 13 16 16 0 65 49 81 81 6 13 45 39 90 62 74 37 80 38 92 22 12 -17 15 -17
39 -1 14 9 25 23 25 31 0 17 35 21 45 5z m561 -16 c-28 -13 -54 -24 -60 -24
-5 0 -43 -16 -85 -36 -41 -20 -88 -40 -105 -45 -17 -4 -42 -11 -55 -15 -18 -5
-22 -4 -17 5 4 6 2 19 -5 27 -14 18 -17 15 54 39 47 15 62 16 78 7 25 -16 22
-17 74 28 43 38 50 40 108 39 l62 0 -49 -25z m-1097 -36 c-17 -34 -22 -38 -36
-26 -17 14 -53 13 -96 -4 -21 -8 -31 -8 -40 1 -9 9 -6 13 11 17 15 4 22 14 22
30 0 20 5 23 48 26 26 2 61 1 79 -1 l32 -3 -20 -40z m247 39 c13 -12 -117 -62
-186 -72 -14 -2 -27 -4 -29 -4 -2 -1 2 -7 9 -15 6 -8 18 -12 27 -9 13 5 13 3
4 -15 -7 -12 -17 -22 -24 -22 -7 0 -29 -18 -51 -40 -41 -43 -51 -47 -62 -28
-4 6 8 25 30 46 26 23 35 37 28 44 -12 12 5 43 50 93 26 29 29 30 113 29 47
-1 88 -4 91 -7z m-667 -39 c-35 -23 -66 -46 -67 -50 -2 -5 -24 -17 -48 -28
-24 -11 -44 -25 -44 -30 0 -6 -6 -10 -13 -10 -7 0 -39 -13 -70 -29 -47 -24
-58 -27 -68 -15 -9 11 -7 15 7 20 27 8 94 42 129 64 17 11 45 27 63 37 17 9
32 22 32 29 0 24 54 53 99 54 l43 0 -63 -42z m271 27 c0 -8 -4 -15 -8 -15 -5
0 -53 -29 -107 -65 -53 -36 -103 -65 -109 -66 -6 -1 -25 0 -42 1 -18 1 -35 -4
-39 -9 -3 -6 -11 -9 -16 -5 -18 11 9 31 109 80 53 27 101 54 107 60 30 34 105
47 105 19z m1360 6 c0 -12 -46 -41 -64 -41 -23 0 -40 -36 -20 -44 8 -3 12 -10
9 -16 -4 -6 -11 -8 -16 -4 -6 3 -30 -4 -54 -15 -25 -12 -48 -21 -53 -21 -4 0
-34 -13 -67 -29 l-59 -29 34 -10 c19 -5 40 -6 45 -2 6 4 28 11 49 14 22 4 54
19 72 32 21 17 34 21 39 14 8 -13 -22 -50 -41 -50 -7 0 -17 -6 -21 -14 -13
-23 -93 -77 -103 -71 -6 4 -10 2 -10 -2 0 -5 -19 -17 -42 -27 -24 -9 -60 -26
-81 -37 -46 -23 -57 -24 -57 -5 0 16 65 76 83 76 7 0 4 5 -6 11 -15 9 -24 6
-46 -15 -15 -14 -32 -26 -39 -26 -7 0 -12 -6 -12 -14 0 -38 -126 -126 -180
-126 -10 0 -22 -4 -25 -10 -3 -5 -13 -10 -21 -10 -9 0 -28 -12 -43 -27 -29
-30 -144 -93 -168 -93 -8 0 -13 6 -11 13 6 15 109 96 124 97 6 0 19 9 29 20
10 11 30 20 44 20 33 0 121 41 121 57 0 16 -17 26 -25 13 -11 -18 -76 -43 -86
-33 -7 7 8 28 42 62 60 60 138 104 160 90 12 -7 11 -9 -2 -9 -9 0 -19 -7 -23
-15 -3 -8 -14 -15 -24 -15 -20 0 -67 -38 -58 -47 6 -6 104 41 163 77 18 10 46
23 63 27 17 5 32 13 33 18 3 17 -51 17 -74 1 -23 -16 -59 -6 -59 15 0 13 26
40 37 38 15 -4 68 14 116 38 45 23 50 23 61 7 12 -16 14 -15 32 2 10 11 33 26
49 34 17 8 48 26 70 40 71 45 80 49 98 49 9 1 17 -3 17 -8z m209 -15 l22 -24
-30 -6 c-17 -3 -46 -9 -63 -12 -18 -4 -38 -11 -44 -15 -21 -17 -35 15 -18 39
17 25 34 29 34 8 0 -8 8 -17 17 -20 20 -8 46 21 39 41 -9 22 19 15 43 -11z
m-2225 -10 c-6 -15 -54 -40 -61 -32 -4 4 55 46 64 46 1 0 0 -6 -3 -14z m1046
-38 c-35 -29 -60 -36 -60 -18 0 6 16 18 35 27 19 9 35 21 35 25 0 5 5 6 12 2
8 -5 0 -17 -22 -36z m1000 -28 c-12 -22 -29 -34 -37 -27 -7 8 30 56 40 50 4
-2 3 -13 -3 -23z m-689 3 c-6 -10 -22 -29 -36 -42 -14 -13 -25 -28 -25 -35 0
-13 -51 -46 -72 -46 -8 0 -53 -20 -101 -44 -63 -31 -84 -38 -77 -25 6 9 22 27
36 38 21 17 24 24 15 35 -8 9 -8 16 -2 20 5 4 12 2 16 -4 10 -16 49 -12 71 8
11 9 35 26 54 36 19 10 44 27 55 37 16 14 54 34 73 38 1 1 -2 -7 -7 -16z m194
-20 c-2 -31 -29 -63 -52 -63 -13 0 -23 -4 -23 -10 0 -14 -33 -50 -46 -50 -6 0
-17 -7 -24 -15 -17 -20 -77 -48 -88 -41 -5 3 -19 -6 -32 -19 -17 -18 -30 -23
-47 -19 -13 4 -23 2 -23 -5 0 -14 -108 -63 -122 -55 -10 7 99 124 116 124 5 0
17 6 25 14 9 7 37 25 63 39 40 22 48 24 59 11 10 -13 15 -12 35 7 27 26 23 39
-12 39 -16 0 -24 5 -22 12 8 22 62 43 118 47 30 2 57 5 59 7 8 8 18 -6 16 -23z
m-836 -4 c-8 -16 -14 -18 -22 -10 -9 9 -8 14 3 21 24 16 31 11 19 -11z m247 6
c-8 -8 -23 -15 -33 -15 -14 1 -13 4 7 15 33 19 45 19 26 0z m1240 -10 c-52
-26 -66 -30 -66 -17 1 11 62 39 90 41 19 1 13 -5 -24 -24z m-1572 6 c9 -14
-132 -103 -151 -96 -7 2 -15 0 -18 -5 -12 -20 -65 -38 -91 -31 -25 6 -26 8
-10 24 10 9 25 17 35 17 10 0 60 22 112 49 99 51 114 57 123 42z m-667 -7 c-3
-3 -12 -4 -19 -1 -8 3 -5 6 6 6 11 1 17 -2 13 -5z m2378 -14 c10 -11 25 -20
33 -20 12 0 12 -3 2 -15 -14 -17 -56 -20 -65 -5 -4 7 -11 8 -18 2 -7 -5 -30
-13 -52 -16 -104 -17 -118 -18 -111 -8 7 12 64 42 80 42 6 0 22 9 36 20 32 25
72 25 95 0z m-2415 -5 c0 -9 -81 -46 -92 -43 -7 3 8 14 33 26 45 22 59 26 59
17z m108 -7 c-6 -18 -67 -58 -89 -58 -29 0 -163 -76 -174 -99 -11 -24 -47 -28
-64 -7 -13 16 -7 21 62 56 46 23 59 43 35 53 -10 4 -10 6 -1 6 6 1 15 -3 18
-9 12 -19 52 -10 126 29 82 43 93 47 87 29z m901 -34 c-16 -19 -20 -28 -11
-31 6 -3 10 -8 7 -13 -3 -5 -19 -2 -36 7 -25 12 -28 17 -17 30 13 16 44 31 67
32 10 1 7 -8 -10 -25z m1065 7 c7 -11 -39 -43 -48 -34 -7 7 23 43 35 43 4 0
10 -4 13 -9z m469 -28 c-7 -2 -19 -2 -25 0 -7 3 -2 5 12 5 14 0 19 -2 13 -5z
m-2159 -10 c10 -10 -44 -55 -92 -77 -23 -11 -42 -22 -42 -25 0 -3 -21 -17 -47
-30 -27 -14 -55 -31 -64 -38 -13 -11 -18 -11 -27 0 -16 19 17 48 104 93 38 20
76 42 85 50 8 8 23 14 32 14 9 0 19 5 22 10 7 12 19 13 29 3z m259 -1 c8 -11
-23 -43 -90 -94 -58 -44 -64 -46 -92 -35 -31 11 -43 37 -17 37 7 0 19 7 26 15
7 8 33 24 59 36 25 12 57 27 71 35 29 16 37 17 43 6z m140 -7 c1 -5 -9 -12
-23 -13 -14 -2 -30 -8 -37 -14 -7 -5 -17 -7 -23 -3 -16 10 31 45 58 42 12 -1
24 -6 25 -12z m146 6 c11 -7 9 -11 -8 -21 -12 -6 -26 -22 -31 -36 -5 -13 -16
-24 -25 -24 -8 0 -23 -4 -33 -9 -9 -5 -28 -13 -42 -18 -14 -6 -53 -23 -87 -38
-35 -16 -65 -27 -67 -24 -13 13 49 60 129 99 28 13 58 31 68 39 43 36 74 46
96 32z m1211 -1 c0 -5 -5 -10 -11 -10 -5 0 -7 5 -4 10 3 6 8 10 11 10 2 0 4
-4 4 -10z m-2330 -15 c-7 -8 -26 -15 -43 -15 -29 0 -30 1 -11 15 10 8 30 15
43 15 20 0 21 -2 11 -15z m267 -8 c-3 -8 -32 -27 -64 -43 -32 -15 -68 -36 -80
-47 -11 -10 -29 -17 -40 -15 -18 4 34 43 137 100 48 27 56 28 47 5z m155 6
c-26 -25 -82 -56 -82 -45 0 10 41 47 61 55 29 11 39 7 21 -10z m1847 0 c-78
-100 -134 -152 -166 -154 -5 0 -15 -7 -25 -15 -11 -11 -18 -12 -23 -4 -10 16
43 88 77 106 15 8 28 19 28 25 0 6 5 7 11 4 6 -4 19 2 30 14 11 12 26 21 34
21 8 0 15 5 15 10 0 6 7 10 16 10 14 0 15 -2 3 -17z m391 10 c-19 -3 -39 -9
-44 -14 -6 -5 -20 -9 -32 -9 -12 0 -27 -7 -34 -16 -14 -16 -57 -36 -102 -48
-21 -5 -28 -3 -28 9 0 8 12 17 28 21 37 8 109 41 117 54 3 5 34 9 68 8 39 -1
49 -3 27 -5z m158 -5 c15 -15 -28 -38 -75 -38 -30 0 -34 2 -23 15 7 8 21 15
31 15 10 0 21 5 24 10 8 13 28 13 43 -2z m-468 -48 c-14 -11 -29 -20 -34 -20
-6 0 -20 -9 -32 -21 -14 -13 -24 -17 -28 -10 -9 14 71 71 98 71 20 0 20 -1 -4
-20z m290 -16 c-19 -8 -49 -29 -67 -46 -17 -16 -35 -28 -40 -25 -6 4 -26 -5
-46 -18 -20 -14 -40 -25 -45 -25 -5 0 -23 -7 -41 -16 -26 -13 -30 -19 -20 -30
15 -18 0 -18 -39 2 -25 12 -30 19 -23 32 10 18 84 62 105 62 7 0 31 9 54 20
22 11 47 20 55 20 8 0 22 9 32 20 13 15 30 20 64 20 l46 -1 -35 -15z m270 -13
c0 -4 -17 -15 -37 -26 -21 -10 -50 -27 -65 -37 -14 -10 -32 -18 -40 -18 -8 0
-33 -9 -56 -20 -48 -23 -52 -24 -52 -7 0 12 44 37 67 37 16 0 50 19 83 46 49
40 74 52 88 42 6 -6 12 -13 12 -17z m-1558 -44 c-18 -18 -32 -38 -32 -44 0
-19 -60 -63 -85 -63 -14 0 -41 -9 -61 -20 -38 -22 -55 -20 -35 4 9 10 9 16 1
21 -13 8 16 45 35 45 7 0 20 9 30 20 10 11 26 20 35 20 10 0 28 8 41 19 75 58
128 57 71 -2z m-512 35 c0 -21 -81 -87 -159 -129 -26 -14 -54 -17 -64 -6 -10
9 43 63 63 63 8 0 27 8 40 18 29 20 101 59 113 61 4 1 7 -2 7 -7z m-280 -22
c-6 -11 -17 -20 -24 -20 -8 0 -19 -7 -27 -16 -13 -16 -69 -47 -106 -58 -17 -6
-23 -3 -23 8 0 9 6 16 13 16 6 0 44 20 82 45 78 50 102 57 85 25z m1493 -4 c8
-20 -83 -116 -110 -116 -32 0 -38 19 -9 30 29 11 34 25 11 34 -8 3 -25 -5 -39
-19 -14 -14 -31 -25 -38 -25 -7 -1 -2 -7 11 -14 15 -8 20 -16 13 -20 -6 -4
-22 0 -35 9 -22 14 -25 13 -48 -11 -33 -36 -106 -84 -128 -84 -9 0 -22 -5 -28
-11 -8 -8 -13 -8 -17 0 -4 6 3 15 16 20 13 5 43 30 68 55 24 25 49 46 56 46 6
0 19 9 29 20 10 11 28 20 39 21 12 0 59 17 106 38 100 46 96 45 103 27z
m-1903 -29 c0 -8 12 -19 26 -26 22 -10 31 -9 50 4 22 14 25 14 31 0 3 -10 -2
-25 -14 -36 -20 -20 -20 -20 -68 5 -26 14 -54 26 -61 26 -17 0 -18 12 -2 28
16 16 38 15 38 -1z m1404 -4 c8 -8 -64 -83 -80 -83 -27 0 -22 19 13 54 36 35
53 43 67 29z m-953 -20 c-16 -30 -48 -52 -85 -59 -57 -10 -45 17 22 48 68 32
76 34 63 11z m801 -47 c-16 -11 -41 -35 -56 -53 -24 -29 -146 -103 -169 -103
-5 0 -22 -9 -38 -21 -35 -24 -59 -16 -33 12 9 10 24 19 32 19 8 0 36 24 63 53
45 50 60 60 159 104 57 26 82 19 42 -11z m888 0 c0 -19 -27 -28 -33 -11 -7 15
1 25 20 25 7 0 13 -6 13 -14z m323 -3 c-7 -2 -19 -2 -25 0 -7 3 -2 5 12 5 14
0 19 -2 13 -5z m-2183 -23 c0 -7 -52 -45 -139 -102 -53 -35 -83 -49 -89 -43
-10 10 68 75 88 75 9 0 29 14 45 30 16 17 34 30 41 30 6 0 17 7 24 15 12 15
30 12 30 -5z m1010 12 c0 -13 -12 -22 -22 -16 -10 6 -1 24 13 24 5 0 9 -4 9
-8z m776 -3 c6 -11 -65 -83 -73 -75 -3 3 -23 -6 -45 -20 -50 -32 -73 -27 -54
11 17 32 74 75 90 69 7 -3 18 1 24 8 13 16 49 21 58 7z m-1626 -4 c0 -3 -18
-24 -40 -46 -35 -35 -42 -39 -61 -28 l-22 11 28 24 c16 13 34 24 42 24 7 0 13
5 13 10 0 6 9 10 20 10 11 0 20 -2 20 -5z m1927 -11 c3 -9 -42 -34 -62 -34 -6
0 -30 -9 -53 -20 -22 -11 -47 -20 -55 -20 -8 0 -26 -9 -40 -20 -27 -21 -47
-26 -47 -11 0 15 51 44 145 82 91 37 106 40 112 23z m-1807 -3 c0 -5 -24 -24
-52 -41 -29 -18 -55 -35 -58 -39 -20 -25 -84 -62 -98 -56 -14 5 -12 9 12 28
15 12 42 33 59 47 18 14 46 32 62 39 17 7 37 17 45 22 20 11 30 11 30 0z
m1630 -5 c0 -11 -19 -15 -25 -6 -3 5 1 10 9 10 9 0 16 -2 16 -4z m-1266 -67
c-27 -27 -53 -49 -60 -49 -6 0 -17 -7 -24 -15 -15 -18 -134 -75 -156 -75 -8 0
-14 -4 -14 -9 0 -17 -33 -21 -44 -5 -11 14 -13 14 -25 0 -8 -9 -24 -16 -37
-16 -13 0 -24 -4 -24 -9 0 -5 -9 -13 -21 -16 -11 -4 -40 -20 -64 -36 -51 -34
-61 -36 -75 -10 -15 29 -13 34 15 29 16 -4 36 3 57 18 17 13 38 24 46 24 13 0
101 47 112 60 9 10 131 70 144 70 6 0 38 14 69 30 32 17 63 30 69 30 5 0 21 9
35 20 47 37 45 8 -3 -41z m556 51 c0 -15 -133 -149 -164 -165 -36 -19 -66 -19
-66 0 0 8 4 15 10 15 5 0 25 14 43 30 19 17 39 30 45 30 5 0 32 23 60 50 48
48 72 61 72 40z m299 -16 c-7 -8 -21 -20 -32 -26 -15 -8 -18 -7 -12 4 16 28
38 47 47 42 5 -3 4 -12 -3 -20z m-89 -13 c0 -12 -47 -59 -129 -130 -46 -40
-67 -52 -83 -47 -12 3 -27 1 -33 -4 -6 -5 -16 -6 -21 -2 -15 9 138 133 194
157 23 10 42 22 42 27 0 4 7 8 15 8 8 0 15 -4 15 -9z m-716 -32 c-9 -10 -21
-16 -26 -13 -5 3 -2 14 8 25 9 10 21 16 26 13 5 -3 2 -14 -8 -25z m1424 9 c-4
-29 -63 -59 -101 -52 -19 4 -29 1 -33 -10 -3 -9 -10 -16 -16 -16 -5 0 -25 -12
-43 -26 -37 -28 -59 -24 -50 9 2 12 2 16 -1 10 -8 -18 -45 -17 -38 1 6 17 95
62 139 71 17 4 39 10 50 15 23 10 52 17 78 19 14 1 18 -5 15 -21z m-1710 5
c-10 -2 -18 -13 -18 -23 0 -19 -35 -44 -137 -96 -35 -17 -70 -37 -78 -44 -9
-7 -18 -10 -21 -7 -13 13 6 35 49 56 25 12 51 29 57 37 7 7 17 14 23 14 6 0
18 7 28 16 24 22 81 52 99 52 10 0 9 -2 -2 -5z m504 -25 c-6 -6 -16 -7 -23 -3
-9 6 -7 12 7 22 21 15 34 -1 16 -19z m-887 12 c3 -5 -16 -19 -42 -31 -26 -12
-57 -30 -68 -40 -27 -23 -60 -28 -60 -9 0 8 9 16 20 18 11 2 25 10 32 19 26
34 106 63 118 43z m1518 4 c13 -13 -39 -84 -61 -84 -8 0 -36 -11 -62 -24 -54
-27 -101 -36 -107 -21 -2 6 5 15 16 20 10 6 38 23 62 40 87 59 139 82 152 69z
m-688 -84 c-24 -24 -43 -36 -53 -33 -11 5 -4 15 29 44 56 47 73 39 24 -11z
m925 36 c0 -15 -93 -66 -119 -66 -21 0 -3 17 56 51 55 33 63 35 63 15z m-1740
-35 c0 -11 -9 -23 -22 -27 -12 -3 -33 -17 -47 -30 -19 -17 -29 -21 -43 -13
-32 17 -29 21 62 66 54 27 50 27 50 4z m2128 7 c20 -20 15 -58 -7 -58 -10 0
-31 -7 -47 -15 -43 -22 -53 -1 -15 30 17 15 31 33 31 41 0 17 22 18 38 2z
m-1408 -6 c0 -10 -64 -63 -97 -81 -13 -6 -23 -17 -23 -23 0 -10 7 -9 63 9 10
3 17 0 17 -7 0 -13 -40 -49 -55 -50 -6 0 -16 -5 -23 -12 -7 -7 -42 -12 -84
-12 -61 -1 -73 -4 -76 -18 -3 -16 5 -18 70 -18 85 0 132 19 163 68 11 17 38
40 60 52 48 25 82 47 123 78 17 12 33 18 37 13 7 -12 -52 -81 -69 -81 -7 0
-21 -9 -31 -20 -10 -11 -22 -20 -28 -20 -5 0 -22 -10 -39 -21 -19 -14 -26 -25
-20 -31 7 -7 18 -5 33 6 13 9 32 16 42 16 10 0 30 12 45 27 38 39 68 53 113
53 21 0 41 5 44 10 7 11 45 14 45 3 0 -9 -98 -101 -121 -113 -12 -7 -19 -5
-23 7 -6 14 -8 14 -26 -2 -19 -17 -19 -19 -3 -37 9 -10 13 -21 10 -24 -9 -10
-657 -11 -657 -2 0 4 9 8 20 8 23 0 47 10 137 61 18 10 40 19 48 19 9 0 39 16
68 35 41 27 60 33 90 31 39 -4 49 6 21 22 -19 10 -2 27 19 19 7 -2 28 6 47 19
36 24 60 30 60 16z m-1035 -12 c6 -10 -67 -60 -89 -60 -26 0 49 69 76 70 4 0
10 -4 13 -10z m2065 -15 c0 -21 -22 -54 -33 -49 -8 3 -31 -4 -51 -15 -20 -12
-44 -21 -52 -21 -9 0 -26 -8 -39 -18 l-22 -18 24 -29 24 -30 18 23 c11 12 23
22 27 22 4 0 18 10 31 22 17 16 23 18 23 7 0 -8 -19 -33 -42 -56 l-43 -41
-205 -1 -205 0 46 42 c104 96 134 117 166 117 17 0 34 -4 37 -9 7 -10 -17 -21
-46 -21 -17 0 -19 -4 -13 -30 4 -19 3 -30 -4 -30 -18 0 -12 -24 8 -37 16 -10
24 -9 45 8 14 11 26 27 26 35 0 8 3 14 8 14 4 0 24 16 45 35 21 19 44 32 52
29 7 -3 16 -1 20 5 3 6 17 11 30 11 13 0 27 5 30 10 3 6 14 10 24 10 10 0 24
6 31 14 9 12 40 12 40 1z m-1993 -34 c9 -14 26 -21 60 -23 72 -5 58 -23 -21
-26 -58 -3 -68 -1 -63 13 4 8 2 16 -3 16 -6 1 -14 3 -20 4 -5 1 -13 3 -17 4
-11 2 28 31 42 31 5 0 16 -9 22 -19z m734 2 c-5 -10 -24 -25 -43 -34 -18 -9
-72 -35 -119 -58 -89 -42 -155 -57 -114 -25 11 9 34 22 51 30 18 7 45 24 61
38 16 13 42 26 58 29 17 3 46 12 65 21 46 20 53 20 41 -1z m1719 2 c0 -9 -9
-15 -21 -15 -18 0 -19 2 -9 15 7 8 16 15 21 15 5 0 9 -7 9 -15z m-703 -11 c-3
-3 -12 -4 -19 -1 -8 3 -5 6 6 6 11 1 17 -2 13 -5z m-1509 -28 c3 -12 -1 -17
-10 -14 -7 3 -15 13 -16 22 -3 12 1 17 10 14 7 -3 15 -13 16 -22z m1321 -2
c-6 -8 -18 -14 -26 -14 -7 0 -37 -22 -66 -50 -29 -27 -56 -50 -61 -50 -5 0
-17 -6 -25 -12 -12 -10 -48 -12 -136 -8 -66 4 -114 7 -106 8 8 1 23 9 33 19
10 9 27 21 37 27 10 6 29 19 42 28 29 20 77 14 59 -7 -7 -8 -7 -15 -1 -19 5
-3 22 9 37 26 15 18 32 33 38 34 6 0 25 7 41 14 33 13 125 29 138 22 4 -2 3
-10 -4 -18z m621 15 c0 -17 -43 -48 -66 -49 -12 0 -32 -9 -45 -19 l-24 -19 28
-7 c27 -7 27 -8 10 -27 -14 -15 -25 -18 -56 -13 -23 4 -50 2 -68 -5 -66 -28
-34 27 38 65 21 11 50 28 64 38 23 16 93 45 112 47 4 0 7 -5 7 -11z m-2283 -5
c-3 -3 -12 -4 -19 -1 -8 3 -5 6 6 6 11 1 17 -2 13 -5z"/>
<path d="M5485 6950 c-3 -5 -19 -10 -35 -10 -16 0 -32 -4 -35 -10 -3 -5 -15
-10 -26 -10 -10 0 -19 -4 -19 -10 0 -5 -11 -10 -25 -10 -13 0 -40 -9 -60 -20
-20 -11 -44 -20 -55 -20 -11 0 -35 -9 -55 -20 -20 -11 -44 -20 -55 -20 -10 0
-22 -4 -25 -10 -3 -5 -15 -10 -26 -10 -10 0 -19 -4 -19 -10 0 -5 -9 -10 -20
-10 -11 0 -29 -4 -40 -10 -11 -5 -29 -14 -40 -20 -11 -5 -31 -10 -45 -10 -16
0 -25 -6 -25 -15 0 -18 59 -21 90 -5 11 6 29 15 40 20 11 6 27 10 35 10 8 0
15 5 15 10 0 6 11 10 24 10 14 0 28 5 31 10 3 6 17 10 30 10 13 0 27 5 30 10
3 6 15 10 26 10 10 0 19 5 19 10 0 6 15 10 33 10 19 0 42 8 55 20 12 11 33 20
47 20 14 0 25 5 25 10 0 6 20 10 44 10 25 0 48 5 51 10 3 6 15 10 26 10 10 0
19 5 19 10 0 6 9 10 20 10 11 0 20 7 20 15 0 17 -65 22 -75 5z"/>
<path d="M3850 6816 c0 -14 5 -28 10 -31 6 -3 10 -37 10 -75 0 -38 5 -72 10
-75 6 -3 10 -45 10 -93 0 -67 -3 -83 -12 -74 -7 7 -22 12 -34 12 -13 0 -37 17
-58 40 -39 44 -76 53 -76 20 0 -26 28 -70 44 -70 19 0 56 -44 56 -66 1 -27 45
-74 70 -74 16 0 20 6 20 30 0 17 -4 30 -10 30 -5 0 -10 5 -10 10 0 6 14 10 31
10 l30 0 -2 87 c-1 48 -6 97 -12 108 -24 48 -27 56 -27 80 0 14 6 25 13 25 12
0 37 -44 37 -67 0 -7 5 -13 10 -13 6 0 10 -7 10 -15 0 -8 4 -23 9 -33 5 -9 16
-33 25 -52 29 -64 76 -104 76 -65 0 9 11 28 25 43 l25 27 0 -56 c0 -51 -2 -57
-27 -70 -16 -8 -34 -22 -41 -31 -7 -10 -22 -18 -33 -18 -10 0 -19 -3 -19 -8 0
-11 -56 -34 -77 -30 -12 2 -19 -4 -21 -18 -2 -12 -11 -24 -20 -27 -18 -6 -73
-38 -82 -48 -3 -3 -22 -13 -42 -22 -20 -10 -43 -23 -50 -30 -19 -17 -69 -47
-90 -54 -10 -3 -18 -9 -18 -14 0 -5 -9 -9 -20 -9 -12 0 -20 -7 -20 -17 -1 -19
-57 -52 -77 -46 -9 3 -13 30 -13 89 0 77 2 84 20 84 16 0 20 7 20 30 0 37 -18
39 -50 5 -13 -14 -30 -25 -37 -25 -8 0 -17 -8 -20 -17 -4 -10 -12 -24 -19 -30
-25 -26 -34 -13 -34 50 0 36 -5 68 -12 75 -10 10 -10 17 0 32 18 29 16 110 -3
110 -11 0 -15 -11 -15 -40 0 -22 -4 -40 -10 -40 -5 0 -10 -9 -10 -20 0 -11 -4
-20 -10 -20 -5 0 -10 -11 -10 -25 0 -27 -13 -54 -44 -91 l-18 -23 -34 45 c-19
24 -34 46 -34 49 0 2 -18 28 -40 57 -25 34 -40 64 -40 83 -1 38 -21 65 -49 65
-18 0 -21 -6 -21 -47 0 -32 7 -56 20 -73 11 -14 20 -35 20 -47 0 -12 5 -25 10
-28 6 -3 10 -22 10 -41 0 -19 5 -34 10 -34 6 0 10 -13 10 -30 0 -16 5 -30 10
-30 6 0 10 -27 10 -60 0 -33 6 -69 12 -80 10 -16 10 -24 0 -40 -7 -12 -9 -26
-5 -33 7 -12 9 -17 11 -49 1 -12 10 -18 27 -18 22 0 25 4 25 34 0 19 -4 38
-10 41 -5 3 -10 30 -10 60 0 30 -4 57 -10 60 -5 3 -10 24 -10 46 0 21 -4 39
-10 39 -5 0 -10 16 -10 35 0 19 -4 35 -10 35 -5 0 -10 11 -10 25 0 14 -6 28
-14 31 -8 3 -11 15 -8 30 4 24 5 24 16 6 6 -11 30 -47 54 -80 23 -34 42 -71
42 -84 1 -26 22 -58 38 -58 6 0 16 14 24 30 7 17 16 30 20 30 5 0 8 11 8 25 0
14 8 34 18 45 9 11 20 30 24 43 3 12 6 -26 7 -85 1 -59 5 -109 10 -112 15 -10
35 3 49 29 6 14 18 36 25 50 14 29 44 36 31 8 -13 -31 -16 -90 -5 -97 6 -4 11
-25 11 -47 0 -31 4 -39 18 -39 10 0 28 9 40 20 12 11 25 20 30 20 5 0 27 18
50 40 22 22 48 40 56 40 9 0 16 5 16 10 0 6 6 10 13 10 7 0 22 8 33 18 10 9
31 23 47 31 15 8 27 18 27 23 0 4 9 8 20 8 11 0 20 5 20 10 0 6 9 10 20 10 11
0 20 5 20 10 0 6 6 10 13 10 7 0 22 8 33 18 10 9 49 32 86 51 37 18 69 39 72
46 6 17 63 45 91 45 13 0 25 6 28 14 6 15 62 46 84 46 8 0 13 6 11 13 -6 15
-58 22 -58 8 0 -15 -33 -14 -48 1 -15 15 -16 64 -2 73 6 3 10 23 10 44 0 20 5
42 12 49 9 9 9 15 1 23 -16 16 -36 6 -53 -27 -8 -16 -27 -45 -41 -64 -15 -19
-29 -44 -31 -55 -3 -17 -6 -15 -18 13 -8 17 -18 32 -22 32 -5 0 -8 9 -8 19 0
18 -54 130 -68 141 -12 9 -52 91 -52 106 0 8 -10 14 -25 14 -20 0 -25 -5 -25
-24z"/>
<path d="M4790 6711 c0 -6 -11 -11 -24 -11 -14 0 -28 -4 -31 -10 -3 -5 -17
-10 -30 -10 -13 0 -27 -4 -30 -10 -3 -5 -14 -10 -24 -10 -10 0 -53 -18 -96
-40 -43 -22 -84 -40 -91 -40 -8 0 -14 -4 -14 -10 0 -5 -9 -10 -20 -10 -11 0
-20 -4 -20 -10 0 -5 -9 -10 -20 -10 -34 0 -104 -46 -94 -61 7 -12 44 -11 44 1
0 6 9 10 20 10 11 0 20 5 20 10 0 6 9 10 20 10 11 0 20 5 20 10 0 6 11 10 24
10 14 0 28 5 31 10 3 6 15 10 26 10 10 0 19 5 19 10 0 6 9 10 20 10 11 0 20 3
20 8 0 8 49 32 67 32 7 0 13 5 13 10 0 6 14 10 30 10 17 0 30 5 30 10 0 6 11
10 24 10 14 0 28 5 31 10 3 6 15 10 26 10 10 0 19 4 19 9 0 5 12 11 28 13 38
4 34 22 -5 26 -19 2 -33 -1 -33 -7z"/>
<path d="M8592 6658 c-21 -44 -29 -89 -38 -233 -3 -44 -10 -84 -15 -89 -5 -6
-9 -25 -9 -42 0 -18 -4 -36 -10 -39 -5 -3 -10 -35 -10 -71 0 -50 3 -64 15 -64
11 0 15 11 15 40 0 22 5 40 10 40 6 0 10 15 10 34 0 19 5 38 10 41 6 3 10 21
10 40 0 19 4 36 9 40 6 3 9 13 8 23 -1 25 54 92 76 92 27 0 20 -34 -13 -58
-16 -13 -30 -31 -30 -42 0 -10 -4 -22 -10 -25 -5 -3 -10 -17 -10 -31 0 -18 5
-24 23 -24 20 0 17 -5 -20 -41 -24 -22 -43 -44 -43 -49 0 -14 34 -12 48 2 9 9
12 9 12 -3 0 -8 -13 -28 -30 -44 -27 -26 -41 -65 -22 -65 10 1 62 47 62 57 1
12 43 56 68 71 19 10 22 10 22 -3 0 -8 -6 -15 -14 -15 -8 0 -30 -19 -48 -41
-18 -23 -48 -59 -67 -80 -19 -23 -31 -45 -27 -54 7 -18 28 -19 44 -3 9 9 12 6
12 -15 0 -20 -5 -27 -20 -27 -11 0 -20 4 -20 8 0 5 -16 14 -34 22 -28 11 -36
20 -38 44 -4 43 -22 35 -26 -11 -2 -21 -8 -42 -13 -47 -5 -6 -9 -22 -9 -37 0
-15 -4 -31 -10 -34 -5 -3 -10 -24 -10 -46 0 -21 -4 -39 -10 -39 -5 0 -10 -11
-10 -24 0 -13 -7 -37 -15 -52 -8 -16 -15 -37 -15 -46 0 -17 -16 -18 -190 -18
-104 0 -190 -4 -190 -9 0 -8 -14 -12 -103 -29 -56 -10 -45 -27 20 -30 43 -2
67 2 99 19 33 16 52 20 86 15 35 -5 179 -9 238 -7 8 0 33 -1 55 -2 l40 -2 3
65 c2 36 7 69 13 75 5 5 9 24 9 41 0 18 5 36 10 39 6 3 10 26 10 51 0 42 1 44
28 44 32 0 84 -23 102 -45 7 -8 19 -15 26 -15 8 0 23 -6 34 -12 16 -10 24 -10
40 0 19 12 20 10 20 -82 0 -53 4 -98 10 -101 6 -3 10 -46 10 -94 0 -74 3 -91
19 -105 14 -13 21 -14 26 -6 11 17 6 183 -5 194 -6 6 -10 40 -10 77 0 37 -4
71 -10 74 -6 3 -10 50 -10 106 0 112 -9 123 -62 72 -15 -14 -31 -23 -35 -19
-5 5 11 25 35 45 26 22 42 45 42 59 0 12 -3 22 -7 22 -4 0 -31 -23 -60 -52
-29 -29 -53 -48 -53 -42 0 6 11 21 25 34 13 12 22 27 19 32 -3 5 12 27 35 48
l41 39 0 134 c0 121 -2 136 -20 152 -11 10 -20 26 -20 37 0 10 -4 26 -9 36 -5
9 -13 28 -19 42 -47 117 -65 127 -100 58z m58 -87 c0 -15 5 -32 10 -37 7 -7
-2 -21 -25 -44 l-35 -34 0 55 c0 65 18 113 37 97 7 -6 13 -22 13 -37z m53
-578 c9 -9 -12 -33 -29 -33 -12 0 -12 4 -2 20 14 21 21 24 31 13z"/>
<path d="M7354 6488 c4 -40 9 -102 12 -138 3 -36 9 -69 14 -75 4 -5 9 -57 9
-115 1 -57 6 -109 11 -115 5 -6 11 -53 14 -105 6 -119 15 -189 26 -215 11 -24
20 -74 26 -140 3 -27 10 -60 16 -72 6 -13 9 -25 7 -27 -2 -2 -42 -6 -89 -9
-154 -10 -192 -17 -252 -48 -10 -5 -28 -9 -41 -9 -20 0 -75 -23 -169 -71 -10
-5 -24 -9 -33 -9 -8 0 -30 -9 -50 -20 -20 -11 -41 -20 -48 -20 -7 0 -23 -9
-37 -20 -14 -11 -33 -20 -42 -20 -10 0 -18 -6 -18 -13 0 -9 -11 -12 -35 -9
-37 4 -131 -34 -155 -63 -7 -8 -18 -15 -25 -15 -6 0 -20 -9 -30 -20 -10 -11
-23 -20 -30 -20 -7 0 -20 -9 -30 -20 -10 -11 -23 -20 -30 -20 -14 0 -91 -78
-84 -85 3 -2 -19 -29 -48 -60 -30 -30 -53 -64 -53 -76 0 -27 -31 -22 -46 9 -6
12 -18 30 -27 40 -10 10 -17 23 -17 29 0 6 -13 25 -30 43 -16 18 -30 38 -30
46 0 7 -15 34 -32 59 -18 26 -38 55 -44 66 -6 10 -18 27 -26 36 -8 10 -18 26
-21 36 -4 9 -12 17 -19 18 -14 0 -98 110 -98 128 0 14 -69 105 -84 110 -16 5
-56 43 -56 53 0 5 -22 32 -50 61 -27 29 -50 61 -50 73 0 11 -8 28 -18 37 -20
18 -72 23 -72 7 0 -5 -17 -10 -38 -10 -21 0 -42 -4 -48 -9 -5 -6 -67 -12 -139
-14 -71 -2 -152 -10 -180 -16 -71 -18 -184 -31 -300 -37 -55 -3 -104 -10 -109
-15 -6 -5 -43 -9 -82 -9 -40 0 -76 -4 -79 -10 -3 -5 -28 -10 -56 -10 -27 0
-49 -5 -49 -10 0 -16 68 -73 109 -92 20 -9 52 -33 70 -52 19 -20 39 -36 43
-36 5 0 38 -22 73 -50 35 -27 68 -50 73 -50 4 0 21 -13 37 -30 16 -16 34 -30
40 -30 7 0 20 -9 30 -20 10 -11 22 -20 26 -20 7 0 105 -65 142 -93 9 -8 17
-19 17 -25 0 -6 12 -18 28 -26 15 -8 36 -23 46 -35 11 -12 27 -21 37 -21 20 0
129 -96 129 -114 0 -6 9 -22 20 -36 25 -32 25 -52 0 -75 -14 -12 -17 -22 -10
-29 9 -9 25 -4 83 26 30 15 32 1 9 -43 -23 -43 -29 -94 -12 -104 6 -3 13 2 16
12 3 10 10 26 15 35 5 10 9 24 9 32 0 7 7 19 15 26 17 14 45 67 45 85 0 7 18
48 41 91 22 43 38 86 36 96 -3 9 1 19 9 22 8 3 14 14 14 25 0 11 5 23 10 26 6
3 10 14 10 24 0 10 7 24 15 31 17 14 45 67 45 86 0 7 9 18 20 24 13 7 20 21
20 40 0 56 -25 35 -75 -63 -17 -34 -37 -73 -45 -87 -26 -48 -30 -60 -30 -81 0
-11 -8 -33 -18 -47 -10 -15 -26 -43 -35 -63 -9 -20 -23 -42 -32 -49 -8 -7 -15
-23 -15 -36 0 -33 -18 -39 -48 -16 -18 13 -26 28 -24 43 3 30 43 111 59 122 6
4 18 20 26 35 48 91 80 148 88 157 5 5 9 19 9 32 0 13 5 23 10 23 6 0 10 8 10
18 0 9 9 28 20 42 11 14 20 34 20 45 0 12 5 26 11 32 6 6 8 16 5 22 -11 18
-35 0 -52 -38 -9 -20 -20 -44 -25 -53 -5 -10 -9 -27 -9 -38 0 -19 -25 -70 -59
-120 -10 -14 -25 -41 -34 -61 -9 -20 -23 -42 -32 -49 -8 -7 -15 -18 -15 -25 0
-7 -7 -18 -15 -25 -9 -7 -23 -29 -32 -49 -9 -20 -22 -39 -27 -43 -12 -8 -36 9
-36 27 0 12 -73 75 -87 75 -5 0 -14 5 -21 12 -8 8 -6 18 9 39 22 32 17 58 -7
38 -22 -18 -18 23 6 66 11 20 20 42 20 51 0 8 7 17 15 20 19 8 68 107 63 130
-4 21 -28 31 -28 12 0 -17 -41 -100 -60 -123 -18 -22 -60 -106 -60 -121 0 -6
-6 -23 -13 -37 -13 -24 -13 -24 -35 -7 -27 23 -27 28 0 57 15 16 18 27 12 33
-7 7 -16 4 -29 -10 -26 -29 -46 -25 -96 18 -24 20 -56 43 -70 51 l-26 13 23
25 c13 14 24 32 24 39 0 8 9 28 20 46 11 18 20 41 20 51 0 19 15 50 41 82 24
32 39 74 29 80 -13 8 -60 -43 -60 -65 0 -9 -9 -25 -20 -35 -11 -10 -20 -24
-20 -32 0 -7 -4 -13 -10 -13 -5 0 -10 -9 -10 -19 0 -11 -4 -23 -10 -26 -5 -3
-10 -14 -10 -25 0 -10 -9 -36 -21 -57 -17 -33 -25 -39 -45 -35 -13 2 -24 9
-24 15 0 15 -51 67 -65 67 -6 0 -24 14 -40 30 -16 17 -34 30 -40 30 -6 0 -29
18 -50 40 -21 22 -44 40 -50 40 -10 1 -75 56 -75 65 0 3 14 5 30 5 17 0 30 4
30 9 0 4 37 9 82 10 46 1 87 6 92 11 6 6 25 10 43 10 26 0 33 -4 33 -20 0 -11
6 -20 13 -20 7 0 18 9 25 20 9 16 23 20 62 20 28 0 50 5 50 10 0 6 20 10 44
10 25 0 48 5 51 10 4 6 65 10 150 10 85 0 146 4 150 10 3 6 21 10 40 10 19 0
37 5 40 10 12 19 71 11 93 -13 12 -13 22 -27 23 -33 1 -19 96 -129 123 -142
15 -8 31 -24 36 -36 4 -12 25 -37 46 -57 30 -26 38 -41 36 -61 -2 -18 4 -31
19 -42 l23 -16 -22 -41 c-12 -22 -22 -49 -22 -59 0 -26 19 -35 26 -13 3 10 10
26 15 35 5 10 9 25 9 33 0 8 7 15 15 15 8 0 15 -6 15 -13 0 -7 14 -26 30 -42
17 -16 30 -36 30 -45 0 -19 -40 -102 -62 -128 -15 -19 -46 -84 -61 -132 -3 -8
-6 2 -6 23 -1 43 -31 55 -31 13 0 -14 -4 -28 -10 -31 -5 -3 -10 -14 -10 -23 0
-9 -9 -28 -20 -42 -11 -14 -20 -34 -20 -45 -1 -11 -14 -36 -30 -55 -17 -19
-30 -41 -30 -50 0 -8 -9 -26 -20 -40 -11 -14 -20 -36 -20 -50 0 -15 -6 -32
-12 -38 -10 -10 -10 -17 0 -32 15 -24 16 -66 2 -75 -5 -3 -10 -15 -10 -26 0
-19 -3 -18 -37 10 -21 17 -47 31 -58 31 -11 0 -36 13 -55 30 -19 16 -44 29
-56 30 -22 0 -69 44 -88 82 -6 13 -29 32 -51 43 -70 35 -70 35 -31 61 19 13
42 24 51 24 29 0 10 25 -22 28 -24 2 -40 -7 -82 -44 -62 -55 -62 -56 49 -112
55 -28 76 -44 80 -62 4 -17 14 -26 32 -28 14 -2 38 -16 54 -33 15 -16 33 -29
39 -29 14 0 44 -31 59 -62 6 -11 20 -26 31 -32 24 -14 37 -27 51 -51 6 -11 23
-26 38 -33 15 -8 30 -21 33 -30 8 -22 194 -212 209 -212 13 0 54 -42 54 -56 0
-11 -47 -34 -70 -34 -9 0 -25 -9 -35 -20 -10 -11 -28 -20 -39 -20 -20 -1 -56
-21 -56 -32 0 -3 22 -28 48 -55 26 -27 55 -63 63 -81 8 -17 31 -48 50 -69 19
-21 40 -50 48 -66 8 -15 29 -39 47 -52 18 -14 41 -41 50 -60 9 -19 20 -35 25
-35 5 0 9 -11 9 -23 0 -23 102 -137 122 -137 5 0 39 -30 77 -67 70 -71 100
-93 126 -93 15 0 82 -34 99 -51 6 -5 20 -9 33 -9 13 0 23 -4 23 -10 0 -5 9
-10 20 -10 11 0 20 -4 20 -10 0 -6 46 -10 118 -10 104 0 121 2 140 20 12 11
28 20 35 20 22 0 29 40 9 47 -9 4 -18 1 -20 -5 -2 -7 -14 -12 -27 -12 -13 0
-27 -4 -30 -10 -4 -6 -53 -10 -114 -10 -93 0 -110 3 -129 20 -12 11 -26 20
-32 20 -6 0 -18 4 -28 9 -75 38 -106 51 -120 51 -23 1 -44 19 -61 53 -8 15
-22 27 -32 27 -10 0 -32 17 -48 38 -17 20 -49 48 -71 62 -22 14 -40 32 -40 42
0 9 -4 18 -8 20 -14 6 -52 66 -52 81 0 9 -13 25 -30 37 -16 12 -30 28 -30 35
0 8 -9 19 -20 25 -11 6 -20 18 -20 28 0 9 -23 39 -50 66 -28 27 -50 57 -50 67
0 11 -7 19 -17 19 -18 0 -43 41 -43 70 0 21 20 40 42 40 9 0 33 9 53 20 20 11
47 20 60 20 18 0 25 6 25 18 0 20 -83 112 -101 112 -15 0 -168 152 -183 181
-6 13 -22 29 -34 35 -52 26 -104 94 -72 94 6 0 10 -5 10 -11 0 -6 12 -9 28 -7
25 3 27 7 29 53 3 61 22 125 37 125 18 -1 116 -97 116 -114 0 -16 57 -49 71
-40 5 3 6 30 3 60 -5 43 -4 54 7 54 22 0 128 -112 152 -161 12 -24 32 -48 44
-55 13 -6 31 -18 41 -27 25 -23 31 -22 64 10 33 32 35 44 8 68 -18 16 -20 31
-20 161 0 84 4 145 10 149 6 3 10 26 10 51 0 25 7 58 15 73 8 16 17 47 21 69
3 23 13 43 20 46 11 4 14 -9 14 -62 0 -38 4 -72 9 -78 5 -5 11 -25 13 -44 2
-19 8 -33 13 -30 10 5 10 45 -1 193 -4 60 -3 92 5 100 6 6 11 18 11 26 0 16
61 71 78 71 5 0 19 12 33 26 13 14 42 34 65 44 22 11 47 26 54 35 7 8 20 15
28 15 12 0 13 -3 4 -12 -7 -7 -12 -24 -12 -38 0 -15 -9 -35 -20 -45 -11 -10
-20 -24 -20 -30 0 -7 -18 -32 -40 -56 -22 -24 -40 -47 -40 -52 0 -4 -22 -37
-50 -72 -27 -35 -50 -69 -50 -74 0 -5 -5 -11 -11 -13 -9 -3 -8 -10 2 -25 10
-18 11 -24 0 -37 -11 -13 -11 -19 -1 -31 18 -22 33 -18 27 6 -4 15 5 30 34 57
21 20 39 43 39 50 0 6 4 12 8 12 5 0 15 12 23 28 7 15 28 44 46 64 28 32 32
34 35 17 6 -40 23 -18 26 33 2 29 7 57 13 63 5 5 9 33 9 61 0 29 5 56 10 59 6
3 10 17 10 31 0 24 23 34 35 14 12 -20 25 -9 25 20 0 23 5 30 19 30 11 0 23 5
26 10 3 6 19 10 34 10 15 0 32 5 39 12 9 9 12 1 12 -39 0 -29 5 -55 10 -58 6
-3 10 -44 10 -90 0 -46 5 -87 10 -90 6 -3 10 -21 10 -40 0 -54 57 -148 125
-205 80 -67 87 -66 83 18 -3 69 -21 92 -26 35 -2 -18 -9 -33 -16 -33 -6 0 -26
15 -42 33 -72 76 -93 130 -54 140 13 3 20 14 20 29 0 14 13 37 30 53 17 16 30
33 30 37 0 5 14 27 31 48 17 21 28 43 24 49 -10 18 -21 13 -36 -16 -8 -16 -26
-41 -41 -58 -16 -16 -28 -33 -28 -36 0 -4 -16 -24 -35 -45 -19 -21 -35 -33
-35 -28 0 14 44 101 62 122 8 9 22 33 31 52 8 19 27 46 41 59 14 14 26 30 26
38 0 7 5 13 10 13 6 0 10 7 10 15 0 8 -4 15 -10 15 -14 0 -79 -72 -80 -87 0
-7 -4 -13 -8 -13 -5 0 -15 -12 -22 -27 -8 -16 -22 -40 -32 -55 -10 -14 -18
-33 -18 -42 0 -9 -7 -16 -15 -16 -17 0 -21 35 -5 45 6 3 10 19 10 34 0 17 11
38 30 56 17 16 30 34 30 40 0 6 14 24 30 40 17 16 30 34 30 41 0 7 4 14 8 16
4 2 18 18 31 36 12 17 30 32 39 32 9 0 30 7 46 15 34 18 52 19 62 3 5 -7 -12
-29 -43 -57 -43 -39 -51 -53 -57 -93 -4 -29 -13 -49 -23 -52 -12 -5 -14 -9 -5
-18 7 -7 12 -39 12 -73 l0 -61 -60 -59 c-33 -33 -60 -67 -60 -77 0 -27 12 -22
55 23 l40 40 5 -46 c7 -59 24 -63 28 -5 2 25 7 49 13 55 5 5 9 30 9 55 0 26 3
49 6 53 4 3 8 46 10 94 5 100 17 133 50 133 26 0 54 47 54 90 0 24 5 29 38 35
67 13 272 17 272 6 0 -17 21 -13 36 7 20 26 17 52 -6 52 -17 0 -20 7 -20 49 0
28 -4 53 -10 56 -5 3 -10 26 -10 50 0 24 -4 47 -10 50 -5 3 -10 21 -10 40 0
19 -4 37 -10 40 -5 3 -10 33 -10 66 0 64 12 75 45 39 10 -11 23 -20 30 -20 7
0 20 -9 30 -20 10 -11 23 -20 30 -20 7 0 20 -9 30 -20 10 -11 22 -17 26 -14 5
3 9 42 9 88 0 81 9 106 37 106 8 0 13 -12 13 -29 0 -17 5 -33 10 -36 6 -3 10
-17 10 -31 0 -13 5 -33 10 -44 6 -11 15 -29 20 -40 6 -11 10 -29 10 -40 0 -11
5 -20 10 -20 6 0 10 -10 10 -23 0 -13 4 -27 9 -32 5 -6 11 -21 13 -35 2 -17
10 -26 26 -28 19 -3 22 1 22 27 0 16 -4 33 -10 36 -5 3 -10 18 -10 32 0 16 -7
27 -20 30 -11 3 -20 14 -20 24 0 11 -6 19 -12 19 -9 0 -12 15 -10 50 3 32 0
50 -7 50 -6 0 -11 15 -11 33 0 21 -8 41 -20 52 -11 10 -20 31 -20 46 0 15 -3
29 -8 31 -4 2 -22 35 -41 73 -18 39 -37 78 -42 87 -5 10 -9 24 -9 31 0 8 -9
22 -20 32 -11 10 -20 26 -20 35 0 9 -4 20 -9 26 -18 18 -51 85 -51 102 0 19
-49 72 -66 72 -6 0 -23 14 -39 30 -16 17 -37 30 -48 30 -18 0 -19 -5 -13 -72z
m96 -36 c0 -25 -22 -71 -37 -77 -9 -3 -13 10 -13 45 0 47 2 50 25 50 17 0 25
-5 25 -18z m14 -131 c-14 -28 -30 -54 -35 -57 -17 -10 -9 43 9 59 10 9 25 33
33 54 11 29 15 33 17 16 2 -12 -9 -44 -24 -72z m89 -57 c18 -23 18 -27 3 -59
-22 -45 -29 -48 -43 -19 -10 21 -9 24 8 24 10 0 19 7 19 15 0 8 -4 15 -9 15
-5 0 -11 11 -13 25 -7 32 12 32 35 -1z m-74 -30 c-18 -22 -22 -11 -7 22 10 21
14 24 16 10 2 -9 -2 -24 -9 -32z m-32 -46 c-3 -8 -6 -5 -6 6 -1 11 2 17 5 13
3 -3 4 -12 1 -19z m129 -62 c-9 -19 -21 -38 -27 -42 -6 -3 -14 -16 -19 -28
l-9 -21 0 23 c-1 25 14 55 43 89 26 31 32 21 12 -21z m-64 2 c-3 -12 -11 -34
-19 -48 -11 -22 -13 -23 -13 -4 0 23 22 74 32 74 3 0 4 -10 0 -22z m118 -18
c0 -11 9 -35 20 -55 26 -47 25 -68 -5 -82 -25 -11 -26 -11 -23 25 2 28 -1 37
-14 40 -14 3 -18 -3 -18 -22 0 -14 -9 -42 -21 -62 -14 -26 -17 -40 -10 -47 15
-15 14 -27 -2 -27 -7 0 -26 14 -42 30 -16 17 -34 30 -39 30 -13 0 -36 46 -36
71 0 9 7 23 17 30 15 13 16 11 11 -13 -6 -34 12 -61 37 -57 10 2 27 20 38 39
10 19 27 44 38 56 10 11 19 30 19 42 0 13 6 22 15 22 8 0 15 -9 15 -20z m-682
-835 c-23 -34 -48 -53 -48 -35 0 5 5 12 10 15 6 3 10 17 10 31 0 19 5 24 25
24 l25 0 -22 -35z m-71 -10 c-13 -26 -37 -34 -37 -12 0 16 20 37 36 37 9 0 9
-6 1 -25z m-11 -86 c-20 -23 -26 -26 -26 -13 0 21 43 70 48 55 2 -6 -8 -25
-22 -42z m-872 -138 c22 -19 20 -34 -9 -61 -27 -25 -75 -104 -75 -124 0 -6 -9
-22 -20 -36 -11 -14 -20 -35 -20 -48 0 -27 -28 -41 -42 -21 -6 10 -7 7 -3 -10
4 -13 3 -33 -3 -45 -24 -52 -32 -79 -32 -107 0 -16 -5 -38 -12 -48 -14 -24 -3
-60 14 -43 23 23 38 13 38 -23 0 -41 -10 -44 -42 -12 -13 12 -34 29 -47 37
l-23 16 21 37 c12 21 21 45 21 54 0 9 9 26 20 38 14 15 21 36 22 69 1 65 -16
79 -37 30 -9 -22 -21 -47 -26 -56 -5 -10 -9 -29 -9 -43 0 -14 -4 -25 -10 -25
-5 0 -10 -16 -10 -35 0 -38 -10 -44 -34 -20 -14 14 -13 19 4 51 11 19 20 41
20 48 0 19 28 72 45 86 8 7 15 18 15 25 0 7 7 26 15 41 13 26 15 27 15 7 0
-41 18 -33 44 19 14 29 26 57 26 63 0 16 29 73 40 80 5 3 17 23 26 43 27 57
37 67 45 45 4 -10 14 -25 23 -32z m62 -115 c14 -15 33 -47 44 -70 10 -24 26
-49 35 -56 21 -17 19 -40 -4 -40 -11 0 -23 -4 -26 -10 -3 -5 -14 -10 -24 -10
-10 0 -26 -9 -36 -20 -10 -11 -23 -20 -30 -20 -7 0 -20 -9 -30 -20 -21 -24
-45 -26 -45 -5 0 8 5 15 10 15 6 0 10 8 10 17 0 9 9 26 19 37 30 33 61 94 61
121 0 44 -18 36 -46 -22 -15 -32 -42 -74 -58 -94 -17 -20 -44 -53 -59 -73 -16
-21 -31 -36 -33 -33 -7 7 24 71 51 102 14 17 25 34 25 40 0 17 70 153 85 165
8 7 16 20 16 29 1 11 3 10 6 -4 3 -11 16 -33 29 -49z m460 26 c-14 -14 -16
-14 -16 -1 0 20 23 44 29 28 2 -6 -4 -18 -13 -27z m-26 -31 c0 -4 -13 -22 -30
-39 -16 -18 -30 -35 -30 -40 0 -4 -13 -23 -30 -42 -16 -19 -29 -41 -30 -47 0
-7 -7 -13 -15 -13 -19 0 -6 26 40 81 17 20 43 52 58 73 28 36 37 43 37 27z
m-340 -221 c0 -5 -4 -10 -10 -10 -5 0 -10 -20 -10 -44 0 -25 -4 -48 -10 -51
-5 -3 -10 -41 -10 -84 0 -43 -3 -81 -7 -85 -15 -15 -32 -81 -23 -90 6 -6 10
-17 10 -25 0 -10 -7 -8 -25 9 -14 13 -25 29 -25 36 0 16 -119 134 -147 145
-12 4 -27 17 -33 29 -9 18 -8 20 15 20 16 0 41 14 67 40 23 22 46 40 52 40 5
0 18 7 28 16 21 20 98 61 116 63 6 1 12 -3 12 -9z m-270 -85 c-7 -9 -15 -13
-18 -10 -3 2 1 11 8 20 7 9 15 13 18 10 3 -2 -1 -11 -8 -20z"/>
<path d="M5840 4775 c0 -8 2 -15 4 -15 2 0 6 7 10 15 3 8 1 15 -4 15 -6 0 -10
-7 -10 -15z"/>
<path d="M6055 4810 c-11 -18 5 -31 26 -20 11 6 17 15 14 21 -8 12 -32 12 -40
-1z"/>
<path d="M6030 6481 c0 -11 4 -22 9 -25 10 -6 19 -83 27 -231 3 -55 10 -104
15 -109 5 -6 9 -28 9 -50 1 -37 18 -76 33 -76 10 0 97 94 97 105 0 6 12 19 27
30 14 11 35 29 45 39 18 20 18 20 18 -2 0 -11 -4 -24 -10 -27 -5 -3 -10 -28
-10 -56 0 -37 4 -49 15 -49 9 0 15 9 15 23 0 13 4 27 9 33 5 5 11 37 14 72 5
60 4 62 -18 62 -15 0 -45 -21 -85 -60 -34 -33 -68 -60 -76 -60 -8 0 -14 -4
-14 -10 0 -5 -7 -10 -15 -10 -11 0 -15 12 -15 44 0 25 -4 48 -10 51 -6 4 -10
60 -10 134 0 96 -4 136 -16 159 -18 36 -54 44 -54 13z"/>
<path d="M6016 6433 c-3 -3 -6 -21 -6 -39 0 -18 -4 -36 -10 -39 -5 -3 -10 -39
-10 -78 0 -107 -14 -143 -35 -95 -6 13 -22 29 -37 36 -14 6 -40 28 -57 47 -32
37 -58 45 -67 20 -9 -22 18 -75 38 -75 15 0 18 -9 18 -50 0 -27 5 -50 10 -50
6 0 10 -30 10 -70 0 -63 2 -70 20 -70 11 0 20 -4 20 -10 0 -5 7 -10 15 -10 17
0 19 20 6 64 -12 39 -28 102 -36 141 l-6 30 36 -35 c20 -19 43 -50 52 -67 17
-36 34 -41 53 -18 12 14 10 86 -5 181 -4 26 -3 44 4 48 6 4 11 36 11 71 0 59
-8 83 -24 68z"/>
<path d="M3390 5970 c0 -5 -7 -10 -16 -10 -9 0 -30 -16 -47 -35 -16 -20 -45
-43 -63 -51 -19 -9 -34 -20 -34 -25 0 -5 -6 -9 -14 -9 -7 0 -26 -12 -42 -27
-16 -16 -42 -34 -57 -42 -15 -8 -27 -20 -27 -28 0 -23 36 -14 68 17 18 17 37
30 43 30 7 0 19 8 28 18 9 9 28 23 44 31 15 8 27 18 27 23 0 4 9 8 20 8 13 0
20 7 20 20 0 11 6 20 13 20 7 0 23 9 35 20 12 11 28 20 37 20 8 0 15 7 15 15
0 9 -9 15 -25 15 -14 0 -25 -4 -25 -10z"/>
<path d="M3050 5732 c0 -4 -18 -18 -40 -32 -22 -14 -40 -28 -40 -32 0 -5 -6
-8 -12 -8 -7 0 -29 -14 -48 -30 -19 -16 -40 -30 -47 -30 -6 0 -17 -13 -24 -29
-8 -17 -25 -36 -39 -43 -50 -26 -67 -58 -31 -58 11 0 51 32 90 70 38 39 76 70
83 70 8 0 20 9 28 20 8 11 19 20 25 20 16 0 85 63 85 78 0 6 -7 12 -15 12 -8
0 -15 -3 -15 -8z"/>
<path d="M4930 5565 c0 -15 -19 -55 -31 -65 -3 -3 -20 -26 -37 -52 -30 -43
-41 -86 -26 -101 10 -10 44 12 44 28 0 19 41 109 52 113 4 2 8 12 8 23 0 10 5
19 10 19 6 0 10 11 10 25 0 16 -6 25 -15 25 -8 0 -15 -7 -15 -15z"/>
<path d="M5108 5544 c-13 -13 -14 -21 -5 -35 9 -15 7 -23 -8 -41 -31 -35 -45
-65 -45 -93 0 -42 17 -28 49 38 17 34 38 74 48 89 15 24 15 27 0 42 -19 20
-19 20 -39 0z"/>
<path d="M5342 5540 c-6 -11 -12 -26 -12 -35 0 -8 -9 -31 -21 -51 -25 -46 -19
-76 11 -49 11 10 20 26 20 35 0 9 9 25 20 35 12 11 20 31 20 52 0 37 -18 44
-38 13z"/>
<path d="M5268 5516 c-7 -13 -47 -72 -88 -131 -41 -59 -79 -115 -85 -124 -5
-9 -18 -22 -27 -29 -19 -14 -25 -62 -8 -62 6 0 14 10 19 23 5 12 25 38 45 56
20 19 36 38 36 43 0 4 18 31 40 60 22 29 40 58 40 64 0 5 14 23 30 39 29 28
40 68 21 80 -6 3 -16 -5 -23 -19z"/>
<path d="M5467 5522 c-10 -10 -17 -28 -17 -39 0 -19 -13 -47 -81 -172 -13 -24
-37 -56 -52 -71 -19 -18 -28 -36 -25 -51 2 -14 -6 -33 -19 -48 -24 -25 -31
-75 -13 -86 19 -12 40 17 40 54 0 38 19 91 33 91 4 0 7 7 7 15 0 8 7 15 15 15
8 0 22 17 31 38 10 20 30 56 46 79 15 23 28 49 28 57 0 8 9 31 20 51 20 36 27
85 12 85 -5 0 -16 -8 -25 -18z"/>
<path d="M4790 5505 c0 -14 -3 -25 -7 -25 -16 0 -55 -70 -49 -87 6 -14 11 -12
36 17 17 19 30 41 30 48 0 6 5 12 10 12 6 0 10 14 10 30 0 20 -5 30 -15 30 -9
0 -15 -9 -15 -25z"/>
<path d="M5527 5462 c-10 -10 -17 -24 -17 -31 0 -7 -8 -25 -18 -39 -10 -15
-30 -52 -45 -83 -15 -31 -36 -64 -47 -74 -11 -10 -36 -52 -57 -94 -21 -42 -41
-77 -45 -79 -15 -6 -9 -82 7 -88 23 -9 36 4 23 25 -9 15 -6 29 16 72 39 78 58
110 88 149 14 19 40 60 56 90 16 30 39 72 50 93 35 60 26 101 -11 59z"/>
<path d="M8777 5473 c-4 -3 -7 -89 -7 -189 0 -111 -4 -185 -10 -189 -5 -3 -10
-35 -10 -71 0 -36 -4 -64 -10 -64 -5 0 -10 -11 -10 -25 0 -13 -9 -40 -20 -60
-11 -20 -20 -42 -20 -49 0 -24 -29 -71 -65 -106 -19 -18 -35 -39 -35 -44 0 -6
-18 -29 -40 -51 -21 -22 -39 -49 -40 -61 0 -29 -41 -64 -73 -64 -15 0 -27 -3
-27 -7 0 -9 -49 -33 -67 -33 -7 0 -13 -4 -13 -10 0 -5 -10 -10 -23 -10 -13 0
-36 -13 -52 -30 -16 -16 -34 -30 -40 -30 -6 0 -27 -16 -46 -36 -18 -20 -44
-40 -57 -45 -20 -8 -21 -11 -10 -29 16 -25 30 -25 48 0 8 11 19 20 25 20 5 0
28 17 50 38 51 47 78 62 110 62 14 0 25 5 25 10 0 6 6 10 13 10 8 0 22 9 32
20 10 11 25 20 34 20 9 0 23 9 31 20 8 11 20 20 27 20 6 0 18 11 25 24 7 13
41 58 76 99 34 42 62 79 62 84 1 4 14 24 30 43 17 19 30 39 30 45 0 17 24 65
33 65 4 0 7 23 7 50 0 28 5 50 10 50 6 0 10 13 10 29 0 17 5 33 10 36 6 3 10
26 10 50 0 24 5 47 10 50 6 4 10 66 10 154 0 115 -4 155 -16 179 -17 35 -17
35 -27 25z"/>
<path d="M3575 5410 c-4 -6 -5 -45 -4 -88 2 -42 3 -146 1 -229 -2 -168 -8
-180 -55 -123 -15 18 -35 30 -49 30 -14 0 -37 13 -53 30 -16 17 -34 30 -41 30
-7 0 -19 9 -27 20 -8 12 -27 22 -43 23 -23 2 -30 -3 -32 -20 -3 -19 9 -40 46
-78 6 -8 12 -21 12 -30 0 -9 8 -25 18 -35 19 -21 62 -97 62 -110 0 -4 14 -22
30 -40 17 -18 30 -38 30 -46 0 -8 5 -14 10 -14 6 0 10 -8 10 -17 0 -10 9 -29
20 -43 11 -14 20 -41 20 -62 0 -34 3 -38 25 -38 24 0 25 3 25 55 0 30 -4 55
-10 55 -5 0 -10 6 -10 14 0 8 -11 24 -25 37 -14 13 -33 39 -41 57 -9 17 -20
32 -25 32 -5 0 -9 9 -9 20 0 11 -4 20 -10 20 -5 0 -10 6 -10 13 0 7 -9 23 -20
35 -11 12 -20 25 -20 29 0 4 -14 22 -30 40 -44 47 -38 75 8 33 12 -11 28 -20
37 -20 8 0 15 -4 15 -10 0 -5 7 -10 15 -10 8 0 33 -18 56 -40 23 -22 48 -40
56 -40 7 0 13 -4 13 -10 0 -5 6 -10 14 -10 12 0 15 31 16 177 0 101 5 182 10
187 6 6 10 21 10 34 0 21 2 22 15 12 10 -8 15 -31 15 -71 0 -33 4 -59 10 -59
6 0 10 -22 10 -49 0 -28 5 -53 10 -56 6 -3 10 -17 10 -31 0 -13 5 -24 10 -24
6 0 10 -13 10 -29 0 -30 38 -111 52 -111 13 0 58 43 58 55 0 6 20 33 45 60 38
42 45 47 45 28 0 -12 -4 -25 -10 -28 -6 -3 -10 -49 -10 -101 0 -93 1 -95 23
-92 16 2 21 9 18 23 -11 61 -12 128 -2 138 6 6 11 18 11 27 0 21 23 70 33 70
4 0 7 16 7 35 0 19 -5 35 -10 35 -18 0 -53 -24 -74 -50 -12 -14 -35 -38 -53
-54 -18 -16 -33 -34 -33 -39 0 -12 -26 -37 -39 -37 -6 0 -11 9 -11 20 0 11 -4
20 -10 20 -5 0 -10 9 -10 20 0 11 -4 20 -10 20 -5 0 -10 18 -10 39 0 22 -4 43
-10 46 -5 3 -10 30 -10 60 0 30 -4 57 -10 60 -5 3 -10 22 -10 40 0 19 -9 50
-20 70 -11 20 -20 42 -20 50 0 8 -4 15 -10 15 -5 0 -10 9 -10 20 0 21 -34 29
-45 10z"/>
<path d="M7772 5368 c-25 -25 -13 -38 32 -38 25 0 48 -4 51 -10 3 -5 28 -10
56 -10 46 0 49 2 49 25 0 24 -3 25 -59 25 -33 0 -63 5 -66 10 -9 14 -48 13
-63 -2z"/>
<path d="M8296 5373 c-3 -4 -6 -15 -6 -25 0 -17 9 -18 123 -16 114 3 122 4
122 23 0 19 -7 20 -116 22 -65 1 -120 -1 -123 -4z"/>
<path d="M5030 5327 c0 -22 -30 -76 -47 -86 -18 -9 -9 -31 12 -31 8 0 25 15
39 33 29 38 36 97 11 97 -8 0 -15 -6 -15 -13z"/>
<path d="M7048 5306 c-20 -15 -24 -36 -7 -36 6 0 17 7 26 16 20 20 4 37 -19
20z"/>
<path d="M5755 5232 c-12 -15 -41 -67 -65 -117 -24 -49 -50 -98 -58 -107 -22
-27 -82 -150 -82 -169 0 -43 22 -23 60 56 23 46 45 87 50 90 6 4 117 218 138
267 9 20 -25 4 -43 -20z"/>
<path d="M7972 5209 c-26 -32 -26 -56 0 -72 27 -17 48 9 48 59 0 52 -15 56
-48 13z"/>
<path d="M8307 5202 c-23 -26 -22 -52 3 -52 11 0 20 -4 20 -10 0 -17 22 -11
57 16 33 25 34 27 17 45 -22 24 -76 25 -97 1z"/>
<path d="M5216 5131 c-4 -5 -2 -12 3 -15 5 -4 12 -2 15 3 4 5 2 12 -3 15 -5 4
-12 2 -15 -3z"/>
<path d="M5766 5089 c-9 -18 -16 -37 -16 -42 0 -6 -12 -26 -27 -46 -33 -42
-53 -79 -53 -95 0 -18 -49 -113 -65 -126 -8 -7 -15 -18 -15 -24 0 -6 -9 -22
-20 -36 -21 -27 -26 -55 -10 -65 6 -3 14 4 19 17 5 13 25 43 45 68 20 25 36
51 36 58 0 8 8 26 18 40 17 26 22 35 56 113 9 20 22 42 31 49 8 7 15 21 15 31
0 10 5 21 10 24 13 8 13 52 1 60 -5 3 -17 -9 -25 -26z"/>
<path d="M5855 5101 c-24 -39 -65 -126 -65 -137 0 -8 7 -14 15 -14 8 0 15 8
15 19 0 10 7 24 15 31 14 12 35 52 49 93 6 18 -18 25 -29 8z"/>
<path d="M5370 5039 c-15 -27 -10 -31 13 -9 11 11 14 20 8 24 -5 4 -15 -3 -21
-15z"/>
<path d="M8550 5033 c0 -9 -49 -33 -67 -33 -7 0 -13 -9 -13 -20 0 -11 -4 -20
-8 -20 -4 0 -14 -28 -21 -61 -12 -58 -11 -64 13 -113 14 -29 37 -62 50 -75
l25 -23 29 21 c17 11 35 21 40 21 18 0 51 50 58 86 3 19 10 37 15 40 5 3 9 34
9 70 0 52 -3 66 -17 71 -10 3 -30 15 -45 25 -26 18 -68 25 -68 11z m79 -72
c23 -32 27 -56 11 -66 -5 -3 -10 -17 -10 -31 0 -13 -4 -24 -10 -24 -5 0 -10
-9 -10 -19 0 -21 -54 -81 -73 -81 -17 0 -37 48 -37 90 0 20 -5 41 -12 48 -13
13 1 48 36 89 29 34 79 31 105 -6z"/>
<path d="M7815 5010 c-3 -5 -15 -10 -25 -10 -20 0 -87 -33 -106 -53 -7 -7 -15
-34 -19 -60 -6 -44 -5 -48 12 -45 11 2 19 14 21 32 4 32 23 56 45 56 8 0 33
10 55 21 60 33 72 23 72 -60 0 -68 -1 -69 -40 -105 -43 -39 -50 -56 -22 -56
18 0 77 58 100 97 14 27 16 133 2 133 -5 0 -10 6 -10 13 0 33 -69 63 -85 37z"/>
<path d="M7626 4941 c-9 -9 -16 -27 -16 -39 0 -12 -4 -22 -10 -22 -5 0 -10
-21 -10 -47 0 -37 6 -53 27 -75 15 -15 33 -28 40 -28 7 0 13 -4 13 -10 0 -5
25 -10 55 -10 42 0 55 3 55 15 0 11 -12 15 -48 15 -70 0 -92 26 -92 108 0 35
4 62 10 62 12 0 13 37 1 44 -4 3 -16 -3 -25 -13z"/>
<path d="M8150 4911 c0 -7 -23 -11 -59 -11 -69 0 -78 -8 -80 -72 -1 -43 1 -48
30 -62 43 -22 145 -20 184 3 24 14 31 25 33 59 3 44 5 42 -100 90 -5 2 -8 -1
-8 -7z m31 -54 c51 -26 52 -28 23 -43 -36 -19 -94 -20 -132 -3 -46 20 -49 39
-7 39 18 0 37 5 40 10 9 14 48 13 76 -3z"/>
<path d="M6517 4804 c-4 -4 -7 -33 -7 -65 0 -32 -4 -61 -10 -64 -5 -3 -10 -31
-10 -61 0 -42 -3 -54 -15 -54 -9 0 -20 -11 -25 -25 -5 -14 -22 -30 -36 -36
-21 -7 -25 -12 -15 -22 9 -9 16 -9 31 1 33 20 40 14 40 -32 0 -66 -18 -73 -68
-25 -23 22 -42 46 -42 53 0 7 -9 21 -20 31 -24 21 -26 45 -5 45 9 0 20 11 25
24 5 13 13 27 19 30 6 4 18 24 28 44 9 20 25 44 35 53 22 20 23 39 4 39 -15 0
-56 -50 -56 -67 0 -5 -13 -22 -30 -38 -16 -16 -30 -36 -30 -44 -1 -14 -3 -13
-14 1 -18 25 -26 12 -26 -42 0 -30 6 -52 15 -60 9 -7 22 -27 30 -44 36 -74
131 -154 155 -130 5 5 10 50 11 99 1 50 5 95 9 100 8 11 16 71 26 198 6 72 -2
108 -19 91z"/>
<path d="M5529 4782 c-14 -17 -32 -47 -47 -79 -5 -10 -14 -28 -20 -40 -7 -13
-12 -33 -12 -46 0 -13 -5 -28 -11 -34 -7 -7 -9 -19 -5 -28 8 -22 46 -2 46 25
0 11 4 28 9 38 5 9 15 31 22 47 7 17 21 42 31 57 30 44 18 99 -13 60z"/>
<path d="M5516 4588 c-29 -59 -34 -98 -11 -98 8 0 15 7 15 15 0 8 9 30 20 50
11 20 20 44 20 55 0 38 -19 29 -44 -22z"/>
<path d="M7148 4394 c-10 -9 3 -44 16 -44 18 0 66 -24 66 -32 0 -5 6 -8 13 -8
7 0 23 -13 35 -30 13 -16 29 -30 36 -30 7 0 21 -9 31 -20 21 -23 65 -109 65
-127 0 -7 5 -13 10 -13 6 0 10 -8 10 -18 0 -10 4 -22 9 -27 21 -22 51 -87 51
-110 0 -13 5 -27 10 -30 6 -3 10 -24 10 -46 0 -21 -4 -39 -10 -39 -5 0 -10
-11 -10 -25 0 -14 -4 -34 -10 -45 -5 -11 -14 -29 -20 -40 -5 -11 -10 -31 -10
-45 0 -16 -14 -38 -40 -62 -22 -21 -40 -43 -40 -48 0 -6 -22 -33 -50 -60 -28
-28 -50 -58 -50 -70 0 -12 -5 -26 -11 -32 -8 -8 -3 -15 19 -27 39 -20 241 -23
260 -4 9 9 15 9 24 0 15 -15 174 -16 183 -2 9 14 25 12 25 -3 0 -19 -44 -55
-72 -59 -17 -2 -24 -10 -26 -30 -2 -21 -9 -28 -24 -28 -27 0 -58 -28 -51 -46
4 -11 -7 -14 -51 -14 -37 0 -67 -7 -91 -20 -27 -15 -54 -20 -110 -20 -40 0
-77 -4 -80 -10 -3 -5 -21 -10 -40 -10 -19 0 -37 -4 -40 -10 -3 -5 -24 -10 -45
-10 -21 0 -42 -4 -45 -10 -3 -5 -26 -10 -51 -10 -24 0 -44 5 -44 10 0 6 -5 10
-11 10 -17 0 -39 -27 -39 -49 0 -20 6 -21 89 -21 50 0 93 5 96 10 3 6 17 10
30 10 13 0 27 5 30 10 3 6 19 10 35 10 16 0 32 5 35 10 3 6 46 10 95 10 49 0
92 5 95 10 3 6 15 10 26 10 10 0 19 5 19 10 0 6 35 10 85 10 50 0 85 -4 85
-10 0 -15 19 -12 36 4 19 20 18 34 -6 41 -37 12 -21 25 30 25 45 0 50 2 50 23
0 12 -9 28 -21 35 -20 13 -20 14 -3 33 9 10 22 29 28 42 6 12 22 23 34 25 16
2 22 10 22 28 l0 24 -132 1 c-73 1 -190 0 -260 -1 -125 -2 -128 -1 -128 19 0
27 91 119 144 146 21 11 44 29 50 40 17 30 28 39 67 58 20 9 42 23 49 32 19
23 40 18 40 -9 0 -14 5 -28 10 -31 6 -3 10 -19 10 -34 0 -15 4 -31 9 -36 5 -6
11 -23 13 -40 3 -26 7 -30 33 -30 27 0 30 3 33 38 3 35 5 37 37 37 19 0 37 -4
40 -10 3 -5 17 -10 31 -10 13 0 24 -4 24 -10 0 -5 16 -10 35 -10 28 0 35 4 35
19 0 11 -4 23 -10 26 -5 3 -10 11 -10 16 0 14 41 1 66 -22 40 -37 71 -21 47
25 -30 58 -33 66 -33 81 0 17 16 20 25 5 3 -5 15 -10 26 -10 10 0 19 -4 19
-10 0 -5 12 -10 28 -10 16 0 47 -16 77 -38 28 -21 67 -46 88 -56 21 -10 66
-47 99 -82 85 -90 118 -85 118 18 0 44 4 58 14 58 8 0 18 -4 21 -10 3 -5 21
-10 40 -10 19 0 37 5 40 10 3 6 17 10 31 10 32 0 29 30 -4 45 -12 5 -22 14
-22 19 0 5 -10 20 -21 32 -12 13 -19 29 -16 37 6 16 62 47 84 47 7 0 13 7 13
15 0 12 -16 15 -85 15 -72 0 -89 3 -107 20 -22 20 -22 20 -42 1 -30 -30 -7
-51 58 -51 l51 0 -32 -29 c-33 -28 -43 -51 -23 -51 6 0 10 -5 10 -12 0 -6 10
-22 22 -35 16 -18 18 -23 6 -23 -8 0 -23 9 -33 20 -22 24 -63 26 -72 4 -3 -8
4 -25 16 -38 23 -24 27 -56 10 -73 -14 -14 -59 6 -59 28 0 24 -73 79 -105 79
-8 0 -15 5 -15 10 0 6 -9 10 -20 10 -11 0 -20 7 -20 15 0 8 -17 21 -37 30 -21
9 -46 21 -55 26 -10 5 -27 9 -38 9 -11 0 -20 5 -20 10 0 6 -9 10 -19 10 -11 0
-23 5 -26 10 -3 6 -22 10 -41 10 -23 0 -51 11 -79 30 -46 31 -85 39 -85 17 0
-22 45 -57 73 -57 34 0 77 -37 77 -67 0 -25 -17 -30 -50 -13 -11 6 -29 15 -40
20 -33 16 -50 12 -50 -13 0 -13 5 -28 12 -35 17 -17 0 -28 -22 -14 -30 18 -71
14 -97 -10 l-23 -21 0 21 c0 12 -4 22 -10 22 -5 0 -10 11 -10 24 0 14 -4 28
-10 31 -15 9 -12 55 3 55 16 0 67 52 67 68 0 7 15 12 35 12 62 0 56 24 -31
111 -52 52 -86 79 -101 79 -13 0 -23 5 -23 11 0 16 -83 109 -97 109 -18 0 -16
-30 4 -52 9 -10 21 -28 27 -40 6 -13 22 -28 35 -34 12 -6 38 -26 56 -44 18
-18 44 -38 57 -44 15 -7 24 -22 26 -42 4 -41 -67 -124 -107 -124 -15 0 -42
-13 -61 -30 -19 -16 -40 -29 -47 -30 -6 0 -21 -12 -32 -26 l-21 -27 0 31 c0
17 5 34 10 37 6 3 10 28 10 55 0 27 5 52 11 56 6 4 9 22 6 43 -3 20 -9 59 -13
86 -4 28 -15 62 -25 77 -11 14 -19 31 -19 37 0 11 -6 26 -30 71 -8 14 -20 37
-28 53 -7 15 -30 40 -49 55 -20 15 -56 45 -80 66 -24 21 -64 50 -90 62 -53 27
-48 26 -55 18z"/>
<path d="M7956 4352 c-8 -13 18 -75 38 -92 9 -7 16 -25 16 -41 0 -16 5 -29 10
-29 6 0 10 -5 10 -11 0 -6 8 -23 19 -37 33 -48 61 -102 61 -121 0 -18 15 -35
50 -56 48 -28 90 -61 90 -70 0 -14 72 -85 86 -85 5 0 16 -9 24 -20 14 -20 40
-26 53 -14 11 11 -80 104 -250 256 -13 11 -23 27 -23 35 0 8 -13 33 -28 56
-46 70 -59 100 -44 104 25 9 12 33 -18 33 -25 0 -30 4 -30 23 0 26 -54 84 -64
69z"/>
<path d="M4550 4285 c0 -14 -4 -25 -10 -25 -5 0 -10 -9 -10 -19 0 -11 -4 -23
-10 -26 -5 -3 -10 -26 -10 -50 0 -24 -4 -47 -10 -50 -5 -3 -10 -17 -10 -30 0
-13 -4 -27 -10 -30 -5 -3 -10 -16 -10 -29 0 -12 -4 -26 -9 -31 -5 -6 -12 -50
-15 -100 -3 -49 -8 -109 -12 -131 -6 -39 -7 -41 -30 -30 -13 6 -24 14 -24 19
0 4 -13 7 -30 7 -20 0 -30 5 -30 15 0 9 -8 19 -17 22 -10 4 -20 10 -23 14 -15
21 -86 49 -125 49 -40 0 -45 -3 -45 -22 0 -21 62 -88 82 -88 5 0 15 -6 21 -12
18 -19 57 -98 57 -114 0 -21 31 -65 41 -58 12 7 11 94 -1 94 -5 0 -10 9 -10
19 0 10 -7 21 -15 25 -8 3 -20 17 -25 31 -5 14 -14 25 -20 25 -15 0 -40 25
-40 39 0 16 8 14 31 -7 10 -11 32 -25 47 -33 15 -8 41 -26 57 -41 20 -19 41
-28 63 -28 17 0 32 -4 32 -10 0 -5 16 -10 35 -10 24 0 35 5 35 15 0 8 -5 15
-11 15 -7 0 -10 39 -8 115 1 63 6 115 11 115 4 0 8 18 8 39 0 22 5 43 10 46 6
3 10 22 10 41 0 19 5 34 10 34 6 0 10 15 10 33 0 18 4 37 9 43 5 5 11 23 14
39 2 17 5 0 6 -37 0 -37 -3 -70 -9 -73 -6 -3 -10 -52 -10 -110 0 -58 4 -107
10 -110 6 -3 10 -25 10 -48 0 -30 7 -50 24 -69 23 -28 46 -37 46 -18 0 6 9 10
20 10 13 0 20 7 20 19 0 19 103 121 122 121 16 0 78 73 78 93 0 11 -8 17 -21
17 -24 0 -49 -22 -49 -44 0 -8 -18 -27 -41 -43 -22 -15 -59 -47 -81 -70 -23
-24 -46 -43 -52 -43 -29 0 -36 56 -36 276 0 193 -2 223 -16 228 -27 10 -34 7
-34 -19z"/>
<path d="M4796 3868 c-2 -7 -7 -38 -9 -68 -5 -55 4 -90 23 -90 13 0 13 157 0
165 -6 3 -12 0 -14 -7z"/>
<path d="M4330 3535 c0 -16 6 -25 15 -25 9 0 15 9 15 25 0 16 -6 25 -15 25 -9
0 -15 -9 -15 -25z"/>
<path d="M7650 2195 c0 -25 4 -45 9 -45 4 0 11 -37 15 -82 4 -46 11 -112 17
-148 11 -70 26 -190 35 -280 3 -30 10 -59 15 -64 5 -6 9 -35 9 -65 l-1 -56
-40 43 c-22 23 -46 42 -54 42 -8 0 -20 9 -27 20 -7 11 -19 20 -26 20 -17 0
-53 21 -73 43 -28 30 -42 21 -35 -20 4 -21 11 -76 16 -123 12 -121 21 -173 33
-188 5 -7 10 -30 10 -52 0 -22 4 -43 8 -46 5 -3 9 -12 9 -21 0 -18 50 -64 62
-57 4 3 8 31 8 62 0 46 -4 60 -20 70 -11 7 -20 21 -20 32 0 11 -4 20 -10 20
-5 0 -10 15 -10 34 0 19 -4 37 -9 40 -9 6 -18 49 -27 129 -5 39 -3 47 10 47 9
0 16 -4 16 -10 0 -5 8 -10 18 -10 9 0 53 -36 97 -80 44 -44 85 -80 93 -80 17
0 27 27 14 43 -5 6 -11 61 -11 122 -1 60 -6 114 -11 119 -6 6 -10 41 -10 78 0
37 -4 68 -9 68 -11 0 -20 69 -27 200 -3 52 -10 99 -15 105 -5 5 -9 13 -9 18 0
5 6 2 13 -5 22 -25 37 -57 37 -83 0 -14 5 -25 10 -25 6 0 10 -18 10 -40 0 -22
5 -50 12 -63 24 -48 28 -57 28 -76 0 -11 5 -23 10 -26 6 -3 10 -17 10 -31 0
-13 5 -24 10 -24 6 0 10 -11 10 -24 0 -14 5 -28 10 -31 6 -3 10 -15 10 -26 0
-10 4 -27 9 -37 5 -9 19 -39 32 -67 13 -27 28 -53 34 -57 18 -13 35 -9 35 10
0 9 9 28 20 42 11 14 20 39 20 56 0 32 53 94 80 94 11 0 11 -3 2 -12 -7 -7
-12 -20 -12 -30 0 -9 -9 -33 -20 -53 -11 -20 -20 -44 -20 -54 0 -11 -4 -21 -9
-23 -9 -3 -14 -39 -12 -95 1 -28 5 -33 24 -33 28 0 80 24 97 45 7 8 21 15 31
15 11 0 19 5 19 10 0 6 7 10 15 10 9 0 15 -9 15 -25 0 -14 -4 -25 -10 -25 -5
0 -10 -11 -10 -24 0 -14 -4 -28 -10 -31 -5 -3 -10 -17 -10 -31 0 -19 5 -24 25
-24 21 0 25 5 25 29 0 17 5 33 10 36 6 3 10 31 10 61 0 30 5 54 10 54 11 0 14
33 4 43 -3 3 -14 2 -23 -3 -9 -4 -47 -23 -86 -41 -38 -19 -73 -38 -76 -43 -10
-13 -29 2 -29 22 0 9 9 28 20 42 11 14 20 33 20 43 0 9 5 17 10 17 6 0 10 9
10 19 0 11 5 23 10 26 6 3 10 18 10 33 0 15 9 38 20 52 24 30 27 80 5 80 -8 0
-15 -4 -15 -10 0 -5 -9 -10 -20 -10 -11 0 -20 -4 -20 -10 0 -5 -9 -10 -19 -10
-10 0 -21 -7 -25 -15 -3 -8 -17 -20 -31 -25 -14 -5 -25 -14 -25 -20 0 -12 -51
-80 -60 -80 -3 0 -11 15 -18 33 -16 38 -28 66 -43 105 -6 15 -15 35 -20 44 -5
10 -9 27 -9 38 0 11 -4 20 -10 20 -5 0 -10 9 -10 20 0 20 -4 29 -28 77 -7 13
-12 34 -12 47 0 14 -4 28 -10 31 -5 3 -10 24 -10 46 0 21 -3 39 -8 39 -4 0
-15 17 -24 38 -24 52 -52 82 -77 82 -18 0 -21 -6 -21 -45z"/>
<path d="M11536 473 c-3 -4 -6 -15 -6 -25 0 -12 7 -18 24 -18 14 0 27 4 30 9
7 10 -39 43 -48 34z"/>
<path d="M3200 435 c7 -8 19 -15 26 -15 8 0 11 6 8 15 -4 8 -15 15 -26 15 -17
0 -18 -3 -8 -15z"/>
<path d="M10483 6565 c-16 -17 -18 -171 -3 -180 6 -3 10 -17 10 -30 0 -13 5
-27 10 -30 6 -3 10 -17 10 -31 0 -15 6 -24 15 -24 11 0 15 12 15 49 0 28 -4
53 -10 56 -5 3 -10 13 -10 21 0 11 17 14 79 14 44 0 83 -4 86 -10 12 -20 35
-10 35 15 0 18 -5 25 -19 25 -11 0 -23 5 -26 10 -3 6 -39 10 -79 10 -51 0 -77
4 -85 14 -8 10 -9 16 -1 21 5 3 10 24 10 46 0 41 -14 50 -37 24z"/>
<path d="M11100 6561 c0 -11 14 -28 33 -39 26 -16 45 -18 110 -14 73 4 78 6
75 26 -2 17 -11 22 -48 24 -25 2 -49 7 -54 13 -6 5 -34 9 -63 9 -46 0 -53 -3
-53 -19z"/>
<path d="M11607 6554 c-6 -6 -1 -26 14 -59 6 -12 9 -47 7 -80 -3 -53 -6 -60
-33 -76 -45 -26 -55 -23 -55 15 0 19 -4 38 -10 41 -5 3 -10 24 -10 46 0 35 -3
39 -25 39 -21 0 -25 -5 -25 -29 0 -17 5 -33 10 -36 6 -4 10 -53 10 -116 0 -90
3 -109 15 -109 8 0 15 5 15 10 0 6 14 10 30 10 32 0 37 9 19 27 -17 17 -5 39
30 56 30 15 31 15 31 -7 0 -13 -9 -31 -20 -41 -35 -32 -25 -43 33 -37 28 2 57
8 62 12 6 4 27 17 48 29 l37 21 9 -23 c5 -12 12 -30 15 -40 5 -15 9 -16 26 -7
22 12 26 25 10 35 -14 9 -12 91 2 115 10 16 10 24 0 40 -6 11 -12 31 -12 45 0
20 -15 55 -47 108 -3 4 -11 3 -18 -3 -13 -11 -10 -45 7 -66 4 -6 9 -41 10 -77
2 -63 -10 -97 -35 -97 -6 0 -20 -8 -31 -19 -25 -23 -66 -36 -66 -22 0 5 5 13
10 16 6 3 10 16 10 28 0 24 38 47 77 47 26 0 30 15 9 36 -18 17 -53 19 -58 2
-9 -25 -28 5 -28 43 0 21 -4 47 -9 57 -5 9 -14 29 -22 45 -12 26 -28 34 -42
21z"/>
<path d="M10015 6450 c-3 -5 -18 -10 -32 -10 -26 0 -63 -33 -63 -57 0 -7 11
-13 25 -13 24 0 33 3 81 28 28 14 44 -2 44 -45 0 -18 4 -41 9 -51 33 -64 36
-75 24 -79 -16 -6 -17 -33 -2 -33 19 0 60 53 49 64 -6 6 -10 20 -10 32 0 13
-4 26 -10 29 -5 3 -10 25 -10 48 0 31 -7 48 -27 69 -27 28 -66 37 -78 18z"/>
<path d="M11185 6451 c-6 -5 -28 -11 -50 -13 -32 -2 -40 -7 -40 -23 0 -14 8
-21 30 -25 20 -4 26 -8 18 -13 -15 -10 -17 -47 -3 -47 6 0 10 -6 10 -14 0 -18
57 -48 66 -35 3 5 23 9 45 9 25 0 39 5 39 13 0 17 -36 38 -55 31 -22 -9 -65 4
-65 19 0 20 43 57 66 57 30 0 36 11 17 32 -17 19 -63 24 -78 9z"/>
<path d="M10230 6321 c0 -11 -4 -23 -10 -26 -18 -11 -11 -74 12 -100 28 -33
71 -33 115 1 38 29 41 45 12 85 -38 54 -129 82 -129 40z m100 -87 c0 -10 -13
-14 -45 -14 -55 0 -65 27 -12 32 41 4 57 -1 57 -18z"/>
<path d="M10845 6322 c-28 -6 -43 -20 -61 -59 -15 -31 -15 -35 1 -53 13 -14
31 -20 60 -20 56 0 77 23 73 81 -3 36 -7 44 -28 49 -14 3 -34 4 -45 2z"/>
<path d="M9910 6226 c0 -8 6 -16 14 -19 15 -6 46 -62 46 -84 0 -7 5 -13 10
-13 6 0 10 -13 10 -30 0 -20 5 -30 15 -30 17 0 21 55 5 65 -5 3 -10 21 -10 39
0 32 -25 66 -48 66 -7 0 -12 5 -12 10 0 6 -7 10 -15 10 -8 0 -15 -6 -15 -14z"/>
<path d="M11015 6210 c-3 -5 0 -12 7 -15 25 -10 308 0 311 10 3 14 -309 19
-318 5z"/>
<path d="M10590 6172 c0 -16 -3 -32 -7 -36 -5 -4 -8 -18 -9 -29 -3 -101 -5
-107 -19 -107 -8 0 -15 4 -15 9 0 6 -19 11 -42 13 l-43 3 3 48 c3 34 0 47 -10
47 -25 0 -39 -55 -37 -154 1 -87 3 -96 20 -96 11 0 23 10 28 22 5 14 10 17 15
10 14 -23 71 -14 97 16 44 50 49 68 49 177 0 87 -3 105 -15 105 -10 0 -15 -10
-15 -28z m-40 -221 c-15 -29 -27 -33 -50 -19 -33 21 -24 38 20 38 37 0 40 -2
30 -19z"/>
<path d="M11615 6170 c-3 -5 -23 -10 -44 -10 -38 0 -61 -14 -61 -37 0 -15 56
-18 65 -3 10 16 135 13 135 -3 0 -30 -80 -83 -97 -66 -8 8 -13 7 -17 0 -4 -6
-23 -11 -43 -11 -50 0 -68 -25 -42 -61 10 -15 19 -37 19 -48 0 -14 6 -21 19
-21 11 0 23 -4 26 -10 3 -5 24 -10 45 -10 21 0 42 -4 45 -10 3 -5 21 -10 40
-10 25 0 35 5 40 21 4 11 5 21 3 22 -1 1 -13 8 -25 15 -13 6 -36 12 -53 12
-17 0 -40 5 -53 12 -12 6 -29 14 -37 18 -8 4 -16 15 -18 24 -3 13 5 16 44 16
35 0 56 6 81 26 18 14 33 32 33 39 0 8 9 20 20 27 11 7 20 17 20 22 0 16 -34
35 -62 36 -15 0 -30 5 -33 10 -3 6 -15 10 -25 10 -10 0 -22 -4 -25 -10z"/>
<path d="M11205 6130 c-3 -5 -18 -10 -33 -10 -16 0 -32 -8 -39 -19 -12 -19
-10 -20 30 -15 23 2 52 7 65 9 17 4 22 1 22 -14 0 -11 -4 -22 -9 -25 -14 -9
-24 -81 -16 -116 5 -25 11 -30 28 -28 25 3 35 41 17 63 -11 13 -10 17 18 72 7
13 12 31 12 42 0 34 -78 68 -95 41z"/>
<path d="M9956 6019 c-22 -21 -96 -26 -141 -9 -18 7 -31 6 -45 -3 -38 -23 -23
-37 38 -37 32 0 62 -4 68 -9 5 -5 54 -10 109 -11 144 -3 155 -2 155 15 0 12
-16 15 -82 15 -64 0 -79 3 -70 12 16 16 15 48 0 47 -7 0 -22 -9 -32 -20z"/>
<path d="M10150 5985 c0 -8 7 -15 15 -15 8 0 15 7 15 15 0 8 -7 15 -15 15 -8
0 -15 -7 -15 -15z"/>
<path d="M10322 5648 c-15 -15 -16 -154 -2 -163 6 -3 10 -44 10 -90 0 -66 4
-92 20 -120 13 -22 20 -54 20 -85 l0 -50 -34 0 c-19 0 -38 5 -41 10 -3 6 -17
10 -30 10 -18 0 -24 6 -27 28 -2 15 -7 27 -13 27 -6 0 -11 -41 -13 -98 -2 -75
1 -101 12 -112 19 -19 36 -19 36 0 0 8 -4 15 -10 15 -5 0 -10 12 -10 27 l0 26
23 -21 c13 -12 33 -22 45 -22 12 0 22 -4 22 -10 0 -17 36 -11 53 8 10 10 17
28 17 40 0 11 5 24 10 27 6 3 10 17 10 30 0 13 -4 27 -10 30 -5 3 -10 44 -10
90 0 46 -4 87 -10 90 -5 3 -10 26 -10 50 0 24 -4 47 -10 50 -5 3 -10 17 -10
31 0 24 1 24 90 24 73 0 90 3 90 15 0 8 -9 15 -19 15 -11 0 -23 5 -26 10 -8
14 -88 13 -102 -1 -21 -21 -33 2 -33 67 0 65 -10 80 -38 52z m48 -553 c0 -22
-30 -40 -48 -28 -32 19 -25 39 13 40 22 1 35 -4 35 -12z"/>
<path d="M10879 5658 c-8 -29 -8 -108 0 -113 6 -3 11 -19 11 -36 0 -26 -3 -29
-33 -29 -33 0 -74 -30 -60 -43 10 -11 43 -8 43 3 0 6 11 10 25 10 21 0 25 -5
25 -29 0 -17 5 -33 10 -36 14 -9 13 -118 -2 -133 -9 -9 -7 -13 6 -18 33 -12
37 9 32 152 -6 196 -17 268 -38 272 -10 2 -18 2 -19 0z"/>
<path d="M11281 5549 c-11 -25 -11 -36 -2 -50 6 -11 11 -62 11 -122 0 -64 4
-107 12 -115 6 -6 10 -41 10 -87 -1 -57 1 -75 12 -75 29 0 38 28 32 97 -3 38
-8 115 -12 173 -3 58 -9 114 -14 125 -5 11 -11 33 -12 49 -4 40 -20 42 -37 5z"/>
<path d="M10735 5550 c-3 -5 -28 -10 -56 -10 -27 0 -49 -4 -49 -10 0 -5 -9
-10 -21 -10 -25 0 -23 -27 3 -44 13 -8 23 -8 38 2 11 6 30 12 43 12 13 0 28 5
35 12 17 17 28 0 14 -22 -7 -11 -12 -26 -12 -33 0 -19 -48 -113 -65 -127 -15
-13 -20 -51 -8 -63 8 -9 43 22 43 38 0 7 9 20 20 30 11 10 20 29 20 42 0 31
21 29 55 -7 16 -16 37 -30 47 -30 33 0 19 35 -27 68 -43 30 -56 54 -36 67 13
7 41 64 41 82 0 16 -75 19 -85 3z"/>
<path d="M9730 5465 c0 -12 7 -15 25 -13 14 2 26 8 26 13 0 6 -12 11 -26 13
-18 2 -25 -1 -25 -13z"/>
<path d="M9840 5465 c0 -10 10 -15 31 -15 49 0 59 -19 59 -107 0 -46 -5 -84
-11 -90 -7 -7 -9 -19 -6 -28 5 -13 10 -13 26 -3 14 8 21 27 25 67 3 31 8 77
12 104 3 28 2 47 -4 47 -5 0 -12 9 -15 20 -4 17 -14 20 -61 20 -43 0 -56 -3
-56 -15z"/>
<path d="M10066 5455 c-9 -13 -16 -35 -16 -47 1 -30 60 -93 103 -108 29 -11
37 -10 60 5 24 15 27 24 27 69 0 44 -4 56 -28 79 -23 22 -37 27 -79 27 -43 0
-53 -4 -67 -25z m118 -48 c36 -47 34 -67 -7 -67 -41 0 -57 15 -57 55 0 56 27
61 64 12z"/>
<path d="M11010 5470 c0 -24 35 -39 90 -40 50 -1 90 -16 90 -34 0 -4 -21 -30
-47 -58 -68 -70 -80 -92 -64 -112 18 -22 41 -20 41 2 0 11 9 27 20 37 11 10
20 23 20 30 0 6 14 24 30 40 35 33 41 83 13 107 -10 9 -38 18 -63 22 -121 18
-130 19 -130 6z"/>
<path d="M9770 5266 c0 -20 5 -36 10 -36 6 0 10 -16 10 -35 0 -33 -2 -35 -34
-35 -19 0 -38 5 -41 10 -3 6 -19 10 -36 10 -24 0 -29 -4 -29 -25 0 -15 6 -25
15 -25 8 0 31 -9 51 -21 30 -17 42 -19 61 -10 31 14 106 14 120 0 14 -14 78
12 86 36 8 19 -10 30 -28 15 -7 -6 -35 -10 -61 -8 -53 3 -59 13 -73 108 -5 37
-10 46 -28 48 -20 3 -23 -1 -23 -32z"/>
<path d="M10236 5251 c-4 -5 -2 -12 3 -15 5 -4 12 -2 15 3 4 5 2 12 -3 15 -5
4 -12 2 -15 -3z"/>
<path d="M10687 5182 c-20 -22 -22 -83 -4 -115 34 -61 85 -95 102 -67 3 6 14
10 24 10 27 0 95 75 87 96 -6 15 -10 14 -39 -12 -18 -17 -44 -36 -60 -44 -25
-12 -29 -11 -52 10 -21 20 -25 33 -25 82 0 61 -7 69 -33 40z"/>
<path d="M11590 4906 c0 -19 5 -38 10 -41 6 -3 10 -22 10 -41 0 -19 5 -34 10
-34 6 0 10 -6 10 -12 0 -7 9 -24 20 -38 13 -17 20 -41 20 -72 l0 -48 -59 0
c-33 0 -63 -4 -66 -10 -3 -5 -23 -10 -44 -10 -27 0 -44 -7 -62 -26 -13 -14
-38 -32 -56 -41 -42 -20 -63 -5 -63 43 0 33 1 34 40 34 22 0 49 6 60 13 17 10
22 9 30 -3 8 -12 12 -12 32 5 31 27 65 45 83 45 8 0 15 4 15 9 0 5 6 9 13 8
39 -1 48 4 45 26 -2 14 -11 23 -25 25 -13 2 -23 -1 -23 -6 0 -5 -12 -12 -27
-15 -16 -3 -40 -9 -55 -13 -27 -6 -28 -5 -28 35 0 23 -4 49 -9 59 -11 21 -27
61 -35 85 -3 10 -10 15 -16 12 -14 -8 -13 -80 2 -108 25 -49 28 -58 28 -82 0
-20 -5 -25 -24 -25 -14 0 -28 -4 -31 -10 -3 -5 -22 -10 -41 -10 -32 0 -34 2
-34 34 0 19 -4 38 -10 41 -5 3 -10 16 -10 29 0 25 -17 46 -37 46 -16 0 -19
-105 -3 -115 6 -3 10 -22 10 -41 0 -19 -4 -34 -10 -34 -5 0 -10 -13 -10 -29 0
-17 5 -33 10 -36 6 -3 10 -19 10 -36 l0 -29 72 0 c62 0 76 3 107 28 20 15 46
33 60 40 28 14 167 16 176 2 3 -5 13 -10 21 -10 11 0 14 18 14 88 0 76 -3 91
-20 107 -11 10 -20 26 -20 37 0 10 -4 18 -10 18 -5 0 -10 10 -10 22 0 31 -42
118 -57 118 -8 0 -13 -13 -13 -34z"/>
<path d="M9743 4803 c-28 -11 -10 -43 57 -104 49 -44 70 -70 70 -87 0 -19 5
-23 23 -20 41 6 34 45 -19 99 -27 27 -53 49 -59 49 -5 0 -17 15 -26 32 -16 33
-26 40 -46 31z"/>
<path d="M10790 4767 c0 -8 10 -19 23 -25 25 -12 197 -25 197 -14 0 13 -54 32
-91 32 -21 0 -41 5 -44 10 -10 16 -85 13 -85 -3z"/>
<path d="M10250 4725 c0 -11 7 -15 23 -13 12 2 22 8 22 13 0 6 -10 11 -22 13
-16 2 -23 -2 -23 -13z"/>
<path d="M10310 4725 c0 -8 7 -15 15 -15 8 0 15 7 15 15 0 8 -7 15 -15 15 -8
0 -15 -7 -15 -15z"/>
<path d="M10397 4734 c-11 -11 3 -24 26 -24 12 0 28 -9 35 -20 11 -18 8 -26
-18 -65 l-31 -45 -74 0 c-41 0 -77 -4 -80 -10 -3 -5 -28 -10 -56 -10 -27 0
-49 -4 -49 -9 0 -17 54 -37 80 -30 14 4 78 7 143 8 109 1 117 0 117 -18 0 -11
5 -23 10 -26 6 -3 10 -42 10 -86 0 -62 -3 -79 -14 -79 -8 0 -18 5 -21 10 -3 6
-33 10 -65 10 -32 0 -62 -4 -65 -10 -16 -25 -24 -4 -27 68 -3 81 -16 98 -32
40 -10 -39 -10 -81 1 -163 6 -46 12 -61 26 -63 12 -3 20 4 24 17 7 26 13 26
58 1 51 -29 102 -26 137 7 25 24 28 33 28 94 0 37 -4 71 -10 74 -5 3 -10 28
-10 54 0 26 -4 51 -9 57 -5 5 -11 20 -13 34 -2 19 -10 26 -33 30 -20 4 -26 8
-17 13 6 5 12 18 12 31 0 12 5 27 11 33 9 9 8 21 -5 47 -14 31 -22 36 -50 36
-18 0 -36 -3 -39 -6z m48 -434 c3 -5 19 -10 36 -10 19 0 29 -5 29 -15 0 -12
-14 -15 -64 -15 -64 0 -79 8 -68 38 5 14 58 16 67 2z"/>
<path d="M10818 4663 c-26 -13 -28 -18 -28 -77 0 -83 14 -96 102 -96 39 0 77
6 96 16 34 17 37 21 22 44 -7 11 -14 12 -32 3 -13 -6 -42 -16 -65 -23 -53 -16
-73 -3 -73 46 0 29 3 34 24 34 14 0 28 5 31 10 3 6 42 10 86 10 78 0 80 1 77
23 -3 20 -8 22 -78 23 -41 1 -81 -4 -88 -9 -9 -7 -19 -8 -30 -1 -12 7 -25 6
-44 -3z"/>
<path d="M10017 4613 c-11 -10 -8 -141 3 -148 6 -4 10 -68 10 -161 0 -130 2
-154 15 -154 8 0 15 9 15 20 0 11 5 29 12 39 9 15 9 28 0 59 -7 22 -12 82 -12
135 0 59 -4 98 -11 103 -7 4 -9 22 -5 49 5 30 3 45 -7 53 -8 7 -17 9 -20 5z"/>
<path d="M9735 4570 c-3 -5 -17 -10 -30 -10 -13 0 -27 -4 -30 -10 -3 -5 -17
-10 -30 -10 -32 0 -38 -14 -16 -34 13 -11 21 -14 26 -7 3 6 19 11 35 11 16 0
32 5 35 10 3 6 19 10 36 10 16 0 29 5 29 10 0 6 5 10 10 10 19 0 9 -26 -30
-78 -24 -32 -40 -63 -40 -80 0 -36 -17 -52 -52 -52 -15 0 -28 -5 -28 -10 0 -7
-7 -7 -21 1 -15 8 -24 8 -32 0 -6 -6 -24 -11 -39 -11 -18 0 -28 -5 -28 -15 0
-12 15 -15 79 -15 44 0 83 -4 86 -10 11 -17 37 -11 42 10 4 16 14 20 49 20
l44 0 -20 -35 c-21 -37 -27 -112 -11 -143 5 -9 15 -30 22 -45 18 -38 47 -54
56 -31 4 10 2 19 -5 22 -7 2 -12 12 -12 22 0 10 -4 22 -10 25 -5 3 -10 37 -10
74 0 58 3 71 23 89 14 13 36 22 55 22 17 0 34 5 37 10 3 6 15 10 26 10 12 0
19 7 19 19 0 23 -16 36 -25 21 -3 -5 -46 -10 -95 -10 -49 0 -92 -4 -95 -10 -3
-5 -12 -10 -19 -10 -19 0 -8 45 15 66 10 9 19 23 19 29 0 7 7 18 15 25 19 16
54 1 102 -43 31 -29 63 -32 63 -5 0 13 -94 88 -111 88 -5 0 -9 18 -9 40 l0 40
-59 0 c-33 0 -63 -4 -66 -10z"/>
<path d="M11397 4473 c-4 -3 -7 -15 -7 -25 0 -16 10 -18 100 -18 60 0 100 -4
100 -10 0 -5 9 -10 20 -10 11 0 20 -7 20 -15 0 -11 -11 -15 -40 -15 -61 0
-120 -38 -120 -76 0 -12 -4 -24 -9 -26 -4 -1 -11 -19 -15 -39 -5 -28 -2 -42
15 -62 19 -25 27 -27 90 -27 39 0 69 4 69 10 0 6 14 10 30 10 20 0 30 5 30 15
0 12 -18 15 -100 15 l-100 0 0 33 c0 45 53 97 97 97 18 0 35 5 38 10 3 6 16
10 28 10 30 1 59 25 55 45 -3 18 -78 65 -103 65 -8 0 -15 5 -15 10 0 11 -172
14 -183 3z"/>
<path d="M10815 4450 c-3 -6 -24 -10 -45 -10 -48 0 -58 -13 -25 -34 16 -11 26
-12 31 -5 4 7 22 9 48 5 56 -8 60 -8 154 0 77 6 83 8 80 28 -3 20 -10 21 -120
23 -68 2 -120 -2 -123 -7z"/>
<path d="M10820 4325 c0 -8 7 -16 15 -16 36 -3 72 -8 103 -15 l32 -6 1 -67 c1
-36 1 -81 0 -98 -2 -23 2 -33 12 -33 11 0 15 17 15 77 1 42 6 81 11 86 10 10
0 35 -28 70 -19 23 -161 26 -161 2z"/>
<path d="M10350 3918 c-73 -42 -96 -78 -67 -107 10 -10 6 -12 -18 -9 -26 3
-30 0 -30 -22 0 -24 3 -25 69 -28 58 -2 77 1 122 23 53 26 54 27 54 69 0 44
-9 56 -57 84 -28 15 -30 15 -73 -10z m100 -75 c0 -16 -6 -23 -20 -23 -11 0
-20 -4 -20 -10 0 -5 -21 -10 -46 -10 -43 0 -45 1 -42 27 4 38 51 62 95 48 25
-7 33 -16 33 -32z"/>
<path d="M10777 3872 c-56 -57 -60 -84 -15 -106 34 -18 99 -21 114 -7 5 5 20
11 34 13 42 5 38 45 -13 121 -29 42 -64 36 -120 -21z m106 -23 c19 -31 1 -49
-48 -49 -25 0 -45 2 -45 5 0 3 10 19 22 36 24 32 54 36 71 8z"/>
<path d="M9757 3793 c-4 -3 0 -15 10 -25 12 -14 31 -18 78 -18 33 0 66 5 72
11 8 8 13 8 17 0 4 -6 22 -11 39 -11 25 0 35 -6 45 -27 15 -32 16 -79 2 -88
-5 -3 -10 -17 -10 -31 0 -13 -4 -24 -10 -24 -5 0 -10 -16 -10 -35 0 -24 5 -35
15 -35 8 0 15 7 15 15 0 8 4 23 9 33 5 9 14 31 21 47 7 17 16 38 21 47 19 38
10 73 -29 111 l-38 37 -120 0 c-66 0 -124 -3 -127 -7z"/>
<path d="M10435 3700 c-15 -17 -31 -20 -106 -20 -48 0 -91 5 -94 10 -3 6 -15
10 -26 10 -14 0 -19 -7 -19 -25 0 -22 4 -25 38 -25 21 0 44 -6 50 -12 10 -10
17 -10 34 1 31 19 42 -5 18 -39 -13 -18 -16 -31 -9 -41 15 -25 10 -39 -15 -39
-14 0 -28 -4 -31 -10 -3 -5 -26 -10 -51 -10 -45 0 -98 -25 -88 -41 7 -12 91
-11 99 1 4 6 53 10 114 10 133 0 166 -13 175 -68 8 -48 0 -135 -14 -162 -9
-16 -8 -25 1 -36 19 -24 49 10 49 57 0 21 5 41 10 44 6 3 10 42 10 86 l0 79
-40 17 c-29 13 -40 24 -40 40 0 12 -4 25 -10 28 -5 3 -10 26 -10 51 0 41 2 44
19 34 34 -18 33 7 -3 44 -18 20 -36 36 -38 36 -3 0 -13 -9 -23 -20z m3 -82 c7
-7 12 -22 12 -34 0 -13 5 -26 10 -29 6 -3 10 -13 10 -21 0 -12 -11 -14 -52
-12 -50 3 -53 5 -56 32 -2 19 4 36 19 52 25 27 39 30 57 12z"/>
<path d="M10985 3705 c-5 -3 -84 -6 -175 -7 -157 -3 -165 -4 -165 -23 0 -19 8
-20 164 -23 135 -2 171 0 198 13 28 14 32 19 22 31 -11 14 -24 16 -44 9z"/>
<path d="M10754 3565 c-9 -22 5 -38 22 -24 10 8 14 8 14 0 0 -7 23 -11 62 -11
86 0 63 -20 -45 -41 -61 -11 -83 -19 -85 -32 -4 -19 30 -37 36 -19 5 17 52 15
52 -2 0 -8 -4 -18 -10 -21 -40 -25 42 -144 101 -145 14 0 30 -5 36 -11 8 -8
13 -8 18 0 8 13 -18 41 -37 41 -18 0 -78 61 -78 79 0 7 9 26 21 42 18 25 27
29 70 29 42 0 49 3 49 19 0 11 -5 23 -10 26 -6 4 -9 14 -6 23 3 10 -3 27 -14
40 -16 20 -27 22 -104 22 -67 0 -88 -3 -92 -15z"/>
<path d="M9757 3513 c-4 -3 -7 -23 -7 -43 0 -20 -5 -41 -11 -47 -7 -7 -4 -21
10 -47 12 -20 21 -46 21 -57 0 -11 10 -24 23 -29 16 -6 3 -9 -50 -9 -58 -1
-73 -4 -73 -16 0 -9 9 -15 24 -15 14 0 28 -4 31 -10 10 -16 296 -12 318 4 35
27 19 36 -63 36 l-80 0 21 36 c11 20 17 44 14 52 -3 9 -8 43 -11 76 -3 33 -8
64 -10 68 -9 14 -44 8 -44 -7 0 -8 5 -15 10 -15 17 0 12 -157 -6 -185 -17 -26
-34 -33 -34 -13 0 6 -8 20 -17 30 -34 38 -56 139 -33 153 18 11 11 45 -8 45
-10 0 -22 -3 -25 -7z"/>
<path d="M11857 3154 c-11 -11 -8 -72 3 -79 6 -3 10 -19 10 -34 0 -15 4 -31
10 -37 6 -6 10 -126 10 -302 1 -246 4 -292 16 -292 8 0 14 9 14 19 0 11 5 23
10 26 6 4 10 75 10 181 l0 174 34 0 c19 0 38 5 41 10 3 6 15 10 26 10 14 0 19
5 17 18 -3 14 -13 16 -59 14 l-55 -3 -13 107 c-8 67 -21 121 -33 143 -25 45
-33 53 -41 45z"/>
<path d="M10670 3051 l0 -51 -50 1 c-51 2 -80 -12 -80 -37 0 -17 41 -19 57 -3
8 8 13 8 17 0 4 -6 19 -11 32 -11 36 0 25 -24 -12 -28 -16 -2 -33 -8 -38 -13
-6 -5 -23 -9 -38 -9 -29 0 -39 -23 -14 -33 19 -7 98 3 113 15 19 15 33 0 33
-37 0 -19 5 -37 10 -40 6 -3 10 -17 10 -31 0 -15 6 -24 16 -24 14 0 15 10 10
73 -11 130 -17 182 -23 197 -4 8 -7 28 -8 45 -1 19 -7 31 -18 33 -14 3 -17 -5
-17 -47z"/>
<path d="M11030 3031 c0 -5 -9 -11 -20 -14 -11 -3 -20 -12 -20 -21 0 -9 -4
-16 -10 -16 -5 0 -10 -16 -10 -35 0 -31 -27 -94 -51 -120 -5 -5 -9 -17 -9 -27
0 -13 -8 -18 -25 -18 -14 0 -25 -4 -25 -10 0 -5 -20 -10 -45 -10 -33 0 -45 -4
-45 -15 0 -8 8 -15 18 -15 10 0 23 -5 29 -11 8 -8 17 -8 31 0 26 14 102 14
102 1 0 -5 -3 -10 -8 -10 -4 0 -13 -15 -20 -32 -7 -18 -18 -41 -23 -50 -15
-30 -11 -146 7 -173 14 -21 24 -25 64 -25 30 0 50 5 53 13 3 9 9 9 25 0 17
-10 23 -9 33 3 7 9 23 20 36 25 28 10 29 25 5 38 -16 9 -19 25 -21 127 -1 67
-6 123 -13 131 -7 8 -35 13 -79 13 l-69 0 20 35 c11 20 20 44 20 55 0 21 24
27 35 10 3 -5 21 -10 38 -10 21 0 38 -7 47 -20 18 -26 40 -26 40 -1 0 30 -60
71 -103 71 -21 0 -37 5 -37 11 0 12 40 72 52 77 14 6 8 32 -7 32 -8 0 -15 -4
-15 -9z m21 -308 c0 -16 1 -48 3 -73 4 -66 1 -70 -60 -70 -51 0 -54 2 -54 24
0 14 5 28 10 31 6 3 10 17 10 31 0 13 5 24 10 24 6 0 10 14 10 30 0 28 3 30
35 30 31 0 35 -3 36 -27z m-40 -193 c22 0 39 -5 39 -11 0 -20 -34 -38 -72 -39
-36 0 -38 2 -38 31 0 24 3 30 16 25 9 -3 33 -6 55 -6z"/>
<path d="M11430 2982 c0 -32 4 -62 10 -68 5 -5 10 -43 12 -84 5 -131 23 -85
26 68 l3 142 -26 0 c-24 0 -25 -3 -25 -58z"/>
<path d="M10487 3019 c-14 -8 -17 -24 -17 -84 0 -43 -4 -75 -10 -75 -5 0 -10
-18 -10 -39 0 -22 -4 -43 -10 -46 -5 -3 -10 -21 -10 -40 0 -19 -5 -37 -10 -40
-13 -8 -3 -25 15 -25 20 0 45 57 45 102 0 41 13 50 30 18 6 -11 16 -20 23 -20
7 0 18 -15 26 -32 16 -37 40 -68 53 -68 4 0 8 16 8 35 0 19 -4 35 -10 35 -5 0
-10 5 -10 11 0 6 -22 36 -50 66 -48 53 -50 57 -50 114 0 33 4 59 10 59 12 0
14 27 2 34 -4 2 -15 0 -25 -5z"/>
<path d="M10050 3002 c0 -23 98 -112 124 -112 21 0 -1 43 -42 83 -50 49 -82
60 -82 29z"/>
<path d="M11748 3003 c-21 -2 -38 -8 -38 -14 0 -5 -9 -9 -20 -9 -11 0 -20 -4
-20 -10 0 -5 -39 -11 -87 -12 -80 -3 -88 -5 -88 -23 0 -18 8 -20 68 -23 71 -3
83 -14 49 -45 -10 -9 -24 -32 -32 -52 -8 -19 -17 -35 -22 -35 -4 0 -8 -7 -8
-15 0 -32 69 -2 70 31 1 5 14 25 30 44 22 24 30 45 30 71 0 36 1 37 39 41 22
2 44 2 49 0 14 -4 2 -43 -20 -66 -11 -13 -18 -35 -18 -62 0 -24 -4 -46 -10
-49 -15 -9 -12 -45 4 -45 22 0 56 54 56 88 0 17 5 34 10 37 6 3 10 14 10 23 0
9 9 28 20 42 27 35 26 76 -2 84 -13 3 -25 5 -28 4 -3 -1 -22 -3 -42 -5z"/>
<path d="M10216 2953 c-9 -9 -8 -138 2 -147 4 -4 7 -20 8 -34 0 -15 1 -89 2
-164 2 -115 4 -138 17 -138 13 0 15 22 15 140 l0 139 75 3 c42 2 75 7 75 13 0
6 -33 11 -74 13 -93 4 -100 11 -97 101 2 63 -6 90 -23 74z"/>
<path d="M9740 2911 c-5 -11 -10 -28 -10 -39 0 -21 -26 -79 -40 -87 -13 -8
-40 -66 -40 -87 0 -13 -8 -18 -31 -18 -26 0 -30 -3 -27 -22 3 -22 9 -23 103
-28 56 -3 95 -9 88 -13 -16 -10 -18 -173 -3 -182 6 -3 10 -30 10 -58 1 -55 17
-87 44 -87 14 0 15 7 10 43 -4 23 -11 44 -15 48 -5 3 -9 53 -10 112 -2 118 5
137 51 137 15 0 33 7 40 15 24 29 -3 37 -119 36 -61 -1 -111 1 -111 4 0 3 5
15 12 28 6 12 14 29 18 37 4 9 24 16 49 18 49 4 60 32 11 32 -20 0 -30 5 -30
15 0 8 5 15 10 15 6 0 10 7 10 15 0 8 5 24 12 34 12 20 5 51 -11 51 -6 0 -15
-9 -21 -19z"/>
<path d="M9470 2731 c0 -103 4 -172 10 -176 6 -3 10 -50 10 -106 0 -72 3 -99
13 -99 26 0 50 91 27 105 -5 3 -10 26 -10 50 0 24 -4 47 -10 50 -6 4 -10 73
-10 176 0 144 -2 169 -15 169 -13 0 -15 -25 -15 -169z"/>
<path d="M9957 2853 c-4 -3 0 -15 10 -25 12 -13 30 -18 69 -18 29 0 56 -4 59
-10 9 -14 65 -13 65 1 0 19 -33 38 -67 39 -17 0 -35 5 -38 10 -7 11 -88 14
-98 3z"/>
<path d="M11210 2773 c0 -81 2 -89 27 -115 34 -35 48 -35 117 2 61 31 86 52
86 69 0 17 -26 13 -65 -9 -20 -11 -42 -20 -49 -20 -8 0 -16 -6 -19 -12 -9 -25
-42 7 -45 43 -2 19 -8 40 -14 46 -6 7 -7 28 -4 48 6 31 4 35 -14 35 -19 0 -20
-6 -20 -87z"/>
<path d="M9810 2765 c0 -9 9 -15 25 -15 14 0 28 0 33 -1 4 0 8 7 10 15 3 12
-5 16 -32 16 -25 0 -36 -4 -36 -15z"/>
<path d="M9205 2726 c-39 -23 -95 -85 -95 -105 0 -11 -4 -23 -10 -26 -15 -9
-12 -67 5 -89 18 -24 117 -26 140 -3 34 35 9 62 -31 32 -22 -17 -54 -20 -54
-5 0 6 -9 10 -20 10 -11 0 -20 5 -20 11 0 16 26 39 44 39 9 0 16 7 16 15 0 8
-6 15 -12 15 -7 0 0 12 15 27 23 23 30 26 46 16 25 -16 31 -8 31 39 0 41 -15
48 -55 24z"/>
<path d="M10025 2685 c-32 -33 -35 -40 -35 -95 0 -57 1 -60 25 -60 16 0 25 6
25 15 0 8 -4 15 -10 15 -18 0 -11 25 11 38 13 9 19 20 16 32 -7 27 18 46 38
30 22 -19 19 -77 -5 -92 -29 -19 -25 -38 9 -38 51 0 79 77 49 133 -39 68 -70
74 -123 22z"/>
<path d="M11477 2694 c-4 -4 -7 -61 -7 -126 0 -98 3 -118 15 -118 12 0 15 15
17 73 3 135 -5 190 -25 171z"/>
<path d="M10486 2608 c-9 -17 -16 -37 -16 -45 0 -7 -7 -16 -15 -19 -30 -12
-84 -157 -63 -170 11 -7 48 24 48 41 0 7 6 18 13 24 11 8 18 6 32 -9 10 -11
23 -20 29 -20 6 0 17 -9 24 -20 18 -30 37 -24 52 15 22 55 36 62 68 34 51 -45
92 -61 92 -36 0 15 -41 57 -56 57 -6 0 -21 11 -34 25 -25 26 -25 23 10 97 7
15 10 34 6 44 -6 16 -8 16 -26 -1 -11 -10 -20 -28 -20 -40 0 -12 -13 -34 -30
-50 -16 -16 -30 -38 -30 -50 0 -38 -19 -46 -56 -22 -19 12 -34 29 -34 38 0 24
26 72 55 99 33 31 32 40 -4 40 -23 0 -33 -7 -45 -32z"/>
<path d="M12115 2560 c-10 -11 -24 -20 -32 -20 -21 0 -17 -93 5 -113 16 -14
20 -13 55 19 24 22 37 43 37 59 0 14 5 25 10 25 6 0 10 11 10 25 0 22 -4 25
-33 25 -21 0 -41 -8 -52 -20z"/>
<path d="M3788 583 c7 -3 16 -2 19 1 4 3 -2 6 -13 5 -11 0 -14 -3 -6 -6z"/>
<path d="M5255 450 c-3 -5 1 -10 10 -10 9 0 13 5 10 10 -3 6 -8 10 -10 10 -2
0 -7 -4 -10 -10z"/>
</g>
</svg>
