<?xml version="1.0" standalone="no"?>
<!DOCTYPE svg PUBLIC "-//W3C//DTD SVG 20010904//EN"
 "http://www.w3.org/TR/2001/REC-SVG-20010904/DTD/svg10.dtd">
<svg version="1.0" xmlns="http://www.w3.org/2000/svg"
 width="192.000000pt" height="192.000000pt" viewBox="0 0 192.000000 192.000000"
 preserveAspectRatio="xMidYMid meet">
<metadata>
Created by potrace 1.13, written by Peter Selinger 2001-2015
</metadata>
<g transform="translate(0.000000,192.000000) scale(0.100000,-0.100000)"
  stroke="none">
<path d="M910 1744 c-14 -10 -46 -37 -72 -62 l-46 -45 -82 14 c-77 12 -82 12
-101 -7 -13 -13 -24 -45 -31 -90 -6 -38 -15 -74 -20 -81 -5 -6 -38 -25 -73
-41 -35 -17 -71 -41 -80 -55 -15 -24 -15 -28 19 -96 20 -39 36 -77 36 -86 0
-9 -13 -42 -30 -75 -50 -98 -42 -118 67 -165 68 -30 67 -29 82 -125 8 -46 17
-70 32 -82 25 -21 31 -21 124 -4 l70 12 65 -56 c36 -31 73 -60 83 -63 25 -9
51 6 115 66 l53 51 91 -13 92 -13 22 25 c12 14 25 47 28 74 14 92 14 92 97
134 103 51 107 65 45 156 -25 38 -46 74 -46 81 0 7 16 44 36 83 33 66 34 72
20 94 -9 13 -48 41 -88 62 l-73 38 -12 74 c-8 48 -19 82 -32 94 -19 19 -24 19
-110 7 l-90 -13 -63 55 c-75 66 -95 74 -128 52z"/>
<path d="M431 763 c-169 -333 -194 -384 -188 -389 3 -3 59 2 124 12 65 9 126
17 137 18 13 1 36 -30 86 -117 37 -65 70 -121 74 -124 6 -6 206 398 206 416 0
5 -20 26 -45 46 l-44 37 -83 -7 c-77 -6 -86 -5 -117 17 -50 34 -71 67 -78 126
-3 29 -10 55 -14 58 -5 3 -31 -39 -58 -93z"/>
<path d="M1411 800 c-26 -121 -84 -161 -207 -143 -59 9 -59 9 -106 -30 -27
-21 -48 -45 -48 -51 0 -7 44 -104 98 -215 112 -233 93 -226 185 -69 32 53 61
99 65 102 5 3 67 -3 138 -13 71 -11 132 -17 137 -14 8 5 -204 430 -232 465
l-18 22 -12 -54z"/>
</g>
</svg>
