<svg version="1.0" xmlns="http://www.w3.org/2000/svg" width="192.000000pt" height="192.000000pt" viewBox="0 0 192.000000 192.000000" preserveAspectRatio="xMidYMid meet">
  <g transform="translate(0.000000,192.000000) scale(0.100000,-0.100000)">
    <path
      d="M158 1755 c-17 -17 78 -233 134 -305 85 -111 232 -225 348 -270 70
-27 78 -35 49 -50 -13 -7 -33 -21 -45 -32 -21 -19 -21 -19 -60 32 -51 66 -128
119 -201 136 -67 16 -209 19 -218 4 -3 -5 17 -55 45 -110 74 -143 142 -194
273 -207 l62 -5 0 -73 c1 -70 3 -76 94 -259 51 -103 106 -231 123 -284 38
-117 49 -135 95 -157 79 -38 180 -27 232 26 16 15 34 49 40 76 23 87 73 206
155 368 78 155 81 162 81 231 l0 72 62 5 c131 13 199 64 273 207 28 55 48 105
45 110 -9 15 -151 12 -218 -4 -73 -17 -150 -69 -201 -136 -21 -27 -40 -50 -43
-50 -8 0 -83 65 -83 73 0 4 6 7 14 7 30 0 195 92 258 144 37 31 90 84 118 119
56 70 146 242 156 300 l6 38 -78 -3 -78 -3 -34 -60 c-42 -75 -112 -169 -120
-160 -3 3 -6 36 -7 73 l0 67 -80 0 -80 0 -5 -85 c-7 -103 -30 -158 -90 -218
-74 -73 -109 -87 -225 -87 -116 0 -151 14 -225 87 -60 60 -83 115 -90 218 l-5
85 -80 0 -80 0 1 -77 c1 -43 -2 -78 -6 -78 -13 0 -87 102 -123 170 l-34 65
-74 3 c-41 1 -78 0 -81 -3z m612 -825 c12 -12 20 -33 20 -55 0 -22 -8 -43 -20
-55 -12 -12 -33 -20 -55 -20 -22 0 -43 8 -55 20 -12 12 -20 33 -20 55 0 22 8
43 20 55 12 12 33 20 55 20 22 0 43 -8 55 -20z m480 0 c12 -12 20 -33 20 -55
0 -22 -8 -43 -20 -55 -12 -12 -33 -20 -55 -20 -22 0 -43 8 -55 20 -12 12 -20
33 -20 55 0 22 8 43 20 55 12 12 33 20 55 20 22 0 43 -8 55 -20z m-230 -475
c39 -20 39 -50 1 -103 -48 -65 -85 -65 -136 2 -31 41 -32 78 -2 99 29 20 100
21 137 2z"/>
  </g>
</svg>
