<svg version="1.0" xmlns="http://www.w3.org/2000/svg" width="192.000000pt" height="192.000000pt" viewBox="0 0 192.000000 192.000000">
  <g transform="translate(0.000000,192.000000) scale(0.100000,-0.100000)">
    <path
      d="M323 1747 c-8 -14 -14 -1105 -6 -1110 4 -2 66 -1 136 2 107 5 131 9
141 24 7 9 19 17 26 17 21 0 109 -74 110 -92 0 -28 -92 -94 -150 -108 -30 -7
-95 -11 -158 -9 l-107 4 -3 -158 c-2 -126 0 -158 11 -163 8 -3 119 -1 247 3
l233 8 68 180 c42 112 66 188 62 200 -7 23 -6 22 -141 116 -122 85 -144 113
-145 177 0 41 11 67 81 189 l81 142 -37 11 c-56 15 -59 14 -187 -49 -66 -32
-123 -57 -128 -54 -10 6 -57 99 -57 113 0 6 61 41 135 77 178 87 203 90 346
34 148 -58 175 -77 245 -173 l60 -83 125 -5 124 -5 0 -80 0 -80 -105 -3 c-162
-5 -228 21 -287 109 -14 21 -29 39 -33 39 -8 0 -120 -195 -120 -209 0 -5 34
-39 75 -76 139 -124 146 -184 52 -425 -31 -79 -55 -145 -54 -147 5 -4 619 -4
623 0 5 5 6 1579 1 1584 -8 7 -1259 8 -1264 0z m837 -207 c43 -22 80 -80 80
-126 0 -77 -92 -153 -167 -139 -49 9 -109 69 -118 118 -14 75 61 166 138 167
15 0 46 -9 67 -20z"/>
  </g>
</svg>
