<?xml version="1.0" standalone="no"?>
<!DOCTYPE svg PUBLIC "-//W3C//DTD SVG 20010904//EN"
 "http://www.w3.org/TR/2001/REC-SVG-20010904/DTD/svg10.dtd">
<svg version="1.0" xmlns="http://www.w3.org/2000/svg"
 width="192.000000pt" height="192.000000pt" viewBox="0 0 192.000000 192.000000"
 preserveAspectRatio="xMidYMid meet">
<metadata>
Created by potrace 1.13, written by Peter Selinger 2001-2015
</metadata>
<g transform="translate(0.000000,192.000000) scale(0.100000,-0.100000)"
 stroke="none">
<path d="M793 1747 c-2 -4 -3 -17 -2 -30 5 -35 -9 -47 -54 -47 -167 0 -362
-126 -435 -281 -36 -75 -62 -170 -65 -232 l-2 -42 80 0 80 0 3 30 c10 97 72
230 131 283 49 45 130 76 200 76 l64 1 3 -49 3 -49 -88 -86 c-66 -65 -96 -103
-122 -156 l-34 -70 -3 -395 c-4 -432 -2 -447 52 -498 51 -48 78 -52 351 -52
273 0 300 4 351 52 54 51 55 66 52 498 l-3 395 -34 70 c-26 52 -56 92 -119
153 -83 82 -84 84 -85 133 0 27 2 52 6 55 3 3 86 -11 184 -31 98 -20 185 -38
193 -39 13 -1 15 23 15 159 0 136 -2 160 -15 159 -8 -1 -93 -18 -189 -38 -95
-20 -177 -36 -182 -36 -4 0 -9 17 -11 37 l-3 38 -158 0 c-88 0 -161 -3 -164
-8z m312 -878 c6 -5 9 -92 7 -238 l-3 -231 -154 0 -154 0 -3 233 c-2 127 -1
236 1 241 4 10 291 5 306 -5z"/>
</g>
</svg>
