<svg version="1.0" xmlns="http://www.w3.org/2000/svg"
 width="192.000000pt" height="192.000000pt" viewBox="0 0 192.000000 192.000000"
 preserveAspectRatio="xMidYMid meet">
<g transform="translate(0.000000,192.000000) scale(0.100000,-0.100000)">
<path d="M561 1737 c-72 -37 -107 -122 -80 -194 22 -58 97 -113 155 -113 76 0
164 88 164 166 0 78 -89 165 -169 164 -14 0 -46 -11 -70 -23z"/>
<path d="M962 1708 c-7 -7 -12 -25 -12 -40 0 -37 -20 -170 -29 -187 -12 -25
-148 -70 -258 -86 -60 -9 -120 -20 -134 -26 -38 -15 -226 -209 -234 -242 -10
-37 -2 -64 46 -172 5 -11 22 -51 37 -90 16 -39 35 -71 44 -73 9 -2 36 6 59 16
24 11 52 22 62 26 27 9 23 27 -38 161 -40 90 -40 92 0 132 l36 36 39 -79 c25
-52 64 -107 113 -162 95 -104 124 -154 153 -261 29 -105 29 -131 5 -224 -10
-39 -24 -99 -31 -132 -7 -33 -17 -75 -22 -93 -17 -55 -8 -62 80 -62 78 0 80 1
90 28 6 15 13 43 16 62 6 37 21 108 38 175 19 79 20 168 3 230 -29 107 -65
247 -65 255 0 4 17 16 38 25 133 64 300 143 377 180 50 23 124 59 166 79 105
49 106 51 68 122 -16 33 -34 63 -39 68 -10 10 -1 14 -318 -140 -251 -123 -280
-131 -340 -94 -37 23 -74 77 -70 104 2 14 26 28 92 52 119 44 142 67 156 158
6 39 15 95 21 125 5 30 9 69 9 86 0 31 -1 32 -64 43 -78 15 -79 15 -94 0z"/>
</g>
</svg>
