<?xml version="1.0" encoding="UTF-8"?>
<svg xmlns="http://www.w3.org/2000/svg" xmlns:xlink="http://www.w3.org/1999/xlink" viewBox="0 0 24 24" version="1.1" width="24px" height="24px">
<g id="surface1">
<path style=" " d="M 13 2 L 2 4 L 2 20 L 13 22 L 14 22 L 14 2 Z M 15 5 L 15 7 C 15.167969 6.996094 15.328125 7 15.5 7 C 17.355469 7 18.714844 7.25 19.46875 7.5 C 18.714844 7.75 17.355469 8 15.5 8 C 15.328125 8 15.167969 8.003906 15 8 L 15 10 C 15.167969 10.003906 15.328125 10 15.5 10 C 16.148438 10 18.339844 9.949219 20 9.40625 L 20 10.25 C 19.558594 10.539063 17.988281 11 15.5 11 C 15.328125 11 15.167969 11.003906 15 11 L 15 13 C 15.167969 13.003906 15.328125 13 15.5 13 C 16.148438 13 18.339844 12.949219 20 12.40625 L 20 13.25 C 19.558594 13.539063 17.988281 14 15.5 14 C 15.328125 14 15.167969 14.003906 15 14 L 15 16 C 15.167969 16.003906 15.328125 16 15.5 16 C 16.148438 16 18.339844 15.949219 20 15.40625 L 20 16.28125 C 19.539063 16.574219 17.960938 17 15.5 17 C 15.328125 17 15.167969 17.003906 15 17 L 15 19 C 15.167969 19.003906 15.332031 19 15.5 19 C 16.585938 19 22 18.878906 22 16.5 L 22 7.5 C 22 5.121094 16.585938 5 15.5 5 C 15.332031 5 15.167969 4.996094 15 5 Z M 8.25 7.90625 C 9.046875 10.566406 9.808594 13.242188 10.59375 15.90625 C 10.042969 15.871094 9.511719 15.832031 8.96875 15.78125 C 8.824219 15.1875 8.65625 14.59375 8.5 14 C 7.769531 13.996094 7.039063 13.972656 6.3125 13.9375 C 6.171875 14.5 6.019531 15.0625 5.875 15.625 C 5.410156 15.589844 4.964844 15.5625 4.5 15.53125 C 5.195313 13.027344 5.90625 10.535156 6.59375 8.03125 C 7.148438 7.992188 7.695313 7.949219 8.25 7.90625 Z M 7.375 9.34375 C 7.214844 10.472656 6.863281 11.542969 6.625 12.65625 C 7.148438 12.660156 7.664063 12.683594 8.1875 12.6875 C 7.917969 11.574219 7.589844 10.46875 7.375 9.34375 Z "/>
</g>
</svg>
