<?xml version="1.0" standalone="no"?>
<!DOCTYPE svg PUBLIC "-//W3C//DTD SVG 20010904//EN"
 "http://www.w3.org/TR/2001/REC-SVG-20010904/DTD/svg10.dtd">
<svg version="1.0" xmlns="http://www.w3.org/2000/svg"
 width="96.000000pt" height="96.000000pt" viewBox="0 0 96.000000 96.000000"
 preserveAspectRatio="xMidYMid meet">
<metadata>
Created by potrace 1.15, written by Peter Selinger 2001-2017
</metadata>
<g transform="translate(0.000000,96.000000) scale(0.100000,-0.100000)" stroke="none">
<path d="M215 863 c-87 -45 -127 -114 -133 -231 -5 -95 8 -152 49 -218 28 -44
29 -47 29 -189 0 -138 1 -145 20 -145 19 0 20 7 20 151 l0 152 47 88 c25 49
49 89 52 89 15 0 202 -48 207 -53 3 -3 -4 -70 -15 -149 -31 -209 -28 -198 -62
-198 -27 0 -29 -2 -29 -40 l0 -40 220 0 220 0 0 40 c0 29 -4 40 -15 40 -8 0
-15 2 -15 3 0 36 53 272 65 291 22 34 12 62 -28 75 -18 5 -143 36 -279 68
l-248 58 0 112 0 113 -37 0 c-21 -1 -51 -8 -68 -17z m434 -685 c1 -15 -8 -18
-47 -18 l-49 0 23 153 c13 83 24 157 25 162 1 11 47 -270 48 -297z m117 272
l42 -10 -13 -68 c-7 -37 -18 -100 -25 -139 -6 -40 -15 -73 -19 -73 -4 0 -15
53 -24 118 -10 64 -20 134 -23 155 -5 29 -4 36 7 33 8 -3 33 -10 55 -16z"/>
</g>
</svg>
