<?xml version="1.0" standalone="no"?>
<!DOCTYPE svg PUBLIC "-//W3C//DTD SVG 20010904//EN"
 "http://www.w3.org/TR/2001/REC-SVG-20010904/DTD/svg10.dtd">
<svg version="1.0" xmlns="http://www.w3.org/2000/svg"
 width="192.000000pt" height="192.000000pt" viewBox="0 0 192.000000 192.000000"
 preserveAspectRatio="xMidYMid meet">
<metadata>
Created by potrace 1.13, written by Peter Selinger 2001-2015
</metadata>
<g transform="translate(0.000000,192.000000) scale(0.100000,-0.100000)"
  stroke="none">
<path d="M240 1676 l0 -75 38 -3 37 -3 0 -280 0 -280 -37 -3 -38 -3 0 -74 0
-74 38 -3 37 -3 0 -280 0 -280 -37 -3 -38 -3 0 -75 0 -74 715 0 715 0 0 74 0
75 -37 3 -38 3 0 280 0 280 38 3 37 3 0 74 0 74 -37 3 -38 3 0 280 0 280 38 3
37 3 0 75 0 74 -715 0 -715 0 0 -74z m765 -403 c185 -278 223 -384 173 -490
-77 -164 -268 -202 -393 -78 -107 108 -98 217 35 435 80 130 122 190 135 190
7 0 29 -26 50 -57z"/>
</g>
</svg>
