<?xml version="1.0" standalone="no"?>
<!DOCTYPE svg PUBLIC "-//W3C//DTD SVG 20010904//EN" "http://www.w3.org/TR/2001/REC-SVG-20010904/DTD/svg10.dtd">
<svg version="1.0" xmlns="http://www.w3.org/2000/svg" width="192.000000pt" height="192.000000pt" viewBox="0 0 192.000000 192.000000" preserveAspectRatio="xMidYMid meet">
  <metadata>
    Created by potrace 1.13, written by Peter Selinger 2001-2015
  </metadata>
  <g transform="translate(0.000000,192.000000) scale(0.100000,-0.100000)" stroke="none">
    <path
      d="M347 1746 c-52 -19 -83 -50 -103 -103 -14 -36 -15 -50 -5 -82 6 -21
11 -40 11 -42 0 -3 -15 -13 -34 -23 -32 -17 -66 -70 -66 -104 0 -28 38 -82 73
-102 l34 -20 -15 -67 c-18 -90 -4 -200 38 -288 36 -75 41 -130 10 -120 -11 3
-39 -2 -63 -13 -83 -37 -96 -137 -27 -196 16 -13 35 -26 41 -28 9 -3 9 -13 -1
-42 -26 -79 29 -171 117 -197 76 -22 160 26 188 108 7 21 20 39 28 41 26 5 54
-33 61 -84 17 -110 81 -190 177 -218 69 -21 219 -21 288 0 96 28 160 108 177
218 7 51 35 89 61 84 8 -2 21 -20 28 -41 18 -52 49 -83 102 -103 36 -14 50
-15 83 -5 55 16 96 54 116 107 15 38 15 51 4 86 -8 29 -9 43 -2 46 26 8 66 48
78 77 24 59 -11 129 -80 155 -16 6 -37 8 -47 5 -29 -10 -24 46 11 119 48 101
58 230 27 346 -1 5 14 19 33 32 19 13 43 40 53 61 16 31 17 42 7 72 -10 32
-53 78 -81 87 -9 3 -9 12 0 40 26 79 -32 174 -119 198 -36 10 -50 9 -86 -5
-40 -15 -86 -57 -96 -87 -4 -10 -19 -6 -59 14 -229 112 -479 112 -708 0 -38
-19 -56 -23 -58 -15 -8 24 -45 64 -71 77 -44 22 -85 26 -125 12z m745 -167
c158 -32 318 -153 380 -285 57 -122 50 -274 -17 -364 -23 -31 -25 -43 -25
-142 0 -127 -8 -141 -86 -153 -132 -19 -210 -97 -229 -228 -12 -78 -28 -87
-162 -87 -132 0 -146 7 -157 86 -20 132 -97 209 -229 228 -78 12 -87 27 -87
154 0 99 -2 111 -25 142 -67 90 -74 242 -17 364 61 130 208 244 366 282 65 16
219 17 288 3z"/>
    <path d="M667 1026 c-87 -32 -127 -110 -106 -208 14 -64 54 -98 115 -98 120 0
219 100 193 194 -25 90 -119 142 -202 112z"/>
    <path d="M1145 1025 c-76 -27 -123 -109 -104 -179 16 -59 101 -120 174 -127
74 -6 118 28 134 102 30 136 -82 248 -204 204z"/>
    <path d="M921 681 c-60 -83 -78 -171 -40 -192 18 -9 27 -7 52 12 21 15 32 18
35 11 2 -7 13 -17 24 -23 26 -14 58 14 58 50 -1 50 -68 171 -95 171 -8 0 -23
-13 -34 -29z"/>
  </g>
</svg>
