<svg version="1.0" xmlns="http://www.w3.org/2000/svg" width="136.000000pt" height="138.000000pt" viewBox="0 0 136.000000 138.000000" preserveAspectRatio="xMidYMid meet">
  <g transform="translate(0.000000,138.000000) scale(0.100000,-0.100000)" stroke="none">
    <path
      d="M510 1164 c-159 -42 -293 -142 -353 -263 -29 -59 -32 -74 -32 -156 0
-77 4 -98 27 -148 31 -66 114 -158 175 -194 24 -14 43 -30 43 -36 0 -7 -11
-52 -24 -102 -37 -139 -39 -139 174 10 44 31 50 32 175 38 137 5 188 18 295
72 79 40 161 123 201 203 31 61 34 75 34 157 0 82 -3 96 -34 157 -62 124 -193
221 -356 263 -75 19 -251 19 -325 -1z m-37 -308 c8 -20 -13 -36 -45 -36 l-28
0 0 -99 c0 -75 -4 -101 -15 -111 -31 -26 -44 5 -47 108 -3 95 -4 97 -28 100
-33 5 -50 20 -43 38 7 20 198 20 206 0z m116 0 c10 -12 61 -143 81 -208 11
-34 -11 -58 -35 -38 -8 7 -15 19 -15 26 0 10 -15 14 -58 14 -53 0 -60 -2 -70
-25 -13 -29 -24 -31 -42 -10 -11 13 -10 25 7 68 12 29 29 75 39 102 28 79 64
107 93 71z m169 -93 l3 -103 29 0 c41 0 60 -10 60 -30 0 -22 -19 -30 -71 -30
-75 0 -79 6 -79 130 0 125 4 142 34 138 20 -3 21 -10 24 -105z m170 72 c6 -60
10 -61 60 -12 50 49 69 57 78 32 4 -9 -10 -33 -35 -60 l-41 -45 45 -62 c42
-56 45 -63 30 -77 -15 -15 -19 -13 -48 19 -18 19 -39 46 -48 59 -21 34 -39 19
-39 -34 0 -44 -22 -67 -44 -45 -12 12 -21 176 -12 225 6 30 11 36 29 33 16 -2
23 -11 25 -33z"/>
    <path d="M552 788 c-6 -8 -15 -28 -18 -45 -5 -27 -3 -31 21 -35 34 -7 39 7 22
56 -11 31 -15 35 -25 24z"/>
  </g>
</svg>
