<?xml version="1.0"?>
<svg
  xmlns="http://www.w3.org/2000/svg"
  xmlns:xlink="http://www.w3.org/1999/xlink"
  xmlns:cml="http://www.xml-cml.org/schema"
  width="391.769"
  height="220.001"
  viewBox="0 0 391.769 220.001"
  x="0"
  y="0"
  font-family="sans-serif"
  stroke-width="1"
  stroke-linecap="round">
  <line x1="140.9" y1="147.0" x2="140.9" y2="120.0" stroke-width="2"/>
  <line x1="146.9" y1="147.0" x2="146.9" y2="120.0" stroke-width="2"/>
  <line x1="143.9" y1="120.0" x2="167.3" y2="106.5" stroke-width="2"/>
  <line x1="189.8" y1="106.5" x2="201.9" y2="113.5" stroke-width="2"/>
  <line x1="224.5" y1="113.5" x2="247.8" y2="100.0" stroke-width="2"/>
  <line x1="244.8" y1="100.0" x2="244.8" y2="73.0" stroke-width="2"/>
  <line x1="250.8" y1="100.0" x2="250.8" y2="73.0" stroke-width="2"/>
  <line x1="247.8" y1="100.0" x2="282.5" y2="120.0" stroke-width="2"/>
  <line x1="143.9" y1="120.0" x2="109.3" y2="100.0" stroke-width="2"/>
  <line x1="282.5" y1="120.0" x2="317.1" y2="100.0" stroke-width="2"/>
  <line x1="291.3" y1="123.2" x2="315.5" y2="109.2" stroke-width="2"/>
  <line x1="317.1" y1="100.0" x2="351.8" y2="120.0" stroke-width="2"/>
  <line x1="351.8" y1="120.0" x2="351.8" y2="160.0" stroke-width="2"/>
  <line x1="344.6" y1="126.0" x2="344.6" y2="154.0" stroke-width="2"/>
  <line x1="351.8" y1="160.0" x2="317.1" y2="180.0" stroke-width="2"/>
  <line x1="317.1" y1="180.0" x2="282.5" y2="160.0" stroke-width="2"/>
  <line x1="315.5" y1="170.8" x2="291.3" y2="156.8" stroke-width="2"/>
  <line x1="282.5" y1="160.0" x2="282.5" y2="120.0" stroke-width="2"/>
  <line x1="109.3" y1="100.0" x2="74.6" y2="120.0" stroke-width="2"/>
  <line x1="100.5" y1="96.8" x2="76.2" y2="110.8" stroke-width="2"/>
  <line x1="74.6" y1="120.0" x2="40.0" y2="100.0" stroke-width="2"/>
  <line x1="40.0" y1="100.0" x2="40.0" y2="60.0" stroke-width="2"/>
  <line x1="47.2" y1="94.0" x2="47.2" y2="66.0" stroke-width="2"/>
  <line x1="40.0" y1="60.0" x2="74.6" y2="40.0" stroke-width="2"/>
  <line x1="74.6" y1="40.0" x2="109.3" y2="60.0" stroke-width="2"/>
  <line x1="76.2" y1="49.2" x2="100.5" y2="63.2" stroke-width="2"/>
  <line x1="109.3" y1="60.0" x2="109.3" y2="100.0" stroke-width="2"/>
  <text x="137.923127" y="168.000812" fill="rgb(255,12,12)" stroke="rgb(255,12,12)" stroke-width="1" font-size="16">O</text>
  <text x="172.560937" y="108.000406" fill="rgb(255,12,12)" stroke="rgb(255,12,12)" stroke-width="1" font-size="16">O</text>
  <text x="207.203596" y="128.000541" fill="rgb(255,12,12)" stroke="rgb(255,12,12)" stroke-width="1" font-size="16">O</text>
  <text x="241.846255" y="68.000135" fill="rgb(255,12,12)" stroke="rgb(255,12,12)" stroke-width="1" font-size="16">O</text>
  <text font-size="18.000000" fill="black" font-family="sans-serif" x="10.000000" y="20.000000"></text>
</svg>
