<svg version="1.0" xmlns="http://www.w3.org/2000/svg" width="1040.000000pt" height="554.000000pt" viewBox="0 0 1040.000000 554.000000" preserveAspectRatio="xMidYMid meet">
  <g transform="translate(0.000000,554.000000) scale(0.100000,-0.100000)">
    <path d="M865 5468 c-3 -8 -4 -86 -3 -173 l3 -160 25 0 c24 0 25 2 28 80 3 83
18 115 52 115 30 0 39 -24 42 -110 l3 -85 30 0 30 0 3 77 c3 86 -11 126 -53
154 -24 16 -49 15 -87 -1 -15 -6 -17 1 -20 52 -3 51 -6 58 -26 61 -12 2 -24
-3 -27 -10z"/>
    <path
      d="M722 5428 c-5 -7 -12 -22 -14 -33 -3 -16 -11 -20 -42 -18 -22 2 -45
-2 -52 -8 -9 -7 -19 -7 -33 0 -32 18 -42 -15 -39 -131 3 -102 3 -103 28 -103
24 0 25 3 28 65 1 36 4 74 7 86 5 23 43 44 80 44 24 0 25 -2 25 -76 0 -41 5
-84 11 -95 22 -43 103 -47 97 -5 -2 13 -12 22 -25 24 -21 3 -23 9 -23 68 0 35
0 67 0 72 -1 4 10 9 22 10 13 2 27 8 32 12 13 12 -12 40 -35 40 -12 0 -19 7
-19 18 0 18 -18 42 -31 42 -4 0 -11 -6 -17 -12z"/>
    <path
      d="M5542 5428 c-7 -7 -12 -19 -12 -28 0 -8 -9 -23 -20 -33 -22 -18 -19
-37 6 -37 11 0 14 -16 14 -76 0 -41 5 -84 11 -95 13 -24 55 -42 81 -33 27 8
20 48 -9 52 -22 3 -23 8 -23 78 0 72 1 74 24 74 14 0 28 5 31 10 9 15 -14 40
-36 40 -12 0 -19 7 -19 18 0 17 -18 42 -30 42 -3 0 -11 -5 -18 -12z"/>
    <path d="M335 5368 c-46 -26 -65 -61 -65 -117 0 -92 56 -140 143 -124 38 8 83
55 90 95 8 53 -3 87 -40 124 -26 27 -42 34 -71 34 -20 0 -46 -6 -57 -12z m99
-63 c19 -28 21 -64 5 -99 -21 -45 -85 -44 -106 1 -18 38 -16 61 8 94 26 38 70
40 93 4z"/>
    <path
      d="M1195 5368 c-46 -26 -65 -61 -65 -118 0 -46 5 -61 28 -89 26 -31 32
-34 87 -34 54 0 61 3 86 32 49 59 46 133 -8 187 -26 27 -42 34 -71 34 -20 0
-46 -6 -57 -12z m99 -63 c19 -28 21 -64 5 -99 -21 -45 -85 -44 -106 1 -18 38
-16 61 8 94 26 38 70 40 93 4z"/>
    <path
      d="M4891 5366 c-8 -9 -11 -51 -9 -122 3 -109 3 -109 28 -109 24 0 25 2
28 80 3 81 18 115 50 115 30 0 41 -33 42 -117 0 -82 0 -83 25 -83 25 0 25 1
25 83 0 69 3 87 18 100 22 20 46 22 60 4 6 -7 12 -51 14 -97 3 -83 4 -85 28
-85 23 0 25 4 28 55 5 84 -6 135 -35 164 -31 31 -65 33 -103 6 -27 -19 -27
-19 -45 0 -20 22 -65 26 -83 8 -10 -10 -17 -10 -32 0 -25 15 -25 15 -39 -2z"/>
    <path
      d="M5335 5368 c-46 -26 -65 -61 -65 -118 0 -46 5 -61 28 -90 27 -31 32
-33 91 -33 66 0 86 9 75 36 -5 13 -19 17 -63 17 -46 0 -58 4 -69 21 -7 12 -11
23 -8 26 3 3 38 6 78 7 l73 1 3 41 c3 35 -2 46 -28 73 -34 33 -77 41 -115 19z
m83 -50 c26 -26 13 -38 -43 -38 -59 0 -64 4 -38 32 18 20 63 24 81 6z"/>
    <path
      d="M5708 5366 c-10 -7 -18 -20 -18 -29 0 -14 8 -16 46 -10 34 4 48 2 55
-8 14 -23 11 -28 -28 -35 -62 -11 -93 -39 -93 -83 0 -61 55 -95 110 -67 17 8
30 10 30 5 0 -5 11 -9 25 -9 25 0 25 0 25 97 0 92 -1 98 -27 125 -21 22 -36
28 -67 28 -23 0 -49 -7 -58 -14z m92 -146 c0 -33 -29 -55 -60 -45 -32 10 -24
44 13 60 45 20 47 19 47 -15z"/>
    <path
      d="M9071 5366 c-8 -9 -11 -64 -9 -172 l3 -159 25 0 c23 0 25 4 28 52 3
51 3 52 29 42 35 -13 87 -2 112 24 11 12 25 43 32 69 14 53 6 80 -40 131 -27
30 -63 35 -106 15 -19 -9 -28 -9 -37 0 -15 15 -23 15 -37 -2z m142 -50 c12 -9
17 -27 17 -63 0 -57 -12 -73 -55 -73 -41 0 -55 16 -55 62 0 71 47 109 93 74z"/>
    <path
      d="M9348 5366 c-10 -7 -18 -20 -18 -29 0 -14 8 -16 46 -10 34 4 48 2 55
-8 14 -23 11 -28 -28 -35 -62 -11 -93 -39 -93 -83 0 -61 55 -95 110 -67 17 8
30 10 30 5 0 -5 11 -9 25 -9 25 0 25 0 25 96 0 92 -1 97 -29 125 -23 22 -39
29 -68 29 -21 0 -46 -7 -55 -14z m92 -146 c0 -33 -29 -55 -60 -45 -32 10 -24
44 13 60 45 20 47 19 47 -15z"/>
    <path d="M9570 5360 c-6 -12 -10 -63 -8 -122 3 -102 3 -103 28 -103 24 0 25 3
30 82 3 45 7 83 10 86 3 2 20 12 38 21 35 18 37 32 9 50 -12 8 -23 7 -37 -2
-15 -9 -26 -10 -40 -2 -15 8 -21 6 -30 -10z"/>
    <path
      d="M9728 5366 c-10 -7 -18 -20 -18 -29 0 -14 8 -16 46 -10 34 4 48 2 55
-8 14 -23 11 -28 -28 -35 -62 -11 -93 -39 -93 -83 0 -61 55 -95 110 -67 17 8
30 10 30 5 0 -5 11 -9 25 -9 25 0 25 0 25 99 0 99 0 99 -31 125 -34 29 -92 35
-121 12z m92 -146 c0 -33 -29 -55 -60 -45 -32 10 -24 44 13 60 45 20 47 19 47
-15z"/>
    <path d="M1392 5278 c-20 -20 6 -38 57 -38 53 0 77 15 60 37 -14 16 -101 17
-117 1z"/>
    <path d="M5892 5278 c-20 -20 6 -38 57 -38 53 0 77 15 60 37 -14 16 -101 17
-117 1z"/>
    <path d="M9932 5278 c-20 -20 6 -38 57 -38 53 0 77 15 60 37 -14 16 -101 17
-117 1z"/>
    <path d="M746 4703 c-16 -3 -47 -23 -72 -49 -44 -43 -44 -44 -44 -114 0 -59 4
-77 24 -106 39 -58 106 -82 181 -67 30 7 41 14 43 31 3 21 0 22 -66 22 -58 0
-71 3 -89 23 -36 41 -48 83 -33 127 20 62 45 78 120 82 57 3 65 5 68 24 4 30
-45 40 -132 27z"/>
    <path
      d="M5241 4703 c-13 -3 -43 -24 -67 -49 -44 -43 -44 -44 -44 -114 0 -59
4 -77 24 -106 39 -58 106 -82 181 -67 30 7 41 14 43 31 3 21 0 22 -66 22 -58
0 -71 3 -89 23 -36 41 -48 83 -33 127 20 62 45 78 120 82 57 3 65 5 68 24 2
17 -4 23 -29 28 -33 6 -69 6 -108 -1z"/>
    <path
      d="M9421 4703 c-13 -3 -43 -24 -67 -49 -44 -43 -44 -44 -44 -114 0 -59
4 -77 24 -106 39 -58 106 -82 181 -67 30 7 41 14 43 31 3 21 0 22 -66 22 -58
0 -71 3 -89 23 -36 41 -48 83 -33 127 20 62 45 78 120 82 57 3 65 5 68 24 2
17 -4 23 -29 28 -33 6 -69 6 -108 -1z"/>
    <path d="M924 4687 c-2 -7 -3 -80 -2 -162 l3 -150 28 -3 27 -3 0 69 c0 38 2
71 4 73 2 2 34 2 70 1 l65 -4 3 -66 c3 -64 4 -67 28 -67 l25 0 0 160 0 160
-25 0 c-24 0 -25 -3 -28 -62 l-3 -63 -69 0 -70 0 0 65 c0 63 -1 65 -25 65 -14
0 -28 -6 -31 -13z"/>
    <path d="M5424 4687 c-2 -7 -3 -80 -2 -162 l3 -150 28 -3 27 -3 0 69 c0 38 2
71 4 73 2 2 34 2 70 1 l65 -4 3 -66 c3 -64 4 -67 28 -67 l25 0 0 160 0 160
-25 0 c-24 0 -25 -3 -28 -62 l-3 -63 -69 0 -70 0 0 65 c0 63 -1 65 -25 65 -14
0 -28 -6 -31 -13z"/>
    <path d="M9604 4687 c-2 -7 -3 -80 -2 -162 l3 -150 28 -3 27 -3 0 69 c0 38 2
71 4 73 2 2 34 2 70 1 l65 -4 3 -66 c3 -64 4 -67 28 -67 l25 0 0 160 0 160
-25 0 c-24 0 -25 -3 -28 -62 l-3 -63 -69 0 -70 0 0 65 c0 63 -1 65 -25 65 -14
0 -28 -6 -31 -13z"/>
    <path
      d="M1265 4443 c-28 -7 -39 -19 -32 -37 5 -12 11 -13 37 -3 25 10 33 9
40 -3 14 -22 7 -34 -26 -40 -40 -7 -41 -43 0 -50 40 -7 56 -34 33 -57 -14 -14
-22 -15 -46 -6 -33 12 -41 8 -41 -19 0 -18 22 -24 80 -19 25 2 70 45 70 67 0
7 -8 22 -18 35 -17 20 -17 25 -5 50 17 35 4 65 -33 79 -27 10 -27 11 -59 3z"/>
    <path
      d="M5765 4443 c-28 -7 -39 -19 -32 -37 5 -12 11 -13 37 -3 25 10 33 9
40 -3 14 -22 7 -34 -26 -40 -40 -7 -41 -43 0 -50 40 -7 56 -34 33 -57 -14 -14
-22 -15 -46 -6 -33 12 -41 8 -41 -18 0 -10 10 -19 28 -22 45 -9 81 4 104 36
20 28 21 31 4 61 -13 25 -15 38 -7 60 14 34 0 63 -35 76 -27 10 -27 11 -59 3z"/>
    <path
      d="M9945 4443 c-28 -7 -39 -19 -32 -37 5 -12 11 -13 37 -3 25 10 33 9
40 -3 14 -22 7 -34 -26 -40 -40 -7 -41 -43 0 -50 40 -7 56 -34 33 -57 -14 -14
-22 -15 -46 -6 -33 12 -41 8 -41 -19 0 -18 22 -24 80 -19 25 2 70 45 70 67 0
7 -8 22 -18 35 -17 20 -17 25 -5 50 17 35 4 65 -33 79 -27 10 -27 11 -59 3z"/>
    <path
      d="M872 4208 c-9 -9 -12 -106 -12 -374 l0 -362 -24 -16 c-14 -8 -41 -25
-60 -36 -20 -11 -52 -29 -71 -40 -19 -11 -51 -29 -70 -40 -19 -11 -51 -29 -70
-40 -87 -50 -103 -59 -153 -89 -29 -17 -55 -31 -58 -31 -3 0 -18 -8 -32 -19
-15 -10 -44 -28 -64 -40 -21 -11 -54 -30 -73 -41 -19 -11 -52 -30 -73 -41 -20
-12 -49 -30 -64 -40 -14 -11 -31 -19 -37 -19 -8 0 -11 -153 -11 -533 l0 -532
33 -14 c17 -8 43 -22 57 -31 14 -10 42 -27 62 -39 21 -11 54 -30 73 -41 19
-11 52 -30 73 -41 20 -12 48 -29 62 -38 14 -9 39 -23 55 -31 17 -8 41 -22 55
-31 14 -9 42 -26 63 -38 20 -11 53 -30 72 -41 19 -11 51 -29 70 -40 19 -11 51
-29 70 -40 19 -11 52 -29 73 -41 20 -11 41 -25 47 -30 14 -14 34 -11 63 10 15
10 44 28 64 40 21 11 54 30 73 41 19 11 51 29 70 40 19 11 51 29 70 40 19 11
51 29 70 40 19 11 51 29 70 40 19 11 52 29 73 41 20 12 42 25 47 29 6 4 27 17
48 29 20 12 53 30 72 41 19 11 51 29 70 40 19 11 52 29 73 41 20 11 43 28 50
37 9 12 12 131 12 514 0 466 1 499 18 505 9 3 28 14 42 23 14 10 42 27 63 39
20 11 53 30 72 41 19 11 51 29 70 40 19 11 51 29 70 40 19 11 52 30 73 41 20
12 48 29 62 38 14 9 39 23 55 31 53 25 65 40 52 61 -12 19 -37 26 -37 10 0 -5
-8 -11 -17 -14 -10 -4 -38 -18 -63 -33 -25 -15 -60 -35 -77 -45 -83 -48 -106
-60 -140 -80 -21 -12 -49 -29 -63 -38 -14 -9 -38 -23 -55 -31 -16 -8 -41 -22
-55 -31 -63 -42 -102 -59 -114 -50 -6 5 -28 18 -48 30 -21 12 -54 30 -73 41
-19 11 -52 30 -72 41 -21 12 -50 30 -65 40 -14 11 -29 19 -32 19 -3 0 -29 14
-58 31 -29 18 -68 40 -85 50 -73 42 -105 60 -140 80 -21 12 -49 29 -63 38 -14
9 -38 23 -55 31 -16 8 -49 27 -72 42 -23 15 -46 28 -52 28 -8 0 -11 111 -11
361 0 387 -5 430 -48 387z m48 -801 c14 -8 42 -24 63 -35 20 -12 54 -32 75
-43 20 -12 49 -30 64 -40 14 -11 29 -19 32 -19 3 0 29 -14 58 -31 29 -18 68
-40 86 -50 72 -42 104 -60 140 -80 20 -12 48 -29 62 -38 14 -9 39 -23 55 -31
17 -8 41 -22 55 -31 14 -9 45 -28 70 -42 l45 -25 3 -495 2 -495 -27 -15 c-41
-20 -104 -57 -133 -76 -14 -9 -38 -23 -55 -31 -16 -8 -41 -22 -55 -31 -14 -9
-42 -26 -62 -38 -21 -11 -54 -30 -73 -41 -19 -11 -51 -29 -70 -40 -19 -11 -51
-29 -70 -40 -19 -11 -52 -29 -72 -41 -21 -12 -42 -25 -48 -29 -13 -10 -79 -47
-134 -76 l-43 -23 -66 35 c-35 19 -77 43 -92 54 -16 11 -31 20 -34 20 -3 0
-29 14 -58 31 -29 18 -68 40 -85 50 -73 42 -105 60 -140 80 -21 12 -49 29 -63
38 -14 9 -38 23 -55 31 -16 8 -41 22 -55 31 -14 10 -53 32 -85 50 -33 17 -72
41 -88 51 l-27 19 2 490 3 490 64 35 c35 19 76 44 91 54 16 11 31 20 34 20 3
0 29 14 58 31 50 30 66 39 153 89 87 50 103 59 153 89 29 17 55 31 58 31 3 0
24 13 47 28 23 16 58 36 77 45 19 9 49 25 65 37 35 24 42 24 75 7z"/>
    <path
      d="M850 3196 c0 -14 7 -26 18 -30 18 -6 62 -30 105 -59 14 -9 42 -26 61
-37 20 -11 52 -29 71 -40 19 -11 52 -30 73 -41 20 -12 49 -30 64 -40 14 -11
29 -19 32 -19 3 0 29 -14 58 -31 162 -96 194 -113 212 -106 21 8 20 36 -1 44
-10 3 -29 14 -43 23 -14 10 -42 27 -62 39 -21 11 -54 30 -73 41 -19 11 -52 30
-72 41 -21 12 -50 30 -65 40 -14 11 -29 19 -32 19 -3 0 -29 14 -58 31 -29 18
-68 40 -85 50 -67 39 -104 60 -138 79 -47 27 -65 26 -65 -4z"/>
    <path d="M217 2833 c-12 -11 -8 -791 3 -798 6 -4 17 -1 25 5 13 11 15 72 15
394 0 284 -3 385 -12 394 -14 14 -22 15 -31 5z"/>
    <path
      d="M1505 2087 c-11 -7 -53 -33 -93 -60 -40 -26 -75 -47 -78 -47 -3 0
-38 -22 -79 -50 -41 -27 -77 -50 -80 -50 -4 0 -26 -13 -50 -30 -24 -16 -46
-30 -50 -30 -3 0 -39 -22 -80 -50 -41 -27 -78 -50 -83 -50 -5 0 -17 -9 -27
-20 -17 -19 -17 -22 -3 -36 13 -14 19 -13 53 6 21 12 64 39 96 61 32 21 61 39
64 39 4 0 26 14 50 30 24 17 46 30 49 30 2 0 39 23 80 50 42 28 78 50 81 50 3
0 39 23 80 50 41 28 78 50 83 50 5 0 17 9 27 20 15 16 15 22 5 35 -14 17 -18
17 -45 2z"/>
    <path
      d="M5311 4207 c-7 -9 -12 -129 -13 -376 l-3 -363 -50 -29 c-27 -16 -57
-32 -65 -36 -8 -3 -33 -18 -55 -32 -22 -15 -53 -33 -70 -41 -16 -8 -41 -22
-55 -31 -14 -9 -42 -26 -62 -38 -21 -11 -54 -30 -73 -41 -19 -11 -51 -29 -70
-40 -19 -11 -51 -29 -70 -40 -19 -11 -52 -30 -72 -41 -21 -12 -49 -29 -63 -38
-14 -9 -38 -23 -55 -31 -16 -8 -47 -25 -67 -39 l-38 -24 0 -523 0 -523 28 -14
c15 -7 44 -23 65 -35 20 -12 54 -31 75 -43 20 -12 42 -25 47 -29 6 -4 27 -17
48 -29 20 -12 53 -30 72 -41 19 -11 51 -29 70 -40 19 -11 51 -29 70 -40 19
-11 52 -30 73 -41 20 -12 48 -29 62 -38 14 -9 39 -23 55 -31 17 -8 41 -22 55
-31 26 -17 79 -48 141 -81 35 -20 36 -20 72 1 68 39 102 58 155 90 29 17 55
31 58 31 3 0 24 13 47 28 23 15 56 34 72 42 17 8 41 22 55 31 14 9 42 26 63
38 35 20 67 38 140 80 17 10 56 32 85 50 29 17 55 31 58 31 3 0 26 14 51 31
l45 32 37 -20 c20 -11 53 -30 74 -41 20 -12 53 -31 72 -42 19 -11 51 -29 70
-40 19 -11 51 -29 70 -40 19 -11 51 -29 70 -40 19 -11 52 -29 73 -41 20 -12
42 -25 47 -29 23 -18 87 -50 100 -50 9 0 15 9 15 23 0 17 -11 29 -37 44 -21
11 -55 30 -75 41 -21 12 -55 31 -75 43 -21 12 -42 25 -48 29 -5 4 -27 17 -47
29 -21 12 -54 30 -73 41 -19 11 -51 29 -70 40 -89 51 -112 64 -140 80 l-30 17
-3 505 -2 506 -24 16 c-14 8 -41 25 -60 36 -20 11 -52 29 -71 40 -19 11 -51
29 -70 40 -19 11 -51 29 -70 40 -19 11 -52 30 -72 41 -21 12 -49 29 -63 38
-14 9 -38 23 -55 31 -16 8 -49 27 -72 42 -23 15 -44 28 -47 28 -3 0 -29 14
-58 31 -72 43 -116 68 -160 92 l-38 21 0 366 c0 271 -3 369 -12 378 -15 15
-23 15 -37 -1z m111 -838 c14 -11 29 -19 32 -19 3 0 29 -14 58 -31 29 -18 68
-40 86 -50 77 -45 104 -60 140 -80 20 -12 42 -25 47 -29 6 -4 27 -17 48 -29
20 -12 53 -30 72 -41 19 -11 51 -29 70 -40 19 -11 50 -28 68 -39 17 -10 52
-30 77 -44 l45 -25 3 -495 2 -495 -27 -15 c-16 -7 -45 -23 -65 -35 -21 -12
-54 -31 -73 -42 -87 -50 -103 -59 -153 -89 -29 -17 -55 -31 -58 -31 -3 0 -18
-8 -32 -19 -15 -10 -44 -28 -64 -40 -21 -11 -54 -30 -73 -41 -19 -11 -51 -29
-70 -40 -19 -11 -51 -29 -70 -40 -19 -11 -52 -29 -72 -41 -21 -12 -42 -24 -48
-29 -32 -23 -41 -21 -127 28 -62 36 -106 61 -145 83 -21 12 -42 25 -48 29 -5
4 -27 17 -47 29 -21 12 -54 30 -73 41 -19 11 -51 29 -70 40 -19 11 -51 29 -70
40 -19 11 -51 29 -70 40 -19 11 -51 29 -70 40 -19 11 -52 30 -72 41 -21 12
-50 30 -66 41 l-27 19 2 491 3 490 45 25 c25 14 60 34 78 44 17 11 48 28 67
39 19 11 51 29 70 40 19 11 51 29 70 40 19 11 51 29 70 40 19 11 52 29 73 41
20 12 42 25 47 29 6 4 27 17 48 29 20 12 53 30 72 41 19 11 51 29 70 40 19 11
52 29 73 41 20 11 41 25 46 29 8 8 56 -14 108 -51z"/>
    <path
      d="M5286 3203 c-8 -19 -3 -24 47 -52 20 -12 53 -30 72 -41 19 -11 52
-30 73 -41 20 -12 49 -30 64 -40 14 -11 29 -19 32 -19 3 0 29 -14 58 -31 29
-18 68 -40 86 -50 72 -42 104 -60 140 -80 20 -12 49 -30 64 -40 32 -23 64 -24
72 -3 7 18 0 34 -15 34 -6 0 -29 13 -52 28 -23 15 -55 34 -72 42 -16 8 -41 22
-55 31 -14 9 -42 26 -62 38 -21 11 -54 30 -73 41 -19 11 -52 30 -72 41 -21 12
-50 30 -65 40 -14 11 -29 19 -32 19 -3 0 -29 14 -58 31 -130 78 -141 81 -152
52z"/>
    <path d="M4652 2828 c-9 -9 -12 -110 -12 -394 0 -327 2 -383 15 -394 12 -10
18 -10 30 0 13 11 15 67 15 394 0 372 -3 406 -30 406 -3 0 -11 -5 -18 -12z"/>
    <path
      d="M5944 2087 c-19 -11 -95 -59 -211 -134 -29 -18 -55 -33 -58 -33 -3 0
-39 -22 -80 -50 -41 -27 -77 -50 -80 -50 -4 0 -25 -13 -48 -29 -23 -15 -46
-30 -52 -32 -40 -17 -105 -67 -105 -82 0 -31 27 -30 74 2 24 17 47 31 51 31 4
0 26 14 50 30 24 17 46 30 50 30 3 0 39 23 80 50 41 28 77 50 80 50 4 0 26 14
50 30 24 17 46 30 49 30 2 0 39 23 80 50 42 28 79 50 84 50 5 0 17 9 27 20 15
16 15 22 5 35 -14 17 -17 17 -46 2z"/>
    <path
      d="M9482 4208 c-9 -9 -12 -107 -12 -380 0 -255 -3 -368 -11 -368 -6 0
-29 -13 -52 -28 -23 -15 -55 -34 -72 -42 -16 -8 -41 -22 -55 -31 -14 -9 -42
-26 -62 -38 -21 -11 -54 -30 -73 -41 -19 -11 -51 -29 -70 -40 -19 -11 -51 -29
-70 -40 -19 -11 -52 -29 -72 -41 -21 -12 -42 -25 -48 -29 -5 -4 -27 -17 -47
-29 -21 -12 -55 -31 -75 -42 -21 -12 -63 -36 -93 -52 -30 -17 -58 -35 -62 -41
-4 -6 -8 -239 -8 -517 0 -389 3 -509 13 -521 6 -9 29 -26 50 -37 20 -12 53
-30 72 -41 19 -11 51 -29 70 -40 19 -11 52 -29 73 -41 20 -12 42 -25 47 -29 6
-4 27 -17 48 -29 20 -12 53 -30 72 -41 19 -11 51 -29 70 -40 19 -11 51 -29 70
-40 19 -11 51 -29 70 -40 19 -11 51 -29 70 -40 19 -11 50 -29 69 -39 85 -48
76 -1 76 -407 0 -309 2 -363 15 -374 12 -10 18 -10 30 0 13 11 15 65 15 374
l0 362 38 21 c20 11 54 30 75 41 20 12 52 30 70 41 17 10 56 32 85 50 29 17
55 31 58 31 3 0 24 13 47 28 23 15 56 34 72 42 17 8 41 22 55 31 14 9 42 26
63 38 35 20 67 38 140 80 17 10 56 32 85 50 29 17 59 31 67 31 13 0 15 73 15
533 l0 532 -38 17 c-20 9 -57 29 -82 44 -46 27 -80 47 -147 85 -21 12 -50 30
-65 40 -14 11 -29 19 -32 19 -3 0 -29 14 -58 31 -50 30 -66 39 -153 89 -19 11
-51 29 -70 40 -19 11 -51 29 -70 40 -19 11 -51 29 -71 40 -19 11 -46 28 -60
36 l-24 16 0 362 c0 352 -3 386 -30 386 -3 0 -11 -5 -18 -12z m63 -808 c17
-12 46 -28 65 -37 19 -9 54 -29 77 -45 23 -15 44 -28 47 -28 3 0 29 -14 58
-31 29 -18 68 -40 86 -50 72 -42 104 -60 140 -80 20 -12 48 -29 62 -38 14 -9
39 -23 55 -31 17 -8 41 -22 55 -31 28 -19 92 -56 133 -76 l27 -14 0 -489 c0
-378 -3 -490 -12 -498 -7 -5 -30 -19 -50 -31 -96 -54 -115 -64 -138 -80 -14
-9 -38 -23 -55 -31 -16 -8 -41 -22 -55 -31 -14 -9 -42 -26 -62 -38 -36 -20
-68 -38 -140 -80 -18 -10 -57 -32 -86 -50 -29 -17 -55 -31 -58 -31 -3 0 -18
-9 -34 -20 -15 -11 -57 -35 -94 -55 l-67 -35 -42 23 c-23 14 -60 34 -82 47
-22 12 -52 31 -67 41 -14 11 -29 19 -32 19 -3 0 -29 14 -58 31 -29 18 -68 40
-85 50 -73 42 -105 60 -140 80 -21 12 -49 29 -63 38 -14 9 -38 23 -55 31 -16
8 -41 22 -55 31 -29 19 -92 56 -133 76 l-27 15 2 495 3 495 45 25 c25 14 56
33 70 42 14 9 39 23 55 31 17 8 41 22 55 31 14 9 42 26 63 38 20 11 53 30 72
41 19 11 51 29 70 40 19 11 51 29 70 40 19 11 52 29 73 41 20 12 42 25 47 29
6 4 27 17 48 29 20 12 54 31 75 43 98 56 95 56 137 28z"/>
    <path
      d="M9463 3204 c-6 -16 30 -53 50 -54 5 0 21 -8 35 -19 15 -10 44 -28 65
-40 20 -11 53 -30 72 -41 19 -11 52 -30 73 -41 20 -12 48 -29 62 -38 14 -9 39
-23 55 -31 17 -8 49 -27 72 -42 23 -15 45 -28 48 -28 4 0 19 -8 33 -19 43 -30
102 -61 116 -61 26 0 28 33 4 52 -13 10 -27 18 -31 18 -5 0 -21 8 -35 19 -15
10 -44 28 -64 40 -21 11 -54 30 -73 41 -19 11 -52 30 -72 41 -21 12 -50 30
-65 40 -14 11 -29 19 -32 19 -3 0 -29 14 -58 31 -59 35 -99 58 -155 90 -21 11
-42 25 -47 30 -16 15 -46 10 -53 -7z"/>
    <path d="M8822 2828 c-9 -9 -12 -110 -12 -394 0 -327 2 -383 15 -394 12 -10
18 -10 30 0 13 11 15 67 15 394 0 372 -3 406 -30 406 -3 0 -11 -5 -18 -12z"/>
    <path
      d="M10080 2060 c-30 -21 -59 -39 -63 -40 -5 0 -28 -13 -52 -30 -24 -16
-48 -30 -53 -30 -5 0 -17 -9 -27 -20 -10 -11 -22 -20 -27 -20 -5 0 -29 -13
-53 -30 -24 -16 -46 -30 -50 -30 -3 0 -39 -22 -80 -50 -41 -27 -77 -50 -80
-50 -18 0 -105 -68 -105 -83 0 -31 27 -30 74 2 24 17 49 31 54 31 5 0 17 9 27
20 10 11 22 20 27 20 5 0 29 14 53 30 24 17 46 30 50 30 3 0 39 23 80 50 41
28 77 50 80 50 3 0 38 21 78 48 40 26 83 53 97 60 52 28 65 42 54 59 -16 26
-25 25 -84 -17z"/>
    <path
      d="M2541 3683 c-13 -3 -43 -24 -67 -49 -44 -43 -44 -44 -44 -114 0 -59
4 -77 24 -106 39 -58 106 -82 181 -67 30 7 41 14 43 31 3 21 0 22 -66 22 -58
0 -71 3 -89 23 -36 40 -48 84 -33 126 23 67 45 81 122 81 65 0 68 1 68 24 0
18 -7 25 -31 30 -34 6 -69 6 -108 -1z"/>
    <path d="M2724 3667 c-2 -7 -3 -80 -2 -162 l3 -150 28 -3 27 -3 0 70 0 71 70
0 69 0 3 -67 c3 -66 4 -68 31 -71 l27 -3 0 166 0 166 -27 -3 c-26 -3 -28 -6
-33 -63 l-5 -60 -67 -3 -68 -3 0 66 c0 63 -1 65 -25 65 -14 0 -28 -6 -31 -13z"/>
    <path
      d="M3045 3423 c-28 -7 -39 -19 -32 -37 5 -12 11 -13 37 -3 25 10 33 9
40 -2 13 -22 1 -40 -28 -43 -39 -4 -37 -41 2 -48 37 -6 55 -32 37 -54 -16 -19
-42 -21 -58 -5 -15 15 -33 3 -33 -20 0 -42 99 -34 130 9 24 34 25 48 4 71 -13
15 -14 24 -6 49 13 34 1 80 -20 80 -7 0 -22 2 -33 4 -11 2 -29 2 -40 -1z"/>
    <path
      d="M6961 1643 c-13 -3 -43 -24 -67 -49 -44 -43 -44 -44 -44 -114 0 -59
4 -77 24 -106 39 -58 106 -82 181 -67 30 7 41 14 43 31 3 21 0 22 -66 22 -58
0 -71 3 -89 23 -36 40 -48 84 -33 126 23 67 45 81 122 81 65 0 68 1 68 24 0
18 -7 25 -31 30 -34 6 -69 6 -108 -1z"/>
    <path d="M7144 1627 c-2 -7 -3 -80 -2 -162 l3 -150 28 -3 27 -3 0 70 0 71 70
0 69 0 3 -67 c3 -66 4 -68 31 -71 l27 -3 0 166 0 166 -27 -3 c-27 -3 -28 -6
-31 -65 l-3 -63 -69 0 -70 0 0 65 c0 63 -1 65 -25 65 -14 0 -28 -6 -31 -13z"/>
    <path
      d="M7485 1403 c-28 -7 -39 -19 -32 -37 5 -12 11 -13 37 -3 25 10 33 9
40 -2 13 -22 1 -40 -28 -43 -39 -4 -37 -41 2 -48 37 -6 55 -32 37 -54 -16 -19
-42 -21 -58 -5 -15 15 -33 3 -33 -20 0 -42 99 -34 130 9 24 34 25 48 4 71 -13
15 -14 24 -6 49 13 34 1 80 -20 80 -7 0 -22 2 -33 4 -11 2 -29 2 -40 -1z"/>
    <path d="M5125 628 c-3 -8 -4 -86 -3 -173 l3 -160 25 0 25 0 0 170 c0 169 0
170 -23 173 -12 2 -24 -3 -27 -10z"/>
    <path
      d="M4610 607 c0 -7 4 -17 9 -22 5 -6 18 -26 29 -46 11 -20 26 -46 33
-57 15 -23 8 -42 -43 -119 -36 -54 -37 -75 -1 -71 25 3 63 51 80 101 4 13 9
15 19 6 8 -6 14 -15 14 -20 0 -5 12 -27 26 -49 18 -27 34 -40 50 -40 25 0 45
21 26 28 -7 2 -12 8 -12 14 0 5 -13 29 -29 52 -39 56 -47 89 -27 105 9 8 16
18 16 23 0 5 13 29 30 52 31 46 30 56 -5 56 -21 0 -61 -48 -78 -92 -9 -24 -20
-22 -33 5 -42 83 -45 87 -75 87 -17 0 -29 -5 -29 -13z"/>
    <path
      d="M9261 583 c-13 -3 -43 -24 -67 -49 -44 -43 -44 -44 -44 -114 0 -59 4
-77 24 -106 39 -58 106 -82 181 -67 30 7 41 14 43 31 3 21 0 22 -66 22 -58 0
-71 3 -89 23 -36 41 -48 83 -33 127 20 62 45 78 120 82 57 3 65 5 68 24 2 17
-4 23 -29 28 -33 6 -69 6 -108 -1z"/>
    <path d="M9444 567 c-2 -7 -3 -80 -2 -162 l3 -150 28 -3 27 -3 0 69 c0 38 2
71 4 73 2 2 34 2 70 1 l65 -4 3 -66 c3 -64 4 -67 28 -67 l25 0 0 160 0 160
-25 0 c-24 0 -25 -3 -28 -62 l-3 -63 -69 0 -70 0 0 65 c0 63 -1 65 -25 65 -14
0 -28 -6 -31 -13z"/>
    <path
      d="M4867 533 c-11 -10 -8 -32 9 -71 9 -21 21 -48 26 -62 6 -14 14 -33
19 -42 5 -10 9 -33 9 -53 0 -27 -7 -39 -30 -57 -37 -27 -40 -58 -6 -58 25 0
72 47 94 93 29 62 52 118 52 127 0 6 4 18 9 28 27 53 33 72 27 87 -9 25 -38
14 -55 -20 -8 -17 -18 -38 -23 -47 -4 -10 -8 -26 -8 -37 0 -10 -7 -24 -15 -31
-12 -10 -15 -10 -15 2 0 25 -42 122 -59 136 -17 14 -25 15 -34 5z"/>
    <path
      d="M5275 528 c-46 -26 -65 -61 -65 -118 0 -46 5 -61 28 -90 27 -31 32
-33 91 -33 66 0 86 9 75 36 -5 13 -19 17 -63 17 -46 0 -58 4 -69 21 -7 12 -11
23 -8 26 3 3 38 6 78 7 l73 1 3 41 c3 35 -2 46 -28 73 -34 33 -77 41 -115 19z
m81 -52 c26 -27 15 -36 -41 -36 -59 0 -64 4 -38 32 19 22 59 24 79 4z"/>
    <path d="M5470 525 c-7 -8 -10 -52 -8 -121 3 -109 3 -109 28 -109 24 0 25 2
28 80 3 83 18 115 52 115 30 0 39 -24 42 -110 l3 -85 30 0 30 0 3 85 c2 82 2
86 -28 123 -25 29 -39 37 -64 37 -17 0 -37 -5 -44 -12 -8 -8 -18 -9 -36 0 -19
8 -27 8 -36 -3z"/>
    <path
      d="M5765 505 c-32 -33 -35 -41 -35 -93 0 -49 4 -63 29 -92 27 -33 32
-35 90 -34 65 1 88 12 78 38 -5 12 -21 16 -64 16 -48 0 -60 4 -71 21 -7 12
-11 23 -8 26 3 3 38 6 78 7 l73 1 3 41 c3 35 -2 46 -28 73 -46 45 -97 44 -145
-4z m111 -32 c22 -29 17 -33 -41 -33 -30 0 -55 2 -55 5 0 3 8 14 17 25 21 25
61 26 79 3z"/>
    <path
      d="M9785 343 c-28 -7 -39 -19 -32 -37 5 -12 11 -13 37 -3 25 10 33 9 40
-3 14 -22 7 -34 -26 -40 -40 -7 -41 -43 0 -50 40 -7 56 -34 33 -57 -14 -14
-22 -15 -46 -6 -33 12 -41 8 -41 -19 0 -18 22 -24 80 -19 25 2 70 45 70 67 0
7 -8 22 -18 35 -17 20 -17 25 -5 50 17 35 4 65 -33 79 -27 10 -27 11 -59 3z"/>
  </g>
</svg>
