<?xml version="1.0" encoding="UTF-8"?>
<svg width="341pt" xmlns:xlink="http://www.w3.org/1999/xlink" xmlns="http://www.w3.org/2000/svg" height="170pt" viewBox="0 0 341 170">
  <g transform="translate(15.0498, 94.1504)">
    <path d="M1.7002 39.6996 C1.7002 39.6996 0 40.6996 0 40.6996 C0 40.6996 0 0 0 0 C0 0 1.7002 1 1.7002 1 C1.7002 1 1.7002 39.6996 1.7002 39.6996 Z"/>
  </g>
  <g transform="translate(21, 98.0996)">
    <path d="M1.7002 32.8004 C1.7002 32.8004 0 32.8004 0 32.8004 C0 32.8004 0 0 0 0 C0 0 1.7002 0 1.7002 0 C1.7002 0 1.7002 32.8004 1.7002 32.8004 Z"/>
  </g>
  <g transform="translate(15.0498, 133.85)" style="fill-rule:nonzero; stroke:none; stroke-width:1.7; stroke-linecap:butt; stroke-linejoin:miter; stroke-dasharray:none;">
    <path d="M35.2002 19.35 C35.2002 19.35 35.2002 21.3 35.2002 21.3 C35.2002 21.3 0 1 0 1 C0 1 1.7002 0 1.7002 0 C1.7002 0 35.2002 19.35 35.2002 19.35 Z"/>
  </g>
  <g transform="translate(50.25, 133.85)">
    <path d="M33.5 0 C33.5 0 35.2002 1 35.2002 1 C35.2002 1 0 21.3 0 21.3 C0 21.3 0 19.35 0 19.35 C0 19.35 33.5 0 33.5 0 Z"/>
  </g>
  <g transform="translate(49.7998, 130.15)">
    <path d="M28.4502 0 C28.4502 0 29.2998 1.5 29.2998 1.5 C29.2998 1.5 0.9004 17.9 0.9004 17.9 C0.9004 17.9 0 16.4 0 16.4 C0 16.4 28.4502 0 28.4502 0 Z"/>
  </g>
  <g transform="translate(83.75, 94.6504)">
    <path d="M0 0.5 C0 0.5 0.8496 0 0.8496 0 C0.8496 0 1.7002 0.5 1.7002 0.5 C1.7002 0.5 1.7002 40.1996 1.7002 40.1996 C1.7002 40.1996 0 39.1996 0 39.1996 C0 39.1996 0 0.5 0 0.5 Z"/>
  </g>
  <g transform="translate(50.25, 73.8496)">
    <path d="M0 1.9502 C0 1.9502 0 0 0 0 C0 0 34.3496 19.8506 34.3496 19.8506 C34.3496 19.8506 34.3496 20.8008 34.3496 20.8008 C34.3496 20.8008 33.5 21.3008 33.5 21.3008 C33.5 21.3008 0 1.9502 0 1.9502 Z"/>
  </g>
  <g transform="translate(49.7998, 80.9502)">
    <path d="M0 1.5 C0 1.5 0.9004 0 0.9004 0 C0.9004 0 29.2998 16.3994 29.2998 16.3994 C29.2998 16.3994 28.4502 17.8994 28.4502 17.8994 C28.4502 17.8994 0 1.5 0 1.5 Z"/>
  </g>
  <g transform="translate(15.0498, 73.8496)">
    <path d="M1.7002 21.3008 C1.7002 21.3008 0 20.3008 0 20.3008 C0 20.3008 35.2002 0 35.2002 0 C35.2002 0 35.2002 1.9502 35.2002 1.9502 C35.2002 1.9502 1.7002 21.3008 1.7002 21.3008 Z"/>
  </g>
  <g transform="translate(84.5996, 73.8496)">
    <path d="M34.3504 0 C34.3504 0 34.3504 1.9502 34.3504 1.9502 C34.3504 1.9502 0.8506 21.3008 0.8506 21.3008 C0.8506 21.3008 0 20.8008 0 20.8008 C0 20.8008 0 19.8506 0 19.8506 C0 19.8506 34.3504 0 34.3504 0 Z"/>
  </g>
  <g transform="translate(144.912, 85.7158)" >
    <path
      d="M8.424 0 C3.408 0 0 3.6963 0 9.168 C0 14.6402 3.408 18.3362 8.448 18.3362 C10.56 18.3362 12.456 17.6882 13.872 16.4882 C15.768 14.8802 16.896 12.168 16.896 9.3125 C16.896 3.6719 13.56 0 8.424 0 Z M8.424 1.9678 C12.216 1.9678 14.664 4.8487 14.664 9.2647 C14.664 13.4883 12.144 16.3682 8.448 16.3682 C4.728 16.3682 2.232 13.4883 2.232 9.168 C2.232 4.8487 4.728 1.9678 8.424 1.9678 Z"/>
  </g>
  <g transform="translate(118.95, 73.8496)">
    <path d="M25.45 14.7002 C25.45 14.7002 24.6 16.1504 24.6 16.1504 C24.6 16.1504 0 1.9502 0 1.9502 C0 1.9502 0 0 0 0 C0 0 25.45 14.7002 25.45 14.7002 Z"/>
  </g>
  <g transform="translate(179.162, 65.9658)" >
    <path
      d="M8.424 0 C3.408 0 0 3.6963 0 9.168 C0 14.6406 3.408 18.336 8.448 18.336 C10.56 18.336 12.456 17.6885 13.872 16.4883 C15.768 14.8799 16.896 12.168 16.896 9.3125 C16.896 3.6719 13.56 0 8.424 0 Z M8.424 1.9678 C12.216 1.9678 14.664 4.8487 14.664 9.2647 C14.664 13.4883 12.144 16.3682 8.448 16.3682 C4.728 16.3682 2.232 13.4883 2.232 9.168 C2.232 4.8487 4.728 1.9678 8.424 1.9678 Z"/>
  </g>
  <g transform="translate(162.15, 79.5996)">
    <path d="M15.55 0 C15.55 0 16.4 1.4502 16.4 1.4502 C16.4 1.4502 0.85 10.4502 0.85 10.4502 C0.85 10.4502 0 8.9502 0 8.9502 C0 8.9502 15.55 0 15.55 0 Z"/>
  </g>
  <g transform="translate(196.75, 79.5996)">
    <path d="M25.2 14.1006 C25.2 14.1006 25.2 16.0508 25.2 16.0508 C25.2 16.0508 0 1.5 0 1.5 C0 1.5 0.85 0 0.85 0 C0.85 0 25.2 14.1006 25.2 14.1006 Z"/>
  </g>
  <g transform="translate(221.95, 74.3496)">
    <path d="M33.5 0 C33.5 0 34.35 0.5 34.35 0.5 C34.35 0.5 34.35 1.4502 34.35 1.4502 C34.35 1.4502 0 21.3008 0 21.3008 C0 21.3008 0 19.3506 0 19.3506 C0 19.3506 33.5 0 33.5 0 Z"/>
  </g>
  <g transform="translate(213.412, 125.466)" >
    <path
      d="M8.424 0 C3.408 0 0 3.696 0 9.168 C0 14.64 3.408 18.336 8.448 18.336 C10.56 18.336 12.456 17.688 13.872 16.488 C15.768 14.88 16.896 12.168 16.896 9.312 C16.896 3.672 13.56 0 8.424 0 Z M8.424 1.968 C12.216 1.968 14.664 4.848 14.664 9.264 C14.664 13.488 12.144 16.368 8.448 16.368 C4.728 16.368 2.232 13.488 2.232 9.168 C2.232 4.848 4.728 1.968 8.424 1.968 Z"/>
  </g>
  <g transform="translate(224.1, 92.9502)">
    <path d="M1.7 30.4998 C1.7 30.4998 0 30.4998 0 30.4998 C0 30.4998 0 0 0 0 C0 0 1.7 0 1.7 0 C1.7 0 1.7 30.4998 1.7 30.4998 Z"/>
  </g>
  <g transform="translate(218.15, 92.9502)">
    <path d="M1.7 30.4998 C1.7 30.4998 0 30.4998 0 30.4998 C0 30.4998 0 0 0 0 C0 0 1.7 0 1.7 0 C1.7 0 1.7 30.4998 1.7 30.4998 Z"/>
  </g>
  <g transform="translate(110.412, 26.2158)" >
    <path
      d="M8.424 0 C3.408 0 0 3.6963 0 9.168 C0 14.6406 3.408 18.336 8.448 18.336 C10.56 18.336 12.456 17.6885 13.872 16.4883 C15.768 14.8799 16.896 12.168 16.896 9.3125 C16.896 3.6719 13.56 0 8.424 0 Z M8.424 1.9678 C12.216 1.9678 14.664 4.8487 14.664 9.2647 C14.664 13.4883 12.144 16.3682 8.448 16.3682 C4.728 16.3682 2.232 13.4883 2.232 9.168 C2.232 4.8487 4.728 1.9678 8.424 1.9678 Z"/>
  </g>
  <g transform="translate(115.15, 46.6504)">
    <path d="M0 0 C0 0 1.7 0 1.7 0 C1.7 0 1.7 29.8994 1.7 29.8994 C1.7 29.8994 0 29.8994 0 29.8994 C0 29.8994 0 0 0 0 Z"/>
  </g>
  <g transform="translate(121.1, 46.6504)">
    <path d="M0 0 C0 0 1.7 0 1.7 0 C1.7 0 1.7 29.8994 1.7 29.8994 C1.7 29.8994 0 29.8994 0 29.8994 C0 29.8994 0 0 0 0 Z"/>
  </g>
  <g transform="translate(256.3, 74.3496)">
    <path d="M34.4 19.3506 C34.4 19.3506 34.4 21.3008 34.4 21.3008 C34.4 21.3008 0 1.4502 0 1.4502 C0 1.4502 0 0.5 0 0.5 C0 0.5 0.85 0 0.85 0 C0.85 0 34.4 19.3506 34.4 19.3506 Z"/>
  </g>
  <g transform="translate(261.85, 70.6504)">
    <path d="M29.25 16.3994 C29.25 16.3994 28.4 17.8994 28.4 17.8994 C28.4 17.8994 0 1.5 0 1.5 C0 1.5 0.85 0 0.85 0 C0.85 0 29.25 16.3994 29.25 16.3994 Z"/>
  </g>
  <g transform="translate(290.7, 74.3496)">
    <path d="M33.5 0 C33.5 0 35.2 0.9502 35.2 0.9502 C35.2 0.9502 0 21.3008 0 21.3008 C0 21.3008 0 19.3506 0 19.3506 C0 19.3506 33.5 0 33.5 0 Z"/>
  </g>
  <g transform="translate(324.2, 34.6504)">
    <path d="M0 1 C0 1 1.7 0 1.7 0 C1.7 0 1.7 40.6494 1.7 40.6494 C1.7 40.6494 0 39.6992 0 39.6992 C0 39.6992 0 1 0 1 Z"/>
  </g>
  <g transform="translate(318.25, 38.5996)">
    <path d="M0 0 C0 0 1.7 0 1.7 0 C1.7 0 1.7 32.8008 1.7 32.8008 C1.7 32.8008 0 32.8008 0 32.8008 C0 32.8008 0 0 0 0 Z"/>
  </g>
  <g transform="translate(290.7, 14.2998)">
    <path d="M0 2 C0 2 0 0 0 0 C0 0 35.2 20.3506 35.2 20.3506 C35.2 20.3506 33.5 21.3506 33.5 21.3506 C33.5 21.3506 0 2 0 2 Z"/>
  </g>
  <g transform="translate(255.45, 14.2998)">
    <path d="M1.7 21.3506 C1.7 21.3506 0 20.3506 0 20.3506 C0 20.3506 35.25 0 35.25 0 C35.25 0 35.25 2 35.25 2 C35.25 2 1.7 21.3506 1.7 21.3506 Z"/>
  </g>
  <g transform="translate(261.85, 21.4502)">
    <path d="M0.85 17.8496 C0.85 17.8496 0 16.3994 0 16.3994 C0 16.3994 28.4 0 28.4 0 C28.4 0 29.25 1.4502 29.25 1.4502 C29.25 1.4502 0.85 17.8496 0.85 17.8496 Z"/>
  </g>
  <g transform="translate(255.45, 34.6504)">
    <path d="M1.7 39.6992 C1.7 39.6992 0.85 40.1992 0.85 40.1992 C0.85 40.1992 0 39.6992 0 39.6992 C0 39.6992 0 0 0 0 C0 0 1.7 1 1.7 1 C1.7 1 1.7 39.6992 1.7 39.6992 Z"/>
  </g>
</svg>
