<?xml version="1.0"?>
<svg xmlns="http://www.w3.org/2000/svg" xmlns:xlink="http://www.w3.org/1999/xlink" xmlns:cml="http://www.xml-cml.org/schema" width="287.846" height="240" x="0" y="0" viewBox="0 0 287.846 240" font-family="sans-serif" stroke-width="1" stroke-linecap="round">
  <line x1="201.9" y1="86.5" x2="178.6" y2="100.0" stroke-width="2.0"/>
  <line x1="143.9" y1="80.0" x2="143.9" y2="53.0" stroke-width="2.0"/>
  <line x1="109.3" y1="140.0" x2="85.9" y2="153.5" stroke-width="2.0"/>
  <line x1="61.9" y1="156.1" x2="49.8" y2="149.1" stroke-width="2.0"/>
  <line x1="64.9" y1="150.9" x2="52.8" y2="143.9" stroke-width="2.0"/>
  <line x1="74.6" y1="173.0" x2="74.6" y2="187.0" stroke-width="2.0"/>
  <line x1="178.6" y1="140.0" x2="201.9" y2="153.5" stroke-width="2.0"/>
  <line x1="216.2" y1="173.0" x2="216.2" y2="187.0" stroke-width="2.0"/>
  <line x1="210.2" y1="173.0" x2="210.2" y2="187.0" stroke-width="2.0"/>
  <line x1="224.5" y1="153.5" x2="236.6" y2="146.5" stroke-width="2.0"/>
  <line x1="178.6" y1="100.0" x2="178.6" y2="140.0" stroke-width="2.0"/>
  <line x1="171.4" y1="106.0" x2="171.4" y2="134.0" stroke-width="2.0"/>
  <line x1="178.6" y1="140.0" x2="143.9" y2="160.0" stroke-width="2.0"/>
  <line x1="143.9" y1="160.0" x2="109.3" y2="140.0" stroke-width="2.0"/>
  <line x1="142.3" y1="150.8" x2="118.1" y2="136.8" stroke-width="2.0"/>
  <line x1="109.3" y1="140.0" x2="109.3" y2="100.0" stroke-width="2.0"/>
  <line x1="109.3" y1="100.0" x2="143.9" y2="80.0" stroke-width="2.0"/>
  <line x1="118.1" y1="103.2" x2="142.3" y2="89.2" stroke-width="2.0"/>
  <line x1="143.9" y1="80.0" x2="178.6" y2="100.0" stroke-width="2.0"/>
  <text x="209.205081" y="88.000000" fill="rgb(102,102,102)" stroke="rgb(102,102,102)" stroke-width="1" font-size="16">CH</text>
  <text x="233.205081" y="91.680000" fill="rgb(102,102,102)" stroke="rgb(102,102,102)" stroke-width="1" font-size="13">3</text>
  <text x="137.923048" y="48.000000" fill="rgb(255,12,12)" stroke="rgb(255,12,12)" stroke-width="1" font-size="16">OH</text>
  <text x="79.441016" y="155.968000" fill="rgb(12,12,255)" stroke="rgb(12,12,255)" stroke-width="1" font-size="16">+</text>
  <text x="68.641016" y="168.000000" fill="rgb(12,12,255)" stroke="rgb(12,12,255)" stroke-width="1" font-size="16">N</text>
  <text x="34.000000" y="148.000000" fill="rgb(255,12,12)" stroke="rgb(255,12,12)" stroke-width="1" font-size="16">O</text>
  <text x="79.441016" y="185.888000" fill="rgb(255,12,12)" stroke="rgb(255,12,12)" stroke-width="1" font-size="16">_</text>
  <text x="68.641016" y="208.000000" fill="rgb(255,12,12)" stroke="rgb(255,12,12)" stroke-width="1" font-size="16">O</text>
  <text x="218.005081" y="155.968000" fill="rgb(12,12,255)" stroke="rgb(12,12,255)" stroke-width="1" font-size="16">+</text>
  <text x="207.205081" y="168.000000" fill="rgb(12,12,255)" stroke="rgb(12,12,255)" stroke-width="1" font-size="16">N</text>
  <text x="207.205081" y="208.000000" fill="rgb(255,12,12)" stroke="rgb(255,12,12)" stroke-width="1" font-size="16">O</text>
  <text x="252.646097" y="125.888000" fill="rgb(255,12,12)" stroke="rgb(255,12,12)" stroke-width="1" font-size="16">_</text>
  <text x="241.846097" y="148.000000" fill="rgb(255,12,12)" stroke="rgb(255,12,12)" stroke-width="1" font-size="16">O</text>
  <text font-size="18.000000" fill="black" font-family="sans-serif" x="10.000000" y="20.000000"></text>
</svg>
