<svg xmlns="http://www.w3.org/2000/svg" width="211.448" height="180.634" viewBox="0 0 211.448 180.634" overflow="visible">
  <path d="M75.0694 105.8657l-1.614.95v-37.716l.8065-.475.8075.475v36.766zM79.1069 71.9031h1.614v31.16h-1.614v-31.16z"/>
  <path d="M106.8944 124.2472v.95l-.8075.475-32.6316-18.8565 1.6141-.95 31.825 18.3815zM138.7194 105.8657l1.614.95-32.6315 18.8565-.8075-.475v-.95l31.825-18.3816zM133.4944 102.3972l.8075 1.3775-26.981 15.58-.853-1.3765 27.0265-15.581z"/>
  <path d="M138.7194 69.0997l.8075-.475.8065.475v37.716l-1.614-.95v-36.766zM106.8944 50.7172v-.9016l.8075-.475 31.825 18.3826v.9015l-.8075.475-31.825-18.3825zM106.4678 57.0356l.8531-1.425 26.981 15.58-.8075 1.425-27.0266-15.58z"/>
  <path d="M75.0694 69.0997l-.8075-.475v-.9016l31.825-18.3825.8075.475v.9016l-31.825 18.3825zM99.0626 13.1789c0-2.7094.7277-4.8308 2.1831-6.364 1.4554-1.5324 3.3345-2.299 5.6363-2.299 1.5077 0 2.8662.36 4.0765 1.0801 1.2103.7201 2.1337 1.7242 2.7683 3.0124.6346 1.2882.9519 2.7493.9519 4.3815 0 1.6549-.3344 3.1368-1.0023 4.4431-.6678 1.3072-1.615 2.2961-2.8405 2.9678-1.2245.6717-2.5469 1.008-3.9643 1.008-1.5371 0-2.9108-.3715-4.1211-1.1134-1.2103-.742-2.127-1.7557-2.7512-3.04-.6242-1.2845-.9367-2.6439-.9367-4.0765zm2.2268.0275c0 1.9666.5291 3.516 1.5874 4.6484 1.0583 1.1324 2.3864 1.6976 3.9824 1.6976 1.6264 0 2.965-.5718 4.0166-1.7147 1.0498-1.1428 1.5752-2.7645 1.5752-4.865 0-1.328-.2242-2.488-.6736-3.4788-.4493-.9909-1.1068-1.7594-1.9722-2.3047-.8645-.5453-1.8354-.818-2.9127-.818-1.5295 0-2.8462.5254-3.9491 1.5751-1.103 1.0498-1.654 2.8044-1.654 5.2602zM117.5391 21.1257V4.798h2.167v6.7098h8.4464V4.798h2.167v16.3286h-2.167v-7.6893h-8.4464v7.6893h-2.167v-.001z"/>
  <path d="M106.0869 23.4997h1.615v25.841l-.8075.475-.8075-.475v-25.841zM5.2862 50.8464c0-2.7094.7277-4.8308 2.1831-6.364 1.4554-1.5324 3.3345-2.299 5.6364-2.299 1.5076 0 2.8661.36 4.0764 1.0801 1.2103.7201 2.1328 1.7242 2.7683 3.0124.6346 1.2883.9519 2.7494.9519 4.3815 0 1.6548-.3344 3.1368-1.0022 4.4431-.6688 1.3072-1.615 2.2962-2.8405 2.9678-1.2255.6717-2.547 1.008-3.9653 1.008-1.5371 0-2.9108-.3715-4.1211-1.1135-1.2103-.7419-2.1271-1.7556-2.7513-3.04-.6241-1.2853-.9357-2.6448-.9357-4.0764zm2.2268.0275c0 1.9666.5291 3.516 1.5874 4.6484 1.0583 1.1324 2.3865 1.6976 3.9825 1.6976 1.6263 0 2.9649-.5719 4.0165-1.7147 1.0508-1.1429 1.5761-2.7645 1.5761-4.865 0-1.328-.2242-2.488-.6735-3.4789-.4494-.9908-1.1068-1.7594-1.9722-2.3047-.8655-.5453-1.8364-.8179-2.9128-.8179-1.5295 0-2.8462.5253-3.9491 1.5751-1.103 1.0497-1.6549 2.8035-1.6549 5.2601zM30.407 61.628v1.4401h-8.1044a2.6439 2.6439 0 0 1 .1767-1.045c.2071-.551.5387-1.0925.9956-1.6264.456-.5339 1.1115-1.1504 1.9665-1.8506 1.3262-1.0944 2.2249-1.9598 2.698-2.5963.4731-.6365.7097-1.2388.7097-1.8079 0-.5947-.2138-1.0963-.6413-1.5048-.4275-.4085-.9851-.6127-1.672-.6127-.7277 0-1.3081.2175-1.7442.6536-.436.4351-.6564 1.0393-.6621 1.8097l-1.5438-.1634c.1055-1.1542.5045-2.0349 1.197-2.64.6916-.6052 1.6207-.9073 2.7873-.9073 1.177 0 2.109.3259 2.7949.9776.6859.6517 1.0289 1.4582 1.0289 2.4225 0 .4911-.1007.9718-.3012 1.445-.2004.473-.5348.9708-1.0003 1.4952-.4665.5235-1.2388 1.2426-2.318 2.1556-.9035.7571-1.484 1.2711-1.7414 1.54-.2574.2707-.4712.5414-.6393.8141h6.0135v.001zM32.3061 58.7931V42.4645h2.223l8.5538 12.8136V42.4645h2.0786v16.3286h-2.223l-8.5538-12.8145v12.8145h-2.0786zM50.8444 56.0857l.8075-1.425 22.61 13.0625v.9015l-.8066.475-22.6109-13.014zM100.4135 171.8431v-16.3285h2.223l8.5528 12.8135v-12.8136h2.0786v16.3286h-2.223l-8.5528-12.8145v12.8145h-2.0786zM116.2405 163.8964c0-2.7094.7277-4.8308 2.184-6.364 1.4545-1.5324 3.3345-2.299 5.6354-2.299 1.5086 0 2.8671.36 4.0765 1.0801 1.2103.7201 2.1337 1.7242 2.7683 3.0124.6346 1.2883.9519 2.7494.9519 4.3815 0 1.6549-.3344 3.1369-1.0023 4.4431-.6678 1.3072-1.615 2.2962-2.8405 2.9678-1.2245.6716-2.5469 1.008-3.9653 1.008-1.5361 0-2.9108-.3715-4.121-1.1135-1.2104-.7419-2.1262-1.7555-2.7513-3.04-.6241-1.2853-.9357-2.6448-.9357-4.0764zm2.2268.0275c0 1.9665.5291 3.516 1.5884 4.6484 1.0573 1.1314 2.3864 1.6976 3.9814 1.6976 1.6274 0 2.965-.5719 4.0176-1.7147 1.0497-1.1429 1.5751-2.7645 1.5751-4.865 0-1.328-.2242-2.488-.6736-3.4789-.4493-.9908-1.1067-1.7594-1.9722-2.3047-.8645-.5453-1.8354-.8179-2.9127-.8179-1.5285 0-2.8462.5253-3.9482 1.5751-1.1048 1.0497-1.6558 2.8034-1.6558 5.2601zM140.8493 174.678v1.4401h-8.1045a2.661 2.661 0 0 1 .1767-1.045c.2081-.551.5396-1.0925.9966-1.6264.457-.5338 1.1115-1.1504 1.9665-1.8505 1.3252-1.0945 2.2249-1.9599 2.698-2.5964.4731-.6365.7087-1.2388.7087-1.8078 0-.5948-.2137-1.0964-.6412-1.5049-.4276-.4085-.9842-.6127-1.673-.6127-.7277 0-1.3081.2175-1.7442.6536-.436.4351-.6564 1.0393-.6621 1.8097l-1.5438-.1634c.1055-1.1542.5045-2.0349 1.197-2.64.6926-.6052 1.6217-.9073 2.7873-.9073 1.177 0 2.11.3259 2.7949.9776.6859.6517 1.0289 1.4582 1.0289 2.4225 0 .4911-.0998.9718-.3002 1.445-.2014.473-.5349.9709-1.0004 1.4952-.4674.5235-1.2397 1.2426-2.319 2.1556-.9024.7571-1.4829 1.2711-1.7403 1.54-.2575.2707-.4712.5415-.6403.8141h6.0144v.001zM107.7019 153.3656h-1.615v-27.6934l.8075-.475.8075.475v27.6934zM165.726 58.7931V42.4645h2.223l8.5538 12.8136V42.4645h2.0786v16.3286h-2.223l-8.5538-12.8145v12.8145h-2.0786zM181.553 50.8464c0-2.7094.7277-4.8308 2.184-6.364 1.4545-1.5324 3.3346-2.299 5.6355-2.299 1.5085 0 2.867.36 4.0764 1.0801 1.2103.7201 2.1337 1.7242 2.7683 3.0124.6346 1.2883.9519 2.7494.9519 4.3815 0 1.6548-.3344 3.1368-1.0023 4.4431-.6678 1.3072-1.615 2.2962-2.8405 2.9678-1.2245.6717-2.5469 1.008-3.9653 1.008-1.5361 0-2.9108-.3715-4.121-1.1135-1.2104-.7419-2.1262-1.7556-2.7513-3.04-.6241-1.2853-.9357-2.6448-.9357-4.0764zm2.2268.0275c0 1.9666.5291 3.516 1.5884 4.6484 1.0573 1.1314 2.3864 1.6976 3.9815 1.6976 1.6273 0 2.9649-.5719 4.0175-1.7147 1.0497-1.1429 1.5751-2.7645 1.5751-4.865 0-1.328-.2242-2.488-.6736-3.4789-.4493-.9908-1.1067-1.7594-1.9722-2.3047-.8645-.5453-1.8354-.8179-2.9127-.8179-1.5285 0-2.8462.5253-3.9482 1.5751-1.1048 1.0497-1.6558 2.8035-1.6558 5.2601z"/>
  <g>
    <path d="M206.1618 61.628v1.4401h-8.1045a2.661 2.661 0 0 1 .1767-1.045c.2081-.551.5396-1.0925.9966-1.6264.457-.5339 1.1115-1.1504 1.9665-1.8506 1.3252-1.0944 2.2249-1.9598 2.698-2.5963.4731-.6365.7087-1.2388.7087-1.8079 0-.5947-.2137-1.0963-.6412-1.5048-.4276-.4085-.9842-.6127-1.673-.6127-.7277 0-1.3081.2175-1.7442.6536-.436.4351-.6564 1.0393-.6621 1.8097l-1.5438-.1634c.1055-1.1542.5045-2.0349 1.197-2.64.6926-.6052 1.6217-.9073 2.7873-.9073 1.177 0 2.11.3259 2.7949.9776.6859.6517 1.0289 1.4582 1.0289 2.4225 0 .4911-.0998.9718-.3002 1.445-.2014.473-.5349.9708-1.0004 1.4952-.4674.5235-1.2397 1.2426-2.319 2.1556-.9024.7571-1.4829 1.2711-1.7403 1.54-.2575.2707-.4712.5414-.6403.8141h6.0144v.001z"/>
  </g>
  <path d="M161.9944 54.7547l.8075 1.3775-22.4684 12.9675-.8066-.475v-.9016l22.4675-12.9684z"/>
</svg>
