<svg xmlns="http://www.w3.org/2000/svg" version="1" width="1332" height="553" viewBox="0 0 1332 553">
  <path d="M219.0252 540.3437c-.2818-.7345-.3912-11.6758-.243-24.3139l.2693-22.9783h7l.2862 9.75.2862 9.75h23.9276v-20h7v49h-7v-23H226.617l-.2828 11.25-.2827 11.25-3.257.3138c-2.0361.1963-3.4489-.1866-3.7693-1.0216zM235.53 439.8015l-.0215-40.75-48.5529-28c-26.704-15.4-49.532-28.378-50.7285-28.8399-1.7813-.6876-8.1543 2.6125-35.1628 18.2082-32.1501 18.5647-33.017 18.9924-34.1623 16.8524-.6463-1.2076-.9903-2.4947-.7644-2.8601.2259-.3655 15.0364-9.0877 32.9123-19.3827l32.5016-18.7181-.0168-58.63-.0167-58.6298-32.1005-18.4755C81.7623 190.4145 66.66 181.62 65.8567 181.0327c-1.2616-.9225-1.2116-1.3564.3671-3.1865l1.8277-2.1186 33.4463 19.3983c30.4136 17.6394 33.6325 19.278 35.5 18.071 1.1295-.73 23.7662-13.8396 50.3037-29.1325l48.25-27.8053V73.5515h6v82.5388l50.5346 29.1559 50.5346 29.1559 33.0068-19.0598c31.3055-18.0773 33.0804-18.9626 34.4336-17.1753.7847 1.0365 1.441 2.1605 1.4586 2.4978.0175.3374-14.8005 9.1124-32.9288 19.5l-32.9605 18.8867-.0395 58.5373-.0394 58.5373 31.1264 17.9627c17.1195 9.8795 31.7996 18.447 32.6225 19.0389 1.577 1.1343.9388 5.4238-.8068 5.4238-.5077 0-15.3316-8.325-32.9421-18.5-17.6105-10.175-32.5773-18.4643-33.2595-18.4206-.6823.0436-23.5155 12.9875-50.7405 28.7642l-49.5 28.685-.2612 40.7357-.2613 40.7357h-5.9775l-.0215-40.75zm78.7715-89.008l25.25-14.5366-.0315-58.6027-.0315-58.6027-49.5075-28.5c-27.2291-15.675-50.091-28.6313-50.8042-28.7917-.7132-.1604-23.7581 12.6832-51.211 28.5415l-49.9143 28.8331-.258 58.4663-.2578 58.4662 50.5784 29.1561 50.5785 29.1562 25.1794-14.5246a82282.8775 82282.8775 0 0 1 50.4295-29.0612zm-75.9002 22.3277c-.646-1.418-.9891-2.7433-.7623-2.945 1.0409-.9257 82.2604-47.604 82.4391-47.3793.1114.14.721 1.2517 1.3548 2.4704 1.3972 2.6867 5.9842-.3166-39.3814 25.7844-19.8 11.392-37.457 21.598-39.2378 22.6801l-3.2377 1.9676-1.1747-2.5782zm-84.8498-95.5697v-48h6v96h-6v-48zm125-68.5202c-22.275-12.8982-40.6318-24.0616-40.793-24.8075-.161-.746.3832-1.9173 1.2095-2.603 1.2528-1.0398 8.1941 2.6122 41.7929 21.9878 22.1598 12.779 40.665 23.566 41.1227 23.9709.7882.6973-1.2408 5.0107-2.3227 4.9375-.2802-.0189-18.7344-10.5875-41.0094-23.4857zm-267 188.0202v-24.5h7v20h24v-20h7v49h-7v-23h-24v23h-7v-24.5zm415.4737 23.2922c-.2818-.7345-.3912-11.6758-.243-24.3139l.2693-22.9783h7l.2862 9.75.2862 9.75h23.9276v-20h7v49h-7v-23H434.617l-.2828 11.25-.2827 11.25-3.257.3138c-2.0361.1963-3.4489-.1866-3.7693-1.0216zm272.2688-53.5642l-52.7575-30.561.2575-61.8923.2575-61.8923 52-30.0448c28.6-16.5246 52.5643-30.272 53.254-30.5497 1.068-.4301 97.5953 54.4006 105.496 59.9253l2.75 1.923v60.8094c0 47.4467-.2747 61.0296-1.25 61.811-2.4585 1.97-105.6509 61.2412-106.4422 61.138-.4443-.058-24.5487-13.858-53.5653-30.6666zm104.8778-5.0378l49.8797-28.8097.2248-58.4403.2249-58.4402-50.412-29c-27.7265-15.95-50.6159-29-50.8651-29-.2493 0-23.0026 13.0125-50.563 28.9167l-50.1096 28.9168.0077 58.5832.0077 58.5833 49.7423 28.7326c27.3582 15.803 50.2464 28.7405 50.8626 28.75.6162.0096 23.5662-12.947 51-28.7924zm-51.449 7.7124c-.7205-1.1536-1.1662-2.2164-.9906-2.3618.1756-.1454 18.7693-10.9072 41.3193-23.915 37.2054-21.4618 41.117-23.4913 42.2635-21.9287.6949.947 1.1142 2.1902.9319 2.7624-.3473 1.0898-79.4496 47.3214-81.2049 47.4605-.5552.044-1.5989-.8638-2.3193-2.0174zm-84.7133-48.1526c-.2635-.6875-.362-22.175-.2186-47.75l.2606-46.5 2.75-.3164 2.75-.3165v96.1329H671.02c-1.3923 0-2.747-.5625-3.0106-1.25zm126.0356-115.049c-22.0036-12.7606-40.5673-23.5658-41.2527-24.0117-1.4366-.9345.0827-4.6893 1.8974-4.6893 1.8767 0 81.8222 46.4566 81.8423 47.5588.0107.5824-.5431 1.7979-1.2306 2.701-1.114 1.4633-5.6064-.8843-41.2564-21.5589zm366.7222 160.4787l-53.2027-30.6797-.0066-61.574-.0065-61.574 52.6739-30.426c28.9706-16.7343 52.991-30.5578 53.3786-30.719.3876-.161 24.6094 13.5027 53.826 30.3638l53.1215 30.6565v123.3411l-52.75 30.388c-29.0125 16.7133-52.9933 30.5038-53.2907 30.6454-.2974.1416-24.482-13.5483-53.7435-30.4221zm103.9523-4.9297l49.8174-28.75.0072-58.5794.0073-58.5794-50.1855-28.9721-50.1854-28.9722-50.3146 29.0453-50.3145 29.0453.0299 58.5062.03 58.5063 49.72 28.6998c27.346 15.785 50.1365 28.7225 50.6454 28.75.509.0276 23.3432-12.8873 50.7428-28.6998zm-57.1681-12.3594c-9.4942-1.076-21.8258-4.9208-29.2775-9.1284-7.0683-3.9911-19.601-13.8278-19.6712-15.4396-.0282-.6476-1.1763-2.0624-2.5513-3.144-1.375-1.0815-2.5-2.4642-2.5-3.0725 0-.6084-.45-1.1061-1-1.1061s-1-.675-1-1.5-.3834-1.5-.852-1.5c-1.0554 0-6.5644-11.8233-8.8997-19.1002-1.3557-4.2245-1.7242-8.8823-1.693-21.3998.0369-14.8525.2345-16.5353 2.7555-23.4642 4.1728-11.4688 10.1272-20.6716 19.2225-29.7092 6.9248-6.8809 9.8718-8.9774 18.6364-13.2583 12.1495-5.9342 20.8302-8.0269 33.3966-8.051 11.4759-.022 18.966 1.3527 28.4337 5.2183 31.9292 13.0367 50.9256 44.763 46.423 77.532-1.6243 11.8212-2.953 16.342-7.4048 25.1952-8.9567 17.8117-23.5868 31.5021-39.6671 37.1192-6.4325 2.247-22.7957 5.9935-25.2806 5.7882-.8638-.0713-4.9455-.5122-9.0705-.9796zm24.6435-7.9388c25.044-6.365 44.729-27.069 49.8703-52.4518 1.8766-9.2653 2.0423-20.4582.4206-28.424-1.2354-6.0685-6.784-20.372-8.1111-20.9094-.4528-.1833-.8233-.9708-.8233-1.75 0-.7791-.45-1.4166-1-1.4166s-1-.675-1-1.5-.45-1.5-1-1.5-1-.6329-1-1.4064c0-2.806-13.928-14.354-22.9028-18.9892-11.1677-5.768-18.8243-7.5749-32.0972-7.5749-13.3285 0-20.9128 1.8034-32.3753 7.6984-16.6605 8.5681-28.9365 23.369-34.526 41.6274-2.8542 9.3232-2.9117 26.1458-.1267 37.0352 7.0388 27.5213 30.142 47.64 59.2209 51.5707 7.7195 1.0435 16.016.3885 25.4506-2.0094zM11.5515 157.0515v-24.5h7v20h24v-20h7v49h-7v-23h-24v23h-7v-24.5zm415.4737 23.2922c-.2818-.7345-.3912-11.6758-.243-24.3139l.2693-22.9783h7l.2862 9.75.2862 9.75h23.9276v-20h7v49h-7v-23H434.617l-.2828 11.25-.2827 11.25-3.257.3138c-2.0361.1963-3.4489-.1866-3.7693-1.0216zm-208-120c-.2818-.7345-.3912-11.6758-.243-24.3139l.2693-22.9783h7l.2862 9.75.2862 9.75h23.9276v-20h7v49h-7v-23H226.617l-.2828 11.25-.2827 11.25-3.257.3138c-2.0361.1963-3.4489-.1866-3.7693-1.0216z"/>
  <path d="M219.5515 517.0515v-24.5h6v20h24.9276l.2862-9.75.2862-9.75h6v48h-6l-.2828-11.25-.2827-11.25h-24.9345v23h-6v-24.5zm16.7612-77.1833l-.2612-40.6832-49-28.3495c-26.95-15.5923-49.7152-28.762-50.5893-29.266-1.1956-.6894-9.733 3.7766-34.4727 18.0328-18.0859 10.422-33.2174 18.9492-33.6255 18.9492-.4082 0-1.2042-.8634-1.769-1.9186-1.0618-1.9842-2.307-1.2173 63.2144-38.9344l2.7579-1.5876-.258-58.468-.2578-58.4679L99.68 200.4418c-17.8043-10.3033-32.7815-19.1433-33.2828-19.6445-1.06-1.06-.0756-4.2458 1.3118-4.2458.519 0 15.8055 8.5831 33.97 19.0737l33.0265 19.0736 17.173-9.8912c9.4451-5.4402 32.3583-18.636 50.918-29.3237l33.7452-19.4324.0049-41.3196.0049-41.3195 2.25.3195 2.25.3196.5 41.3357.5 41.3357 50.284 28.992 50.284 28.992 32.716-18.9536c27.2042-15.7605 32.9496-18.735 34.1027-17.6553.7627.7141 1.1462 1.8958.8523 2.626-.294.73-14.984 9.6436-32.6446 19.8079l-32.1101 18.4803.2578 58.8783.2579 58.8782 32.25 18.6025c17.7375 10.2313 32.25 18.8714 32.25 19.2002 0 .3288-.5625 1.3484-1.25 2.2657-1.121 1.4958-4.626-.2831-33.9645-17.238l-32.7145-18.9058-50.5355 29.1728-50.5355 29.1729v81.5125h-4.9776l-.2612-40.6833zm52.7388-74.1949l50-28.8452.2578-58.9431.2579-58.9431-50.1898-28.9452c-27.6044-15.9199-50.6705-28.8035-51.2579-28.6302-.5874.1733-23.455 13.2233-50.817 29l-49.749 28.685.249 58.8188.249 58.8189 50 28.8846c27.5 15.8865 50.225 28.898 50.5 28.9146.275.0166 23-12.9502 50.5-28.815zm-50.4818 6.9123c-.8602-1.6074-.6388-2.2265 1.2149-3.3955 6.0181-3.7955 78.9947-45.6386 79.596-45.6386.3794 0 1.228.8619 1.886 1.9154 1.1068 1.7723-1.8547 3.6768-39.6527 25.5-22.4668 12.9715-41.106 23.5846-41.4204 23.5846-.3144 0-1.0451-.8847-1.6238-1.9659zm-84.778-94.7841l.2598-47.75 2.25-.3196 2.25-.3195v96.1391h-5.0194l.2597-47.75zm124.5247-69.1723c-22.4042-12.9678-40.7417-23.8292-40.75-24.1366-.0082-.3074.5553-1.3387 1.2523-2.292 1.1529-1.5765 4.9214.3809 41.75 21.6855 22.2655 12.8802 40.6146 24.078 40.7757 24.884.9785 4.8959-2.9451 3.0593-43.028-20.141zM11.5514 397.0515v-24.6267l3.25.3133 3.25.3134.2863 9.75.2862 9.75H42.479l.2863-9.75.2862-9.75h6v48h-6l-.2828-11.25-.2827-11.25H18.617l-.2828 11.25-.2827 11.25-3.25.3133-3.25.3134v-24.6267zm416 0v-24.5h6v20h24.9277l.2862-9.75.2862-9.75h6v48h-6l-.2828-11.25-.2827-11.25h-24.9345v23h-6v-24.5zm274.6147-29.0558c-27.987-16.1654-51.9495-30.0889-53.25-30.941l-2.3646-1.5493V213.0338l36.25-20.9274c19.9375-11.5101 43.9446-25.3577 53.349-30.7724l17.0992-9.8449 53.1509 30.663 53.1509 30.663v123.2792l-46.6878 26.9786c-25.6783 14.8382-49.6408 28.6292-53.25 30.6465l-6.5622 3.668-50.8854-29.3917zm108.1962-9.4442l44.1615-25.5.0139-58.5546.0138-58.5546-50.6381-29.234-50.6382-29.2339-17.1118 9.8504c-9.4116 5.4178-32.2937 18.5976-50.8491 29.2886l-33.7373 19.438.2373 58.5.2372 58.5 50.5 29.1674 50.5 29.1673 6.5746-3.6673c3.616-2.017 26.4473-15.1423 50.7362-29.1673zm-57.3344 10.9258c-.457-1.44-.2255-2.5075.6597-3.0413.7501-.4523 19.1389-11.1413 40.8639-23.7533 34.7986-20.2015 39.6488-22.7415 40.75-21.34.6875.8751 1.25 1.914 1.25 2.3088 0 .6525-78.1555 46.255-81.4221 47.5085-.8494.3259-1.6733-.3338-2.1015-1.6827zm-84.4764-94.9258v-48h5v96h-5v-48zm124.5-69.1402c-22-12.711-40.1536-23.2454-40.3413-23.41-.1877-.1645-.0346-1.2656.3403-2.4468.4702-1.4816 1.1964-1.9515 2.3413-1.5153 2.0997.8001 76.9916 43.9377 79.6287 45.866 1.6634 1.2163 1.7561 1.67.6208 3.038-.7341.8846-1.6171 1.6017-1.9623 1.5936-.3451-.008-18.6275-10.4145-40.6275-23.1255zm367.4902 160.8342l-52.4902-30.306-.2576-61.0652c-.203-48.0944.0095-61.2813 1-62.0824 2.3469-1.8982 104.2512-60.511 105.259-60.5425.5509-.0172 24.7353 13.6562 53.743 30.3854l52.7415 30.4167.007 61.1275c.0056 47.7098-.2673 61.3467-1.243 62.1259-2.7183 2.171-104.0562 60.2466-105.1261 60.2466-.6288 0-24.764-13.6377-53.6336-30.306zm108.7994-6.694l46.1273-26.5.0275-58.5.0274-58.5-50.1688-28.9167c-27.593-15.9042-50.6491-28.9105-51.236-28.903-1.0275.013-97.7601 55.5246-100.325 57.5731-.9901.7908-1.2031 13.3693-1 59.0634l.258 58.0587 50.5 29.1572 50.5 29.1572 4.581-2.595c2.5198-1.4272 25.3386-14.52 50.7086-29.095zm-58.7896-10.113c-29.3825-3.3139-51.2724-17.656-63.2994-41.4734-5.9551-11.793-7.205-17.7239-7.1466-33.9136.0512-14.223.217-15.4554 3.2005-23.791 4.0774-11.3921 10.2199-20.5084 20.3208-30.1588 6.6262-6.3306 10.0222-8.67 18.2813-12.5933 20.9086-9.9323 41.315-10.5254 61.8747-1.7984 10.2996 4.3719 16.4695 8.7484 24.91 17.669 8.5747 9.0628 13.0277 16.1692 17.2363 27.507 2.8546 7.6903 3.0244 8.9511 2.9163 21.6655-.0855 10.063-.629 15.444-2.1342 21.1356-5.1614 19.516-17.8466 36.1418-35.2656 46.2205-5.8425 3.3805-17.7684 7.4742-24.8941 8.545-3.025.4547-6.175 1.0528-7 1.3292-.825.2765-4.875.122-9-.3432zm21-7.077c12.9075-3.0645 29.5399-13.7392 37.099-23.81 19.0926-25.437 20.2922-58.3904 3.0498-83.7809-8.4508-12.4444-24.646-24.0298-38.713-27.6938-7.867-2.0491-29.0047-2.0491-36.8716 0-21.4148 5.5778-40.7802 24.35-48.6168 47.1276-2.7333 7.9446-2.74 27.9281-.0128 38.5912 7.0655 27.626 29.8067 47.1614 59.5654 51.1686 4.44.598 19.335-.3765 24.5-1.6028zm-1220-185.31v-24.6267l3.25.3133 3.25.3134.2862 9.75.2862 9.75H42.479l.2863-9.75.2862-9.75h6v48h-6l-.2828-11.25-.2827-11.25H18.617l-.2828 11.25-.2827 11.25-3.25.3133-3.25.3134v-24.6267zm416 0v-24.5h6v20h24.9276l.2862-9.75.2862-9.75h6v48h-6l-.2828-11.25-.2827-11.25h-24.9345v23h-6v-24.5zm-208-120v-24.5h6v20h24.9276l.2862-9.75.2862-9.75h6v48h-6l-.2828-11.25-.2827-11.25h-24.9345v23h-6v-24.5z"/>
  <path d="M219.5515 517.0515v-23.5h6v20.0597l12.75-.2798 12.75-.28.2862-9.75c.2823-9.6176.3196-9.75 2.75-9.75h2.4638v47h-5v-22h-26v22h-6v-23.5zm17-77.2568v-40.7568l-50.1998-28.9932c-27.6099-15.9463-50.6724-29.1-51.25-29.2306-.5776-.1306-15.6752 8.2509-33.5502 18.6255-27.8414 16.1591-32.7089 18.6668-33.9572 17.4946-.925-.8688-1.1076-1.7124-.5-2.3104.5265-.518 15.3572-9.2493 32.9572-19.4027l32-18.4608.2578-58.8642.2578-58.8642-33.481-19.3561c-30.2219-17.472-33.382-19.5408-32.4658-21.253.752-1.4052 1.4578-1.6596 2.7232-.9816.9394.5033 15.8078 9.059 33.0408 19.0127 17.2331 9.9537 31.7907 18.0976 32.3503 18.0976.5595 0 23.3597-12.8942 50.6671-28.6539 27.3074-15.7596 50.0998-28.6594 50.6498-28.6663.6547-.0082.9062-14.282.7284-41.3462-.2697-41.0467-.2574-41.3336 1.7716-41.3336s2.0413.2869 1.7716 41.3336c-.1883 28.6507.054 41.3336.7896 41.3334.5837-.0002 23.427 12.8996 50.763 28.6663s50.1687 28.6667 50.7395 28.6667c.5708 0 15.4524-8.325 33.0702-18.5 17.6177-10.175 32.3967-18.5 32.8422-18.5 1.4707 0 2.1183 3.3233.8077 4.1452-.706.4428-15.5583 9.0287-33.0048 19.08l-31.721 18.2748-.279 59.0835c-.1913 40.511.0487 59.0834.7636 59.0833.8496-.0001 55.3032 30.9805 63.2032 35.9586 1.8476 1.1643 2.0452 1.7363 1.1149 3.226-1.032 1.6525-3.765.2867-31.2458-15.6157-16.5632-9.5846-31.3858-18.0875-32.9392-18.8952-2.7907-1.4513-3.427-1.1215-53.7283 27.8454l-50.904 29.314-.0218 40.75c-.0213 40.0762-.0547 40.75-2.0216 40.75-1.9673 0-2-.6666-2-40.7567zm52.8115-73.9004c27.3287-15.7614 50.1385-28.6613 50.6885-28.6665.6583-.0061.9079-20.1953.7304-59.0928l-.2697-59.0835-26.7303-15.4352c-14.7018-8.4894-37.624-21.707-50.9382-29.3725l-24.2079-13.9374-51.001 29.3725-51.001 29.3726-.2912 59.1547c-.1601 32.5351-.0297 58.9931.2897 58.7955.3195-.1975 23.0445 12.6359 50.5 28.5188 27.4556 15.8828 50.5094 28.9124 51.2307 28.9544.7214.0421 23.6714-12.8191 51-28.5806zM238.8138 372.6c-1.0203-1.6338 2.8552-4.117 39.5533-25.343 35.1934-20.3558 40.881-23.342 42.1415-22.1258.9208.8885 1.1049 1.7444.5 2.3255-.7956.7643-72.526 42.3976-79.0104 45.8586-1.6611.8867-2.2692.75-3.1844-.7153zm-84.2623-95.0485c0-46.3334.0283-47 2-47 1.9716 0 2 .6666 2 47 0 46.3333-.0284 47-2 47-1.9717 0-2-.6667-2-47zm124.4692-69.0679c-21.966-12.6873-40.1284-23.258-40.3608-23.4904-.2324-.2324-.0144-1.261.4845-2.2856.8157-1.6754 4.8867.4436 40.407 21.0322 21.725 12.5923 40.0808 23.242 40.7907 23.6659 1.2601.7525.6923 4.1458-.6939 4.1458-.379 0-18.6614-10.3806-40.6275-23.0679zM11.5515 397.0515v-23.5h5.9275l.2863 9.75.2862 9.75h25l.2862-9.75c.2823-9.6177.3196-9.75 2.75-9.75h2.4638v47h-5v-22h-26v22h-6v-23.5zm416 0v-23.5h6v20.0597l12.75-.2798 12.75-.28.2862-9.75c.2823-9.6176.3196-9.75 2.75-9.75h2.4638v47h-5v-22h-26v22h-6v-23.5zm272.2801-30.8401l-52.2198-30.16-.0442-61.5722-.0442-61.5723 51.764-29.8277c28.4702-16.4053 52.136-30.0332 52.5908-30.2842.4546-.251.6796.7559.5 2.2376-.2933 2.418-5.4461 5.6481-50.3267 31.5472l-50 28.8534-.2579 58.874-.2578 58.8742 49.2578 28.3454c27.0918 15.59 49.8592 28.8906 50.5942 29.557.735.6665 1.185 2.1288 1 3.2496-.2932 1.7768-7.026-1.8258-52.5562-28.122zm53.898 27.8348c.2848-2.3175 6.0845-5.9523 50.3219-31.5382 28.846-16.684 50.6346-28.6903 51.5-28.3785 1.2015.433 1.2512.2899.25-.7188-.971-.9781-1.25-14.1175-1.25-58.8592 0-44.6951.28-57.9017 1.25-58.9467.8613-.928.8804-1.1391.0613-.679-.6557.3685-23.7469-12.3538-51.5-28.3742-43.2327-24.956-50.3558-29.391-50.6277-31.5211-.174-1.3635-.101-2.479.1623-2.479.643 0 102.8113 58.946 104.4117 60.2404.9905.801 1.203 13.988 1 62.0826l-.2576 61.0655-49 28.353c-26.95 15.5942-50.7199 29.2575-52.822 30.3628l-3.8219 2.0097.322-2.6193zm407.134-27.9464l-52.1878-30.0483-.068-61.5-.068-61.5 47.6859-27.5c26.2272-15.125 49.8873-28.7652 52.5782-30.3116l4.8923-2.8115-.3223 2.7302c-.2915 2.4689-5.133 5.5047-50.5724 31.7124l-50.25 28.9821v117.2166l50.0853 28.8813c27.5468 15.8846 50.3099 29.4668 50.5845 30.1824 1.8512 4.824-2.66 2.581-52.3576-26.0336zm53.8632 27.8407c.2963-2.5393 4.7-5.3051 50.3156-31.6005 27.495-15.8497 50.6212-28.5758 51.3915-28.2802 1.0827.4155 1.1433.2276.2672-.8281-.8091-.975-1.2072-18.0198-1.3915-59.5814l-.2581-58.2158-49.5-28.5418c-27.225-15.698-49.8756-28.8947-50.3347-29.3261-.459-.4315-.684-1.7215-.5-2.8667.2949-1.8343 6.5846 1.526 52.8347 28.227l52.5 30.309v122.4353l-48.5 27.9927c-26.675 15.3959-50.4461 29.1326-52.8247 30.526l-4.3247 2.5335.3247-2.783zm-461.5362-24.887c-.7122-1.856-3.8181.0916 42.2998-26.5229 35.3396-20.3943 38.5434-22.04 39.7347-20.4108 1.1265 1.5407.9386 1.9865-1.439 3.4139-14.9332 8.9655-78.1855 45.0178-78.9818 45.0178-.5714 0-1.2975-.6741-1.6137-1.498zm455.8609-20.1063c-14.7342-2.0027-24.2825-5.2954-34.6313-11.9425-14.8066-9.5103-25.006-22.99-31.0526-41.0396-2.0245-6.0431-2.3161-8.8652-2.3161-22.4136 0-14.3408.2078-16.1051 2.779-23.5905 5.9808-17.4119 20.5869-33.9051 37.1326-41.9303 11.9304-5.7866 19.4287-7.4497 33.5884-7.4497 14.1703 0 21.6578 1.663 33.6272 7.4686 6.8892 3.3415 11.119 6.3007 17.25 12.0683 4.4676 4.2028 8.1228 8.2696 8.1228 9.0375 0 .7678.45 1.396 1 1.396s1 .675 1 1.5.45 1.5 1 1.5 1 .6376 1 1.4167c0 .7792.35 1.5667.7779 1.75.9714.4163 5.4664 10.6708 7.598 17.3334 5.0417 15.7581 3.0512 37.7588-4.8325 53.4139-9.88 19.6187-27.2472 33.8305-47.6685 39.0074-7.9807 2.0231-19.2661 3.1687-24.375 2.4744zm17.5705-5.4017c17.3695-3.6951 33.5-13.327 42.6064-25.4412 18.0043-23.951 20.4109-55.0474 6.1439-79.3874-5.3473-9.1227-17.9295-20.9902-27.5341-25.97-21.3726-11.0814-45.1634-11.0849-66.5734-.0099-12.2036 6.3127-22.8965 17.2948-29.0506 29.8362-2.558 5.213-5.3286 12.1603-6.1568 15.4384-1.9547 7.7362-1.9282 25.1166.051 33.5399 1.659 7.061 7.217 20 8.591 20 .4687 0 .852.675.852 1.5s.45 1.5 1 1.5 1 .4977 1 1.106c0 .6084 1.125 1.991 2.5 3.0726s2.5 2.6089 2.5 3.394c0 .785.3408 1.4274.7572 1.4274s3.2289 2.0309 6.25 4.513c6.5508 5.3824 18.3735 11.697 25.9929 13.8834 4.532 1.3005 10.0657 2.2358 20.5705 3.477.5888.0697 5.3138-.7761 10.5-1.8794zm-558.0705-68.994v-47h5v94h-5v-47zm124.5-69.5246c-37.4604-21.8381-41.1312-24.362-38.6786-26.5926.3732-.3394 18.9937 9.9694 41.3789 22.9086 36.2714 20.9658 40.593 23.7262 39.7148 25.3672-.542 1.0127-1.3072 1.795-1.7003 1.7384-.3932-.0566-18.7148-10.5963-40.7148-23.4216zm-781.5-47.9754v-23.5h5.9275l.2863 9.75.2862 9.75h25l.2862-9.75c.2823-9.6177.3196-9.75 2.75-9.75h2.4638v47h-5v-22h-26v22h-6v-23.5zm416 0v-23.5h6v20.0597l12.75-.2798 12.75-.28.2862-9.75c.2823-9.6176.3196-9.75 2.75-9.75h2.4638v47h-5v-22h-26v22h-6v-23.5zm-208-120v-23.5h6v20.0598l12.75-.28 12.75-.2798.2862-9.75c.2823-9.6177.3196-9.75 2.75-9.75h2.4638v47h-5v-22h-26v22h-6v-23.5z" />
</svg>
