<?xml version="1.0" encoding="UTF-8" standalone="no"?>
<!-- Generator: Adobe Illustrator 12.0.1, SVG Export Plug-In . SVG Version: 6.00 Build 51448)  -->
<svg
   xmlns:dc="http://purl.org/dc/elements/1.1/"
   xmlns:cc="http://web.resource.org/cc/"
   xmlns:rdf="http://www.w3.org/1999/02/22-rdf-syntax-ns#"
   xmlns:svg="http://www.w3.org/2000/svg"
   xmlns="http://www.w3.org/2000/svg"
   xmlns:sodipodi="http://sodipodi.sourceforge.net/DTD/sodipodi-0.dtd"
   xmlns:inkscape="http://www.inkscape.org/namespaces/inkscape"
   version="1.1"
   id="Layer_1"
   width="211.448"
   height="180.634"
   viewBox="0 0 211.448 180.634"
   style="overflow:visible;enable-background:new 0 0 211.448 180.634;"
   xml:space="preserve"
   sodipodi:version="0.32"
   inkscape:version="0.44.1"
   sodipodi:docname="Pikrinsäure.svg"
   sodipodi:docbase="E:\Eigene Dateien"><metadata
   id="metadata70"><rdf:RDF><cc:Work
       rdf:about=""><dc:format>image/svg+xml</dc:format><dc:type
         rdf:resource="http://purl.org/dc/dcmitype/StillImage" /></cc:Work></rdf:RDF></metadata><defs
   id="defs68" /><sodipodi:namedview
   inkscape:window-height="573"
   inkscape:window-width="925"
   inkscape:pageshadow="2"
   inkscape:pageopacity="0.0"
   guidetolerance="10.0"
   gridtolerance="10.0"
   objecttolerance="10.0"
   borderopacity="1.0"
   bordercolor="#666666"
   pagecolor="#ffffff"
   id="base"
   inkscape:zoom="2.0926293"
   inkscape:cx="105.724"
   inkscape:cy="90.317001"
   inkscape:window-x="88"
   inkscape:window-y="88"
   inkscape:current-layer="Layer_1" />
<path
   d="M 75.0694,105.86565 L 73.45535,106.81565 L 73.45535,69.0997 L 74.2619,68.6247 L 75.0694,69.0997 L 75.0694,105.86565 z "
   id="polygon3" />
<path
   d="M 79.106901,71.903148 L 80.720951,71.903148 L 80.720951,103.06315 L 79.106901,103.06315 L 79.106901,71.903148 z "
   id="rect5" />
<path
   d="M 106.8944,124.2472 L 106.8944,125.1972 L 106.0869,125.6722 L 73.45535,106.81565 L 75.0694,105.86565 L 106.8944,124.2472 z "
   id="polygon7" />
<path
   d="M 138.7194,105.86565 L 140.33345,106.81565 L 107.7019,125.6722 L 106.8944,125.1972 L 106.8944,124.2472 L 138.7194,105.86565 z "
   id="polygon9" />
<path
   d="M 133.4944,102.3972 L 134.3019,103.7747 L 107.32095,119.3547 L 106.46785,117.97815 L 133.4944,102.3972 z "
   id="polygon11" />
<path
   d="M 138.7194,69.0997 L 139.5269,68.6247 L 140.33345,69.0997 L 140.33345,106.81565 L 138.7194,105.86565 L 138.7194,69.0997 z "
   id="polygon13" />
<path
   d="M 106.8944,50.7172 L 106.8944,49.81565 L 107.7019,49.34065 L 139.5269,67.72315 L 139.5269,68.6247 L 138.7194,69.0997 L 106.8944,50.7172 z "
   id="polygon15" />
<path
   d="M 106.46785,57.03565 L 107.32095,55.61065 L 134.3019,71.19065 L 133.4944,72.61565 L 106.46785,57.03565 z "
   id="polygon17" />
<path
   d="M 75.0694,69.0997 L 74.2619,68.6247 L 74.2619,67.72315 L 106.0869,49.34065 L 106.8944,49.81565 L 106.8944,50.7172 L 75.0694,69.0997 z "
   id="polygon19" />
<g
   id="g21"
   transform="matrix(0.95,0,0,0.95,5.2862,4.51585)">
	<path
   d="M 98.712,9.119 C 98.712,6.267 99.478,4.034 101.01,2.42 C 102.542,0.807 104.52,0 106.943,0 C 108.53,0 109.96,0.379 111.234,1.137 C 112.508,1.895 113.48,2.952 114.148,4.308 C 114.816,5.664 115.15,7.202 115.15,8.92 C 115.15,10.662 114.798,12.222 114.095,13.597 C 113.392,14.973 112.395,16.014 111.105,16.721 C 109.816,17.428 108.424,17.782 106.932,17.782 C 105.314,17.782 103.868,17.391 102.594,16.61 C 101.32,15.829 100.355,14.762 99.698,13.41 C 99.041,12.058 98.712,10.627 98.712,9.119 z M 101.056,9.148 C 101.056,11.218 101.613,12.849 102.727,14.041 C 103.841,15.233 105.239,15.828 106.919,15.828 C 108.631,15.828 110.04,15.226 111.147,14.023 C 112.252,12.82 112.805,11.113 112.805,8.902 C 112.805,7.504 112.569,6.283 112.096,5.24 C 111.623,4.197 110.931,3.388 110.02,2.814 C 109.11,2.24 108.088,1.953 106.954,1.953 C 105.344,1.953 103.958,2.506 102.797,3.611 C 101.636,4.716 101.056,6.563 101.056,9.148 z "
   id="path23" />
	<path
   d="M 118.161,17.484 L 118.161,0.297 L 120.442,0.297 L 120.442,7.36 L 129.333,7.36 L 129.333,0.297 L 131.614,0.297 L 131.614,17.485 L 129.333,17.485 L 129.333,9.391 L 120.442,9.391 L 120.442,17.485 L 118.161,17.485 L 118.161,17.484 z "
   id="path25" />
</g>
<path
   d="M 106.0869,23.4997 L 107.7019,23.4997 L 107.7019,49.34065 L 106.8944,49.81565 L 106.0869,49.34065 L 106.0869,23.4997 z "
   id="polygon27" />
<g
   id="g29"
   transform="matrix(0.95,0,0,0.95,5.2862,4.51585)">
	<path
   d="M 0,48.769 C 0,45.917 0.766,43.684 2.298,42.07 C 3.83,40.457 5.808,39.65 8.231,39.65 C 9.818,39.65 11.248,40.029 12.522,40.787 C 13.796,41.545 14.767,42.602 15.436,43.958 C 16.104,45.314 16.438,46.852 16.438,48.57 C 16.438,50.312 16.086,51.872 15.383,53.247 C 14.679,54.623 13.683,55.664 12.393,56.371 C 11.103,57.078 9.712,57.432 8.219,57.432 C 6.601,57.432 5.155,57.041 3.881,56.26 C 2.607,55.479 1.642,54.412 0.985,53.06 C 0.328,51.707 0,50.276 0,48.769 z M 2.344,48.798 C 2.344,50.868 2.901,52.499 4.015,53.691 C 5.129,54.883 6.527,55.478 8.207,55.478 C 9.919,55.478 11.328,54.876 12.435,53.673 C 13.541,52.47 14.094,50.763 14.094,48.552 C 14.094,47.154 13.858,45.933 13.385,44.89 C 12.912,43.847 12.22,43.038 11.309,42.464 C 10.398,41.89 9.376,41.603 8.243,41.603 C 6.633,41.603 5.247,42.156 4.086,43.261 C 2.925,44.366 2.344,46.212 2.344,48.798 z "
   id="path31" />
</g>
<g
   id="g33"
   transform="matrix(0.95,0,0,0.95,5.2862,4.51585)">
	<path
   d="M 26.443,60.118 L 26.443,61.634 L 17.912,61.634 C 17.9,61.253 17.962,60.887 18.098,60.534 C 18.316,59.954 18.665,59.384 19.146,58.822 C 19.626,58.26 20.316,57.611 21.216,56.874 C 22.612,55.722 23.558,54.811 24.056,54.141 C 24.554,53.471 24.803,52.837 24.803,52.238 C 24.803,51.612 24.578,51.084 24.128,50.654 C 23.678,50.224 23.091,50.009 22.368,50.009 C 21.602,50.009 20.991,50.238 20.532,50.697 C 20.073,51.155 19.841,51.791 19.835,52.602 L 18.21,52.43 C 18.321,51.215 18.741,50.288 19.47,49.651 C 20.198,49.014 21.176,48.696 22.404,48.696 C 23.643,48.696 24.624,49.039 25.346,49.725 C 26.068,50.411 26.429,51.26 26.429,52.275 C 26.429,52.792 26.323,53.298 26.112,53.796 C 25.901,54.294 25.549,54.818 25.059,55.37 C 24.568,55.921 23.755,56.678 22.619,57.639 C 21.668,58.436 21.057,58.977 20.786,59.26 C 20.515,59.545 20.29,59.83 20.113,60.117 L 26.443,60.117 L 26.443,60.118 z "
   id="path35" />
</g>
<g
   id="g37"
   transform="matrix(0.95,0,0,0.95,5.2862,4.51585)">
	<path
   d="M 28.442,57.134 L 28.442,39.946 L 30.782,39.946 L 39.786,53.434 L 39.786,39.946 L 41.974,39.946 L 41.974,57.134 L 39.634,57.134 L 30.63,43.645 L 30.63,57.134 L 28.442,57.134 z "
   id="path39" />
</g>
<path
   d="M 50.8444,56.08565 L 51.6519,54.66065 L 74.2619,67.72315 L 74.2619,68.6247 L 73.45535,69.0997 L 50.8444,56.08565 z "
   id="polygon41" />
<g
   id="g43"
   transform="matrix(0.95,0,0,0.95,5.2862,4.51585)">
	<path
   d="M 100.134,176.134 L 100.134,158.946 L 102.474,158.946 L 111.477,172.434 L 111.477,158.946 L 113.665,158.946 L 113.665,176.134 L 111.325,176.134 L 102.322,162.645 L 102.322,176.134 L 100.134,176.134 z "
   id="path45" />
	<path
   d="M 116.794,167.769 C 116.794,164.917 117.56,162.684 119.093,161.07 C 120.624,159.457 122.603,158.65 125.025,158.65 C 126.613,158.65 128.043,159.029 129.316,159.787 C 130.59,160.545 131.562,161.602 132.23,162.958 C 132.898,164.314 133.232,165.852 133.232,167.57 C 133.232,169.312 132.88,170.872 132.177,172.247 C 131.474,173.623 130.477,174.664 129.187,175.371 C 127.898,176.078 126.506,176.432 125.013,176.432 C 123.396,176.432 121.949,176.041 120.675,175.26 C 119.401,174.479 118.437,173.412 117.779,172.06 C 117.122,170.707 116.794,169.276 116.794,167.769 z M 119.138,167.798 C 119.138,169.868 119.695,171.499 120.81,172.691 C 121.923,173.882 123.322,174.478 125.001,174.478 C 126.714,174.478 128.122,173.876 129.23,172.673 C 130.335,171.47 130.888,169.763 130.888,167.552 C 130.888,166.154 130.652,164.933 130.179,163.89 C 129.706,162.847 129.014,162.038 128.103,161.464 C 127.193,160.89 126.171,160.603 125.037,160.603 C 123.428,160.603 122.041,161.156 120.881,162.261 C 119.718,163.366 119.138,165.212 119.138,167.798 z "
   id="path47" />
</g>
<g
   id="g49"
   transform="matrix(0.95,0,0,0.95,5.2862,4.51585)">
	<path
   d="M 142.698,179.118 L 142.698,180.634 L 134.167,180.634 C 134.155,180.253 134.218,179.887 134.353,179.534 C 134.572,178.954 134.921,178.384 135.402,177.822 C 135.883,177.26 136.572,176.611 137.472,175.874 C 138.867,174.722 139.814,173.811 140.312,173.141 C 140.81,172.471 141.058,171.837 141.058,171.238 C 141.058,170.612 140.833,170.084 140.383,169.654 C 139.933,169.224 139.347,169.009 138.622,169.009 C 137.856,169.009 137.245,169.238 136.786,169.697 C 136.327,170.155 136.095,170.791 136.089,171.602 L 134.464,171.43 C 134.575,170.215 134.995,169.288 135.724,168.651 C 136.453,168.014 137.431,167.696 138.658,167.696 C 139.897,167.696 140.879,168.039 141.6,168.725 C 142.322,169.411 142.683,170.26 142.683,171.275 C 142.683,171.792 142.578,172.298 142.367,172.796 C 142.155,173.294 141.804,173.818 141.314,174.37 C 140.822,174.921 140.009,175.678 138.873,176.639 C 137.923,177.436 137.312,177.977 137.041,178.26 C 136.77,178.545 136.545,178.83 136.367,179.117 L 142.698,179.117 L 142.698,179.118 z "
   id="path51" />
</g>
<path
   d="M 107.7019,153.36565 L 106.0869,153.36565 L 106.0869,125.6722 L 106.8944,125.1972 L 107.7019,125.6722 L 107.7019,153.36565 z "
   id="polygon53" />
<g
   id="g55"
   transform="matrix(0.95,0,0,0.95,5.2862,4.51585)">
	<path
   d="M 168.884,57.134 L 168.884,39.946 L 171.224,39.946 L 180.228,53.434 L 180.228,39.946 L 182.416,39.946 L 182.416,57.134 L 180.076,57.134 L 171.072,43.645 L 171.072,57.134 L 168.884,57.134 z "
   id="path57" />
	<path
   d="M 185.544,48.769 C 185.544,45.917 186.31,43.684 187.843,42.07 C 189.374,40.457 191.353,39.65 193.775,39.65 C 195.363,39.65 196.793,40.029 198.066,40.787 C 199.34,41.545 200.312,42.602 200.98,43.958 C 201.648,45.314 201.982,46.852 201.982,48.57 C 201.982,50.312 201.63,51.872 200.927,53.247 C 200.224,54.623 199.227,55.664 197.937,56.371 C 196.648,57.078 195.256,57.432 193.763,57.432 C 192.146,57.432 190.699,57.041 189.425,56.26 C 188.151,55.479 187.187,54.412 186.529,53.06 C 185.872,51.707 185.544,50.276 185.544,48.769 z M 187.888,48.798 C 187.888,50.868 188.445,52.499 189.56,53.691 C 190.673,54.882 192.072,55.478 193.751,55.478 C 195.464,55.478 196.872,54.876 197.98,53.673 C 199.085,52.47 199.638,50.763 199.638,48.552 C 199.638,47.154 199.402,45.933 198.929,44.89 C 198.456,43.847 197.764,43.038 196.853,42.464 C 195.943,41.89 194.921,41.603 193.787,41.603 C 192.178,41.603 190.791,42.156 189.631,43.261 C 188.468,44.366 187.888,46.212 187.888,48.798 z "
   id="path59" />
</g>
<g
   id="g61"
   transform="matrix(0.95,0,0,0.95,5.2862,4.51585)">
	<path
   d="M 211.448,60.118 L 211.448,61.634 L 202.917,61.634 C 202.905,61.253 202.968,60.887 203.103,60.534 C 203.322,59.954 203.671,59.384 204.152,58.822 C 204.633,58.26 205.322,57.611 206.222,56.874 C 207.617,55.722 208.564,54.811 209.062,54.141 C 209.56,53.471 209.808,52.837 209.808,52.238 C 209.808,51.612 209.583,51.084 209.133,50.654 C 208.683,50.224 208.097,50.009 207.372,50.009 C 206.606,50.009 205.995,50.238 205.536,50.697 C 205.077,51.155 204.845,51.791 204.839,52.602 L 203.214,52.43 C 203.325,51.215 203.745,50.288 204.474,49.651 C 205.203,49.014 206.181,48.696 207.408,48.696 C 208.647,48.696 209.629,49.039 210.35,49.725 C 211.072,50.411 211.433,51.26 211.433,52.275 C 211.433,52.792 211.328,53.298 211.117,53.796 C 210.905,54.294 210.554,54.818 210.064,55.37 C 209.572,55.921 208.759,56.678 207.623,57.639 C 206.673,58.436 206.062,58.977 205.791,59.26 C 205.52,59.545 205.295,59.83 205.117,60.117 L 211.448,60.117 L 211.448,60.118 z "
   id="path63" />
</g>
<path
   d="M 161.9944,54.7547 L 162.8019,56.1322 L 140.33345,69.0997 L 139.5269,68.6247 L 139.5269,67.72315 L 161.9944,54.7547 z "
   id="polygon65" />
</svg>