<?xml version="1.0" standalone="no"?>
<!DOCTYPE svg PUBLIC "-//W3C//DTD SVG 20010904//EN"
 "http://www.w3.org/TR/2001/REC-SVG-20010904/DTD/svg10.dtd">
<svg version="1.0" xmlns="http://www.w3.org/2000/svg"
 width="1458.000000pt" height="762.000000pt" viewBox="0 0 1458.000000 762.000000"
 preserveAspectRatio="xMidYMid meet">
<metadata>
Created by potrace 1.13, written by Peter Selinger 2001-2015
</metadata>
<g transform="translate(0.000000,762.000000) scale(0.100000,-0.100000)"
 stroke="none">
<path d="M235 7388 c-3 -7 -4 -1606 -3 -3553 l3 -3540 7060 0 7060 0 0 3550 0
3550 -7058 3 c-5641 2 -7059 0 -7062 -10z m14075 -3543 l0 -3505 -7015 0
-7015 0 0 3505 0 3505 7015 0 7015 0 0 -3505z"/>
<path d="M6492 6808 c-4 -4 -45 -9 -92 -11 -47 -3 -110 -10 -140 -15 -30 -6
-73 -13 -95 -17 -22 -4 -49 -10 -60 -15 -11 -4 -42 -13 -70 -20 -27 -7 -59
-15 -70 -20 -11 -4 -38 -13 -60 -19 -22 -7 -58 -21 -80 -31 -22 -10 -58 -26
-80 -35 -120 -52 -284 -141 -373 -202 -33 -24 -66 -43 -71 -43 -6 0 -11 -4
-11 -10 0 -5 -5 -10 -11 -10 -5 0 -40 -24 -77 -54 l-68 -55 -129 0 c-72 0
-139 -1 -150 -2 -11 0 -312 -3 -670 -5 -380 -2 -653 -8 -658 -13 -5 -5 -7 -17
-4 -25 6 -15 83 -16 777 -13 423 2 770 1 770 -1 0 -7 -29 -32 -37 -32 -16 0
-239 -249 -318 -355 -17 -22 -33 -41 -37 -43 -5 -2 -8 -8 -8 -13 0 -6 -22 -43
-50 -84 -27 -40 -63 -99 -80 -132 -17 -32 -35 -65 -40 -73 -4 -8 -15 -32 -24
-52 -9 -21 -23 -55 -32 -75 -9 -21 -20 -48 -25 -60 -5 -13 -13 -33 -18 -45
-30 -76 -59 -198 -81 -348 -13 -89 -13 -397 0 -405 7 -4 7 -12 2 -18 -10 -14
-9 -65 3 -90 4 -10 4 -65 0 -122 -8 -116 -13 -123 -61 -77 -100 93 -134 112
-134 73 0 -11 16 -32 35 -47 20 -15 34 -29 31 -31 -2 -2 -37 3 -77 12 -41 9
-94 21 -119 26 -25 5 -65 14 -90 20 -77 18 -95 17 -98 -8 -2 -13 -1 -23 3 -23
10 0 285 -59 334 -72 l44 -11 -47 -12 c-54 -14 -61 -19 -52 -40 5 -13 15 -15
53 -10 27 4 59 10 73 15 14 5 41 11 62 15 l36 6 0 -173 c0 -95 0 -339 1 -542
0 -203 -1 -371 -3 -373 -2 -2 0 -20 4 -39 5 -19 4 -37 -1 -40 -5 -3 -6 -11 -2
-17 4 -7 9 -312 10 -678 l3 -667 -27 -18 c-15 -10 -45 -34 -66 -53 -21 -20
-49 -40 -60 -44 -12 -5 -222 -9 -467 -10 l-445 -2 -3 23 c-3 22 -34 46 -46 35
-9 -10 -7 -41 5 -61 8 -13 4 -30 -20 -76 -35 -66 -40 -115 -13 -139 32 -29 67
-12 41 19 -6 8 -10 16 -8 19 7 6 1012 16 2162 21 904 4 1067 3 1067 -9 0 -18
32 -47 53 -47 19 0 24 35 7 45 -17 10 -11 39 16 91 39 74 27 163 -23 164 -16
0 -17 -42 -2 -57 8 -8 -114 -12 -460 -12 l-471 -1 -42 40 c-24 22 -46 40 -51
40 -4 0 -18 10 -31 23 l-23 23 -2 1488 c-1 906 2 1493 8 1500 5 6 11 36 14 66
9 94 56 273 88 332 5 10 9 23 9 29 0 5 21 53 46 106 47 97 175 277 216 306 13
8 42 34 66 56 23 23 44 41 47 41 3 0 25 15 49 34 51 39 171 98 236 116 25 7
56 16 70 20 111 36 466 49 580 21 73 -17 123 -33 134 -43 6 -4 16 -8 23 -8 23
0 147 -63 221 -112 69 -47 202 -168 202 -185 0 -4 13 -21 28 -38 51 -56 192
-308 192 -344 0 -6 4 -19 9 -29 20 -39 51 -152 51 -185 0 -20 5 -39 10 -42 6
-3 10 -23 10 -44 0 -20 4 -41 9 -47 8 -7 17 -169 12 -209 -1 -6 -93 -11 -248
-12 -136 -2 -251 -7 -256 -12 -11 -11 -16 -340 -5 -363 7 -14 21 -18 64 -18
48 0 56 -3 63 -23 15 -40 54 -57 126 -57 64 0 125 19 125 40 0 5 7 16 16 24
13 14 55 16 303 16 l287 0 22 -25 c23 -27 55 -43 107 -54 17 -4 31 -13 31 -21
1 -8 2 -23 3 -33 2 -31 26 -13 31 23 4 25 14 38 39 52 18 11 41 28 50 39 15
18 34 20 276 26 l260 6 13 -24 c18 -34 45 -49 102 -56 75 -9 116 3 160 47 38
38 41 39 117 42 l78 3 0 190 0 190 -259 3 -258 2 6 73 c8 98 9 323 1 432 -6
89 -18 153 -36 187 -5 10 -9 28 -9 40 -1 33 -56 195 -102 298 -23 50 -31 68
-59 116 -10 19 -28 50 -39 69 -30 53 -160 247 -179 267 -9 9 -29 33 -46 54
-16 20 -49 58 -72 84 l-43 47 0 82 0 81 121 0 c119 0 120 0 117 23 -3 21 -7
22 -120 25 l-118 3 -2 262 c-3 254 -4 262 -23 262 -19 0 -20 -8 -23 -262 l-2
-263 -38 -2 c-52 -2 -64 -4 -84 -13 -24 -10 -67 15 -156 93 -35 30 -109 82
-117 82 -4 0 -26 14 -50 30 -55 38 -226 129 -297 159 -26 10 -38 15 -100 40
-13 5 -39 14 -58 21 -19 7 -44 16 -55 20 -11 5 -32 11 -47 14 -16 3 -40 9 -55
12 -16 3 -37 9 -48 14 -11 5 -33 11 -50 13 -16 3 -68 12 -115 20 -161 30 -586
47 -608 25z m384 -47 c5 -5 50 -12 99 -14 84 -5 112 -9 240 -37 28 -6 65 -14
83 -17 18 -3 35 -9 38 -14 3 -5 20 -9 39 -9 19 0 37 -4 40 -10 3 -5 13 -10 21
-10 8 0 34 -9 56 -20 23 -11 48 -20 55 -20 7 0 21 -4 31 -10 9 -5 60 -30 112
-55 93 -45 161 -81 210 -114 14 -9 37 -23 51 -30 14 -7 41 -26 60 -42 19 -16
38 -29 42 -29 5 0 25 -16 45 -36 20 -20 30 -34 20 -31 -18 6 -180 6 -1203 0
-489 -3 -681 -7 -686 -15 -23 -37 -15 -38 544 -33 298 3 623 4 722 3 216 -4
286 -3 515 7 l175 7 93 -87 c82 -77 92 -91 92 -121 0 -38 21 -54 44 -35 11 9
19 5 37 -21 13 -18 30 -40 39 -48 9 -8 27 -31 40 -50 13 -19 32 -42 42 -51 10
-9 18 -20 18 -25 0 -4 8 -17 18 -28 17 -19 89 -133 134 -211 29 -50 88 -174
88 -184 0 -6 8 -25 18 -43 9 -18 23 -51 30 -73 7 -22 17 -49 22 -60 4 -11 13
-47 20 -80 7 -33 16 -71 20 -85 13 -38 20 -150 26 -402 l5 -228 -73 0 c-40 0
-164 -3 -275 -7 l-203 -6 0 147 c0 134 -2 147 -17 144 -25 -5 -31 -40 -25
-164 3 -61 1 -114 -4 -116 -5 -3 -136 -9 -291 -13 l-283 -7 0 74 c0 41 -4 78
-9 84 -5 5 -11 41 -14 79 -8 118 -40 247 -91 368 -9 20 -23 54 -32 75 -51 119
-122 236 -183 299 -17 18 -31 36 -31 40 0 21 -204 183 -229 183 -6 0 -11 4
-11 9 0 8 -59 39 -140 74 -191 81 -357 102 -620 79 -112 -10 -205 -33 -310
-76 -104 -43 -120 -50 -120 -58 0 -5 -5 -8 -10 -8 -18 0 -135 -83 -191 -135
-136 -126 -270 -322 -310 -450 -6 -22 -20 -58 -29 -80 -32 -72 -52 -141 -77
-265 -16 -78 -18 -202 -20 -1454 -1 -753 1 -1374 6 -1380 4 -6 9 -66 10 -133
l2 -123 -158 -1 c-87 0 -313 -4 -503 -8 -190 -4 -347 -6 -349 -4 -3 2 -5 38
-6 81 0 42 -3 82 -7 87 -3 6 -2 87 2 180 13 241 12 552 0 560 -6 4 -8 11 -5
16 6 10 7 317 4 1544 -1 747 3 885 31 1010 6 28 13 62 17 78 3 15 9 30 14 33
5 3 9 16 9 29 0 13 5 27 10 30 6 3 10 14 10 25 0 10 9 35 20 57 10 21 35 72
55 113 19 41 49 98 65 125 17 28 33 57 37 65 10 24 66 105 75 108 4 2 8 9 8
15 0 7 11 26 25 42 13 17 54 68 91 115 37 47 123 140 190 207 l124 122 262 -3
c145 -2 336 -1 426 1 146 4 163 6 160 21 -2 12 -18 19 -53 24 -69 9 -517 9
-531 0 -7 -4 -54 -6 -105 -4 l-93 4 24 19 c38 30 229 159 235 159 4 0 25 13
48 28 47 31 233 123 287 142 43 15 79 29 102 41 10 5 25 9 33 9 8 0 23 4 33 9
29 14 87 31 110 31 11 0 23 4 26 9 3 4 25 11 48 15 24 3 68 11 98 16 165 31
593 52 616 31z m1492 -591 l3 -55 -51 50 -51 50 28 6 c60 14 68 9 71 -51z m7
-1920 l0 -85 -547 -3 -548 -2 0 84 0 83 68 6 c37 3 187 3 333 0 151 -4 272 -2
281 3 9 5 105 7 215 4 l198 -5 0 -85z m1104 79 c-8 -15 -8 -24 0 -32 6 -6 11
-35 11 -64 0 -65 2 -64 -180 -61 -74 1 -305 0 -512 -4 l-378 -7 0 89 0 89 38
3 c20 2 261 5 535 6 l498 2 -12 -21z m-1 -222 c2 -10 1 -28 -2 -40 l-5 -22
-526 -2 -525 -3 0 33 c0 18 4 37 10 43 5 5 213 9 527 9 494 0 518 -1 521 -18z
m-1233 3 c110 0 146 -3 138 -11 -8 -8 -8 -20 -3 -35 l10 -24 -263 -1 c-144 -1
-392 -1 -552 -1 l-290 1 -3 36 -3 35 348 2 c191 2 375 2 408 1 33 -1 127 -2
210 -3z m145 -136 c0 -18 -68 -18 -92 0 -25 18 -17 22 41 18 35 -3 51 -8 51
-18z m890 17 c11 -3 -63 -31 -82 -31 -30 0 -98 22 -98 32 0 6 158 5 180 -1z
m-1699 -15 c-24 -29 -159 -28 -169 2 -3 9 20 12 88 12 78 0 91 -2 81 -14z
m875 -1 c-25 -19 -36 -19 -36 0 0 10 10 15 28 15 26 -1 26 -1 8 -15z m-3035
-2467 c16 -13 42 -33 57 -45 l27 -22 -305 -2 c-168 -1 -413 -2 -545 -1 -132 1
-258 -3 -280 -8 -22 -5 -59 -7 -83 -4 -49 7 -50 5 33 71 l40 32 513 1 514 0
29 -22z m1069 -116 c0 -5 -7 -23 -16 -40 l-15 -32 -272 0 c-150 0 -549 -3
-887 -6 -338 -3 -946 -8 -1350 -10 l-735 -5 23 23 c12 14 22 29 22 35 0 17
378 22 1845 28 1157 5 1348 7 1378 13 4 1 7 -2 7 -6z"/>
<path d="M6066 6245 c-10 -27 2 -35 50 -35 41 0 45 2 42 23 -2 18 -10 23 -44
25 -31 2 -43 -1 -48 -13z"/>
<path d="M8374 5896 c-3 -8 -4 -29 -2 -48 2 -25 8 -33 23 -33 16 0 21 8 23 39
2 24 -2 42 -10 47 -19 12 -28 11 -34 -5z"/>
<path d="M8375 5728 c-2 -7 -3 -190 -2 -407 2 -359 4 -395 19 -405 9 -5 20 -7
24 -4 3 4 6 58 6 120 0 62 -1 247 -1 411 -1 292 -1 297 -21 297 -11 0 -22 -6
-25 -12z"/>
<path d="M8386 4834 c-22 -22 -21 -71 3 -83 25 -14 31 -5 31 45 0 49 -11 61
-34 38z"/>
<path d="M10877 6293 c-4 -4 -1130 -14 -1570 -13 l-418 0 3 -22 3 -23 313 0
c274 0 311 -2 306 -15 -3 -8 -10 -46 -15 -85 -6 -38 -14 -78 -20 -87 -5 -10
-9 -24 -9 -33 0 -54 -100 -195 -138 -195 -11 0 -6 7 16 21 32 21 41 42 22 54
-6 4 -49 -20 -96 -51 -106 -72 -107 -86 -12 -125 95 -39 127 -44 134 -24 8 19
-8 33 -49 42 -43 9 -41 20 5 42 64 29 143 127 150 187 2 11 5 -116 8 -281 5
-292 6 -300 25 -300 20 0 20 7 20 428 l0 427 145 0 c802 3 1607 13 1614 20 5
6 4 16 -4 25 -11 14 -36 15 -174 12 -89 -3 -165 -5 -171 -6 -5 -1 -27 0 -48 2
-21 1 -39 2 -40 0z"/>
<path d="M8737 6273 c-4 -3 -7 -15 -7 -25 0 -16 6 -19 43 -16 35 2 43 7 45 26
3 20 -1 22 -36 22 -21 0 -42 -3 -45 -7z"/>
<path d="M3157 6233 c-4 -3 -7 -15 -7 -25 0 -16 9 -18 69 -18 72 0 86 6 75 34
-5 12 -21 16 -68 16 -35 0 -66 -3 -69 -7z"/>
<path d="M3354 6225 c-9 -24 5 -35 45 -35 39 0 68 20 56 40 -10 16 -95 13
-101 -5z"/>
<path d="M9817 6174 c-4 -4 -7 -19 -7 -34 0 -14 -13 -41 -30 -60 -29 -35 -39
-70 -20 -70 6 0 10 -13 10 -28 0 -42 30 -53 125 -50 63 2 80 6 80 18 0 12 -18
16 -78 20 -71 5 -78 7 -91 32 -12 23 -12 29 1 47 18 27 28 26 59 -4 14 -14 29
-25 34 -25 18 0 16 26 -4 48 l-21 24 30 -4 c27 -3 30 -7 32 -38 0 -19 2 -38 2
-42 1 -5 10 -8 21 -8 19 0 20 7 20 90 0 81 -2 90 -19 90 -13 0 -20 -9 -25 -30
-5 -26 -9 -30 -30 -24 -13 3 -27 1 -30 -5 -14 -22 -26 -10 -24 21 3 31 -17 49
-35 32z"/>
<path d="M10062 6168 c-17 -17 -15 -113 3 -128 15 -13 106 -10 138 4 14 7 17
3 17 -17 0 -14 6 -27 14 -30 19 -7 26 1 26 31 0 13 10 32 23 43 l22 19 -22 6
c-19 5 -23 13 -23 46 0 32 -3 39 -17 36 -14 -2 -19 -15 -21 -50 l-3 -46 -54
-7 c-73 -9 -70 -10 -70 28 0 30 2 32 35 33 58 2 60 3 60 24 0 18 -7 20 -58 20
-32 0 -63 -5 -70 -12z"/>
<path d="M10378 6159 c-16 -11 -28 -29 -28 -38 0 -24 31 -51 59 -51 12 0 19
-4 16 -10 -3 -5 -24 -10 -45 -10 -41 0 -59 -15 -41 -33 6 -6 11 -23 11 -38 0
-15 6 -32 14 -38 17 -15 196 -11 196 4 0 6 -37 12 -82 15 -77 5 -83 7 -86 28
-3 21 -1 22 92 22 89 0 96 1 96 20 0 17 -7 20 -39 20 -22 0 -43 5 -46 10 -3 6
4 10 18 10 27 0 57 28 57 53 0 52 -137 78 -192 36z m148 -32 c16 -15 -13 -27
-66 -27 -41 0 -59 4 -63 14 -4 9 1 17 11 20 21 6 110 1 118 -7z"/>
<path d="M10835 6156 c-3 -9 -7 -22 -9 -30 -3 -8 -26 -24 -51 -35 -46 -20 -53
-41 -13 -41 11 0 37 10 58 21 l38 22 31 -22 c31 -22 72 -25 77 -6 2 6 -16 19
-39 30 -28 13 -44 28 -47 45 -7 28 -38 39 -45 16z"/>
<path d="M11033 6153 c-4 -9 -1 -19 5 -21 18 -6 15 -69 -3 -76 -23 -8 -18 -25
11 -36 23 -9 24 -11 10 -26 -9 -8 -16 -22 -16 -30 0 -23 61 -54 106 -54 75 0
118 36 95 79 -7 13 -8 22 -1 26 5 3 10 37 10 75 0 71 -13 96 -35 67 -15 -21
-31 -22 -39 -2 -8 23 -134 21 -143 -2z m83 -55 c-10 -53 -19 -53 -29 0 -6 28
-4 32 15 32 18 0 20 -4 14 -32z m64 -3 c0 -8 -4 -15 -10 -15 -5 0 -10 7 -10
15 0 8 5 15 10 15 6 0 10 -7 10 -15z m30 -60 c0 -10 -10 -15 -32 -14 -22 1
-26 3 -13 6 11 3 24 9 30 14 13 12 15 11 15 -6z m-15 -59 c17 -12 16 -14 -17
-20 -58 -11 -126 11 -85 27 25 11 84 7 102 -7z"/>
<path d="M11337 6163 c-12 -11 -8 -121 5 -129 6 -4 25 -10 42 -14 22 -4 31
-12 31 -25 0 -17 -9 -21 -50 -25 -36 -4 -50 -9 -50 -20 0 -12 21 -16 114 -18
131 -3 150 0 130 24 -8 10 -26 14 -53 12 -38 -2 -41 -1 -44 25 -3 25 0 27 30
27 47 0 58 15 58 82 0 51 -2 58 -20 58 -14 0 -20 -7 -20 -21 0 -21 -4 -21 -61
-16 -44 4 -66 11 -80 26 -22 23 -23 24 -32 14z m173 -88 c0 -12 -14 -15 -70
-15 -64 0 -81 6 -63 23 3 4 35 7 70 7 49 0 63 -3 63 -15z"/>
<path d="M11796 6163 c-3 -4 -6 -42 -6 -85 0 -88 0 -88 -87 -102 l-43 -6 0 74
0 75 47 3 c36 2 49 7 51 21 3 15 -5 17 -59 17 -80 0 -88 -10 -89 -116 0 -66 3
-84 18 -97 21 -19 107 -24 117 -7 12 19 45 11 45 -11 0 -14 5 -19 18 -17 12 2
18 15 20 48 2 26 10 48 18 53 19 11 18 47 -1 47 -11 0 -15 12 -15 49 0 33 -5
51 -14 54 -8 3 -17 3 -20 0z"/>
<path d="M10732 6023 c2 -14 15 -19 51 -21 46 -3 47 -4 47 -37 0 -19 5 -37 10
-40 17 -11 40 15 40 46 0 26 3 28 48 31 34 2 47 7 47 18 0 12 -22 15 -123 18
-114 2 -123 1 -120 -15z"/>
<path d="M10063 6004 c-3 -9 -2 -28 3 -43 9 -25 12 -26 103 -29 84 -3 92 -1
89 15 -3 15 -16 18 -81 21 -74 3 -77 4 -77 27 0 28 -27 35 -37 9z"/>
<path d="M9813 5821 c-3 -11 -14 -21 -25 -24 -26 -7 -20 -41 9 -45 21 -3 21
-3 -3 -29 -32 -35 -30 -65 7 -102 38 -39 62 -39 100 -2 36 36 37 73 4 106
l-24 25 24 0 c18 0 25 5 25 20 0 10 -6 23 -13 27 -8 4 -16 16 -20 26 -9 25
-77 24 -84 -2z m75 -143 c2 -18 -3 -30 -17 -37 -31 -17 -51 -3 -51 36 0 33 1
34 33 31 26 -2 33 -8 35 -30z"/>
<path d="M9950 5706 c0 -101 3 -126 14 -126 18 0 26 22 26 71 0 28 4 39 15 39
8 0 15 7 15 15 0 8 -7 15 -14 15 -11 0 -16 15 -18 52 -2 41 -7 54 -20 56 -16
3 -18 -8 -18 -122z"/>
<path d="M10075 5818 c-4 -9 -5 -40 -3 -69 l3 -54 61 -3 c59 -3 62 -2 71 25
17 45 15 93 -2 100 -9 3 -21 1 -28 -6 -16 -16 -58 -14 -79 5 -15 15 -18 15
-23 2z m95 -84 c0 -11 -8 -14 -27 -12 -39 4 -42 28 -4 28 21 0 31 -5 31 -16z"/>
<path d="M10246 5808 c-3 -13 -6 -47 -6 -75 l0 -53 -60 0 c-51 0 -65 -4 -86
-25 -21 -21 -23 -27 -12 -44 6 -11 23 -24 35 -30 35 -16 110 -13 138 5 26 17
34 57 14 70 -8 4 -8 9 0 17 6 6 11 21 11 34 0 13 6 23 14 23 24 0 30 21 7 27
-16 4 -21 13 -21 39 0 39 -24 47 -34 12z m-17 -172 l23 -13 -23 -6 c-48 -13
-109 -5 -109 13 0 20 76 24 109 6z"/>
<path d="M10398 5799 c-44 -33 -35 -89 19 -117 33 -18 114 -14 139 6 41 32 46
56 21 93 -21 32 -26 34 -87 36 -53 2 -70 -1 -92 -18z m135 -23 c30 -23 21 -51
-21 -65 -33 -11 -43 -11 -70 3 -36 19 -39 31 -15 58 19 21 79 24 106 4z"/>
<path d="M10675 5810 c-9 -14 9 -18 84 -22 96 -6 92 -26 -6 -30 l-78 -3 -3
-35 c-4 -38 16 -60 55 -60 16 0 23 -6 23 -20 0 -17 -7 -20 -50 -20 -38 0 -50
-4 -50 -15 0 -13 21 -15 125 -15 104 0 125 2 125 15 0 11 -12 15 -50 15 -43 0
-50 3 -50 19 0 16 8 20 38 23 25 2 37 8 37 18 0 12 -18 16 -88 18 -64 2 -87 6
-84 15 2 8 31 13 77 15 41 2 80 8 87 14 16 13 17 50 1 66 -15 15 -184 16 -193
2z"/>
<path d="M11412 5804 c-16 -11 -22 -25 -22 -55 0 -61 14 -79 60 -79 36 0 40
-3 40 -25 0 -24 -3 -25 -55 -25 -48 0 -55 -2 -55 -20 0 -27 25 -31 145 -28 92
3 100 5 100 23 0 17 -8 20 -52 23 -48 3 -53 5 -53 27 0 21 5 24 48 27 78 5 48
23 -43 26 l-85 3 0 34 0 35 80 0 c65 0 82 3 87 16 9 25 -16 34 -97 34 -52 0
-82 -5 -98 -16z"/>
<path d="M11071 5731 c-29 -44 -50 -85 -46 -90 3 -6 24 -11 45 -11 32 0 39 -4
42 -22 4 -29 41 -31 47 -3 2 11 10 25 19 31 14 10 14 12 -1 20 -12 7 -17 27
-19 79 -4 98 -21 97 -87 -4z m39 -41 c0 -20 -5 -30 -15 -30 -18 0 -19 14 -3
40 17 26 18 25 18 -10z"/>
<path d="M11226 5795 c-16 -16 -23 -104 -10 -118 4 -3 16 0 28 8 12 8 31 12
44 8 17 -4 22 -13 22 -39 0 -28 -4 -35 -25 -40 -17 -4 -32 -1 -44 10 -37 34
-61 12 -30 -28 16 -20 29 -26 58 -26 39 0 57 13 81 58 22 44 -26 112 -80 112
-40 0 -14 25 29 28 33 3 42 7 39 20 -5 24 -89 29 -112 7z"/>
<path d="M10352 5608 c4 -10 36 -13 126 -13 166 0 162 19 -4 23 -99 2 -125 0
-122 -10z"/>
<path d="M9814 5418 c-43 -48 -45 -117 -6 -185 29 -52 100 -16 120 60 18 64
-21 147 -67 147 -16 0 -36 -10 -47 -22z m76 -88 c0 -100 -62 -110 -68 -10 -2
38 1 57 14 71 16 18 18 18 36 3 12 -12 18 -31 18 -64z"/>
<path d="M9968 5333 c-3 -124 -1 -143 18 -143 11 0 14 25 14 125 0 102 -3 125
-14 125 -12 0 -15 -22 -18 -107z"/>
<path d="M10137 5434 c-4 -4 -7 -17 -7 -29 0 -11 -13 -36 -30 -55 -16 -19 -29
-41 -30 -47 0 -23 28 -13 55 19 l26 31 27 -26 c26 -27 26 -27 4 -27 -12 0 -38
-7 -57 -14 -29 -12 -35 -20 -35 -44 0 -42 22 -55 95 -56 86 -1 108 18 99 85
-6 41 -4 48 15 58 24 13 28 36 7 48 -8 4 -16 19 -18 33 -1 14 -11 26 -20 28
-16 3 -18 -6 -18 -75 -1 -62 -3 -74 -12 -58 -6 11 -23 34 -38 50 -16 17 -30
41 -32 54 -3 25 -19 37 -31 25z m113 -194 c0 -24 -110 -26 -118 -2 -3 9 13 12
57 12 34 0 61 -4 61 -10z"/>
<path d="M10483 5424 c-9 -25 16 -34 95 -34 l72 0 0 -35 0 -35 -96 0 c-86 0
-95 -2 -92 -17 2 -14 16 -19 53 -23 49 -5 50 -6 53 -40 1 -19 5 -42 8 -50 9
-24 33 16 28 45 -5 29 3 34 56 39 48 4 55 9 44 33 -4 10 -6 37 -5 59 4 60 -20
74 -127 74 -66 0 -84 -3 -89 -16z"/>
<path d="M10777 5423 c-12 -11 -8 -88 5 -101 7 -7 44 -12 98 -12 54 0 91 5 98
12 15 15 16 95 0 104 -6 4 -16 0 -23 -9 -16 -23 -127 -24 -145 -2 -14 16 -23
19 -33 8z m171 -71 c2 -8 -17 -12 -62 -12 -47 0 -66 4 -66 13 0 17 122 16 128
-1z"/>
<path d="M11065 5420 c-11 -19 6 -30 46 -30 21 0 39 -4 39 -10 0 -5 -15 -10
-33 -10 -20 0 -41 -8 -50 -18 -19 -21 -22 -57 -7 -67 6 -3 10 -26 10 -50 0
-51 0 -51 110 -60 79 -6 107 2 97 29 -5 13 -22 16 -86 16 -44 0 -82 4 -85 8
-10 17 11 30 64 39 49 7 57 6 71 -11 9 -11 21 -16 27 -12 15 9 16 172 2 181
-22 13 -40 -17 -40 -65 0 -45 -2 -48 -31 -54 -57 -11 -99 -7 -99 9 0 11 11 15
38 15 21 0 43 5 50 12 19 19 15 66 -7 78 -25 13 -108 13 -116 0z"/>
<path d="M11526 5415 c-3 -9 -6 -47 -6 -84 0 -63 -2 -69 -25 -79 -14 -7 -45
-12 -69 -12 l-42 0 4 63 c2 34 5 67 7 74 2 6 26 13 52 15 72 5 53 23 -24 23
l-68 0 -3 -99 c-3 -119 3 -130 67 -123 25 3 58 8 72 12 21 6 27 3 32 -14 3
-12 12 -21 21 -21 13 0 16 11 16 54 0 45 3 54 20 59 26 7 26 27 0 34 -15 4
-20 15 -22 56 -3 50 -20 73 -32 42z"/>
<path d="M10754 5289 c-10 -17 8 -28 56 -31 43 -3 45 -5 50 -38 7 -49 34 -47
38 3 l3 37 50 0 c42 0 49 3 49 20 0 19 -7 20 -119 20 -76 0 -122 -4 -127 -11z"/>
<path d="M11641 5217 c-8 -11 -6 -18 8 -31 16 -15 20 -15 31 -1 15 18 7 45
-13 45 -8 0 -20 -6 -26 -13z"/>
<path d="M2836 4503 c-3 -3 -6 -23 -6 -44 0 -70 -21 -82 -62 -36 -23 26 -23
37 1 37 21 0 45 23 34 33 -3 4 -40 7 -80 7 -66 0 -74 -2 -71 -17 2 -10 13 -19
26 -21 12 -2 22 -9 22 -16 0 -15 -27 -40 -53 -49 -14 -5 -16 -11 -7 -26 5 -11
10 -29 10 -40 0 -20 6 -21 84 -21 l85 0 3 -27 c2 -17 10 -29 21 -31 14 -3 17
4 17 37 0 22 -5 43 -11 47 -8 4 -8 9 0 17 6 6 11 41 11 78 0 63 -8 88 -24 72z
m-57 -145 c1 -11 -97 -10 -103 0 -3 5 6 15 19 22 14 7 25 17 25 22 0 11 59
-33 59 -44z m51 6 c0 -8 -4 -12 -10 -9 -5 3 -10 10 -10 16 0 5 5 9 10 9 6 0
10 -7 10 -16z"/>
<path d="M2935 4490 c-12 -19 6 -30 51 -30 36 0 44 -3 44 -19 0 -25 -19 -39
-60 -43 -27 -2 -36 -8 -38 -25 -3 -19 1 -23 25 -23 24 -1 25 -2 11 -11 -22
-13 -23 -55 -2 -77 12 -11 36 -16 84 -16 99 -1 106 7 108 139 2 90 0 106 -14
112 -10 4 -22 -1 -30 -11 -13 -18 -54 -14 -54 5 0 12 -117 12 -125 -1z m172
-66 c-3 -3 -12 -4 -19 -1 -8 3 -5 6 6 6 11 1 17 -2 13 -5z m-16 -54 c10 0 19
-3 19 -7 0 -5 -23 -6 -51 -4 l-51 3 28 19 c25 16 30 17 32 4 2 -8 12 -15 23
-15z m18 -66 c1 -1 0 -7 -4 -13 -12 -20 -115 -11 -115 9 0 15 101 18 119 4z"/>
<path d="M3238 4476 c-30 -25 -38 -66 -13 -66 8 0 20 9 27 20 7 11 23 20 35
20 33 0 33 -47 1 -52 -32 -4 -29 -30 5 -46 30 -14 35 -33 12 -52 -21 -18 -48
-8 -63 23 -16 33 -32 27 -32 -12 0 -60 85 -84 129 -37 19 20 22 32 17 58 -9
44 -9 59 -1 85 6 18 0 29 -25 53 -39 36 -56 37 -92 6z"/>
<path d="M3422 4483 c-61 -43 -68 -175 -12 -220 25 -20 65 -15 90 12 21 22 24
35 24 97 -1 69 -3 73 -35 100 -38 32 -37 32 -67 11z m56 -58 c22 -47 7 -135
-22 -135 -29 1 -38 19 -38 78 0 33 3 65 7 71 12 20 42 11 53 -14z"/>
<path d="M3607 4433 c-4 -3 -17 -7 -30 -8 -21 -2 -22 -6 -25 -89 -3 -80 -1
-87 15 -84 14 2 19 14 21 48 4 71 10 90 32 90 17 0 19 -8 22 -67 2 -55 6 -68
21 -71 14 -3 17 5 17 51 0 68 7 87 31 87 15 0 19 -10 21 -67 3 -60 5 -68 23
-68 17 0 20 8 23 60 5 90 -30 137 -83 113 -21 -9 -31 -9 -46 0 -21 14 -33 15
-42 5z"/>
<path d="M3838 4422 l-28 -3 0 -85 c0 -68 3 -84 15 -84 12 0 15 13 15 58 0 57
11 82 37 82 8 0 13 -22 15 -67 3 -61 5 -68 25 -71 21 -3 22 1 25 65 3 62 5 68
26 71 21 3 22 0 22 -67 0 -63 2 -71 19 -71 37 0 31 165 -7 171 -18 3 -140 4
-164 1z"/>
<path d="M2832 4107 c-5 -6 -12 -59 -16 -117 -5 -82 -4 -109 7 -124 28 -38 37
-9 37 119 0 119 -7 149 -28 122z"/>
<path d="M2678 4100 c-61 -36 -62 -169 -2 -215 28 -21 48 -18 78 11 23 24 26
35 26 94 0 57 -4 71 -25 94 -25 27 -49 32 -77 16z m60 -67 c16 -52 -2 -115
-32 -111 -18 3 -21 11 -24 61 -5 87 34 121 56 50z"/>
<path d="M2985 4075 c-8 -21 -15 -39 -15 -42 0 -2 -11 -15 -25 -29 -27 -27
-31 -39 -14 -50 6 -3 26 9 45 27 l34 33 27 -27 28 -27 -40 0 c-40 -1 -58 -10
-83 -41 -10 -14 -8 -20 14 -43 23 -22 35 -26 88 -26 75 1 98 16 96 62 -4 72 0
90 20 95 11 3 20 12 20 19 0 8 -9 14 -20 14 -16 0 -20 7 -20 35 0 24 -5 35
-15 35 -11 0 -15 -12 -15 -47 0 -73 -10 -79 -54 -34 -21 22 -36 44 -32 49 3 5
-1 15 -9 22 -11 10 -17 5 -30 -25z m125 -105 c0 -5 -7 -10 -16 -10 -8 0 -12 5
-9 10 3 6 10 10 16 10 5 0 9 -4 9 -10z m-15 -59 c17 -7 16 -9 -13 -16 -43 -9
-112 3 -91 16 17 11 76 11 104 0z"/>
<path d="M8389 3753 c-6 -15 -8 -41 -5 -56 l6 -28 -93 1 c-212 3 -1380 -10
-1385 -15 -4 -3 -1 -14 4 -23 10 -15 33 -17 170 -19 87 -1 169 -2 182 -3 20 0
22 -5 22 -60 0 -59 32 -217 51 -252 5 -10 9 -25 9 -33 0 -8 4 -23 9 -33 6 -9
24 -46 40 -82 59 -128 123 -221 215 -312 83 -83 220 -185 291 -217 17 -7 38
-17 47 -22 10 -5 36 -9 57 -9 22 0 43 -4 46 -10 3 -5 16 -10 29 -10 12 0 26
-4 32 -9 11 -11 68 -20 184 -29 l85 -7 -5 -45 c-2 -25 -3 -63 -2 -85 1 -22 3
-179 4 -350 l3 -310 23 -3 c22 -3 23 0 21 35 -2 21 0 44 5 51 4 7 2 28 -5 46
-10 27 -10 38 0 49 8 10 8 17 2 21 -10 6 -6 553 4 584 3 7 23 12 52 12 26 0
82 7 123 16 41 8 87 18 103 21 15 3 30 9 33 14 3 5 22 9 43 9 35 0 161 54 169
73 2 4 8 7 14 7 13 0 99 59 119 82 9 10 20 18 25 18 4 0 17 9 28 19 l21 20
100 -109 c55 -61 104 -110 108 -110 9 0 114 -105 119 -119 2 -5 36 -43 76 -85
71 -74 102 -93 102 -59 0 19 -55 80 -258 288 -81 83 -162 167 -181 187 l-33
37 61 75 c98 120 178 262 210 376 7 25 17 53 22 62 5 10 9 35 9 56 0 21 3 42
8 46 4 4 12 46 17 94 l10 87 202 -4 c154 -2 209 0 232 10 17 8 31 17 31 22 0
20 -64 25 -300 21 -140 -2 -486 -6 -767 -9 l-513 -4 0 49 c0 57 -15 73 -31 33z
m595 -184 l-58 -59 -29 28 c-16 15 -45 41 -63 59 l-34 32 113 3 c61 2 116 1
120 -1 5 -2 -17 -30 -49 -62z m426 48 c0 -26 -45 -74 -75 -79 -17 -3 -20 3
-23 44 l-3 47 43 4 c24 2 46 4 51 5 4 1 7 -8 7 -21z m76 -28 c0 -24 -3 -48 -7
-54 -4 -5 -9 -30 -12 -55 -5 -41 -13 -81 -33 -165 -4 -16 -16 -45 -26 -63 -10
-18 -18 -39 -18 -46 0 -17 -77 -153 -102 -180 -10 -11 -18 -24 -18 -28 0 -5
-25 -34 -55 -66 -51 -52 -57 -55 -69 -40 -18 24 -174 195 -213 235 -18 18 -33
35 -33 39 0 3 18 27 40 52 23 25 54 75 71 111 16 36 34 74 40 83 5 10 9 27 9
37 0 11 5 23 10 26 6 3 10 26 10 49 0 61 10 106 24 106 7 0 20 -18 30 -40 9
-22 34 -53 54 -70 33 -27 44 -30 104 -30 66 0 69 1 113 43 27 27 47 56 51 76
9 45 29 32 30 -20z m-1991 22 c3 -10 8 -35 10 -55 6 -41 -9 -47 -50 -20 -23
15 -55 65 -55 86 0 4 20 8 44 8 35 0 46 -4 51 -19z m575 12 c0 -12 -103 -113
-115 -113 -10 1 -75 58 -108 96 l-17 21 120 2 c66 1 120 -2 120 -6z m313 -7
c-4 -8 -32 -35 -61 -61 l-53 -48 -55 54 c-30 29 -54 57 -54 61 0 4 52 8 115 8
96 0 115 -2 108 -14z m282 -46 c-33 -33 -62 -60 -65 -60 -7 0 -120 108 -120
115 0 3 55 5 122 5 l122 0 -59 -60z m603 10 c1 -27 -2 -50 -5 -50 -22 0 -75
38 -88 63 -8 16 -15 32 -15 34 0 1 24 3 54 3 l54 0 0 -50z m-1898 1 c1 -46 87
-111 147 -111 72 0 158 63 165 119 2 18 9 26 23 26 17 0 20 -7 22 -50 5 -92
42 -202 95 -282 15 -23 28 -45 28 -50 0 -5 28 -37 63 -72 72 -73 173 -141 237
-161 25 -7 50 -17 55 -20 6 -4 47 -13 93 -20 55 -9 82 -18 82 -27 0 -7 -7 -13
-16 -13 -26 0 -102 -58 -118 -92 -22 -43 -20 -120 4 -168 31 -61 52 -70 154
-70 87 0 89 0 120 33 59 63 64 163 11 234 -25 31 -75 63 -102 63 -19 0 -16 27
3 34 9 4 26 4 36 0 11 -3 32 -1 46 4 15 5 47 15 72 22 69 18 176 73 241 123
20 15 39 27 43 27 4 0 21 -17 39 -37 18 -21 57 -65 87 -99 30 -34 72 -82 92
-107 l37 -44 -42 -40 c-55 -53 -81 -70 -209 -141 -18 -10 -53 -24 -78 -32 -25
-7 -49 -17 -55 -21 -5 -4 -41 -10 -80 -13 -38 -3 -101 -9 -139 -15 -78 -10
-302 -3 -328 10 -9 5 -44 9 -77 9 -33 0 -63 5 -66 10 -3 6 -13 10 -21 10 -21
0 -140 57 -191 92 -23 15 -46 28 -51 28 -6 0 -12 3 -14 8 -1 4 -27 27 -57 52
-120 99 -209 213 -270 345 -80 171 -111 285 -111 401 0 67 2 75 15 64 8 -7 15
-20 15 -29z m280 24 c0 -21 -67 -85 -90 -85 -17 0 -20 7 -20 50 l0 50 55 0
c42 0 55 -4 55 -15z m1240 -127 c0 -4 -28 -37 -63 -72 l-63 -65 -62 62 c-34
34 -62 69 -62 76 0 7 28 40 62 72 l62 59 63 -62 c35 -34 63 -66 63 -70z
m-1036 65 c31 -32 56 -65 56 -74 0 -20 -63 -89 -82 -89 -9 0 -21 23 -31 63
-10 34 -22 75 -27 91 -9 29 2 66 20 66 4 0 33 -26 64 -57z m332 -9 l57 -65
-59 -60 c-32 -32 -63 -59 -69 -59 -6 0 -37 27 -69 59 l-59 59 19 24 c49 59 98
108 110 108 7 0 38 -29 70 -66z m318 7 c32 -32 57 -64 55 -69 -7 -19 -121
-132 -128 -128 -4 3 -8 62 -9 131 -1 94 2 125 11 125 7 0 39 -27 71 -59z m537
1 c-6 -12 -11 -34 -11 -49 0 -16 -6 -37 -13 -47 -12 -16 -14 -15 -37 9 l-24
25 44 45 c45 46 60 52 41 17z m-666 -130 c-7 -7 -65 48 -65 61 0 6 15 23 33
39 l32 29 3 -61 c2 -34 0 -65 -3 -68z m-45 -20 c67 -64 68 -91 2 -161 -26 -28
-51 -51 -56 -51 -9 0 -126 119 -126 128 1 9 116 132 124 132 3 0 28 -22 56
-48z m316 8 c22 -22 46 -56 53 -76 l13 -37 -55 -55 -55 -55 -67 68 -67 68 63
63 c35 35 66 64 70 64 3 0 24 -18 45 -40z m319 11 c27 -29 27 -31 12 -63 -9
-18 -25 -46 -35 -61 -16 -24 -21 -26 -31 -13 -7 8 -23 18 -34 22 -12 3 -34 11
-49 17 l-28 12 57 57 c32 32 62 58 68 58 6 0 24 -13 40 -29z m-942 -39 c31
-32 57 -62 57 -67 0 -12 -111 -125 -123 -125 -10 0 -37 26 -37 35 0 4 -16 26
-35 49 -19 24 -35 49 -35 57 0 16 89 109 105 109 6 0 36 -26 68 -58z m161
-163 l59 -60 -29 -32 c-52 -59 -63 -66 -88 -59 -33 9 -115 68 -123 88 -6 16
91 124 112 124 5 0 37 -27 69 -61z m324 -1 l60 -62 -57 -63 c-84 -94 -91 -90
-91 62 0 101 3 125 14 125 8 0 41 -28 74 -62z m322 -53 c-22 -27 -97 -75 -116
-75 -20 0 -74 48 -74 64 1 18 70 87 80 81 6 -4 10 -17 10 -29 0 -32 35 -75 49
-60 8 7 7 24 -4 60 -8 27 -15 51 -15 54 0 3 19 -14 42 -37 36 -37 40 -44 28
-58z m78 83 c-3 -7 -13 -13 -23 -13 -10 0 -20 6 -22 13 -3 7 5 12 22 12 17 0
25 -5 23 -12z m-521 -98 c1 -39 1 -70 -1 -70 -14 0 -75 74 -69 83 16 26 57 67
62 62 3 -3 6 -37 8 -75z m-55 -77 c26 -26 48 -51 48 -55 0 -12 -118 -10 -125
2 -3 6 -15 10 -25 10 -33 0 -33 21 1 56 18 19 38 34 43 34 6 0 32 -21 58 -47z
m302 22 c9 -13 16 -28 16 -32 0 -10 -49 -33 -72 -33 -9 0 -29 -5 -43 -12 -14
-6 -28 -8 -32 -4 -8 8 87 106 103 106 6 0 19 -11 28 -25z m-256 -262 l-3 -48
-47 -3 c-40 -3 -48 0 -48 14 0 24 59 84 83 84 15 0 18 -7 15 -47z m119 10 c19
-20 32 -41 30 -47 -2 -6 -26 -11 -53 -11 l-49 0 -3 48 c-3 43 -1 47 19 47 13
0 37 -15 56 -37z m33 -113 c0 -12 -20 -49 -35 -66 -13 -13 -55 -37 -60 -32 -3
3 -8 73 -6 96 1 15 101 17 101 2z m-152 -47 c-2 -27 -8 -48 -16 -51 -15 -5
-82 63 -82 84 0 10 13 14 51 14 l50 0 -3 -47z"/>
<path d="M9490 2181 c-33 -26 -35 -95 -3 -121 22 -17 22 -18 3 -23 -23 -6 -26
-43 -6 -69 18 -25 206 -27 206 -3 0 17 -2 18 -97 15 -71 -2 -73 -1 -73 22 0
18 8 27 35 37 34 12 65 53 65 85 0 8 -12 28 -26 45 -30 36 -67 40 -104 12z
m68 -30 c8 -5 12 -21 10 -37 -2 -23 -9 -30 -30 -32 -23 -3 -29 2 -34 24 -5 20
-2 31 11 41 22 15 25 16 43 4z"/>
<path d="M9650 2106 c0 -78 3 -96 15 -96 20 0 27 33 23 115 -2 57 -6 70 -20
73 -16 3 -18 -6 -18 -92z"/>
<path d="M9793 2180 c-3 -11 -12 -20 -19 -20 -19 0 -17 -20 4 -37 12 -10 14
-16 5 -19 -7 -3 -13 -19 -13 -35 0 -22 8 -34 33 -49 l32 -20 -43 0 c-39 0 -43
-2 -40 -22 2 -19 10 -24 48 -26 25 -2 62 2 83 9 33 11 39 10 51 -6 20 -27 36
-9 36 40 0 35 4 47 22 56 20 11 20 13 5 24 -11 8 -17 27 -17 56 0 24 -4 50 -9
58 -12 19 -41 6 -41 -18 0 -26 -26 -18 -33 10 -4 15 -14 19 -52 19 -38 0 -48
-4 -52 -20z m137 -105 c0 -57 -14 -75 -57 -75 -14 0 -10 6 15 26 33 26 40 52
21 71 -12 12 -4 33 12 33 5 0 9 -25 9 -55z m-64 4 c10 -16 -11 -32 -34 -24
-13 4 -19 12 -15 21 6 16 39 19 49 3z"/>
<path d="M10229 2183 c0 -10 -1 -46 -2 -80 -1 -58 -3 -63 -24 -63 -24 0 -31
14 -13 25 6 3 10 31 10 61 0 41 -4 56 -16 61 -10 4 -20 0 -26 -10 -11 -21 -51
-22 -68 -2 -7 8 -19 15 -26 15 -18 0 -19 -111 -2 -128 7 -7 32 -13 58 -14 40
-1 41 -2 10 -5 -71 -9 -92 -60 -37 -93 72 -44 201 -2 169 56 -4 8 -6 30 -4 49
3 26 9 35 23 35 25 0 24 25 -1 43 -12 8 -20 18 -19 23 4 25 -3 44 -16 44 -8 0
-15 -8 -16 -17z m-79 -78 c0 -9 -9 -15 -25 -15 -16 0 -25 6 -25 15 0 9 9 15
25 15 16 0 25 -6 25 -15z m54 -101 c34 -13 13 -24 -45 -24 -54 0 -60 2 -49 15
13 15 65 20 94 9z"/>
<path d="M10537 2193 c-4 -3 -7 -64 -7 -135 0 -102 3 -128 14 -128 20 0 26 32
26 146 0 73 -4 105 -13 113 -8 6 -17 8 -20 4z"/>
<path d="M10357 2183 c-17 -16 -5 -33 23 -33 28 0 30 -2 30 -40 0 -43 -12 -70
-47 -107 -25 -26 -28 -39 -13 -48 13 -8 44 13 62 42 l15 24 27 -35 c25 -34 66
-49 66 -25 0 5 -13 27 -29 47 -22 28 -30 50 -33 87 -2 48 -1 50 25 53 29 4 37
26 11 36 -21 8 -129 8 -137 -1z"/>
<path d="M10670 2183 c-24 -9 -40 -35 -40 -66 0 -36 16 -67 35 -67 19 0 19
-14 0 -30 -20 -17 -19 -53 3 -73 29 -26 141 -23 170 3 26 24 28 43 6 61 -14
11 -14 13 0 21 9 5 16 18 16 29 0 11 7 22 15 25 19 8 20 34 1 34 -9 0 -16 12
-18 33 -2 24 -8 32 -23 32 -18 0 -20 -8 -23 -72 l-3 -73 -32 0 c-27 1 -29 2
-14 11 13 8 17 23 17 68 0 52 -2 59 -22 65 -27 7 -67 7 -88 -1z m70 -68 c0
-32 -2 -35 -30 -35 -28 0 -30 3 -30 35 0 32 2 35 30 35 28 0 30 -3 30 -35z
m47 -121 c34 -9 17 -24 -27 -24 -50 0 -77 10 -58 21 15 10 54 11 85 3z"/>
<path d="M8386 1644 c-16 -24 -16 -28 -1 -60 13 -29 19 -33 31 -23 18 15 18
83 0 98 -11 9 -17 6 -30 -15z"/>
<path d="M4465 1021 l-70 -6 -3 -59 c-2 -42 1 -63 12 -75 11 -12 13 -20 5 -28
-6 -6 -8 -20 -4 -32 15 -50 123 -68 183 -31 32 20 43 52 21 66 -8 4 -8 9 0 17
15 15 14 144 -1 153 -15 10 -37 -23 -31 -46 3 -11 1 -20 -5 -20 -6 0 -12 14
-14 32 -4 37 -2 36 -93 29z m45 -56 c0 -14 0 -28 0 -32 0 -12 -61 -25 -79 -17
-11 5 -4 9 24 13 27 4 41 12 43 24 3 13 -3 17 -27 17 -16 0 -33 5 -36 10 -4 6
10 10 34 10 37 0 41 -2 41 -25z m65 -64 c3 -5 1 -12 -5 -16 -5 -3 -10 1 -10 9
0 18 6 21 15 7z m-5 -66 c0 -12 -14 -15 -65 -15 -60 0 -75 6 -58 23 3 4 33 7
65 7 45 0 58 -3 58 -15z"/>
<path d="M4892 1003 c3 -15 18 -19 88 -23 68 -4 85 -8 88 -21 4 -22 -19 -30
-106 -36 -71 -6 -97 -18 -72 -33 7 -4 48 -5 91 -3 44 3 79 2 79 -3 0 -5 -3
-19 -6 -32 -6 -22 -10 -23 -93 -20 -83 3 -86 2 -89 -19 -3 -23 -2 -23 122 -23
103 0 126 3 126 14 0 8 -4 18 -10 21 -5 3 -10 46 -10 95 0 71 -3 89 -16 94 -9
3 -56 6 -106 6 -80 0 -89 -2 -86 -17z"/>
</g>
</svg>
