<?xml version="1.0" standalone="no"?>
<!DOCTYPE svg PUBLIC "-//W3C//DTD SVG 20010904//EN"
 "http://www.w3.org/TR/2001/REC-SVG-20010904/DTD/svg10.dtd">
<svg version="1.0" xmlns="http://www.w3.org/2000/svg"
 width="686.000000pt" height="826.000000pt" viewBox="0 0 686.000000 826.000000"
 preserveAspectRatio="xMidYMid meet">
<metadata>
Created by potrace 1.13, written by Peter Selinger 2001-2015
</metadata>
<g transform="translate(0.000000,826.000000) scale(0.100000,-0.100000)"
 stroke="none">
<path d="M714 8222 c-28 -22 -44 -54 -45 -89 -1 -20 -3 -22 -6 -8 -2 11 -16
30 -31 42 l-27 23 28 0 c20 0 27 5 27 20 0 15 -7 20 -28 20 -35 0 -62 -27 -62
-62 0 -20 6 -27 31 -32 34 -6 37 -31 6 -50 -13 -8 -20 -8 -26 3 -5 8 -16 11
-24 8 -19 -7 -27 14 -29 76 0 27 -6 48 -13 51 -15 5 -109 -130 -100 -144 4 -6
21 -10 39 -10 17 0 37 -5 44 -12 9 -9 16 -8 31 6 17 15 19 15 25 1 10 -26 88
-16 101 13 12 28 19 28 39 -3 21 -32 65 -33 92 -4 13 15 19 36 19 71 0 42 -4
53 -28 74 -33 28 -36 29 -63 6z m54 -78 c2 -27 -2 -45 -12 -53 -24 -20 -36 -4
-36 50 0 47 2 50 23 47 18 -2 23 -10 25 -44z m-281 -26 c-3 -8 -6 -5 -6 6 -1
11 2 17 5 13 3 -3 4 -12 1 -19z"/>
<path d="M912 8152 c-11 -7 -13 -688 -12 -3740 0 -2052 3 -3738 6 -3747 6 -13
306 -15 2890 -15 l2884 0 0 3744 c0 2858 -3 3747 -12 3752 -17 11 -5740 17
-5756 6z m393 -224 c0 -104 -3 -188 -7 -188 -5 0 -87 0 -183 0 l-175 0 0 183
c0 101 3 187 7 191 4 3 86 5 182 4 l176 -3 0 -187z m403 184 c9 -3 12 -50 12
-188 l0 -184 -190 0 -190 0 0 184 c0 138 3 186 13 190 14 6 336 5 355 -2z
m417 -184 c0 -104 -3 -188 -7 -188 -5 0 -87 0 -183 0 l-175 0 0 190 0 190 183
-2 182 -3 0 -187z m413 0 l2 -188 -189 0 -189 0 -1 184 c-2 170 -1 185 16 189
10 3 95 4 188 3 l170 -1 3 -187z m407 -1 l0 -188 -180 0 -180 0 -3 178 c-1 97
0 182 2 189 3 8 57 11 183 10 l178 -1 0 -188z m410 187 c14 -6 16 -29 14 -190
l-1 -184 -194 0 -194 0 0 184 c0 138 3 186 13 189 18 8 343 8 362 1z m413
-184 l-3 -191 -180 0 -180 0 -3 178 c-1 97 -1 182 2 189 3 7 62 12 185 13
l181 2 -2 -191z m400 184 c22 -6 22 -8 22 -190 l0 -184 -190 0 -190 0 0 184
c0 138 3 186 13 189 17 8 318 8 345 1z m422 -186 l0 -193 -185 0 -185 0 0 186
c0 102 3 189 7 192 3 4 87 7 185 7 l178 0 0 -192z m421 -3 l0 -190 -180 -1
c-100 0 -185 2 -190 6 -13 8 -19 369 -6 374 6 3 92 4 193 3 l183 -2 0 -190z
m659 189 c0 -9 -115 -146 -181 -217 -35 -37 -80 -88 -99 -112 -19 -25 -44 -48
-55 -51 -11 -2 -83 -3 -160 -2 l-140 3 -2 180 c-1 99 0 186 2 192 3 10 77 13
320 12 173 0 315 -3 315 -5z m165 -74 l0 -75 -105 -118 -104 -117 -81 1 c-100
1 -118 6 -102 35 7 11 77 95 156 188 l145 167 45 -3 46 -3 0 -75z m125 74 c0
-9 -94 -114 -102 -114 -10 0 -11 104 -1 113 8 8 103 9 103 1z m280 -20 c6 -14
10 -29 10 -33 0 -9 -65 -84 -203 -234 l-91 -98 -50 3 -51 3 -3 82 c-2 54 2 91
10 107 7 13 48 63 92 110 l78 86 99 0 c98 0 100 0 109 -26z m60 17 c0 -12 -20
-25 -27 -18 -7 7 6 27 18 27 5 0 9 -4 9 -9z m260 2 c0 -5 -22 -31 -48 -58 -26
-28 -87 -95 -136 -148 -49 -53 -93 -97 -98 -97 -4 0 -8 45 -8 99 l0 100 51 55
51 56 94 0 c52 0 94 -3 94 -7z m90 -70 l0 -78 -113 -118 -112 -118 -67 1 c-39
0 -68 4 -68 10 0 6 31 43 68 83 38 39 115 123 171 185 57 61 107 112 112 112
5 0 9 -35 9 -77z m-406 -179 c-1 -132 -3 -134 -119 -134 -45 0 -85 3 -88 6 -6
6 43 63 166 197 19 20 36 37 38 37 2 0 4 -48 3 -106z m406 -49 l0 -85 -75 0
c-41 0 -75 3 -75 6 0 5 142 164 148 164 1 0 2 -38 2 -85z m-812 -7 l-3 -73
-68 -3 c-44 -2 -68 1 -65 7 7 22 114 141 126 141 10 0 12 -18 10 -72z m-518
-98 c0 -5 -57 -76 -127 -157 -146 -169 -150 -173 -157 -173 -9 0 -7 303 2 317
5 8 45 13 117 15 61 2 122 4 138 5 15 1 27 -2 27 -7z m274 1 c7 -11 -124 -169
-142 -170 -7 -1 -16 -9 -19 -18 -4 -10 -32 -47 -63 -83 -31 -36 -67 -77 -80
-92 -23 -27 -27 -28 -127 -28 -57 0 -103 3 -103 6 0 4 33 43 73 88 39 45 92
106 117 136 46 56 106 125 127 147 22 24 43 15 43 -17 0 -16 5 -30 10 -30 6 0
10 10 10 23 0 13 4 27 10 33 13 13 137 17 144 5z m238 -4 c4 -7 8 -33 8 -60 0
-45 -4 -52 -77 -135 -42 -48 -99 -111 -127 -139 l-50 -53 -129 1 -129 1 18 21
c10 12 35 40 57 62 21 22 88 99 149 170 62 72 116 133 122 137 18 12 150 8
158 -5z m98 0 c0 -15 -57 -77 -71 -77 -9 0 -13 73 -4 82 11 11 75 7 75 -5z
m260 6 c0 -10 -24 -37 -147 -170 -55 -59 -117 -127 -138 -150 -20 -24 -41 -43
-46 -43 -5 0 -9 42 -9 94 0 106 -1 104 111 219 l56 57 87 0 c47 0 86 -3 86 -7z
m210 -4 c0 -12 -106 -131 -122 -137 -9 -4 -11 131 -1 141 11 12 123 8 123 -4z
m220 0 c0 -4 -44 -54 -97 -111 -54 -57 -130 -138 -169 -181 -39 -42 -74 -77
-77 -77 -4 0 -7 34 -7 75 l0 75 85 95 c120 132 125 135 201 134 35 -1 64 -5
64 -10z m-5310 -194 l0 -195 -185 0 -185 0 0 195 0 195 185 0 185 0 0 -195z
m405 0 l0 -190 -185 0 -185 0 -3 180 c-1 98 0 185 3 192 3 11 44 13 187 11
l183 -3 0 -190z m415 0 l0 -195 -185 0 -185 0 0 195 0 195 185 0 185 0 0 -195z
m410 0 l0 -195 -184 0 -184 0 -7 27 c-7 28 -5 330 3 351 3 9 50 12 188 12
l184 0 0 -195z m410 0 l0 -195 -185 0 -185 0 0 195 0 195 185 0 185 0 0 -195z
m414 179 c7 -20 6 -341 -1 -361 -4 -10 -47 -13 -188 -13 l-183 0 -6 28 c-7 33
-6 343 0 354 3 4 88 8 189 8 160 0 184 -2 189 -16z m406 -179 l0 -195 -185 0
-185 0 0 195 0 195 185 0 185 0 0 -195z m415 173 c2 -13 4 -99 2 -193 l-2
-170 -187 -3 -188 -2 0 195 0 195 185 0 c183 0 185 0 190 -22z m405 -173 l0
-195 -185 0 -185 0 0 195 0 195 185 0 185 0 0 -195z m421 108 c1 -49 3 -126 4
-173 5 -134 12 -130 -204 -130 -178 0 -179 0 -182 23 -2 12 -3 100 -1 195 l3
172 190 0 189 0 1 -87z m1233 -14 c-2 -89 8 -72 -114 -202 -30 -32 -59 -65
-63 -73 -6 -10 -29 -14 -88 -14 l-80 0 157 173 c128 141 182 197 188 197 1 0
0 -36 0 -81z m406 -59 l0 -109 -58 -62 -58 -61 -99 1 c-55 1 -101 4 -103 6 -3
2 40 51 95 107 55 57 126 131 158 166 32 34 59 62 61 62 2 0 4 -49 4 -110z
m-810 -130 c0 -66 -4 -91 -14 -97 -19 -10 -168 -4 -164 7 6 16 160 180 169
180 5 0 9 -40 9 -90z m405 -32 l-3 -63 -61 -5 c-43 -3 -61 -2 -59 6 4 18 102
123 114 123 7 1 10 -21 9 -61z m405 -42 c0 -15 -7 -26 -19 -29 -30 -7 -34 4
-9 30 27 29 28 29 28 -1z m-1160 -55 c30 3 58 3 63 -1 4 -3 -24 -39 -63 -79
-38 -40 -70 -76 -70 -79 0 -4 -49 -59 -109 -122 l-109 -115 -68 -6 -69 -6 58
-1 c31 -1 57 -4 57 -7 0 -3 -10 -19 -21 -34 -20 -28 -19 -51 3 -51 5 0 28 20
50 45 l40 45 84 0 c46 0 84 -4 84 -8 0 -9 -73 -91 -247 -279 -98 -105 -106
-112 -135 -106 -29 6 -30 5 -24 -24 8 -35 -5 -53 -116 -168 -37 -38 -68 -78
-68 -87 0 -26 36 -23 55 5 8 12 46 54 83 92 37 39 106 113 152 165 47 52 96
106 110 120 14 14 60 64 104 113 43 48 85 87 92 87 8 0 14 9 14 19 0 11 14 31
31 45 26 22 40 26 95 26 35 0 64 -3 64 -6 0 -16 -175 -204 -190 -204 -6 0 -10
-6 -10 -13 0 -8 -9 -22 -20 -32 -11 -10 -20 -26 -20 -37 0 -26 34 -23 53 5 8
12 27 36 43 52 16 17 71 77 123 133 l94 102 63 0 c45 0 64 -4 64 -12 0 -7 -33
-47 -73 -89 -39 -41 -133 -140 -207 -220 -482 -515 -464 -498 -504 -483 -20 8
-21 62 -1 91 13 18 13 22 0 33 -13 11 -27 1 -87 -61 -39 -41 -82 -87 -94 -103
-13 -16 -77 -86 -142 -155 -65 -69 -138 -147 -161 -173 l-44 -48 -69 0 -70 0
61 69 c34 38 61 73 61 79 0 40 -43 7 -151 -115 -27 -32 -33 -34 -82 -31 -50 3
-52 4 -55 34 -2 25 4 39 31 65 18 19 85 91 147 162 62 70 116 127 121 127 4 0
14 11 21 24 11 21 99 121 245 278 47 51 51 63 27 72 -15 6 -57 -35 -139 -131
-35 -43 -45 -41 -45 6 0 22 -4 43 -10 46 -6 4 -10 -18 -10 -59 0 -70 -2 -74
-116 -195 -8 -9 -30 -14 -56 -13 -47 2 -85 -13 -58 -22 8 -3 28 -6 45 -8 l29
-3 -24 -25 c-14 -14 -64 -69 -112 -123 -49 -53 -89 -94 -90 -89 -7 34 -1 238
7 244 6 5 4 14 -7 24 -13 13 -23 15 -40 8 -13 -5 -62 -7 -110 -4 l-87 5 93
108 c52 59 96 111 100 114 3 3 12 0 21 -7 13 -11 15 -8 15 18 0 36 82 140 118
149 16 4 21 10 17 21 -3 9 13 34 42 66 70 75 113 129 113 143 0 27 -25 24 -54
-8 -29 -31 -217 -247 -270 -309 -30 -35 -209 -243 -221 -256 -5 -6 -35 -40
-65 -75 -30 -35 -89 -102 -130 -149 -41 -48 -95 -110 -120 -140 -44 -52 -143
-166 -260 -300 -32 -36 -70 -81 -86 -100 -16 -19 -31 -37 -34 -40 -13 -13
-100 -112 -145 -165 -93 -111 -269 -310 -279 -317 -6 -4 -66 -8 -133 -8 l-123
0 0 195 0 195 86 0 c54 0 83 4 79 10 -3 6 -42 10 -86 10 l-79 0 0 195 0 195
185 0 184 0 3 -77 c2 -50 7 -78 16 -81 9 -3 12 17 12 77 l0 80 67 3 c93 4 97
26 6 30 l-68 3 0 190 0 190 190 0 190 0 3 -40 c1 -22 5 -47 8 -55 9 -25 24 10
24 58 l0 42 41 0 c52 0 48 24 -4 28 l-37 3 0 190 0 189 184 0 c178 0 185 -1
191 -21 7 -20 7 -19 31 6 27 29 30 43 12 50 -16 6 -19 366 -3 377 6 4 89 8
185 8 143 0 180 3 198 16 21 15 22 20 22 205 l0 189 185 0 185 0 0 -89 c0 -80
9 -115 26 -98 3 2 6 45 7 93 l2 89 169 3 169 2 -37 -42 c-86 -100 -116 -140
-110 -149 14 -23 45 -1 114 80 41 49 78 86 81 85 4 -2 8 -53 8 -113 l2 -110
-52 -58 c-78 -89 -86 -94 -130 -88 -22 3 -39 1 -39 -5 0 -6 16 -10 35 -10 19
0 35 -2 35 -5 0 -3 -17 -24 -37 -47 -50 -54 -50 -54 -112 -128 -30 -36 -63
-73 -75 -84 -21 -18 -21 -18 -26 18 -8 57 -24 43 -25 -22 -1 -49 -5 -62 -30
-91 -37 -41 -38 -56 -2 -56 21 1 29 -5 33 -22 8 -29 17 -29 29 -1 6 13 19 23
30 24 53 2 65 5 65 14 0 5 -3 9 -7 9 -5 -1 -25 -1 -46 0 -54 1 -56 22 -9 73
21 24 94 105 161 181 106 120 126 137 154 138 23 1 26 3 10 6 -28 5 -29 11 -1
40 26 28 35 29 41 6 3 -10 5 -4 6 14 1 31 17 55 96 143 56 64 143 164 158 182
17 22 31 24 95 18 32 -3 82 -2 112 1z m315 -2 c3 -4 -86 -103 -280 -312 -49
-52 -77 -75 -88 -71 -8 3 -18 1 -22 -5 -9 -16 -135 -14 -135 2 0 6 38 52 85
101 47 48 85 91 85 95 0 3 42 49 93 101 l92 96 83 -2 c46 -1 85 -3 87 -5z
m203 -3 c4 -9 -137 -166 -149 -166 -16 0 -11 147 5 163 15 15 138 17 144 3z
m216 3 c5 -5 -30 -45 -227 -253 -71 -75 -133 -136 -138 -136 -5 0 -9 32 -9 71
l0 71 68 71 c37 39 92 96 122 127 l55 56 62 -1 c34 0 64 -3 67 -6z m268 -9
c-1 -6 -36 -46 -76 -88 -41 -42 -86 -92 -101 -109 -15 -18 -31 -33 -36 -33 -5
0 -9 49 -9 109 0 97 2 111 19 123 24 17 207 15 203 -2z m156 -31 l3 -44 -161
-165 c-88 -91 -160 -167 -160 -169 0 -11 -45 -51 -56 -51 -24 0 0 55 27 59
l24 4 -25 6 c-20 6 -26 14 -28 43 -3 41 8 55 210 265 90 94 101 103 130 99 31
-3 33 -6 36 -47z m-5338 -154 l0 -195 -185 0 -185 0 0 195 0 195 185 0 185 0
0 -195z m408 3 l-3 -193 -185 0 -185 0 -3 193 -2 192 190 0 190 0 -2 -192z
m412 -3 l0 -195 -185 0 -185 0 0 195 0 195 185 0 185 0 0 -195z m408 3 l-3
-193 -181 -3 c-170 -2 -182 -1 -186 16 -8 29 -10 351 -3 362 4 6 79 10 191 10
l184 0 -2 -192z m412 -3 l0 -195 -185 0 -185 0 0 195 0 195 185 0 185 0 0
-195z m418 20 c1 -93 0 -180 -3 -192 -5 -23 -7 -23 -189 -23 -158 0 -185 2
-190 16 -8 22 -8 359 1 368 4 3 90 5 192 4 l186 -3 3 -170z m402 -20 l0 -195
-185 0 -185 0 0 195 0 195 185 0 185 0 0 -195z m420 0 l0 -195 -190 0 -190 0
0 195 0 195 190 0 190 0 0 -195z m1040 188 c0 -5 -17 -26 -38 -48 -21 -22 -62
-68 -91 -102 -30 -35 -58 -63 -63 -63 -4 0 -8 50 -7 110 l1 110 99 0 c54 0 99
-3 99 -7z m610 -119 l0 -75 -57 -61 c-142 -150 -125 -138 -198 -138 -41 0 -65
4 -65 11 0 6 31 43 68 83 110 115 178 189 207 224 15 17 31 32 36 32 5 0 9
-34 9 -76z m404 -49 l-1 -106 -39 -41 c-76 -81 -68 -78 -171 -78 -76 0 -94 3
-91 14 2 8 56 70 121 139 65 69 127 137 138 151 37 47 44 34 43 -79z m338
-154 c-63 -66 -71 -71 -110 -71 -24 0 -42 5 -42 11 0 6 48 62 108 124 l107
114 3 -54 3 -53 -69 -71z m-744 -8 l-3 -58 -52 -3 c-34 -2 -53 1 -53 8 0 13
89 110 102 110 5 0 8 -26 6 -57z m812 -28 c0 -30 -3 -35 -24 -35 -36 0 -40 15
-11 44 14 14 28 26 30 26 3 0 5 -16 5 -35z m-400 -4 c0 -12 -29 -35 -36 -28
-11 10 5 37 21 37 8 0 15 -4 15 -9z m-4940 -239 l0 -187 -182 2 -183 3 -3 185
-2 185 177 2 c98 2 181 2 186 0 4 -2 7 -87 7 -190z m1638 -2 l2 -190 -185 0
-185 0 0 188 c0 104 2 191 4 193 2 2 85 3 183 2 l178 -2 3 -191z m822 3 l0
-193 -185 0 -185 0 0 193 0 192 185 0 185 0 0 -192z m2338 188 c-4 -13 -242
-269 -250 -270 -4 -1 -9 41 -11 92 l-3 92 -2 -103 -2 -103 -44 -47 -45 -48
-83 2 c-45 2 -89 -2 -98 -7 -10 -6 12 -8 68 -7 45 2 82 -1 82 -6 0 -5 -21 -33
-46 -62 -43 -51 -49 -74 -19 -74 7 0 37 27 67 61 62 72 81 84 107 69 13 -7 22
-7 26 0 9 14 75 13 75 -2 0 -13 -59 -78 -71 -78 -4 0 -10 15 -12 33 -3 25 -4
22 -5 -14 -2 -43 -7 -52 -84 -135 -155 -165 -185 -194 -202 -194 -9 0 -14 -5
-11 -10 3 -6 -50 -71 -119 -145 -69 -73 -126 -138 -126 -144 0 -5 5 -13 11
-17 12 -7 75 55 358 354 84 89 157 162 162 162 5 0 9 -27 9 -60 0 -44 4 -60
14 -60 13 0 78 64 248 243 41 42 79 77 86 77 7 0 12 7 12 16 0 16 27 43 43 44
14 0 7 -29 -10 -39 -16 -9 -16 -11 -2 -28 9 -10 16 -32 15 -50 -1 -27 -31 -63
-206 -244 -113 -117 -221 -229 -240 -249 -19 -20 -84 -87 -144 -148 l-109
-112 -53 0 c-29 0 -56 -4 -59 -10 -7 -11 39 -25 54 -15 21 13 33 -6 16 -25
-17 -19 -13 -40 7 -40 6 0 28 16 50 35 21 20 43 33 48 30 18 -11 32 6 18 22
-10 13 -7 20 22 46 l35 31 3 -25 c4 -34 49 -77 85 -81 26 -3 21 -10 -99 -130
-116 -116 -137 -148 -99 -148 7 0 67 54 131 120 65 66 122 120 126 120 10 0 9
-322 -1 -338 -4 -6 -45 -12 -96 -13 -127 -2 -130 -13 -5 -19 l104 -5 -1 -190
-2 -190 -376 -2 c-206 -1 -375 0 -375 3 0 4 63 69 140 145 77 76 140 144 140
149 0 6 -7 13 -16 17 -11 4 -58 -37 -157 -135 -187 -186 -200 -198 -205 -182
-3 7 4 19 14 26 11 7 22 17 25 21 20 27 377 386 390 393 13 7 15 5 12 -14 -7
-34 41 -86 79 -86 32 0 57 23 58 51 0 27 -55 79 -84 79 -14 0 -26 3 -26 7 0 4
59 67 131 139 119 121 142 154 105 154 -7 0 -154 -142 -327 -315 -172 -173
-317 -315 -321 -315 -5 0 -8 21 -8 46 0 42 4 50 61 109 40 42 59 70 56 80 -10
24 -24 18 -63 -25 -20 -22 -40 -40 -45 -40 -12 0 -11 67 1 75 7 4 7 13 0 26
-6 11 -8 25 -4 32 4 6 58 64 118 126 61 63 131 137 156 164 25 26 58 60 75 75
16 15 38 38 50 51 11 13 30 35 43 48 28 31 22 57 -10 48 -13 -4 -30 -17 -38
-28 -8 -12 -34 -42 -59 -67 -24 -25 -78 -81 -119 -125 -42 -44 -151 -159 -242
-255 -92 -96 -211 -222 -265 -280 -55 -58 -105 -109 -112 -113 -10 -6 -13 3
-13 39 0 45 3 49 101 153 56 58 110 110 120 115 11 5 19 14 19 20 0 6 22 34
50 61 46 47 61 77 42 89 -9 5 -192 -169 -192 -182 0 -9 -123 -132 -132 -132
-15 0 -9 132 6 149 97 108 288 315 356 386 93 98 203 214 268 285 41 44 47 60
25 67 -11 4 -39 -22 -166 -156 -37 -39 -74 -71 -82 -71 -8 0 -15 -6 -15 -14 0
-25 -39 -63 -72 -71 -18 -4 -27 -9 -20 -12 19 -7 15 -19 -25 -61 -21 -22 -89
-94 -151 -161 -63 -66 -118 -121 -123 -121 -5 0 -9 46 -9 103 l0 102 45 50
c25 27 45 53 45 57 0 18 -24 18 -43 1 -38 -35 -47 -36 -47 -9 0 19 7 27 25 32
28 7 24 24 -6 24 -16 0 -20 6 -17 29 3 28 125 169 285 329 29 29 53 55 53 58
0 8 43 43 53 44 18 0 5 -39 -15 -46 l-21 -6 23 -13 c13 -7 31 -10 42 -8 15 5
17 1 12 -26 -9 -41 15 -42 49 -1 18 21 35 30 55 30 37 0 48 11 23 25 -19 10
-9 23 119 155 77 80 140 146 140 148 0 10 76 83 91 87 11 4 19 13 19 21 0 8
44 61 98 117 55 56 116 121 137 145 20 23 44 42 51 42 8 0 14 7 14 16 0 9 14
29 31 45 30 28 35 29 131 29 56 0 98 -4 96 -9z m128 1 c6 -4 11 -25 11 -47 1
-45 -5 -53 -189 -241 l-99 -102 -50 4 c-27 1 -54 6 -59 9 -14 9 5 42 49 86 20
19 92 95 159 167 121 129 146 146 178 124z m254 0 c0 -10 -209 -232 -218 -232
-4 0 -5 24 -2 54 5 50 10 59 68 120 59 62 65 66 107 66 25 0 45 -4 45 -8z
m160 -35 c0 -34 -6 -48 -27 -68 -16 -13 -75 -74 -133 -134 -129 -134 -154
-155 -181 -148 -19 5 -20 4 -8 -15 10 -17 10 -23 0 -36 -8 -9 -17 -16 -22 -16
-12 0 -11 37 1 45 7 4 7 12 0 25 -5 10 -10 33 -10 50 0 27 16 48 93 127 50 53
116 122 146 154 50 55 57 59 98 59 l43 0 0 -43z m-4932 -154 l-3 -188 -170 0
c-93 0 -178 1 -187 4 -16 3 -18 20 -18 187 l0 184 190 0 190 0 -2 -187z m412
-2 l0 -189 -185 0 -185 0 0 189 0 189 185 0 185 0 0 -189z m408 2 l-3 -188
-165 -3 c-91 -1 -175 0 -188 3 l-23 6 2 184 1 185 189 0 189 0 -2 -187z m832
3 c0 -158 -2 -185 -16 -190 -9 -3 -89 -6 -179 -6 -90 0 -170 3 -179 6 -14 5
-16 32 -16 190 l0 184 195 0 195 0 0 -184z m3232 -148 c-48 -48 -50 -49 -115
-51 -37 -1 -67 1 -67 5 0 4 51 59 113 123 l112 117 3 -73 3 -73 -49 -48z
m-355 116 c0 -42 -5 -50 -63 -111 -56 -59 -65 -64 -92 -58 -18 3 -33 2 -37 -4
-3 -7 2 -11 14 -11 12 0 21 -6 21 -13 0 -15 -217 -247 -231 -247 -5 0 -9 21
-9 46 0 44 4 50 77 125 42 43 84 81 95 84 10 4 18 13 18 22 0 17 179 212 196
213 6 0 11 -19 11 -46z m389 -173 c-9 -10 -16 -21 -16 -25 0 -9 -335 -346
-343 -346 -4 0 -7 8 -7 17 0 19 305 330 332 339 10 3 18 11 18 18 0 6 6 18 12
24 20 20 23 -6 4 -27z m-116 -20 c0 -9 -234 -241 -243 -241 -4 0 -7 29 -7 63
l0 64 63 60 62 60 63 0 c34 0 62 -3 62 -6z m-5210 -191 l0 -190 -185 0 -185 0
0 190 0 190 185 0 185 0 0 -190z m408 -2 l2 -188 -190 0 -190 0 0 183 c0 101
3 187 7 191 4 3 88 5 187 4 l181 -3 3 -187z m412 2 l0 -190 -185 0 -185 0 0
190 0 190 185 0 185 0 0 -190z m408 -2 l2 -188 -190 0 -190 0 0 184 c0 138 3
186 13 189 6 3 91 5 187 4 l175 -2 3 -187z m412 2 l0 -190 -185 0 -185 0 0
190 0 190 185 0 185 0 0 -190z m418 -2 l2 -188 -195 0 -195 0 0 183 c0 101 3
187 7 191 4 3 90 5 192 4 l186 -3 3 -187z m3282 -23 l0 -165 -167 0 -167 0
159 164 c88 89 163 164 168 165 4 0 7 -73 7 -164z m-406 -7 c-1 -60 -2 -62
-55 -112 -54 -51 -54 -52 -112 -48 -32 2 -57 6 -54 8 2 2 49 51 103 109 54 57
104 105 110 105 6 0 9 -24 8 -62z m-5 -158 c-22 -14 -34 2 -13 17 13 10 20 10
23 2 2 -6 -3 -15 -10 -19z m-4929 -225 l0 -195 -185 0 -185 0 0 195 0 195 185
0 185 0 0 -195z m405 0 l0 -190 -185 0 -185 0 -3 180 c-1 98 0 185 3 192 3 11
44 13 187 11 l183 -3 0 -190z m415 0 l0 -195 -185 0 -185 0 0 195 0 195 185 0
185 0 0 -195z m408 -2 l2 -193 -178 0 c-125 0 -182 4 -190 12 -17 17 -17 349
0 366 9 9 60 12 188 10 l175 -3 3 -192z m412 2 l0 -195 -185 0 -185 0 0 195 0
195 185 0 185 0 0 -195z m1188 186 c-5 -16 -322 -371 -330 -371 -5 0 -8 46 -8
103 0 99 1 103 30 137 16 19 49 58 72 87 l43 52 98 1 c54 0 97 -4 95 -9z
m1944 -24 c-18 -18 -32 -38 -32 -44 0 -29 25 -20 78 26 55 48 82 62 82 43 0
-13 -365 -372 -378 -372 -7 0 -12 8 -12 18 0 26 -50 70 -83 74 l-28 3 48 47
49 48 52 -46 c35 -31 58 -44 69 -40 13 5 4 17 -40 57 -57 50 -57 51 -39 74 22
31 30 31 38 0 7 -27 61 -75 84 -75 21 0 50 31 50 53 0 31 -38 75 -70 82 -17 4
-30 9 -30 13 0 3 14 21 32 39 30 31 37 33 97 33 l65 0 -32 -33z m568 -162 l0
-195 -187 2 -188 3 -3 180 c-1 98 0 185 2 192 4 10 49 13 191 13 l185 0 0
-195z m-2507 -140 l-47 -55 -114 0 -113 0 21 28 c12 15 83 97 158 182 l137
154 3 -127 3 -128 -48 -54z m2095 113 l-3 -163 -162 -3 c-90 -1 -163 1 -163 5
0 10 313 323 323 323 4 0 6 -73 5 -162z m-270 96 c23 -16 31 -64 10 -64 -18 1
-54 31 -61 52 -11 31 15 37 51 12z m-2192 -176 l-1 -83 -78 -3 c-91 -3 -91 -7
-2 93 33 37 62 72 63 76 2 5 7 7 12 4 4 -3 7 -42 6 -87z m1988 -29 c30 -23 35
-59 9 -59 -29 1 -53 25 -53 54 0 31 9 33 44 5z m-1574 -44 c0 -8 -7 -15 -16
-15 -14 0 -14 3 -4 15 7 8 14 15 16 15 2 0 4 -7 4 -15z m-138 -55 c-2 -7 -24
-36 -51 -64 -46 -49 -97 -106 -156 -173 -16 -18 -32 -33 -37 -33 -4 0 -8 53
-8 118 0 109 2 119 23 142 22 24 28 25 128 23 75 -1 103 -5 101 -13z m122 14
c12 -5 16 -20 16 -61 l0 -55 -106 -116 c-58 -65 -121 -131 -140 -148 -19 -17
-34 -34 -34 -38 0 -11 -92 -106 -102 -106 -13 0 -9 95 4 108 9 9 9 15 0 24 -7
7 -12 15 -12 20 0 8 42 57 174 202 171 187 166 183 200 170z m115 -3 c8 -1
-62 -71 -71 -71 -9 0 -11 64 -3 72 5 4 38 4 74 -1z m195 0 c5 -1 -29 -40 -75
-89 -46 -48 -106 -113 -133 -144 -27 -31 -53 -55 -58 -52 -4 3 -8 32 -8 66 0
65 1 67 106 180 44 46 44 46 101 43 32 -2 62 -4 67 -4z m114 -39 c4 -49 13
-37 -212 -273 -61 -63 -123 -130 -137 -148 -15 -18 -30 -28 -33 -23 -3 5 -4
34 -2 65 3 55 5 59 86 149 164 184 261 279 278 276 12 -2 18 -15 20 -46z
m-3290 -152 l-3 -191 -183 -2 -182 -2 0 193 0 192 185 0 185 0 -2 -190z m412
0 c0 -145 -3 -190 -12 -191 -66 -3 -352 2 -359 6 -5 4 -9 87 -9 191 l0 184
190 0 190 0 0 -190z m410 -3 l0 -193 -182 3 -183 4 -3 189 -2 190 185 0 185 0
0 -193z m411 6 c1 -100 -2 -187 -6 -193 -9 -15 -347 -14 -363 2 -8 8 -12 66
-12 195 l0 183 190 -2 191 -3 0 -182z m1229 180 c0 -5 -17 -26 -38 -48 -20
-22 -66 -74 -102 -115 -103 -118 -142 -162 -182 -202 -21 -21 -38 -42 -38 -48
0 -5 -3 -10 -7 -10 -5 0 -8 47 -7 104 l1 104 74 87 c41 48 82 98 92 111 17 22
25 24 113 24 52 0 94 -3 94 -7z m2470 -172 c0 -99 -3 -186 -6 -195 -5 -14 -31
-16 -189 -16 -158 0 -184 2 -189 16 -3 9 -6 89 -6 179 0 90 3 170 6 179 5 14
32 16 195 16 l189 0 0 -179z m410 -15 l0 -194 -182 -1 c-134 -1 -184 3 -190
12 -4 6 -8 94 -8 195 l0 182 190 0 190 0 0 -194z m-2870 -13 l0 -116 -45 -44
c-25 -23 -45 -47 -45 -52 0 -5 -3 -11 -7 -13 -5 -1 -46 -46 -93 -98 -47 -52
-101 -112 -120 -133 -19 -21 -39 -45 -43 -53 -4 -8 -14 -14 -22 -14 -12 0 -14
21 -14 110 0 121 -2 116 87 210 37 39 186 209 246 282 22 26 43 45 48 42 4 -3
8 -57 8 -121z m820 -57 c0 -98 -2 -106 -23 -123 -13 -10 -26 -23 -28 -30 -6
-15 -322 -353 -331 -353 -5 0 -8 48 -8 107 l0 106 84 86 c90 93 180 189 247
264 23 26 46 47 51 47 4 0 8 -47 8 -104z m-454 -103 c-25 -23 -46 -45 -46 -49
0 -4 -46 -57 -102 -118 -147 -160 -182 -196 -190 -196 -5 0 -8 30 -8 68 l1 67
100 105 c56 58 106 112 112 121 7 9 48 55 92 103 l80 87 3 -73 3 -73 -45 -42z
m-792 -24 c-16 -17 -16 -19 -1 -19 26 0 21 -48 -9 -84 -15 -17 -81 -93 -148
-169 l-121 -138 -45 3 -45 3 -3 48 c-3 47 -2 48 90 155 51 59 117 131 146 161
28 29 52 57 52 61 0 5 21 32 48 61 l47 52 3 -58 c2 -43 -1 -62 -14 -76z m2156
9 c27 -29 25 -48 -3 -48 -27 0 -72 43 -62 59 10 18 43 12 65 -11z m-1730 -104
l0 -74 -107 -119 -108 -119 -72 -1 c-46 -1 -73 3 -73 10 0 6 20 31 44 57 25
26 53 56 63 68 148 169 237 263 244 258 5 -3 9 -39 9 -80z m1240 23 l0 -52
-138 -145 -138 -144 -54 3 c-29 1 -57 4 -62 7 -7 4 97 116 299 322 40 41 77
71 82 67 6 -3 11 -30 11 -58z m-3712 -138 l-3 -190 -180 0 -180 0 -3 190 -2
191 185 0 185 0 -2 -191z m410 2 c1 -105 -2 -187 -7 -190 -5 -3 -90 -5 -190
-3 l-181 3 0 183 c0 100 3 186 7 190 4 3 88 5 187 4 l181 -3 3 -184z m412 -7
l0 -196 -182 4 -183 4 -3 192 -2 192 185 0 185 0 0 -196z m405 186 c3 -5 9
-89 11 -186 5 -141 3 -178 -8 -185 -15 -10 -338 -12 -362 -3 -14 5 -16 31 -16
188 0 101 3 186 7 189 11 11 361 8 368 -3z m1655 -47 l-1 -58 -132 -138 -132
-139 -53 -1 c-28 -1 -52 2 -52 7 0 9 19 30 204 229 60 64 116 126 123 137 27
39 43 25 43 -37z m2048 -135 c2 -147 0 -188 -10 -188 -7 0 -93 -1 -190 -2
l-178 -3 -5 184 c-2 101 -2 188 1 193 3 5 89 7 192 6 l187 -3 3 -187z m410 1
l-3 -190 -177 0 c-98 0 -181 1 -185 1 -6 0 -9 334 -4 373 1 4 84 7 186 7 l185
0 -2 -191z m-2048 80 l0 -71 -107 -108 -108 -107 -65 6 -65 6 160 169 c88 92
162 172 163 177 2 5 8 7 13 3 5 -3 9 -37 9 -75z m-1241 -265 c-8 -10 -39 -14
-116 -14 -118 0 -116 -4 -42 78 19 20 63 71 99 111 l65 74 3 -117 c2 -79 -1
-123 -9 -132z m831 91 l0 -105 -95 0 c-52 0 -95 3 -95 8 0 8 179 202 186 202
2 0 4 -47 4 -105z m830 55 c0 -35 -7 -49 -47 -93 -26 -29 -49 -54 -50 -56 -7
-10 -103 -17 -103 -7 0 14 172 193 188 195 8 1 12 -13 12 -39z m-1240 -65 c0
-84 -15 -99 -99 -100 -37 0 -57 4 -53 10 13 23 135 155 143 155 5 0 9 -29 9
-65z m820 -6 c0 -31 -7 -47 -29 -70 -25 -24 -35 -28 -63 -22 -18 3 -35 7 -37
9 -6 6 114 132 122 127 4 -2 7 -22 7 -44z m-1644 -51 c-3 -13 -5 -26 -5 -30
-1 -10 -51 -11 -51 -1 0 10 42 53 52 53 4 0 6 -10 4 -22z m754 -65 c0 -10 -32
-52 -70 -93 -38 -41 -104 -114 -147 -162 -43 -47 -84 -87 -90 -87 -9 -1 -13
17 -13 59 0 65 -1 64 123 196 26 28 54 60 61 70 10 13 32 21 73 25 32 3 59 7
61 8 1 0 2 -7 2 -16z m645 -5 c0 -24 -134 -161 -141 -145 -3 8 -4 43 -2 78 4
74 15 85 94 83 36 -1 49 -5 49 -16z m-1404 -2 c0 -6 2 -29 4 -52 5 -48 2 -53
-148 -223 l-99 -111 -64 0 c-100 0 -98 19 20 155 34 39 63 72 66 75 3 3 29 34
59 70 30 36 62 72 71 81 19 17 90 21 91 5z m89 1 c0 -7 -13 -26 -30 -42 l-30
-29 0 36 c0 37 0 37 53 47 4 0 7 -5 7 -12z m270 1 c0 -10 -307 -351 -321 -356
-5 -2 -9 41 -9 103 0 119 -4 110 94 215 l43 45 96 1 c54 1 97 -3 97 -8z m210
-1 c-1 -13 -113 -137 -123 -137 -8 0 -9 112 -1 133 7 18 124 22 124 4z m370 1
c0 -14 -69 -88 -82 -88 -13 0 -9 88 5 93 25 11 77 7 77 -5z m270 4 c0 -9 -135
-156 -277 -302 l-83 -85 0 110 1 110 82 87 82 88 98 0 c53 0 97 -4 97 -8z
m353 1 c4 -3 -14 -29 -41 -57 -26 -28 -92 -99 -147 -159 -55 -59 -103 -107
-107 -107 -5 0 -8 20 -8 46 0 43 3 49 93 142 50 53 102 106 114 119 21 22 80
32 96 16z m197 -1 c0 -4 -19 -27 -42 -52 l-43 -45 -3 38 c-2 21 2 45 9 53 12
14 79 20 79 6z m160 -2 c0 -7 -238 -250 -245 -250 -3 0 -5 19 -5 43 0 40 5 48
83 128 78 82 84 86 125 86 23 0 42 -3 42 -7z m100 1 c0 -11 -309 -330 -332
-342 -50 -27 -3 32 145 184 147 151 187 185 187 158z m452 -11 c2 -3 1 -88 -2
-190 l-5 -185 -190 0 -190 0 -3 185 c-2 147 0 187 11 195 14 10 372 5 379 -5z
m-4112 -182 l0 -193 -182 2 -183 2 -3 191 -2 190 185 0 185 0 0 -192z m410 4
c3 -117 1 -187 -5 -191 -5 -5 -35 -7 -65 -6 -30 0 -112 2 -182 3 l-128 2 0
183 c0 101 3 187 7 191 4 3 88 5 187 4 l181 -3 5 -183z m410 -7 l0 -195 -185
0 -185 0 0 195 0 195 185 0 185 0 0 -195z m418 46 l3 -143 -33 -44 c-18 -24
-42 -46 -53 -49 -11 -3 -83 -4 -160 -3 l-140 3 -3 180 c-1 98 0 185 3 192 3
11 45 13 192 11 l188 -3 3 -144z m243 132 c-6 -10 -24 -33 -41 -52 -17 -19
-61 -70 -98 -113 -37 -43 -71 -78 -76 -78 -5 0 -6 21 -2 46 3 26 6 84 6 130
l0 84 110 0 c103 0 110 -1 101 -17z m1809 -50 l0 -56 -132 -134 -132 -133 -58
0 c-32 0 -58 2 -58 4 0 2 15 19 33 38 17 18 99 104 181 190 82 86 153 155 158
152 4 -3 8 -30 8 -61z m1230 55 c2 -40 -1 -362 -3 -364 -8 -7 -368 -10 -372
-4 -8 13 -16 360 -10 371 10 15 385 12 385 -3z m408 -180 l2 -188 -189 0 -190
0 -3 183 c-2 100 -2 185 0 190 2 4 87 6 190 5 l187 -3 3 -187z m412 4 c0 -104
-2 -191 -4 -193 -2 -2 -86 -2 -185 1 l-182 5 0 180 c0 99 0 183 1 188 0 4 83
7 185 7 l185 0 0 -188z m-3300 -10 c-12 -15 -56 -64 -98 -109 l-76 -83 -68 0
c-41 0 -68 4 -68 11 0 5 53 67 118 137 64 70 137 151 162 180 l45 52 3 -80 c2
-70 0 -84 -18 -108z m430 122 l0 -55 -121 -127 c-66 -70 -127 -128 -135 -130
-8 -2 -14 -8 -14 -14 0 -18 -103 -129 -112 -120 -5 5 -8 31 -6 58 2 36 8 51
23 59 11 5 20 15 20 21 0 7 47 63 105 125 58 63 132 143 165 180 33 36 63 64
68 62 4 -2 7 -29 7 -59z m1238 -136 l-3 -173 -165 -3 c-90 -1 -170 0 -176 2
-12 5 321 346 338 346 5 0 7 -78 6 -172z m-828 90 l0 -71 -92 -96 c-51 -53
-99 -97 -105 -99 -7 -2 -13 -8 -13 -13 0 -10 -157 -182 -171 -187 -5 -2 -9 30
-9 72 0 75 0 76 35 98 19 13 36 29 37 35 4 16 299 333 310 333 4 0 8 -32 8
-72z m-1233 -166 l-2 -97 -87 -3 c-60 -2 -88 1 -88 8 0 16 163 198 172 193 4
-2 7 -48 5 -101z m823 -6 c0 -45 -3 -86 -7 -90 -4 -4 -8 -15 -8 -25 0 -10 -61
-83 -136 -162 -74 -79 -152 -163 -173 -186 -58 -65 -66 -59 -66 51 0 88 2 97
27 128 52 63 157 168 175 174 10 3 16 10 12 15 -7 11 157 188 169 182 4 -2 7
-41 7 -87z m820 55 c0 -35 -7 -47 -56 -95 -46 -46 -62 -56 -92 -57 -23 -1 -29
-3 -14 -6 12 -2 22 -9 22 -15 0 -12 -230 -248 -242 -248 -4 0 -8 17 -8 37 0
34 9 46 100 136 55 55 100 102 100 105 0 9 173 182 182 182 5 0 8 -18 8 -39z
m-1230 -83 l-5 -63 -55 -6 c-52 -5 -52 -6 -12 -7 23 -1 42 -5 42 -9 0 -12
-340 -378 -351 -378 -5 0 -9 3 -9 8 0 112 0 111 38 153 144 160 197 214 214
219 10 4 16 11 12 16 -6 10 115 141 125 135 3 -2 4 -33 1 -68z m804 -49 c-12
-13 -31 -19 -61 -19 -23 0 -43 3 -43 7 0 4 26 34 58 66 l57 58 3 -47 c2 -33
-2 -52 -14 -65z m426 4 c0 -10 -12 -22 -201 -215 -95 -98 -177 -178 -181 -178
-26 0 11 45 166 199 96 95 177 180 180 187 5 14 36 20 36 7z m-2469 -232 c2
-171 1 -185 -17 -198 -10 -8 -28 -12 -39 -9 -11 3 -86 6 -167 6 l-148 0 0 195
0 195 178 2 c97 2 180 1 184 -2 4 -3 8 -88 9 -189z m317 188 c-3 -7 -188 -224
-260 -304 l-28 -30 3 165 2 165 65 5 c106 8 221 8 218 -1z m232 2 c0 -12 -92
-121 -102 -121 -9 0 -10 75 -2 108 6 19 13 22 55 22 27 0 49 -4 49 -9z m260
-1 c0 -9 -95 -118 -268 -307 -46 -51 -88 -90 -93 -87 -5 3 -9 47 -9 97 l0 92
51 60 c28 33 70 81 94 108 l44 47 91 0 c50 0 90 -4 90 -10z m208 0 c-1 -5 -39
-50 -83 -101 l-80 -92 -3 84 c-4 106 8 119 105 119 37 0 63 -4 61 -10z m982 1
c0 -9 -307 -334 -322 -339 -4 -2 -8 16 -8 41 0 43 3 48 126 176 119 124 128
131 165 131 21 0 39 -4 39 -9z m180 -4 c0 -17 -84 -99 -93 -91 -9 9 -9 67 -1
88 8 20 94 23 94 3z m700 -8 c3 -5 5 -37 4 -71 -1 -35 -2 -118 -3 -186 l-1
-122 -192 2 -193 3 -3 185 c-2 167 -1 186 15 198 14 10 57 11 193 6 96 -4 177
-11 180 -15z m-3700 -184 l0 -195 -185 0 -185 0 0 195 0 195 185 0 185 0 0
-195z m410 168 c0 -16 1 -102 3 -193 l2 -165 -192 -3 -193 -2 0 188 c0 104 3
192 7 195 3 4 89 7 190 7 l183 0 0 -27z m828 -51 c3 -80 4 -78 -78 -172 -137
-155 -130 -150 -209 -150 -38 0 -72 4 -76 9 -4 8 59 86 179 221 17 19 58 66
90 103 76 87 90 86 94 -11z m2867 -117 l0 -190 -186 -3 -186 -2 -6 67 c-9 91
-9 308 0 317 4 3 90 5 192 4 l186 -3 0 -190z m415 0 l0 -195 -190 0 -190 0 0
188 c0 104 3 192 7 195 3 4 89 7 190 7 l183 0 0 -195z m404 179 c3 -9 6 -89 6
-179 0 -90 -3 -170 -6 -179 -5 -14 -32 -16 -190 -16 l-184 0 0 195 0 195 184
0 c158 0 185 -2 190 -16z m416 -179 l0 -195 -185 0 -185 0 0 195 0 195 185 0
185 0 0 -195z m-2460 117 l0 -58 -128 -132 -127 -132 -53 0 c-28 0 -52 5 -52
10 0 6 46 59 103 118 56 59 134 140 171 180 38 39 73 72 78 72 4 0 8 -26 8
-58z m-820 -26 c-5 -55 -6 -57 -118 -176 l-113 -120 -51 0 c-27 0 -48 4 -46 9
2 5 53 62 114 127 60 66 132 143 158 171 27 29 51 51 55 49 3 -3 4 -29 1 -60z
m1226 -83 c-2 -76 -4 -154 -5 -173 l-1 -35 -163 1 c-89 0 -166 2 -172 2 -11 2
325 342 337 342 4 0 6 -62 4 -137z m-1636 49 c0 -84 2 -81 -158 -248 -13 -14
-142 -21 -142 -8 0 9 29 44 117 141 44 48 100 111 124 139 24 28 47 49 52 47
4 -2 7 -34 7 -71z m820 -9 l-1 -68 -87 -92 -88 -93 -62 0 c-69 0 -78 12 -39
47 12 11 75 77 141 147 65 69 122 126 127 126 5 0 9 -30 9 -67z m352 -195
c-41 -40 -68 -58 -85 -58 -14 0 -28 3 -31 8 -2 4 35 48 82 97 l87 90 3 -40 c3
-37 -1 -43 -56 -97z m-762 26 l-5 -79 -77 -3 c-43 -2 -78 0 -78 4 0 15 153
175 159 166 3 -6 4 -45 1 -88z m-820 2 c0 -50 -4 -75 -12 -78 -25 -9 -128 -9
-128 0 0 5 12 22 26 38 14 16 41 48 61 72 19 23 39 42 44 42 5 0 9 -33 9 -74z
m410 -15 c0 -63 -7 -71 -56 -71 -24 0 -44 3 -44 6 0 9 84 103 93 104 4 0 7
-18 7 -39z m820 -6 c0 -34 -5 -47 -19 -55 -27 -14 -81 -13 -81 2 0 14 79 98
92 98 4 0 8 -20 8 -45z m410 -39 c0 -14 -29 -31 -38 -21 -6 6 18 35 29 35 5 0
9 -6 9 -14z m-2880 -231 l0 -195 -185 0 -185 0 0 190 0 190 178 3 c97 1 180 4
185 5 4 1 7 -86 7 -193z m413 186 c4 -1 7 -84 7 -185 0 -151 -3 -186 -15 -196
-19 -16 -45 3 -45 32 0 19 -26 36 -37 24 -4 -3 -7 -16 -8 -29 -2 -22 -4 -22
-143 -25 l-142 -3 0 190 0 190 138 3 c116 3 215 2 245 -1z m367 0 c0 -6 -4
-12 -10 -16 -5 -3 -79 -86 -164 -185 -85 -98 -156 -177 -158 -174 -3 2 -3 84
-1 181 2 98 3 184 3 191 0 9 40 12 165 12 96 0 165 -4 165 -9z m224 1 c2 -4
-31 -46 -74 -92 l-79 -85 -1 86 c0 47 3 89 7 92 9 10 141 9 147 -1z m232 -7
c6 -16 -2 -26 -160 -200 -182 -200 -170 -189 -199 -181 -26 6 -27 9 -27 74 l1
67 112 128 111 127 78 0 c61 0 80 -3 84 -15z m224 9 c0 -8 -181 -208 -192
-212 -4 -2 -8 30 -8 70 0 70 2 76 34 111 32 36 36 37 100 37 36 0 66 -3 66 -6z
m180 -2 c0 -9 -281 -318 -331 -365 -17 -15 -34 -25 -39 -22 -6 4 -10 28 -10
54 0 52 9 64 206 274 l63 67 56 0 c30 0 55 -4 55 -8z m168 -1 c-1 -6 -32 -40
-68 -77 l-65 -67 -3 53 c-4 72 21 100 91 100 27 0 47 -4 45 -9z m252 -5 c0
-18 -348 -386 -365 -386 -21 0 -24 11 -26 93 l-2 77 46 52 c25 29 72 81 104
116 l59 62 92 0 c72 0 92 -3 92 -14z m208 5 c-5 -16 -170 -191 -179 -191 -5 0
-9 30 -9 67 0 62 2 70 32 100 30 31 37 33 96 33 36 0 62 -4 60 -9z m152 3 c0
-14 -322 -354 -335 -354 -3 0 -5 19 -5 43 0 40 6 48 131 180 125 130 133 137
170 137 21 0 39 -3 39 -6z m178 -3 c-1 -5 -25 -33 -53 -62 l-50 -53 -3 48 c-5
70 0 76 59 76 28 0 49 -4 47 -9z m142 1 c0 -9 -233 -242 -243 -242 -4 0 -7 13
-7 30 0 23 18 48 91 125 80 83 95 95 125 95 19 0 34 -3 34 -8z m100 0 c0 -4
-79 -86 -175 -182 -122 -122 -175 -169 -175 -155 0 12 62 82 162 182 145 145
188 181 188 155z m442 -2 c2 -5 2 -93 0 -195 l-3 -185 -169 0 c-92 0 -175 -3
-183 -6 -13 -5 -16 21 -19 183 -2 105 0 194 5 201 12 15 363 18 369 2z m342 0
l81 0 -2 -187 -2 -188 -193 0 -192 0 -4 184 c-3 146 -1 185 9 193 8 5 60 7
118 4 57 -3 141 -6 185 -6z m484 -188 l-3 -187 -188 0 -188 0 -2 188 c-1 103
1 188 5 190 4 1 91 1 193 -1 l185 -3 -2 -187z m410 1 l-3 -188 -185 0 -185 0
-3 188 -2 187 190 0 190 0 -2 -187z m410 0 l-3 -188 -187 -3 -188 -2 0 190 0
190 190 0 190 0 -2 -187z m412 -3 l0 -190 -185 0 -185 0 0 190 0 190 185 0
185 0 0 -190z m-4515 75 l3 -86 -74 -89 c-41 -49 -82 -91 -92 -94 -31 -10
-142 -3 -142 9 0 6 26 40 58 76 121 136 198 226 217 251 10 15 21 25 23 23 3
-2 6 -43 7 -90z m1645 33 c0 -29 -4 -59 -9 -66 -4 -7 -59 -65 -121 -128 l-113
-114 -49 0 c-26 0 -48 5 -48 10 0 6 47 59 104 118 56 59 129 135 161 170 32
34 62 62 66 62 5 0 9 -24 9 -52z m410 -128 l0 -170 -87 -1 c-49 0 -125 -3
-170 -5 -63 -4 -83 -2 -83 8 0 13 319 338 332 338 5 0 8 -76 8 -170z m-1230
84 c0 -42 -5 -49 -101 -154 -100 -108 -102 -110 -146 -110 -33 0 -44 4 -41 14
4 20 271 304 281 299 4 -2 7 -24 7 -49z m412 -38 l-4 -66 -75 -80 -75 -80 -65
0 c-38 0 -63 4 -61 10 7 21 272 299 277 291 4 -5 4 -39 3 -75z m-887 -152
l-67 -74 -64 0 c-35 0 -64 4 -64 9 0 5 30 42 68 82 37 41 85 94 107 118 22 25
49 54 60 65 l20 21 3 -73 3 -74 -66 -74z m1295 69 c0 -39 -103 -143 -142 -143
-15 0 -28 3 -28 7 0 10 152 163 162 163 5 0 8 -12 8 -27z m-820 -60 c0 -80 -5
-85 -81 -81 l-64 3 64 68 c35 37 68 67 73 67 4 0 8 -26 8 -57z m-820 -18 c0
-55 -8 -65 -51 -65 -21 0 -39 5 -39 11 0 15 74 98 83 92 4 -2 7 -19 7 -38z
m1233 -12 c-7 -50 -13 -55 -58 -51 l-38 3 38 43 c49 53 66 55 58 5z m-823 -13
c0 -23 -5 -31 -25 -36 -42 -11 -49 0 -20 34 33 40 45 40 45 2z m1226 -29 c-4
-6 -14 -11 -22 -11 -12 0 -13 4 -3 21 7 14 14 18 21 11 6 -6 7 -15 4 -21z
m-2466 -225 c0 -100 -2 -185 -4 -187 -2 -2 -86 -3 -185 -1 l-181 3 0 184 0
185 178 2 c97 2 180 2 185 0 4 -2 7 -85 7 -186z m306 187 c11 -8 -6 -244 -24
-338 l-7 -40 -65 1 c-36 1 -91 2 -122 3 l-58 1 0 184 0 185 43 3 c104 7 223 8
233 1z m104 0 c-1 -10 -36 -53 -44 -53 -8 0 -8 45 1 53 9 9 43 9 43 0z m230 2
c0 -9 -184 -215 -192 -215 -4 0 -8 38 -8 84 0 69 4 88 21 110 19 24 26 26 100
26 43 0 79 -2 79 -5z m188 -31 c3 -26 -14 -49 -144 -193 l-146 -162 -47 3
c-46 3 -46 3 -49 41 -4 42 4 53 128 192 147 166 135 156 198 153 55 -3 57 -4
60 -34z m52 27 c0 -5 -6 -14 -14 -20 -16 -13 -32 2 -21 19 8 12 35 13 35 1z
m193 2 c4 -3 -17 -31 -46 -62 -29 -31 -81 -85 -115 -121 l-62 -65 0 75 0 75
51 53 c50 51 52 52 108 52 32 0 61 -3 64 -7z m167 -12 c0 -11 -3 -21 -7 -23
-5 -1 -33 -30 -63 -63 -215 -235 -265 -285 -286 -285 -57 0 -47 58 20 129 29
31 94 102 145 159 l92 102 50 0 c42 0 49 -3 49 -19z m180 14 c0 -9 -143 -155
-152 -155 -4 0 -8 20 -8 45 0 35 6 51 31 80 28 31 37 35 80 35 27 0 49 -2 49
-5z m228 -17 c3 -17 -32 -59 -230 -266 -84 -88 -102 -103 -126 -100 -26 3 -27
5 -30 76 l-3 73 113 120 112 120 80 -3 c67 -3 81 -6 84 -20z m225 16 c4 -4
-12 -26 -36 -48 -23 -23 -68 -70 -100 -104 -33 -34 -62 -60 -66 -58 -4 3 -5
34 -4 71 3 63 5 69 43 106 37 36 43 39 98 39 32 0 62 -3 65 -6z m147 -3 c0 -5
-51 -63 -114 -128 -62 -65 -141 -147 -175 -183 l-62 -65 3 51 c3 51 4 52 138
192 126 134 136 142 172 142 21 0 38 -4 38 -9z m180 2 c0 -9 -103 -113 -112
-113 -10 0 -11 104 -1 113 8 9 113 9 113 0z m121 2 c7 -6 -221 -241 -229 -237
-4 1 -7 13 -7 26 0 34 177 216 209 216 13 0 25 -2 27 -5z m101 0 c4 -5 -317
-331 -330 -335 -30 -8 10 41 145 179 146 148 171 170 185 156z m442 -1 c14 -5
16 -32 16 -190 l0 -183 -179 -3 c-98 -2 -185 -2 -195 0 -14 3 -16 25 -16 186
0 100 3 186 7 189 8 9 346 9 367 1z m279 -3 l137 -1 0 -185 0 -185 -185 0
-185 0 0 188 0 188 48 -3 c26 -1 109 -2 185 -2z m563 -17 c-3 -9 -6 -92 -6
-185 l0 -169 -190 0 -190 0 -1 158 c0 86 -2 169 -4 185 l-4 27 201 0 c178 0
199 -2 194 -16z m404 -169 l0 -185 -190 2 -191 3 -2 183 -2 182 193 0 192 0 0
-185z m410 0 l0 -185 -190 0 -190 0 0 185 0 185 190 0 190 0 0 -185z m410 0
l-2 -185 -189 0 -189 0 0 169 c0 93 -3 176 -6 185 -5 14 15 16 190 16 l197 0
-1 -185z m410 0 l0 -185 -186 2 -185 3 0 178 c0 97 1 179 1 182 0 3 83 5 185
5 l185 0 0 -185z m-2872 -26 l-3 -164 -158 -3 c-87 -2 -165 -1 -174 2 -12 5
25 48 153 176 93 93 172 166 177 161 5 -5 7 -82 5 -172z m-408 119 l-1 -53
-113 -117 c-111 -116 -113 -118 -158 -118 -24 0 -47 3 -51 6 -3 3 45 58 107
122 62 65 132 138 156 165 23 26 46 47 51 47 5 0 9 -24 9 -52z m-1640 -72 c0
-83 0 -83 -42 -136 -48 -59 -55 -52 -39 36 6 32 11 71 11 87 0 28 44 97 61 97
5 0 9 -38 9 -84z m820 14 c-6 -46 -13 -58 -76 -123 -104 -107 -104 -107 -144
-107 -20 0 -39 3 -43 6 -8 8 253 285 263 279 3 -2 4 -27 0 -55z m410 -26 l0
-66 -67 -69 -66 -69 -64 0 c-34 0 -63 3 -63 6 0 9 243 264 252 264 4 0 8 -30
8 -66z m-820 -30 c0 -65 0 -65 -51 -120 -51 -53 -53 -54 -110 -54 -33 0 -59 4
-59 9 0 4 28 39 63 76 34 38 77 84 95 104 17 19 32 39 32 43 0 4 7 8 15 8 12
0 15 -14 15 -66z m1234 -36 c-7 -23 -21 -42 -78 -106 -27 -29 -63 -41 -79 -26
-9 9 133 154 151 154 9 0 11 -7 6 -22z m-828 -124 c-6 -15 -106 -21 -106 -7 0
4 24 31 53 61 l52 53 3 -47 c2 -25 1 -53 -2 -60z m412 15 c-2 -18 -10 -25 -30
-27 -34 -4 -35 2 -5 38 24 31 41 25 35 -11z m-1240 -20 c-19 -13 -28 -11 -28
6 0 21 34 38 38 18 2 -9 -2 -19 -10 -24z m1652 11 c-6 -11 -15 -20 -20 -20
-14 0 -12 27 3 33 23 10 28 7 17 -13z m-1230 1 c0 -12 -20 -25 -27 -18 -7 7 6
27 18 27 5 0 9 -4 9 -9z m-830 -240 l0 -201 -185 0 -185 0 0 198 0 197 185 3
185 4 0 -201z m264 191 c9 -14 -52 -237 -92 -337 l-20 -50 -61 -3 -61 -3 0
194 c0 106 3 197 7 200 9 10 221 9 227 -1z m154 -52 c2 -51 0 -58 -35 -95 -21
-22 -58 -63 -82 -90 -66 -74 -74 -76 -53 -13 34 97 42 124 42 146 0 25 18 70
39 95 10 12 26 17 50 15 l36 -3 3 -55z m92 56 c0 -2 -13 -20 -30 -41 -24 -30
-31 -34 -36 -21 -3 9 -3 27 0 41 5 20 13 25 36 25 17 0 30 -2 30 -4z m190 -2
c0 -10 -242 -274 -252 -274 -4 0 -8 28 -8 63 l0 62 68 77 67 78 63 0 c34 0 62
-3 62 -6z m127 -10 c11 -29 -10 -62 -107 -166 -197 -214 -213 -228 -246 -219
-16 4 -30 15 -32 24 -3 13 126 164 296 345 33 35 78 43 89 16z m47 1 c-4 -8
-12 -15 -20 -15 -8 0 -11 6 -8 15 4 8 12 15 20 15 8 0 11 -6 8 -15z m156 9 c0
-10 -161 -184 -171 -184 -5 0 -9 20 -9 44 0 38 6 51 46 95 42 47 50 51 90 51
24 0 44 -3 44 -6z m208 -27 c2 -16 -5 -37 -17 -52 -44 -56 -295 -315 -305
-315 -7 0 -17 -13 -23 -30 -11 -29 -38 -49 -49 -37 -4 3 1 20 9 36 9 17 11 31
6 31 -5 0 -9 30 -9 68 l0 67 98 105 c54 58 109 118 122 133 23 26 28 28 95 25
68 -3 70 -4 73 -31z m52 26 c-1 -18 -18 -35 -24 -24 -4 6 -4 16 -1 21 7 12 25
13 25 3z m190 -5 c0 -11 -195 -219 -212 -226 -5 -2 -8 27 -8 64 l0 68 52 53
c51 52 54 53 110 53 38 0 58 -4 58 -12z m150 3 c0 -5 -21 -31 -48 -58 -26 -26
-105 -110 -176 -185 -71 -76 -133 -138 -138 -138 -4 0 -8 18 -8 39 0 36 9 49
147 195 140 148 149 156 185 156 21 0 38 -4 38 -9z m168 0 c-1 -5 -30 -38 -63
-72 l-60 -62 -3 52 c-4 71 14 91 80 91 27 0 48 -4 46 -9z m122 2 c0 -12 -234
-243 -246 -243 -29 0 6 52 99 148 70 71 108 102 124 102 13 0 23 -3 23 -7z
m100 1 c0 -10 -333 -344 -343 -344 -24 0 12 45 157 190 139 139 186 178 186
154z m440 -194 l0 -200 -185 0 -185 0 -1 143 c0 78 -1 162 -3 187 -2 25 -1 51
2 58 3 9 50 12 188 12 l184 0 0 -200z m401 190 c18 -10 19 -23 19 -195 0 -102
-3 -185 -7 -185 -5 0 -84 -3 -176 -6 -93 -2 -177 -2 -187 1 -16 5 -18 23 -19
186 -1 126 2 185 10 195 9 11 47 14 176 14 94 0 173 -4 184 -10z m267 2 l152
-2 -2 -190 -3 -191 -183 -2 -182 -2 0 191 c0 105 2 193 5 196 3 3 18 4 33 3
15 -1 96 -3 180 -3z m572 -192 l0 -190 -190 0 -190 0 0 190 0 190 190 0 190 0
0 -190z m408 -2 l2 -188 -190 0 -190 0 0 190 0 190 188 -2 187 -3 3 -187z
m412 2 l0 -190 -190 0 -190 0 0 183 c0 101 3 187 7 190 3 4 89 7 190 7 l183 0
0 -190z m408 -2 l2 -188 -190 0 -190 0 0 190 0 190 188 -2 187 -3 3 -187z
m412 2 l0 -190 -185 0 -185 0 0 190 0 190 185 0 185 0 0 -190z m-3284 -187
c-4 -10 -46 -13 -176 -13 -93 0 -170 3 -170 8 0 4 78 86 173 182 l172 175 3
-170 c1 -93 0 -175 -2 -182z m-406 261 c0 -44 -3 -48 -112 -159 -61 -63 -117
-115 -125 -115 -7 0 -13 -6 -13 -13 0 -14 -120 -147 -132 -147 -5 0 -8 21 -8
48 0 38 5 53 25 72 14 14 38 38 53 55 15 16 66 70 113 120 48 49 108 114 134
142 26 29 52 50 56 47 5 -3 9 -25 9 -50z m-820 -57 c0 -40 -6 -49 -81 -130
-44 -48 -86 -87 -92 -87 -7 0 -19 -14 -27 -30 -14 -27 -173 -200 -185 -200 -3
0 -5 19 -5 43 0 39 6 49 63 110 35 37 69 67 75 67 7 0 12 6 12 13 0 14 219
257 232 257 4 0 8 -19 8 -43z m341 -161 c-39 -37 -71 -70 -71 -73 0 -3 -53
-61 -117 -129 -106 -113 -156 -151 -139 -108 3 9 6 37 6 63 0 45 4 53 61 115
33 36 67 66 75 66 8 0 14 7 14 15 0 12 194 226 225 247 6 5 11 -16 13 -60 l3
-67 -70 -69z m-787 -11 c-20 -25 -43 -45 -50 -45 -8 0 -14 -5 -14 -11 0 -15
-63 -89 -225 -263 -33 -36 -32 -17 5 52 16 31 44 89 61 127 17 39 36 73 43 77
6 4 34 9 61 10 l50 1 -42 4 c-24 2 -43 7 -43 10 0 5 96 115 156 178 l29 30 3
-63 c3 -59 1 -65 -34 -107z m1266 89 c0 -23 -110 -134 -132 -134 -28 0 -21 11
52 88 64 67 80 76 80 46z m-820 -78 c0 -25 -5 -48 -11 -52 -8 -4 -8 -9 0 -17
6 -6 11 -29 11 -52 0 -44 8 -34 -218 -268 -83 -85 -87 -88 -126 -85 l-41 3 -3
56 -3 56 88 94 c48 52 114 122 148 156 33 33 77 82 98 107 21 25 43 46 48 46
5 0 9 -20 9 -44z m406 -42 c-5 -14 -46 -20 -46 -7 0 4 10 18 23 31 18 20 23
21 25 7 2 -9 1 -23 -2 -31z m414 17 c0 -13 -29 -35 -37 -28 -7 8 15 37 28 37
5 0 9 -4 9 -9z m-1648 -163 c2 -163 0 -187 -21 -217 -10 -14 -21 -34 -24 -43
-6 -16 -23 -18 -167 -18 l-160 0 0 198 0 197 185 3 185 4 2 -124z m138 113 c0
-13 -27 -77 -68 -161 l-37 -75 -3 109 c-1 61 0 116 2 123 6 15 106 19 106 4z
m278 -40 c4 -48 7 -43 -166 -229 -58 -62 -113 -117 -121 -121 -9 -5 -35 -6
-58 -2 l-41 6 96 105 c231 253 266 290 276 287 6 -2 12 -23 14 -46z m72 41 c0
-13 -30 -52 -41 -52 -10 0 -13 43 -2 53 9 10 43 9 43 -1z m750 1 c0 -8 -46
-58 -245 -267 -112 -119 -143 -143 -146 -113 -4 37 13 62 111 167 206 221 206
220 245 220 19 0 35 -3 35 -7z m270 0 c0 -4 -54 -62 -121 -129 -80 -82 -122
-117 -126 -108 -5 13 171 214 206 234 19 11 41 13 41 3z m90 -5 c0 -14 -319
-338 -332 -338 -25 0 10 42 154 187 90 90 166 163 170 163 5 0 8 -6 8 -12z
m444 6 c14 -5 16 -32 16 -200 l0 -194 -195 0 -195 0 0 194 c0 146 3 196 13
199 18 8 342 8 361 1z m416 -196 l0 -198 -185 0 -185 0 0 198 0 197 185 0 185
0 0 -197z m415 -3 l0 -190 -187 -3 -187 -2 -3 187 c-2 104 -2 191 0 196 2 4
87 6 190 5 l187 -3 0 -190z m405 0 l0 -195 -185 0 -185 0 0 195 0 195 185 0
185 0 0 -195z m420 0 l0 -195 -190 0 -190 0 0 195 0 195 190 0 190 0 0 -195z
m405 0 l0 -190 -187 -3 -188 -2 0 195 0 195 188 -2 187 -3 0 -190z m415 0 l0
-195 -187 2 -188 3 -3 193 -2 192 190 0 190 0 0 -195z m405 0 l0 -190 -187 -3
-188 -2 0 195 0 195 188 -2 187 -3 0 -190z m415 0 l0 -195 -185 0 -185 0 0
195 0 195 185 0 185 0 0 -195z m-3697 -17 c-3 -95 -6 -174 -7 -175 -2 -2 -310
-5 -341 -3 -10 0 335 350 346 350 4 0 5 -78 2 -172z m-403 90 c0 -24 -4 -49
-9 -56 -4 -7 -54 -60 -111 -118 -89 -91 -107 -104 -136 -104 -18 0 -35 4 -39
9 -3 6 38 56 92 111 54 56 118 124 143 151 25 27 48 49 53 49 4 0 7 -19 7 -42z
m-897 -200 c-60 -60 -84 -78 -105 -78 -16 0 -28 5 -28 13 0 13 14 29 139 162
l66 70 3 -44 c3 -43 1 -46 -75 -123z m487 100 c0 -62 -1 -64 -54 -120 -53 -58
-54 -58 -110 -58 -43 0 -57 3 -54 13 4 17 199 227 210 227 4 0 8 -28 8 -62z
m410 -41 c0 -8 -30 -43 -67 -78 -87 -84 -98 -60 -12 27 65 65 79 74 79 51z
m-818 -92 c-2 -19 -7 -36 -11 -36 -68 -12 -77 -1 -34 43 36 38 50 36 45 -7z
m818 -10 c0 -16 -34 -38 -44 -28 -7 7 23 43 36 43 4 0 8 -7 8 -15z m-410 -9
c0 -18 -17 -29 -30 -21 -8 5 -7 11 1 21 15 18 29 18 29 0z m-910 -46 c0 -10
-85 -141 -115 -179 -8 -9 -43 -52 -78 -96 -73 -91 -93 -110 -101 -96 -3 5 -5
89 -3 188 l4 178 139 5 c76 3 142 7 147 8 4 1 7 -3 7 -8z m180 -3 c0 -7 -16
-28 -35 -47 l-35 -34 0 40 c0 23 3 44 7 47 12 13 63 7 63 -6z m144 5 c2 -4
-44 -59 -104 -122 l-109 -115 0 45 c0 42 4 50 73 123 61 63 79 77 104 77 17 0
33 -4 36 -8z m160 2 c12 -4 16 -20 16 -55 0 -47 -2 -51 -83 -136 -46 -48 -107
-114 -136 -145 -30 -32 -60 -58 -67 -58 -8 0 -14 -7 -14 -15 0 -8 -20 -36 -45
-63 l-45 -47 0 53 0 52 38 1 37 2 -35 6 c-34 6 -35 8 -38 54 -3 47 -2 49 65
120 38 40 96 101 128 136 33 35 68 73 78 83 17 18 69 24 101 12z m100 -2 c4
-7 -48 -72 -59 -72 -7 0 -6 66 2 73 9 9 51 9 57 -1z m196 2 c0 -10 -241 -264
-251 -264 -5 0 -9 27 -9 60 0 60 0 61 62 128 34 37 67 70 73 74 12 9 125 11
125 2z m125 -4 c8 -13 -20 -46 -213 -245 -145 -150 -155 -159 -165 -138 -6 14
-7 30 -1 42 7 16 199 223 302 328 24 24 66 31 77 13z m165 -3 c0 -7 -31 -44
-70 -82 l-70 -69 0 49 c0 42 5 54 32 82 25 26 40 33 70 33 24 0 38 -5 38 -13z
m100 5 c0 -16 -234 -246 -238 -234 -3 11 150 181 207 230 17 14 31 16 31 4z
m-66 -174 c-117 -116 -170 -163 -172 -152 -5 22 312 339 328 329 8 -5 -45 -65
-156 -177z m479 173 l137 -1 0 -195 0 -195 -184 0 c-171 0 -184 1 -189 19 -7
28 -9 360 -2 371 4 6 27 8 53 6 26 -3 109 -5 185 -5z m-1499 -70 c-1 -48 -4
-53 -70 -123 -144 -152 -201 -208 -212 -208 -25 0 -10 34 46 103 32 40 80 104
107 142 71 101 118 156 125 146 3 -5 5 -32 4 -60z m2056 -115 c0 -124 -4 -187
-11 -192 -16 -9 -302 -18 -344 -10 l-35 7 0 189 0 190 195 0 195 0 0 -184z
m400 -8 l0 -193 -185 0 -185 0 0 193 0 192 185 0 185 0 0 -192z m415 2 l0
-185 -187 -3 -188 -2 0 190 0 190 188 -2 187 -3 0 -185z m405 0 l0 -189 -181
-3 c-99 -2 -183 -1 -185 1 -2 2 -4 89 -4 193 l0 188 185 0 185 0 0 -190z m420
0 l0 -190 -187 2 -188 3 -3 188 -2 187 190 0 190 0 0 -190z m408 3 l-3 -188
-187 -3 -188 -2 0 190 0 190 190 0 190 0 -2 -187z m412 -3 l0 -190 -187 2
-188 3 -3 188 -2 187 190 0 190 0 0 -190z m405 0 l0 -185 -187 -3 -188 -2 0
190 0 190 188 -2 187 -3 0 -185z m415 0 l0 -190 -185 0 -185 0 0 190 0 190
185 0 185 0 0 -190z m-4112 -186 c-17 -16 -348 -25 -348 -9 0 5 80 90 178 188
l177 177 3 -172 c2 -129 -1 -175 -10 -184z m-398 237 c0 -36 -9 -48 -120 -162
-67 -68 -152 -157 -190 -196 -38 -40 -72 -73 -75 -73 -3 0 -5 19 -5 43 0 37 5
48 50 92 93 93 293 304 307 325 20 28 33 16 33 -29z m-824 -84 c4 -31 -3 -42
-58 -101 -45 -48 -72 -68 -97 -73 -27 -5 -32 -3 -30 10 4 16 171 206 178 201
2 -2 5 -19 7 -37z m414 -16 c0 -56 -2 -60 -49 -110 -26 -28 -53 -51 -60 -51
-6 0 -11 -6 -11 -13 0 -7 -61 -75 -134 -152 l-135 -140 0 66 -1 65 83 86 c65
68 87 86 107 83 14 -1 17 0 8 2 -10 2 -18 8 -18 13 0 4 40 50 90 101 49 52 90
97 90 102 0 4 7 7 15 7 12 0 15 -13 15 -59z m405 -21 c3 -5 -13 -30 -36 -55
-48 -52 -99 -91 -99 -77 0 9 118 142 126 142 1 0 6 -4 9 -10z m-823 -115 c-3
-16 -11 -25 -23 -25 -23 0 -24 17 -3 41 21 24 33 16 26 -16z m816 -1 c-25 -25
-42 -14 -22 14 12 17 19 21 27 13 8 -8 7 -16 -5 -27z m-819 -40 c2 -2 5 -29 7
-59 2 -48 -2 -61 -24 -88 -38 -46 -51 -52 -108 -48 -52 3 -93 -11 -156 -53
-16 -10 -28 -15 -28 -11 0 9 165 191 218 242 27 26 40 32 61 26 14 -3 28 -7
30 -9z m421 -20 c0 -7 -60 -76 -132 -151 -222 -231 -213 -223 -236 -216 -12 3
-22 11 -22 19 0 13 103 126 277 303 70 72 85 82 98 71 8 -7 15 -19 15 -26z
m147 -102 c-64 -64 -119 -113 -123 -110 -3 4 47 61 112 128 65 67 120 116 122
110 3 -7 -48 -65 -111 -128z m211 128 c-3 -10 -328 -340 -335 -340 -20 0 23
51 157 188 143 145 189 184 178 152z m459 -192 c2 -186 2 -188 -20 -193 -12
-3 -98 -4 -192 -3 l-170 3 -3 189 c-1 108 2 192 7 195 5 3 92 4 192 1 l184 -5
2 -187z m-1517 185 c0 -10 -82 -93 -92 -93 -14 0 4 54 25 78 19 20 67 31 67
15z m140 2 c0 -3 -33 -41 -74 -83 -40 -42 -92 -97 -114 -120 -25 -27 -42 -40
-47 -33 -16 26 10 72 87 154 70 76 85 87 114 87 19 0 34 -2 34 -5z m1780 -190
l0 -195 -185 0 -184 0 -3 188 c-2 103 -2 190 0 195 2 4 86 7 188 7 l184 0 0
-195z m404 189 c14 -5 16 -31 16 -189 0 -174 -1 -183 -20 -188 -30 -8 -333 -9
-353 -1 -15 5 -17 27 -17 188 0 101 3 186 7 189 8 9 346 9 367 1z m416 -189
l0 -190 -185 0 -185 0 0 193 0 194 185 -4 185 -3 0 -190z m251 185 l169 0 0
-185 c0 -141 -3 -185 -12 -185 -12 -1 -342 -1 -360 0 -10 0 -10 364 -1 374 4
3 13 4 21 1 7 -3 90 -5 183 -5z m567 -183 l-3 -188 -180 0 -180 0 -3 188 -2
188 185 0 185 0 -2 -188z m2057 -2 c0 -102 -3 -185 -7 -185 -5 0 -87 0 -183 0
l-175 0 0 183 c0 101 2 186 4 188 2 2 85 3 183 2 l178 -2 0 -186z m-1635 0 l0
-185 -190 0 -190 0 0 185 0 185 190 0 190 0 0 -185z m410 0 l0 -185 -190 0
-190 0 0 185 0 185 190 0 190 0 0 -185z m410 0 l0 -185 -190 0 -190 0 0 185 0
185 190 0 190 0 0 -185z m410 0 l0 -184 -186 -3 c-102 -2 -188 -1 -190 1 -2 2
-4 87 -4 188 l0 183 190 0 190 0 0 -185z m-4107 -12 l-2 -178 -176 -3 c-96 -1
-175 1 -175 4 0 8 343 354 351 354 3 0 4 -80 2 -177z m-403 56 c0 -37 -7 -47
-97 -140 -89 -92 -99 -99 -135 -99 -21 0 -38 2 -38 4 0 2 15 19 33 38 17 18
76 79 129 136 54 56 100 102 103 102 3 0 5 -18 5 -41z m-414 -114 c2 -30 -1
-57 -6 -60 -6 -4 -10 5 -10 19 0 14 -4 28 -10 31 -14 8 -13 48 2 63 17 17 21
8 24 -53z m-76 -12 c15 -20 20 -38 18 -67 l-3 -41 -157 -3 c-90 -1 -158 1
-158 7 0 12 99 87 146 111 22 11 60 19 86 20 39 0 50 -4 68 -27z m435 -53
c-33 -33 -64 -60 -69 -60 -15 0 97 118 114 119 8 0 -12 -26 -45 -59z m55 -28
c0 -13 -23 -32 -39 -32 -11 0 -10 4 4 20 19 21 35 26 35 12z m-483 -55 c10
-11 -69 -172 -131 -267 -72 -111 -82 -120 -133 -120 l-43 0 -1 148 c-1 144 -1
202 0 232 1 13 24 15 152 13 84 -1 153 -4 156 -6z m123 4 c0 -5 -7 -14 -15
-21 -12 -10 -15 -10 -15 2 0 8 3 18 7 21 9 10 23 9 23 -2z m140 1 c0 -12 -151
-172 -161 -172 -5 0 -9 17 -9 38 0 32 7 45 48 84 26 25 54 48 62 51 24 9 60 8
60 -1z m498 -1 l122 -1 0 -195 0 -195 -185 2 -186 3 -5 184 c-3 116 -1 188 5
195 7 8 32 12 68 10 32 -1 113 -3 181 -3z m-713 -81 c-15 -22 -30 -38 -32 -36
-5 4 23 91 34 110 4 5 11 0 16 -12 8 -17 4 -30 -18 -62z m295 78 c0 -2 -26
-28 -58 -58 -31 -30 -46 -42 -32 -25 38 45 90 93 90 83z m90 -2 c0 -12 -335
-335 -339 -325 -4 13 308 329 326 329 7 0 13 -2 13 -4z m856 -7 c3 -6 6 -93 5
-193 l-1 -181 -190 -3 -190 -2 0 188 c0 104 3 192 7 195 12 12 361 8 369 -4z
m414 -185 l0 -194 -185 0 -185 0 0 195 0 196 185 -2 185 -1 0 -194z m408 181
c10 -4 12 -46 10 -187 l-3 -183 -192 -3 -193 -2 0 183 c0 102 4 187 9 193 10
9 342 8 369 -1z m412 -182 l0 -193 -185 0 -185 0 0 193 0 192 185 0 185 0 0
-192z m818 -3 l2 -190 -185 0 -185 0 0 188 c0 104 2 191 4 193 2 2 85 3 183 2
l178 -2 3 -191z m-403 0 l0 -185 -187 -3 -188 -2 0 183 c0 101 3 187 7 191 4
3 88 5 187 4 l181 -3 0 -185z m825 0 l0 -190 -190 0 -190 0 0 190 0 190 190 0
190 0 0 -190z m408 -2 l2 -188 -190 0 -190 0 0 190 0 190 188 -2 187 -3 3
-187z m412 2 l0 -190 -190 0 -190 0 0 183 c0 101 3 187 7 190 3 4 89 7 190 7
l183 0 0 -190z m405 0 l0 -185 -187 -3 -188 -2 0 190 0 190 188 -2 187 -3 0
-185z m415 0 l0 -190 -185 0 -185 0 0 190 0 190 185 0 185 0 0 -190z m-4928
-182 c-5 -5 -86 -7 -181 -6 l-172 3 178 180 178 180 3 -174 c1 -96 -1 -178 -6
-183z m-407 205 c-3 -29 -17 -49 -67 -101 -35 -36 -67 -71 -73 -77 -22 -25
-66 -48 -75 -39 -13 13 28 70 109 156 35 37 70 76 78 88 20 28 32 17 28 -27z
m-8 -198 c-4 -8 -14 -15 -23 -15 -16 0 -16 2 1 20 20 22 31 20 22 -5z m-307
-51 c0 -10 -58 -73 -62 -69 -2 3 -2 20 0 40 4 31 7 35 33 35 16 0 29 -3 29 -6z
m91 -11 c-16 -29 -150 -157 -157 -151 -3 4 14 28 38 55 25 26 55 63 67 81 24
34 70 48 52 15z m36 -125 c-160 -159 -192 -189 -186 -171 7 22 301 313 316
313 8 0 -51 -64 -130 -142z m595 -48 c-1 -101 -6 -188 -10 -192 -5 -5 -89 -7
-188 -6 l-179 3 -3 193 -2 192 192 -2 193 -3 -3 -185z m408 -5 l0 -195 -185 0
-185 0 0 195 0 195 185 0 185 0 0 -195z m408 3 l-3 -193 -174 -3 c-119 -2
-178 1 -187 9 -11 9 -14 50 -14 189 0 97 3 180 7 183 3 4 89 7 190 7 l183 0
-2 -192z m410 0 l-3 -193 -180 0 -180 0 -3 193 -2 192 185 0 185 0 -2 -192z
m416 176 c12 -31 7 -349 -6 -362 -17 -17 -349 -17 -366 0 -13 13 -18 359 -5
371 3 4 88 7 189 7 157 0 183 -2 188 -16z m406 -179 l0 -195 -185 0 -185 0 0
195 0 195 185 0 185 0 0 -195z m418 11 c2 -125 -1 -183 -9 -192 -10 -12 -46
-14 -188 -12 l-176 3 -3 193 -2 192 187 -2 188 -3 3 -179z m400 -8 l-3 -193
-182 -3 -183 -2 0 195 0 195 185 0 185 0 -2 -192z m420 0 l-3 -193 -185 0
-185 0 -3 193 -2 192 190 0 190 0 -2 -192z m410 8 c2 -120 -1 -183 -9 -192 -8
-10 -50 -13 -187 -11 l-177 2 -3 193 -2 192 187 -2 188 -3 3 -179z m412 -5 c0
-149 -3 -190 -13 -194 -17 -6 -337 -6 -354 0 -10 4 -13 52 -13 194 l0 189 190
0 190 0 0 -189z m408 14 c1 -93 0 -180 -3 -192 -5 -23 -8 -23 -168 -23 -89 0
-172 3 -184 6 -23 6 -23 8 -23 195 l0 189 188 -2 187 -3 3 -170z m410 -17 l-3
-193 -149 -3 c-82 -2 -164 -1 -183 3 l-33 6 0 189 0 190 185 0 185 0 -2 -192z
m-5338 -18 l0 -180 -175 0 c-96 0 -175 3 -175 7 0 7 341 353 347 353 2 0 3
-81 3 -180z"/>
<path d="M5421 7973 c0 -72 4 -111 10 -102 12 20 12 219 -1 219 -7 0 -10 -43
-9 -117z"/>
<path d="M5427 7613 c-3 -16 -1 -32 4 -37 5 -6 9 4 9 27 0 44 -6 48 -13 10z"/>
<path d="M4687 7082 c-27 -29 -20 -61 19 -98 40 -38 63 -42 87 -16 32 36 13
88 -43 117 -37 19 -43 19 -63 -3z m65 -34 c19 -16 28 -42 19 -56 -11 -17 -71
23 -71 48 0 23 27 27 52 8z"/>
<path d="M4606 6988 c-14 -17 -26 -35 -26 -40 0 -13 17 -9 34 8 19 18 36 10
36 -17 0 -31 30 -83 41 -72 13 13 -30 153 -47 153 -6 0 -23 -14 -38 -32z"/>
<path d="M4320 6890 c-19 -6 -9 -8 38 -9 40 -1 61 3 57 9 -7 12 -59 12 -95 0z"/>
<path d="M4499 6859 c-15 -15 -19 -28 -14 -47 17 -76 136 -100 135 -27 -1 31
-23 64 -54 80 -37 19 -42 19 -67 -6z m62 -30 c26 -18 41 -59 22 -59 -41 1 -76
37 -66 68 6 16 10 15 44 -9z"/>
<path d="M4640 6830 c0 -5 7 -10 15 -10 8 0 15 5 15 10 0 6 -7 10 -15 10 -8 0
-15 -4 -15 -10z"/>
<path d="M4220 6813 c0 -4 9 -16 20 -28 20 -21 20 -22 1 -43 -22 -26 -37 -28
-45 -7 -7 18 -36 20 -36 3 0 -16 100 -107 118 -108 18 0 15 17 -8 40 -25 25
-25 32 0 55 18 16 20 16 46 -4 20 -16 30 -19 38 -10 8 8 -4 24 -44 60 -48 43
-90 62 -90 42z"/>
<path d="M5002 6778 c-17 -17 -15 -53 3 -68 22 -18 19 -27 -12 -33 -18 -3 -31
0 -39 10 -18 26 -27 -3 -13 -45 25 -72 57 -89 97 -52 25 23 28 49 10 69 -11
11 -8 13 13 8 31 -8 69 16 69 44 0 31 -53 79 -87 79 -16 0 -34 -5 -41 -12z
m69 -21 c21 -16 33 -54 19 -62 -17 -10 -46 4 -60 29 -20 39 6 60 41 33z m-43
-130 c4 -20 -25 -34 -40 -19 -15 15 -1 44 19 40 10 -2 19 -11 21 -21z"/>
<path d="M4118 6687 c-14 -6 -36 -28 -48 -49 l-22 -39 21 -41 c11 -22 15 -36
8 -29 -8 8 -18 4 -39 -16 -43 -41 -32 -94 24 -108 21 -5 30 -1 51 27 26 32 26
33 7 53 -11 12 -20 23 -20 26 0 2 20 3 44 1 40 -4 46 -1 70 31 32 42 33 74 3
107 -31 36 -66 49 -99 37z m81 -69 c15 -25 14 -29 -8 -52 -44 -47 -91 -29 -91
34 0 46 6 52 49 48 26 -2 39 -10 50 -30z m-111 -156 c3 -18 -1 -22 -22 -22
-19 0 -26 5 -26 18 0 39 43 43 48 4z"/>
<path d="M4817 6562 c-10 -10 -17 -26 -17 -35 0 -23 46 -74 75 -81 80 -20 87
82 8 123 -31 16 -47 14 -66 -7z m68 -28 c25 -16 36 -64 14 -64 -32 0 -77 49
-64 70 9 14 22 12 50 -6z"/>
<path d="M5268 6549 c-26 -14 -22 -53 8 -88 26 -31 64 -40 93 -22 23 15 16 60
-15 92 -29 30 -56 36 -86 18z m70 -39 c42 -40 21 -72 -28 -43 -19 11 -30 25
-30 40 0 29 28 31 58 3z"/>
<path d="M4960 6541 c0 -6 5 -13 10 -16 6 -3 10 1 10 9 0 9 -4 16 -10 16 -5 0
-10 -4 -10 -9z"/>
<path d="M3925 6470 c-4 -6 10 -25 29 -42 20 -17 36 -35 36 -40 0 -4 -31 -8
-69 -8 -39 0 -72 -4 -76 -10 -5 -8 15 -30 84 -89 50 -43 57 -14 9 36 l-32 33
50 0 c61 0 94 9 94 24 0 11 -102 106 -114 106 -3 0 -8 -5 -11 -10z"/>
<path d="M5188 6463 c-15 -14 -15 -19 -2 -45 14 -27 44 -39 44 -18 0 15 37 12
43 -4 3 -7 -1 -23 -9 -34 -20 -29 0 -38 26 -12 24 24 25 38 4 68 -12 18 -24
23 -48 20 -27 -3 -31 0 -28 20 4 26 -7 28 -30 5z"/>
<path d="M4426 6441 c-20 -22 -20 -26 0 -57 15 -23 18 -23 34 -9 9 8 25 13 34
9 20 -8 21 -40 1 -48 -8 -3 -15 -12 -15 -20 0 -25 44 -3 54 27 18 51 -46 101
-82 65 -9 -9 -12 -9 -12 3 0 8 5 20 11 26 7 7 7 13 1 17 -5 3 -17 -3 -26 -13z"/>
<path d="M4347 6318 c15 -82 53 -111 98 -76 31 25 32 48 1 77 -19 18 -28 21
-44 12 -16 -8 -21 -7 -26 4 -3 8 -12 15 -20 15 -12 0 -14 -7 -9 -32z m87 -33
c3 -9 -1 -18 -10 -22 -19 -7 -39 11 -30 26 10 16 33 13 40 -4z"/>
<path d="M5070 6321 c-16 -31 -12 -45 21 -79 54 -55 115 -37 102 31 -11 56
-100 91 -123 48z m89 -37 c24 -30 20 -44 -14 -44 -24 0 -55 33 -55 57 0 23 48
14 69 -13z"/>
<path d="M3780 6215 c-13 -24 -12 -28 17 -57 21 -21 37 -29 49 -24 15 6 14 9
-9 34 -15 16 -27 31 -27 35 0 14 24 6 47 -15 35 -33 51 -9 17 25 -35 35 -76
36 -94 2z"/>
<path d="M4232 6217 c-26 -28 -27 -40 -6 -73 21 -32 69 -57 94 -49 25 8 36 49
21 81 -9 21 -64 64 -82 64 -3 0 -15 -10 -27 -23z m75 -41 c24 -20 25 -26 14
-40 -7 -9 -17 -16 -21 -16 -13 0 -60 52 -60 66 0 22 36 16 67 -10z"/>
<path d="M4380 6190 c0 -5 5 -10 11 -10 5 0 7 5 4 10 -3 6 -8 10 -11 10 -2 0
-4 -4 -4 -10z"/>
<path d="M4711 6169 c-19 -20 -19 -23 -4 -46 12 -18 22 -23 37 -18 38 12 50
10 54 -6 1 -9 -4 -24 -13 -32 -8 -9 -15 -18 -15 -21 0 -12 29 -5 44 10 37 36
-2 100 -53 89 -26 -6 -28 -4 -24 19 6 32 0 33 -26 5z"/>
<path d="M3711 6134 c-19 -24 -19 -28 -6 -54 20 -39 51 -47 84 -22 34 25 36
42 11 75 -27 34 -62 35 -89 1z m69 -19 c15 -18 5 -35 -20 -35 -23 0 -32 13
-24 34 8 20 28 21 44 1z"/>
<path d="M3615 6090 c-3 -5 1 -10 9 -10 9 0 16 5 16 10 0 6 -4 10 -9 10 -6 0
-13 -4 -16 -10z"/>
<path d="M4635 6080 c-17 -18 -17 -21 -1 -45 16 -25 46 -34 46 -15 0 17 40 11
47 -6 4 -11 -2 -23 -17 -34 -14 -10 -19 -20 -12 -24 16 -9 38 2 52 28 10 20 9
28 -6 51 -15 23 -23 26 -52 21 -32 -5 -34 -4 -28 19 8 30 -4 32 -29 5z"/>
<path d="M3654 6069 c-10 -16 67 -82 80 -69 6 6 1 19 -15 36 -33 35 -56 47
-65 33z"/>
<path d="M3596 6053 c-12 -12 -6 -20 45 -63 61 -52 89 -43 37 12 -37 39 -72
61 -82 51z"/>
<path d="M3577 5982 c-24 -27 -21 -58 9 -81 34 -26 37 -26 71 3 22 19 25 27
16 37 -10 10 -14 9 -19 -4 -3 -9 -17 -17 -30 -17 -19 0 -24 5 -24 24 0 14 5
28 10 31 6 3 10 10 10 16 0 15 -26 10 -43 -9z"/>
<path d="M4522 5948 c-35 -35 13 -118 67 -118 57 0 70 58 23 103 -30 28 -70
35 -90 15z m71 -32 c23 -18 23 -56 -1 -56 -22 0 -62 35 -62 55 0 19 39 19 63
1z"/>
<path d="M3498 5888 c-16 -18 -28 -38 -28 -45 0 -7 -7 -13 -15 -13 -9 0 -20
-11 -25 -25 -6 -15 -17 -25 -30 -25 -13 0 -22 9 -26 25 -7 29 -31 33 -41 8 -5
-12 10 -31 53 -70 32 -29 67 -53 77 -53 24 0 21 15 -8 34 -14 9 -25 23 -25 31
0 20 10 19 36 -6 14 -13 30 -19 39 -15 14 5 12 11 -14 35 -17 16 -31 34 -31
39 0 21 20 22 40 2 28 -28 64 -26 84 5 9 13 16 30 16 38 0 15 -51 67 -66 67
-5 0 -21 -15 -36 -32z m65 -32 c3 -8 -1 -20 -9 -27 -12 -10 -18 -9 -31 3 -8 9
-12 21 -9 27 10 16 43 14 49 -3z"/>
<path d="M3307 5665 c-31 -23 -17 -50 27 -53 35 -3 37 -4 20 -17 -26 -19 -64
-19 -79 1 -10 15 -13 15 -29 -1 -16 -16 -16 -19 0 -36 12 -13 25 -17 43 -13
24 5 24 4 9 -9 -13 -10 -14 -17 -6 -25 19 -19 48 5 48 38 0 22 4 28 15 24 20
-8 45 13 45 37 0 22 -32 41 -54 33 -12 -4 -15 -2 -10 9 8 21 -8 28 -29 12z"/>
<path d="M3177 5515 c-26 -32 -27 -37 -13 -56 8 -11 24 -28 36 -36 20 -14 24
-14 48 4 39 29 40 65 2 97 -17 14 -35 26 -38 26 -4 0 -20 -16 -35 -35z m73
-41 c0 -19 -32 -26 -48 -10 -12 12 -13 18 -3 30 10 12 16 13 32 3 10 -6 19
-17 19 -23z"/>
<path d="M3108 5439 c-10 -5 -18 -15 -18 -22 0 -7 -9 -18 -20 -25 -11 -7 -20
-21 -20 -33 0 -21 46 -68 68 -69 20 0 14 18 -13 42 -14 12 -25 25 -25 30 0 15
27 8 45 -12 10 -11 24 -20 32 -20 22 0 15 28 -12 46 -14 9 -25 20 -25 25 0 14
26 10 40 -6 14 -17 40 -20 40 -5 0 12 -52 60 -65 60 -5 0 -18 -5 -27 -11z"/>
<path d="M2930 5220 c-18 -23 -30 -44 -26 -47 6 -6 75 66 76 80 1 18 -21 4
-50 -33z"/>
<path d="M2966 5204 c-19 -21 -32 -42 -29 -47 6 -10 50 28 65 56 18 34 -1 30
-36 -9z"/>
<path d="M2814 5086 c-3 -14 -13 -26 -21 -26 -22 0 -9 -25 15 -28 14 -2 22
-12 24 -30 4 -33 22 -36 26 -4 2 14 10 22 23 22 28 0 21 34 -8 38 -13 2 -23
12 -25 24 -4 31 -26 33 -34 4z"/>
<path d="M5507 6312 c-26 -28 -21 -51 19 -88 40 -38 63 -42 87 -16 24 26 21
47 -10 81 -36 39 -73 48 -96 23z m69 -35 c28 -24 29 -57 1 -57 -21 0 -60 47
-54 64 9 22 21 20 53 -7z"/>
<path d="M5450 6224 c0 -23 22 -108 30 -117 5 -5 17 0 27 10 11 11 27 22 36
26 27 10 20 25 -22 51 -22 14 -42 30 -46 36 -9 15 -25 12 -25 -6z m60 -59 c0
-8 -4 -15 -10 -15 -5 0 -10 7 -10 15 0 8 5 15 10 15 6 0 10 -7 10 -15z"/>
<path d="M5728 6119 c-46 -26 9 -119 71 -119 61 0 66 73 7 109 -37 23 -53 25
-78 10z m72 -39 c22 -22 24 -29 10 -50 -8 -13 -13 -12 -37 6 -35 26 -43 64
-14 64 12 0 30 -9 41 -20z"/>
<path d="M5321 6093 c-33 -27 -20 -67 31 -99 37 -24 41 -24 64 -9 30 20 31 56
2 89 -31 35 -69 42 -97 19z m71 -34 c28 -27 29 -32 16 -46 -12 -12 -20 -13
-37 -4 -26 14 -43 45 -35 65 9 23 22 20 56 -15z"/>
<path d="M5468 6063 c7 -3 16 -2 19 1 4 3 -2 6 -13 5 -11 0 -14 -3 -6 -6z"/>
<path d="M5646 6024 c-18 -18 -21 -40 -5 -49 6 -4 13 2 16 14 7 27 29 27 36 1
3 -12 14 -20 26 -20 24 0 29 -28 6 -36 -21 -8 -19 -24 3 -24 11 0 27 9 38 21
20 22 13 44 -21 63 -10 6 -27 19 -37 29 -22 21 -42 22 -62 1z"/>
<path d="M4945 5961 c-20 -23 -17 -50 8 -65 13 -8 20 -8 26 2 12 19 45 11 49
-11 2 -10 -4 -24 -13 -31 -10 -7 -16 -18 -14 -25 3 -9 13 -6 32 9 34 27 32 55
-5 83 -23 17 -30 18 -43 7 -21 -17 -32 -4 -17 20 16 26 -1 34 -23 11z"/>
<path d="M5541 5904 c-19 -13 -22 -22 -17 -47 8 -42 32 -65 72 -73 71 -13 87
47 28 102 -40 39 -50 41 -83 18z m60 -35 c34 -24 39 -59 9 -59 -36 0 -74 53
-53 73 9 10 12 9 44 -14z"/>
<path d="M4880 5867 c0 -35 32 -117 45 -117 8 0 15 5 15 10 0 6 11 15 24 20
18 7 23 14 19 29 -3 12 -11 21 -19 21 -7 0 -24 11 -38 25 -28 27 -46 32 -46
12z m54 -68 c-3 -5 -10 -7 -15 -3 -5 3 -7 10 -3 15 3 5 10 7 15 3 5 -3 7 -10
3 -15z"/>
<path d="M5688 5863 c7 -3 16 -2 19 1 4 3 -2 6 -13 5 -11 0 -14 -3 -6 -6z"/>
<path d="M5162 5748 c-16 -16 -15 -24 4 -53 15 -22 18 -23 36 -11 11 8 27 12
34 9 21 -8 17 -41 -7 -54 -15 -7 -18 -14 -11 -21 8 -8 19 -6 36 6 55 36 19
112 -47 99 -26 -5 -29 -4 -22 16 7 23 -4 28 -23 9z"/>
<path d="M4746 5731 c-23 -25 -14 -52 25 -86 37 -30 73 -32 92 -4 13 18 13 24
0 50 -28 57 -85 76 -117 40z m77 -29 c22 -20 22 -52 -1 -52 -43 0 -84 60 -49
73 14 5 24 0 50 -21z"/>
<path d="M4895 5710 c-3 -5 1 -10 10 -10 9 0 13 5 10 10 -3 6 -8 10 -10 10 -2
0 -7 -4 -10 -10z"/>
<path d="M5082 5658 c-14 -14 -16 -58 -3 -58 5 0 13 9 16 21 7 22 30 21 30 -2
0 -8 11 -16 24 -19 32 -6 39 -30 12 -37 -23 -6 -29 -33 -8 -33 20 0 47 33 47
56 0 20 -70 84 -92 84 -8 0 -19 -5 -26 -12z"/>
<path d="M5362 5564 c-12 -8 -22 -24 -22 -36 0 -24 61 -88 85 -88 63 0 74 61
20 109 -41 35 -52 37 -83 15z m65 -36 c26 -24 31 -58 9 -58 -26 0 -68 43 -61
63 9 23 24 22 52 -5z"/>
<path d="M4967 5522 c-23 -26 -21 -36 14 -77 34 -39 76 -47 103 -19 24 23 20
42 -18 80 -38 38 -74 44 -99 16z m80 -34 c25 -24 30 -44 11 -51 -25 -9 -77 31
-78 61 0 20 42 14 67 -10z"/>
<path d="M5120 5494 c0 -8 5 -12 10 -9 6 3 10 10 10 16 0 5 -4 9 -10 9 -5 0
-10 -7 -10 -16z"/>
<path d="M5288 5479 c-19 -11 -25 -64 -8 -74 6 -3 10 5 10 18 0 28 23 42 38
24 5 -7 13 -33 16 -59 4 -27 11 -48 15 -48 11 0 51 44 51 56 0 6 -10 10 -22
10 -15 -1 -23 7 -29 27 -14 53 -36 67 -71 46z"/>
<path d="M5170 5338 c-26 -28 -25 -34 5 -73 29 -39 68 -49 97 -26 30 25 17 76
-25 102 -41 24 -52 24 -77 -3z m74 -31 c32 -26 31 -57 -2 -57 -25 0 -66 45
-59 64 9 22 27 20 61 -7z"/>
<path d="M5320 5316 c0 -9 5 -16 10 -16 6 0 10 4 10 9 0 6 -4 13 -10 16 -5 3
-10 -1 -10 -9z"/>
<path d="M5422 4940 c0 -44 4 -80 9 -80 5 0 9 36 9 80 0 44 -4 80 -8 80 -5 0
-9 -36 -10 -80z"/>
<path d="M5855 5720 c3 -5 8 -10 11 -10 2 0 4 5 4 10 0 6 -5 10 -11 10 -5 0
-7 -4 -4 -10z"/>
<path d="M3288 5223 c6 -2 18 -2 25 0 6 3 1 5 -13 5 -14 0 -19 -2 -12 -5z"/>
<path d="M3458 4403 c6 -2 18 -2 25 0 6 3 1 5 -13 5 -14 0 -19 -2 -12 -5z"/>
<path d="M3898 4403 c7 -3 16 -2 19 1 4 3 -2 6 -13 5 -11 0 -14 -3 -6 -6z"/>
<path d="M3938 4403 c7 -3 16 -2 19 1 4 3 -2 6 -13 5 -11 0 -14 -3 -6 -6z"/>
<path d="M3648 4403 c17 -2 47 -2 65 0 17 2 3 4 -33 4 -36 0 -50 -2 -32 -4z"/>
<path d="M2678 2743 c7 -3 16 -2 19 1 4 3 -2 6 -13 5 -11 0 -14 -3 -6 -6z"/>
<path d="M2358 2743 c6 -2 18 -2 25 0 6 3 1 5 -13 5 -14 0 -19 -2 -12 -5z"/>
<path d="M2068 2743 c6 -2 18 -2 25 0 6 3 1 5 -13 5 -14 0 -19 -2 -12 -5z"/>
<path d="M1868 1903 c7 -3 16 -2 19 1 4 3 -2 6 -13 5 -11 0 -14 -3 -6 -6z"/>
<path d="M564 7375 c-24 -37 -21 -112 7 -141 29 -31 50 -30 83 2 l26 27 21
-27 c30 -38 66 -32 91 14 35 63 6 150 -49 150 -25 0 -53 -21 -53 -39 0 -19
-17 -12 -34 14 -22 34 -69 34 -92 0z m72 -79 c-8 -38 -13 -43 -34 -30 -22 14
-27 51 -11 81 l13 25 19 -23 c13 -16 17 -32 13 -53z m134 8 c0 -40 -2 -44 -25
-44 -23 0 -25 4 -25 43 0 24 5 48 12 55 20 20 38 -6 38 -54z"/>
<path d="M452 7325 c-23 -36 -40 -70 -37 -75 4 -6 22 -10 41 -10 19 0 34 -4
34 -10 0 -5 7 -10 15 -10 19 0 38 37 29 58 -4 9 -8 37 -8 62 -1 66 -23 62 -74
-15z m38 -30 c0 -8 -4 -15 -10 -15 -5 0 -7 7 -4 15 4 8 8 15 10 15 2 0 4 -7 4
-15z"/>
<path d="M453 6568 c-14 -7 -23 -20 -23 -35 0 -24 14 -31 25 -13 3 6 13 10 21
10 17 0 19 -27 2 -33 -10 -3 -10 -9 0 -26 16 -28 15 -51 -3 -51 -8 0 -15 5
-15 10 0 6 -9 10 -20 10 -23 0 -25 -9 -7 -32 21 -27 52 -30 80 -7 28 21 34 48
16 66 -8 8 -8 17 1 33 12 22 4 39 -30 67 -18 15 -19 15 -47 1z"/>
<path d="M724 6568 c-25 -12 -54 -58 -55 -90 0 -23 0 -23 -9 -2 -5 12 -19 29
-32 38 l-22 16 28 0 c21 0 27 4 24 18 -4 23 -45 27 -69 6 -10 -9 -19 -29 -19
-44 0 -23 5 -29 31 -34 21 -4 30 -11 27 -22 -4 -23 -39 -43 -45 -26 -8 22 -35
14 -31 -10 6 -43 108 -32 108 11 0 18 13 12 35 -15 53 -67 131 1 110 96 -9 39
-52 71 -81 58z m44 -84 c2 -27 -2 -45 -12 -53 -24 -20 -36 -4 -36 50 0 47 2
50 23 47 18 -2 23 -10 25 -44z"/>
<path d="M32 5918 l3 -43 83 -3 c76 -3 83 -1 80 15 -2 11 -14 19 -31 21 -19 2
-31 11 -38 29 -11 29 -31 26 -39 -6 -7 -32 -24 -31 -28 2 -2 16 -9 27 -18 27
-12 0 -14 -10 -12 -42z"/>
<path d="M46 5842 c-15 -18 -15 -20 4 -37 32 -29 78 6 50 40 -17 20 -33 19
-54 -3z m41 -18 c-3 -3 -12 -4 -19 -1 -8 3 -5 6 6 6 11 1 17 -2 13 -5z"/>
<path d="M434 5725 c-4 -8 -3 -22 0 -31 6 -15 8 -15 25 0 23 21 40 4 20 -20
-9 -12 -9 -20 1 -38 16 -31 6 -50 -20 -36 -45 24 -57 -8 -15 -36 23 -15 29
-15 52 -3 32 17 51 55 35 71 -6 6 -8 23 -5 38 8 43 -12 70 -53 70 -22 0 -37
-6 -40 -15z"/>
<path d="M565 5714 c-9 -15 -17 -45 -17 -72 0 -39 5 -50 29 -69 36 -29 40 -29
72 5 l26 29 28 -29 c35 -35 47 -35 78 -2 31 33 34 111 5 143 -26 29 -77 25
-91 -6 -12 -29 -19 -29 -39 2 -23 34 -68 34 -91 -1z m205 -69 c0 -42 -11 -57
-37 -48 -16 6 -17 85 -1 101 19 19 38 -6 38 -53z m-135 27 c3 -16 1 -41 -5
-57 -10 -27 -11 -27 -30 -10 -22 20 -26 65 -8 83 20 20 36 14 43 -16z"/>
<path d="M175 5710 c-10 -16 15 -40 41 -40 31 0 31 13 -1 34 -29 19 -32 19
-40 6z"/>
<path d="M113 5648 c-18 -9 -23 -20 -23 -49 0 -33 4 -40 26 -45 l25 -6 -23
-12 c-16 -8 -24 -22 -26 -44 -4 -44 12 -62 59 -62 32 0 41 5 53 28 12 24 12
31 0 55 -9 16 -23 27 -37 28 -21 1 -20 1 3 8 14 4 25 13 25 21 0 9 -11 16 -25
18 -49 6 -56 16 -15 21 31 5 40 10 40 26 0 15 -7 21 -30 22 -16 1 -40 -3 -52
-9z m57 -163 c0 -18 -5 -25 -19 -25 -11 0 -23 5 -26 10 -11 18 3 40 25 40 15
0 20 -7 20 -25z"/>
<path d="M46 5412 c-2 -4 -1 -14 4 -22 7 -11 12 -12 21 -3 6 6 8 16 5 22 -8
13 -23 14 -30 3z"/>
<path d="M114 5412 c-6 -4 -14 -17 -18 -29 -4 -13 -14 -23 -22 -23 -20 0 -17
-28 3 -32 11 -2 18 -13 18 -28 0 -22 5 -25 38 -28 47 -4 49 -22 2 -22 -25 0
-35 -4 -35 -16 0 -24 89 -15 106 11 11 17 10 24 -5 43 -9 13 -33 27 -52 32
l-34 8 43 1 c30 1 42 5 42 16 0 11 -11 15 -40 15 -22 0 -40 5 -40 10 0 6 18
10 40 10 28 0 40 4 40 14 0 23 -60 36 -86 18z"/>
<path d="M17 5194 c-17 -17 11 -24 94 -24 72 0 89 3 89 15 0 12 -16 15 -88 15
-49 0 -92 -3 -95 -6z"/>
<path d="M108 5146 c-12 -8 -18 -27 -18 -50 0 -30 5 -38 25 -46 27 -10 30 -17
16 -38 -7 -11 -9 -10 -15 3 -8 22 -26 9 -26 -20 0 -34 38 -44 61 -17 l17 21 5
-21 c5 -18 8 -19 21 -8 21 17 20 36 -4 60 -11 11 -16 20 -10 20 5 0 16 12 24
27 13 25 12 30 -6 55 -21 31 -61 37 -90 14z m62 -41 c0 -20 -5 -25 -25 -25
-18 0 -25 5 -25 18 0 24 8 32 32 32 13 0 18 -7 18 -25z"/>
<path d="M453 4907 c-23 -10 -40 -43 -29 -54 3 -4 17 -1 30 6 52 28 54 -10 4
-64 -44 -47 -38 -65 22 -65 38 0 50 4 50 15 0 9 -9 15 -25 15 l-26 0 32 39
c24 31 30 46 25 65 -8 34 -53 57 -83 43z"/>
<path d="M587 4892 c-9 -10 -17 -30 -17 -44 0 -20 6 -27 30 -31 33 -7 39 -27
15 -47 -12 -10 -19 -10 -27 -2 -20 20 -40 14 -36 -10 2 -19 10 -24 41 -26 46
-4 67 15 67 62 0 25 -7 40 -25 55 l-26 20 23 3 c31 4 29 32 -3 36 -15 2 -32
-5 -42 -16z"/>
<path d="M712 4903 c-17 -7 -42 -57 -42 -85 0 -13 9 -38 20 -55 16 -27 26 -33
54 -33 29 0 36 5 51 36 37 79 -14 165 -83 137z m56 -79 c2 -27 -2 -45 -12 -53
-24 -20 -36 -4 -36 50 0 47 2 50 23 47 18 -2 23 -10 25 -44z"/>
<path d="M14 4885 c-10 -25 14 -43 67 -50 48 -7 49 -8 30 -22 -26 -18 -28 -70
-3 -89 29 -23 69 -17 90 14 18 25 19 30 6 55 -8 15 -20 27 -27 27 -7 1 -5 6 6
14 31 24 21 46 -21 46 -21 0 -43 5 -49 11 -8 8 -13 8 -17 0 -9 -14 -56 -15
-56 -1 0 16 -20 12 -26 -5z m156 -114 c0 -26 -17 -36 -35 -21 -23 19 -18 40
10 40 18 0 25 -5 25 -19z"/>
<path d="M102 4628 c-16 -16 -16 -60 0 -76 10 -10 10 -15 0 -21 -8 -5 -12 -19
-10 -32 3 -21 9 -24 56 -27 42 -2 52 0 52 12 0 12 -11 16 -40 16 -29 0 -40 4
-40 15 0 10 10 15 29 15 42 0 74 45 56 79 -14 28 -82 40 -103 19z m65 -45 c-3
-10 -5 -4 -5 12 0 17 2 24 5 18 2 -7 2 -21 0 -30z"/>
<path d="M95 4450 c-11 -18 5 -30 41 -30 24 0 34 -5 34 -15 0 -10 -10 -15 -34
-15 -28 0 -35 -4 -40 -25 -4 -14 -13 -25 -21 -25 -8 0 -15 -7 -15 -15 0 -8 9
-15 20 -15 17 0 18 -5 13 -51 -5 -43 -3 -54 12 -65 27 -20 69 -17 90 6 15 17
17 27 9 58 -8 34 -12 37 -54 43 l-45 6 48 1 c34 2 47 6 47 17 0 11 -11 15 -41
15 -24 0 -38 4 -34 10 3 6 17 10 30 10 13 0 33 10 44 21 l20 22 -20 28 c-16
23 -28 29 -59 29 -21 0 -42 -4 -45 -10z m72 -206 c8 -20 -9 -36 -30 -28 -20 7
-22 30 -4 37 21 9 27 7 34 -9z"/>
<path d="M97 4173 c-16 -15 -7 -55 13 -60 l21 -6 -21 -14 c-24 -17 -28 -71 -5
-79 8 -4 15 -12 15 -19 0 -7 -7 -15 -15 -19 -10 -4 -15 -20 -15 -50 0 -54 10
-59 105 -54 52 3 60 6 60 23 0 13 -8 21 -22 23 -14 2 -23 10 -23 21 0 10 -7
24 -15 31 -19 16 -19 29 2 52 13 14 15 25 7 46 -5 15 -16 28 -24 28 -32 3 -34
6 -11 13 37 10 38 31 2 31 -17 0 -38 8 -49 20 -10 11 -22 17 -25 13z m30 -125
c-3 -8 -6 -5 -6 6 -1 11 2 17 5 13 3 -3 4 -12 1 -19z m40 0 c-3 -8 -6 -5 -6 6
-1 11 2 17 5 13 3 -3 4 -12 1 -19z m1 -111 c3 -12 -4 -17 -22 -17 -27 0 -37
24 -13 33 19 8 32 2 35 -16z"/>
<path d="M436 4058 c-22 -31 -3 -48 24 -23 17 16 23 17 30 5 11 -18 1 -41 -33
-80 -40 -45 -33 -65 23 -65 38 0 45 3 45 20 0 13 -8 21 -22 23 l-23 3 24 24
c37 37 42 63 15 91 -28 30 -63 31 -83 2z"/>
<path d="M573 4058 c-34 -37 -34 -100 1 -140 30 -36 50 -35 78 2 23 32 38 38
38 17 0 -18 32 -47 52 -47 30 0 63 49 63 93 -1 85 -61 125 -104 71 l-21 -27
-26 27 c-33 32 -54 33 -81 4z m67 -72 c0 -33 -15 -49 -39 -41 -24 7 -29 52 -8
85 12 21 12 21 30 -1 9 -12 17 -31 17 -43z m130 -2 c0 -40 -2 -44 -25 -44 -23
0 -25 4 -25 43 0 24 5 48 12 55 20 20 38 -6 38 -54z"/>
<path d="M97 3853 c-4 -3 -7 -35 -7 -69 0 -56 2 -63 23 -70 l22 -7 -23 -10
c-20 -9 -23 -17 -20 -51 3 -32 0 -45 -16 -57 -31 -25 -11 -39 60 -39 65 0 80
10 52 38 -9 9 -7 16 7 32 15 16 17 26 9 48 -5 15 -16 28 -24 28 -32 3 -34 6
-10 13 14 4 26 15 28 24 3 13 -4 17 -32 17 -19 0 -38 5 -41 10 -4 6 10 10 34
10 28 0 41 4 41 14 0 16 -21 26 -56 26 -13 0 -24 5 -24 10 0 6 18 10 40 10 29
0 40 4 40 15 0 11 -12 15 -48 15 -27 0 -52 -3 -55 -7z m70 -205 c-3 -7 -5 -2
-5 12 0 14 2 19 5 13 2 -7 2 -19 0 -25z m-40 0 c-3 -8 -6 -5 -6 6 -1 11 2 17
5 13 3 -3 4 -12 1 -19z"/>
<path d="M108 3469 c-29 -16 -24 -83 7 -108 l26 -20 -23 -3 c-20 -3 -23 -9
-23 -43 l0 -40 49 0 c60 0 76 22 20 27 -51 4 -56 26 -8 30 40 3 58 24 26 30
-17 3 -17 5 7 28 17 16 23 19 18 8 -9 -25 11 -33 34 -12 11 10 19 30 19 51 0
27 -5 36 -27 45 -39 16 -104 19 -125 7z m62 -60 c0 -15 -5 -20 -22 -17 -34 5
-37 38 -4 38 20 0 26 -5 26 -21z m60 6 c0 -8 -4 -15 -9 -15 -5 0 -11 7 -15 15
-3 9 0 15 9 15 8 0 15 -7 15 -15z"/>
<path d="M705 3226 c-41 -44 -46 -83 -14 -127 25 -35 67 -39 94 -9 23 26 26
111 4 131 -45 44 -47 44 -84 5z m60 -71 c0 -43 -3 -50 -20 -50 -17 0 -20 8
-23 53 -3 51 -2 53 20 50 21 -3 23 -8 23 -53z"/>
<path d="M454 3235 c-4 -9 -2 -20 4 -24 6 -3 12 -36 14 -71 4 -94 23 -76 23
22 0 71 -3 83 -18 86 -9 2 -20 -4 -23 -13z"/>
<path d="M585 3226 c-22 -33 -16 -59 15 -66 16 -4 26 -14 28 -28 4 -27 -23
-40 -49 -24 -26 17 -31 15 -27 -10 4 -28 49 -36 85 -17 35 19 33 82 -4 106
l-26 17 24 6 c33 8 31 34 -3 38 -20 2 -31 -3 -43 -22z"/>
<path d="M49 3224 c-10 -13 -10 -17 1 -24 17 -10 30 -4 30 15 0 22 -16 26 -31
9z"/>
<path d="M94 3219 c-10 -17 17 -29 61 -27 29 2 41 8 43 21 3 14 -4 17 -47 17
-27 0 -53 -5 -57 -11z"/>
<path d="M17 3174 c-17 -17 11 -24 94 -24 72 0 89 3 89 15 0 12 -16 15 -88 15
-49 0 -92 -3 -95 -6z"/>
<path d="M50 3120 c-12 -7 -12 -12 -2 -22 9 -9 15 -9 24 0 16 16 -2 34 -22 22z"/>
<path d="M125 3121 c-34 -7 -37 -24 -4 -31 21 -5 21 -6 -5 -19 -34 -19 -37
-72 -5 -95 27 -19 16 -36 -22 -36 -39 0 -59 -20 -59 -59 l0 -31 84 0 c60 0 85
4 89 13 8 20 -4 70 -21 90 -9 10 -11 17 -4 17 6 0 18 12 26 27 12 24 12 30 -2
51 -9 13 -25 28 -36 32 -19 8 -18 9 7 9 17 1 27 6 27 16 0 8 -4 15 -9 15 -5 0
-15 2 -23 4 -7 2 -26 1 -43 -3z m45 -96 c0 -20 -5 -25 -25 -25 -18 0 -25 5
-25 18 0 24 8 32 32 32 13 0 18 -7 18 -25z m-2 -128 c2 -10 -3 -17 -12 -17
-10 0 -16 9 -16 21 0 24 23 21 28 -4z m-78 -2 c0 -8 -7 -15 -15 -15 -16 0 -20
12 -8 23 11 12 23 8 23 -8z"/>
<path d="M450 2408 c0 -8 4 -18 9 -23 6 -6 11 -39 13 -74 2 -42 8 -66 16 -69
10 -3 12 16 10 85 -3 83 -4 88 -25 91 -14 2 -23 -2 -23 -10z"/>
<path d="M565 2393 c-35 -53 -14 -142 37 -159 17 -5 28 0 48 25 29 34 40 39
40 17 0 -7 12 -21 26 -31 25 -16 28 -16 52 2 61 45 44 174 -22 173 -25 -1 -56
-22 -56 -39 0 -19 -17 -12 -34 14 -23 35 -68 34 -91 -2z m69 -35 c22 -51 -9
-99 -42 -66 -16 16 -15 53 0 78 18 28 27 25 42 -12z m124 20 c7 -7 12 -31 12
-55 0 -39 -2 -43 -25 -43 -23 0 -25 3 -25 48 0 61 12 76 38 50z"/>
<path d="M721 1584 c-39 -28 -71 -124 -41 -124 6 0 10 -5 10 -11 0 -18 28 -39
53 -39 50 0 80 74 53 132 -22 47 -48 61 -75 42z m47 -80 c2 -27 -2 -45 -12
-53 -24 -20 -36 -4 -36 50 0 47 2 50 23 47 18 -2 23 -10 25 -44z"/>
<path d="M586 1571 c-23 -25 -18 -66 8 -66 29 0 44 -31 25 -51 -14 -13 -20
-14 -37 -3 -12 7 -25 10 -29 6 -13 -14 13 -42 41 -45 62 -8 91 77 41 117 l-26
20 23 3 c31 4 29 32 -3 36 -15 2 -32 -5 -43 -17z"/>
<path d="M736 574 c-21 -22 -26 -36 -26 -79 0 -60 19 -85 67 -85 63 0 86 101
37 159 -32 38 -44 39 -78 5z m63 -50 c9 -21 9 -33 -1 -55 -15 -33 -25 -36 -44
-11 -17 22 -18 59 -1 77 18 21 32 18 46 -11z"/>
<path d="M1641 536 c-19 -35 -10 -60 22 -64 22 -3 27 -8 27 -29 0 -24 -3 -25
-35 -20 -40 7 -57 -10 -30 -30 45 -32 99 1 97 59 0 22 -8 38 -21 47 -27 17
-27 31 -1 31 11 0 20 7 20 15 0 10 -10 15 -33 15 -25 0 -37 -6 -46 -24z"/>
<path d="M1765 540 c-37 -40 -35 -94 4 -142 27 -34 91 -10 91 33 0 8 5 20 12
27 9 9 6 22 -12 57 -19 36 -28 45 -50 45 -15 0 -35 -9 -45 -20z m53 -22 c7 -7
12 -31 12 -55 0 -39 -2 -43 -25 -43 -22 0 -25 4 -25 39 0 64 13 84 38 59z"/>
<path d="M2397 554 c-4 -4 -3 -12 3 -18 5 -7 10 -41 12 -76 2 -50 7 -65 18
-65 12 0 15 16 15 80 0 73 -2 80 -20 83 -12 2 -24 0 -28 -4z"/>
<path d="M2510 528 c-24 -39 -25 -66 -6 -103 26 -50 62 -59 96 -23 11 12 21
31 21 42 1 20 1 20 6 1 7 -29 43 -65 65 -65 31 0 68 48 68 87 0 48 -34 93 -69
93 -31 0 -61 -27 -61 -56 0 -13 -6 -8 -19 16 -14 27 -26 36 -49 38 -26 3 -35
-2 -52 -30z m69 -12 c7 -8 11 -32 9 -53 -2 -31 -7 -39 -25 -41 -18 -3 -23 2
-25 20 -5 75 13 108 41 74z m135 -18 c11 -31 0 -78 -17 -78 -34 0 -48 52 -25
90 16 25 30 21 42 -12z"/>
<path d="M3224 538 c4 -13 8 -50 9 -83 2 -53 4 -60 22 -60 18 0 20 7 20 80 l0
80 -29 3 c-26 3 -28 1 -22 -20z"/>
<path d="M3350 534 c-15 -38 -9 -57 20 -64 16 -4 25 -13 25 -25 0 -17 -7 -20
-38 -19 -30 1 -37 -2 -35 -15 2 -8 16 -20 31 -25 22 -8 32 -6 55 11 39 29 40
64 2 99 l-30 29 27 5 c40 7 34 24 -10 28 -32 3 -38 0 -47 -24z"/>
<path d="M3466 535 c-25 -37 -21 -107 7 -133 30 -28 52 -28 82 3 29 28 33 80
10 125 -21 40 -74 43 -99 5z m68 -29 c12 -20 13 -31 5 -55 -6 -17 -16 -31 -23
-31 -33 0 -47 52 -24 90 16 26 22 25 42 -4z"/>
<path d="M4022 540 c-19 -30 -5 -44 24 -25 26 17 44 13 44 -9 0 -7 -18 -34
-40 -58 -33 -38 -37 -48 -26 -58 22 -17 90 -9 94 13 2 12 -3 17 -17 17 -12 0
-21 5 -21 10 0 6 4 10 8 10 12 0 32 46 32 73 0 31 -18 47 -55 47 -20 0 -35 -7
-43 -20z"/>
<path d="M4165 547 c-42 -51 -42 -96 -1 -144 21 -24 27 -26 52 -18 16 6 33 19
38 30 9 20 10 20 37 -7 34 -34 53 -35 84 -3 50 49 20 155 -45 155 -21 0 -33
-8 -49 -32 -12 -20 -21 -26 -21 -17 0 38 -71 65 -95 36z m54 -31 c7 -8 11 -32
9 -53 -2 -31 -7 -39 -25 -41 -19 -3 -23 2 -24 25 -3 75 13 102 40 69z m135
-18 c12 -35 0 -80 -22 -76 -26 5 -38 52 -22 83 16 30 32 28 44 -7z"/>
<path d="M4842 540 c-18 -30 -5 -44 24 -26 32 22 44 20 44 -6 -1 -13 -19 -41
-40 -63 -30 -30 -36 -42 -28 -53 17 -20 92 -12 96 11 3 12 -3 17 -19 17 l-22
0 20 23 c31 33 37 64 19 92 -21 32 -75 35 -94 5z"/>
<path d="M4997 553 c-3 -4 -8 -25 -12 -46 -7 -35 -6 -37 18 -37 13 0 30 -6 36
-14 17 -21 -11 -39 -49 -31 -33 7 -39 -4 -14 -29 22 -23 60 -20 84 6 27 29 25
64 -5 92 -30 28 -31 34 -5 38 12 2 22 8 23 13 2 12 -69 20 -76 8z"/>
<path d="M5106 535 c-23 -35 -20 -97 5 -129 42 -54 109 -15 109 62 0 59 -23
92 -65 92 -24 0 -37 -7 -49 -25z m74 -35 c24 -59 -23 -110 -49 -53 -9 20 -9
33 0 55 15 36 33 36 49 -2z"/>
<path d="M5672 548 c-7 -7 -12 -18 -12 -25 0 -17 37 -17 43 0 4 9 7 9 18 -1
12 -11 11 -15 -3 -23 -22 -12 -23 -38 -3 -45 24 -9 19 -38 -5 -30 -11 3 -29 9
-40 12 -26 8 -27 -17 -2 -39 25 -23 58 -21 81 2 17 17 19 29 14 78 -3 32 -10
64 -16 71 -12 15 -59 16 -75 0z"/>
<path d="M5805 547 c-6 -7 -17 -27 -24 -45 -12 -28 -12 -37 0 -60 21 -43 41
-62 64 -62 24 0 55 28 55 51 0 7 13 -1 29 -19 55 -60 111 -28 111 63 0 61 -19
85 -68 85 -25 0 -35 -6 -49 -32 -14 -28 -18 -30 -21 -14 -2 11 -10 26 -17 33
-17 16 -66 16 -80 0z m63 -81 c-2 -33 -7 -41 -23 -41 -16 0 -21 8 -23 38 -4
46 13 73 35 55 9 -7 13 -26 11 -52z m131 40 c16 -30 11 -66 -12 -80 -21 -13
-37 5 -37 46 0 58 26 77 49 34z"/>
<path d="M6490 539 c-17 -31 5 -52 26 -25 11 16 17 17 27 7 9 -10 8 -14 -5
-22 -22 -12 -23 -38 -3 -45 18 -7 20 -34 2 -34 -7 0 -18 5 -24 11 -7 7 -19 9
-28 6 -14 -6 -14 -9 1 -32 20 -31 52 -32 88 -4 19 15 25 26 20 38 -4 9 -10 39
-13 66 -6 49 -7 50 -43 53 -29 3 -39 -1 -48 -19z"/>
<path d="M6635 548 c-2 -7 -6 -26 -7 -43 -3 -25 1 -31 22 -34 29 -4 41 -18 33
-39 -4 -10 -16 -13 -39 -9 -28 5 -34 3 -34 -13 0 -33 55 -41 88 -11 28 24 29
72 2 96 -26 23 -25 35 1 35 12 0 19 5 17 13 -6 17 -77 22 -83 5z"/>
<path d="M6751 534 c-25 -31 -27 -74 -6 -113 22 -45 58 -53 93 -22 29 25 32
126 5 147 -30 22 -69 17 -92 -12z m65 -19 c20 -19 14 -75 -8 -89 -9 -5 -20 -7
-24 -3 -9 8 -9 81 0 96 9 15 14 14 32 -4z"/>
<path d="M4340 225 c-13 -16 -17 -155 -5 -175 12 -19 25 1 25 40 0 22 5 40 13
43 10 4 10 7 0 18 -15 16 -17 49 -3 49 6 0 10 9 10 20 0 24 -22 26 -40 5z"/>
<path d="M2630 142 c0 -49 3 -91 6 -95 14 -14 34 7 35 37 l0 31 12 -35 c16
-48 31 -44 35 9 4 55 -4 79 -20 63 -18 -18 -28 -15 -28 8 0 17 5 19 25 14 19
-5 25 -2 25 11 0 13 -6 16 -24 11 -18 -4 -25 -1 -29 14 -3 11 -12 20 -21 20
-13 0 -16 -14 -16 -88z"/>
<path d="M2342 208 c-7 -7 -12 -40 -12 -78 0 -38 5 -71 12 -78 18 -18 66 -14
86 6 18 18 20 18 46 -5 34 -29 41 -29 72 2 20 20 26 22 30 10 4 -8 12 -15 20
-15 10 0 14 14 14 50 0 38 -4 50 -15 50 -8 0 -15 -7 -15 -15 0 -21 -13 -19
-28 5 -18 29 -66 26 -90 -5 -22 -28 -35 -15 -25 25 11 41 -65 78 -95 48z m52
-49 c-3 -5 -10 -7 -15 -3 -5 3 -7 10 -3 15 3 5 10 7 15 3 5 -3 7 -10 3 -15z
m134 -57 c3 -18 -2 -22 -22 -22 -28 0 -34 18 -14 38 17 17 32 10 36 -16z
m-118 -7 c0 -8 -6 -15 -14 -15 -17 0 -28 14 -19 24 12 12 33 6 33 -9z"/>
<path d="M5162 205 c-8 -15 -12 -15 -30 -4 -19 12 -24 11 -39 -3 -14 -14 -15
-22 -5 -43 13 -28 39 -33 48 -10 11 28 24 4 24 -45 0 -32 5 -50 14 -53 19 -8
26 1 26 34 0 18 6 28 20 32 11 3 20 13 20 22 0 9 -9 19 -20 22 -27 7 -25 21 3
25 12 2 22 10 22 18 0 22 -70 26 -83 5z"/>
<path d="M2580 185 c0 -10 7 -15 18 -13 21 4 19 22 -2 26 -10 2 -16 -3 -16
-13z"/>
<path d="M3041 172 c-11 -21 -2 -114 12 -124 19 -12 27 2 29 45 l1 42 4 -38
c3 -26 12 -42 28 -53 22 -14 27 -14 54 2 23 14 33 15 44 6 19 -16 27 -5 27 40
0 24 4 37 10 33 6 -3 10 -22 10 -41 0 -24 5 -34 15 -34 9 0 15 9 15 24 0 13 3
33 7 43 6 13 9 8 13 -22 4 -32 9 -40 25 -40 26 0 32 47 10 81 -13 20 -23 24
-69 24 -36 0 -58 -5 -66 -15 -12 -14 -15 -14 -30 0 -20 18 -67 20 -72 3 -3 -8
-12 -1 -22 15 -21 31 -32 34 -45 9z m155 -90 c-5 -8 -76 -4 -76 4 0 2 18 4 41
4 22 0 38 -4 35 -8z"/>
<path d="M3794 176 c-3 -7 -4 -38 -2 -67 3 -46 6 -54 23 -54 16 0 21 9 26 40
l6 40 2 -36 c0 -22 9 -43 21 -54 18 -17 21 -17 45 -1 23 15 26 23 23 62 -4 55
-22 63 -26 12 -4 -51 -30 -51 -34 0 -2 28 -7 36 -20 34 -9 -1 -19 6 -23 18 -7
23 -33 27 -41 6z"/>
<path d="M4737 176 c-8 -21 4 -126 16 -133 5 -3 14 2 19 11 9 16 12 16 34 -5
22 -20 26 -21 50 -9 17 9 24 20 21 32 -3 10 -1 18 4 18 5 0 9 -6 9 -13 0 -7 5
-18 12 -25 18 -18 38 5 38 44 0 19 5 34 10 34 6 0 10 7 10 15 0 23 -47 19 -61
-6 l-11 -21 -14 21 c-19 27 -59 27 -78 0 -14 -21 -15 -21 -18 12 -3 36 -31 52
-41 25z m110 -52 c-3 -3 -12 -4 -19 -1 -8 3 -5 6 6 6 11 1 17 -2 13 -5z m6
-41 c-7 -2 -19 -2 -25 0 -7 3 -2 5 12 5 14 0 19 -2 13 -5z"/>
<path d="M2747 153 c-14 -13 -7 -101 7 -106 17 -7 26 13 26 56 0 24 3 28 10
17 5 -8 10 -27 10 -42 0 -31 23 -38 37 -13 7 12 10 11 21 -5 7 -12 8 -20 2
-20 -5 0 -10 -9 -10 -20 0 -17 7 -20 44 -20 58 0 68 14 64 92 l-3 63 -45 0
c-37 0 -46 -4 -57 -24 l-12 -25 -12 27 c-10 21 -19 27 -44 27 -17 0 -35 -3
-38 -7z m171 -35 c20 -20 14 -38 -13 -38 -18 0 -25 5 -25 18 0 32 17 41 38 20z
m-3 -88 c3 -6 -3 -10 -14 -10 -12 0 -21 5 -21 10 0 13 27 13 35 0z"/>
<path d="M3377 153 c-4 -3 -7 -39 -7 -80 0 -58 3 -73 15 -73 9 0 15 9 15 21 0
15 4 19 16 15 10 -4 27 5 45 23 16 16 29 24 29 16 0 -7 11 -20 25 -29 19 -13
30 -14 45 -6 31 16 24 38 -12 43 l-33 4 36 1 c29 2 38 -2 42 -19 10 -36 42
-20 45 24 2 20 7 37 13 37 5 0 9 7 9 15 0 20 -39 19 -62 -1 -16 -16 -18 -16
-24 0 -12 32 -84 11 -84 -25 0 -6 -9 0 -21 15 -15 18 -30 26 -53 26 -18 0 -36
-3 -39 -7z m61 -35 c20 -20 14 -38 -13 -38 -18 0 -25 5 -25 18 0 32 17 41 38
20z"/>
<path d="M3688 146 c-11 -8 -18 -27 -18 -48 0 -45 33 -71 76 -59 27 7 29 10
29 62 l0 54 -35 2 c-19 2 -43 -3 -52 -11z m60 -44 c3 -18 -1 -22 -22 -22 -19
0 -26 5 -26 18 0 39 43 43 48 4z"/>
<path d="M3957 153 c-9 -8 -9 -76 -1 -97 9 -24 34 -7 34 24 0 16 7 35 15 44 8
8 15 19 15 25 0 12 -52 15 -63 4z"/>
<path d="M4034 135 c-20 -31 -12 -69 20 -90 20 -14 28 -14 45 -3 31 19 26 36
-11 41 -32 4 -32 4 5 5 29 2 37 6 37 20 0 25 -31 52 -58 52 -12 0 -29 -11 -38
-25z m53 -11 c-3 -3 -12 -4 -19 -1 -8 3 -5 6 6 6 11 1 17 -2 13 -5z"/>
<path d="M4211 134 c-12 -15 -21 -32 -21 -38 1 -16 22 -41 48 -55 19 -10 27
-9 52 9 36 26 39 58 7 88 -31 29 -61 28 -86 -4z m69 -19 c15 -18 5 -35 -21
-35 -14 0 -19 7 -19 25 0 28 21 33 40 10z"/>
<path d="M4623 145 c-7 -8 -13 -30 -13 -48 0 -44 34 -70 76 -58 27 7 29 10 29
62 l0 54 -40 2 c-25 2 -45 -3 -52 -12z m55 -27 c20 -20 14 -38 -13 -38 -18 0
-25 5 -25 18 0 32 17 41 38 20z"/>
<path d="M4440 140 c0 -5 8 -28 17 -50 20 -45 47 -53 59 -18 l7 23 8 -23 c5
-12 15 -22 23 -22 16 0 46 53 46 82 0 26 -26 23 -34 -4 l-7 -23 -16 23 c-19
27 -29 28 -36 2 -3 -11 -10 -20 -15 -20 -5 0 -12 9 -15 20 -5 20 -37 29 -37
10z"/>
<path d="M4965 51 c-10 -20 -11 -32 -5 -36 15 -9 40 14 40 36 0 31 -18 31 -35
0z"/>
</g>
</svg>
