<?xml version="1.0"?>
<svg
  xmlns="http://www.w3.org/2000/svg"
  xmlns:xlink="http://www.w3.org/1999/xlink"
  xmlns:cml="http://www.xml-cml.org/schema"
  width="213.438"
  height="171.544"
  x="0"
  y="0"
  viewBox="0 0 213.438 171.544"
  font-family="sans-serif"
  stroke-width="1"
  stroke-linecap="round">
  <line x1="65.4" y1="101.1" x2="51.8" y2="97.7" stroke="rgb(0,0,0)" stroke-width="2.0"/>
  <line x1="66.9" y1="95.3" x2="53.3" y2="91.8" stroke="rgb(0,0,0)" stroke-width="2.0"/>
  <line x1="149.8" y1="91.2" x2="149.8" y2="73.5" stroke="rgb(0,0,0)" stroke-width="2.0"/>
  <line x1="138.5" y1="54.0" x2="125.5" y2="46.5" stroke="rgb(0,0,0)" stroke-width="2.0"/>
  <line x1="120.8" y1="51.3" x2="128.3" y2="64.3" stroke="rgb(0,0,0)" stroke-width="2.0"/>
  <line x1="134.8" y1="88.5" x2="134.8" y2="107.6" stroke="rgb(0,0,0)" stroke-width="2.0"/>
  <line x1="147.3" y1="124.1" x2="160.9" y2="128.0" stroke="rgb(0,0,0)" stroke-width="2.0"/>
  <line x1="164.9" y1="121.7" x2="158.3" y2="114.1" stroke="rgb(0,0,0)" stroke-width="2.0"/>
  <line x1="93.6" y1="121.2" x2="86.6" y2="111.9" stroke="rgb(0,0,0)" stroke-width="2.0"/>
  <line x1="78.7" y1="88.5" x2="78.7" y2="73.5" stroke="rgb(0,0,0)" stroke-width="2.0"/>
  <line x1="90.0" y1="54.0" x2="103.0" y2="46.5" stroke="rgb(0,0,0)" stroke-width="2.0"/>
  <line x1="122.4" y1="124.7" x2="113.7" y2="127.5" stroke="rgb(0,0,0)" stroke-width="2.0"/>
  <line x1="89.4" y1="108.8" x2="91.9" y2="110.5" stroke="rgb(0,0,0)" stroke-width="2.0"/>
  <line x1="115.1" y1="114.3" x2="137.3" y2="107.9" stroke="rgb(0,0,0)" stroke-width="2.0"/>
  <text x="143.761711" y="112.239921" fill="rgb(255,127,0)" stroke="rgb(255,127,0)" stroke-width="1" font-size="16">P</text>
  <text x="143.762266" y="68.504425" fill="rgb(178,178,0)" stroke="rgb(178,178,0)" stroke-width="1" font-size="16">S</text>
  <text x="108.247561" y="48.000000" fill="rgb(255,127,0)" stroke="rgb(255,127,0)" stroke-width="1" font-size="16">P</text>
  <text x="128.770025" y="83.505756" fill="rgb(178,178,0)" stroke="rgb(178,178,0)" stroke-width="1" font-size="16">S</text>
  <text x="128.769452" y="128.605026" fill="rgb(255,127,0)" stroke="rgb(255,127,0)" stroke-width="1" font-size="16">P</text>
  <text x="167.438008" y="139.544127" fill="rgb(178,178,0)" stroke="rgb(178,178,0)" stroke-width="1" font-size="16">S</text>
  <text x="95.366304" y="139.543212" fill="rgb(178,178,0)" stroke="rgb(178,178,0)" stroke-width="1" font-size="16">S</text>
  <text x="72.741286" y="109.473587" fill="rgb(255,127,0)" stroke="rgb(255,127,0)" stroke-width="1" font-size="16">P</text>
  <text x="34.000000" y="99.518046" fill="rgb(178,178,0)" stroke="rgb(178,178,0)" stroke-width="1" font-size="16">S</text>
  <text x="96.607134" y="125.905481" fill="rgb(178,178,0)" stroke="rgb(178,178,0)" stroke-width="1" font-size="16">S</text>
  <text x="72.741806" y="68.503522" fill="rgb(178,178,0)" stroke="rgb(178,178,0)" stroke-width="1" font-size="16">S</text>
  <text font-size="18.000000" fill="black" font-family="sans-serif" x="10.000000" y="20.000000"></text>
</svg>
