<?xml version="1.0"?>
<svg
  xmlns="http://www.w3.org/2000/svg"
  xmlns:xlink="http://www.w3.org/1999/xlink"
  xmlns:cml="http://www.xml-cml.org/schema"
  width="287.846"
  height="220"
  x="0"
  y="0"
  viewBox="0 0 287.846 220"
  font-family="sans-serif"
  stroke-width="1"
  stroke-linecap="round">
  <line x1="143.9" y1="120.0" x2="143.9" y2="160.0" stroke="rgb(0,0,0)" stroke-width="2.0"/>
  <line x1="143.9" y1="160.0" x2="109.3" y2="180.0" stroke="rgb(0,0,0)" stroke-width="2.0"/>
  <line x1="109.3" y1="180.0" x2="85.9" y2="166.5" stroke="rgb(0,0,0)" stroke-width="2.0"/>
  <line x1="74.6" y1="147.0" x2="74.6" y2="133.0" stroke="rgb(0,0,0)" stroke-width="2.0"/>
  <line x1="84.4" y1="110.9" x2="96.5" y2="103.9" stroke="rgb(0,0,0)" stroke-width="2.0"/>
  <line x1="87.4" y1="116.1" x2="99.5" y2="109.1" stroke="rgb(0,0,0)" stroke-width="2.0"/>
  <line x1="63.4" y1="113.5" x2="51.3" y2="106.5" stroke="rgb(0,0,0)" stroke-width="2.0"/>
  <line x1="143.9" y1="160.0" x2="167.3" y2="173.5" stroke="rgb(0,0,0)" stroke-width="2.0"/>
  <line x1="189.8" y1="173.5" x2="201.9" y2="166.5" stroke="rgb(0,0,0)" stroke-width="2.0"/>
  <line x1="226.0" y1="163.9" x2="238.1" y2="170.9" stroke="rgb(0,0,0)" stroke-width="2.0"/>
  <line x1="223.0" y1="169.1" x2="235.1" y2="176.1" stroke="rgb(0,0,0)" stroke-width="2.0"/>
  <line x1="213.2" y1="147.0" x2="213.2" y2="133.0" stroke="rgb(0,0,0)" stroke-width="2.0"/>
  <line x1="143.9" y1="120.0" x2="167.3" y2="106.5" stroke="rgb(0,0,0)" stroke-width="2.0"/>
  <line x1="178.6" y1="87.0" x2="178.6" y2="73.0" stroke="rgb(0,0,0)" stroke-width="2.0"/>
  <line x1="188.3" y1="50.9" x2="200.4" y2="43.9" stroke="rgb(0,0,0)" stroke-width="2.0"/>
  <line x1="191.3" y1="56.1" x2="203.4" y2="49.1" stroke="rgb(0,0,0)" stroke-width="2.0"/>
  <line x1="167.3" y1="53.5" x2="155.2" y2="46.5" stroke="rgb(0,0,0)" stroke-width="2.0"/>
  <text x="68.641016" y="168.000000" fill="rgb(255,12,12)" stroke="rgb(255,12,12)" stroke-width="1" font-size="16">O</text>
  <text x="79.441016" y="115.968000" fill="rgb(12,12,255)" stroke="rgb(12,12,255)" stroke-width="1" font-size="16">+</text>
  <text x="68.641016" y="128.000000" fill="rgb(12,12,255)" stroke="rgb(12,12,255)" stroke-width="1" font-size="16">N</text>
  <text x="103.282032" y="108.000000" fill="rgb(255,12,12)" stroke="rgb(255,12,12)" stroke-width="1" font-size="16">O</text>
  <text x="44.800000" y="85.888000" fill="rgb(255,12,12)" stroke="rgb(255,12,12)" stroke-width="1" font-size="16">_</text>
  <text x="34.000000" y="108.000000" fill="rgb(255,12,12)" stroke="rgb(255,12,12)" stroke-width="1" font-size="16">O</text>
  <text x="172.564065" y="188.000000" fill="rgb(255,12,12)" stroke="rgb(255,12,12)" stroke-width="1" font-size="16">O</text>
  <text x="218.005081" y="155.968000" fill="rgb(12,12,255)" stroke="rgb(12,12,255)" stroke-width="1" font-size="16">+</text>
  <text x="207.205081" y="168.000000" fill="rgb(12,12,255)" stroke="rgb(12,12,255)" stroke-width="1" font-size="16">N</text>
  <text x="241.846097" y="188.000000" fill="rgb(255,12,12)" stroke="rgb(255,12,12)" stroke-width="1" font-size="16">O</text>
  <text x="218.005081" y="105.888000" fill="rgb(255,12,12)" stroke="rgb(255,12,12)" stroke-width="1" font-size="16">_</text>
  <text x="207.205081" y="128.000000" fill="rgb(255,12,12)" stroke="rgb(255,12,12)" stroke-width="1" font-size="16">O</text>
  <text x="172.564065" y="108.000000" fill="rgb(255,12,12)" stroke="rgb(255,12,12)" stroke-width="1" font-size="16">O</text>
  <text x="183.364065" y="55.968000" fill="rgb(12,12,255)" stroke="rgb(12,12,255)" stroke-width="1" font-size="16">+</text>
  <text x="172.564065" y="68.000000" fill="rgb(12,12,255)" stroke="rgb(12,12,255)" stroke-width="1" font-size="16">N</text>
  <text x="207.205081" y="48.000000" fill="rgb(255,12,12)" stroke="rgb(255,12,12)" stroke-width="1" font-size="16">O</text>
  <text x="148.723048" y="25.888000" fill="rgb(255,12,12)" stroke="rgb(255,12,12)" stroke-width="1" font-size="16">_</text>
  <text x="137.923048" y="48.000000" fill="rgb(255,12,12)" stroke="rgb(255,12,12)" stroke-width="1" font-size="16">O</text>
  <text font-size="18.000000" fill="black" font-family="sans-serif" x="10.000000" y="20.000000"></text>
</svg>
