<?xml version="1.0"?>
<svg
  xmlns="http://www.w3.org/2000/svg"
  xmlns:xlink="http://www.w3.org/1999/xlink"
  xmlns:cml="http://www.xml-cml.org/schema"
  width="218.564"
  height="140"
  x="0"
  y="0"
  viewBox="0 0 218.564 140"
  font-family="sans-serif"
  stroke-width="1"
  stroke-linecap="round">
  <line x1="146.9" y1="73.0" x2="146.9" y2="87.0" stroke-width="2.0"/>
  <line x1="140.9" y1="73.0" x2="140.9" y2="87.0" stroke-width="2.0"/>
  <line x1="153.7" y1="50.9" x2="165.8" y2="43.9" stroke-width="2.0"/>
  <line x1="156.7" y1="56.1" x2="168.8" y2="49.1" stroke-width="2.0"/>
  <line x1="132.7" y1="53.5" x2="120.5" y2="46.5" stroke-width="2.0"/>
  <line x1="98.0" y1="46.5" x2="85.9" y2="53.5" stroke-width="2.0"/>
  <line x1="62.9" y1="56.1" x2="49.8" y2="49.1" stroke-width="2.0"/>
  <line x1="64.9" y1="50.9" x2="52.8" y2="43.9" stroke-width="2.0"/>
  <line x1="77.6" y1="73.0" x2="77.6" y2="87.0" stroke-width="2.0"/>
  <line x1="72.6" y1="73.0" x2="72.6" y2="87.0" stroke-width="2.0"/>
  <text x="137.923048" y="68.000000" fill="rgb(255,127,0)" stroke="rgb(255,127,0)" stroke-width="1" font-size="16">P</text>
  <text x="137.923048" y="108.000000" fill="rgb(178,178,0)" stroke="rgb(178,178,0)" stroke-width="1" font-size="16">S</text>
  <text x="172.564065" y="48.000000" fill="rgb(178,178,0)" stroke="rgb(178,178,0)" stroke-width="1" font-size="16">S</text>
  <text x="103.282032" y="48.000000" fill="rgb(178,178,0)" stroke="rgb(178,178,0)" stroke-width="1" font-size="16">S</text>
  <text x="68.641016" y="68.000000" fill="rgb(255,127,0)" stroke="rgb(255,127,0)" stroke-width="1" font-size="16">P</text>
  <text x="34.000000" y="48.000000" fill="rgb(178,178,0)" stroke="rgb(178,178,0)" stroke-width="1" font-size="16">S</text>
  <text x="68.641016" y="108.000000" fill="rgb(178,178,0)" stroke="rgb(178,178,0)" stroke-width="1" font-size="16">S</text>
  <text font-size="18.000000" fill="black" font-family="sans-serif" x="10.000000" y="20.000000"></text>
</svg>
