<?xml version="1.0"?>
<svg
  xmlns="http://www.w3.org/2000/svg"
  xmlns:xlink="http://www.w3.org/1999/xlink"
  xmlns:cml="http://www.xml-cml.org/schema"
  width="322.487"
  height="180"
  x="0"
  y="0"
  viewBox="0 0 322.487 180"
  font-family="sans-serif"

  stroke-width="1"
  stroke-linecap="round">
  <line x1="178.6" y1="80.0" x2="143.9" y2="100.0"  stroke-width="2.0"/>
  <line x1="143.9" y1="100.0" x2="120.5" y2="86.5"  stroke-width="2.0"/>
  <line x1="98.0" y1="86.5" x2="85.9" y2="93.5"  stroke-width="2.0"/>
  <line x1="61.9" y1="96.1" x2="49.8" y2="89.1"  stroke-width="2.0"/>
  <line x1="64.9" y1="90.9" x2="52.8" y2="83.9"  stroke-width="2.0"/>
  <line x1="74.6" y1="113.0" x2="74.6" y2="127.0"  stroke-width="2.0"/>
  <line x1="178.6" y1="80.0" x2="201.9" y2="93.5"  stroke-width="2.0"/>
  <line x1="224.5" y1="93.5" x2="236.6" y2="86.5"  stroke-width="2.0"/>
  <line x1="260.6" y1="83.9" x2="272.7" y2="90.9"  stroke-width="2.0"/>
  <line x1="257.6" y1="89.1" x2="269.7" y2="96.1"  stroke-width="2.0"/>
  <line x1="247.8" y1="67.0" x2="247.8" y2="53.0"  stroke-width="2.0"/>
  <text x="103.282032" y="88.000000" fill="rgb(255,12,12)" stroke="rgb(255,12,12)" stroke-width="1" font-size="16">O</text>
  <text x="79.441016" y="95.968000" fill="rgb(12,12,255)" stroke="rgb(12,12,255)" stroke-width="1" font-size="16">+</text>
  <text x="68.641016" y="108.000000" fill="rgb(12,12,255)" stroke="rgb(12,12,255)" stroke-width="1" font-size="16">N</text>
  <text x="34.000000" y="88.000000" fill="rgb(255,12,12)" stroke="rgb(255,12,12)" stroke-width="1" font-size="16">O</text>
  <text x="79.441016" y="125.888000" fill="rgb(255,12,12)" stroke="rgb(255,12,12)" stroke-width="1" font-size="16">_</text>
  <text x="68.641016" y="148.000000" fill="rgb(255,12,12)" stroke="rgb(255,12,12)" stroke-width="1" font-size="16">O</text>
  <text x="207.205081" y="108.000000" fill="rgb(255,12,12)" stroke="rgb(255,12,12)" stroke-width="1" font-size="16">O</text>
  <text x="252.646097" y="75.968000" fill="rgb(12,12,255)" stroke="rgb(12,12,255)" stroke-width="1" font-size="16">+</text>
  <text x="241.846097" y="88.000000" fill="rgb(12,12,255)" stroke="rgb(12,12,255)" stroke-width="1" font-size="16">N</text>
  <text x="276.487113" y="108.000000" fill="rgb(255,12,12)" stroke="rgb(255,12,12)" stroke-width="1" font-size="16">O</text>
  <text x="252.646097" y="25.888000" fill="rgb(255,12,12)" stroke="rgb(255,12,12)" stroke-width="1" font-size="16">_</text>
  <text x="241.846097" y="48.000000" fill="rgb(255,12,12)" stroke="rgb(255,12,12)" stroke-width="1" font-size="16">O</text>
  <text font-size="18.000000" fill="black" font-family="sans-serif" x="10.000000" y="20.000000"></text>
</svg>
