<?xml version="1.0"?>
<svg
  xmlns="http://www.w3.org/2000/svg"
  xmlns:xlink="http://www.w3.org/1999/xlink"
  xmlns:cml="http://www.xml-cml.org/schema"
  viewBox="0 0 287.846 260"
  width="287.846"
  height="260"
  x="0"
  y="0"
  font-family="sans-serif"
  stroke-width="1"
  stroke-linecap="round">
  <line x1="143.9" y1="207.0" x2="143.9" y2="180.0" stroke="rgb(0,0,0)" stroke-width="2"/>
  <line x1="178.6" y1="160.0" x2="201.9" y2="173.5" stroke="rgb(0,0,0)" stroke-width="2"/>
  <line x1="213.2" y1="193.0" x2="213.2" y2="207.0" stroke="rgb(0,0,0)" stroke-width="2"/>
  <line x1="223.0" y1="170.9" x2="235.1" y2="163.9" stroke="rgb(0,0,0)" stroke-width="2"/>
  <line x1="226.0" y1="176.1" x2="238.1" y2="169.1" stroke="rgb(0,0,0)" stroke-width="2"/>
  <line x1="143.9" y1="100.0" x2="143.9" y2="73.0" stroke="rgb(0,0,0)" stroke-width="2"/>
  <line x1="155.2" y1="53.5" x2="167.3" y2="46.5" stroke="rgb(0,0,0)" stroke-width="2"/>
  <line x1="131.2" y1="56.1" x2="119.0" y2="49.1" stroke="rgb(0,0,0)" stroke-width="2"/>
  <line x1="134.2" y1="50.9" x2="122.0" y2="43.9" stroke="rgb(0,0,0)" stroke-width="2"/>
  <line x1="109.3" y1="160.0" x2="85.9" y2="173.5" stroke="rgb(0,0,0)" stroke-width="2"/>
  <line x1="63.4" y1="173.5" x2="51.3" y2="166.5" stroke="rgb(0,0,0)" stroke-width="2"/>
  <line x1="77.6" y1="193.0" x2="77.6" y2="207.0" stroke="rgb(0,0,0)" stroke-width="2"/>
  <line x1="71.6" y1="193.0" x2="71.6" y2="207.0" stroke="rgb(0,0,0)" stroke-width="2"/>
  <line x1="143.9" y1="180.0" x2="109.3" y2="160.0" stroke="rgb(0,0,0)" stroke-width="2"/>
  <line x1="142.3" y1="170.8" x2="118.1" y2="156.8" stroke="rgb(0,0,0)" stroke-width="2"/>
  <line x1="109.3" y1="160.0" x2="109.3" y2="120.0" stroke="rgb(0,0,0)" stroke-width="2"/>
  <line x1="109.3" y1="120.0" x2="143.9" y2="100.0" stroke="rgb(0,0,0)" stroke-width="2"/>
  <line x1="118.1" y1="123.2" x2="142.3" y2="109.2" stroke="rgb(0,0,0)" stroke-width="2"/>
  <line x1="143.9" y1="100.0" x2="178.6" y2="120.0" stroke="rgb(0,0,0)" stroke-width="2"/>
  <line x1="178.6" y1="120.0" x2="178.6" y2="160.0" stroke="rgb(0,0,0)" stroke-width="2"/>
  <line x1="171.4" y1="126.0" x2="171.4" y2="154.0" stroke="rgb(0,0,0)" stroke-width="2"/>
  <line x1="178.6" y1="160.0" x2="143.9" y2="180.0" stroke="rgb(0,0,0)" stroke-width="2"/>
  <text x="137.923048" y="228.000000" fill="rgb(255,12,12)" stroke="rgb(255,12,12)" stroke-width="1" font-size="16">OH</text>
  <text x="218.005081" y="175.968000" fill="rgb(12,12,255)" stroke="rgb(12,12,255)" stroke-width="1" font-size="16">+</text>
  <text x="207.205081" y="188.000000" fill="rgb(12,12,255)" stroke="rgb(12,12,255)" stroke-width="1" font-size="16">N</text>
  <text x="218.005081" y="205.888000" fill="rgb(255,12,12)" stroke="rgb(255,12,12)" stroke-width="1" font-size="16">_</text>
  <text x="207.205081" y="228.000000" fill="rgb(255,12,12)" stroke="rgb(255,12,12)" stroke-width="1" font-size="16">O</text>
  <text x="241.846097" y="168.000000" fill="rgb(255,12,12)" stroke="rgb(255,12,12)" stroke-width="1" font-size="16">O</text>
  <text x="148.723048" y="55.968000" fill="rgb(12,12,255)" stroke="rgb(12,12,255)" stroke-width="1" font-size="16">+</text>
  <text x="137.923048" y="68.000000" fill="rgb(12,12,255)" stroke="rgb(12,12,255)" stroke-width="1" font-size="16">N</text>
  <text x="183.364065" y="25.888000" fill="rgb(255,12,12)" stroke="rgb(255,12,12)" stroke-width="1" font-size="16">_</text>
  <text x="172.564065" y="48.000000" fill="rgb(255,12,12)" stroke="rgb(255,12,12)" stroke-width="1" font-size="16">O</text>
  <text x="103.282032" y="48.000000" fill="rgb(255,12,12)" stroke="rgb(255,12,12)" stroke-width="1" font-size="16">O</text>
  <text x="79.441016" y="175.968000" fill="rgb(12,12,255)" stroke="rgb(12,12,255)" stroke-width="1" font-size="16">+</text>
  <text x="68.641016" y="188.000000" fill="rgb(12,12,255)" stroke="rgb(12,12,255)" stroke-width="1" font-size="16">N</text>
  <text x="44.800000" y="145.888000" fill="rgb(255,12,12)" stroke="rgb(255,12,12)" stroke-width="1" font-size="16">_</text>
  <text x="34.000000" y="168.000000" fill="rgb(255,12,12)" stroke="rgb(255,12,12)" stroke-width="1" font-size="16">O</text>
  <text x="68.641016" y="228.000000" fill="rgb(255,12,12)" stroke="rgb(255,12,12)" stroke-width="1" font-size="16">O</text>
  <text font-size="18.000000" fill="black" font-family="sans-serif" x="10.000000" y="20.000000"></text>
</svg>
