<?xml version="1.0"?>
<svg
  xmlns="http://www.w3.org/2000/svg"
  xmlns:xlink="http://www.w3.org/1999/xlink"
  xmlns:cml="http://www.xml-cml.org/schema"
  width="287.846"
  height="260"
  x="0"
  y="0"
  viewBox="0 0 287.846 260"
  font-family="sans-serif"
  stroke-width="1"
  stroke-linecap="round">
  <line x1="247.8" y1="127.0" x2="247.8" y2="100.0" stroke="rgb(0,0,0)" stroke-width="2.0"/>
  <line x1="247.8" y1="100.0" x2="213.2" y2="80.0" stroke="rgb(0,0,0)" stroke-width="2.0"/>
  <line x1="213.2" y1="80.0" x2="213.2" y2="53.0" stroke="rgb(0,0,0)" stroke-width="2.0"/>
  <line x1="213.2" y1="80.0" x2="178.6" y2="100.0" stroke="rgb(0,0,0)" stroke-width="2.0"/>
  <line x1="143.9" y1="80.0" x2="143.9" y2="53.0" stroke="rgb(0,0,0)" stroke-width="2.0"/>
  <line x1="109.3" y1="100.0" x2="85.9" y2="86.5" stroke="rgb(0,0,0)" stroke-width="2.0"/>
  <line x1="71.6" y1="67.0" x2="71.6" y2="53.0" stroke="rgb(0,0,0)" stroke-width="2.0"/>
  <line x1="77.6" y1="67.0" x2="77.6" y2="53.0" stroke="rgb(0,0,0)" stroke-width="2.0"/>
  <line x1="63.4" y1="86.5" x2="51.3" y2="93.5" stroke="rgb(0,0,0)" stroke-width="2.0"/>
  <line x1="143.9" y1="160.0" x2="143.9" y2="187.0" stroke="rgb(0,0,0)" stroke-width="2.0"/>
  <line x1="134.2" y1="209.1" x2="122.0" y2="216.1" stroke="rgb(0,0,0)" stroke-width="2.0"/>
  <line x1="131.2" y1="203.9" x2="119.0" y2="210.9" stroke="rgb(0,0,0)" stroke-width="2.0"/>
  <line x1="155.2" y1="206.5" x2="167.3" y2="213.5" stroke="rgb(0,0,0)" stroke-width="2.0"/>
  <line x1="178.6" y1="100.0" x2="178.6" y2="140.0" stroke="rgb(0,0,0)" stroke-width="2.0"/>
  <line x1="171.4" y1="106.0" x2="171.4" y2="134.0" stroke="rgb(0,0,0)" stroke-width="2.0"/>
  <line x1="178.6" y1="140.0" x2="143.9" y2="160.0" stroke="rgb(0,0,0)" stroke-width="2.0"/>
  <line x1="143.9" y1="160.0" x2="109.3" y2="140.0" stroke="rgb(0,0,0)" stroke-width="2.0"/>
  <line x1="142.3" y1="150.8" x2="118.1" y2="136.8" stroke="rgb(0,0,0)" stroke-width="2.0"/>
  <line x1="109.3" y1="140.0" x2="109.3" y2="100.0" stroke="rgb(0,0,0)" stroke-width="2.0"/>
  <line x1="109.3" y1="100.0" x2="143.9" y2="80.0" stroke="rgb(0,0,0)" stroke-width="2.0"/>
  <line x1="118.1" y1="103.2" x2="142.3" y2="89.2" stroke="rgb(0,0,0)" stroke-width="2.0"/>
  <line x1="143.9" y1="80.0" x2="178.6" y2="100.0" stroke="rgb(0,0,0)" stroke-width="2.0"/>
  <text x="243.846097" y="148.000000" fill="rgb(102,102,102)" stroke="rgb(102,102,102)" stroke-width="1" font-size="16">CH</text>
  <text x="267.846097" y="151.680000" fill="rgb(102,102,102)" stroke="rgb(102,102,102)" stroke-width="1" font-size="13">3</text>
  <text x="209.205081" y="48.000000" fill="rgb(102,102,102)" stroke="rgb(102,102,102)" stroke-width="1" font-size="16">CH</text>
  <text x="233.205081" y="51.680000" fill="rgb(102,102,102)" stroke="rgb(102,102,102)" stroke-width="1" font-size="13">3</text>
  <text x="137.923048" y="48.000000" fill="rgb(255,12,12)" stroke="rgb(255,12,12)" stroke-width="1" font-size="16">OH</text>
  <text x="79.441016" y="75.968000" fill="rgb(12,12,255)" stroke="rgb(12,12,255)" stroke-width="1" font-size="16">+</text>
  <text x="68.641016" y="88.000000" fill="rgb(12,12,255)" stroke="rgb(12,12,255)" stroke-width="1" font-size="16">N</text>
  <text x="68.641016" y="48.000000" fill="rgb(255,12,12)" stroke="rgb(255,12,12)" stroke-width="1" font-size="16">O</text>
  <text x="44.800000" y="85.888000" fill="rgb(255,12,12)" stroke="rgb(255,12,12)" stroke-width="1" font-size="16">_</text>
  <text x="34.000000" y="108.000000" fill="rgb(255,12,12)" stroke="rgb(255,12,12)" stroke-width="1" font-size="16">O</text>
  <text x="148.723048" y="195.968000" fill="rgb(12,12,255)" stroke="rgb(12,12,255)" stroke-width="1" font-size="16">+</text>
  <text x="137.923048" y="208.000000" fill="rgb(12,12,255)" stroke="rgb(12,12,255)" stroke-width="1" font-size="16">N</text>
  <text x="103.282032" y="228.000000" fill="rgb(255,12,12)" stroke="rgb(255,12,12)" stroke-width="1" font-size="16">O</text>
  <text x="183.364065" y="205.888000" fill="rgb(255,12,12)" stroke="rgb(255,12,12)" stroke-width="1" font-size="16">_</text>
  <text x="172.564065" y="228.000000" fill="rgb(255,12,12)" stroke="rgb(255,12,12)" stroke-width="1" font-size="16">O</text>
  <text font-size="18.000000" fill="black" font-family="sans-serif" x="10.000000" y="20.000000"></text>
</svg>
