<?xml version="1.0" standalone="no"?>
<!DOCTYPE svg PUBLIC "-//W3C//DTD SVG 20010904//EN"
 "http://www.w3.org/TR/2001/REC-SVG-20010904/DTD/svg10.dtd">
<svg version="1.0" xmlns="http://www.w3.org/2000/svg"
 width="418.000000pt" height="482.000000pt" viewBox="0 0 418.000000 482.000000"
 preserveAspectRatio="xMidYMid meet">
<metadata>
Created by potrace 1.13, written by Peter Selinger 2001-2015
</metadata>
<g transform="translate(0.000000,482.000000) scale(0.100000,-0.100000)"
 stroke="none">
<path d="M877 4633 c-4 -3 -7 -17 -7 -30 0 -19 -5 -23 -30 -23 -27 0 -43 -6
-90 -31 -8 -5 -29 -15 -45 -22 -58 -27 -158 -166 -155 -216 5 -66 2 -71 -36
-71 -45 0 -42 -24 4 -28 29 -3 32 -7 32 -36 0 -29 33 -113 49 -126 4 -3 31
-33 60 -67 46 -54 55 -70 59 -112 7 -75 -3 -101 -36 -101 -38 0 -52 -17 -52
-63 0 -67 11 -77 90 -77 68 0 68 0 75 -31 6 -24 3 -34 -13 -45 -24 -16 -52
-69 -52 -95 0 -12 -9 -19 -27 -21 -16 -2 -28 -7 -28 -13 0 -5 12 -11 28 -13
19 -2 27 -9 27 -23 0 -26 93 -119 118 -119 13 0 22 -9 27 -27 6 -25 8 -26 17
-10 9 18 11 17 34 -4 22 -21 24 -30 24 -115 0 -51 -4 -96 -10 -99 -5 -3 -10
-16 -10 -28 0 -12 -18 -60 -41 -107 -23 -47 -56 -114 -73 -150 -17 -36 -34
-66 -38 -68 -5 -2 -8 -10 -8 -18 0 -8 -4 -22 -9 -32 -5 -9 -24 -48 -42 -87
-19 -38 -37 -71 -41 -73 -5 -2 -8 -11 -8 -20 0 -9 -9 -28 -20 -42 -11 -14 -20
-31 -20 -37 0 -7 -4 -13 -10 -13 -5 0 -10 -7 -10 -15 0 -8 -4 -15 -10 -15 -5
0 -10 -5 -10 -11 0 -14 -101 -118 -114 -119 -6 0 -23 -12 -38 -27 -24 -23 -28
-34 -28 -83 0 -46 4 -61 23 -78 13 -12 33 -22 45 -22 11 0 24 -4 27 -10 3 -5
28 -10 55 -10 27 0 52 -4 55 -10 3 -5 28 -10 55 -10 27 0 52 -5 55 -10 3 -5
19 -10 36 -10 16 0 29 -5 29 -11 0 -27 -157 -235 -168 -224 -3 3 0 11 6 17 14
14 16 38 3 38 -4 0 -24 -24 -44 -52 -20 -29 -54 -78 -76 -108 -38 -53 -50 -80
-33 -80 12 0 222 161 222 171 0 16 -17 10 -50 -17 -53 -45 -43 -20 17 42 32
33 80 94 108 136 l49 76 61 -5 c33 -3 64 -9 70 -14 5 -5 33 -9 62 -9 29 0 53
-4 53 -10 0 -6 51 -10 134 -10 131 0 134 -1 160 -26 24 -25 26 -33 26 -115 l0
-89 -210 0 c-202 0 -211 -1 -252 -24 -23 -13 -47 -32 -53 -42 -5 -11 -18 -31
-27 -46 -24 -35 -23 -89 3 -135 54 -98 71 -103 330 -103 l209 0 0 -55 c0 -30
-5 -67 -11 -82 -7 -15 -17 -41 -24 -58 -7 -16 -21 -55 -31 -85 -10 -30 -22
-59 -26 -65 -4 -5 -8 -15 -8 -23 0 -38 -23 -43 -212 -40 -182 3 -183 3 -183
25 0 31 -19 29 -23 -2 l-3 -25 -113 0 c-152 0 -146 7 -146 -188 0 -139 2 -152
19 -162 11 -5 69 -10 130 -10 l111 0 0 -26 c0 -33 24 -27 28 7 l3 24 297 -2
c163 -2 377 -3 474 -3 l178 0 2 -167 c2 -120 6 -167 15 -170 10 -4 13 36 15
164 l3 168 125 0 125 0 3 -78 c2 -56 6 -77 15 -74 8 2 12 29 12 78 l0 74 510
5 c281 3 558 4 618 2 106 -3 107 -3 107 -27 0 -32 27 -33 32 -2 3 21 7 22 117
25 68 2 120 7 129 14 21 18 14 325 -8 338 -8 5 -66 10 -127 10 l-113 0 0 30
c0 20 -5 30 -15 30 -10 0 -15 -10 -15 -30 l0 -30 -183 0 c-165 0 -186 2 -200
18 -10 10 -17 24 -17 30 0 7 -5 22 -12 35 -24 47 -28 57 -28 72 0 8 -8 34 -19
58 -37 86 -41 99 -41 147 l0 50 123 1 c67 1 156 0 198 -1 93 -2 149 14 185 51
32 33 25 52 -9 23 -30 -26 -64 -44 -82 -44 -12 0 -15 14 -15 64 0 61 1 64 26
69 15 2 44 2 65 0 33 -5 39 -9 39 -29 0 -13 4 -24 9 -24 27 0 29 108 2 141
-25 31 -34 21 -19 -19 7 -17 9 -34 6 -37 -7 -8 -115 -11 -122 -5 -5 6 -9 53
-7 98 1 38 24 43 64 12 14 -11 30 -20 36 -20 22 0 10 18 -30 44 -38 25 -48 27
-132 26 -51 -1 -147 -1 -214 -1 l-123 1 0 70 c0 69 11 109 38 143 13 14 33 17
137 17 66 0 125 4 130 9 6 5 35 12 65 15 136 14 166 18 174 27 6 5 29 9 53 9
37 0 45 -4 53 -24 5 -14 34 -54 65 -91 31 -37 54 -69 51 -72 -3 -3 -12 2 -21
11 -15 14 -45 22 -45 12 0 -10 204 -166 217 -166 16 0 17 -1 -49 97 -26 40
-48 76 -48 80 0 4 -9 19 -20 33 -23 30 -38 19 -20 -15 27 -50 3 -33 -45 33
-49 65 -75 106 -75 117 0 3 24 5 54 5 30 0 58 5 61 10 3 6 30 10 60 10 30 0
57 5 60 10 3 6 16 10 29 10 40 0 56 30 56 102 0 71 -6 80 -87 132 -41 28 -105
106 -155 194 -27 46 -54 100 -108 217 -44 94 -97 208 -134 288 -19 39 -37 86
-41 102 -14 57 -17 157 -6 168 6 6 11 21 11 33 0 29 25 51 34 29 8 -21 26 -10
26 16 0 13 7 19 24 19 29 0 116 82 116 110 0 11 12 22 31 29 28 10 33 31 7 31
-14 0 -37 31 -38 50 0 8 -15 30 -34 50 -27 27 -33 41 -29 62 5 26 7 27 82 30
l76 3 3 63 c3 66 4 64 -50 76 -27 6 -28 9 -28 66 0 69 7 85 71 157 52 58 87
123 96 177 5 30 9 35 37 38 37 4 38 22 1 26 -15 2 -29 10 -32 18 -3 8 -11 14
-19 14 -7 0 -11 -6 -8 -14 4 -9 -5 -15 -28 -19 -44 -7 -84 13 -81 40 1 12 -4
26 -12 33 -7 6 -12 17 -9 24 3 7 -18 34 -47 60 -39 35 -59 46 -84 46 -18 0
-38 7 -45 15 -12 14 -15 14 -30 0 -9 -8 -28 -15 -43 -15 -27 0 -117 -75 -117
-98 0 -21 15 -13 55 28 23 23 49 40 61 40 13 0 26 5 29 10 5 8 11 8 20 0 7 -6
17 -10 21 -9 44 8 83 -4 117 -35 41 -37 70 -96 61 -120 -7 -19 -8 -19 -98 -17
-52 2 -67 -1 -64 -11 4 -9 27 -13 79 -13 67 0 74 -2 76 -20 3 -20 -60 -115
-76 -115 -5 0 -11 9 -14 20 -4 16 -14 20 -49 21 -81 2 -103 -2 -121 -24 l-17
-22 -34 38 c-34 38 -53 83 -41 96 4 3 40 6 80 6 l74 0 3 -30 c2 -16 8 -29 13
-28 6 2 11 50 13 113 2 93 0 110 -13 110 -12 0 -15 -14 -15 -70 l0 -70 -52 -2
c-76 -2 -113 1 -116 12 -5 12 -32 13 -32 1 0 -10 -56 -20 -80 -14 -13 3 -15
15 -12 55 2 39 12 64 41 107 46 67 117 131 146 131 12 0 25 4 31 9 5 5 22 11
39 13 26 3 30 -1 35 -27 7 -38 23 -38 30 1 5 26 9 29 40 26 19 -2 39 -8 44
-13 6 -5 18 -9 29 -9 43 0 177 -147 177 -194 0 -25 12 -46 26 -46 54 0 -87
220 -151 236 -14 3 -25 9 -25 14 0 12 -78 43 -94 37 -27 -11 -46 4 -46 34 0
42 -28 38 -32 -3 -3 -30 -6 -33 -35 -30 -17 2 -34 -2 -38 -7 -3 -6 -14 -11
-24 -11 -10 0 -26 -9 -36 -20 -10 -11 -23 -20 -29 -20 -14 0 -66 -44 -80 -68
-6 -10 -26 -41 -44 -68 -26 -38 -32 -56 -28 -81 5 -37 -13 -63 -46 -63 -29 0
-16 -24 15 -28 21 -3 27 -9 27 -28 0 -32 26 -94 39 -94 14 0 14 13 0 27 -5 5
-9 30 -7 54 3 49 15 56 74 44 28 -5 34 -10 34 -32 0 -16 17 -47 46 -81 38 -46
42 -57 30 -64 -9 -5 -16 -19 -16 -32 0 -12 -6 -30 -13 -40 -13 -17 -18 -13
-73 48 -32 36 -62 66 -66 66 -19 0 -4 -24 52 -83 84 -91 98 -135 60 -202 -22
-39 -18 -44 35 -48 15 -1 30 4 32 11 3 7 -4 12 -17 12 -19 0 -21 4 -16 28 4
15 8 54 10 87 3 81 22 124 54 122 14 -1 27 4 29 11 3 6 -2 12 -11 12 -8 0 -18
5 -21 10 -4 6 8 10 28 10 l34 0 2 -107 c2 -98 10 -139 24 -116 3 4 7 56 9 115
l3 108 33 0 c17 0 32 -5 32 -10 0 -6 -6 -10 -14 -8 -8 2 -15 0 -15 -4 -2 -25
1 -29 22 -28 41 4 44 0 51 -47 14 -89 22 -174 17 -179 -2 -2 -31 -4 -64 -4
-44 0 -63 4 -72 17 -11 15 -13 15 -24 -5 -17 -32 -5 -43 40 -36 l39 7 0 -47
c0 -42 -2 -46 -25 -46 -20 0 -25 5 -25 25 0 16 -6 25 -15 25 -9 0 -15 -9 -15
-25 0 -20 -5 -25 -24 -25 -23 0 -25 5 -28 48 -2 26 -7 46 -13 44 -5 -2 -9 -10
-7 -18 2 -12 -28 -14 -193 -14 -115 0 -195 4 -195 9 0 6 -15 12 -32 14 -22 3
-19 4 11 3 27 -1 46 4 48 12 4 9 -24 12 -119 12 -67 0 -141 5 -163 11 -61 16
-185 42 -265 56 l-45 8 -3 305 c-2 296 -3 305 -24 327 -19 20 -31 23 -101 23
-74 0 -79 1 -74 20 3 10 -1 24 -9 31 -11 9 -14 6 -14 -20 l0 -31 -79 0 c-71 0
-81 -2 -104 -26 l-27 -26 -2 -302 -3 -301 -35 -3 c-19 -2 -39 -8 -45 -13 -5
-5 -28 -9 -51 -9 -24 0 -46 -4 -49 -10 -3 -5 -23 -10 -44 -10 -20 0 -42 -5
-49 -12 -8 -8 -65 -14 -167 -16 -85 -3 -152 -8 -149 -13 3 -5 31 -10 62 -11
40 -1 46 -2 22 -5 -19 -3 -39 -9 -44 -14 -6 -5 -96 -9 -202 -9 -186 0 -192 1
-197 21 -9 35 -27 11 -27 -37 0 -40 -2 -44 -25 -44 -20 0 -25 5 -25 25 0 16
-6 25 -15 25 -9 0 -15 -9 -15 -25 0 -20 -5 -25 -26 -25 -23 0 -25 3 -22 43 l3
42 43 -3 c37 -2 42 0 42 18 0 23 -31 41 -38 22 -2 -8 -28 -12 -69 -12 l-65 0
6 28 c3 15 8 60 10 99 6 96 13 107 70 108 l46 1 0 -81 c0 -74 10 -119 23 -99
3 5 7 57 9 116 l3 108 33 0 c17 0 32 -4 32 -10 0 -5 -7 -10 -15 -10 -8 0 -15
-7 -15 -16 0 -12 6 -15 25 -10 21 5 27 2 36 -21 6 -16 15 -35 19 -44 5 -9 10
-50 11 -90 2 -69 1 -74 -19 -77 -13 -2 -19 -8 -16 -17 4 -9 18 -11 47 -8 52 7
57 11 33 28 -15 11 -18 26 -17 75 1 69 9 85 71 156 52 58 90 126 90 159 0 25
15 41 44 46 30 6 32 29 2 29 -32 0 -51 32 -47 83 1 21 -2 37 -8 37 -6 0 -11 9
-11 20 0 11 -4 20 -10 20 -5 0 -10 6 -10 14 0 12 -25 37 -123 122 -15 13 -36
24 -47 24 -10 0 -22 5 -25 10 -4 6 -23 9 -43 8 -35 -3 -37 -1 -40 30 -3 31
-11 39 -25 25z m90 -88 c129 -42 200 -118 232 -249 6 -27 10 -50 9 -51 -2 -2
-16 -4 -33 -5 -69 -5 -72 -3 -90 55 -13 41 -30 66 -66 100 -26 25 -57 45 -69
45 -11 0 -29 5 -40 12 -14 9 -25 9 -42 1 -13 -6 -31 -14 -40 -17 -36 -11 -17
-25 31 -21 75 5 120 -9 163 -52 20 -21 37 -45 38 -53 0 -9 5 -21 10 -26 19
-19 0 -44 -32 -44 -37 0 -33 -24 5 -28 27 -3 36 -25 17 -37 -5 -3 -10 -14 -10
-24 0 -21 -47 -71 -66 -71 -8 0 -14 7 -14 15 0 13 -7 15 -34 10 -26 -5 -35 -3
-40 11 -6 16 -8 16 -21 -2 -11 -16 -17 -17 -33 -7 -17 10 -23 9 -38 -8 -17
-19 -18 -19 -51 13 -18 17 -33 41 -33 53 0 12 -5 26 -12 33 -15 15 -8 16 81
17 42 0 66 4 68 13 4 9 -13 12 -65 10 -46 -1 -76 3 -86 11 -11 9 -20 10 -28 4
-7 -6 -27 -13 -45 -16 -45 -9 -67 14 -58 62 8 44 27 91 37 91 5 0 8 6 8 13 0
13 63 87 74 87 3 0 15 9 26 20 11 11 31 20 44 20 14 0 28 5 31 10 3 6 21 10
40 10 29 0 34 -4 37 -25 3 -29 22 -35 26 -8 5 27 11 43 16 43 3 0 27 -7 53
-15z m1171 -92 c3 -10 -13 -13 -56 -13 -101 0 -97 17 -97 -386 0 -261 3 -346
13 -355 8 -9 12 -57 12 -166 l0 -153 -25 0 -25 0 0 189 c0 154 -3 191 -15 201
-19 16 -79 9 -225 -24 -63 -15 -196 -43 -295 -62 -100 -20 -188 -43 -197 -52
-13 -11 -18 -30 -18 -74 0 -56 -1 -59 -22 -56 -21 3 -24 10 -28 68 l-5 65 -87
3 c-85 3 -88 3 -88 27 l0 24 208 4 c200 3 325 19 374 47 10 6 33 10 52 10 19
0 37 4 40 8 3 5 21 9 41 10 20 1 41 5 48 9 11 7 30 10 147 30 72 11 70 1 70
338 l0 302 23 11 c30 15 149 11 155 -5z m175 3 c15 -12 17 -39 17 -308 0 -293
0 -295 23 -315 22 -21 53 -30 137 -40 25 -3 50 -9 56 -14 6 -5 26 -9 45 -10
19 -2 39 -6 44 -10 6 -4 28 -9 50 -12 22 -3 81 -15 130 -27 74 -19 127 -23
293 -27 111 -2 202 -8 202 -13 0 -5 3 -15 6 -24 5 -13 -8 -16 -88 -18 l-93 -3
-3 -67 c-3 -60 -5 -68 -22 -68 -17 0 -20 7 -20 53 0 71 -14 87 -91 103 -128
28 -365 76 -409 84 -25 5 -65 14 -90 20 -25 7 -67 15 -93 17 -74 8 -76 2 -77
-215 0 -162 -2 -183 -16 -180 -14 3 -16 25 -16 164 -1 89 3 167 7 174 4 7 10
155 12 329 4 326 2 347 -37 378 -8 7 -39 13 -67 13 -49 0 -69 12 -40 23 26 11
123 6 140 -7z m-181 -61 c4 -5 8 -40 8 -77 0 -91 18 -87 22 5 l3 72 50 6 c28
3 52 4 55 2 9 -8 16 -657 7 -675 -5 -13 -19 -18 -47 -18 -72 0 -70 -4 -70 156
0 194 -19 191 -22 -3 l-3 -148 -49 -3 c-27 -2 -53 1 -58 6 -12 12 -10 662 2
677 11 14 92 14 102 0z m-1456 -196 c8 -6 14 -21 14 -33 0 -13 19 -43 44 -69
38 -39 42 -48 30 -58 -8 -6 -19 -31 -25 -55 l-11 -44 -42 47 c-22 27 -52 60
-66 74 -14 15 -24 31 -22 37 1 5 -2 13 -7 17 -12 7 -15 88 -3 99 9 10 70 0 88
-15z m527 10 c-11 -22 -14 -43 -11 -64 3 -15 0 -26 -9 -30 -8 -3 -13 -10 -11
-16 2 -6 -18 -34 -45 -62 -27 -29 -57 -65 -68 -82 l-19 -30 0 25 c0 14 -9 43
-20 65 -24 47 -25 55 -6 55 16 0 66 60 66 79 0 7 7 25 15 42 15 27 19 29 63
25 26 -2 46 -5 45 -7z m2512 -43 c0 -29 -5 -50 -12 -53 -7 -3 -10 -9 -7 -14 3
-5 -3 -20 -14 -32 -11 -12 -41 -45 -66 -73 -25 -28 -46 -56 -46 -63 0 -6 -4
-11 -9 -11 -5 0 -6 19 -4 43 4 34 0 47 -17 65 l-22 24 29 31 c41 44 73 92 73
110 0 18 22 26 65 24 29 -2 30 -4 30 -51z m-2850 -126 c-3 -5 -15 -10 -25 -10
-10 0 -22 5 -25 10 -4 6 7 10 25 10 18 0 29 -4 25 -10z m-75 -335 l0 -45 -65
0 -65 0 0 33 c0 46 15 57 77 57 l53 0 0 -45z m1142 -152 l3 -198 35 -5 35 -5
3 -542 2 -543 -34 0 c-19 0 -38 -4 -41 -10 -3 -6 -49 -10 -104 -10 -53 0 -101
-4 -107 -9 -5 -5 -34 -12 -64 -15 -149 -14 -165 -19 -168 -48 -3 -27 -6 -28
-60 -28 -52 0 -58 -2 -69 -27 -7 -15 -13 -36 -13 -48 0 -12 -9 -31 -20 -43
-18 -19 -32 -22 -90 -22 -59 0 -72 -3 -82 -20 -10 -15 -24 -20 -60 -20 -26 0
-50 5 -53 10 -3 6 -17 10 -30 10 -13 0 -47 5 -74 11 l-51 11 27 46 c68 119
210 281 267 306 113 48 203 47 331 -4 59 -24 130 -39 139 -30 6 6 2 12 -10 15
-10 4 -27 11 -36 16 -10 5 -27 9 -38 9 -11 0 -28 4 -38 9 -114 58 -240 64
-347 16 -47 -21 -255 -242 -255 -271 0 -3 -13 -25 -30 -49 -16 -24 -30 -48
-30 -54 0 -10 -39 -9 -70 2 -8 3 -57 11 -108 18 -102 14 -152 37 -152 69 0 11
24 44 53 74 97 99 92 89 278 470 16 32 29 65 29 72 0 8 5 14 10 14 6 0 10 6
10 13 0 6 18 50 41 97 70 144 70 144 76 334 4 146 12 173 57 199 15 9 134 13
420 17 307 4 400 8 404 18 3 9 -77 12 -377 12 l-381 0 0 25 0 25 381 0 c300 0
380 3 377 13 -4 9 -83 13 -341 15 l-337 2 0 54 c0 52 0 53 38 64 20 6 48 13
62 16 14 3 93 19 175 36 186 40 230 48 278 56 21 4 39 10 42 14 2 4 25 7 49 8
l46 2 2 -197z m545 181 c32 -8 81 -19 108 -24 28 -5 106 -20 175 -34 69 -15
150 -31 180 -37 30 -6 68 -17 83 -24 26 -11 29 -18 31 -64 l1 -51 -347 -2
-348 -3 0 128 0 127 30 0 c16 0 55 -7 87 -16z m1151 -31 l3 -43 -65 0 -66 0 0
43 0 44 63 -1 62 -1 3 -42z m-1490 -75 l3 -48 -49 0 c-27 0 -51 2 -53 4 -2 3
-3 25 -1 51 l4 46 47 -3 46 -3 3 -47z m123 4 c3 -23 3 -44 1 -47 -3 -3 -29 -5
-58 -5 l-52 0 5 43 c7 50 16 58 63 55 33 -3 35 -5 41 -46z m-1389 -8 c3 -3 4
-14 1 -25 -4 -13 -14 -19 -35 -19 -23 0 -29 4 -24 16 3 9 6 20 6 25 0 10 43
13 52 3z m78 -8 c0 -18 -27 -39 -40 -31 -5 3 -10 15 -10 26 0 14 7 19 25 19
15 0 25 -6 25 -14z m2440 -5 c0 -27 -17 -35 -36 -17 -18 19 -10 36 17 36 12 0
19 -7 19 -19z m80 10 c0 -5 3 -16 6 -25 5 -13 -1 -16 -25 -16 -26 0 -31 4 -31
25 0 20 5 25 25 25 14 0 25 -4 25 -9z m-2430 -29 c0 -27 20 -42 57 -42 l33 0
0 -64 c0 -65 -14 -94 -32 -62 -7 12 -23 16 -63 16 l-55 0 0 85 0 85 30 0 c22
0 30 -5 30 -18z m88 6 c-7 -19 -45 -21 -51 -4 -5 12 1 16 24 16 20 0 29 -4 27
-12z m2090 -4 c-10 -10 -23 -14 -37 -9 -34 10 -24 25 16 25 34 0 36 -1 21 -16z
m97 -7 c6 -12 8 -49 5 -82 l-5 -60 -54 -5 c-79 -7 -80 -30 -2 -30 56 0 61 -2
78 -30 9 -17 25 -33 35 -36 26 -8 22 -40 -10 -82 -37 -48 -52 -96 -52 -162 0
-80 16 -120 179 -460 23 -47 41 -93 41 -101 0 -8 4 -19 9 -24 5 -6 23 -35 39
-65 64 -119 76 -140 84 -140 4 0 8 -6 8 -13 0 -15 106 -127 120 -127 16 0 60
-42 60 -57 0 -20 -12 -16 -50 17 -19 16 -39 29 -43 30 -10 0 -77 67 -77 77 0
4 -12 22 -28 38 -30 33 -72 109 -72 130 0 7 -3 15 -7 17 -5 2 -19 28 -32 58
-13 30 -41 91 -61 135 -45 95 -92 196 -132 285 -17 36 -34 73 -39 82 -5 10 -9
83 -9 162 0 86 -4 147 -10 151 -5 3 -10 15 -10 26 0 27 -43 72 -83 85 -31 10
-32 12 -35 77 l-3 67 32 0 c34 0 69 24 69 47 0 22 44 15 55 -10z m-2440 -46
c3 -5 -8 -16 -25 -24 -28 -14 -30 -14 -30 2 0 10 3 21 7 24 9 10 41 8 48 -2z
m75 -15 c0 -22 -2 -23 -25 -13 -32 15 -32 37 0 37 20 0 25 -5 25 -24z m1310
-621 l0 -645 -50 0 -50 0 0 194 c0 119 -4 197 -10 201 -7 4 -10 -63 -10 -195
l0 -201 -50 3 -50 3 0 555 c0 305 0 594 0 643 l0 87 110 0 110 0 0 -645z
m1130 633 c0 -7 -11 -18 -25 -25 -23 -10 -25 -9 -25 13 0 19 5 24 25 24 14 0
25 -6 25 -12z m80 -12 c0 -22 -2 -23 -25 -13 -32 15 -32 37 0 37 20 0 25 -5
25 -24z m-2680 -41 c0 -33 -4 -45 -15 -45 -18 0 -19 27 -2 63 6 15 13 27 15
27 1 0 2 -20 2 -45z m2740 -5 c0 -9 5 -21 12 -28 9 -9 6 -12 -15 -12 -25 0
-27 3 -27 47 0 43 1 45 15 27 8 -10 15 -26 15 -34z m-2592 -2 c6 -6 12 -17 12
-26 0 -11 -8 -13 -36 -9 -20 4 -46 1 -56 -4 -28 -15 -44 2 -27 29 10 16 23 21
53 20 23 0 47 -5 54 -10z m2520 0 c28 -24 12 -36 -48 -35 -65 0 -65 0 -50 27
11 20 76 26 98 8z m-328 -33 l0 -25 -377 -2 c-244 -2 -378 -7 -378 -13 0 -6
143 -12 400 -15 220 -3 409 -9 420 -14 35 -16 55 -38 55 -62 0 -13 5 -26 10
-29 6 -4 10 -65 10 -151 0 -79 4 -152 9 -162 5 -9 22 -46 39 -82 16 -36 46
-100 66 -142 20 -43 52 -113 72 -155 69 -148 92 -198 108 -235 20 -46 92 -141
145 -193 53 -51 56 -88 9 -108 -18 -8 -75 -21 -127 -29 l-94 -15 -26 44 c-46
78 -142 203 -188 242 -74 66 -126 86 -217 84 -43 -1 -84 -7 -89 -12 -6 -6 -23
-11 -38 -11 -15 0 -31 -4 -34 -10 -3 -5 -17 -10 -30 -10 -14 0 -40 -9 -60 -20
-20 -11 -48 -20 -64 -20 -30 0 -70 -34 -52 -44 5 -4 12 -2 16 4 3 5 17 10 31
10 13 0 43 9 67 20 103 48 271 78 332 60 59 -18 122 -58 155 -99 91 -111 109
-135 121 -159 7 -15 21 -39 31 -53 22 -33 16 -39 -37 -39 -23 0 -45 -3 -48 -6
-4 -4 -30 -9 -59 -11 -29 -2 -57 -8 -62 -14 -6 -5 -31 -9 -57 -9 -38 0 -48 4
-52 20 -4 18 -14 20 -74 20 -41 0 -76 5 -87 13 -10 7 -25 37 -35 67 l-18 55
-55 3 c-48 3 -55 6 -64 29 -7 21 -17 27 -48 30 -21 2 -47 8 -57 13 -10 6 -40
10 -68 10 -27 0 -53 5 -56 10 -3 6 -52 10 -110 10 -58 0 -107 4 -110 10 -3 6
-18 10 -33 10 l-27 0 2 542 3 543 27 5 c26 5 28 9 31 63 l3 57 384 0 385 0 0
-25z m-2210 -37 l35 5 -19 -22 c-21 -24 -73 -24 -101 -1 -21 17 0 31 29 20 12
-4 37 -5 56 -2z m-105 -30 c18 -18 40 -39 50 -47 27 -22 2 -38 -32 -20 -33 16
-43 27 -60 57 -30 51 -4 57 42 10z m234 -10 l-39 -43 0 -127 c0 -163 -8 -198
-75 -343 -147 -314 -244 -513 -278 -565 -48 -73 -177 -190 -209 -190 -21 0 -2
23 53 66 107 84 152 158 331 534 28 58 68 141 89 185 22 44 39 90 39 102 0 12
5 25 10 28 6 3 10 47 10 97 0 94 -12 128 -63 169 -25 21 -18 51 16 67 15 7 27
19 27 26 0 24 25 36 76 36 l52 0 -39 -42z m2421 32 c0 -15 -32 -27 -65 -25
-42 3 -42 3 -48 19 -5 11 7 14 54 15 32 0 59 -4 59 -9z m62 -15 c-5 -29 -68
-85 -94 -85 -21 0 -26 40 -5 40 16 1 67 46 67 60 0 5 8 10 19 10 14 0 17 -6
13 -25z m-1339 -1162 c-23 -2 -64 -2 -90 0 -26 2 -7 3 42 3 50 0 71 -1 48 -3z
m-44 -29 c88 -3 138 -1 144 5 14 14 174 14 182 1 3 -5 39 -10 80 -10 41 0 77
-4 80 -10 3 -5 27 -10 53 -10 47 -1 82 -17 82 -39 0 -8 -83 -11 -305 -11 -264
0 -305 2 -305 15 0 8 -4 15 -10 15 -5 0 -10 -7 -10 -15 0 -13 -41 -15 -305
-15 -168 0 -305 3 -305 7 0 3 7 15 17 25 12 13 30 18 69 18 29 0 56 5 59 10 3
6 35 10 70 10 35 0 67 5 70 11 5 7 40 8 103 4 54 -3 157 -8 231 -11z m-1621
-137 c23 -26 71 -47 108 -47 18 0 36 -4 39 -10 3 -5 30 -10 60 -10 30 0 57 -4
60 -10 3 -5 15 -10 26 -10 12 0 19 -5 17 -12 -6 -16 -87 -23 -101 -9 -6 6 -35
11 -64 11 -29 0 -53 5 -53 10 0 6 -11 10 -24 10 -34 0 -129 22 -143 33 -23 17
-14 51 20 73 28 19 32 19 36 5 1 -9 10 -24 19 -34z m3272 45 c0 -5 11 -14 25
-20 19 -9 25 -19 25 -42 0 -17 -6 -33 -12 -35 -21 -7 -179 -37 -228 -42 -25
-3 -49 -9 -54 -14 -9 -8 -35 16 -36 33 0 3 21 8 48 11 143 16 212 47 212 97 0
11 5 20 10 20 6 0 10 -4 10 -8z m-2370 -48 c0 -27 5 -37 20 -41 19 -5 20 -14
20 -232 l0 -227 -28 -27 c-17 -16 -39 -27 -56 -27 -19 0 -29 -6 -33 -20 -4
-16 -14 -20 -49 -20 -30 0 -44 4 -44 13 0 18 75 57 109 57 47 0 51 14 51 155
l0 132 -34 39 -34 39 -103 3 c-57 1 -114 5 -126 7 -31 7 -29 25 1 25 35 0 56
10 56 26 0 11 16 14 67 14 62 0 70 2 100 32 22 21 33 41 33 60 0 23 4 28 25
28 22 0 25 -4 25 -36z m710 21 c0 -8 5 -15 10 -15 6 0 10 7 10 15 0 13 44 15
340 15 l340 0 0 -25 0 -25 -690 0 -690 0 0 25 0 25 340 0 c296 0 340 -2 340
-15z m774 -16 c3 -17 19 -44 35 -60 26 -26 36 -29 93 -29 52 0 65 -3 76 -20 8
-13 23 -20 42 -20 20 0 30 -5 30 -15 0 -12 -20 -15 -117 -15 -109 0 -118 -2
-150 -26 -21 -16 -33 -34 -33 -49 0 -13 -4 -27 -10 -30 -6 -4 -10 -56 -10
-122 0 -127 7 -142 62 -143 15 0 30 -4 33 -10 3 -5 13 -10 21 -10 18 0 44 -24
44 -39 0 -6 -20 -11 -45 -11 -38 0 -45 3 -45 20 0 18 -7 20 -55 20 l-55 0 0
254 c0 245 1 254 20 259 14 4 20 14 20 34 0 52 34 61 44 12z m-114 -304 l0
-255 -650 0 -650 0 0 255 0 255 650 0 650 0 0 -255z m710 194 c0 -5 -15 -9
-34 -9 -19 0 -38 -4 -41 -10 -3 -5 -28 -10 -55 -10 -27 0 -52 -4 -55 -10 -9
-15 -105 -13 -105 3 0 19 49 37 100 37 25 0 50 4 56 9 5 6 32 11 59 13 49 3
75 -5 75 -23z m-2595 11 c3 -5 28 -10 54 -10 27 0 61 -6 76 -14 29 -15 63 -56
46 -56 -5 0 -13 5 -16 10 -3 6 -30 10 -60 10 -30 0 -57 5 -60 10 -3 6 -28 10
-56 10 -33 0 -49 4 -49 13 0 30 50 51 65 27z m475 -385 c0 -9 -9 -15 -24 -15
-33 0 -91 -26 -115 -51 -30 -32 -26 -101 6 -133 14 -15 31 -26 39 -26 7 0 14
-4 16 -8 2 -5 21 -16 43 -25 39 -16 35 -16 -150 -15 -104 0 -181 2 -170 5 11
2 29 6 41 8 12 3 26 19 34 40 7 19 17 35 22 35 4 0 8 7 8 15 0 8 9 19 21 26
l21 11 -21 22 c-12 12 -21 28 -21 34 0 7 -4 12 -9 12 -5 0 -16 15 -25 34 -14
29 -23 35 -54 39 -20 2 47 4 151 5 160 2 187 0 187 -13z m1744 -2 c3 -10 5
-67 5 -128 0 -60 -2 -118 -5 -127 -5 -16 -19 -18 -112 -18 l-107 0 43 25 c97
55 102 61 102 119 0 31 -5 58 -12 64 -33 26 -91 52 -118 52 -20 0 -30 5 -30
15 0 12 19 15 114 15 101 0 115 -2 120 -17z m138 -10 c5 -103 4 -107 -42 -109
-55 -4 -60 3 -60 72 l0 64 50 0 c48 0 50 -1 52 -27z m-2316 -47 c-20 -18 -36
-38 -36 -45 0 -6 -9 -11 -20 -11 -20 0 -19 3 10 45 23 33 38 45 56 45 25 0 25
0 -10 -34z m140 -6 c35 -53 21 -66 -18 -17 -16 20 -36 37 -44 37 -8 0 -14 5
-14 10 0 6 11 10 25 10 18 0 32 -11 51 -40z m374 -491 l0 -481 -282 5 c-156 4
-284 6 -285 7 -2 0 -3 11 -3 24 0 33 -10 57 -21 50 -5 -3 -9 -18 -9 -34 0 -16
-5 -32 -11 -36 -13 -8 -172 -7 -197 0 -15 5 -17 22 -16 130 1 69 5 129 9 135
4 7 47 11 111 11 l104 0 0 -46 c0 -56 25 -57 26 -1 0 20 3 39 5 42 3 2 110 5
237 5 l232 1 25 33 c24 32 25 35 25 234 0 176 -3 205 -17 222 -10 11 -22 20
-27 20 -19 0 -116 64 -116 77 0 18 35 16 50 -3 20 -23 64 -14 68 14 2 13 10
22 21 22 10 0 28 11 41 25 13 14 25 25 27 25 2 0 3 -217 3 -481z m-480 456 c0
-8 -7 -15 -15 -15 -9 0 -12 6 -9 15 4 8 10 15 15 15 5 0 9 -7 9 -15z m60 -6
c0 -24 -23 -21 -28 4 -2 10 3 17 12 17 10 0 16 -9 16 -21z m1090 -50 c0 -20 4
-29 13 -26 6 2 11 16 9 31 l-3 26 321 0 320 0 0 -455 0 -455 -321 0 -321 0 4
47 c2 31 -1 48 -9 50 -9 3 -13 -10 -13 -46 l0 -51 -130 0 -130 0 1 183 c1 170
1 178 13 124 12 -54 29 -87 41 -76 6 7 -14 118 -26 141 -5 10 -9 37 -9 60 -1
40 -23 88 -35 76 -3 -3 -12 -52 -21 -109 -8 -57 -19 -115 -25 -128 -7 -16 -7
-27 0 -34 7 -7 13 -3 20 14 7 17 10 -13 13 -109 1 -74 1 -136 -1 -138 -2 -2
-82 -4 -178 -4 l-173 0 0 455 0 455 320 0 320 0 0 -31z m770 12 c0 -32 58 -43
80 -16 14 17 40 20 40 4 0 -12 -25 -39 -37 -39 -4 0 -19 -9 -33 -20 -14 -11
-33 -20 -42 -20 -38 0 -48 -53 -48 -247 0 -187 3 -203 43 -245 15 -16 35 -18
187 -18 l170 0 0 -139 0 -138 -61 -7 c-34 -3 -133 -6 -220 -6 l-159 0 0 455 0
455 40 0 c33 0 40 -4 40 -19z m-1855 0 c7 -12 -24 -43 -36 -35 -5 3 -5 13 1
25 11 20 25 25 35 10z m2212 -5 c4 -4 8 -34 8 -67 l0 -59 -52 0 -53 0 0 64 c0
42 4 66 13 69 18 7 75 3 84 -7z m-2320 -41 c41 -42 43 -45 21 -45 -26 0 -62
34 -73 69 -10 31 2 26 52 -24z m49 34 c3 -6 2 -15 -4 -21 -7 -7 -14 -3 -21 11
-10 17 -9 21 3 21 8 0 18 -5 22 -11z m124 3 c0 -4 -5 -13 -11 -19 -6 -6 -17
-22 -23 -35 -7 -14 -22 -24 -38 -26 -26 -3 -26 -2 15 41 42 44 57 54 57 39z
m1835 -480 c9 -20 21 -45 26 -54 13 -26 12 -28 -20 -28 -47 0 -61 33 -60 142
l0 93 19 -58 c11 -31 26 -74 35 -95z m-1564 36 c-3 -101 -12 -118 -59 -118
l-30 0 18 38 c10 20 29 69 42 109 12 39 25 69 27 67 3 -3 4 -46 2 -96z m2011
-183 c2 -20 8 -35 13 -35 6 0 11 15 13 35 3 34 5 35 43 35 l39 0 0 -141 0
-140 -37 3 c-35 3 -38 6 -41 36 -2 19 -9 32 -17 32 -8 0 -15 -13 -17 -32 -3
-32 -5 -33 -50 -36 l-48 -3 0 140 0 141 49 0 c50 0 50 0 53 -35z m248 -104 l0
-139 -55 -4 -55 -3 0 143 0 142 55 0 55 0 0 -139z"/>
<path d="M763 4400 c-33 -30 -70 -82 -78 -110 -8 -25 -8 -25 14 -6 12 11 20
24 18 29 -2 6 16 28 40 50 41 38 53 57 35 57 -5 0 -18 -9 -29 -20z"/>
<path d="M874 4367 c-9 -24 1 -207 11 -210 6 -1 11 12 13 29 3 29 5 30 49 30
28 -1 48 4 50 12 3 8 -10 12 -46 12 l-51 0 0 70 c0 41 -4 70 -10 70 -6 0 -13
-6 -16 -13z"/>
<path d="M2140 4124 c0 -27 4 -43 10 -39 6 3 10 24 10 46 0 21 -4 39 -10 39
-5 0 -10 -21 -10 -46z"/>
<path d="M2140 3460 c0 -22 5 -40 10 -40 6 0 10 18 10 40 0 22 -4 40 -10 40
-5 0 -10 -18 -10 -40z"/>
<path d="M2140 3121 c0 -134 4 -211 10 -211 6 0 10 75 10 204 0 126 -4 207
-10 211 -7 4 -10 -67 -10 -204z"/>
<path d="M2140 2780 c0 -41 3 -48 16 -43 8 3 13 12 10 20 -3 8 -6 28 -6 44 0
16 -4 29 -10 29 -5 0 -10 -22 -10 -50z"/>
<path d="M2140 1770 c0 -161 3 -210 13 -210 9 0 11 47 9 210 -2 126 -7 210
-12 210 -6 0 -10 -82 -10 -210z"/>
<path d="M870 686 c0 -17 5 -26 16 -26 10 0 14 7 12 22 -5 32 -28 35 -28 4z"/>
<path d="M2140 1094 c0 -141 3 -213 10 -209 6 4 10 87 10 216 0 133 -4 209
-10 209 -6 0 -10 -79 -10 -216z"/>
<path d="M2140 765 c0 -25 5 -45 10 -45 6 0 10 20 10 45 0 25 -4 45 -10 45 -5
0 -10 -20 -10 -45z"/>
<path d="M3400 685 c0 -16 6 -25 15 -25 9 0 15 9 15 25 0 16 -6 25 -15 25 -9
0 -15 -9 -15 -25z"/>
<path d="M3210 4300 c0 -24 15 -27 24 -4 9 22 8 24 -9 24 -8 0 -15 -9 -15 -20z"/>
<path d="M1170 3760 c0 -5 18 -10 40 -10 22 0 40 5 40 10 0 6 -18 10 -40 10
-22 0 -40 -4 -40 -10z"/>
<path d="M3040 3760 c0 -5 20 -10 45 -10 25 0 45 5 45 10 0 6 -20 10 -45 10
-25 0 -45 -4 -45 -10z"/>
</g>
</svg>
