<?xml version="1.0" standalone="no"?>
<!DOCTYPE svg PUBLIC "-//W3C//DTD SVG 20010904//EN"
 "http://www.w3.org/TR/2001/REC-SVG-20010904/DTD/svg10.dtd">
<svg version="1.0" xmlns="http://www.w3.org/2000/svg"
 width="756.000000pt" height="464.000000pt" viewBox="0 0 756.000000 464.000000"
 preserveAspectRatio="xMidYMid meet">
<metadata>
Created by potrace 1.13, written by Peter Selinger 2001-2015
</metadata>
<g transform="translate(0.000000,464.000000) scale(0.100000,-0.100000)"
 stroke="none">
<path d="M650 4570 c0 -5 -7 -10 -15 -10 -27 0 -65 -47 -65 -80 0 -20 5 -30
15 -30 9 0 15 10 15 26 0 26 20 54 40 54 14 0 40 25 40 39 0 6 -7 11 -15 11
-8 0 -15 -4 -15 -10z"/>
<path d="M690 4565 c0 -10 10 -15 30 -15 17 0 30 -4 30 -10 0 -5 7 -10 15 -10
19 0 19 17 1 36 -20 19 -76 19 -76 -1z"/>
<path d="M1090 4570 c0 -5 -7 -10 -15 -10 -9 0 -27 -11 -40 -25 -22 -22 -25
-32 -25 -105 l0 -80 30 0 30 0 0 -70 c0 -67 -2 -72 -35 -105 -19 -19 -39 -35
-45 -35 -6 0 -33 -22 -60 -50 -27 -27 -54 -50 -60 -50 -6 0 -33 -22 -60 -50
-27 -27 -54 -50 -60 -50 -6 0 -29 -18 -51 -41 l-39 -41 0 201 c0 172 -2 201
-15 201 -13 0 -15 -57 -15 -455 l0 -455 75 0 75 0 0 235 0 236 25 24 c13 14
29 25 36 25 6 0 24 14 39 30 15 17 33 30 40 30 6 0 29 18 50 40 21 22 44 40
50 40 6 0 29 18 50 40 21 22 43 40 50 40 6 0 26 16 45 35 l35 34 0 96 0 95 40
0 40 0 0 80 c0 73 -3 83 -25 105 -13 14 -31 25 -40 25 -8 0 -15 5 -15 10 0 6
-25 10 -55 10 -30 0 -55 -4 -55 -10z m100 -30 c0 -5 7 -10 16 -10 31 0 44 -27
44 -89 l0 -61 -105 0 -105 0 0 61 c0 62 13 89 44 89 9 0 16 5 16 10 0 6 20 10
45 10 25 0 45 -4 45 -10z m-20 -280 c0 -83 -2 -93 -25 -115 -13 -14 -29 -25
-35 -25 -7 0 -29 -18 -50 -40 -21 -22 -44 -40 -50 -40 -6 0 -29 -18 -50 -40
-21 -22 -44 -40 -50 -40 -7 0 -25 -13 -40 -30 -15 -16 -33 -30 -39 -30 -7 0
-27 -16 -46 -35 l-35 -34 0 -226 0 -225 -45 0 -45 0 0 220 0 221 35 34 c19 19
39 35 45 35 6 0 38 27 70 60 32 33 64 60 70 60 6 0 33 23 60 50 27 28 54 50
60 50 6 0 31 20 55 45 l45 44 0 76 0 75 35 0 35 0 0 -90z"/>
<path d="M790 4525 c0 -8 7 -15 15 -15 8 0 15 7 15 15 0 8 -7 15 -15 15 -8 0
-15 -7 -15 -15z"/>
<path d="M810 4445 c0 -42 3 -55 15 -55 12 0 15 13 15 55 0 42 -3 55 -15 55
-12 0 -15 -13 -15 -55z"/>
<path d="M570 4415 c0 -16 6 -25 15 -25 9 0 15 9 15 25 0 16 -6 25 -15 25 -9
0 -15 -9 -15 -25z"/>
<path d="M570 4365 c0 -8 7 -15 15 -15 8 0 15 7 15 15 0 8 -7 15 -15 15 -8 0
-15 -7 -15 -15z"/>
<path d="M610 4365 c0 -8 5 -15 10 -15 6 0 10 -18 10 -40 0 -29 4 -40 15 -40
12 0 15 13 15 55 0 52 -1 55 -25 55 -16 0 -25 -6 -25 -15z"/>
<path d="M670 4365 c0 -8 7 -15 15 -15 8 0 15 7 15 15 0 8 -7 15 -15 15 -8 0
-15 -7 -15 -15z"/>
<path d="M710 4365 c0 -8 5 -15 10 -15 6 0 10 -9 10 -20 0 -11 7 -20 15 -20 8
0 15 9 15 20 0 11 5 20 10 20 6 0 10 7 10 15 0 10 -11 15 -35 15 -24 0 -35 -5
-35 -15z"/>
<path d="M790 4365 c0 -9 9 -15 25 -15 16 0 25 6 25 15 0 9 -9 15 -25 15 -16
0 -25 -6 -25 -15z"/>
<path d="M730 4255 c0 -33 4 -45 15 -45 11 0 15 12 15 45 0 33 -4 45 -15 45
-11 0 -15 -12 -15 -45z"/>
<path d="M730 4155 c0 -33 4 -45 15 -45 11 0 15 12 15 45 0 33 -4 45 -15 45
-11 0 -15 -12 -15 -45z"/>
<path d="M730 4055 c0 -33 4 -45 15 -45 11 0 15 12 15 45 0 33 -4 45 -15 45
-11 0 -15 -12 -15 -45z"/>
<path d="M730 3975 c0 -16 6 -25 15 -25 9 0 15 9 15 25 0 16 -6 25 -15 25 -9
0 -15 -9 -15 -25z"/>
<path d="M6046 3938 c-3 -13 -6 -41 -6 -63 0 -82 3 -85 86 -85 40 0 76 5 79
10 3 6 24 10 46 10 37 0 39 -2 39 -31 0 -24 4 -30 18 -27 15 3 17 16 17 103 0
87 -2 100 -17 103 -13 2 -18 -3 -18 -17 0 -30 -65 -31 -73 -1 -5 18 -14 20
-85 20 -74 0 -80 -2 -86 -22z m134 -63 l0 -55 -50 0 -50 0 0 55 0 55 50 0 50
0 0 -55z m110 -10 c0 -22 -4 -25 -35 -25 -31 0 -35 3 -35 25 0 22 4 25 35 25
31 0 35 -3 35 -25z"/>
<path d="M6455 3950 c-10 -16 17 -21 80 -18 36 2 60 8 63 16 5 15 -133 17
-143 2z"/>
<path d="M6670 3855 c0 -96 2 -106 18 -103 15 3 17 16 17 103 0 87 -2 100 -17
103 -16 3 -18 -7 -18 -103z"/>
<path d="M6427 3914 c-13 -14 5 -24 44 -24 21 0 39 -5 39 -10 0 -19 -32 -60
-46 -60 -8 0 -14 -4 -14 -10 0 -5 -6 -10 -14 -10 -22 0 -30 -19 -11 -26 17 -7
57 9 88 35 15 12 19 12 35 0 46 -38 92 -50 92 -26 0 17 -20 37 -38 37 -17 0
-52 38 -52 56 0 8 16 14 43 16 23 2 42 8 42 13 0 11 -197 20 -208 9z"/>
<path d="M6110 3750 c0 -5 -7 -10 -15 -10 -8 0 -19 -10 -26 -21 -13 -26 2 -69
26 -69 8 0 15 -4 15 -10 0 -6 35 -10 85 -10 50 0 85 4 85 10 0 6 6 10 14 10
40 0 45 77 6 87 -11 3 -20 9 -20 14 0 5 -38 9 -85 9 -50 0 -85 -4 -85 -10z
m166 -34 c18 -19 18 -26 -3 -42 -36 -27 -173 -11 -173 20 0 4 6 13 13 21 17
20 143 20 163 1z"/>
<path d="M6490 3750 c0 -5 -7 -10 -15 -10 -8 0 -19 -10 -26 -21 -13 -26 2 -69
26 -69 8 0 15 -4 15 -10 0 -6 35 -10 85 -10 50 0 85 4 85 10 0 6 6 10 14 10
40 0 45 77 6 87 -11 3 -20 9 -20 14 0 5 -38 9 -85 9 -50 0 -85 -4 -85 -10z
m166 -34 c18 -19 18 -26 -3 -42 -36 -27 -173 -11 -173 20 0 4 6 13 13 21 17
20 143 20 163 1z"/>
<path d="M5870 3730 c0 -5 -18 -10 -40 -10 -22 0 -40 -4 -40 -10 0 -5 -22 -10
-50 -10 -27 0 -50 -4 -50 -10 0 -5 -22 -10 -50 -10 -27 0 -50 -4 -50 -10 0 -5
-22 -10 -50 -10 -27 0 -50 -4 -50 -10 0 -5 -22 -10 -50 -10 -27 0 -50 -4 -50
-10 0 -5 -22 -10 -50 -10 -27 0 -50 -4 -50 -10 0 -5 -22 -10 -50 -10 -27 0
-50 -4 -50 -10 0 -5 -22 -10 -50 -10 -27 0 -50 -4 -50 -10 0 -5 -22 -10 -50
-10 -27 0 -50 -4 -50 -10 0 -5 -22 -10 -50 -10 -27 0 -50 -4 -50 -10 0 -5 -22
-10 -50 -10 -27 0 -50 -4 -50 -10 0 -5 -22 -10 -50 -10 -27 0 -50 -4 -50 -10
0 -5 -18 -10 -40 -10 -22 0 -40 -4 -40 -10 0 -5 -22 -10 -50 -10 -27 0 -50 -4
-50 -10 0 -5 -22 -10 -50 -10 -27 0 -50 -4 -50 -10 0 -5 -22 -10 -50 -10 -27
0 -50 -4 -50 -10 0 -5 -22 -10 -50 -10 -27 0 -50 -4 -50 -10 0 -5 -22 -10 -50
-10 -27 0 -50 -4 -50 -10 0 -5 -22 -10 -50 -10 -27 0 -50 -4 -50 -10 0 -5 -22
-10 -50 -10 -27 0 -50 -4 -50 -10 0 -5 -22 -10 -50 -10 -27 0 -50 -4 -50 -10
0 -5 -22 -10 -50 -10 -27 0 -50 -4 -50 -10 0 -5 -22 -10 -50 -10 -27 0 -50 -4
-50 -10 0 -5 -22 -10 -50 -10 -27 0 -50 -4 -50 -10 0 -5 -22 -10 -50 -10 -27
0 -50 -4 -50 -10 0 -5 -18 -10 -40 -10 -22 0 -40 -4 -40 -10 0 -5 -22 -10 -50
-10 -27 0 -50 -4 -50 -10 0 -5 -22 -10 -50 -10 -27 0 -50 -4 -50 -10 0 -5 -22
-10 -50 -10 -27 0 -50 -4 -50 -10 0 -5 -22 -10 -50 -10 -27 0 -50 -4 -50 -10
0 -5 -22 -10 -50 -10 -27 0 -50 -4 -50 -10 0 -5 -22 -10 -50 -10 -27 0 -50 -4
-50 -10 0 -14 -64 -12 -78 2 -7 7 -12 25 -12 40 0 33 -20 37 -38 8 -7 -11 -18
-20 -26 -20 -7 0 -21 -9 -31 -20 -10 -11 -24 -20 -30 -20 -7 0 -18 -7 -25 -15
-38 -46 -23 -45 -892 -45 l-818 0 0 126 c0 150 -2 154 -89 154 l-61 0 0 -140
0 -140 -280 0 -280 0 0 -105 0 -105 280 0 280 0 0 -60 c0 -33 4 -60 10 -60 6
0 10 -9 10 -20 0 -13 7 -20 20 -20 11 0 20 -4 20 -10 0 -5 7 -10 15 -10 24 0
18 19 -15 50 l-30 28 0 281 0 281 45 0 45 0 0 -246 c0 -256 3 -274 44 -274 9
0 16 -4 16 -10 0 -5 7 -10 15 -10 8 0 15 5 15 11 0 16 -26 39 -44 39 -9 0 -16
7 -16 15 0 13 94 15 785 15 l785 0 0 -25 0 -25 -750 0 c-660 0 -750 -2 -750
-15 0 -13 90 -15 750 -15 l750 0 0 -35 0 -35 -810 0 c-713 0 -810 -2 -810 -15
0 -13 41 -15 310 -15 l310 0 0 -1246 c0 -1066 2 -1247 14 -1260 13 -12 373
-14 2605 -14 l2591 0 0 1275 0 1275 -490 0 -490 0 0 75 0 75 940 0 940 0 0
105 0 105 -942 0 -941 0 23 25 c13 14 28 25 34 25 14 1 106 88 106 101 0 5 -9
9 -20 9 -11 0 -20 5 -20 10 0 6 -9 10 -19 10 -17 0 -18 3 -8 25 7 14 15 25 20
25 4 0 7 9 7 20 0 11 5 20 10 20 6 0 10 8 10 18 0 10 9 24 20 32 11 8 20 22
20 32 0 10 5 18 10 18 6 0 10 9 10 20 0 11 5 20 10 20 6 0 10 9 10 20 0 11 5
20 10 20 6 0 10 9 10 20 0 11 5 20 10 20 6 0 10 9 10 20 0 11 5 20 10 20 6 0
10 9 10 20 0 11 5 20 10 20 6 0 10 8 10 18 0 10 9 24 20 32 11 8 20 22 20 32
0 10 5 18 10 18 6 0 10 11 10 25 0 22 -4 25 -35 25 -19 0 -35 -4 -35 -10z m28
-42 c-7 -13 -21 -30 -30 -39 -10 -9 -18 -24 -18 -33 0 -9 -4 -16 -10 -16 -5 0
-10 -9 -10 -20 0 -11 -4 -20 -10 -20 -5 0 -10 -9 -10 -20 0 -11 -4 -20 -10
-20 -5 0 -10 -9 -10 -20 0 -11 -4 -20 -10 -20 -5 0 -10 -9 -10 -20 0 -11 -4
-20 -10 -20 -5 0 -10 -9 -10 -20 0 -11 -4 -20 -10 -20 -5 0 -10 -8 -10 -18 0
-10 -9 -24 -20 -32 -11 -8 -20 -22 -20 -32 0 -10 -4 -18 -10 -18 -5 0 -10 -9
-10 -20 0 -11 -4 -20 -10 -20 -5 0 -10 -9 -10 -20 0 -11 -7 -20 -15 -20 -8 0
-15 5 -15 10 0 6 -9 10 -20 10 -11 0 -20 5 -20 10 0 6 -7 10 -15 10 -12 0 -15
-14 -15 -70 0 -40 -4 -70 -10 -70 -5 0 -10 -22 -10 -50 l0 -50 -395 0 c-257 0
-395 4 -395 10 0 6 -13 10 -30 10 -16 0 -30 5 -30 10 0 6 -18 10 -40 10 -22 0
-40 5 -40 10 0 6 -27 10 -60 10 -33 0 -60 4 -60 10 0 6 -75 10 -205 10 -130 0
-205 -4 -205 -10 0 -5 -22 -10 -50 -10 -27 0 -50 -4 -50 -10 0 -5 -18 -10 -40
-10 -22 0 -40 -4 -40 -10 0 -5 -13 -10 -30 -10 -16 0 -30 -4 -30 -10 0 -6 -78
-10 -215 -10 -137 0 -215 4 -215 10 0 6 -13 10 -30 10 -16 0 -30 5 -30 10 0 6
-48 10 -125 10 -77 0 -125 -4 -125 -10 0 -5 -13 -10 -30 -10 -16 0 -30 -4 -30
-10 0 -6 -68 -10 -185 -10 -158 0 -185 2 -185 15 0 11 11 15 40 15 22 0 40 5
40 10 0 6 23 10 50 10 28 0 50 5 50 10 0 6 23 10 50 10 28 0 50 5 50 10 0 6
23 10 50 10 28 0 50 5 50 10 0 6 23 10 50 10 28 0 50 5 50 10 0 6 23 10 50 10
28 0 50 5 50 10 0 6 23 10 50 10 28 0 50 5 50 10 0 6 18 10 40 10 22 0 40 5
40 10 0 6 23 10 50 10 28 0 50 5 50 10 0 6 23 10 50 10 28 0 50 5 50 10 0 6
23 10 50 10 28 0 50 5 50 10 0 6 23 10 50 10 28 0 50 5 50 10 0 6 23 10 50 10
28 0 50 5 50 10 0 6 23 10 50 10 28 0 50 5 50 10 0 6 23 10 50 10 28 0 50 5
50 10 0 6 23 10 50 10 28 0 50 5 50 10 0 6 23 10 50 10 28 0 50 5 50 10 0 6
23 10 50 10 28 0 50 5 50 10 0 6 23 10 50 10 28 0 50 5 50 10 0 6 23 10 50 10
28 0 50 5 50 10 0 6 18 10 40 10 22 0 40 5 40 10 0 6 23 10 50 10 28 0 50 5
50 10 0 6 23 10 50 10 28 0 50 5 50 10 0 6 23 10 50 10 28 0 50 5 50 10 0 6
23 10 50 10 28 0 50 5 50 10 0 6 23 10 50 10 28 0 50 5 50 10 0 6 23 10 50 10
28 0 50 5 50 10 0 6 23 10 50 10 28 0 50 5 50 10 0 6 23 10 50 10 28 0 50 5
50 10 0 6 23 10 50 10 28 0 50 5 50 10 0 6 23 10 50 10 28 0 50 5 50 10 0 6
23 10 50 10 28 0 50 5 50 10 0 6 18 10 40 10 22 0 40 5 40 10 0 6 7 10 15 10
13 0 13 -4 3 -22z m-1428 -628 c0 -6 27 -10 60 -10 33 0 60 -4 60 -10 0 -5 18
-10 40 -10 22 0 40 -4 40 -10 0 -5 12 -10 26 -10 55 0 54 5 54 -429 l0 -401
-45 0 -45 0 0 123 c-1 121 -9 157 -39 157 -14 0 -14 -13 1 -28 9 -9 4 -12 -25
-12 -40 0 -53 24 -17 33 11 3 20 10 20 16 0 6 -9 11 -20 11 -18 0 -20 7 -20
74 0 41 5 78 10 81 15 9 12 94 -4 111 -24 23 -83 18 -111 -11 -31 -30 -33 -75
-5 -93 17 -10 20 -23 20 -87 l0 -75 -65 0 c-75 0 -82 10 -35 55 17 16 30 39
30 52 0 32 -43 73 -75 73 -32 0 -75 -41 -75 -73 0 -13 13 -36 30 -52 50 -48
42 -55 -65 -55 l-95 0 0 34 c0 34 1 35 48 38 l47 3 3 113 3 112 -146 0 -145 0
0 -101 c0 -114 7 -129 64 -129 34 0 36 -2 36 -35 0 -33 -2 -35 -32 -35 -20 -1
-44 -10 -60 -25 -28 -24 -28 -25 -28 -150 l0 -125 -55 0 -55 0 0 405 c0 398 0
405 20 405 11 0 20 5 20 10 0 6 14 10 30 10 17 0 30 5 30 10 0 6 18 10 40 10
22 0 40 5 40 10 0 6 23 10 50 10 28 0 50 5 50 10 0 6 72 10 195 10 123 0 195
-4 195 -10z m-1140 -40 c0 -5 14 -10 30 -10 17 0 30 -4 30 -10 0 -5 9 -10 20
-10 20 0 20 -7 20 -405 l0 -405 -65 0 -65 0 0 135 c0 83 4 135 10 135 6 0 10
18 10 39 0 22 -4 43 -10 46 -5 3 -10 42 -10 86 0 46 -4 79 -10 79 -5 0 -10 9
-10 20 0 13 -7 20 -20 20 -11 0 -20 5 -20 10 0 6 -30 10 -69 10 -39 0 -73 5
-76 10 -9 14 -68 13 -83 -2 -9 -9 -12 14 -12 105 0 110 1 117 20 117 11 0 20
5 20 10 0 6 14 10 30 10 17 0 30 5 30 10 0 6 45 10 115 10 70 0 115 -4 115
-10z m-3177 -47 c-10 -10 -26 -26 -35 -37 -17 -18 -18 -18 -18 17 0 36 1 37
36 37 34 0 35 -1 17 -17z m122 -58 c-73 -73 -76 -75 -125 -75 -43 0 -50 3 -50
20 0 11 24 45 53 74 l52 55 73 0 72 1 -75 -75z m161 0 l-76 -75 -60 0 -60 0
72 74 73 74 64 1 63 1 -76 -75z m194 45 c0 -23 -11 -42 -45 -75 -44 -45 -45
-45 -115 -45 l-70 0 72 74 c67 69 76 75 116 75 40 1 42 0 42 -29z m486 -45
l-76 -75 -130 0 -130 0 0 75 0 75 206 0 206 0 -76 -75z m160 0 l-76 -75 -61 0
-61 0 73 74 74 74 64 1 63 1 -76 -75z m160 0 l-76 -75 -61 0 -61 0 73 74 74
74 64 1 63 1 -76 -75z m181 0 l-75 -75 -72 0 -72 0 73 74 74 74 73 1 74 1 -75
-75z m500 0 l-75 -75 -232 0 -232 0 73 74 74 74 233 1 234 1 -75 -75z m133 25
c0 -76 -25 -100 -108 -100 l-64 0 74 74 c40 41 79 75 86 75 8 1 12 -15 12 -49z
m280 5 l0 -45 -125 0 -125 0 0 45 0 45 125 0 125 0 0 -45z m440 -30 l0 -75
-196 0 -197 0 74 75 74 75 123 0 122 0 0 -75z m560 73 c0 -2 -16 -18 -35 -37
l-35 -34 0 37 c0 35 1 36 35 36 19 0 35 -1 35 -2z m87 -73 c-69 -69 -79 -75
-116 -75 -35 0 -41 3 -41 22 0 12 22 43 53 74 51 52 53 52 115 53 l64 1 -75
-75z m153 0 l0 -75 -96 0 -96 0 73 74 c46 46 83 75 97 75 21 1 22 -3 22 -74z
m1367 0 l-75 -75 -141 0 -141 0 0 75 0 75 216 0 216 0 -75 -75z m160 0 l-75
-75 -62 0 -62 0 74 74 73 75 63 0 64 1 -75 -75z m373 30 l0 -45 -125 0 -125 0
0 45 0 45 125 0 125 0 0 -45z m467 -30 l-75 -75 -232 0 c-206 0 -231 2 -220
15 7 9 29 15 51 15 38 0 39 1 39 37 0 24 8 45 22 60 21 23 24 23 256 23 l234
0 -75 -75z m159 0 l-76 -75 -61 0 -61 0 73 74 74 74 64 1 63 1 -76 -75z m160
0 l-76 -75 -61 0 -61 0 73 74 74 74 64 1 63 1 -76 -75z m179 0 l-75 -75 -71 0
-71 0 73 74 74 74 73 1 72 1 -75 -75z m500 0 l-75 -75 -231 0 -231 0 73 74 74
74 233 1 232 1 -75 -75z m160 0 l-75 -75 -60 0 -60 0 72 74 73 74 63 1 62 1
-75 -75z m135 14 c0 -80 -10 -89 -99 -89 l-71 0 72 74 c40 41 79 75 86 75 8 1
12 -17 12 -60z m-4792 29 c8 -8 -2 -24 -42 -65 -51 -50 -57 -53 -105 -53 -39
0 -51 4 -51 15 0 11 12 15 46 15 55 0 74 16 74 64 0 34 2 36 33 36 18 0 38 -5
45 -12z m2765 -70 c9 -6 9 -12 1 -25 -9 -14 -27 -19 -79 -21 l-68 -3 64 64 64
64 3 -36 c2 -20 9 -39 15 -43z m-4773 -23 c0 -20 -5 -25 -27 -25 l-26 0 23 25
c13 14 25 25 27 25 2 0 3 -11 3 -25z m1720 -10 c0 -12 -13 -15 -56 -15 -49 0
-55 2 -44 15 8 9 30 15 56 15 32 0 44 -4 44 -15z m60 -540 c0 -487 -2 -555
-15 -555 -13 0 -15 68 -15 555 0 487 2 555 15 555 13 0 15 -68 15 -555z m3080
540 c0 -11 -11 -15 -36 -15 -31 0 -35 2 -24 15 7 8 23 15 36 15 15 0 24 -6 24
-15z m60 -540 c0 -487 -2 -555 -15 -555 -13 0 -15 68 -15 555 0 487 2 555 15
555 13 0 15 -68 15 -555z m-2580 470 l0 -25 -265 0 -265 0 0 25 0 25 265 0
265 0 0 -25z m800 -50 l0 -75 -155 0 -155 0 0 75 0 75 155 0 155 0 0 -75z
m1720 0 l0 -75 -355 0 -355 0 0 75 0 75 355 0 355 0 0 -75z m-2463 -67 c-2
-18 -4 -6 -4 27 0 33 2 48 4 33 2 -15 2 -42 0 -60z m1163 -3 l0 -85 -115 0
-115 0 0 85 0 85 115 0 115 0 0 -85z m-1200 30 l0 -35 -275 0 -275 0 0 35 0
35 275 0 275 0 0 -35z m257 13 c20 -19 23 -31 23 -95 l0 -73 -33 0 c-27 0 -34
5 -46 33 -17 39 -60 87 -78 87 -8 0 -13 13 -13 35 l0 35 62 0 c50 0 66 -4 85
-22z m1303 -12 c0 -47 -20 -62 -60 -45 -52 23 -33 78 28 79 30 0 32 -2 32 -34z
m-2822 -171 c-59 -58 -114 -105 -123 -105 -8 0 -15 -7 -15 -16 0 -17 -150
-169 -188 -192 l-22 -12 0 215 0 215 227 0 228 0 -107 -105z m162 0 l-105
-105 -63 0 -64 0 103 105 103 105 65 0 66 0 -105 -105z m160 0 l-105 -105 -65
0 -65 0 105 105 105 105 65 0 65 0 -105 -105z m180 0 l-105 -105 -75 0 -75 0
105 105 105 105 75 0 75 0 -105 -105z m500 0 l-105 -105 -92 0 -93 0 0 105 0
105 197 0 198 0 -105 -105z m240 93 c0 -7 -42 -54 -92 -105 l-93 -93 -65 0
-65 0 105 105 105 105 52 0 c35 0 53 -4 53 -12z m163 0 c27 -29 41 -68 29 -80
-15 -15 -16 -94 -2 -103 6 -4 10 -58 10 -131 l0 -124 -85 0 -85 0 0 215 0 215
44 0 c25 0 48 5 51 10 8 14 24 13 38 -2z m637 -93 l0 -105 -155 0 -155 0 0
105 0 105 155 0 155 0 0 -105z m586 91 c27 -28 7 -76 -31 -76 -21 0 -45 24
-45 45 0 39 48 58 76 31z m474 11 c0 -2 -11 -14 -25 -27 l-25 -23 0 26 c0 22
5 27 25 27 14 0 25 -1 25 -3z m80 -102 c-58 -58 -110 -105 -117 -105 -9 0 -13
19 -13 62 0 60 2 64 42 105 l42 43 75 0 76 0 -105 -105z m160 0 l-105 -105
-65 0 -65 0 105 105 105 105 65 0 65 0 -105 -105z m160 0 l-105 -105 -65 0
-65 0 105 105 105 105 65 0 65 0 -105 -105z m260 0 l0 -105 -167 0 -168 0 105
105 105 105 62 0 63 0 0 -105z m260 0 c-90 -91 -109 -105 -137 -105 l-33 0 0
105 0 105 137 0 138 0 -105 -105z m159 0 l-103 -105 -65 0 -66 0 105 105 105
105 63 0 64 0 -103 -105z m158 0 l-104 -105 -64 0 -64 0 105 105 105 104 63 0
63 1 -104 -105z m179 0 l-105 -105 -71 0 -71 0 103 104 103 105 73 0 73 1
-105 -105z m284 -45 l0 -150 -85 -86 -85 -86 0 131 0 131 -91 0 -91 0 104 104
103 104 73 1 72 1 0 -150z m-4180 35 l0 -95 -97 0 -98 0 95 95 c52 52 96 95
97 95 2 0 3 -43 3 -95z m2180 -780 c0 -771 -2 -875 -15 -875 -13 0 -15 104
-15 875 0 771 2 875 15 875 13 0 15 -104 15 -875z m-1560 760 l0 -75 -77 0
-77 0 74 75 c41 41 76 75 77 75 2 0 3 -34 3 -75z m1120 -839 c0 -782 -2 -895
-15 -906 -13 -11 -15 89 -15 894 0 799 2 906 15 906 13 0 15 -106 15 -894z
m-822 807 c-15 -2 -42 -2 -60 0 -18 2 -6 4 27 4 33 0 48 -2 33 -4z m762 -28
c0 -11 -12 -15 -46 -15 -40 0 -45 2 -34 15 7 8 28 15 46 15 24 0 34 -5 34 -15z
m280 0 c0 -12 -17 -15 -95 -15 -78 0 -95 3 -95 15 0 12 17 15 95 15 78 0 95
-3 95 -15z m160 0 c0 -12 -14 -15 -65 -15 -51 0 -65 3 -65 15 0 12 14 15 65
15 51 0 65 -3 65 -15z m-1200 -130 l0 -125 -35 0 -35 0 0 125 0 125 35 0 35 0
0 -125z m-1600 65 c0 -15 7 -20 25 -20 18 0 25 5 25 20 0 19 7 20 104 20 65 0
107 -4 112 -11 4 -8 9 -8 17 0 14 14 74 14 83 0 4 -8 9 -8 17 0 6 6 35 11 63
11 29 0 56 -5 60 -11 4 -8 9 -8 17 0 6 6 44 11 84 11 70 0 73 -1 73 -24 0 -16
-7 -26 -21 -29 -23 -6 -17 -27 7 -27 11 0 14 -15 14 -65 0 -62 -1 -65 -24 -65
-14 0 -28 5 -32 11 -4 8 -9 8 -17 0 -6 -6 -30 -11 -54 -11 -36 0 -43 3 -43 20
0 26 -8 25 -37 -2 -20 -19 -26 -20 -47 -9 -27 15 -55 6 -37 -12 15 -15 14 -37
-2 -37 -8 0 -22 -9 -33 -21 -16 -17 -16 -22 -4 -29 20 -13 1 -44 -29 -48 -22
-4 -28 -17 -11 -27 6 -3 10 -17 10 -31 0 -17 -5 -24 -20 -24 -11 0 -20 -7 -20
-15 0 -8 5 -15 10 -15 6 0 10 -7 10 -15 0 -8 -9 -15 -20 -15 -11 0 -20 -7 -20
-15 0 -8 5 -15 10 -15 6 0 10 -7 10 -15 0 -8 -4 -15 -10 -15 -5 0 -10 -13 -10
-30 0 -16 -4 -30 -10 -30 -5 0 -10 -22 -10 -50 0 -27 -4 -50 -10 -50 -6 0 -10
-27 -10 -62 0 -48 -3 -59 -12 -50 -18 18 -68 15 -68 -3 0 -10 10 -15 30 -15
30 0 43 -24 18 -33 -10 -3 -10 -7 0 -19 10 -13 8 -19 -18 -39 -30 -24 -40 -49
-19 -49 6 0 19 10 30 23 l18 22 1 -27 c0 -14 -6 -28 -12 -31 -10 -4 -10 -7 0
-18 6 -7 12 -27 12 -45 0 -18 -6 -34 -12 -37 -10 -4 -10 -7 0 -18 14 -16 16
-55 2 -64 -17 -10 -11 -25 10 -25 18 0 20 -7 20 -65 0 -37 -4 -65 -10 -65 -5
0 -10 -7 -10 -15 0 -18 12 -19 28 -3 9 9 12 2 12 -34 0 -26 5 -50 10 -53 6 -3
10 -17 10 -30 0 -13 5 -27 10 -30 6 -3 10 -19 10 -36 0 -16 5 -29 10 -29 6 0
10 -15 10 -33 0 -21 8 -41 20 -52 28 -25 28 -50 0 -33 -17 11 -23 9 -42 -9
-20 -20 -20 -25 -8 -48 16 -30 31 -32 50 -5 20 28 33 25 49 -11 12 -28 11 -32
-8 -53 -26 -28 -26 -36 0 -36 13 0 23 8 26 20 4 16 8 18 19 9 11 -9 11 -15 3
-25 -14 -17 -5 -44 14 -44 8 0 22 9 32 20 12 13 31 20 54 20 27 0 32 -3 23
-12 -17 -17 -15 -28 6 -28 11 0 27 9 37 20 30 33 45 25 45 -24 0 -25 -5 -48
-10 -51 -6 -4 -7 -11 -4 -17 4 -6 10 -6 17 1 16 16 92 14 107 -4 11 -13 3 -15
-63 -15 -66 0 -75 2 -80 20 -7 26 -27 26 -27 0 0 -18 -7 -20 -54 -20 -30 0
-58 5 -62 11 -4 8 -9 8 -17 0 -16 -16 -229 -15 -246 2 -11 9 -14 9 -18 0 -3
-8 -23 -13 -49 -13 -37 0 -44 3 -44 20 0 13 -7 20 -20 20 -11 0 -20 5 -20 10
0 6 -7 10 -15 10 -22 0 -18 -19 8 -41 l22 -18 -48 -1 c-44 0 -46 1 -35 20 10
15 10 22 0 32 -15 15 -16 134 -1 144 8 4 8 9 0 17 -14 14 -15 157 -1 157 6 0
10 7 10 15 0 8 -4 15 -10 15 -14 0 -13 127 1 136 8 4 8 9 0 17 -6 6 -11 21
-11 34 0 19 5 23 30 23 34 0 38 10 12 33 -14 13 -21 14 -30 5 -9 -9 -12 -4
-12 25 0 20 5 37 10 37 6 0 10 7 10 15 0 8 -4 15 -10 15 -5 0 -10 16 -10 35 0
19 5 35 10 35 6 0 10 7 10 15 0 8 -4 15 -10 15 -5 0 -10 7 -10 15 0 8 5 15 10
15 6 0 10 7 10 15 0 8 -4 15 -10 15 -5 0 -10 7 -10 15 0 8 5 15 10 15 6 0 10
7 10 15 0 8 -4 15 -10 15 -5 0 -10 20 -10 45 0 38 3 45 20 45 11 0 20 6 20 13
0 7 -9 18 -20 25 -14 9 -20 23 -20 50 l1 37 18 -22 c24 -28 41 -29 41 -3 0 11
5 20 10 20 6 0 10 7 10 15 0 8 -7 15 -15 15 -8 0 -15 -4 -15 -10 0 -15 -26
-12 -40 4 -9 12 -7 17 9 28 12 7 21 18 21 25 0 16 -12 17 -28 1 -9 -9 -12 0
-12 44 0 36 5 58 13 61 9 4 9 7 0 18 -10 10 -10 16 0 27 9 12 9 16 0 19 -9 3
-13 26 -13 69 0 57 2 64 20 64 11 0 20 7 20 15 0 8 -9 15 -20 15 -18 0 -20 7
-20 63 0 35 5 68 12 75 9 9 8 18 -3 38 -11 21 -11 28 -1 31 14 5 16 33 2 33
-14 0 -12 56 2 80 10 15 10 22 0 32 -20 20 -14 38 13 38 18 0 25 -5 25 -20z
m805 10 c8 13 132 13 141 -1 4 -8 9 -8 17 0 7 7 62 11 146 11 105 0 132 -3
123 -12 -13 -13 -17 -48 -5 -48 4 0 22 14 40 32 l33 32 0 -56 c0 -31 -5 -60
-11 -64 -8 -4 -8 -9 0 -17 6 -6 11 -26 11 -44 0 -31 -2 -33 -35 -33 -28 0 -35
4 -35 20 0 11 -7 20 -15 20 -8 0 -15 -9 -15 -20 0 -19 -7 -20 -215 -20 l-215
0 0 106 c0 91 2 105 14 95 10 -8 16 -9 21 -1z m1295 -95 l0 -105 -155 0 -155
0 0 105 0 105 155 0 155 0 0 -105z m260 0 l0 -105 -45 0 -45 0 0 105 0 105 45
0 45 0 0 -105z m280 0 l0 -105 -95 0 -95 0 0 105 0 105 95 0 95 0 0 -105z
m160 0 l0 -105 -65 0 -65 0 0 105 0 105 65 0 65 0 0 -105z m160 0 l0 -105 -35
0 -35 0 0 105 0 105 35 0 35 0 0 -105z m185 95 c9 14 88 13 104 -2 11 -10 14
-10 18 0 4 9 48 12 176 12 162 0 172 -1 194 -22 l23 -22 16 22 c16 23 53 29
71 11 8 -8 13 -8 17 0 11 16 56 14 56 -3 0 -8 -5 -18 -10 -21 -8 -5 -8 -11 0
-20 8 -10 8 -15 0 -20 -8 -5 -8 -11 1 -21 9 -11 7 -14 -10 -14 -12 0 -21 -6
-21 -15 0 -9 9 -15 22 -15 16 0 19 -3 11 -11 -9 -9 -9 -16 0 -30 15 -24 1 -36
-23 -21 -12 7 -21 8 -25 2 -3 -6 -54 -10 -113 -10 -82 0 -103 3 -94 12 16 16
15 28 -1 28 -7 0 -18 -9 -25 -20 -11 -17 -23 -20 -96 -20 -50 0 -88 4 -92 11
-4 8 -9 8 -17 0 -6 -6 -39 -11 -74 -11 -56 0 -63 2 -63 20 0 11 -7 20 -15 20
-8 0 -15 -9 -15 -20 0 -11 -7 -20 -15 -20 -9 0 -15 9 -15 24 0 14 -4 28 -10
31 -5 3 -10 40 -10 82 0 64 2 74 14 64 10 -8 16 -9 21 -1z m1207 -2 c-16 -16
-15 -28 1 -28 7 0 18 9 25 21 11 17 16 19 29 7 13 -10 17 -10 20 0 5 14 93 17
93 2 0 -5 7 -10 15 -10 8 0 15 5 15 10 0 6 7 10 15 10 8 0 15 -9 15 -20 0 -15
7 -20 25 -20 27 0 32 9 13 28 -9 9 -6 12 15 12 l27 0 0 -107 c0 -83 -3 -104
-12 -95 -21 21 -28 13 -28 -26 0 -26 7 -45 20 -57 23 -20 26 -55 8 -74 -10
-11 -10 -14 0 -18 8 -3 12 -28 12 -78 0 -50 -4 -75 -12 -78 -10 -4 -10 -7 0
-18 15 -17 18 -519 2 -519 -5 0 -10 -7 -10 -15 0 -8 5 -15 10 -15 16 0 13
-303 -2 -319 -10 -11 -10 -14 0 -18 14 -6 16 -33 2 -33 -5 0 -10 -7 -10 -15 0
-8 5 -15 10 -15 6 0 10 -72 10 -195 0 -184 -1 -196 -20 -207 -11 -7 -20 -18
-20 -25 0 -16 12 -17 28 -1 9 9 12 6 12 -15 0 -23 -4 -27 -30 -27 -17 0 -39 6
-50 12 -15 10 -22 10 -32 0 -16 -16 -130 -16 -146 0 -10 10 -14 10 -21 0 -5
-8 -22 -12 -42 -10 -25 2 -37 10 -47 31 -7 15 -17 27 -23 27 -13 0 -11 -34 3
-48 22 -22 -34 -13 -58 9 -27 25 -65 20 -44 -6 10 -13 8 -15 -13 -15 -14 0
-29 5 -33 11 -4 8 -9 8 -17 0 -23 -23 -77 -6 -77 24 0 5 14 16 30 23 31 14 41
42 15 42 -8 0 -15 -3 -15 -7 0 -13 -49 -32 -56 -22 -3 5 -9 7 -14 4 -6 -4 -5
-14 2 -25 9 -14 9 -22 -1 -34 -11 -13 -36 -16 -128 -16 -100 0 -114 2 -103 15
9 10 39 15 108 17 l97 3 3 48 c3 46 21 63 38 36 4 -8 9 -8 17 0 6 6 42 11 81
11 70 0 106 15 106 45 0 7 9 20 20 30 11 10 20 24 20 30 0 7 9 15 21 18 18 5
19 8 7 26 -10 16 -10 23 0 33 6 6 12 23 12 37 0 19 3 22 12 13 22 -22 28 -12
28 50 0 48 3 59 12 50 16 -16 28 -15 28 3 0 8 -4 15 -10 15 -5 0 -10 16 -10
35 0 19 5 35 10 35 6 0 10 9 10 20 0 13 7 20 20 20 21 0 27 15 10 25 -5 3 -10
44 -10 90 0 46 5 87 10 90 6 3 10 44 10 91 0 49 4 84 10 84 6 0 10 7 10 15 0
8 -4 15 -10 15 -6 0 -10 27 -10 60 0 33 -4 60 -10 60 -6 0 -10 31 -10 74 0 42
-5 78 -10 81 -8 5 -8 11 0 20 8 9 8 15 0 20 -5 3 -10 15 -10 26 0 10 -4 19
-10 19 -5 0 -10 11 -10 25 0 18 5 25 20 25 11 0 20 5 20 10 0 6 7 10 15 10 8
0 15 -4 15 -10 0 -5 7 -10 15 -10 8 0 15 7 15 15 0 8 -4 15 -10 15 -5 0 -10 9
-10 20 0 22 -15 27 -26 9 -4 -8 -9 -8 -17 0 -14 14 -47 14 -47 1 0 -6 9 -14
19 -18 19 -7 18 -8 -5 -19 -22 -10 -24 -9 -24 12 0 13 -4 27 -10 30 -5 3 -10
17 -10 31 0 13 5 24 10 24 6 0 10 7 10 15 0 18 -12 19 -28 3 -9 -9 -12 -8 -12
4 0 9 9 18 21 21 13 4 20 12 17 24 -5 27 -37 28 -47 1 -9 -21 -10 -21 -10 10
-1 17 -4 32 -8 32 -11 0 -33 50 -33 72 0 10 -15 24 -37 35 -21 9 -41 22 -45
27 -5 7 -11 7 -20 -2 -15 -15 -54 -16 -63 -2 -5 8 -12 7 -22 -1 -11 -10 -19
-10 -33 -1 -12 7 -21 8 -25 2 -3 -6 -22 -10 -41 -10 l-34 0 0 53 c0 29 5 58
11 64 8 8 8 13 0 17 -6 4 -11 23 -11 42 l0 34 227 0 c177 0 224 -3 215 -12z
m-4537 -254 l-105 -105 0 71 c0 72 12 99 42 100 7 1 47 36 88 80 l75 78 3 -59
3 -59 -106 -106z m4960 -59 l-85 -87 0 72 0 71 83 83 82 83 3 -68 3 -68 -86
-86z m-4960 -101 l-105 -105 0 60 0 60 103 104 102 104 3 -59 3 -58 -106 -106z
m865 -17 l0 -203 -30 -29 -30 -29 0 -553 0 -554 -97 3 -97 3 -27 50 c-15 28
-28 58 -28 67 -1 10 -10 33 -21 53 -11 20 -20 47 -20 60 0 14 -4 25 -10 25 -5
0 -10 14 -10 30 0 17 -4 30 -10 30 -5 0 -10 14 -10 30 0 17 -4 30 -10 30 -5 0
-10 23 -10 50 0 28 -4 50 -10 50 -6 0 -10 30 -10 70 0 40 -4 70 -10 70 -6 0
-10 65 -10 175 0 110 4 175 10 175 6 0 10 27 10 60 0 33 4 60 10 60 6 0 10 23
10 50 0 28 5 50 10 50 6 0 10 14 10 30 0 17 5 30 10 30 6 0 10 14 10 30 0 17
5 30 10 30 6 0 10 13 10 29 0 17 5 33 10 36 6 3 10 14 10 24 0 15 48 119 73
159 6 8 44 12 133 12 l124 0 0 -203z m400 -481 l0 -685 -37 -3 -38 -3 -3 -97
-3 -98 -84 0 -85 0 0 553 -1 552 -24 28 c-23 26 -45 35 -45 19 0 -4 5 -13 12
-20 9 -9 -1 -12 -46 -12 -51 0 -57 2 -46 15 7 8 22 15 33 15 11 0 29 7 39 17
16 14 18 35 18 210 l0 193 155 0 155 0 0 -684z m120 -1 l0 -685 -45 0 -45 0 0
685 0 685 45 0 45 0 0 -685z m138 660 c12 -14 22 -32 22 -40 0 -8 5 -15 10
-15 6 0 10 -9 10 -20 0 -11 5 -20 10 -20 6 0 10 -9 10 -20 0 -11 5 -20 10 -20
6 0 10 -18 10 -40 0 -22 5 -40 10 -40 6 0 10 -32 10 -75 0 -43 -4 -75 -10 -75
-5 0 -10 -25 -10 -55 0 -30 5 -55 10 -55 6 0 10 -13 10 -30 0 -16 5 -30 10
-30 6 0 10 -8 10 -18 0 -10 9 -24 20 -32 11 -8 20 -21 20 -30 0 -9 9 -22 20
-30 11 -8 20 -20 20 -28 0 -7 11 -24 25 -37 l24 -25 386 0 385 0 0 -350 c0
-194 4 -350 9 -350 5 0 15 7 22 16 7 9 23 20 36 25 l23 9 0 325 0 325 175 0
175 0 0 -273 c0 -261 -1 -275 -20 -292 -11 -10 -20 -27 -20 -39 0 -31 49 -76
84 -76 31 0 66 24 66 47 0 7 5 13 10 13 6 0 10 7 10 15 0 8 -3 15 -7 15 -27 0
-33 64 -33 322 l0 268 277 0 277 0 -28 -29 c-36 -38 -76 -117 -76 -152 0 -15
-4 -31 -10 -34 -6 -3 -10 -48 -10 -99 0 -107 -4 -113 -101 -160 -32 -14 -62
-33 -69 -41 -7 -8 -17 -15 -23 -15 -15 0 -87 -71 -87 -85 0 -6 -11 -22 -25
-35 -26 -25 -55 -74 -55 -95 0 -6 -6 -23 -12 -38 l-13 -27 -400 0 c-414 0
-425 1 -425 40 0 21 -47 115 -65 130 -8 7 -15 17 -15 23 0 16 -72 87 -87 87
-7 0 -13 4 -13 9 0 5 -24 20 -52 35 -52 25 -52 26 -20 26 22 0 32 5 32 15 0
18 -42 20 -69 3 -16 -9 -23 -7 -45 15 -14 14 -26 33 -26 42 0 8 -4 15 -10 15
-6 0 -10 45 -10 115 l0 115 211 0 c164 0 210 3 207 13 -6 15 -406 23 -421 8
-7 -7 -18 6 -33 36 -22 42 -49 72 -66 73 -16 0 -7 -26 12 -40 11 -8 20 -22 20
-32 0 -10 5 -18 10 -18 6 0 10 -9 10 -20 0 -11 5 -20 10 -20 6 0 10 -47 10
-120 0 -73 4 -120 10 -120 6 0 10 -7 10 -15 0 -20 65 -85 85 -85 8 0 15 -4 15
-10 0 -5 9 -10 20 -10 11 0 20 -4 20 -10 0 -5 9 -10 20 -10 11 0 20 -4 20 -8
0 -5 12 -15 27 -23 38 -19 73 -50 73 -64 0 -7 9 -20 20 -30 11 -10 20 -26 20
-37 0 -10 3 -18 8 -18 9 0 32 -49 32 -70 0 -9 5 -21 12 -28 9 -9 -74 -12 -375
-12 l-387 0 0 100 0 100 -50 0 -50 0 0 685 0 685 43 0 c34 0 48 -6 65 -25z
m1022 -340 l0 -365 -381 0 c-397 0 -409 1 -409 42 0 8 -9 20 -20 28 -11 8 -20
21 -20 30 0 9 -9 22 -20 30 -11 8 -20 22 -20 32 0 10 -4 18 -10 18 -5 0 -10
14 -10 30 0 17 -4 30 -10 30 -5 0 -10 20 -10 45 0 25 5 45 10 45 6 0 10 35 10
85 0 50 -4 85 -10 85 -5 0 -10 18 -10 40 0 22 -4 40 -10 40 -5 0 -10 9 -10 20
0 11 -4 20 -10 20 -5 0 -10 9 -10 20 0 11 -4 20 -10 20 -5 0 -10 5 -10 12 0 6
-10 22 -22 35 l-21 23 506 0 507 0 0 -365z m280 0 l0 -365 -95 0 -95 0 0 365
0 365 95 0 95 0 0 -365z m160 0 l0 -365 -65 0 -65 0 0 365 0 365 65 0 65 0 0
-365z m896 336 c-32 -33 -76 -116 -76 -142 0 -10 -4 -21 -10 -24 -6 -3 -10
-48 -10 -100 0 -52 4 -97 10 -100 6 -3 10 -21 10 -40 0 -19 -4 -37 -10 -40 -5
-3 -10 -14 -10 -24 0 -22 -47 -116 -65 -131 -8 -7 -15 -17 -15 -23 0 -6 -14
-26 -32 -44 l-32 -33 -283 0 -283 0 0 365 0 365 417 0 417 0 -28 -29z m124
-174 l0 -203 -30 -29 -30 -29 0 -553 0 -553 -85 0 -84 0 -3 88 c-3 87 -3 87
-30 90 l-28 3 0 350 c0 356 1 364 39 411 22 28 61 110 61 129 0 10 5 21 10 24
6 3 10 21 10 40 0 19 -4 37 -10 40 -6 3 -10 48 -10 100 0 52 4 97 10 100 6 3
10 14 10 24 0 26 44 109 76 142 20 21 37 29 61 29 l33 0 0 -203z m391 148 c15
-27 28 -60 28 -72 1 -12 6 -25 11 -28 6 -3 10 -15 10 -26 0 -10 5 -19 10 -19
6 0 10 -13 10 -30 0 -16 5 -30 10 -30 6 0 10 -13 10 -30 0 -16 5 -30 10 -30 6
0 10 -13 10 -30 0 -16 5 -30 10 -30 6 0 10 -20 10 -44 0 -25 5 -48 10 -51 6
-3 10 -37 10 -76 0 -39 4 -69 10 -69 6 0 10 -58 10 -155 0 -97 -4 -155 -10
-155 -6 0 -10 -33 -10 -79 0 -44 -4 -83 -10 -86 -5 -3 -10 -22 -10 -41 0 -19
-4 -34 -10 -34 -5 0 -10 -18 -10 -39 0 -22 -4 -43 -10 -46 -5 -3 -10 -15 -10
-25 0 -11 -9 -35 -20 -55 -11 -20 -20 -41 -20 -48 0 -6 -19 -51 -42 -99 l-43
-87 -102 -1 -103 0 0 563 0 563 -30 29 -30 29 0 193 0 194 137 -3 137 -3 27
-50z m564 -190 l-85 -87 0 62 0 61 83 83 82 83 3 -58 3 -58 -86 -86z m-4960
-101 l-105 -105 0 60 0 60 103 104 102 104 3 -59 3 -58 -106 -106z m4960 -59
l-85 -87 0 62 0 61 83 83 82 83 3 -58 3 -58 -86 -86z m-4960 -441 l-105 -105
0 230 0 230 103 104 102 104 3 -229 2 -229 -105 -105z m4960 -60 l-85 -86 0
232 0 231 83 83 82 83 3 -228 2 -228 -85 -87z m-845 471 c11 -13 4 -15 -55
-15 -59 0 -66 2 -55 15 7 9 29 15 55 15 26 0 48 -6 55 -15z m-3248 -82 c3 -37
4 -38 46 -41 33 -2 42 0 42 12 0 11 -10 16 -30 16 -25 0 -30 4 -30 25 0 23 4
25 45 25 l45 0 0 -595 0 -595 -76 0 c-65 0 -75 2 -65 14 8 10 9 16 1 21 -13 8
-13 72 1 81 8 4 8 9 0 17 -6 6 -11 30 -11 53 0 24 5 46 11 50 8 4 8 9 0 17 -6
6 -11 25 -11 42 0 17 5 36 11 42 8 8 8 13 0 17 -14 9 -14 89 0 103 8 8 8 13 0
17 -6 4 -11 22 -11 41 0 19 5 37 11 41 8 4 8 9 0 17 -6 6 -11 30 -11 53 0 24
5 46 11 50 8 4 8 9 0 17 -14 14 -14 74 0 83 8 4 8 9 0 17 -14 14 -14 90 0 104
8 8 8 13 0 17 -14 9 -14 93 0 102 8 4 8 9 0 17 -14 14 -14 74 0 83 8 4 8 9 0
17 -16 16 -14 57 3 57 10 0 16 -13 18 -37z m3171 -38 c54 0 65 18 12 23 -30 3
-35 7 -35 28 0 22 4 24 45 24 l45 0 0 -80 c0 -46 5 -89 12 -100 10 -15 10 -22
0 -32 -15 -15 -16 -74 -1 -84 8 -4 8 -9 0 -17 -6 -6 -11 -30 -11 -53 0 -24 5
-46 11 -50 8 -4 8 -9 0 -17 -15 -15 -14 -63 1 -87 10 -15 10 -22 0 -32 -15
-15 -16 -70 -1 -85 8 -8 8 -13 0 -17 -15 -10 -14 -62 1 -86 10 -15 10 -22 0
-32 -15 -15 -16 -74 -1 -84 8 -4 8 -9 0 -17 -15 -15 -14 -63 1 -87 10 -15 10
-22 0 -32 -15 -15 -16 -74 -1 -84 8 -4 8 -9 0 -17 -15 -15 -14 -70 1 -85 9 -9
-5 -12 -65 -12 l-77 0 1 598 c1 328 5 579 8 557 l6 -40 48 0z m-353 -500 l0
-335 -55 0 -55 0 0 258 c0 279 2 292 55 342 14 13 25 29 25 35 0 10 19 35 27
35 2 0 3 -151 3 -335z m-3685 29 l-105 -105 0 70 0 70 103 104 102 104 3 -69
3 -68 -106 -106z m4960 -59 l-85 -87 0 72 0 71 83 83 82 83 3 -68 3 -68 -86
-86z m-4960 -101 l-105 -105 0 60 0 60 103 104 102 104 3 -59 3 -58 -106 -106z
m3545 2 l0 -205 -37 -3 -38 -3 -3 -87 -3 -88 -154 0 c-128 0 -155 2 -155 14 0
8 5 18 10 21 6 3 10 14 10 24 0 26 26 74 55 101 14 13 25 28 25 34 0 14 41 56
56 56 6 0 17 7 24 15 7 8 37 27 69 41 31 15 73 43 94 63 l37 35 0 93 c0 51 2
93 5 93 3 0 5 -92 5 -204z m1415 -61 l-85 -87 0 62 0 61 83 83 82 83 3 -58 3
-58 -86 -86z m-4960 -101 l-105 -105 0 60 0 60 103 104 102 104 3 -59 3 -58
-106 -106z m4960 -59 l-85 -87 0 62 0 61 83 83 82 83 3 -58 3 -58 -86 -86z
m-4960 -441 l-105 -106 0 231 0 230 103 104 102 104 3 -228 2 -228 -105 -107z
m3070 504 c16 -36 -3 -68 -40 -68 -36 0 -55 16 -55 45 0 29 19 45 55 45 22 0
33 -6 40 -22z m1880 -573 l-95 -95 -232 0 -233 0 127 125 126 125 116 0 116 0
0 116 0 115 83 83 82 83 3 -229 2 -228 -95 -95z m-3495 500 c-7 -8 -17 -15
-24 -15 -6 0 -57 -46 -113 -102 l-103 -103 0 118 0 117 126 0 c111 0 125 -2
114 -15z m-202 -362 l-233 -233 -75 0 -75 0 125 125 c103 103 130 125 154 125
39 0 66 26 66 64 0 26 17 48 102 133 57 57 108 103 114 103 6 0 19 10 30 21
19 21 19 21 22 -42 l3 -63 -233 -233z m2352 354 c0 -1 -25 -27 -55 -57 l-55
-54 0 57 0 57 55 0 c30 0 55 -1 55 -3z m140 -19 c0 -22 -94 -128 -114 -128 -6
0 -39 -28 -73 -62 l-63 -62 0 64 0 65 72 72 c72 72 73 73 125 73 48 0 53 -2
53 -22z m-192 -375 l-193 -193 -75 0 -75 0 125 125 c69 69 131 125 138 125 7
0 15 8 19 18 8 22 124 142 138 142 6 0 33 23 60 50 l50 51 3 -62 3 -63 -193
-193z m-2220 -40 l-153 -153 -65 0 -65 0 215 215 215 215 3 -62 3 -62 -153
-153z m-148 244 c0 -7 -5 -18 -11 -24 -8 -8 -8 -13 0 -17 15 -9 14 -49 -1 -64
-19 -19 -212 -16 -228 3 -11 13 -7 15 25 15 29 0 38 5 42 20 4 16 8 18 19 9
17 -14 32 -3 17 12 -7 7 -7 18 1 35 10 21 17 24 74 24 44 0 62 -4 62 -13z
m422 2 c-30 -12 -19 -29 19 -29 23 0 29 4 29 21 0 19 2 20 17 8 13 -11 17 -11
20 -1 6 15 433 18 433 2 0 -5 7 -10 15 -10 8 0 15 5 15 10 0 16 207 13 213 -2
4 -10 7 -10 18 -1 9 9 16 9 25 2 8 -7 14 -7 19 1 8 13 132 13 141 -1 4 -8 9
-8 17 0 15 15 83 14 107 -1 15 -10 22 -10 32 0 6 6 27 12 46 12 28 0 32 -3 23
-13 -8 -11 -7 -18 7 -31 22 -19 32 -12 32 21 0 33 23 29 38 -7 14 -31 42 -41
42 -15 0 8 -4 15 -10 15 -5 0 -10 7 -10 15 0 12 13 15 57 15 44 0 54 -3 45
-12 -17 -17 -15 -28 6 -28 11 0 27 9 37 20 13 14 31 20 62 20 36 0 43 -3 43
-20 0 -11 5 -20 11 -20 6 0 13 9 16 20 5 18 14 20 94 20 53 0 97 -5 109 -12
15 -10 22 -10 32 0 17 17 58 15 58 -3 0 -9 -9 -15 -23 -15 -33 0 -40 -10 -21
-32 13 -14 20 -15 31 -7 10 9 13 4 13 -25 l0 -36 -104 0 c-65 0 -107 4 -112
11 -4 8 -9 8 -17 0 -7 -7 -14 -7 -23 0 -8 7 -14 7 -19 -1 -8 -13 -132 -13
-140 0 -5 8 -11 7 -21 -1 -12 -9 -20 -9 -40 1 -18 10 -27 11 -35 3 -9 -9 -17
-8 -30 0 -14 9 -21 9 -31 -1 -8 -8 -58 -12 -166 -12 -128 0 -153 2 -143 13 8
11 6 18 -9 32 -21 19 -42 13 -22 -7 8 -8 9 -15 1 -25 -14 -17 -214 -19 -225
-2 -4 8 -9 8 -17 0 -19 -19 -53 -12 -82 19 -30 31 -49 37 -60 19 -4 -6 2 -13
14 -16 40 -10 24 -33 -23 -33 -37 0 -45 4 -49 22 l-6 22 -24 -22 c-20 -19 -34
-22 -113 -22 -58 0 -95 4 -103 13 -11 10 -14 10 -18 0 -3 -10 -42 -13 -148
-13 -106 0 -144 3 -148 13 -3 9 -7 9 -20 -2 -15 -11 -17 -11 -17 1 0 8 6 20
13 27 10 11 10 14 0 18 -7 3 -13 20 -13 39 l0 34 58 -1 c45 0 52 -2 34 -10z
m2208 -4 c-10 -12 -16 -13 -26 -4 -20 16 -18 19 12 19 22 0 25 -2 14 -15z
m118 -12 c6 -15 12 -36 11 -47 0 -19 -1 -19 -10 3 l-9 24 -28 -24 c-15 -13
-29 -25 -31 -26 -1 -1 0 -7 4 -13 5 -9 10 -9 18 -1 6 6 17 11 25 11 12 0 12
-3 2 -15 -15 -18 -76 -20 -113 -2 -22 10 -27 18 -26 47 1 20 3 26 6 15 10 -47
12 -49 33 -30 14 13 17 22 10 29 -16 16 29 56 64 56 24 0 34 -6 44 -27z m-3
-131 l179 -2 -124 -125 -125 -125 -235 0 -235 0 175 175 175 175 5 -47 5 -48
180 -3z m-2425 8 c0 -5 19 -10 42 -10 l43 0 -125 -125 -125 -125 -65 0 -65 0
135 135 c123 124 160 152 160 125z m-1384 -135 l-126 -125 -50 0 c-28 0 -50 5
-50 10 0 6 51 62 113 124 l112 114 63 1 64 1 -126 -125z m180 0 l-125 -125
-71 0 -71 0 123 124 123 125 73 0 73 1 -125 -125z m161 0 l-127 -125 -60 0
-61 0 123 124 123 125 65 0 64 1 -127 -125z m503 0 l-125 -125 -233 0 -232 0
122 125 122 125 236 0 235 0 -125 -125z m1120 100 c-13 -14 -28 -25 -34 -25
-6 0 -56 -45 -111 -100 l-100 -100 -235 0 -235 0 125 125 125 125 244 0 244 0
-23 -25z m60 -100 l-125 -125 -75 0 -75 0 85 85 c47 47 89 85 95 85 6 0 29 18
50 40 38 39 41 40 104 40 l66 0 -125 -125z m160 0 l-125 -125 -65 0 -65 0 125
125 125 125 65 0 65 0 -125 -125z m180 0 l-125 -125 -75 0 -75 0 125 125 125
125 75 0 75 0 -125 -125z m500 0 l-125 -125 -235 0 -235 0 125 125 125 125
235 0 235 0 -125 -125z m160 0 l-125 -125 -65 0 -65 0 125 125 125 125 65 0
65 0 -125 -125z m160 0 l-125 -125 -65 0 -65 0 125 125 125 125 65 0 65 0
-125 -125z m840 0 l-125 -125 -65 0 -65 0 125 125 125 125 65 0 65 0 -125
-125z m180 0 l-125 -125 -75 0 -75 0 125 125 125 125 75 0 75 0 -125 -125z
m160 0 l-124 -125 -65 0 -66 0 125 125 125 125 64 0 64 0 -123 -125z m549
-111 c-8 -9 -33 -14 -76 -14 l-65 0 74 73 73 74 3 -59 c2 -35 -2 -66 -9 -74z"/>
<path d="M1874 2365 c-9 -23 5 -35 41 -35 46 0 52 15 14 34 -40 20 -48 20 -55
1z"/>
<path d="M2296 2373 c-11 -11 -6 -23 9 -23 8 0 15 4 15 9 0 13 -16 22 -24 14z"/>
<path d="M1750 2345 c0 -9 9 -15 25 -15 16 0 25 6 25 15 0 9 -9 15 -25 15 -16
0 -25 -6 -25 -15z"/>
<path d="M2070 2344 c0 -17 22 -14 28 4 2 7 -3 12 -12 12 -9 0 -16 -7 -16 -16z"/>
<path d="M2112 2348 c6 -18 28 -21 28 -4 0 9 -7 16 -16 16 -9 0 -14 -5 -12
-12z"/>
<path d="M2176 2353 c-13 -13 -6 -63 9 -63 10 0 15 10 15 29 0 30 -12 46 -24
34z"/>
<path d="M2030 2325 c0 -8 7 -15 15 -15 8 0 15 7 15 15 0 8 -7 15 -15 15 -8 0
-15 -7 -15 -15z"/>
<path d="M2252 2328 c5 -15 37 -18 41 -3 1 6 -9 12 -22 13 -16 3 -22 -1 -19
-10z"/>
<path d="M1650 2305 c0 -8 7 -15 15 -15 8 0 15 7 15 15 0 8 -7 15 -15 15 -8 0
-15 -7 -15 -15z"/>
<path d="M1812 2308 c7 -20 48 -23 48 -4 0 11 -9 16 -26 16 -16 0 -24 -5 -22
-12z"/>
<path d="M1937 2313 c-14 -13 -6 -23 18 -23 16 0 25 6 25 15 0 15 -31 21 -43
8z"/>
<path d="M2090 2305 c0 -8 7 -15 15 -15 8 0 15 7 15 15 0 8 -7 15 -15 15 -8 0
-15 -7 -15 -15z"/>
<path d="M1772 2288 c6 -18 28 -21 28 -4 0 9 -7 16 -16 16 -9 0 -14 -5 -12
-12z"/>
<path d="M2030 2285 c0 -8 7 -15 15 -15 8 0 15 7 15 15 0 8 -7 15 -15 15 -8 0
-15 -7 -15 -15z"/>
<path d="M2230 2280 c0 -11 -4 -20 -10 -20 -5 0 -10 -7 -10 -15 0 -8 6 -15 13
-15 17 0 42 45 33 59 -11 18 -26 13 -26 -9z"/>
<path d="M1690 2254 c0 -31 23 -28 28 4 2 15 -2 22 -12 22 -11 0 -16 -9 -16
-26z"/>
<path d="M1890 2265 c0 -8 7 -15 15 -15 8 0 15 7 15 15 0 8 -7 15 -15 15 -8 0
-15 -7 -15 -15z"/>
<path d="M1750 2251 c0 -6 5 -13 10 -16 6 -3 10 -17 10 -30 0 -13 -4 -27 -10
-30 -14 -9 -12 -25 3 -25 14 0 57 72 57 96 0 9 -12 14 -35 14 -19 0 -35 -4
-35 -9z"/>
<path d="M2066 2245 c-10 -7 -15 -19 -11 -25 5 -8 10 -8 20 0 10 8 15 8 20 0
7 -12 45 15 45 32 0 13 -53 9 -74 -7z"/>
<path d="M2290 2232 c0 -13 36 -43 43 -36 9 9 -16 44 -30 44 -7 0 -13 -4 -13
-8z"/>
<path d="M1690 2203 c1 -22 23 -53 39 -53 17 0 13 35 -7 53 -24 22 -32 21 -32
0z"/>
<path d="M1830 2205 c0 -8 7 -15 15 -15 8 0 15 7 15 15 0 8 -7 15 -15 15 -8 0
-15 -7 -15 -15z"/>
<path d="M1870 2211 c0 -5 7 -15 16 -22 9 -7 20 -23 25 -36 10 -27 29 -31 29
-5 -1 31 -70 95 -70 63z"/>
<path d="M1932 2208 c6 -18 28 -21 28 -4 0 9 -7 16 -16 16 -9 0 -14 -5 -12
-12z"/>
<path d="M1970 2204 c0 -9 5 -14 12 -12 18 6 21 28 4 28 -9 0 -16 -7 -16 -16z"/>
<path d="M2012 2208 c6 -18 28 -21 28 -4 0 9 -7 16 -16 16 -9 0 -14 -5 -12
-12z"/>
<path d="M1990 2165 c0 -8 7 -15 15 -15 8 0 15 7 15 15 0 8 -7 15 -15 15 -8 0
-15 -7 -15 -15z"/>
<path d="M1848 2146 c-22 -16 -23 -36 -3 -36 8 0 15 4 15 9 0 5 9 11 21 14 12
3 18 10 14 16 -8 15 -26 13 -47 -3z"/>
<path d="M1970 2125 c0 -8 7 -15 15 -15 8 0 15 7 15 15 0 8 -7 15 -15 15 -8 0
-15 -7 -15 -15z"/>
<path d="M1670 2112 c0 -10 33 -42 43 -42 12 0 8 21 -7 36 -16 15 -36 19 -36
6z"/>
<path d="M1790 2105 c0 -8 7 -15 15 -15 8 0 15 7 15 15 0 8 -7 15 -15 15 -8 0
-15 -7 -15 -15z"/>
<path d="M1634 2087 c-15 -40 12 -71 33 -38 10 16 8 22 -7 36 -18 16 -20 16
-26 2z"/>
<path d="M1870 2085 c0 -8 7 -15 15 -15 8 0 15 7 15 15 0 8 -7 15 -15 15 -8 0
-15 -7 -15 -15z"/>
<path d="M1730 2065 c0 -8 7 -15 15 -15 8 0 15 7 15 15 0 8 -7 15 -15 15 -8 0
-15 -7 -15 -15z"/>
<path d="M1790 2065 c0 -8 7 -15 15 -15 8 0 15 7 15 15 0 8 -7 15 -15 15 -8 0
-15 -7 -15 -15z"/>
<path d="M1930 2065 c0 -8 7 -15 15 -15 8 0 15 7 15 15 0 8 -7 15 -15 15 -8 0
-15 -7 -15 -15z"/>
<path d="M1690 2045 c0 -8 7 -15 15 -15 8 0 15 7 15 15 0 8 -7 15 -15 15 -8 0
-15 -7 -15 -15z"/>
<path d="M1830 2025 c0 -8 7 -15 15 -15 8 0 15 7 15 15 0 8 -7 15 -15 15 -8 0
-15 -7 -15 -15z"/>
<path d="M1882 2020 c-15 -24 -15 -30 -1 -30 12 0 38 29 39 43 0 15 -26 6 -38
-13z"/>
<path d="M1936 2033 c-11 -11 -6 -23 9 -23 8 0 15 4 15 9 0 13 -16 22 -24 14z"/>
<path d="M1730 2002 c0 -11 9 -27 20 -37 20 -18 21 -18 27 3 3 12 9 22 14 22
5 0 9 7 9 15 0 8 -7 15 -15 15 -8 0 -15 -5 -15 -12 0 -9 -3 -9 -12 0 -17 17
-28 15 -28 -6z"/>
<path d="M1797 1973 c-13 -13 -7 -34 18 -58 40 -41 64 -29 25 13 -11 12 -20
28 -20 37 0 16 -12 20 -23 8z"/>
<path d="M1730 1925 c0 -8 7 -15 15 -15 8 0 15 7 15 15 0 8 -7 15 -15 15 -8 0
-15 -7 -15 -15z"/>
<path d="M1870 1915 c0 -28 14 -32 36 -11 21 22 17 36 -11 36 -20 0 -25 -5
-25 -25z"/>
<path d="M1650 1885 c0 -8 7 -15 15 -15 8 0 15 7 15 15 0 8 -7 15 -15 15 -8 0
-15 -7 -15 -15z"/>
<path d="M1730 1885 c0 -8 7 -15 15 -15 8 0 15 7 15 15 0 8 -7 15 -15 15 -8 0
-15 -7 -15 -15z"/>
<path d="M1770 1845 c0 -8 7 -15 15 -15 8 0 15 7 15 15 0 8 -7 15 -15 15 -8 0
-15 -7 -15 -15z"/>
<path d="M1830 1825 c0 -8 7 -15 15 -15 8 0 15 7 15 15 0 8 -7 15 -15 15 -8 0
-15 -7 -15 -15z"/>
<path d="M1870 1825 c0 -8 7 -15 15 -15 8 0 15 7 15 15 0 8 -7 15 -15 15 -8 0
-15 -7 -15 -15z"/>
<path d="M1730 1805 c0 -9 9 -15 25 -15 16 0 25 6 25 15 0 9 -9 15 -25 15 -16
0 -25 -6 -25 -15z"/>
<path d="M1670 1775 c0 -16 6 -25 15 -25 9 0 15 9 15 25 0 16 -6 25 -15 25 -9
0 -15 -9 -15 -25z"/>
<path d="M1790 1775 c0 -16 6 -25 15 -25 9 0 15 9 15 25 0 16 -6 25 -15 25 -9
0 -15 -9 -15 -25z"/>
<path d="M1830 1785 c0 -8 7 -15 15 -15 8 0 15 7 15 15 0 8 -7 15 -15 15 -8 0
-15 -7 -15 -15z"/>
<path d="M1730 1755 c0 -17 5 -25 13 -22 6 2 12 12 12 22 0 10 -6 20 -12 23
-8 2 -13 -6 -13 -23z"/>
<path d="M1863 1745 c-20 -22 -15 -37 10 -33 14 2 22 10 22 22 0 24 -16 30
-32 11z"/>
<path d="M1690 1705 c0 -8 7 -15 15 -15 8 0 15 7 15 15 0 8 -7 15 -15 15 -8 0
-15 -7 -15 -15z"/>
<path d="M1737 1713 c-14 -13 -6 -23 18 -23 16 0 25 6 25 15 0 15 -31 21 -43
8z"/>
<path d="M1770 1663 c1 -37 50 -74 50 -38 0 8 -4 15 -10 15 -5 0 -10 9 -10 20
0 11 -7 20 -15 20 -8 0 -15 -8 -15 -17z"/>
<path d="M1852 1629 c2 -19 8 -33 13 -31 15 3 12 55 -3 60 -10 3 -13 -5 -10
-29z"/>
<path d="M1730 1625 c0 -8 7 -15 15 -15 8 0 15 7 15 15 0 8 -7 15 -15 15 -8 0
-15 -7 -15 -15z"/>
<path d="M1710 1545 c0 -8 7 -15 15 -15 8 0 15 7 15 15 0 8 -7 15 -15 15 -8 0
-15 -7 -15 -15z"/>
<path d="M1710 1505 c0 -8 7 -15 15 -15 8 0 15 7 15 15 0 8 -7 15 -15 15 -8 0
-15 -7 -15 -15z"/>
<path d="M1770 1495 c0 -16 6 -25 15 -25 9 0 15 9 15 25 0 16 -6 25 -15 25 -9
0 -15 -9 -15 -25z"/>
<path d="M1710 1445 c0 -8 7 -15 15 -15 8 0 15 7 15 15 0 8 -7 15 -15 15 -8 0
-15 -7 -15 -15z"/>
<path d="M1663 1425 c-7 -8 -13 -17 -13 -20 0 -10 28 -35 39 -35 15 0 14 27
-1 33 -10 4 -10 6 0 6 6 1 12 8 12 16 0 19 -21 19 -37 0z"/>
<path d="M1710 1365 c0 -8 7 -15 15 -15 8 0 15 7 15 15 0 8 -7 15 -15 15 -8 0
-15 -7 -15 -15z"/>
<path d="M1810 1365 c0 -8 7 -15 15 -15 8 0 15 7 15 15 0 8 -7 15 -15 15 -8 0
-15 -7 -15 -15z"/>
<path d="M1750 1325 c0 -9 9 -15 25 -15 16 0 25 6 25 15 0 9 -9 15 -25 15 -16
0 -25 -6 -25 -15z"/>
<path d="M1810 1325 c0 -8 7 -15 15 -15 8 0 15 7 15 15 0 8 -7 15 -15 15 -8 0
-15 -7 -15 -15z"/>
<path d="M1710 1264 c0 -17 22 -14 28 4 2 7 -3 12 -12 12 -9 0 -16 -7 -16 -16z"/>
<path d="M1753 1260 c-3 -11 -9 -20 -14 -20 -5 0 -9 -7 -9 -15 0 -22 16 -18
45 10 30 31 32 45 4 45 -12 0 -23 -8 -26 -20z"/>
<path d="M1830 1245 c0 -9 5 -15 11 -13 6 2 11 8 11 13 0 5 -5 11 -11 13 -6 2
-11 -4 -11 -13z"/>
<path d="M1670 1215 c0 -16 6 -25 15 -25 9 0 15 9 15 25 0 16 -6 25 -15 25 -9
0 -15 -9 -15 -25z"/>
<path d="M1810 1205 c0 -8 7 -15 15 -15 8 0 15 7 15 15 0 8 -7 15 -15 15 -8 0
-15 -7 -15 -15z"/>
<path d="M1710 1185 c0 -8 7 -15 15 -15 8 0 15 7 15 15 0 8 -7 15 -15 15 -8 0
-15 -7 -15 -15z"/>
<path d="M1770 1165 c0 -8 7 -15 15 -15 8 0 15 7 15 15 0 8 -7 15 -15 15 -8 0
-15 -7 -15 -15z"/>
<path d="M1670 1125 c0 -8 6 -15 13 -15 8 0 7 -4 -3 -10 -13 -8 -12 -12 7 -31
20 -20 23 -21 37 -6 21 20 20 24 -9 52 -27 28 -45 32 -45 10z"/>
<path d="M1770 1125 c0 -8 7 -15 15 -15 8 0 15 7 15 15 0 8 -7 15 -15 15 -8 0
-15 -7 -15 -15z"/>
<path d="M1830 1109 c0 -16 29 -41 40 -34 6 4 5 13 -3 25 -13 21 -37 27 -37 9z"/>
<path d="M1697 1033 c-13 -12 -7 -43 8 -43 9 0 15 9 15 25 0 24 -10 32 -23 18z"/>
<path d="M1830 1025 c0 -8 7 -15 15 -15 8 0 15 7 15 15 0 8 -7 15 -15 15 -8 0
-15 -7 -15 -15z"/>
<path d="M1750 985 c0 -8 9 -15 20 -15 13 0 20 -7 20 -20 0 -11 7 -20 15 -20
19 0 20 37 1 56 -19 19 -56 18 -56 -1z"/>
<path d="M1650 965 c0 -8 7 -15 15 -15 8 0 15 7 15 15 0 8 -7 15 -15 15 -8 0
-15 -7 -15 -15z"/>
<path d="M1850 961 c0 -11 -4 -23 -10 -26 -16 -10 -11 -25 8 -25 25 0 56 35
49 55 -9 23 -47 19 -47 -4z"/>
<path d="M1637 934 c-8 -8 1 -24 14 -24 5 0 9 7 9 15 0 15 -12 20 -23 9z"/>
<path d="M1703 925 c-16 -17 -17 -35 -2 -35 14 0 39 25 39 39 0 15 -23 13 -37
-4z"/>
<path d="M1634 885 c-3 -8 -3 -19 1 -25 11 -18 25 -11 25 15 0 27 -17 34 -26
10z"/>
<path d="M1890 865 c0 -11 7 -15 23 -13 12 2 22 8 22 13 0 6 -10 11 -22 13
-16 2 -23 -2 -23 -13z"/>
<path d="M1730 835 c0 -16 6 -25 15 -25 9 0 15 9 15 25 0 16 -6 25 -15 25 -9
0 -15 -9 -15 -25z"/>
<path d="M1782 840 c-15 -24 -15 -30 -1 -30 14 0 39 25 39 39 0 18 -24 12 -38
-9z"/>
<path d="M1830 845 c0 -8 7 -15 15 -15 8 0 15 7 15 15 0 8 -7 15 -15 15 -8 0
-15 -7 -15 -15z"/>
<path d="M1690 825 c0 -8 7 -15 15 -15 8 0 15 7 15 15 0 8 -7 15 -15 15 -8 0
-15 -7 -15 -15z"/>
<path d="M1890 825 c0 -8 7 -15 15 -15 8 0 15 7 15 15 0 8 -7 15 -15 15 -8 0
-15 -7 -15 -15z"/>
<path d="M1790 774 c0 -31 23 -28 28 4 2 15 -2 22 -12 22 -11 0 -16 -9 -16
-26z"/>
<path d="M1837 773 c-13 -12 -7 -43 8 -43 9 0 15 9 15 25 0 24 -10 32 -23 18z"/>
<path d="M1650 745 c0 -8 9 -15 20 -15 11 0 20 -4 20 -10 0 -5 7 -10 15 -10
19 0 19 17 1 36 -19 19 -56 18 -56 -1z"/>
<path d="M1730 745 c0 -8 7 -15 15 -15 8 0 15 7 15 15 0 8 -7 15 -15 15 -8 0
-15 -7 -15 -15z"/>
<path d="M1690 685 c0 -8 7 -15 15 -15 8 0 15 7 15 15 0 8 -7 15 -15 15 -8 0
-15 -7 -15 -15z"/>
<path d="M1830 675 c0 -16 6 -25 15 -25 9 0 15 9 15 25 0 16 -6 25 -15 25 -9
0 -15 -9 -15 -25z"/>
<path d="M1650 645 c0 -8 7 -15 15 -15 8 0 15 7 15 15 0 8 -7 15 -15 15 -8 0
-15 -7 -15 -15z"/>
<path d="M1690 645 c0 -8 7 -15 15 -15 8 0 15 7 15 15 0 8 -7 15 -15 15 -8 0
-15 -7 -15 -15z"/>
<path d="M1750 645 c0 -9 9 -15 25 -15 16 0 25 6 25 15 0 9 -9 15 -25 15 -16
0 -25 -6 -25 -15z"/>
<path d="M1890 645 c0 -8 7 -15 15 -15 8 0 15 7 15 15 0 8 -7 15 -15 15 -8 0
-15 -7 -15 -15z"/>
<path d="M1637 594 c-8 -8 1 -24 14 -24 5 0 9 7 9 15 0 15 -12 20 -23 9z"/>
<path d="M1823 585 c-7 -8 -13 -19 -13 -25 0 -14 27 -13 33 3 4 10 6 10 6 0 1
-16 31 -17 31 -2 0 13 -25 39 -37 39 -4 -1 -14 -7 -20 -15z"/>
<path d="M1932 588 c7 -20 48 -23 48 -4 0 11 -9 16 -26 16 -16 0 -24 -5 -22
-12z"/>
<path d="M1690 555 c0 -16 6 -25 15 -25 8 0 15 5 15 10 0 6 9 10 20 10 11 0
20 7 20 15 0 10 -11 15 -35 15 -31 0 -35 -3 -35 -25z"/>
<path d="M1637 553 c-12 -11 -8 -23 8 -23 8 0 15 7 15 15 0 16 -12 20 -23 8z"/>
<path d="M1770 545 c0 -8 7 -15 15 -15 8 0 15 7 15 15 0 8 -7 15 -15 15 -8 0
-15 -7 -15 -15z"/>
<path d="M1923 545 c-16 -18 -17 -35 -2 -35 12 0 38 29 39 43 0 12 -24 7 -37
-8z"/>
<path d="M1957 513 c-4 -3 -7 -15 -7 -25 0 -26 24 -17 28 10 3 21 -8 29 -21
15z"/>
<path d="M2137 513 c-13 -12 -7 -43 8 -43 9 0 15 9 15 25 0 24 -10 32 -23 18z"/>
<path d="M1750 485 c0 -8 7 -15 15 -15 8 0 15 7 15 15 0 8 -7 15 -15 15 -8 0
-15 -7 -15 -15z"/>
<path d="M1803 485 c-16 -17 -17 -35 -2 -35 14 0 39 25 39 39 0 15 -23 13 -37
-4z"/>
<path d="M1850 465 c0 -10 11 -15 35 -15 24 0 35 5 35 15 0 10 -11 15 -35 15
-24 0 -35 -5 -35 -15z"/>
<path d="M1990 465 c0 -8 7 -15 15 -15 8 0 15 7 15 15 0 8 -7 15 -15 15 -8 0
-15 -7 -15 -15z"/>
<path d="M2576 2373 c-11 -11 -6 -23 9 -23 8 0 15 4 15 9 0 13 -16 22 -24 14z"/>
<path d="M2935 2329 c-10 -15 3 -25 16 -12 7 7 7 13 1 17 -6 3 -14 1 -17 -5z"/>
<path d="M2457 2314 c-10 -11 3 -24 24 -24 10 0 19 7 19 15 0 15 -31 21 -43 9z"/>
<path d="M2550 2305 c0 -8 7 -15 15 -15 8 0 15 7 15 15 0 8 -7 15 -15 15 -8 0
-15 -7 -15 -15z"/>
<path d="M2690 2313 c1 -14 27 -43 39 -43 15 0 14 19 -3 36 -16 15 -36 19 -36
7z"/>
<path d="M2628 2286 c-22 -16 -23 -36 -3 -36 8 0 15 5 15 10 0 6 9 10 21 10
12 0 19 5 17 13 -6 17 -30 19 -50 3z"/>
<path d="M2770 2285 c0 -8 7 -15 15 -15 8 0 15 7 15 15 0 8 -7 15 -15 15 -8 0
-15 -7 -15 -15z"/>
<path d="M2830 2265 c0 -9 9 -15 25 -15 16 0 25 6 25 15 0 9 -9 15 -25 15 -16
0 -25 -6 -25 -15z"/>
<path d="M2472 2209 c2 -6 8 -10 13 -10 5 0 11 4 13 10 2 6 -4 11 -13 11 -9 0
-15 -5 -13 -11z"/>
<path d="M4837 2373 c-12 -11 -8 -23 8 -23 8 0 15 7 15 15 0 16 -12 20 -23 8z"/>
<path d="M5095 2370 c-3 -5 -15 -10 -26 -10 -10 0 -19 -7 -19 -15 0 -18 23
-19 50 -2 17 10 22 9 30 -3 7 -12 12 -12 22 -2 9 9 8 15 -8 27 -22 17 -40 19
-49 5z"/>
<path d="M5196 2373 c-11 -11 -6 -23 9 -23 8 0 15 4 15 9 0 13 -16 22 -24 14z"/>
<path d="M5236 2373 c-11 -11 -6 -23 9 -23 8 0 15 4 15 9 0 13 -16 22 -24 14z"/>
<path d="M4877 2353 c-13 -13 -7 -23 15 -23 l21 0 -21 -23 c-23 -24 -30 -57
-12 -57 6 0 13 8 17 18 3 9 15 27 26 40 20 22 20 22 1 37 -21 16 -37 19 -47 8z"/>
<path d="M4972 2338 c2 -15 11 -24 26 -26 27 -4 28 9 4 31 -25 23 -34 21 -30
-5z"/>
<path d="M5270 2346 c0 -9 7 -16 16 -16 9 0 14 5 12 12 -6 18 -28 21 -28 4z"/>
<path d="M5166 2321 c-12 -13 -14 -21 -6 -26 16 -10 40 2 40 19 0 24 -16 27
-34 7z"/>
<path d="M5410 2325 c0 -8 7 -15 15 -15 8 0 15 7 15 15 0 8 -7 15 -15 15 -8 0
-15 -7 -15 -15z"/>
<path d="M4797 2314 c-8 -8 1 -24 14 -24 5 0 9 7 9 15 0 15 -12 20 -23 9z"/>
<path d="M4830 2305 c0 -8 7 -15 15 -15 8 0 15 7 15 15 0 8 -7 15 -15 15 -8 0
-15 -7 -15 -15z"/>
<path d="M4937 2294 c-14 -14 -6 -24 19 -24 16 0 24 5 22 13 -5 14 -31 21 -41
11z"/>
<path d="M5332 2268 c2 -18 8 -33 13 -33 6 0 11 15 13 33 3 24 -1 32 -13 32
-12 0 -16 -8 -13 -32z"/>
<path d="M5390 2285 c0 -8 7 -15 15 -15 8 0 15 7 15 15 0 8 -7 15 -15 15 -8 0
-15 -7 -15 -15z"/>
<path d="M5130 2265 c0 -8 7 -15 15 -15 8 0 15 7 15 15 0 8 -7 15 -15 15 -8 0
-15 -7 -15 -15z"/>
<path d="M5187 2262 c-20 -22 -21 -32 -6 -32 12 0 38 29 39 43 0 13 -17 7 -33
-11z"/>
<path d="M5235 2269 c-4 -6 2 -13 14 -16 12 -3 21 -9 21 -14 0 -5 7 -9 15 -9
20 0 19 20 -2 36 -22 16 -40 18 -48 3z"/>
<path d="M5050 2244 c0 -9 5 -14 12 -12 18 6 21 28 4 28 -9 0 -16 -7 -16 -16z"/>
<path d="M4897 2233 c-13 -12 -7 -23 12 -23 11 0 23 -4 26 -10 8 -14 25 -13
25 1 0 24 -48 48 -63 32z"/>
<path d="M4990 2225 c0 -8 7 -15 15 -15 8 0 15 7 15 15 0 8 -7 15 -15 15 -8 0
-15 -7 -15 -15z"/>
<path d="M5087 2222 c-10 -10 -14 -21 -11 -25 9 -9 44 16 44 30 0 18 -14 16
-33 -5z"/>
<path d="M5335 2210 c-8 -12 20 -24 35 -15 5 3 10 10 10 16 0 12 -37 12 -45
-1z"/>
<path d="M5866 2365 c-15 -12 -17 -18 -8 -27 8 -8 9 -15 0 -25 -18 -22 0 -28
22 -8 15 14 17 21 9 32 -9 10 -8 13 4 13 9 0 19 -4 22 -10 8 -14 25 -13 25 1
0 13 -30 38 -45 38 -5 0 -19 -6 -29 -14z"/>
<path d="M5710 2350 c0 -5 -9 -10 -20 -10 -11 0 -20 -7 -20 -15 0 -21 33 -19
53 3 21 23 21 32 2 32 -8 0 -15 -4 -15 -10z"/>
<path d="M5750 2345 c0 -8 7 -15 15 -15 8 0 15 7 15 15 0 8 -7 15 -15 15 -8 0
-15 -7 -15 -15z"/>
<path d="M5610 2325 c0 -8 7 -15 15 -15 8 0 15 7 15 15 0 8 -7 15 -15 15 -8 0
-15 -7 -15 -15z"/>
<path d="M6286 2321 c-17 -19 -22 -51 -8 -51 12 0 42 34 42 48 0 20 -17 22
-34 3z"/>
<path d="M5990 2305 c0 -8 7 -15 15 -15 8 0 15 7 15 15 0 8 -7 15 -15 15 -8 0
-15 -7 -15 -15z"/>
<path d="M6030 2305 c0 -8 7 -15 15 -15 8 0 15 7 15 15 0 8 -7 15 -15 15 -8 0
-15 -7 -15 -15z"/>
<path d="M6123 2305 c-17 -19 -16 -35 2 -35 8 0 15 4 15 9 0 5 9 11 20 14 11
3 20 10 20 16 0 16 -43 13 -57 -4z"/>
<path d="M5897 2293 c-12 -11 -8 -23 8 -23 8 0 15 7 15 15 0 16 -12 20 -23 8z"/>
<path d="M6183 2285 c-16 -17 -17 -35 -2 -35 14 0 39 25 39 39 0 15 -23 13
-37 -4z"/>
<path d="M5750 2260 c0 -13 -7 -20 -20 -20 -29 0 -24 -16 9 -33 27 -14 31 -13
46 3 11 12 13 20 6 25 -6 3 -11 15 -11 26 0 10 -7 19 -15 19 -8 0 -15 -9 -15
-20z"/>
<path d="M5950 2265 c0 -8 7 -15 15 -15 8 0 15 7 15 15 0 8 -7 15 -15 15 -8 0
-15 -7 -15 -15z"/>
<path d="M5610 2244 c0 -17 22 -14 28 4 2 7 -3 12 -12 12 -9 0 -16 -7 -16 -16z"/>
<path d="M5654 2245 c-7 -17 4 -37 17 -30 12 8 12 45 -1 45 -6 0 -13 -7 -16
-15z"/>
<path d="M5850 2245 c0 -8 7 -15 15 -15 8 0 15 7 15 15 0 8 -7 15 -15 15 -8 0
-15 -7 -15 -15z"/>
<path d="M6290 2245 c0 -8 7 -15 15 -15 8 0 15 7 15 15 0 8 -7 15 -15 15 -8 0
-15 -7 -15 -15z"/>
<path d="M6032 2198 c3 -40 5 -43 36 -46 18 -2 32 1 32 7 0 6 9 11 20 11 11 0
20 7 20 15 0 18 -31 20 -48 3 -9 -9 -12 -9 -12 3 0 16 -30 49 -44 49 -4 0 -6
-19 -4 -42z"/>
<path d="M6150 2225 c0 -8 7 -15 15 -15 8 0 15 7 15 15 0 8 -7 15 -15 15 -8 0
-15 -7 -15 -15z"/>
<path d="M5612 2211 c2 -7 7 -12 11 -12 12 1 9 15 -3 20 -7 2 -11 -2 -8 -8z"/>
<path d="M5870 2207 c0 -7 9 -18 21 -25 18 -11 23 -11 35 5 22 30 12 47 -13
22 -8 -8 -13 -8 -17 0 -10 15 -26 14 -26 -2z"/>
<path d="M6210 2205 c0 -8 7 -15 15 -15 8 0 15 7 15 15 0 8 -7 15 -15 15 -8 0
-15 -7 -15 -15z"/>
<path d="M6250 2205 c0 -8 7 -15 15 -15 8 0 15 7 15 15 0 8 -7 15 -15 15 -8 0
-15 -7 -15 -15z"/>
<path d="M5937 2173 c-13 -12 -7 -43 8 -43 9 0 15 9 15 25 0 24 -10 32 -23 18z"/>
<path d="M6230 2165 c0 -8 7 -15 15 -15 8 0 15 7 15 15 0 8 -7 15 -15 15 -8 0
-15 -7 -15 -15z"/>
<path d="M5990 2125 c0 -9 9 -15 25 -15 16 0 25 6 25 15 0 9 -9 15 -25 15 -16
0 -25 -6 -25 -15z"/>
<path d="M6130 2124 c0 -10 7 -14 22 -12 32 5 35 28 4 28 -17 0 -26 -5 -26
-16z"/>
<path d="M6197 2113 c-11 -10 -8 -43 4 -43 14 0 39 25 39 39 0 12 -33 15 -43
4z"/>
<path d="M6050 2085 c0 -8 7 -15 15 -15 8 0 15 7 15 15 0 8 -7 15 -15 15 -8 0
-15 -7 -15 -15z"/>
<path d="M6150 2086 c0 -9 7 -16 16 -16 17 0 14 22 -4 28 -7 2 -12 -3 -12 -12z"/>
<path d="M5972 2068 c6 -18 28 -21 28 -4 0 9 -7 16 -16 16 -9 0 -14 -5 -12
-12z"/>
<path d="M6290 2065 c0 -9 5 -15 11 -13 6 2 11 8 11 13 0 5 -5 11 -11 13 -6 2
-11 -4 -11 -13z"/>
<path d="M6023 2041 c-13 -22 -8 -31 19 -31 13 0 18 7 18 25 0 30 -20 33 -37
6z"/>
<path d="M6150 2049 c0 -14 25 -39 39 -39 15 0 14 19 -3 36 -17 17 -36 18 -36
3z"/>
<path d="M6250 2005 c0 -8 7 -15 15 -15 8 0 15 7 15 15 0 8 -7 15 -15 15 -8 0
-15 -7 -15 -15z"/>
<path d="M6070 1985 c0 -8 7 -15 15 -15 8 0 15 7 15 15 0 8 -7 15 -15 15 -8 0
-15 -7 -15 -15z"/>
<path d="M6130 1985 c0 -9 9 -15 25 -15 16 0 25 6 25 15 0 9 -9 15 -25 15 -16
0 -25 -6 -25 -15z"/>
<path d="M6290 1965 c0 -8 7 -15 15 -15 8 0 15 7 15 15 0 8 -7 15 -15 15 -8 0
-15 -7 -15 -15z"/>
<path d="M6010 1945 c0 -8 7 -15 15 -15 8 0 15 7 15 15 0 8 -7 15 -15 15 -8 0
-15 -7 -15 -15z"/>
<path d="M6150 1945 c0 -8 4 -15 9 -15 5 0 11 -9 14 -20 7 -26 27 -26 27 1 0
22 -22 49 -39 49 -6 0 -11 -7 -11 -15z"/>
<path d="M6121 1904 c-10 -12 -10 -19 -2 -27 8 -8 15 -6 25 8 23 32 3 48 -23
19z"/>
<path d="M6250 1906 c0 -8 6 -17 13 -19 10 -4 10 -6 0 -6 -18 -1 -16 -31 2
-31 8 0 15 4 15 9 0 5 9 11 21 14 23 6 17 27 -7 27 -8 0 -14 5 -14 10 0 6 -7
10 -15 10 -8 0 -15 -6 -15 -14z"/>
<path d="M6150 1869 c0 -14 25 -39 39 -39 15 0 14 19 -3 36 -17 17 -36 18 -36
3z"/>
<path d="M6270 1829 c0 -14 25 -39 39 -39 14 0 13 11 -3 33 -15 19 -36 23 -36
6z"/>
<path d="M6110 1805 c0 -8 7 -15 15 -15 8 0 15 7 15 15 0 8 -7 15 -15 15 -8 0
-15 -7 -15 -15z"/>
<path d="M6166 1801 c-23 -26 -20 -33 16 -29 37 4 46 18 19 35 -15 10 -22 9
-35 -6z"/>
<path d="M6072 1728 c2 -25 8 -34 26 -36 15 -2 22 2 22 12 0 9 -4 16 -10 16
-5 0 -10 9 -10 20 0 11 -7 20 -16 20 -11 0 -14 -8 -12 -32z"/>
<path d="M6197 1753 c-14 -13 -6 -23 18 -23 16 0 25 6 25 15 0 15 -31 21 -43
8z"/>
<path d="M6210 1705 c0 -8 7 -15 15 -15 8 0 15 7 15 15 0 8 -7 15 -15 15 -8 0
-15 -7 -15 -15z"/>
<path d="M6270 1705 c0 -8 7 -15 15 -15 8 0 15 7 15 15 0 8 -7 15 -15 15 -8 0
-15 -7 -15 -15z"/>
<path d="M6130 1685 c0 -8 7 -15 15 -15 8 0 15 7 15 15 0 8 -7 15 -15 15 -8 0
-15 -7 -15 -15z"/>
<path d="M6270 1633 c0 -5 7 -17 15 -27 11 -15 18 -17 26 -9 16 16 3 43 -21
43 -11 0 -20 -3 -20 -7z"/>
<path d="M6130 1605 c0 -8 9 -15 20 -15 11 0 20 -4 20 -10 0 -5 7 -10 15 -10
19 0 19 17 1 36 -19 19 -56 18 -56 -1z"/>
<path d="M6222 1600 c-14 -23 -16 -50 -4 -50 14 0 42 35 42 53 0 23 -22 21
-38 -3z"/>
<path d="M6070 1593 c2 -34 70 -61 70 -28 0 8 -9 15 -20 15 -11 0 -20 5 -20
10 0 6 -7 10 -15 10 -8 0 -15 -3 -15 -7z"/>
<path d="M6230 1525 c0 -13 9 -16 43 -13 23 2 42 8 42 13 0 6 -19 11 -42 13
-34 3 -43 0 -43 -13z"/>
<path d="M6092 1508 c6 -18 28 -21 28 -4 0 9 -7 16 -16 16 -9 0 -14 -5 -12
-12z"/>
<path d="M6130 1505 c0 -8 7 -15 15 -15 8 0 15 7 15 15 0 8 -7 15 -15 15 -8 0
-15 -7 -15 -15z"/>
<path d="M6097 1473 c-12 -11 -8 -23 8 -23 8 0 15 7 15 15 0 16 -12 20 -23 8z"/>
<path d="M6250 1469 c0 -14 25 -39 39 -39 15 0 14 19 -3 36 -17 17 -36 18 -36
3z"/>
<path d="M6130 1425 c0 -8 9 -15 20 -15 11 0 20 -4 20 -10 0 -5 11 -10 25 -10
16 0 25 6 25 15 0 8 -9 15 -20 15 -11 0 -20 5 -20 10 0 6 -11 10 -25 10 -16 0
-25 -6 -25 -15z"/>
<path d="M6230 1425 c0 -8 7 -15 15 -15 8 0 15 7 15 15 0 8 -7 15 -15 15 -8 0
-15 -7 -15 -15z"/>
<path d="M6250 1385 c0 -8 7 -15 15 -15 8 0 15 7 15 15 0 8 -7 15 -15 15 -8 0
-15 -7 -15 -15z"/>
<path d="M6263 1345 c-16 -17 -17 -35 -2 -35 14 0 39 25 39 39 0 15 -23 13
-37 -4z"/>
<path d="M6130 1331 c0 -5 -10 -11 -22 -15 -18 -4 -20 -8 -10 -18 10 -10 17
-10 32 0 11 6 27 12 35 12 8 0 15 7 15 15 0 9 -9 15 -25 15 -14 0 -25 -4 -25
-9z"/>
<path d="M6190 1325 c0 -8 7 -15 15 -15 8 0 15 7 15 15 0 8 -7 15 -15 15 -8 0
-15 -7 -15 -15z"/>
<path d="M6250 1289 c0 -14 25 -39 39 -39 15 0 14 19 -3 36 -17 17 -36 18 -36
3z"/>
<path d="M6134 1265 c-8 -21 4 -35 32 -35 13 0 24 -4 24 -10 0 -5 7 -10 15
-10 23 0 18 18 -12 45 -32 28 -51 31 -59 10z"/>
<path d="M6096 1233 c-14 -14 -4 -32 26 -47 38 -19 38 -19 37 -3 0 15 -54 58
-63 50z"/>
<path d="M6250 1175 c0 -16 6 -25 15 -25 9 0 15 9 15 25 0 16 -6 25 -15 25 -9
0 -15 -9 -15 -25z"/>
<path d="M6292 1189 c2 -6 8 -10 13 -10 5 0 11 4 13 10 2 6 -4 11 -13 11 -9 0
-15 -5 -13 -11z"/>
<path d="M6090 1165 c0 -8 5 -15 10 -15 6 0 10 -9 10 -20 0 -11 7 -20 15 -20
21 0 19 33 -3 53 -23 21 -32 21 -32 2z"/>
<path d="M6290 1146 c0 -9 7 -16 16 -16 9 0 14 5 12 12 -6 18 -28 21 -28 4z"/>
<path d="M6250 1095 c0 -28 14 -32 36 -11 21 22 17 36 -11 36 -20 0 -25 -5
-25 -25z"/>
<path d="M6103 1065 c-16 -17 -17 -35 -2 -35 14 0 39 25 39 39 0 15 -23 13
-37 -4z"/>
<path d="M6190 1069 c0 -17 27 -39 49 -39 12 0 21 6 21 15 0 8 -9 15 -20 15
-11 0 -20 5 -20 10 0 6 -7 10 -15 10 -8 0 -15 -5 -15 -11z"/>
<path d="M6290 1044 c0 -17 22 -14 28 4 2 7 -3 12 -12 12 -9 0 -16 -7 -16 -16z"/>
<path d="M6143 1025 c-7 -8 -13 -21 -13 -30 0 -8 -4 -15 -10 -15 -5 0 -10 -7
-10 -15 0 -26 28 -16 42 15 7 17 16 30 20 30 5 0 8 7 8 15 0 19 -21 19 -37 0z"/>
<path d="M6290 1005 c0 -9 5 -15 11 -13 6 2 11 8 11 13 0 5 -5 11 -11 13 -6 2
-11 -4 -11 -13z"/>
<path d="M6250 985 c0 -8 7 -15 15 -15 8 0 15 7 15 15 0 8 -7 15 -15 15 -8 0
-15 -7 -15 -15z"/>
<path d="M6173 960 c-3 -11 -9 -20 -14 -20 -14 0 -11 -20 5 -36 22 -21 56 -18
56 6 0 11 5 20 10 20 16 0 12 22 -7 36 -26 19 -44 17 -50 -6z"/>
<path d="M6032 928 c6 -18 28 -21 28 -4 0 9 -7 16 -16 16 -9 0 -14 -5 -12 -12z"/>
<path d="M6250 905 c0 -8 7 -15 15 -15 8 0 15 7 15 15 0 8 -7 15 -15 15 -8 0
-15 -7 -15 -15z"/>
<path d="M6110 885 c0 -8 7 -15 15 -15 8 0 15 7 15 15 0 8 -7 15 -15 15 -8 0
-15 -7 -15 -15z"/>
<path d="M6150 845 c0 -8 7 -15 15 -15 8 0 15 7 15 15 0 8 -7 15 -15 15 -8 0
-15 -7 -15 -15z"/>
<path d="M6250 835 c0 -16 6 -25 15 -25 9 0 15 9 15 25 0 16 -6 25 -15 25 -9
0 -15 -9 -15 -25z"/>
<path d="M6070 825 c0 -8 9 -15 20 -15 11 0 20 -4 20 -10 0 -5 7 -10 15 -10
19 0 19 17 1 36 -19 19 -56 18 -56 -1z"/>
<path d="M6172 798 c5 -32 28 -35 28 -4 0 17 -5 26 -16 26 -10 0 -14 -7 -12
-22z"/>
<path d="M6130 765 c0 -8 7 -15 15 -15 8 0 15 7 15 15 0 8 -7 15 -15 15 -8 0
-15 -7 -15 -15z"/>
<path d="M6270 765 c0 -8 7 -15 15 -15 8 0 15 7 15 15 0 8 -7 15 -15 15 -8 0
-15 -7 -15 -15z"/>
<path d="M6023 745 c-7 -8 -13 -17 -13 -20 0 -10 28 -35 39 -35 14 0 14 13 0
27 -8 8 -8 13 0 17 6 4 11 11 11 17 0 14 -23 10 -37 -6z"/>
<path d="M6170 749 c0 -14 25 -39 39 -39 15 0 14 19 -3 36 -17 17 -36 18 -36
3z"/>
<path d="M6070 724 c0 -9 5 -14 12 -12 18 6 21 28 4 28 -9 0 -16 -7 -16 -16z"/>
<path d="M6117 733 c-11 -10 -8 -43 4 -43 16 0 41 29 34 40 -7 11 -28 13 -38
3z"/>
<path d="M6250 725 c0 -8 7 -15 15 -15 8 0 15 7 15 15 0 8 -7 15 -15 15 -8 0
-15 -7 -15 -15z"/>
<path d="M5970 685 c0 -8 7 -15 15 -15 8 0 15 7 15 15 0 8 -7 15 -15 15 -8 0
-15 -7 -15 -15z"/>
<path d="M6210 630 c0 -43 -3 -50 -20 -50 -11 0 -20 -7 -20 -15 0 -21 33 -19
53 3 10 10 17 28 17 39 0 12 5 23 11 25 8 3 8 10 -2 26 -24 38 -39 27 -39 -28z"/>
<path d="M6270 665 c0 -8 7 -15 15 -15 8 0 15 7 15 15 0 8 -7 15 -15 15 -8 0
-15 -7 -15 -15z"/>
<path d="M5937 653 c-4 -3 -7 -15 -7 -25 0 -26 24 -17 28 10 3 21 -8 29 -21
15z"/>
<path d="M6070 649 c0 -11 25 -39 35 -39 10 0 35 28 35 39 0 15 -27 14 -33 -1
-4 -10 -6 -10 -6 0 -1 15 -31 16 -31 1z"/>
<path d="M5982 619 c-16 -25 -8 -37 12 -20 10 8 16 9 21 1 10 -16 45 -12 45 5
0 8 -9 15 -20 15 -11 0 -20 5 -20 10 0 18 -25 11 -38 -11z"/>
<path d="M6290 615 c0 -17 5 -25 13 -22 6 2 12 12 12 22 0 10 -6 20 -12 23 -8
2 -13 -6 -13 -23z"/>
<path d="M6270 565 c0 -8 7 -15 15 -15 8 0 15 7 15 15 0 8 -7 15 -15 15 -8 0
-15 -7 -15 -15z"/>
<path d="M6010 551 c0 -6 5 -13 11 -17 8 -4 8 -9 0 -17 -15 -15 -14 -27 4 -27
8 0 15 5 15 10 0 6 18 10 40 10 42 0 50 11 26 36 -17 16 -36 19 -36 4 0 -5 -7
-10 -15 -10 -8 0 -15 5 -15 10 0 6 -7 10 -15 10 -8 0 -15 -4 -15 -9z"/>
<path d="M6230 545 c0 -8 7 -15 15 -15 8 0 15 7 15 15 0 8 -7 15 -15 15 -8 0
-15 -7 -15 -15z"/>
<path d="M5930 529 c0 -12 29 -38 43 -39 12 0 8 20 -7 36 -17 17 -36 18 -36 3z"/>
<path d="M5852 508 c7 -20 48 -23 48 -4 0 11 -9 16 -26 16 -16 0 -24 -5 -22
-12z"/>
<path d="M6150 505 c0 -8 7 -15 15 -15 8 0 15 7 15 15 0 8 -7 15 -15 15 -8 0
-15 -7 -15 -15z"/>
<path d="M6230 505 c0 -8 7 -15 15 -15 8 0 15 7 15 15 0 8 -7 15 -15 15 -8 0
-15 -7 -15 -15z"/>
<path d="M5790 485 c0 -11 7 -15 23 -13 12 2 22 8 22 13 0 6 -10 11 -22 13
-16 2 -23 -2 -23 -13z"/>
<path d="M6088 486 c-23 -17 -23 -28 1 -43 23 -14 35 -5 20 14 -9 9 -8 13 0
13 6 0 11 7 11 15 0 18 -9 19 -32 1z"/>
<path d="M6190 465 c0 -10 11 -15 35 -15 24 0 35 5 35 15 0 10 -11 15 -35 15
-24 0 -35 -5 -35 -15z"/>
<path d="M6132 448 c6 -18 28 -21 28 -4 0 9 -7 16 -16 16 -9 0 -14 -5 -12 -12z"/>
<path d="M3370 1345 c0 -13 36 -15 265 -15 229 0 265 2 265 15 0 13 -36 15
-265 15 -229 0 -265 -2 -265 -15z"/>
<path d="M4172 1348 c3 -9 40 -14 126 -16 104 -2 122 0 122 13 0 13 -20 15
-126 15 -96 0 -125 -3 -122 -12z"/>
<path d="M4612 1348 c3 -9 40 -14 126 -16 104 -2 122 0 122 13 0 13 -20 15
-126 15 -96 0 -125 -3 -122 -12z"/>
<path d="M3397 1314 c-19 -20 25 -24 234 -24 180 0 230 3 227 13 -4 9 -60 13
-229 15 -124 1 -228 -1 -232 -4z"/>
<path d="M4152 1308 c3 -9 38 -14 127 -16 96 -2 122 0 119 10 -3 9 -38 14
-127 16 -96 2 -122 0 -119 -10z"/>
<path d="M4592 1308 c3 -9 38 -14 127 -16 96 -2 122 0 119 10 -3 9 -38 14
-127 16 -96 2 -122 0 -119 -10z"/>
<path d="M4157 1274 c-19 -19 1 -24 99 -24 80 0 105 3 102 13 -5 13 -188 23
-201 11z"/>
<path d="M4597 1274 c-19 -19 2 -24 109 -24 88 0 115 3 112 13 -5 13 -208 23
-221 11z"/>
<path d="M3417 1214 c-18 -19 20 -24 174 -24 144 0 169 2 169 15 0 13 -25 15
-168 15 -93 0 -172 -3 -175 -6z"/>
<path d="M4150 1205 c0 -12 17 -15 95 -15 78 0 95 3 95 15 0 12 -17 15 -95 15
-78 0 -95 -3 -95 -15z"/>
<path d="M4610 1205 c0 -12 16 -15 85 -15 69 0 85 3 85 15 0 12 -16 15 -85 15
-69 0 -85 -3 -85 -15z"/>
<path d="M3430 1145 c0 -8 9 -15 19 -15 11 0 23 -4 26 -10 3 -5 44 -10 90 -10
46 0 87 5 90 10 3 6 24 10 46 10 28 0 39 4 39 15 0 13 -24 15 -155 15 -131 0
-155 -2 -155 -15z"/>
<path d="M4150 1152 c0 -41 121 -59 153 -24 10 10 17 22 17 25 0 4 -38 7 -85
7 -47 0 -85 -4 -85 -8z"/>
<path d="M4614 1145 c-10 -25 6 -35 60 -35 39 0 57 5 69 18 10 10 17 22 17 25
0 4 -32 7 -70 7 -53 0 -72 -4 -76 -15z"/>
<path d="M3470 1065 c0 -12 16 -15 85 -15 69 0 85 3 85 15 0 12 -16 15 -85 15
-69 0 -85 -3 -85 -15z"/>
<path d="M4152 1068 c3 -8 26 -14 56 -16 42 -2 52 0 52 12 0 13 -12 16 -56 16
-40 0 -55 -4 -52 -12z"/>
<path d="M4612 1068 c3 -8 26 -14 56 -16 42 -2 52 0 52 12 0 13 -12 16 -56 16
-40 0 -55 -4 -52 -12z"/>
<path d="M3497 1034 c-18 -18 -2 -24 59 -24 48 0 65 3 62 13 -5 13 -109 23
-121 11z"/>
<path d="M4157 1034 c-13 -14 5 -24 44 -24 28 0 39 4 37 13 -5 13 -69 22 -81
11z"/>
<path d="M4615 1031 c-7 -13 17 -24 40 -19 9 1 16 8 16 13 0 14 -48 19 -56 6z"/>
<path d="M3490 986 c0 -12 10 -16 36 -16 45 0 42 24 -4 28 -24 2 -32 -1 -32
-12z"/>
<path d="M4157 994 c-12 -13 4 -24 34 -24 20 0 29 4 27 13 -5 13 -50 22 -61
11z"/>
<path d="M4617 994 c-12 -13 4 -24 34 -24 20 0 29 4 27 13 -5 13 -50 22 -61
11z"/>
<path d="M4157 954 c-14 -14 -6 -24 19 -24 16 0 24 5 22 13 -5 14 -31 21 -41
11z"/>
<path d="M4617 954 c-14 -14 -6 -24 19 -24 16 0 24 5 22 13 -5 14 -31 21 -41
11z"/>
<path d="M2352 1539 l3 -44 48 0 c56 0 68 19 15 23 -31 3 -37 7 -40 29 -2 15
-9 28 -16 31 -10 3 -12 -7 -10 -39z"/>
<path d="M2352 1418 c3 -43 3 -43 46 -46 33 -2 42 0 42 12 0 11 -10 16 -30 16
-27 0 -30 3 -30 30 0 20 -5 30 -16 30 -12 0 -14 -9 -12 -42z"/>
<path d="M2350 1321 c0 -22 5 -43 10 -46 8 -5 8 -11 0 -20 -6 -8 -10 -33 -8
-57 3 -43 3 -43 46 -46 33 -2 42 0 42 12 0 11 -10 16 -30 16 -28 0 -30 3 -30
34 0 33 2 35 38 38 48 4 48 22 0 26 -34 3 -37 5 -40 39 -4 52 -28 56 -28 4z"/>
<path d="M2352 1089 l3 -54 48 0 c56 0 68 19 15 23 -34 3 -37 5 -40 39 -2 20
-9 38 -16 41 -10 3 -12 -9 -10 -49z"/>
<path d="M2352 979 l3 -44 48 0 c56 0 68 19 15 23 -31 3 -37 7 -40 29 -2 15
-9 28 -16 31 -10 3 -12 -7 -10 -39z"/>
<path d="M2352 808 l3 -93 48 0 c56 0 68 19 15 23 -36 3 -38 5 -38 37 0 32 2
34 38 37 20 2 37 8 37 13 0 6 -17 11 -37 13 -35 3 -38 6 -38 33 0 19 -5 29
-15 29 -13 0 -15 -15 -13 -92z"/>
<path d="M2354 687 c-3 -8 -4 -32 -2 -53 l3 -39 48 0 c56 0 68 19 15 23 -36 3
-38 5 -38 37 0 36 -16 56 -26 32z"/>
<path d="M2354 566 c-3 -8 -4 -27 -2 -43 3 -26 6 -28 51 -28 56 0 68 19 15 23
-32 3 -38 7 -38 27 0 28 -18 43 -26 21z"/>
<path d="M5474 1566 c-3 -8 -4 -27 -2 -43 3 -26 6 -28 51 -28 56 0 68 19 15
23 -32 3 -38 7 -38 27 0 28 -18 43 -26 21z"/>
<path d="M5474 1467 c-3 -8 -4 -32 -2 -53 l3 -39 48 0 c56 0 68 19 15 23 -36
3 -38 5 -38 37 0 36 -16 56 -26 32z"/>
<path d="M5476 1353 c-3 -3 -6 -21 -6 -38 0 -42 28 -67 72 -63 45 4 42 22 -4
26 -36 3 -38 5 -38 37 0 33 -11 51 -24 38z"/>
<path d="M5474 1226 c-3 -8 -4 -27 -2 -43 3 -26 6 -28 51 -28 56 0 68 19 15
23 -32 3 -38 7 -38 27 0 28 -18 43 -26 21z"/>
<path d="M5476 1133 c-10 -10 -7 -71 4 -78 8 -5 8 -11 0 -20 -6 -8 -10 -33 -8
-57 l3 -43 48 0 c56 0 68 19 15 23 -36 3 -38 5 -38 37 0 32 2 34 38 37 20 2
37 8 37 13 0 6 -17 11 -37 13 -36 3 -38 5 -38 37 0 33 -11 51 -24 38z"/>
<path d="M5474 907 c-3 -8 -4 -32 -2 -53 l3 -39 48 0 c56 0 68 19 15 23 -36 3
-38 5 -38 37 0 36 -16 56 -26 32z"/>
<path d="M5474 786 c-3 -8 -4 -27 -2 -43 3 -26 6 -28 51 -28 56 0 68 19 15 23
-32 3 -38 7 -38 27 0 28 -18 43 -26 21z"/>
<path d="M5476 693 c-3 -3 -6 -21 -6 -38 0 -42 28 -67 72 -63 45 4 42 22 -4
26 -36 3 -38 5 -38 37 0 33 -11 51 -24 38z"/>
<path d="M5474 566 c-3 -8 -4 -27 -2 -43 3 -26 6 -28 51 -28 56 0 68 19 15 23
-32 3 -38 7 -38 27 0 28 -18 43 -26 21z"/>
<path d="M2592 508 c5 -15 37 -18 41 -3 1 6 -9 12 -22 13 -16 3 -22 -1 -19
-10z"/>
<path d="M2562 464 c-7 -8 -10 -19 -7 -24 8 -12 45 10 45 27 0 17 -22 16 -38
-3z"/>
<path d="M3030 526 c0 -9 7 -16 16 -16 9 0 14 5 12 12 -6 18 -28 21 -28 4z"/>
<path d="M3470 525 c0 -8 7 -15 15 -15 8 0 15 7 15 15 0 8 -7 15 -15 15 -8 0
-15 -7 -15 -15z"/>
<path d="M3690 525 c0 -8 7 -15 15 -15 8 0 15 7 15 15 0 8 -7 15 -15 15 -8 0
-15 -7 -15 -15z"/>
<path d="M3750 526 c0 -9 7 -16 16 -16 17 0 14 22 -4 28 -7 2 -12 -3 -12 -12z"/>
<path d="M3976 533 c-11 -11 -6 -23 9 -23 8 0 15 4 15 9 0 13 -16 22 -24 14z"/>
<path d="M4687 522 c-21 -23 -21 -32 -2 -32 8 0 15 5 15 10 0 6 9 10 21 10 12
0 19 5 17 13 -7 20 -33 19 -51 -1z"/>
<path d="M4776 533 c-11 -11 -6 -23 9 -23 8 0 15 4 15 9 0 13 -16 22 -24 14z"/>
<path d="M3330 505 c0 -8 7 -15 15 -15 8 0 15 7 15 15 0 8 -7 15 -15 15 -8 0
-15 -7 -15 -15z"/>
<path d="M3810 505 c0 -8 7 -15 15 -15 8 0 15 7 15 15 0 8 -7 15 -15 15 -8 0
-15 -7 -15 -15z"/>
<path d="M3890 505 c0 -8 7 -15 15 -15 8 0 15 7 15 15 0 8 -7 15 -15 15 -8 0
-15 -7 -15 -15z"/>
<path d="M4030 505 c0 -8 7 -15 15 -15 8 0 15 7 15 15 0 8 -7 15 -15 15 -8 0
-15 -7 -15 -15z"/>
<path d="M4197 513 c-12 -11 -8 -23 8 -23 8 0 15 7 15 15 0 16 -12 20 -23 8z"/>
<path d="M4570 505 c0 -8 7 -15 15 -15 8 0 15 7 15 15 0 8 -7 15 -15 15 -8 0
-15 -7 -15 -15z"/>
<path d="M3063 485 c-18 -20 -16 -28 8 -43 25 -16 37 -8 20 12 -8 10 -9 16 -1
21 5 3 10 10 10 16 0 14 -23 10 -37 -6z"/>
<path d="M3185 480 c-10 -11 -15 -26 -11 -36 6 -15 10 -14 36 11 17 16 30 32
30 37 0 16 -37 8 -55 -12z"/>
<path d="M3270 486 c0 -11 9 -16 26 -16 31 0 28 23 -4 28 -15 2 -22 -2 -22
-12z"/>
<path d="M3390 491 c0 -5 -10 -11 -22 -14 -21 -6 -21 -7 -3 -27 10 -11 23 -20
30 -20 19 0 48 38 42 55 -7 16 -47 21 -47 6z"/>
<path d="M3510 480 c0 -13 -7 -20 -20 -20 -24 0 -27 -18 -5 -27 20 -7 55 24
55 49 0 10 -7 18 -15 18 -8 0 -15 -9 -15 -20z"/>
<path d="M3750 485 c0 -8 7 -15 15 -15 8 0 15 7 15 15 0 8 -7 15 -15 15 -8 0
-15 -7 -15 -15z"/>
<path d="M4130 485 c0 -8 7 -15 15 -15 8 0 15 7 15 15 0 8 -7 15 -15 15 -8 0
-15 -7 -15 -15z"/>
<path d="M4430 485 c0 -8 7 -15 15 -15 8 0 15 7 15 15 0 8 -7 15 -15 15 -8 0
-15 -7 -15 -15z"/>
<path d="M4770 485 c0 -8 7 -15 15 -15 8 0 15 7 15 15 0 8 -7 15 -15 15 -8 0
-15 -7 -15 -15z"/>
<path d="M3610 465 c0 -8 7 -15 15 -15 8 0 15 7 15 15 0 8 -7 15 -15 15 -8 0
-15 -7 -15 -15z"/>
<path d="M3790 465 c0 -8 7 -15 15 -15 8 0 15 7 15 15 0 8 -7 15 -15 15 -8 0
-15 -7 -15 -15z"/>
<path d="M3952 458 c2 -13 8 -23 13 -23 6 0 11 10 13 23 2 15 -2 22 -13 22
-11 0 -15 -7 -13 -22z"/>
<path d="M4310 465 c0 -8 7 -15 15 -15 8 0 15 7 15 15 0 8 -7 15 -15 15 -8 0
-15 -7 -15 -15z"/>
<path d="M4610 472 c0 -5 9 -17 19 -26 23 -21 40 -3 17 19 -16 16 -36 20 -36
7z"/>
<path d="M4730 465 c0 -8 7 -15 15 -15 8 0 15 7 15 15 0 8 -7 15 -15 15 -8 0
-15 -7 -15 -15z"/>
<path d="M3872 449 c2 -6 8 -10 13 -10 5 0 11 4 13 10 2 6 -4 11 -13 11 -9 0
-15 -5 -13 -11z"/>
<path d="M4092 449 c2 -6 8 -10 13 -10 5 0 11 4 13 10 2 6 -4 11 -13 11 -9 0
-15 -5 -13 -11z"/>
<path d="M4172 449 c2 -6 8 -10 13 -10 5 0 11 4 13 10 2 6 -4 11 -13 11 -9 0
-15 -5 -13 -11z"/>
<path d="M4232 449 c2 -6 8 -10 13 -10 5 0 11 4 13 10 2 6 -4 11 -13 11 -9 0
-15 -5 -13 -11z"/>
<path d="M4572 449 c2 -6 8 -10 13 -10 5 0 11 4 13 10 2 6 -4 11 -13 11 -9 0
-15 -5 -13 -11z"/>
<path d="M4852 449 c2 -6 8 -10 13 -10 5 0 11 4 13 10 2 6 -4 11 -13 11 -9 0
-15 -5 -13 -11z"/>
<path d="M5350 504 c0 -17 22 -14 28 4 2 7 -3 12 -12 12 -9 0 -16 -7 -16 -16z"/>
</g>
</svg>
