<?xml version="1.0"?>
<svg xmlns="http://www.w3.org/2000/svg"
xmlns:xlink="http://www.w3.org/1999/xlink" xmlns:cml="http://www.xml-cml.org/schema" width="357.128" height="180" x="0" y="0" font-family="sans-serif" stroke-width="1"  stroke-linecap="round">
<line x1="40.0" y1="53.0" x2="40.0" y2="80.0"  stroke-width="1.0"/>
<line x1="305.9" y1="86.5" x2="282.5" y2="100.0"  stroke-width="1.0"/>
<line x1="40.0" y1="80.0" x2="63.4" y2="93.5"  stroke-width="1.0"/>
<line x1="282.5" y1="100.0" x2="259.1" y2="86.5"  stroke-width="1.0"/>
<line x1="143.9" y1="100.0" x2="178.6" y2="80.0"  stroke-width="1.0"/>
<line x1="143.9" y1="100.0" x2="109.3" y2="80.0"  stroke-width="1.0"/>
<line x1="178.6" y1="80.0" x2="213.2" y2="100.0"  stroke-width="1.0"/>
<line x1="106.3" y1="80.0" x2="106.3" y2="53.0"  stroke-width="1.0"/>
<line x1="112.3" y1="80.0" x2="112.3" y2="53.0"  stroke-width="1.0"/>
<line x1="109.3" y1="80.0" x2="85.9" y2="93.5"  stroke-width="1.0"/>
<line x1="216.2" y1="100.0" x2="216.2" y2="127.0"  stroke-width="1.0"/>
<line x1="210.2" y1="100.0" x2="210.2" y2="127.0"  stroke-width="1.0"/>
<line x1="213.2" y1="100.0" x2="236.6" y2="86.5"  stroke-width="1.0"/>
<text x="36.000000" y="48.000000" fill="rgb(102,102,102)"  stroke="rgb(102,102,102)" stroke-width="1" font-size="16" >CH</text>
<text x="60.000000" y="51.680000" fill="rgb(102,102,102)"  stroke="rgb(102,102,102)" stroke-width="1" font-size="13" >3</text>
<text x="313.128129" y="88.000000" fill="rgb(102,102,102)"  stroke="rgb(102,102,102)" stroke-width="1" font-size="16" >CH</text>
<text x="337.128129" y="91.680000" fill="rgb(102,102,102)"  stroke="rgb(102,102,102)" stroke-width="1" font-size="13" >3</text>
<text x="103.282032" y="48.000000" fill="rgb(255,12,12)"  stroke="rgb(255,12,12)" stroke-width="1" font-size="16" >O</text>
<text x="207.205081" y="148.000000" fill="rgb(255,12,12)"  stroke="rgb(255,12,12)" stroke-width="1" font-size="16" >O</text>
<text x="68.641016" y="108.000000" fill="rgb(255,12,12)"  stroke="rgb(255,12,12)" stroke-width="1" font-size="16" >O</text>
<text x="241.846097" y="88.000000" fill="rgb(255,12,12)"  stroke="rgb(255,12,12)" stroke-width="1" font-size="16" >O</text>
<text font-size="18.000000" fill ="black" font-family="sans-serif"
x="10.000000" y="20.000000" ></text>
<title> - OBDepict</title>
</svg>
