<?xml version="1.0" standalone="no"?>
<!DOCTYPE svg PUBLIC "-//W3C//DTD SVG 20010904//EN"
 "http://www.w3.org/TR/2001/REC-SVG-20010904/DTD/svg10.dtd">
<svg version="1.0" xmlns="http://www.w3.org/2000/svg"
 width="1004.000000pt" height="642.000000pt" viewBox="0 0 1004.000000 642.000000"
 preserveAspectRatio="xMidYMid meet">
<metadata>
Created by potrace 1.13, written by Peter Selinger 2001-2015
</metadata>
<g transform="translate(0.000000,642.000000) scale(0.100000,-0.100000)"
 >
<path d="M578 6360 c-33 -25 -38 -81 -12 -118 14 -21 14 -24 -5 -48 -27 -34
-27 -64 0 -98 18 -22 28 -26 74 -26 47 0 56 4 75 27 26 33 22 84 -9 117 -19
21 -19 21 0 45 40 49 12 109 -56 118 -31 4 -46 0 -67 -17z m80 -32 c16 -16 15
-43 -3 -58 -13 -10 -19 -10 -35 5 -11 10 -20 23 -20 30 0 14 21 35 35 35 6 0
16 -5 23 -12z m-4 -157 c35 -39 -1 -93 -39 -61 -15 13 -20 61 -8 73 12 12 29
7 47 -12z"/>
<path d="M923 6356 c-67 -56 -71 -191 -9 -263 38 -45 125 -25 155 35 17 33 15
155 -3 190 -32 62 -95 79 -143 38z m74 -28 c16 -20 33 -101 28 -133 -12 -87
-37 -114 -71 -80 -24 24 -23 179 2 206 20 22 28 24 41 7z"/>
<path d="M1225 6248 c-3 -7 -4 -841 -2 -1853 l2 -1840 112 -3 112 -3 6 -57 c4
-31 9 -64 11 -73 5 -17 64 -33 64 -17 0 4 7 8 15 8 8 0 15 -7 15 -15 0 -17 16
-20 25 -5 4 6 149 9 391 9 271 0 389 3 399 11 9 7 15 8 20 0 4 -6 65 -10 166
-10 145 0 159 2 159 18 0 11 3 13 8 5 11 -18 142 -20 153 -2 6 10 9 10 9 2 0
-17 27 -17 33 0 4 9 6 9 6 0 1 -17 28 -17 34 0 4 9 6 9 6 0 1 -17 48 -17 54 0
4 9 6 9 6 0 1 -17 48 -17 54 0 4 9 6 9 6 0 1 -17 28 -17 34 0 4 9 6 9 6 0 1
-17 28 -17 34 0 4 9 6 9 6 0 1 -17 28 -17 34 0 4 9 6 9 6 0 1 -7 8 -13 16 -13
8 0 15 6 15 13 0 8 3 7 10 -3 7 -12 12 -12 22 -2 14 14 54 16 63 2 3 -5 20
-10 36 -10 26 0 29 3 24 20 -8 25 0 25 27 0 15 -14 25 -17 34 -9 8 7 14 7 19
-1 5 -8 10 -8 20 0 9 7 15 8 20 1 4 -7 15 -5 31 5 23 15 26 15 43 0 13 -12 21
-14 26 -6 5 8 10 8 20 0 10 -8 15 -8 20 0 5 8 10 8 20 0 10 -8 15 -8 20 0 5 8
10 8 20 0 10 -8 15 -8 20 0 5 8 10 8 20 0 9 -7 15 -8 20 -1 4 7 12 7 25 -1 15
-10 22 -10 31 -1 9 9 16 9 29 0 14 -8 22 -8 32 1 11 9 17 9 27 -1 9 -9 14 -9
21 3 7 10 10 11 10 3 0 -7 6 -13 14 -13 8 0 17 6 19 13 4 10 6 10 6 0 1 -17
28 -17 34 0 4 9 6 9 6 0 1 -17 28 -17 34 0 4 9 6 9 6 0 1 -17 28 -17 34 0 4 9
6 9 6 0 1 -17 28 -17 34 0 3 9 9 9 25 0 22 -13 36 -6 24 12 -4 6 0 3 10 -7 18
-20 38 -24 38 -8 0 6 7 10 15 10 8 0 15 -4 15 -10 0 -14 27 -12 33 3 4 9 6 9
6 0 1 -17 28 -17 34 0 4 9 6 9 6 0 1 -17 28 -17 34 0 4 9 6 9 6 0 1 -17 48
-17 54 0 4 9 6 9 6 0 1 -7 7 -13 15 -13 8 0 17 6 19 13 4 10 6 10 6 0 1 -17
28 -17 34 -1 4 10 6 10 6 1 1 -17 28 -17 34 0 4 9 6 9 6 0 1 -15 31 -18 31 -3
0 6 7 10 15 10 8 0 15 -4 15 -10 0 -14 27 -12 33 3 4 9 6 9 6 0 1 -16 31 -17
31 -2 0 8 6 7 17 -2 13 -11 17 -11 20 -1 5 14 33 16 33 2 0 -5 7 -10 15 -10 8
0 15 5 15 10 0 6 7 10 15 10 8 0 15 -4 15 -10 0 -14 27 -12 33 3 4 9 6 9 6 0
1 -18 19 -16 39 4 16 16 17 16 20 0 4 -18 32 -24 32 -7 0 6 7 10 15 10 8 0 15
-4 15 -10 0 -14 27 -12 33 2 4 10 6 10 6 1 1 -17 28 -17 34 0 4 9 6 9 6 0 1
-7 7 -13 15 -13 8 0 16 6 19 13 3 9 9 9 25 0 14 -9 23 -9 27 -2 5 7 11 6 20
-1 10 -8 15 -8 20 0 5 8 10 8 20 0 10 -8 15 -8 20 0 5 8 11 8 21 -1 11 -9 15
-8 20 5 6 15 8 15 19 -1 13 -17 14 -16 23 6 9 24 9 24 14 3 7 -25 36 -30 44
-7 4 10 14 13 31 9 16 -4 28 -2 34 7 7 11 9 11 9 -3 0 -27 19 -31 29 -6 7 16
10 18 10 6 1 -27 20 -31 30 -6 7 16 10 18 10 6 1 -27 20 -31 30 -6 l10 23 0
-22 c1 -24 15 -31 26 -13 5 8 11 8 20 0 10 -8 15 -8 20 0 5 8 10 8 20 0 10 -8
15 -8 20 0 5 8 11 8 19 1 9 -7 16 -7 23 0 8 8 13 8 17 0 5 -7 13 -7 28 2 16 9
22 9 25 0 6 -17 30 -17 36 0 4 9 6 9 6 0 1 -15 31 -18 31 -3 0 6 8 5 19 -2 15
-9 23 -9 35 1 11 9 16 10 16 2 0 -15 27 -14 33 2 4 9 6 9 6 0 1 -7 7 -13 15
-13 8 0 17 6 19 13 4 10 6 10 6 0 1 -17 28 -17 34 0 4 9 6 9 6 0 1 -17 48 -17
54 0 4 9 6 9 6 0 1 -15 31 -18 31 -4 0 17 29 20 44 6 18 -18 33 -19 39 -3 4
10 6 10 6 1 1 -18 19 -16 39 4 16 16 17 16 20 0 5 -23 72 -24 72 -2 0 8 5 15
10 15 6 0 13 -7 16 -15 7 -18 50 -20 57 -2 4 9 6 9 6 0 1 -15 31 -18 31 -3 0
6 7 10 15 10 8 0 15 -4 15 -10 0 -15 30 -12 31 3 0 6 4 4 8 -7 7 -17 8 -17 24
-2 9 10 17 13 17 7 0 -15 27 -14 33 2 4 10 6 10 6 0 1 -17 28 -17 34 0 4 9 6
9 6 0 1 -17 28 -17 34 0 4 9 6 9 6 0 1 -16 31 -17 31 -2 0 6 8 3 17 -7 16 -15
17 -15 24 2 4 11 8 13 8 7 1 -15 31 -18 31 -3 0 6 11 10 25 10 14 0 25 -4 25
-10 0 -5 7 -10 15 -10 8 0 15 5 15 10 0 6 7 10 15 10 8 0 15 -4 15 -10 0 -14
27 -12 33 3 4 9 6 9 6 0 1 -17 28 -17 34 0 4 9 6 9 6 0 1 -17 28 -17 34 0 4 9
6 9 6 0 1 -17 48 -17 54 0 4 9 6 9 6 0 1 -17 28 -17 34 0 4 9 6 9 6 0 1 -17
28 -17 34 -1 4 10 6 10 6 1 1 -17 28 -17 34 -1 4 10 6 10 6 1 1 -15 31 -18 31
-3 0 6 11 10 25 10 14 0 25 -4 25 -10 0 -5 7 -10 15 -10 8 0 15 5 15 10 0 6
11 10 25 10 14 0 25 -4 25 -10 0 -14 27 -12 33 2 4 10 6 10 6 1 1 -17 28 -17
34 0 4 9 6 9 6 0 1 -17 48 -17 54 0 4 9 6 9 6 0 1 -17 48 -17 54 0 4 9 6 9 6
0 1 -17 28 -17 34 0 4 9 6 9 6 0 1 -17 28 -17 34 0 4 9 6 9 6 0 1 -17 48 -17
54 -1 4 10 6 10 6 1 1 -17 28 -17 34 0 4 9 6 9 6 0 1 -17 28 -17 34 0 4 9 6 9
6 0 1 -17 28 -17 34 0 4 9 6 9 6 0 1 -7 7 -13 15 -13 8 0 17 6 19 13 4 10 6
10 6 0 1 -7 7 -13 15 -13 8 0 17 6 19 13 4 10 6 10 6 0 1 -7 8 -13 16 -13 8 0
15 6 16 13 0 6 4 4 8 -7 7 -17 8 -17 24 -2 9 10 17 13 17 7 0 -15 27 -14 33 2
4 9 6 9 6 0 1 -17 28 -17 34 0 3 7 6 5 6 -5 1 -10 8 -18 16 -19 8 0 71 0 140
0 579 0 595 0 596 19 0 10 3 12 6 5 6 -15 33 -17 33 -3 0 14 47 13 52 -1 5
-16 119 -13 130 3 6 10 8 10 8 1 0 -17 47 -17 53 0 4 9 6 9 6 0 1 -17 48 -17
54 0 4 9 6 9 6 0 1 -7 8 -13 16 -13 8 0 15 6 15 13 0 8 3 8 9 -2 8 -12 12 -12
24 -2 11 8 17 9 22 1 5 -8 10 -8 20 0 10 8 15 8 20 0 5 -8 10 -8 20 0 10 8 15
8 20 0 5 -8 11 -7 23 2 12 11 16 11 20 0 3 -10 7 -10 19 -1 12 10 16 10 24 -2
6 -10 9 -10 9 -1 0 6 6 12 14 12 8 0 17 -6 19 -12 4 -10 6 -10 6 0 1 6 8 12
16 12 8 0 15 -6 15 -12 0 -10 3 -9 9 1 5 7 15 11 22 9 8 -3 24 -1 37 3 13 5
21 5 18 1 -8 -14 67 -4 77 10 6 9 7 8 3 -4 -7 -23 20 -24 32 -2 8 15 10 15 15
0 4 -9 17 -16 29 -15 13 0 17 3 11 6 -18 7 -16 23 2 23 8 0 15 -4 15 -10 0 -5
7 -10 15 -10 8 0 15 4 15 9 0 6 12 4 27 -4 27 -14 54 -8 69 17 11 18 4 102 -9
110 -9 6 -9 8 1 8 16 0 16 37 0 44 -10 5 -10 7 -1 12 17 7 17 31 1 38 -10 5
-10 7 0 12 16 7 17 204 1 204 -6 0 -4 7 4 15 9 8 13 24 10 35 -3 11 0 20 6 20
6 0 11 7 11 15 0 8 -4 15 -10 15 -5 0 -10 9 -10 19 0 11 -4 23 -10 26 -5 3
-10 12 -9 18 0 9 2 9 6 0 7 -18 33 -16 33 1 0 8 -10 22 -22 30 -18 13 -19 16
-6 21 14 6 16 37 16 251 0 215 -2 246 -17 254 -10 6 -11 10 -3 10 13 0 17 45
5 53 -5 2 -3 3 3 1 9 -2 11 59 10 222 0 123 2 224 5 224 3 0 5 30 4 68 -1 60
-4 67 -21 64 -17 -4 -17 -2 4 16 27 24 28 34 3 52 -20 13 -20 14 0 30 23 21
24 33 5 50 -11 8 -12 18 -6 35 5 13 6 26 2 30 -3 3 0 10 8 15 11 7 12 13 2 32
-13 26 -14 88 0 88 13 0 9 20 -7 37 -14 14 -14 17 0 32 16 18 20 41 8 41 -5 0
-8 38 -9 85 0 47 4 85 9 85 5 0 6 12 2 28 -10 35 -14 165 -5 172 3 3 3 79 -1
170 -3 92 -3 166 2 168 5 2 9 10 9 18 0 17 -26 19 -33 2 -3 -8 -6 -6 -6 5 -1
9 4 17 9 17 6 0 10 9 10 20 0 11 5 20 10 20 6 0 10 7 10 15 0 8 -7 15 -15 15
-8 0 -15 -5 -15 -12 0 -6 -3 -8 -7 -5 -3 4 2 16 12 27 13 15 16 30 12 59 -3
26 -1 42 7 44 8 3 8 10 -1 26 -16 27 -16 48 0 54 9 3 9 9 0 25 -9 14 -9 30 -3
54 13 44 13 48 -7 48 -15 0 -15 1 0 18 20 22 22 38 5 45 -10 4 -10 6 0 6 15 1
16 31 1 31 -8 0 -8 4 0 13 8 10 7 17 -1 25 -9 9 -9 12 0 12 7 0 12 6 12 14 0
15 -45 26 -120 29 l-35 2 -5 110 -5 110 -4273 3 c-3413 2 -4274 0 -4277 -10z
m8476 -38 l49 0 0 -1805 c0 -1712 -1 -1805 -17 -1806 -93 -4 -995 1 -1003 6
-6 4 -10 62 -10 143 0 144 -7 175 -30 147 -10 -13 -13 -47 -11 -136 1 -66 -1
-128 -4 -139 -6 -20 -16 -20 -511 -20 l-504 0 0 139 c0 77 -3 147 -6 156 -6
14 -8 14 -25 -1 -17 -15 -19 -33 -19 -156 l0 -138 -37 0 c-418 -2 -967 1 -971
5 -3 3 -5 66 -4 139 2 107 -1 136 -12 145 -30 25 -36 1 -36 -145 0 -89 -4
-144 -10 -145 -5 -1 -21 -1 -35 -1 -14 0 -239 0 -500 1 l-475 1 0 144 c0 108
-3 146 -13 155 -25 20 -34 -28 -30 -166 l4 -133 -163 -1 c-162 0 -378 0 -700
1 l-167 0 -3 148 c-3 123 -5 147 -18 147 -13 0 -15 -23 -16 -143 -1 -79 -4
-145 -6 -147 -2 -3 -231 -5 -509 -5 l-504 -1 -5 148 c-4 110 -8 148 -17 147
-7 -1 -17 -2 -23 -2 -6 -1 -10 -58 -10 -147 l0 -145 -32 0 c-26 -1 -472 -1
-920 0 l-58 0 0 139 c0 109 -3 141 -15 151 -29 24 -35 0 -35 -145 l0 -144
-267 -3 c-148 -2 -377 -2 -511 0 l-242 2 2 278 3 277 144 2 c144 2 169 8 158
37 -5 14 -29 16 -157 16 l-150 0 0 280 0 279 152 3 c90 2 153 7 155 13 9 30
-15 36 -161 38 l-147 2 0 268 c0 147 3 272 6 278 4 5 65 9 147 8 142 -1 166 5
155 35 -5 14 -29 16 -156 16 -90 0 -151 4 -153 10 -1 5 -2 131 0 280 l3 269
152 3 c144 3 152 4 152 23 0 19 -8 20 -152 23 l-153 3 0 279 0 280 150 0 c128
0 152 2 157 16 12 32 -13 37 -161 36 l-145 -2 -3 276 c-2 151 -1 278 1 280 2
2 1881 4 4174 4 2294 0 4173 2 4176 5 3 3 11 3 19 0 7 -3 36 -5 63 -5z m-1521
-3790 c0 -5 -4 -10 -10 -10 -5 0 -10 5 -10 10 0 6 5 10 10 10 6 0 10 -4 10
-10z"/>
<path d="M9663 5819 c-11 -4 -24 -12 -28 -18 -3 -6 -17 -11 -31 -11 -13 0 -24
-4 -24 -10 0 -5 -9 -10 -20 -10 -11 0 -20 -4 -20 -10 0 -5 -6 -10 -13 -10 -15
0 -98 -40 -119 -57 -7 -6 -24 -14 -36 -18 -24 -7 -133 -58 -162 -75 -8 -5 -71
-36 -140 -68 -69 -33 -163 -78 -209 -100 -46 -23 -88 -39 -93 -36 -4 3 -8 1
-8 -4 0 -10 -58 -36 -72 -33 -5 0 -8 -3 -8 -8 0 -5 -17 -15 -37 -22 -21 -6
-50 -20 -65 -30 -14 -11 -33 -19 -42 -19 -9 0 -16 -4 -16 -10 0 -5 -9 -10 -19
-10 -11 0 -23 -4 -26 -10 -3 -5 -12 -10 -19 -10 -7 0 -46 -18 -86 -40 -40 -22
-76 -38 -80 -35 -4 3 -13 -2 -20 -10 -7 -8 -18 -15 -25 -15 -12 0 -53 -18
-120 -53 -11 -5 -27 -13 -35 -17 -91 -43 -367 -173 -434 -206 -28 -13 -56 -24
-63 -24 -7 0 -13 -4 -13 -10 0 -5 -6 -10 -14 -10 -7 0 -48 -18 -91 -40 -43
-22 -82 -40 -86 -40 -5 0 -64 -27 -131 -60 -68 -33 -127 -60 -131 -60 -9 0
-112 -46 -137 -61 -8 -5 -22 -12 -30 -15 -14 -5 -29 -12 -82 -33 -13 -5 -62
-28 -109 -50 -47 -23 -91 -41 -97 -41 -11 0 -34 -10 -72 -32 -8 -4 -26 -13
-40 -20 -14 -6 -56 -26 -95 -44 -38 -17 -110 -49 -160 -69 -87 -36 -202 -87
-237 -106 -10 -5 -24 -9 -32 -9 -8 0 -31 -9 -53 -19 -57 -29 -151 -71 -158
-71 -3 0 -25 -8 -48 -18 -23 -10 -62 -27 -87 -37 -25 -10 -64 -26 -87 -36 -24
-11 -46 -19 -51 -19 -5 0 -27 -9 -50 -20 -22 -11 -46 -20 -52 -20 -5 0 -18 -4
-28 -9 -48 -25 -195 -81 -211 -81 -7 0 -33 -10 -59 -22 -26 -13 -51 -23 -57
-24 -5 0 -23 -7 -40 -14 -16 -7 -40 -14 -51 -16 -12 -1 -36 -10 -52 -18 -17
-9 -36 -16 -42 -16 -5 0 -29 -8 -53 -18 -45 -20 -103 -41 -127 -47 -8 -2 -35
-10 -60 -18 -25 -8 -79 -24 -120 -37 -41 -12 -84 -25 -95 -29 -35 -14 -90 -32
-105 -36 -8 -2 -69 -18 -135 -35 -66 -18 -127 -33 -135 -34 -8 -1 -49 -10 -90
-19 -134 -31 -164 -37 -240 -48 -74 -11 -98 -13 -275 -27 -96 -7 -328 9 -405
28 -25 6 -56 14 -70 16 -27 6 -34 8 -127 48 -64 28 -141 71 -209 118 -46 31
-224 202 -224 214 0 5 -15 24 -33 43 -17 19 -39 45 -47 57 -8 12 -39 56 -67
97 -29 42 -53 80 -53 85 0 4 -13 21 -30 37 -16 16 -30 32 -30 36 0 5 -14 32
-32 61 -17 29 -36 62 -43 73 -58 102 -70 110 -104 76 -20 -20 -19 -20 9 -63
16 -24 30 -47 30 -52 0 -29 340 -516 360 -516 5 0 10 -5 10 -11 0 -9 58 -69
132 -135 36 -32 127 -94 138 -94 5 0 10 -4 10 -9 0 -14 150 -87 235 -114 71
-23 193 -52 235 -57 58 -7 396 -7 445 0 33 5 101 14 150 21 50 8 95 14 100 14
6 1 26 5 45 10 19 4 42 9 50 10 18 2 21 3 220 51 85 20 182 45 214 55 33 11
65 19 73 19 7 0 21 4 31 9 22 13 147 51 165 51 7 0 31 9 53 19 21 11 42 17 47
14 4 -2 19 3 33 12 14 9 28 14 31 11 3 -3 15 1 25 9 11 7 27 11 35 8 7 -3 23
3 33 12 11 10 23 15 27 12 3 -4 16 0 29 8 12 8 33 17 46 20 32 7 180 59 195
68 7 4 36 16 65 27 29 10 82 30 118 43 36 13 74 27 85 31 11 4 43 18 71 32 28
13 56 24 63 24 6 0 41 14 78 30 36 17 69 30 74 30 4 0 42 16 83 35 42 19 80
35 85 35 5 0 26 9 48 19 21 11 53 25 71 31 17 7 32 16 32 21 0 5 9 9 20 9 20
0 61 17 170 69 30 14 62 26 70 27 8 1 42 16 75 33 33 17 63 31 67 31 5 0 46
18 93 40 47 22 90 40 96 40 6 0 36 14 66 30 30 17 60 30 67 30 7 0 40 13 72
29 32 16 79 37 104 48 25 11 70 32 100 46 30 14 87 40 125 57 39 17 113 52
165 77 52 25 124 59 160 75 36 17 110 52 165 79 55 27 104 49 109 49 5 0 82
36 171 80 89 44 165 80 169 80 3 0 59 25 123 56 65 31 159 75 208 98 158 75
199 95 225 110 14 8 57 29 95 47 39 17 86 39 106 50 74 39 256 129 321 159 37
17 70 35 73 40 3 6 16 10 28 11 12 0 36 9 52 20 17 10 40 23 52 28 11 5 24 15
28 20 3 6 17 11 31 11 13 0 24 5 24 10 0 6 6 10 13 10 18 0 67 24 67 33 0 4 9
7 19 7 11 0 23 5 26 10 3 6 14 10 24 10 28 0 50 40 36 66 -8 16 -15 19 -32 13z"/>
<path d="M785 6120 c-24 -27 -12 -52 22 -48 35 4 44 41 15 57 -15 8 -23 6 -37
-9z"/>
<path d="M940 5757 c-55 -27 -84 -133 -60 -219 12 -43 64 -88 101 -88 116 0
144 258 34 308 -32 15 -44 15 -75 -1z m78 -89 c25 -106 -17 -213 -65 -165 -23
23 -21 182 2 207 25 28 50 10 63 -42z"/>
<path d="M546 5735 c-28 -43 -18 -74 18 -50 11 8 40 15 64 15 38 0 43 -2 37
-17 -4 -10 -10 -27 -13 -38 -2 -11 -8 -24 -12 -30 -4 -5 -13 -32 -20 -60 -7
-27 -17 -55 -21 -61 -5 -6 -2 -19 6 -30 14 -18 16 -18 29 -1 20 26 99 274 91
286 -3 6 -40 11 -84 11 -73 0 -80 -2 -95 -25z"/>
<path d="M782 5508 c-17 -17 -15 -36 7 -47 24 -13 55 8 49 35 -4 22 -38 30
-56 12z"/>
<path d="M665 5152 c-49 -16 -87 -49 -110 -96 -28 -56 -31 -92 -11 -139 20
-47 47 -67 96 -69 37 -1 47 3 72 30 39 45 39 98 -1 141 -20 22 -38 31 -60 31
-44 0 -38 16 19 52 28 17 50 34 50 38 0 7 -28 22 -33 19 -1 -1 -11 -4 -22 -7z
m9 -190 c11 -38 -5 -82 -29 -82 -29 0 -45 27 -45 75 0 46 0 46 32 43 27 -2 34
-9 42 -36z"/>
<path d="M960 5153 c-35 -7 -50 -21 -71 -71 -24 -55 -24 -115 0 -167 24 -53
43 -67 90 -68 68 -2 103 49 102 147 -1 117 -43 172 -121 159z m39 -47 c39 -47
27 -218 -15 -224 -36 -5 -48 23 -47 114 0 67 4 89 18 104 21 24 29 25 44 6z"/>
<path d="M255 5000 c-3 -5 -36 -10 -73 -10 -83 0 -112 -17 -112 -64 0 -17 5
-37 12 -44 8 -8 8 -15 0 -25 -14 -17 -9 -144 6 -159 8 -8 15 -8 26 1 9 7 39
11 78 9 55 -3 63 -5 63 -23 0 -17 -8 -20 -55 -23 -72 -3 -95 -9 -114 -28 -19
-18 -21 -65 -4 -82 9 -9 9 -17 0 -34 -13 -24 -11 -125 2 -147 5 -7 15 -9 25
-5 33 14 125 13 143 -3 29 -26 32 -7 29 197 -1 69 -2 127 -1 130 6 22 5 77 -3
87 -5 7 -6 17 -2 23 9 14 13 82 7 94 -3 6 -4 34 -3 63 2 49 -8 68 -24 43z m0
-95 c0 -18 -8 -20 -67 -23 -67 -3 -68 -3 -68 23 0 26 1 26 68 23 59 -3 67 -5
67 -23z m1 -100 c11 -28 -15 -45 -60 -40 -22 2 -48 4 -57 4 -16 1 -32 35 -21
45 3 3 34 6 69 6 48 0 65 -4 69 -15z m-1 -215 c3 -6 3 -19 0 -30 -5 -17 -15
-20 -65 -20 -46 0 -61 4 -68 18 -17 33 -3 42 63 42 35 0 67 -5 70 -10z m-5
-115 c25 -30 -13 -42 -112 -36 -12 1 -18 9 -18 24 0 21 5 23 59 25 43 2 62 -2
71 -13z"/>
<path d="M786 4901 c-23 -25 -10 -53 23 -49 33 4 42 42 13 57 -15 8 -23 6 -36
-8z"/>
<path d="M943 4535 c-38 -16 -73 -88 -73 -149 0 -113 87 -190 158 -140 38 26
53 70 53 146 0 63 -3 75 -29 107 -34 42 -68 53 -109 36z m54 -37 c32 -51 40
-117 21 -178 -14 -45 -42 -60 -66 -37 -23 24 -21 180 3 207 21 23 31 25 42 8z"/>
<path d="M573 4484 c-28 -60 -26 -66 28 -83 20 -7 44 -20 54 -30 21 -24 16
-70 -10 -87 -17 -11 -25 -11 -50 2 -36 18 -57 11 -53 -18 7 -53 119 -43 159
13 40 56 14 142 -51 169 -41 17 -38 30 9 30 41 0 67 20 57 45 -4 11 -21 15
-61 15 l-55 0 -27 -56z"/>
<path d="M781 4286 c-9 -11 -9 -19 1 -35 15 -24 36 -24 51 0 23 37 -25 68 -52
35z"/>
<path d="M252 4213 c-7 -2 -17 -13 -22 -24 -13 -23 3 -59 26 -59 9 0 18 9 21
20 5 20 33 29 33 10 0 -5 7 -10 15 -10 25 0 17 27 -14 49 -30 22 -37 23 -59
14z"/>
<path d="M0 4080 c0 -47 1 -50 20 -38 15 10 22 10 32 0 6 -6 22 -12 35 -12 21
0 23 -4 23 -51 0 -48 -1 -51 -22 -45 -13 3 -28 6 -35 6 -7 0 -21 10 -33 22
l-20 22 0 -63 c0 -55 2 -62 15 -51 12 10 25 10 62 1 93 -23 158 -44 175 -59
24 -21 34 -9 33 40 -1 55 -11 73 -31 57 -15 -12 -80 -4 -101 13 -15 12 -18 88
-3 88 30 0 100 -26 100 -37 0 -15 30 -18 31 -3 3 48 1 102 -5 108 -4 4 -13 -1
-20 -10 -11 -16 -17 -16 -77 -1 -35 8 -72 19 -81 24 -10 5 -26 9 -36 9 -9 0
-28 7 -40 16 -22 15 -22 15 -22 -36z"/>
<path d="M599 3843 c-76 -102 -82 -115 -65 -138 9 -13 22 -16 47 -13 43 7 69
-6 69 -36 0 -12 3 -26 6 -29 13 -12 44 14 44 37 0 15 7 26 20 29 27 7 27 47 0
54 -17 5 -20 15 -22 91 -4 116 -15 117 -99 5z m47 -69 c-5 -17 -13 -24 -31
-24 -32 0 -31 6 2 55 26 37 28 38 31 16 2 -12 1 -34 -2 -47z"/>
<path d="M934 3920 c-27 -11 -64 -89 -64 -136 0 -91 47 -164 104 -164 67 0
109 59 109 155 0 117 -64 179 -149 145z m76 -56 c15 -38 14 -144 -1 -176 -15
-34 -39 -36 -58 -6 -17 27 -18 157 -1 187 15 30 48 27 60 -5z"/>
<path d="M793 3693 c-18 -7 -16 -62 2 -69 20 -8 45 13 45 37 0 20 -28 39 -47
32z"/>
<path d="M566 3295 c-45 -41 -29 -81 18 -44 34 27 60 21 64 -14 2 -15 -1 -27
-5 -27 -16 0 -54 -41 -48 -51 4 -5 14 -9 24 -9 21 0 51 -30 51 -52 0 -8 -9
-23 -19 -32 -17 -16 -22 -16 -54 -2 -32 13 -37 13 -51 -3 -15 -16 -15 -19 1
-33 31 -27 62 -31 101 -13 20 10 45 27 54 39 22 27 23 94 2 125 -12 17 -13 26
-5 34 17 17 13 52 -10 81 -28 35 -85 36 -123 1z"/>
<path d="M922 3300 c-77 -72 -63 -246 23 -287 28 -13 36 -13 60 -2 92 45 110
201 32 287 -27 29 -85 30 -115 2z m95 -74 c13 -47 0 -156 -20 -168 -40 -26
-60 12 -59 114 0 60 4 84 17 98 24 26 49 9 62 -44z"/>
<path d="M780 3065 c-18 -22 -1 -50 31 -50 20 0 24 5 24 30 0 23 -5 31 -21 33
-11 2 -27 -4 -34 -13z"/>
<path d="M1181 2210 c-52 -53 -55 -181 -5 -247 22 -29 31 -33 69 -33 56 0 87
31 105 105 15 64 1 130 -38 176 -34 41 -89 41 -131 -1z m109 -128 c0 -117 -43
-161 -75 -77 -21 55 -17 141 10 181 l18 28 23 -30 c20 -24 24 -40 24 -102z"/>
<path d="M3165 2205 c-19 -20 -35 -40 -35 -45 0 -22 24 -20 50 5 32 31 60 28
79 -9 17 -31 -4 -71 -75 -146 -69 -72 -63 -82 45 -78 77 3 83 5 99 30 9 15 13
30 10 33 -3 4 -29 2 -57 -3 -63 -11 -72 -1 -34 36 79 74 94 138 45 185 -41 39
-82 36 -127 -8z"/>
<path d="M3520 2212 c-90 -90 -49 -282 60 -282 38 0 65 21 90 68 17 33 14 145
-5 181 -33 66 -98 80 -145 33z m90 -38 c31 -62 11 -204 -30 -212 -27 -5 -41
36 -41 119 0 117 35 164 71 93z"/>
<path d="M5370 2227 c-9 -7 -27 -28 -40 -47 -13 -19 -27 -37 -30 -40 -3 -3
-20 -27 -38 -53 -44 -63 -38 -77 33 -77 54 0 55 -1 55 -29 0 -31 22 -57 40
-46 5 3 10 15 10 25 0 28 11 50 25 50 26 0 25 30 0 40 -24 9 -25 13 -25 94 0
88 -5 102 -30 83z m-20 -132 c0 -43 -1 -45 -29 -45 -38 0 -46 12 -20 30 10 8
19 19 19 25 0 10 19 35 27 35 2 0 3 -20 3 -45z"/>
<path d="M5640 2227 c-67 -54 -77 -197 -19 -271 16 -21 29 -26 63 -26 52 0 77
24 101 94 14 41 15 56 5 100 -7 28 -23 66 -37 84 -20 26 -31 32 -61 32 -20 0
-44 -6 -52 -13z m70 -39 c17 -18 20 -35 20 -103 0 -114 -35 -160 -73 -96 -25
42 -23 146 3 189 11 17 22 32 24 32 3 0 14 -10 26 -22z"/>
<path d="M7452 2225 c-69 -38 -102 -93 -102 -169 0 -48 4 -60 31 -91 26 -30
37 -35 73 -35 31 0 48 6 64 23 29 31 44 75 37 109 -8 33 -62 78 -93 78 -12 0
-22 4 -22 9 0 10 57 55 83 64 10 4 15 11 12 17 -8 14 -55 11 -83 -5z m27 -149
c18 -22 10 -97 -12 -110 -15 -9 -20 -7 -30 9 -24 40 -34 80 -25 98 11 21 51
23 67 3z"/>
<path d="M7737 2217 c-31 -25 -47 -71 -47 -139 0 -93 39 -148 105 -148 31 0
47 6 61 23 61 69 59 197 -4 270 -22 25 -81 22 -115 -6z m97 -137 c-1 -77 -4
-93 -20 -105 -28 -21 -33 -19 -51 22 -21 51 -13 165 13 194 l18 20 20 -21 c18
-17 20 -32 20 -110z"/>
<path d="M9538 2219 c-35 -26 -39 -86 -8 -114 19 -18 19 -18 -5 -47 -33 -38
-32 -68 3 -101 34 -33 94 -36 132 -8 33 26 35 91 2 119 -27 24 -28 34 -2 57
27 24 25 56 -5 89 -30 32 -78 34 -117 5z m78 -23 c18 -19 18 -44 -1 -63 -14
-14 -18 -14 -35 2 -23 20 -26 45 -8 63 16 16 26 15 44 -2z m-7 -155 c26 -22
25 -58 -1 -74 -12 -8 -21 -7 -32 2 -19 16 -21 77 -3 84 6 3 12 6 13 6 1 1 11
-8 23 -18z"/>
<path d="M9894 2229 c-30 -15 -64 -92 -64 -143 0 -50 21 -107 50 -136 33 -33
89 -27 128 13 31 32 32 36 32 120 0 51 -4 87 -10 87 -5 0 -10 6 -10 14 0 22
-49 56 -79 55 -14 0 -35 -5 -47 -10z m64 -32 c23 -28 33 -108 21 -164 -16 -69
-33 -84 -62 -54 -19 19 -22 32 -22 105 0 68 4 88 19 105 22 24 30 26 44 8z"/>
<path d="M3381 1982 c-12 -23 4 -52 29 -52 25 0 33 15 26 46 -8 29 -41 33 -55
6z"/>
<path d="M5490 1979 c-9 -15 -8 -24 1 -35 26 -32 69 -1 49 35 -6 12 -17 21
-25 21 -8 0 -19 -9 -25 -21z"/>
<path d="M7600 1985 c-16 -20 -9 -49 14 -53 27 -6 48 25 35 49 -12 23 -32 24
-49 4z"/>
<path d="M9739 1984 c-17 -21 0 -49 32 -49 18 0 25 6 27 24 6 38 -34 55 -59
25z"/>
<path d="M4819 1699 c-24 -9 -49 -45 -49 -71 0 -6 -8 -17 -17 -24 -17 -13 -17
-15 0 -28 24 -19 24 -122 0 -148 -15 -17 -15 -20 -3 -29 8 -5 21 -7 28 -4 8 3
27 5 43 5 31 0 41 26 14 36 -11 5 -15 22 -15 69 0 58 2 64 23 67 12 2 22 10
22 18 0 8 -10 16 -22 18 -26 4 -31 33 -9 51 11 9 15 8 20 -4 4 -11 15 -15 33
-13 l28 3 3 -99 c2 -63 -1 -103 -9 -112 -21 -25 -3 -42 40 -40 41 2 66 15 44
23 -10 3 -13 39 -13 131 0 70 -4 133 -8 140 -5 7 -24 11 -43 10 -19 -1 -45 1
-59 5 -14 3 -37 1 -51 -4z"/>
<path d="M7229 1683 c-6 -16 -28 -77 -49 -138 -21 -60 -43 -111 -48 -113 -5
-1 -12 32 -14 74 -4 65 -9 80 -28 96 -24 19 -73 17 -94 -3 -6 -5 -17 -2 -27 7
-13 12 -26 14 -46 8 -15 -4 -42 -7 -59 -5 -36 3 -64 -23 -46 -41 18 -18 15
-118 -4 -139 -9 -10 -13 -23 -9 -28 7 -12 64 -15 89 -5 19 7 21 30 3 37 -21 8
-20 101 1 120 28 26 46 6 45 -51 0 -27 -6 -59 -12 -71 -7 -12 -9 -25 -6 -30 8
-13 243 -10 254 3 8 10 26 58 87 234 9 24 13 50 10 58 -9 23 -36 16 -47 -13z
m-169 -187 c0 -59 -13 -80 -42 -65 -25 14 -26 113 -1 128 28 15 43 -6 43 -63z"/>
<path d="M3444 1685 c-3 -8 1 -24 10 -37 12 -16 16 -46 16 -109 0 -72 -3 -89
-19 -103 -11 -10 -18 -23 -15 -29 5 -15 183 -21 217 -8 31 12 55 67 38 84 -10
9 -17 6 -33 -15 -17 -25 -26 -28 -74 -28 l-54 0 0 104 c0 74 4 109 13 118 24
24 8 38 -44 38 -34 0 -51 -5 -55 -15z"/>
<path d="M3734 1685 c-4 -9 0 -23 9 -32 21 -21 49 -9 45 19 -4 28 -45 38 -54
13z"/>
<path d="M6062 1631 c-17 -23 -19 -38 -15 -101 7 -123 35 -161 89 -125 28 18
27 40 -2 40 -16 0 -19 9 -22 57 -3 49 0 58 18 68 26 14 26 36 0 43 -11 3 -20
12 -20 20 0 27 -27 26 -48 -2z"/>
<path d="M3947 1609 c-10 -6 -29 -8 -42 -5 -48 12 -55 1 -48 -78 4 -49 2 -80
-7 -95 -15 -29 0 -41 43 -36 38 5 39 6 29 51 -12 60 -2 108 26 112 21 3 22 0
22 -60 0 -36 -5 -69 -12 -76 -15 -15 -11 -18 35 -25 44 -7 57 10 38 46 -6 12
-10 33 -9 47 4 56 -3 91 -22 110 -23 23 -28 24 -53 9z"/>
<path d="M4125 1606 c-44 -19 -58 -41 -59 -95 -2 -89 42 -130 116 -111 30 9
43 19 53 43 17 39 5 45 -33 17 -25 -18 -32 -20 -55 -9 -18 8 -27 20 -27 35 0
21 5 23 58 26 53 3 57 5 60 28 2 17 -5 33 -20 47 -32 29 -58 34 -93 19z m40
-46 c-3 -5 -13 -10 -21 -10 -8 0 -14 5 -14 10 0 6 9 10 21 10 11 0 17 -4 14
-10z"/>
<path d="M4334 1612 c-47 -7 -72 -72 -31 -80 10 -2 21 6 29 23 13 29 32 28 36
-2 2 -15 -4 -22 -25 -28 -69 -17 -97 -89 -48 -121 21 -14 30 -14 55 -4 23 10
33 10 44 1 11 -10 20 -10 36 -1 12 6 29 8 38 4 51 -22 133 3 89 27 -13 8 -17
24 -17 64 l0 55 34 0 c43 0 55 25 27 54 -16 15 -23 17 -34 7 -9 -6 -26 -9 -39
-6 -13 3 -31 0 -43 -9 -17 -13 -18 -18 -7 -35 16 -27 16 -115 -1 -129 -25 -21
-47 11 -47 69 0 87 -31 122 -96 111z m34 -139 c-4 -32 -38 -46 -38 -16 0 20
18 43 33 43 4 0 7 -12 5 -27z"/>
<path d="M5904 1613 c-29 -6 -57 -37 -52 -60 4 -22 48 -31 48 -10 0 25 26 39
40 22 15 -18 16 -16 -33 -39 -69 -32 -88 -96 -35 -125 23 -13 30 -13 52 -2 21
12 28 12 41 1 12 -10 21 -10 40 -2 29 13 31 24 10 42 -10 9 -15 32 -15 75 0
57 -3 66 -26 84 -27 21 -31 22 -70 14z m46 -132 c0 -20 -19 -41 -37 -41 -18 0
-16 30 3 51 19 21 34 16 34 -10z"/>
<path d="M6220 1603 c-41 -28 -49 -45 -50 -101 0 -46 4 -58 29 -83 33 -32 58
-36 101 -14 27 14 60 51 60 67 0 15 -31 8 -60 -14 l-30 -22 -25 24 c-41 38
-33 50 34 50 65 0 78 11 61 55 -9 23 -56 55 -82 55 -8 0 -25 -8 -38 -17z m42
-45 c-9 -9 -15 -9 -24 0 -9 9 -7 12 12 12 19 0 21 -3 12 -12z"/>
<path d="M6658 1603 c-37 -23 -51 -54 -51 -110 0 -39 4 -50 31 -75 18 -15 40
-28 50 -28 31 0 70 24 87 52 14 25 15 29 1 34 -9 3 -23 -1 -31 -10 -38 -37
-88 -6 -83 52 4 49 33 65 58 34 25 -30 54 -25 58 10 3 21 -3 30 -27 42 -38 20
-59 20 -93 -1z"/>
<path d="M7316 1599 c-17 -13 -26 -30 -26 -47 0 -36 10 -49 51 -71 34 -19 44
-41 22 -48 -7 -3 -24 8 -38 23 -20 22 -26 24 -31 11 -3 -8 -4 -28 -2 -42 3
-25 7 -28 51 -32 40 -3 51 0 72 21 14 14 25 32 25 41 0 21 -29 65 -44 65 -6 0
-22 9 -36 20 -21 16 -23 21 -12 32 11 11 17 8 36 -15 12 -15 25 -24 29 -21 12
12 8 64 -5 68 -49 16 -67 15 -92 -5z"/>
<path d="M3736 1597 c-15 -11 -16 -17 -7 -35 15 -28 12 -102 -6 -130 -19 -32
-9 -42 38 -37 49 5 57 10 42 33 -5 10 -9 49 -8 87 3 90 -15 114 -59 82z"/>
<path d="M5055 1584 c-51 -55 -37 -147 28 -179 37 -19 51 -19 86 0 63 32 76
133 23 182 -37 34 -104 32 -137 -3z m102 -33 c28 -36 5 -121 -32 -121 -20 0
-45 46 -45 81 0 59 44 82 77 40z"/>
<path d="M5254 1599 c-3 -6 4 -32 16 -57 12 -26 26 -56 30 -67 34 -92 46 -96
79 -27 l24 47 14 -40 c7 -22 17 -43 22 -48 11 -11 41 2 41 19 0 8 4 22 9 32 5
9 14 29 20 45 6 15 16 38 22 51 7 14 9 32 5 41 -9 25 -41 14 -44 -15 -2 -14
-7 -34 -12 -45 -5 -11 -10 -27 -13 -35 -6 -24 -28 24 -30 68 -2 35 -4 37 -39
40 -41 3 -48 -10 -27 -49 12 -23 3 -59 -15 -59 -11 0 -38 58 -35 77 4 24 -4
33 -30 33 -17 0 -33 -5 -37 -11z"/>
<path d="M5709 1598 c-20 -8 -26 -33 -9 -43 15 -9 8 -104 -7 -117 -7 -6 -13
-18 -13 -28 0 -16 28 -19 103 -11 13 2 7 29 -8 35 -11 4 -15 21 -15 60 0 57
11 76 35 56 18 -15 50 27 34 46 -11 13 -86 14 -120 2z"/>
<path d="M6387 1453 c-12 -12 -7 -36 10 -48 15 -11 15 -15 4 -29 -24 -28 1
-40 32 -16 29 23 36 67 15 88 -13 13 -50 16 -61 5z"/>
<path d="M89 1043 c-47 -52 -59 -84 -59 -157 0 -55 4 -70 33 -112 34 -51 61
-73 74 -61 4 4 1 18 -7 30 -64 102 -66 206 -3 281 24 28 26 47 7 53 -6 2 -26
-14 -45 -34z"/>
<path d="M185 1066 c-16 -12 -18 -18 -8 -37 7 -14 12 -69 12 -127 -1 -119 7
-131 76 -132 72 0 122 59 112 133 -8 57 -42 89 -92 85 -39 -3 -40 -2 -42 30
-3 63 -19 76 -58 48z m121 -151 c33 -51 -9 -130 -52 -95 -18 15 -12 99 8 111
20 13 26 11 44 -16z"/>
<path d="M738 1055 c-48 -32 -68 -72 -68 -130 0 -63 23 -107 69 -133 54 -31
148 -29 199 4 2 1 7 26 12 56 4 29 11 63 15 76 7 21 5 22 -49 22 -48 0 -56 -3
-56 -19 0 -10 7 -21 15 -25 10 -3 15 -19 15 -45 0 -35 -3 -40 -29 -46 -73 -16
-121 28 -121 109 1 54 11 75 47 94 40 22 82 15 113 -19 15 -17 32 -29 37 -26
5 3 7 27 4 53 l-6 47 -80 4 c-73 3 -83 1 -117 -22z"/>
<path d="M1540 1062 c-20 -16 -21 -19 -6 -31 13 -11 16 -34 16 -110 0 -59 -4
-101 -11 -108 -23 -23 -2 -44 38 -41 32 3 37 6 34 23 -4 18 -8 123 -10 238 -1
39 -4 47 -20 47 -10 0 -29 -8 -41 -18z"/>
<path d="M1675 1059 c-5 -16 -2 -26 10 -35 25 -19 47 -6 43 25 -4 35 -43 42
-53 10z"/>
<path d="M2257 1073 c-14 -13 -7 -43 12 -53 28 -14 55 13 41 41 -10 19 -40 26
-53 12z"/>
<path d="M2485 1066 c-16 -12 -18 -17 -7 -27 6 -7 12 -21 12 -31 0 -14 -8 -18
-33 -18 -93 0 -134 -149 -58 -207 20 -15 119 -14 143 1 18 11 24 37 12 49 -3
3 -7 59 -7 124 -2 110 -3 118 -22 121 -11 1 -29 -4 -40 -12z m-1 -132 c3 -9 6
-38 6 -65 0 -44 -2 -49 -23 -49 -34 0 -47 19 -47 65 0 23 5 46 12 53 17 17 45
15 52 -4z"/>
<path d="M2916 1064 c-13 -12 -14 -19 -5 -30 7 -9 10 -55 8 -136 l-4 -123 35
0 34 0 0 80 c1 76 2 80 24 83 24 4 24 3 21 -80 l-4 -83 35 0 c30 0 35 3 34 23
0 12 -1 51 -2 87 -2 81 -25 110 -77 101 l-34 -7 -3 48 c-2 40 -6 48 -24 51
-12 2 -29 -4 -38 -14z"/>
<path d="M5231 1064 c-16 -12 -20 -19 -12 -27 14 -14 15 -201 1 -227 -13 -24
10 -43 47 -38 23 2 28 7 26 28 -3 30 -5 88 -4 111 1 20 31 33 44 20 13 -13 12
-103 -2 -129 -10 -19 -9 -22 13 -28 37 -9 72 -1 67 16 -3 8 -7 49 -10 91 -7
93 -20 111 -75 107 -39 -2 -41 -1 -42 27 -2 57 -4 65 -17 65 -7 0 -23 -7 -36
-16z"/>
<path d="M400 1062 c0 -5 11 -22 25 -38 29 -33 49 -121 42 -177 -3 -22 -20
-60 -37 -84 -44 -61 -27 -78 26 -26 55 54 64 75 65 146 1 68 -11 102 -57 156
-24 28 -64 43 -64 23z"/>
<path d="M4075 998 c-18 -22 -23 -34 -16 -41 6 -6 11 -43 11 -81 1 -76 14
-106 47 -106 19 0 53 28 53 43 0 4 -11 7 -25 7 -24 0 -25 2 -25 65 0 53 3 63
15 59 30 -12 28 25 -3 56 l-30 30 -27 -32z"/>
<path d="M1020 970 c-21 -21 -27 -55 -10 -65 14 -9 50 13 50 30 0 20 26 19 34
0 5 -14 -27 -35 -54 -35 -14 0 -50 -56 -50 -77 0 -24 30 -53 54 -53 9 0 27 5
38 11 14 8 23 8 31 0 16 -16 42 -14 57 4 10 13 10 19 -4 33 -11 13 -16 37 -16
73 0 73 -19 99 -71 99 -26 0 -46 -7 -59 -20z m74 -128 c-7 -24 -44 -31 -44 -8
0 20 31 49 41 39 5 -5 6 -18 3 -31z"/>
<path d="M1223 982 c-7 -4 -16 -19 -21 -32 -13 -34 7 -71 52 -95 38 -21 46
-42 20 -52 -10 -4 -24 4 -38 22 -25 31 -47 27 -39 -8 9 -36 23 -47 62 -47 52
0 81 23 81 66 0 30 -6 38 -45 62 -25 15 -45 33 -45 39 0 20 24 15 44 -9 18
-21 19 -21 32 -3 22 29 -3 59 -52 63 -22 1 -44 -1 -51 -6z"/>
<path d="M1681 979 c-19 -8 -22 -14 -16 -37 8 -30 8 -102 -1 -145 -6 -28 -5
-28 38 -25 36 3 43 6 40 23 -1 11 -4 54 -6 95 -2 41 -4 81 -5 88 -1 14 -16 15
-50 1z"/>
<path d="M1821 969 c-54 -50 -59 -139 -9 -181 23 -21 68 -24 86 -6 9 9 12 4
12 -24 0 -20 -4 -40 -10 -43 -23 -14 -7 -25 35 -25 42 0 58 14 38 33 -3 4 -6
61 -6 127 1 76 -3 122 -10 127 -6 3 -33 8 -61 10 -42 3 -55 0 -75 -18z m84
-84 c0 -50 -3 -60 -18 -63 -30 -6 -47 17 -47 64 0 30 5 46 18 53 36 22 47 9
47 -54z"/>
<path d="M2016 928 c9 -112 13 -130 31 -144 21 -16 59 -18 68 -4 3 6 15 6 29
0 29 -11 75 15 57 33 -6 6 -11 43 -11 82 0 78 -9 95 -52 95 -28 0 -39 -22 -18
-35 6 -3 10 -35 10 -71 0 -62 -1 -64 -25 -64 -24 0 -25 2 -25 73 0 78 -9 97
-47 97 -22 0 -22 -3 -17 -62z"/>
<path d="M2261 983 c-20 -4 -22 -9 -17 -36 8 -44 8 -127 0 -154 -6 -22 -3 -23
40 -23 l46 0 -6 43 c-3 23 -7 72 -8 107 -1 69 -5 73 -55 63z"/>
<path d="M2736 961 c-26 -27 -30 -39 -30 -87 -1 -50 2 -58 29 -80 46 -37 109
-27 135 21 19 36 3 48 -30 23 -26 -19 -33 -20 -54 -8 -39 20 -41 91 -3 111 17
9 23 7 37 -11 18 -24 53 -24 57 0 5 28 -25 52 -69 57 -38 4 -46 1 -72 -26z"/>
<path d="M3151 976 c-22 -10 -28 -31 -11 -41 14 -8 13 -118 -1 -132 -19 -19
-1 -32 41 -31 44 0 62 15 36 30 -12 7 -16 24 -16 68 l0 60 35 0 c38 0 57 22
36 43 -14 14 -91 16 -120 3z"/>
<path d="M3318 962 c-27 -25 -32 -36 -32 -81 -1 -47 2 -56 32 -82 43 -39 90
-39 134 -1 27 25 32 36 32 81 1 47 -2 56 -32 82 -43 39 -90 39 -134 1z m96
-34 c23 -33 20 -91 -5 -114 -21 -19 -21 -18 -45 9 -26 31 -33 94 -12 115 19
19 45 14 62 -10z"/>
<path d="M3539 980 c-13 -8 -15 -23 -11 -85 3 -52 1 -79 -8 -90 -17 -20 -11
-25 36 -28 36 -2 39 0 36 23 -9 87 -5 129 14 137 37 14 48 -34 32 -142 -2 -16
4 -21 31 -23 40 -4 60 11 42 32 -7 9 -11 37 -9 73 3 54 5 58 28 58 25 0 25 -1
24 -75 -1 -80 4 -90 48 -90 29 0 45 14 28 25 -5 3 -10 34 -10 68 0 100 -33
142 -92 119 -25 -9 -39 -9 -65 0 -27 10 -38 10 -55 -1 -14 -9 -23 -10 -31 -2
-13 13 -17 13 -38 1z"/>
<path d="M3892 974 c-16 -11 -22 -24 -20 -42 4 -36 29 -35 46 2 13 25 16 27
30 13 13 -13 13 -19 2 -31 -7 -9 -20 -16 -30 -16 -20 0 -70 -54 -70 -74 0 -19
44 -56 66 -56 11 0 25 5 32 12 9 9 15 9 24 0 18 -18 55 -15 63 5 3 10 1 19 -4
21 -6 2 -11 28 -11 58 0 59 -19 108 -45 118 -28 10 -60 7 -83 -10z m68 -123
c0 -24 -15 -35 -36 -27 -12 4 -13 10 -4 26 14 26 40 26 40 1z"/>
<path d="M4218 961 c-28 -25 -32 -34 -32 -81 0 -48 3 -56 34 -82 86 -71 197
14 161 124 -23 68 -107 89 -163 39z m100 -36 c20 -43 15 -92 -10 -109 -20 -15
-24 -14 -45 6 -26 24 -32 95 -11 116 21 21 54 14 66 -13z"/>
<path d="M4454 967 c-30 -26 -36 -76 -13 -103 9 -11 9 -18 1 -26 -7 -7 -12
-24 -12 -39 0 -15 -4 -31 -10 -34 -16 -10 -12 -47 8 -61 37 -29 149 -11 173
28 29 45 -5 85 -76 90 -49 3 -48 7 9 24 16 5 33 16 37 24 22 42 41 91 36 96
-7 8 -77 23 -104 24 -12 0 -34 -11 -49 -23z m64 -29 c15 -15 16 -55 2 -63 -16
-10 -40 14 -40 40 0 34 16 45 38 23z m52 -182 c0 -10 -16 -17 -44 -21 -48 -8
-66 -2 -66 21 0 10 14 14 55 14 41 0 55 -4 55 -14z"/>
<path d="M4663 979 c-14 -5 -17 -22 -17 -107 l-1 -102 30 0 c45 0 60 13 45 39
-6 12 -10 43 -8 69 2 39 7 47 23 48 11 1 26 2 33 3 6 1 12 10 12 20 0 11 -6
23 -12 28 -15 9 -81 11 -105 2z"/>
<path d="M4820 970 c-25 -25 -26 -49 -2 -66 16 -12 16 -14 -5 -29 -28 -20 -30
-65 -5 -88 22 -20 45 -21 73 -4 17 10 23 10 26 0 7 -20 51 -15 63 6 8 15 7 22
-4 28 -9 5 -15 32 -18 77 -3 52 -9 72 -23 82 -28 21 -82 17 -105 -6z m70 -39
c0 -11 -9 -23 -21 -26 -26 -9 -29 -5 -18 23 10 27 39 29 39 3z m0 -81 c0 -23
-4 -30 -20 -30 -24 0 -26 22 -4 44 21 22 24 20 24 -14z"/>
<path d="M5010 976 c-16 -7 -20 -15 -14 -30 4 -12 9 -63 11 -114 4 -76 1 -97
-11 -111 -21 -23 -11 -31 40 -31 44 0 67 15 40 26 -9 3 -16 17 -16 30 0 21 5
24 34 24 73 0 123 88 92 162 -9 20 -21 40 -28 45 -18 11 -123 10 -148 -1z
m116 -64 c14 -28 6 -89 -13 -97 -9 -3 -24 -3 -34 0 -27 9 -28 111 -1 118 26 7
36 3 48 -21z"/>
<path d="M5440 978 c0 -7 19 -50 41 -94 46 -91 48 -134 6 -134 -59 -1 -65 -53
-7 -58 30 -2 38 2 56 30 11 18 26 49 33 68 20 54 46 119 64 157 12 27 2 43
-27 43 -19 0 -24 -7 -32 -52 -5 -28 -14 -53 -19 -55 -14 -4 -36 48 -33 78 3
22 -1 24 -39 27 -30 2 -43 -1 -43 -10z"/>
<path d="M1374 899 c-3 -5 -2 -18 1 -30 6 -17 14 -20 58 -17 48 3 52 5 52 28
0 23 -4 25 -52 26 -29 2 -55 -2 -59 -7z"/>
<path d="M240 320 c-7 -5 -19 -6 -26 -3 -6 2 -28 -12 -48 -32 -31 -31 -36 -42
-36 -83 0 -47 7 -61 54 -100 8 -6 38 -12 65 -12 41 0 57 5 82 28 27 24 31 34
32 80 0 44 -4 57 -28 82 -32 33 -76 52 -95 40z m23 -37 c-7 -2 -19 -2 -25 0
-7 3 -2 5 12 5 14 0 19 -2 13 -5z m-43 -9 c0 -4 -7 -12 -15 -18 -22 -16 -22
-82 0 -106 26 -29 79 -27 93 4 14 32 6 38 -28 21 -31 -16 -50 -5 -50 31 0 27
24 38 52 23 27 -15 47 3 28 26 -16 19 -3 20 16 1 22 -22 18 -86 -8 -113 -29
-31 -92 -32 -125 -1 -30 28 -31 83 -1 115 21 22 38 30 38 17z"/>
<path d="M509 316 c-24 -12 -59 -66 -52 -78 9 -17 43 -8 43 11 0 20 23 30 53
23 33 -7 20 -45 -27 -75 -49 -31 -80 -71 -72 -93 4 -10 25 -14 79 -14 78 0 93
5 76 26 -8 9 -25 11 -55 7 -38 -5 -44 -3 -38 10 3 8 20 22 37 31 66 31 83 76
47 126 -22 32 -59 42 -91 26z"/>
<path d="M3946 320 c-15 -5 -36 -16 -46 -25 -17 -15 -19 -15 -25 4 -13 41 -34
21 -54 -49 -7 -25 -17 -53 -22 -62 -5 -10 -9 -27 -9 -38 0 -11 -4 -20 -10 -20
-5 0 -10 8 -10 18 0 26 -32 52 -63 52 -17 0 -27 5 -27 15 0 19 34 19 50 0 15
-18 30 -10 30 16 0 12 -13 25 -35 36 -34 16 -36 16 -63 -4 -41 -30 -41 -68 0
-93 18 -11 41 -20 51 -20 9 0 17 -7 17 -15 0 -20 -53 -20 -70 0 -18 22 -30 18
-30 -10 0 -19 8 -28 27 -36 34 -13 92 -3 100 17 5 12 7 12 18 -2 19 -27 39
-11 53 42 8 27 18 58 22 69 5 11 11 29 14 40 3 11 4 0 4 -25 -1 -75 1 -84 27
-114 22 -25 33 -30 76 -30 46 -1 54 2 80 33 16 19 30 33 32 30 1 -2 9 -16 16
-31 17 -33 41 -42 85 -34 21 4 38 16 46 32 17 30 16 88 0 120 -14 25 -65 48
-84 37 -30 -17 -56 -49 -56 -70 0 -18 -5 -23 -25 -23 -15 0 -28 -7 -32 -17
-18 -48 -80 -57 -112 -17 -64 81 44 186 111 109 27 -31 38 -32 38 -2 0 48 -67
84 -124 67z m252 -102 c27 -27 4 -98 -32 -98 -42 0 -61 57 -29 92 19 21 44 23
61 6z"/>
<path d="M651 294 c-20 -26 -26 -61 -22 -134 2 -41 40 -80 77 -80 33 0 74 42
74 77 1 27 1 27 15 9 8 -11 15 -26 15 -34 0 -21 39 -52 64 -51 59 2 86 42 86
129 0 47 -4 62 -25 84 -45 48 -99 29 -135 -49 l-14 -30 -4 30 c-9 71 -90 101
-131 49z m265 -62 c14 -75 -22 -134 -61 -102 -21 17 -20 108 1 131 24 26 52
13 60 -29z m-180 21 c30 -40 8 -133 -31 -133 -25 0 -45 36 -45 81 0 59 46 91
76 52z"/>
<path d="M1226 305 c-6 -17 29 -36 52 -28 6 3 12 1 12 -3 1 -5 2 -46 4 -91 2
-88 6 -99 30 -90 12 5 16 27 18 93 3 84 4 87 28 91 13 2 29 8 33 12 21 21 -8
31 -88 31 -65 0 -84 -3 -89 -15z"/>
<path d="M1437 313 c-4 -3 -7 -55 -7 -115 0 -101 1 -108 20 -108 16 0 20 7 21
33 1 17 1 37 0 43 -3 27 19 64 38 64 26 0 39 -26 35 -70 -4 -46 4 -70 22 -70
12 0 14 14 12 76 -3 70 -5 79 -29 97 -21 15 -31 17 -45 9 -15 -9 -21 -5 -31
19 -12 29 -23 35 -36 22z"/>
<path d="M2825 298 c-3 -13 -5 -63 -3 -113 l3 -90 70 -2 c104 -4 109 2 102
127 -4 89 -15 100 -97 100 -64 0 -70 -2 -75 -22z m122 -31 c3 -3 3 -13 0 -22
-4 -10 -20 -15 -47 -15 -32 0 -40 4 -40 18 0 10 3 22 7 25 7 8 71 3 80 -6z
m11 -90 c33 -22 -10 -57 -68 -57 -27 0 -30 3 -30 34 0 33 1 33 43 32 23 -1 48
-5 55 -9z"/>
<path d="M3475 308 c-3 -8 -4 -59 -3 -114 3 -91 5 -99 23 -99 15 0 20 7 20 25
0 32 15 40 29 15 16 -28 33 -45 45 -45 16 0 13 15 -9 55 -22 38 -26 65 -10 65
17 0 33 41 20 54 -9 8 -17 4 -35 -16 -34 -39 -43 -35 -47 19 -3 45 -22 69 -33
41z"/>
<path d="M4277 313 c-4 -3 -7 -55 -7 -115 0 -106 1 -109 21 -106 20 3 21 10
23 98 2 109 -10 151 -37 123z"/>
<path d="M1035 258 c-79 -101 -80 -118 -7 -121 33 -1 42 -5 44 -22 4 -26 44
-28 42 -3 -1 10 2 18 6 18 16 0 20 34 6 49 -9 9 -15 28 -14 41 7 105 -16 116
-77 38z m32 -75 c-3 -3 -13 -3 -21 -1 -15 3 -15 6 1 28 l18 25 3 -23 c2 -13 1
-26 -1 -29z"/>
<path d="M1640 265 c-49 -26 -66 -113 -31 -156 24 -30 91 -33 118 -6 25 25 25
117 0 145 -23 25 -59 32 -87 17z m58 -47 c7 -7 12 -26 12 -43 0 -35 -15 -55
-42 -55 -35 0 -51 66 -22 94 19 19 36 20 52 4z"/>
<path d="M1936 273 c-3 -4 -38 -8 -77 -9 -38 -1 -72 -3 -74 -6 -5 -5 -8 -68
-6 -130 1 -31 5 -38 21 -38 18 0 20 7 20 58 0 57 11 82 37 82 9 0 13 -19 13
-71 0 -67 1 -70 22 -67 19 3 22 9 22 60 1 60 14 85 40 75 12 -5 16 -22 16 -72
0 -58 2 -66 18 -63 14 3 17 15 17 77 0 64 -3 75 -24 92 -25 21 -34 23 -45 12z"/>
<path d="M2223 260 c-18 -11 -33 -24 -33 -29 0 -5 -5 -22 -10 -37 -10 -25 -12
-26 -29 -10 -9 9 -30 16 -44 16 -17 0 -27 5 -27 15 0 9 9 15 25 15 14 0 25 -4
25 -10 0 -5 7 -10 15 -10 20 0 20 46 -1 54 -33 13 -74 6 -94 -16 -11 -12 -20
-26 -20 -31 0 -24 24 -48 60 -58 22 -7 40 -18 40 -26 0 -18 -40 -16 -61 3 -17
16 -39 12 -39 -7 0 -5 9 -18 20 -29 30 -30 76 -26 111 9 18 18 29 24 29 15 0
-24 47 -47 84 -40 46 9 68 44 64 104 -3 40 -8 49 -37 69 -41 28 -38 28 -78 3z
m69 -55 c18 -41 0 -80 -37 -80 -28 0 -30 3 -33 38 -2 21 2 45 9 53 18 22 48
17 61 -11z"/>
<path d="M2435 269 c-4 -5 -19 -9 -33 -7 l-27 3 -3 -88 c-3 -81 -1 -88 15 -85
14 2 19 15 21 58 3 60 14 80 43 80 20 0 22 -7 23 -85 1 -44 4 -50 24 -53 21
-3 22 0 22 68 0 62 -3 74 -25 95 -26 26 -50 32 -60 14z"/>
<path d="M3143 244 c-37 -40 -42 -73 -17 -122 17 -36 68 -51 103 -33 31 17 54
68 47 105 -9 45 -25 64 -65 76 -32 9 -37 7 -68 -26z m87 -38 c14 -39 -2 -80
-33 -84 -43 -5 -57 53 -24 96 16 20 47 14 57 -12z"/>
<path d="M3343 267 c-52 -28 -71 -112 -35 -156 25 -31 81 -38 111 -14 34 28
41 108 12 144 -23 30 -60 41 -88 26z m55 -49 c7 -7 12 -26 12 -43 0 -37 -16
-55 -47 -55 -17 0 -23 7 -28 34 -11 58 29 98 63 64z"/>
<path d="M4364 244 c-39 -41 -43 -76 -16 -123 21 -37 67 -49 108 -29 23 11 30
22 37 63 10 58 -3 89 -45 111 -39 20 -47 18 -84 -22z m70 -20 c28 -11 17 -24
-19 -24 -34 0 -47 13 -22 23 18 8 23 8 41 1z m16 -85 c0 -11 -46 -23 -59 -14
-25 15 -10 31 24 27 19 -2 35 -8 35 -13z"/>
<path d="M3026 240 c-3 -21 -2 -118 3 -142 0 -5 8 -8 16 -8 10 0 15 16 17 63
3 53 6 63 26 72 12 5 22 17 22 26 0 13 -9 16 -40 15 -34 -1 -40 -4 -44 -26z"/>
<path d="M2623 184 c-13 -33 59 -48 76 -15 13 24 5 31 -36 31 -22 0 -36 -6
-40 -16z"/>
</g>
</svg>
