<?xml version="1.0" standalone="no"?>
<!DOCTYPE svg PUBLIC "-//W3C//DTD SVG 20010904//EN"
 "http://www.w3.org/TR/2001/REC-SVG-20010904/DTD/svg10.dtd">
<svg version="1.0" xmlns="http://www.w3.org/2000/svg"
 width="1004.000000pt" height="712.000000pt" viewBox="0 0 1004.000000 712.000000"
 preserveAspectRatio="xMidYMid meet">
<metadata>
Created by potrace 1.13, written by Peter Selinger 2001-2015
</metadata>
<g transform="translate(0.000000,712.000000) scale(0.100000,-0.100000)"
 >
<path d="M570 7103 c-27 -30 -40 -74 -40 -133 0 -84 33 -140 92 -154 67 -16
118 52 118 157 0 65 -11 100 -42 130 -23 23 -107 22 -128 0z m91 -30 c9 -11
14 -43 14 -99 0 -71 -3 -87 -21 -104 -20 -20 -21 -20 -37 -2 -22 25 -28 182
-7 207 16 20 34 19 51 -2z"/>
<path d="M990 7113 c0 -5 -27 -44 -60 -88 -39 -52 -60 -90 -60 -107 0 -27 1
-28 60 -28 l60 0 0 -36 c0 -31 3 -35 23 -32 17 2 23 11 25 34 2 22 9 34 23 37
25 7 25 43 -1 50 -18 5 -20 14 -20 91 0 85 0 86 -25 86 -14 0 -25 -3 -25 -7z
m-4 -159 c-3 -8 -19 -14 -36 -14 l-31 0 33 48 33 47 3 -33 c2 -19 1 -40 -2
-48z"/>
<path d="M1230 7000 c-13 -24 -13 -5019 -1 -5039 8 -12 32 -14 114 -12 118 3
113 6 116 -79 1 -30 6 -59 11 -65 6 -7 37 -10 81 -8 43 2 77 -1 85 -8 10 -8
14 -9 14 0 0 6 7 11 15 11 8 0 15 -5 15 -11 0 -8 4 -8 13 -2 18 14 239 14 256
-1 11 -8 15 -8 18 2 3 7 23 12 53 12 29 0 50 -5 53 -12 4 -10 7 -10 14 -1 11
16 371 17 390 1 9 -7 17 -7 26 0 8 7 113 11 291 11 280 1 346 5 346 23 0 5 8
2 17 -8 16 -15 17 -15 24 2 4 11 8 13 8 7 1 -17 28 -17 34 0 4 9 6 9 6 0 1
-17 28 -17 34 0 4 9 6 9 6 0 1 -17 28 -17 34 0 4 9 6 9 6 0 1 -17 28 -17 34 0
4 9 6 9 6 0 1 -17 28 -17 34 0 4 9 6 9 6 0 1 -17 68 -17 74 0 4 9 6 9 6 0 1
-15 57 -18 66 -3 4 6 13 5 25 -2 14 -9 22 -9 33 1 12 9 17 9 23 0 5 -9 11 -7
21 6 12 17 13 17 13 2 0 -20 38 -23 46 -4 5 15 60 11 80 -4 15 -12 44 -1 44
17 0 21 18 17 30 -6 12 -22 68 -28 87 -9 8 8 13 8 17 0 5 -7 15 -6 32 5 22 15
24 15 24 0 0 -22 27 -21 33 1 4 17 5 17 6 1 1 -19 31 -25 31 -7 0 8 5 7 16 -2
13 -10 17 -10 24 0 5 9 10 10 14 2 11 -18 24 -13 29 12 l4 22 2 -22 c1 -28 31
-31 31 -3 0 11 7 20 15 20 18 0 20 -17 3 -23 -7 -2 -10 -7 -6 -11 3 -4 16 -1
28 6 18 10 24 10 27 1 6 -17 45 -17 62 -1 11 10 14 11 18 1 5 -15 53 -18 53
-4 0 5 11 9 25 9 14 0 25 -4 25 -9 0 -14 28 -11 33 4 4 9 6 9 6 0 1 -7 7 -13
15 -13 8 0 17 6 19 13 4 10 6 10 6 0 1 -7 12 -13 26 -13 14 0 25 6 25 13 0 9
2 9 8 0 4 -6 34 -12 67 -13 96 -3 117 -1 110 10 -3 6 1 10 9 10 9 0 16 -4 16
-10 0 -15 47 -12 53 3 4 9 6 9 6 0 1 -15 71 -18 71 -3 0 6 7 10 16 10 8 0 13
-4 9 -9 -3 -5 -1 -12 4 -15 12 -8 483 -8 751 -1 118 3 221 5 228 5 6 0 12 6
12 14 0 8 11 14 26 14 17 0 24 -5 20 -14 -3 -9 2 -14 14 -14 10 0 20 8 22 17
3 16 4 16 20 0 20 -20 54 -22 61 -4 4 9 6 9 6 0 1 -15 31 -18 31 -3 0 6 7 10
15 10 8 0 15 -4 15 -10 0 -14 27 -12 33 3 4 10 6 10 6 0 1 -7 7 -13 15 -13 8
0 17 6 19 13 4 10 6 10 6 0 1 -17 48 -17 54 0 4 9 6 9 6 0 1 -17 28 -17 34 0
4 9 6 9 6 0 1 -17 28 -17 34 0 4 9 6 9 6 0 1 -9 21 -13 65 -13 42 0 66 4 69
13 4 10 6 10 6 0 1 -17 68 -17 74 0 4 9 6 9 6 0 1 -17 28 -17 34 0 4 9 6 9 6
0 1 -17 28 -17 34 0 4 9 6 9 6 0 1 -15 31 -18 31 -3 0 6 7 10 15 10 8 0 15 -4
15 -10 0 -14 27 -12 33 3 4 9 6 9 6 0 1 -7 8 -13 16 -13 8 0 15 6 15 13 0 9 3
8 9 -2 11 -17 81 -17 92 0 6 10 9 11 9 2 0 -7 7 -13 15 -13 8 0 15 5 15 10 0
6 6 5 14 -2 8 -7 13 -15 11 -18 -2 -3 92 -4 208 -3 142 2 215 -1 224 -8 8 -8
13 -8 13 -1 0 7 174 10 535 11 401 0 535 -3 535 -11 0 -9 3 -9 12 0 16 16 88
16 88 0 0 -9 3 -10 8 -2 9 14 73 16 89 2 9 -7 13 -7 13 0 0 8 54 11 168 11 92
0 204 0 250 0 l82 1 0 38 c0 21 6 44 13 51 10 11 10 14 0 18 -7 3 -13 11 -13
18 0 7 6 16 13 18 9 4 9 8 1 14 -8 5 -12 52 -12 137 -1 92 -4 131 -13 137 -10
6 -10 11 0 23 13 16 11 64 -3 98 -6 13 -3 15 13 11 23 -6 28 6 9 25 -8 8 -8
15 2 27 9 11 9 15 1 15 -15 0 -14 292 1 330 6 16 6 26 -1 28 -16 5 -14 119 2
126 10 5 10 7 0 12 -7 3 -13 21 -13 39 0 18 6 36 13 39 10 5 10 7 0 12 -17 7
-17 36 -1 52 9 9 10 15 2 20 -16 10 -17 201 -1 221 9 11 9 15 0 18 -19 7 -16
33 4 33 15 0 14 2 -3 15 -15 12 -16 16 -5 24 9 6 10 11 2 15 -15 10 -14 53 2
60 10 5 10 7 0 12 -16 7 -17 34 -1 34 9 0 9 3 0 12 -16 16 -15 55 1 61 8 4 9
8 1 14 -15 11 -17 95 -2 106 10 7 10 10 1 14 -16 6 -17 30 -2 35 8 3 8 10 -2
26 -12 19 -12 24 -1 31 12 7 12 12 0 30 -9 15 -10 24 -2 29 12 8 14 52 2 52
-14 0 -10 188 4 192 10 4 10 10 0 32 -17 37 -18 1106 -1 1106 8 0 8 4 0 14
-16 20 -14 695 2 715 9 11 9 15 0 18 -17 6 -18 154 -1 171 9 9 9 12 0 12 -15
0 -16 56 -2 65 8 5 7 11 -1 21 -9 12 -9 20 2 41 11 21 11 27 2 30 -7 3 -13 11
-13 18 0 7 6 16 13 19 10 5 10 7 0 12 -7 3 -13 18 -13 34 0 16 6 31 13 34 9 5
9 7 -1 12 -10 5 -13 40 -11 147 l1 142 -33 12 c-19 7 -58 12 -86 12 l-53 1 0
105 c0 89 -3 106 -17 113 -11 5 -1634 10 -3900 10 -3768 1 -3883 0 -3893 -18z
m7760 -152 c1 -1810 -1 -4842 -4 -4845 -6 -6 -2529 -4 -2535 2 -3 4 -4 58 -2
121 3 126 -4 174 -24 174 -21 0 -27 -54 -21 -183 l6 -117 -567 0 c-313 0 -885
0 -1273 0 l-705 -1 -5 148 c-5 140 -6 148 -25 148 -19 0 -20 -8 -23 -150 l-2
-150 -1038 2 c-570 2 -1142 3 -1269 3 l-233 0 0 600 0 600 150 0 c131 0 151 2
157 16 13 34 -25 45 -147 44 -63 -1 -125 -2 -137 -1 l-23 1 0 600 0 599 152 3
c135 3 153 5 156 20 3 16 -11 18 -150 20 l-153 3 -3 602 -2 602 152 3 c145 3
153 4 153 23 0 19 -8 20 -152 23 -109 2 -152 6 -155 15 -1 6 -2 279 0 605 l2
592 3860 0 3860 0 0 -122z m-3705 -5028 c3 -5 1 -10 -4 -10 -6 0 -11 5 -11 10
0 6 2 10 4 10 3 0 8 -4 11 -10z m80 0 c3 -5 1 -10 -4 -10 -6 0 -11 5 -11 10 0
6 2 10 4 10 3 0 8 -4 11 -10z m3480 0 c3 -5 1 -10 -4 -10 -6 0 -11 5 -11 10 0
6 2 10 4 10 3 0 8 -4 11 -10z m55 0 c0 -5 -5 -10 -11 -10 -5 0 -7 5 -4 10 3 6
8 10 11 10 2 0 4 -4 4 -10z"/>
<path d="M8833 6810 c-23 -10 -50 -19 -60 -20 -53 -2 -73 -6 -73 -12 0 -5 -9
-8 -19 -8 -11 0 -23 -4 -26 -10 -3 -5 -21 -10 -40 -10 -19 0 -36 -4 -40 -9 -3
-6 -13 -10 -23 -10 -36 -2 -68 -9 -97 -21 -16 -8 -41 -15 -55 -16 -14 -2 -34
-7 -45 -12 -11 -6 -38 -14 -60 -20 -22 -6 -78 -22 -125 -36 -47 -14 -103 -28
-124 -32 -22 -4 -51 -13 -65 -20 -14 -8 -34 -14 -43 -14 -10 0 -41 -9 -70 -19
-29 -11 -87 -29 -128 -41 -41 -12 -84 -25 -95 -30 -11 -4 -40 -13 -65 -20 -25
-6 -52 -15 -60 -19 -8 -5 -40 -14 -70 -21 -30 -8 -59 -17 -65 -22 -5 -4 -19
-8 -31 -8 -13 0 -26 -4 -29 -10 -3 -5 -17 -10 -30 -10 -14 0 -39 -8 -57 -18
-18 -10 -40 -19 -48 -19 -15 -1 -189 -57 -225 -72 -11 -5 -29 -12 -40 -14 -11
-3 -51 -17 -90 -31 -38 -15 -97 -36 -130 -47 -33 -11 -68 -24 -77 -30 -10 -5
-25 -9 -33 -9 -8 0 -23 -4 -33 -9 -39 -20 -68 -32 -87 -35 -11 -2 -36 -11 -55
-19 -19 -9 -66 -28 -105 -42 -110 -41 -198 -76 -217 -86 -10 -5 -24 -9 -32 -9
-8 0 -31 -8 -53 -18 -110 -53 -222 -102 -231 -102 -5 0 -22 -6 -38 -14 -59
-28 -123 -56 -131 -56 -4 0 -33 -12 -63 -26 -30 -15 -64 -30 -75 -35 -23 -9
-142 -62 -200 -89 -22 -10 -54 -22 -72 -25 -17 -3 -37 -13 -44 -21 -6 -8 -19
-14 -29 -14 -10 0 -23 -7 -30 -15 -7 -9 -18 -14 -24 -12 -6 2 -26 -7 -45 -20
-19 -13 -45 -26 -58 -29 -14 -4 -86 -38 -161 -77 -297 -152 -327 -167 -339
-167 -7 0 -16 -6 -20 -14 -4 -8 -24 -21 -43 -30 -19 -9 -57 -29 -85 -45 -75
-42 -185 -102 -230 -124 -22 -11 -54 -30 -71 -43 -17 -13 -38 -24 -46 -24 -9
0 -21 -7 -28 -15 -7 -8 -17 -15 -22 -15 -5 0 -16 -7 -24 -15 -8 -8 -21 -12
-29 -9 -9 4 -15 0 -15 -10 0 -9 -8 -16 -20 -16 -11 0 -20 -4 -20 -10 0 -5 -8
-10 -18 -10 -10 0 -33 -13 -52 -30 -19 -16 -42 -29 -51 -30 -9 0 -24 -9 -34
-20 -10 -11 -26 -20 -36 -20 -10 0 -24 -9 -31 -19 -8 -11 -27 -25 -43 -33 -17
-7 -38 -20 -47 -28 -9 -8 -34 -24 -55 -35 -21 -11 -42 -25 -46 -32 -4 -7 -17
-13 -27 -13 -11 0 -24 -9 -30 -20 -6 -11 -22 -23 -35 -26 -14 -3 -25 -10 -25
-15 0 -5 -15 -15 -32 -22 -18 -8 -39 -21 -47 -30 -7 -10 -18 -17 -23 -17 -5 0
-28 -15 -51 -34 -35 -28 -98 -71 -272 -186 -12 -8 -34 -24 -49 -35 -14 -11
-61 -46 -104 -77 -161 -120 -207 -154 -266 -204 -34 -28 -67 -53 -72 -55 -6
-2 -33 -23 -60 -46 -27 -23 -87 -73 -134 -110 -105 -84 -115 -92 -150 -126
-15 -15 -44 -34 -63 -42 -30 -12 -38 -12 -69 2 -28 13 -43 31 -69 82 -18 36
-37 77 -42 91 -5 14 -13 34 -18 45 -4 11 -13 38 -18 60 -5 22 -15 62 -22 90
-7 27 -12 58 -12 67 1 10 -2 20 -8 23 -5 4 -9 22 -9 41 0 27 -5 37 -25 46 -18
8 -28 8 -38 -1 -15 -12 -14 -29 5 -116 6 -27 12 -57 13 -65 1 -8 5 -22 8 -30
13 -34 26 -94 21 -101 -2 -4 0 -10 6 -14 5 -3 10 -13 10 -21 0 -8 11 -37 25
-66 14 -28 23 -53 21 -56 -9 -8 67 -107 111 -145 28 -24 116 -32 133 -12 7 8
17 15 23 15 5 0 31 19 57 43 26 23 73 62 105 87 31 25 79 63 106 85 27 22 71
58 99 80 28 22 67 54 88 70 80 64 121 95 129 95 4 0 27 18 51 40 24 22 46 40
50 40 4 0 39 25 77 56 39 31 82 62 98 70 15 8 27 19 27 24 0 6 6 10 13 10 7 0
22 8 33 18 11 9 27 22 36 27 8 6 50 34 92 63 43 28 79 52 82 52 4 0 34 23 58
45 6 6 27 18 47 27 19 10 43 26 54 38 10 11 23 20 28 20 6 0 19 7 29 17 21 18
48 35 96 57 17 8 32 19 32 24 0 4 16 14 35 22 19 7 47 26 62 42 15 15 35 28
44 28 10 0 30 10 46 23 34 27 61 44 88 56 12 5 27 16 34 25 7 9 20 16 28 16 8
0 27 8 41 19 15 10 55 33 89 50 34 18 67 39 73 46 16 19 68 45 91 45 9 0 19 5
21 11 4 11 86 58 273 154 60 31 121 65 135 74 30 21 94 51 108 51 5 0 15 7 22
15 7 8 22 15 34 16 11 0 35 9 51 20 17 10 40 23 52 28 11 5 24 14 27 20 4 6
13 8 21 5 8 -4 17 1 21 9 3 9 12 13 20 10 7 -3 17 2 20 11 3 9 14 16 23 16 9
0 52 18 96 40 44 22 85 40 91 40 6 0 23 9 37 20 14 11 31 20 39 20 13 0 102
39 138 60 30 18 116 58 150 70 43 15 83 33 90 41 3 3 21 11 40 18 65 24 152
60 262 110 26 11 53 21 60 21 7 0 40 14 73 30 33 17 67 30 77 30 9 0 19 4 22
9 3 5 16 11 28 14 13 3 61 21 107 41 47 20 87 34 89 31 2 -2 26 7 53 20 27 14
55 25 64 25 8 0 23 4 33 9 38 20 91 41 104 41 8 0 23 7 34 15 10 8 29 15 42
15 12 0 33 7 46 15 13 9 28 15 32 14 9 -2 26 3 69 21 11 5 43 16 70 25 28 10
59 21 70 26 11 4 70 24 130 44 61 19 119 39 130 44 48 19 122 43 150 48 17 3
39 12 50 19 11 7 38 16 60 20 22 4 56 14 75 24 19 10 60 23 90 30 30 7 66 18
80 25 14 7 42 15 63 19 20 4 37 11 37 17 0 6 4 7 10 4 5 -3 45 5 87 19 43 13
96 29 118 35 22 6 76 22 120 35 44 14 114 34 155 46 41 12 85 26 97 31 14 5
25 4 29 -2 3 -6 11 -3 18 7 7 9 18 14 24 10 6 -3 13 -2 17 4 3 5 17 10 30 10
13 0 27 5 30 10 3 6 23 10 44 10 21 0 52 7 70 16 17 9 38 13 46 10 8 -3 17 -1
20 4 4 6 17 10 30 10 13 0 26 4 29 9 3 5 26 12 51 15 41 7 45 10 45 35 0 25
-16 52 -29 50 -4 0 -25 -9 -48 -19z"/>
<path d="M779 6874 c-17 -21 0 -49 32 -49 27 0 37 28 19 50 -16 19 -34 19 -51
-1z"/>
<path d="M588 5859 c-40 -30 -58 -74 -58 -142 0 -114 69 -183 146 -145 43 21
62 63 63 141 1 75 -13 113 -55 146 -33 26 -61 26 -96 0z m72 -44 c16 -19 24
-122 13 -164 -12 -45 -37 -62 -59 -40 -12 13 -15 36 -15 104 1 86 10 115 36
115 7 0 18 -7 25 -15z"/>
<path d="M935 5868 c-25 -15 -54 -49 -55 -65 0 -7 9 -13 20 -13 11 0 20 3 20
8 0 13 39 32 55 26 15 -6 22 -64 8 -64 -5 0 -19 -9 -32 -19 l-25 -19 42 -21
c33 -17 42 -27 42 -47 0 -42 -23 -58 -64 -43 -40 14 -69 6 -64 -18 8 -42 100
-41 152 0 24 19 29 31 30 69 1 32 -5 52 -18 67 -18 19 -18 22 -2 46 15 22 15
28 2 53 -14 27 -53 52 -79 52 -7 0 -21 -6 -32 -12z"/>
<path d="M786 5621 c-21 -23 -20 -38 3 -51 27 -14 51 -2 51 26 0 33 -33 49
-54 25z"/>
<path d="M256 5081 c-3 -4 -39 -11 -81 -14 -47 -3 -81 -11 -90 -21 -17 -17
-20 -67 -4 -83 8 -8 8 -17 0 -31 -11 -21 -9 -130 3 -150 9 -14 36 -16 36 -2 0
12 119 5 132 -8 20 -20 -4 -32 -63 -32 -59 0 -96 -12 -111 -34 -12 -17 -9 -71
4 -84 8 -8 8 -15 0 -24 -12 -15 -13 -128 0 -144 5 -7 35 -9 83 -6 49 3 80 1
89 -7 20 -17 27 -1 26 61 -1 29 1 118 3 198 2 80 0 153 -5 162 -4 9 -4 19 1
22 11 7 11 77 -1 93 -5 7 -5 14 2 18 11 7 14 54 4 79 -7 17 -20 21 -28 7z m-1
-96 c0 -18 -8 -20 -67 -23 -67 -3 -68 -3 -68 23 0 26 1 26 68 23 59 -3 67 -5
67 -23z m-5 -95 c7 -5 10 -15 7 -24 -6 -15 -68 -23 -117 -16 -21 3 -31 22 -18
37 11 14 107 16 128 3z m1 -227 c21 -21 -7 -42 -54 -42 -58 0 -77 7 -77 29 0
10 8 20 18 22 38 7 102 2 113 -9z m5 -115 c9 -28 -10 -38 -74 -38 -38 0 -54 4
-58 15 -13 33 3 44 65 44 52 -1 61 -3 67 -21z"/>
<path d="M584 4602 c-35 -27 -54 -77 -54 -136 0 -98 39 -156 105 -156 69 0
105 53 105 153 0 99 -39 157 -105 157 -16 0 -40 -8 -51 -18z m91 -141 c0 -88
-11 -121 -40 -121 -40 0 -57 189 -19 231 l18 20 20 -21 c18 -18 21 -33 21
-109z"/>
<path d="M904 4584 c-19 -19 -34 -42 -34 -50 0 -21 33 -17 53 6 21 25 49 26
71 1 16 -17 16 -22 2 -55 -8 -20 -38 -61 -67 -91 -69 -73 -64 -85 40 -85 71 0
82 2 95 22 22 32 21 62 -1 52 -28 -12 -93 -17 -93 -7 0 5 14 22 31 39 42 39
59 75 59 123 0 49 -35 81 -88 81 -27 0 -42 -8 -68 -36z"/>
<path d="M779 4364 c-17 -21 0 -49 32 -49 27 0 37 28 19 50 -16 19 -34 19 -51
-1z"/>
<path d="M235 4274 c-20 -20 -16 -43 8 -58 16 -9 22 -7 34 12 15 21 17 22 34
6 17 -16 19 -16 25 1 5 12 0 24 -15 37 -29 22 -64 23 -86 2z"/>
<path d="M0 4155 c0 -47 2 -55 14 -46 16 13 71 4 86 -15 6 -7 10 -28 8 -46 -3
-29 -6 -33 -28 -30 -14 2 -37 12 -52 23 l-28 20 0 -61 c0 -56 1 -59 18 -49 14
9 30 8 68 -4 27 -8 72 -21 99 -27 28 -7 58 -20 68 -29 25 -21 37 -1 33 56 -3
49 -14 65 -29 42 -8 -13 -17 -14 -51 -6 -23 5 -46 14 -53 19 -11 9 -15 64 -6
80 6 11 94 -19 107 -38 21 -28 32 -9 31 50 -1 61 -10 79 -29 54 -11 -16 -17
-15 -87 4 -41 11 -89 23 -107 28 -18 4 -39 14 -47 20 -13 11 -15 4 -15 -45z"/>
<path d="M594 3358 c-62 -29 -86 -171 -42 -249 34 -61 96 -75 145 -32 34 30
43 59 43 132 0 57 -5 78 -22 106 -34 51 -77 66 -124 43z m82 -105 c13 -103
-20 -187 -60 -154 -23 19 -23 187 0 212 27 29 52 5 60 -58z"/>
<path d="M940 3340 c-23 -19 -24 -21 -7 -34 25 -19 26 -200 1 -214 -28 -16 -5
-32 46 -32 50 0 74 15 49 31 -10 6 -15 42 -19 136 -5 119 -6 128 -25 130 -11
2 -31 -6 -45 -17z"/>
<path d="M785 3116 c-20 -15 -17 -44 7 -59 12 -8 21 -7 32 2 36 30 -1 85 -39
57z"/>
<path d="M1187 1616 c-24 -23 -43 -71 -48 -126 -7 -70 39 -154 91 -165 34 -8
83 17 98 49 31 63 42 149 22 161 -5 3 -10 14 -10 25 0 10 -13 32 -29 49 -37
39 -86 42 -124 7z m87 -38 c20 -29 22 -165 2 -190 -52 -69 -103 78 -62 177 17
40 38 45 60 13z"/>
<path d="M3605 1607 c-24 -24 -35 -46 -40 -80 -17 -115 26 -197 104 -197 33 0
44 5 64 33 60 79 47 226 -25 263 -42 22 -67 17 -103 -19z m105 -126 c0 -64 -4
-81 -20 -99 -12 -12 -25 -22 -30 -22 -21 0 -40 61 -40 128 0 56 4 75 22 97
l22 28 23 -27 c20 -23 23 -38 23 -105z"/>
<path d="M4015 1631 c-46 -6 -51 -9 -68 -45 -26 -54 -20 -78 23 -89 19 -5 43
-16 53 -24 21 -19 22 -62 3 -89 -13 -17 -18 -18 -48 -6 -54 22 -63 20 -63 -13
0 -25 5 -31 30 -35 47 -9 82 0 109 27 72 72 45 164 -59 198 -19 7 -19 7 3 16
12 4 28 6 36 3 24 -9 58 15 54 38 -4 25 -8 26 -73 19z"/>
<path d="M6242 1625 c-41 -22 -49 -35 -29 -46 14 -8 17 -25 17 -108 0 -75 -4
-101 -15 -111 -8 -7 -12 -16 -9 -21 6 -10 64 -12 88 -3 18 7 22 30 6 36 -5 2
-11 55 -12 121 -2 131 -9 151 -46 132z"/>
<path d="M6546 1619 c-56 -44 -74 -155 -36 -229 42 -83 135 -85 176 -4 19 36
20 154 2 185 -37 67 -94 86 -142 48z m74 -29 c12 -7 15 -31 15 -105 0 -84 -2
-98 -20 -111 -17 -13 -21 -12 -37 4 -15 15 -19 35 -19 106 0 106 16 135 61
106z"/>
<path d="M9147 1621 c-20 -24 -37 -63 -39 -91 -3 -22 2 -26 42 -36 31 -7 49
-18 57 -35 17 -32 16 -43 -5 -69 -18 -22 -19 -22 -55 -5 -42 19 -57 14 -57
-21 0 -26 30 -44 74 -44 39 0 88 41 105 88 15 41 14 45 -4 80 -13 24 -36 45
-65 60 l-44 22 47 0 c39 0 49 4 63 25 9 14 13 29 10 33 -15 15 -115 9 -129 -7z"/>
<path d="M8804 1607 c-28 -24 -28 -24 -6 -31 20 -7 22 -13 20 -89 0 -45 -7
-96 -14 -114 -7 -17 -10 -34 -6 -37 10 -10 91 -6 97 4 4 6 2 17 -4 24 -6 7
-12 68 -13 137 -3 118 -4 124 -24 127 -12 2 -34 -8 -50 -21z"/>
<path d="M3814 1386 c-10 -26 1 -51 23 -54 14 -2 23 3 28 18 12 37 -38 71 -51
36z"/>
<path d="M6399 1384 c-16 -20 -1 -48 29 -52 25 -4 39 32 22 53 -16 19 -34 19
-51 -1z"/>
<path d="M8990 1365 c0 -30 3 -35 24 -35 26 0 40 23 31 51 -4 12 -16 19 -31
19 -21 0 -24 -5 -24 -35z"/>
<path d="M4473 1102 c-24 -4 -63 -50 -63 -76 0 -8 -8 -20 -17 -25 -17 -10 -17
-12 0 -25 13 -10 17 -28 17 -75 0 -34 -5 -71 -10 -82 -10 -18 -7 -19 40 -19
27 0 50 2 50 4 0 2 -6 15 -12 28 -8 14 -12 48 -10 80 3 47 7 57 23 60 29 4 27
21 -4 36 -22 11 -26 18 -21 35 9 31 12 32 31 14 12 -10 28 -13 46 -10 l28 6
-4 -104 c-2 -57 -7 -114 -11 -125 -6 -18 -3 -22 19 -26 38 -8 68 1 56 16 -6 7
-12 73 -13 147 l-3 134 -51 1 c-28 1 -55 3 -60 6 -5 2 -19 2 -31 0z"/>
<path d="M6891 1101 c-16 -10 -41 -59 -41 -80 0 -10 -3 -21 -7 -25 -4 -4 -19
-44 -34 -89 -34 -106 -49 -111 -49 -15 0 88 -16 118 -61 118 -17 0 -39 -5 -50
-11 -14 -7 -24 -7 -33 0 -11 9 -155 6 -165 -5 -2 -2 2 -15 9 -29 9 -17 11 -45
7 -94 -7 -81 -2 -85 76 -72 4 0 3 10 -3 21 -17 32 -8 131 13 144 14 8 20 8 27
-4 13 -20 13 -117 0 -125 -35 -22 15 -53 65 -41 24 6 25 8 12 34 -31 61 -12
154 28 139 15 -6 17 -18 14 -90 l-4 -82 64 0 65 0 31 93 c18 51 35 95 38 99 4
3 7 17 7 29 0 13 5 26 10 29 12 7 13 52 2 59 -4 2 -14 1 -21 -3z"/>
<path d="M3082 1092 c-9 -7 -8 -13 8 -27 17 -16 20 -30 20 -117 0 -73 -4 -105
-16 -122 -14 -22 -14 -25 3 -29 10 -3 60 -4 112 -3 85 3 95 5 112 27 37 48 15
87 -25 45 -18 -21 -33 -26 -68 -26 -44 0 -46 1 -50 33 -10 75 -3 175 15 195 9
10 14 22 10 25 -9 10 -105 8 -121 -1z"/>
<path d="M3374 1085 c-4 -9 0 -23 8 -32 13 -12 20 -13 37 -3 30 15 23 44 -12
48 -18 2 -29 -2 -33 -13z"/>
<path d="M5703 1022 c-18 -25 -20 -36 -13 -107 4 -44 11 -88 15 -98 9 -23 48
-32 75 -17 25 13 23 46 -3 42 -12 -2 -17 4 -18 20 -1 13 -2 40 -3 61 -3 33 1
40 23 49 l26 10 -22 15 c-13 9 -23 24 -23 34 0 29 -33 23 -57 -9z"/>
<path d="M5533 1004 c-48 -21 -57 -74 -13 -74 10 0 22 9 25 20 7 23 45 27 45
5 0 -8 -21 -25 -46 -36 -54 -26 -70 -53 -55 -92 12 -31 49 -44 80 -27 15 8 27
8 41 0 12 -6 30 -8 40 -5 23 7 27 40 7 48 -9 3 -14 26 -15 68 -3 89 -42 123
-109 93z m55 -139 c-3 -20 -34 -29 -44 -13 -9 14 27 51 39 39 5 -5 7 -17 5
-26z"/>
<path d="M5888 1012 c-17 -2 -38 -16 -53 -36 -56 -73 -14 -186 68 -186 28 0
42 8 67 36 21 25 28 40 21 47 -10 10 -24 6 -58 -19 -21 -15 -24 -14 -48 10
-38 38 -32 46 35 46 46 0 62 4 67 16 15 41 -44 93 -99 86z m32 -52 c0 -5 -12
-10 -26 -10 -14 0 -23 4 -19 10 3 6 15 10 26 10 10 0 19 -4 19 -10z"/>
<path d="M6314 1006 c-43 -19 -64 -53 -64 -103 0 -74 33 -113 94 -113 24 0 86
49 86 68 0 22 -21 23 -50 2 l-30 -21 -25 25 c-27 27 -31 55 -15 87 14 25 44
24 62 -3 9 -14 20 -19 31 -15 28 11 20 46 -15 67 -38 23 -34 23 -74 6z"/>
<path d="M6958 998 c-51 -36 -35 -82 46 -132 26 -17 27 -19 12 -34 -16 -16
-18 -16 -31 3 -38 53 -55 55 -55 6 0 -36 18 -51 64 -53 45 -2 86 33 86 73 0
29 -12 42 -62 69 -18 9 -34 22 -36 28 -6 18 39 14 53 -5 14 -19 35 -10 35 16
0 42 -71 60 -112 29z"/>
<path d="M3390 1000 c-18 -4 -24 -12 -21 -26 8 -35 6 -139 -3 -156 -7 -16 -3
-18 35 -18 l44 0 -3 92 c-4 101 -13 119 -52 108z"/>
<path d="M3518 1002 c-40 -11 -41 -11 -24 -37 9 -13 14 -30 12 -37 -3 -7 -7
-39 -10 -70 l-6 -58 47 0 c37 0 44 3 35 12 -16 16 -16 130 0 146 7 7 18 12 26
12 10 0 13 -18 11 -82 l-2 -83 38 -3 c38 -3 38 -3 31 29 -3 17 -6 55 -6 83 0
74 -15 91 -84 91 -31 0 -62 -1 -68 -3z"/>
<path d="M3764 1001 c-49 -21 -70 -104 -43 -165 24 -52 98 -58 145 -11 45 45
23 76 -23 33 -22 -21 -26 -21 -51 -7 -15 8 -28 24 -30 36 -3 20 2 22 55 25 54
3 58 5 60 28 2 14 -3 33 -11 43 -16 21 -72 31 -102 18z m44 -43 c-5 -15 -48
-24 -48 -10 0 14 12 22 33 22 10 0 17 -5 15 -12z"/>
<path d="M3953 1000 c-22 -9 -39 -43 -28 -60 11 -18 34 -11 51 15 13 19 20 23
30 14 19 -16 8 -34 -35 -52 -48 -22 -69 -57 -53 -92 13 -29 56 -43 77 -25 13
11 20 11 39 0 18 -9 29 -9 45 -1 25 14 26 24 6 41 -10 9 -15 32 -15 76 0 54
-3 65 -22 78 -25 17 -61 20 -95 6z m61 -108 c9 -14 -6 -52 -20 -52 -20 0 -26
17 -14 40 11 21 25 26 34 12z"/>
<path d="M4167 1003 c-51 -4 -69 -22 -47 -48 13 -15 10 -106 -4 -137 -7 -16
-2 -18 38 -18 33 0 46 4 46 14 0 8 -4 18 -10 21 -15 9 -13 115 3 116 6 1 23 2
37 2 15 1 26 9 28 21 4 19 -14 37 -33 34 -5 -1 -32 -3 -58 -5z"/>
<path d="M4701 983 c-28 -24 -33 -36 -33 -74 -2 -77 49 -127 115 -115 62 12
104 83 83 143 -16 47 -38 65 -89 70 -38 5 -48 2 -76 -24z m97 -25 c7 -7 12
-33 12 -58 0 -82 -52 -99 -80 -26 -21 57 -7 96 35 96 12 0 26 -5 33 -12z"/>
<path d="M4895 1000 c-4 -6 5 -34 19 -63 13 -28 34 -74 45 -100 12 -28 25 -46
31 -42 6 4 20 27 32 52 l21 46 17 -44 c27 -69 45 -59 90 51 29 70 36 96 27
102 -28 18 -54 0 -49 -33 1 -8 -4 -30 -11 -48 l-14 -33 -12 31 c-8 17 -10 43
-6 60 l7 31 -46 0 c-38 0 -46 -3 -46 -18 0 -10 5 -23 11 -29 13 -13 4 -63 -11
-63 -14 0 -30 44 -30 81 0 26 -3 29 -34 29 -19 0 -38 -5 -41 -10z"/>
<path d="M5356 1000 c-34 -6 -43 -22 -21 -40 21 -17 21 -118 0 -126 -12 -5
-22 -32 -12 -35 27 -7 85 -7 96 0 11 7 11 13 -3 32 -19 28 -22 118 -3 120 6 1
22 0 33 0 25 -2 39 26 23 45 -11 13 -52 15 -113 4z"/>
<path d="M6027 840 c-3 -10 1 -27 8 -37 8 -10 11 -28 8 -40 -4 -17 -1 -23 10
-23 36 0 62 81 35 108 -19 19 -55 15 -61 -8z"/>
<path d="M380 464 c0 -9 11 -29 25 -45 30 -36 39 -82 32 -165 -3 -49 -11 -70
-31 -94 -31 -37 -33 -50 -7 -50 23 0 66 49 86 97 38 91 -3 219 -83 262 -19 10
-22 9 -22 -5z"/>
<path d="M649 470 c-11 -7 -10 -12 4 -28 23 -26 25 -223 2 -242 -28 -23 -4
-30 105 -30 101 0 110 2 124 22 19 26 21 68 5 68 -7 0 -19 -8 -28 -19 -10 -11
-35 -20 -68 -23 l-53 -5 0 105 c0 83 3 109 16 123 9 10 13 22 10 28 -8 12 -97
13 -117 1z"/>
<path d="M947 474 c-11 -12 -8 -41 6 -53 19 -15 50 9 45 35 -3 19 -38 31 -51
18z"/>
<path d="M1527 474 c-12 -13 -8 -52 7 -57 21 -8 49 16 44 39 -3 19 -38 31 -51
18z"/>
<path d="M1757 473 c-14 -4 -17 -10 -12 -26 14 -45 11 -62 -10 -60 -31 3 -81
-25 -94 -53 -6 -14 -11 -45 -11 -70 0 -65 35 -96 104 -93 28 1 64 8 79 16 24
12 26 17 15 30 -9 11 -12 47 -10 125 3 132 -4 146 -61 131z m-2 -145 c4 -19 2
-70 -4 -100 -2 -15 -44 -8 -57 10 -17 22 -18 66 -2 92 18 28 56 26 63 -2z"/>
<path d="M2181 466 c-9 -11 -10 -20 -1 -36 10 -19 10 -181 -1 -235 -3 -17 1
-20 36 -20 35 0 40 3 36 20 -13 75 -12 122 4 135 12 10 21 11 33 3 16 -10 19
-56 9 -138 -2 -17 4 -20 33 -20 l35 0 -3 75 c-5 122 -15 136 -94 130 -25 -1
-27 1 -30 47 -2 40 -7 49 -24 51 -11 2 -26 -4 -33 -12z"/>
<path d="M4497 467 c-14 -9 -16 -18 -10 -37 8 -22 8 -184 1 -235 -3 -22 20
-30 57 -21 21 5 23 9 15 32 -14 35 -12 108 2 122 7 7 20 12 30 12 16 0 18 -9
18 -69 0 -40 -5 -73 -11 -77 -8 -4 -7 -9 2 -15 17 -11 66 -12 73 -1 7 12 -15
176 -26 190 -6 6 -30 12 -54 12 l-43 0 -3 47 c-3 52 -19 64 -51 40z"/>
<path d="M86 439 c-44 -52 -58 -88 -57 -148 0 -64 29 -129 74 -167 36 -30 54
-22 31 14 -68 102 -71 214 -8 287 29 34 30 45 5 45 -11 0 -31 -14 -45 -31z"/>
<path d="M3350 408 c-23 -25 -22 -20 -20 -112 2 -83 20 -126 54 -126 24 0 61
32 49 43 -3 4 -15 7 -25 7 -16 0 -18 9 -18 64 0 55 3 64 20 69 11 3 20 10 20
15 0 5 -9 12 -20 15 -12 3 -20 14 -20 26 0 27 -14 27 -40 -1z"/>
<path d="M206 369 c-28 -22 -32 -39 -14 -57 14 -14 48 2 48 24 0 9 7 14 18 12
28 -5 20 -30 -18 -50 -67 -37 -87 -80 -52 -111 21 -19 54 -22 82 -7 13 7 21 7
25 0 10 -16 55 -12 62 6 3 8 1 20 -6 27 -6 6 -11 37 -11 69 0 49 -4 63 -25 83
-30 31 -73 32 -109 4z m74 -118 c0 -24 -15 -35 -36 -27 -12 4 -13 10 -4 26 14
26 40 26 40 1z"/>
<path d="M953 378 c-37 -10 -37 -11 -22 -39 18 -34 21 -98 6 -129 -18 -35 -14
-40 34 -40 40 0 58 15 40 33 -6 6 -11 46 -11 93 0 46 -3 85 -7 87 -5 2 -23 0
-40 -5z"/>
<path d="M1102 377 c-38 -22 -54 -54 -54 -109 1 -71 30 -102 90 -95 43 5 44 4
39 -22 -3 -14 -8 -36 -12 -49 -7 -22 -6 -23 35 -20 l43 3 -2 140 c-1 77 -5
143 -9 146 -15 15 -107 19 -130 6z m72 -43 c3 -9 6 -31 6 -49 0 -47 -9 -65
-32 -65 -41 0 -63 67 -36 110 15 24 53 26 62 4z"/>
<path d="M2040 383 c-8 -3 -27 -17 -42 -31 -24 -22 -28 -34 -28 -78 0 -46 4
-55 31 -78 41 -35 83 -34 120 3 16 16 29 34 29 40 0 16 -26 13 -40 -4 -30 -36
-90 1 -90 56 0 51 55 84 67 39 3 -13 14 -20 29 -20 19 0 24 5 24 24 0 41 -52
66 -100 49z"/>
<path d="M2465 382 c-59 -4 -79 -16 -65 -42 14 -26 12 -134 -2 -148 -15 -15 9
-25 54 -20 27 2 32 7 29 23 -2 11 -4 45 -5 75 l-1 55 33 3 c26 3 32 8 32 27 0
27 -10 31 -75 27z"/>
<path d="M2604 374 c-62 -30 -73 -112 -23 -169 24 -27 39 -35 65 -35 59 0 114
53 114 110 0 37 -30 81 -65 96 -43 17 -52 17 -91 -2z m76 -39 c20 -24 18 -101
-3 -122 -24 -25 -48 -7 -64 46 -9 31 -9 48 -1 67 13 28 49 32 68 9z"/>
<path d="M2907 384 c-2 -3 -31 -6 -63 -7 l-58 -2 1 -100 c2 -107 6 -114 56
-101 20 5 22 10 19 76 -4 73 7 104 34 93 17 -6 20 -133 3 -150 -15 -15 23 -27
57 -19 22 6 24 10 18 41 -12 67 -9 107 11 121 30 22 45 0 45 -65 0 -31 -5 -62
-11 -68 -16 -16 -2 -33 29 -33 37 0 53 12 42 30 -6 8 -10 45 -10 83 0 54 -4
71 -20 87 -23 23 -36 25 -70 6 -21 -10 -30 -10 -51 0 -15 7 -29 11 -32 8z"/>
<path d="M3156 369 c-34 -27 -35 -59 -1 -59 18 0 25 5 25 20 0 15 7 20 25 20
45 0 31 -34 -24 -58 -36 -15 -50 -28 -55 -47 -13 -52 39 -94 83 -66 7 5 25 4
42 -2 24 -9 32 -8 46 6 17 17 17 19 1 28 -14 8 -18 24 -18 74 0 52 -4 69 -20
85 -26 26 -70 26 -104 -1z m74 -119 c0 -25 -4 -30 -25 -30 -29 0 -32 16 -8 42
23 26 33 22 33 -12z"/>
<path d="M3504 374 c-62 -30 -73 -112 -23 -169 25 -28 38 -35 69 -35 48 0 83
27 100 80 12 38 12 45 -6 77 -11 21 -32 42 -51 50 -41 16 -51 16 -89 -3z m76
-39 c23 -28 24 -88 2 -115 -17 -20 -24 -23 -39 -14 -26 16 -45 89 -31 120 13
27 49 32 68 9z"/>
<path d="M3722 365 c-34 -29 -41 -61 -20 -95 10 -16 10 -24 0 -40 -7 -12 -10
-25 -6 -31 3 -5 -2 -21 -11 -35 -15 -23 -15 -28 -1 -48 16 -25 64 -37 109 -29
33 6 87 54 87 77 0 33 -37 56 -91 56 -33 0 -48 4 -44 11 4 6 14 8 22 5 24 -10
72 22 79 52 3 15 12 39 20 55 8 15 12 28 7 29 -4 0 -19 2 -33 3 -14 2 -39 6
-56 10 -25 5 -36 2 -62 -20z m74 -40 c13 -50 -19 -75 -44 -34 -17 26 -6 59 18
59 13 0 22 -9 26 -25z m34 -170 c0 -18 -41 -29 -75 -21 -14 4 -25 13 -25 21 0
11 13 15 50 15 37 0 50 -4 50 -15z"/>
<path d="M4100 378 c-34 -18 -41 -68 -10 -68 13 0 24 8 27 20 7 27 43 27 43 0
0 -14 -12 -25 -40 -36 -49 -20 -73 -57 -57 -91 13 -28 53 -40 79 -24 14 8 23
8 37 0 10 -7 26 -9 35 -6 21 8 33 40 18 45 -7 2 -12 26 -12 62 0 67 -19 97
-65 105 -16 3 -41 0 -55 -7z m64 -117 c10 -15 -20 -45 -38 -38 -14 5 -15 11
-6 27 11 20 35 27 44 11z"/>
<path d="M4864 380 c-16 -6 -20 -15 -17 -33 3 -14 0 -28 -6 -31 -6 -4 -11 -16
-11 -27 0 -26 -15 -16 -34 23 -11 21 -13 35 -6 43 14 17 2 25 -40 25 -41 0
-54 -8 -40 -25 17 -21 80 -150 79 -165 0 -21 -25 -52 -41 -49 -29 4 -38 -2
-38 -25 0 -31 33 -43 63 -23 21 14 31 29 56 90 12 28 16 38 55 129 26 62 20
83 -20 68z"/>
<path d="M1270 371 c0 -6 5 -13 10 -16 6 -3 10 -36 10 -73 0 -79 17 -112 58
-112 15 0 34 4 42 10 9 5 19 5 27 -1 8 -7 18 -7 31 0 17 9 18 19 15 93 -3 46
-6 89 -8 96 -3 6 -20 12 -40 12 -36 0 -43 -8 -24 -27 5 -5 9 -37 7 -69 -3 -55
-5 -59 -28 -59 -24 0 -25 2 -28 78 l-3 77 -34 0 c-19 0 -35 -4 -35 -9z"/>
<path d="M1510 365 c-10 -12 -10 -19 2 -33 16 -19 15 -116 -2 -137 -14 -16 -2
-25 34 -25 41 0 58 11 46 30 -6 8 -10 52 -10 98 l0 82 -29 0 c-16 0 -34 -7
-41 -15z"/>
<path d="M3910 364 c-9 -10 -10 -18 -1 -27 6 -8 9 -41 6 -85 -2 -39 0 -74 5
-77 4 -3 22 -2 39 1 27 6 30 10 24 28 -10 30 -13 77 -6 104 4 16 12 22 33 22
27 0 46 22 35 40 -9 15 -122 10 -135 -6z"/>
<path d="M4262 368 c-8 -8 -8 -17 0 -31 6 -12 9 -65 6 -133 -3 -118 -1 -124
40 -124 9 0 24 5 32 10 12 7 12 12 2 22 -6 6 -12 22 -12 35 0 20 5 23 34 23
28 0 41 7 65 37 38 46 42 100 10 144 -19 27 -24 29 -93 29 -41 0 -77 -5 -84
-12z m128 -50 c26 -43 25 -61 -4 -95 -20 -24 -26 -25 -40 -14 -23 20 -22 116
2 130 9 6 18 11 20 11 1 0 11 -15 22 -32z"/>
</g>
</svg>
