<?xml version="1.0" standalone="no"?>
<!DOCTYPE svg PUBLIC "-//W3C//DTD SVG 20010904//EN"
 "http://www.w3.org/TR/2001/REC-SVG-20010904/DTD/svg10.dtd">
<svg version="1.0" xmlns="http://www.w3.org/2000/svg"
 width="720.000000pt" height="540.000000pt" viewBox="0 0 720.000000 540.000000"
 preserveAspectRatio="xMidYMid meet">

<g transform="translate(0.000000,540.000000) scale(0.100000,-0.100000)"
fill="" stroke="none">
<path d="M310 4851 c0 -39 5 -73 10 -76 6 -4 10 8 10 29 0 34 2 36 32 36 17 0
28 3 24 8 -4 4 -18 7 -29 7 -15 0 -23 7 -25 23 -3 19 1 22 27 22 17 0 31 5 31
10 0 6 -18 10 -40 10 l-40 0 0 -69z"/>
<path d="M410 4910 c0 -5 5 -10 10 -10 6 0 10 5 10 10 0 6 -4 10 -10 10 -5 0
-10 -4 -10 -10z"/>
<path d="M697 4914 c-14 -15 -6 -20 23 -16 24 3 30 1 30 -15 0 -11 -13 -32
-30 -48 -16 -16 -30 -37 -30 -47 0 -15 8 -18 45 -18 25 0 45 5 45 10 0 6 -16
10 -35 10 -43 0 -44 10 -4 39 24 18 30 29 27 54 -3 27 -7 32 -33 35 -17 2 -34
0 -38 -4z"/>
<path d="M810 4880 c0 -36 3 -40 24 -40 50 0 43 -47 -7 -52 -25 -3 -28 -6 -14
-12 9 -5 28 -5 42 -2 47 12 42 86 -6 86 -12 0 -19 7 -19 20 0 15 7 20 25 20
14 0 25 5 25 10 0 6 -16 10 -35 10 -34 0 -35 -1 -35 -40z"/>
<path d="M1018 4909 c-22 -12 -24 -33 -3 -25 12 4 15 -5 15 -49 0 -29 5 -57
10 -60 6 -4 10 22 10 69 0 78 -2 83 -32 65z"/>
<path d="M1117 4913 c-14 -13 -6 -20 18 -15 43 8 44 -25 1 -64 -50 -46 -48
-64 9 -64 25 0 45 5 45 10 0 6 -17 10 -37 10 l-38 0 38 36 c38 36 46 61 25 82
-13 13 -50 16 -61 5z"/>
<path d="M410 4825 c0 -30 5 -55 10 -55 6 0 10 25 10 55 0 30 -4 55 -10 55 -5
0 -10 -25 -10 -55z"/>
<path d="M463 4854 c-15 -24 -15 -29 -2 -53 11 -18 23 -26 42 -26 20 1 27 -4
24 -15 -2 -10 -13 -15 -35 -14 -38 2 -43 -13 -7 -22 44 -11 65 18 65 93 l0 63
-35 0 c-26 0 -39 -6 -52 -26z m62 -29 c0 -23 -5 -31 -21 -33 -24 -3 -35 16
-27 48 4 14 12 20 27 18 16 -2 21 -10 21 -33z"/>
<path d="M915 4830 c3 -5 17 -10 31 -10 13 0 24 5 24 10 0 6 -14 10 -31 10
-17 0 -28 -4 -24 -10z"/>
<path d="M580 4786 c0 -9 5 -16 10 -16 6 0 10 4 10 9 0 6 -4 13 -10 16 -5 3
-10 -1 -10 -9z"/>
<path d="M1352 4353 l3 -58 35 2 c51 2 52 2 46 12 -3 4 -17 6 -31 3 -21 -3
-25 0 -25 18 0 17 4 20 20 15 14 -4 20 -2 20 8 0 10 -7 13 -20 10 -14 -4 -20
0 -20 11 0 11 9 16 27 16 37 0 20 13 -23 17 l-35 4 3 -58z"/>
<path d="M1450 4350 c0 -33 4 -60 10 -60 6 0 10 27 10 60 0 33 -4 60 -10 60
-6 0 -10 -27 -10 -60z"/>
<path d="M1870 4391 c0 -14 -6 -21 -19 -21 -11 0 -23 -5 -26 -10 -4 -7 -11 -8
-18 -1 -7 5 -36 9 -64 9 l-53 1 0 -40 c0 -21 5 -39 10 -39 6 0 10 13 10 29 0
16 6 31 15 35 11 4 15 -1 15 -19 0 -32 31 -49 56 -30 16 11 21 11 34 0 9 -8
25 -12 38 -8 19 5 22 12 22 54 0 26 -4 51 -10 54 -5 3 -10 -3 -10 -14z m-80
-57 c0 -31 -23 -28 -28 4 -2 15 2 22 12 22 11 0 16 -9 16 -26z m80 0 c0 -31
-23 -28 -28 4 -2 15 2 22 12 22 11 0 16 -9 16 -26z"/>
<path d="M1646 4383 c-9 -9 -7 -81 2 -87 4 -2 14 -1 21 3 8 6 9 11 3 15 -6 3
-9 20 -7 36 4 29 -6 46 -19 33z"/>
<path d="M1515 4360 c3 -6 -1 -7 -9 -4 -12 5 -16 0 -16 -19 0 -30 21 -50 44
-41 21 8 21 26 0 22 -10 -2 -19 3 -21 10 -3 7 4 12 16 12 12 0 21 6 21 15 0 8
-9 15 -21 15 -11 0 -17 -4 -14 -10z"/>
<path d="M1572 4358 c-27 -27 1 -73 36 -61 19 7 14 20 -9 26 -24 7 -20 33 5
29 9 -2 16 2 16 8 0 14 -33 13 -48 -2z"/>
<path d="M1912 4358 c-6 -6 -12 -18 -12 -24 0 -20 29 -44 45 -38 22 9 18 21
-7 29 l-23 7 23 6 c13 4 24 12 25 17 3 15 -36 18 -51 3z"/>
<path d="M2041 4325 c3 -2 79 -39 169 -81 91 -42 167 -79 170 -83 3 -4 25 -15
50 -25 25 -10 51 -20 58 -23 6 -3 12 0 12 6 0 10 -113 71 -132 71 -5 0 -75 32
-155 70 -123 59 -191 85 -172 65z"/>
<path d="M6190 4230 c-11 -7 -12 -12 -3 -21 8 -8 6 -16 -8 -30 -24 -24 -24
-46 -1 -58 14 -7 25 -6 40 5 28 19 28 48 0 75 l-23 21 23 -7 c16 -5 22 -2 22
9 0 18 -27 21 -50 6z m24 -83 c-3 -9 -10 -17 -15 -17 -11 0 -12 34 -2 44 11
11 24 -9 17 -27z"/>
<path d="M6190 4005 c0 -60 -3 -75 -15 -75 -17 0 -18 -1 -6 -32 4 -13 11 -35
15 -50 l6 -28 -65 0 c-37 0 -65 -4 -65 -10 0 -6 35 -10 84 -10 47 0 88 5 91
10 3 6 -1 10 -9 10 -19 0 -20 25 -4 70 9 26 9 35 0 38 -8 2 -12 30 -12 78 0
43 -4 74 -10 74 -6 0 -10 -32 -10 -75z"/>
<path d="M2377 3823 c-4 -3 -7 -10 -7 -15 0 -4 803 -7 1785 -6 1182 2 1785 6
1785 13 0 11 -3552 20 -3563 8z"/>
<path d="M578 3765 c-2 -42 0 -55 11 -55 8 0 11 7 8 19 -10 38 10 45 34 12 12
-17 26 -31 31 -31 4 0 8 25 8 55 0 30 -4 55 -10 55 -5 0 -10 -15 -10 -32 l0
-33 -26 33 c-14 17 -29 32 -34 32 -4 0 -10 -25 -12 -55z"/>
<path d="M1099 3803 c-1 -10 -1 -33 0 -50 2 -18 -2 -33 -7 -33 -14 0 -23 27
-15 46 4 12 2 15 -8 12 -8 -3 -14 -18 -14 -34 0 -25 4 -29 33 -32 l32 -3 0 55
c0 31 -4 56 -10 56 -5 0 -11 -8 -11 -17z"/>
<path d="M1140 3810 c0 -5 5 -10 10 -10 6 0 10 5 10 10 0 6 -4 10 -10 10 -5 0
-10 -4 -10 -10z"/>
<path d="M1194 3808 c-13 -21 -10 -98 4 -98 10 0 16 31 15 78 -1 6 3 12 8 12
5 0 9 5 9 10 0 14 -27 13 -36 -2z"/>
<path d="M1252 3808 c-16 -16 -16 -98 1 -98 8 0 13 15 13 42 1 23 7 44 13 46
6 2 11 8 11 13 0 13 -24 11 -38 -3z"/>
<path d="M1698 3765 c-2 -39 1 -55 10 -55 8 0 12 18 12 55 0 71 -17 71 -22 0z"/>
<path d="M967 3792 c-8 -14 6 -82 17 -82 15 0 14 78 -1 84 -7 3 -14 2 -16 -2z"/>
<path d="M707 3778 c-21 -11 -22 -57 -2 -64 8 -4 23 -3 33 2 15 7 14 8 -5 11
-28 5 -30 23 -3 23 22 0 27 25 7 33 -7 3 -21 1 -30 -5z"/>
<path d="M777 3780 c-18 -7 -19 -70 -1 -70 9 0 14 11 14 30 0 20 5 30 15 30
10 0 15 -10 15 -30 0 -18 5 -30 13 -30 9 0 12 10 9 30 -3 18 0 30 7 30 6 0 11
-13 11 -30 0 -20 5 -30 15 -30 10 0 13 9 10 31 -2 17 -7 34 -10 37 -7 8 -81 9
-98 2z"/>
<path d="M918 3783 c-22 -5 -24 -31 -3 -39 8 -4 15 -11 15 -16 0 -6 -7 -8 -15
-4 -8 3 -15 1 -15 -4 0 -13 47 -13 55 0 3 5 -3 17 -15 27 -18 16 -19 18 -3 24
21 7 5 17 -19 12z"/>
<path d="M1300 3751 c0 -39 2 -41 30 -41 28 0 30 3 30 34 0 19 -4 38 -10 41
-6 4 -10 -8 -10 -30 0 -22 -4 -34 -10 -30 -5 3 -10 17 -10 30 0 13 -4 27 -10
30 -6 4 -10 -10 -10 -34z"/>
<path d="M1385 3776 c-17 -12 -16 -14 6 -35 l24 -23 -22 7 c-14 4 -23 2 -23
-4 0 -17 50 -13 57 4 3 9 -3 23 -13 31 -11 9 -13 13 -6 9 6 -3 12 -2 12 4 0
17 -16 21 -35 7z"/>
<path d="M1575 3782 c-3 -3 -5 -20 -5 -39 0 -24 5 -33 16 -33 11 0 15 6 11 19
-2 10 -1 25 4 32 6 10 9 4 9 -18 0 -23 5 -33 15 -33 19 0 21 55 3 66 -15 10
-46 13 -53 6z"/>
<path d="M1753 3783 c-23 -8 -14 -25 10 -18 l22 6 -22 -20 c-32 -27 -29 -41
10 -41 32 0 33 1 29 34 -4 34 -22 48 -49 39z m27 -53 c0 -5 -4 -10 -10 -10 -5
0 -10 5 -10 10 0 6 5 10 10 10 6 0 10 -4 10 -10z"/>
<path d="M1820 3778 c0 -9 5 -29 12 -43 10 -22 9 -27 -8 -40 -17 -13 -17 -14
-2 -15 18 0 40 34 52 80 6 22 6 23 -5 6 -11 -18 -12 -18 -30 5 -15 19 -19 21
-19 7z"/>
<path d="M1906 3774 c-27 -27 -15 -64 20 -64 30 0 31 15 2 25 -23 6 -22 7 21
21 11 3 11 7 1 19 -16 19 -25 19 -44 -1z"/>
<path d="M1976 3782 c-3 -3 -6 -20 -6 -39 0 -23 5 -33 15 -33 10 0 15 10 15
30 0 17 5 30 12 30 6 0 8 3 4 7 -9 9 -33 12 -40 5z"/>
<path d="M1138 3745 c-3 -24 0 -35 9 -35 8 0 13 13 13 35 0 19 -4 35 -9 35 -5
0 -11 -16 -13 -35z"/>
<path d="M1443 3745 c0 -22 5 -35 14 -35 8 0 13 13 13 35 0 23 -5 35 -13 35
-9 0 -14 -12 -14 -35z"/>
<path d="M1486 3764 c-9 -24 12 -54 39 -54 18 0 26 7 31 24 6 26 -1 46 -16 46
-5 0 -8 -11 -7 -24 1 -14 -2 -24 -8 -23 -5 1 -10 12 -10 25 1 25 -20 30 -29 6z"/>
<path d="M2265 3710 c-66 -15 -155 -35 -198 -45 -43 -9 -76 -19 -73 -22 7 -8
418 77 431 89 16 14 -35 7 -160 -22z"/>
<path d="M2370 3670 c0 -6 28 -10 65 -10 37 0 65 4 65 10 0 6 -28 10 -65 10
-37 0 -65 -4 -65 -10z"/>
<path d="M2540 3670 c0 -6 28 -10 65 -10 37 0 65 4 65 10 0 6 -28 10 -65 10
-37 0 -65 -4 -65 -10z"/>
<path d="M2710 3670 c0 -6 30 -10 70 -10 40 0 70 4 70 10 0 6 -30 10 -70 10
-40 0 -70 -4 -70 -10z"/>
<path d="M2890 3670 c0 -6 28 -10 65 -10 37 0 65 4 65 10 0 6 -28 10 -65 10
-37 0 -65 -4 -65 -10z"/>
<path d="M3060 3670 c0 -6 28 -10 65 -10 37 0 65 4 65 10 0 6 -28 10 -65 10
-37 0 -65 -4 -65 -10z"/>
<path d="M3230 3670 c0 -6 30 -10 70 -10 40 0 70 4 70 10 0 6 -30 10 -70 10
-40 0 -70 -4 -70 -10z"/>
<path d="M3410 3670 c0 -6 28 -10 65 -10 37 0 65 4 65 10 0 6 -28 10 -65 10
-37 0 -65 -4 -65 -10z"/>
<path d="M3580 3670 c0 -6 28 -10 65 -10 37 0 65 4 65 10 0 6 -28 10 -65 10
-37 0 -65 -4 -65 -10z"/>
<path d="M3750 3670 c0 -6 28 -10 64 -10 36 0 68 5 71 10 4 6 -20 10 -64 10
-41 0 -71 -4 -71 -10z"/>
<path d="M3930 3670 c0 -6 28 -10 65 -10 37 0 65 4 65 10 0 6 -28 10 -65 10
-37 0 -65 -4 -65 -10z"/>
<path d="M4100 3670 c0 -6 28 -10 65 -10 37 0 65 4 65 10 0 6 -28 10 -65 10
-37 0 -65 -4 -65 -10z"/>
<path d="M4270 3670 c0 -6 28 -10 65 -10 37 0 65 4 65 10 0 6 -28 10 -65 10
-37 0 -65 -4 -65 -10z"/>
<path d="M4450 3670 c0 -6 28 -10 65 -10 37 0 65 4 65 10 0 6 -28 10 -65 10
-37 0 -65 -4 -65 -10z"/>
<path d="M4620 3670 c0 -6 28 -10 65 -10 37 0 65 4 65 10 0 6 -28 10 -65 10
-37 0 -65 -4 -65 -10z"/>
<path d="M4790 3670 c0 -6 28 -10 64 -10 36 0 68 5 71 10 4 6 -20 10 -64 10
-41 0 -71 -4 -71 -10z"/>
<path d="M4965 3670 c3 -5 35 -10 71 -10 36 0 64 4 64 10 0 6 -30 10 -71 10
-44 0 -68 -4 -64 -10z"/>
<path d="M5140 3670 c0 -6 28 -10 65 -10 37 0 65 4 65 10 0 6 -28 10 -65 10
-37 0 -65 -4 -65 -10z"/>
<path d="M5310 3670 c0 -6 28 -10 65 -10 37 0 65 4 65 10 0 6 -28 10 -65 10
-37 0 -65 -4 -65 -10z"/>
<path d="M5480 3670 c0 -6 30 -10 70 -10 40 0 70 4 70 10 0 6 -30 10 -70 10
-40 0 -70 -4 -70 -10z"/>
<path d="M5660 3670 c0 -6 28 -10 65 -10 37 0 65 4 65 10 0 6 -28 10 -65 10
-37 0 -65 -4 -65 -10z"/>
<path d="M5830 3670 c0 -6 27 -10 60 -10 33 0 60 4 60 10 0 6 -27 10 -60 10
-33 0 -60 -4 -60 -10z"/>
<path d="M6065 3670 c3 -5 33 -10 66 -10 l59 0 -6 -27 c-4 -16 -11 -36 -15
-45 -13 -25 -11 -38 7 -38 12 0 15 -12 14 -62 -2 -96 3 -103 9 -13 5 68 9 80
23 77 16 -2 16 0 3 32 -20 46 -19 66 3 82 14 11 3 13 -76 14 -60 0 -91 -4 -87
-10z"/>
<path d="M663 3625 c-11 -18 -4 -95 8 -95 8 0 14 54 10 87 -1 6 6 14 16 16 14
4 13 5 -4 6 -12 0 -26 -6 -30 -14z"/>
<path d="M1495 3585 c0 -37 4 -55 13 -55 8 0 12 18 12 55 0 37 -4 55 -12 55
-9 0 -13 -18 -13 -55z"/>
<path d="M822 3579 c4 -57 25 -63 22 -7 -1 23 -7 44 -14 46 -8 3 -10 -9 -8
-39z"/>
<path d="M1262 3579 c4 -57 25 -63 22 -7 -1 23 -7 44 -14 46 -8 3 -10 -9 -8
-39z"/>
<path d="M1622 3578 c4 -58 25 -61 25 -3 0 32 -4 45 -14 45 -10 0 -13 -11 -11
-42z"/>
<path d="M583 3603 c-18 -7 -16 -48 2 -63 19 -15 52 -4 60 21 11 35 -23 58
-62 42z m37 -34 c0 -20 -15 -26 -25 -9 -9 15 3 43 15 35 5 -3 10 -15 10 -26z"/>
<path d="M755 3599 c-4 -5 0 -18 9 -28 21 -23 20 -32 -1 -24 -11 4 -14 3 -9
-5 11 -18 46 -15 53 4 4 11 -3 24 -18 36 -16 13 -18 18 -6 14 9 -3 17 -1 17 4
0 13 -37 13 -45 -1z"/>
<path d="M872 3593 c1 -10 -1 -24 -5 -30 -5 -7 -6 -17 -2 -22 6 -11 55 -10 55
2 0 4 0 21 0 37 0 26 -4 30 -26 30 -18 0 -24 -5 -22 -17z m28 -3 c0 -5 -4 -10
-10 -10 -5 0 -10 5 -10 10 0 6 5 10 10 10 6 0 10 -4 10 -10z m0 -30 c0 -5 -5
-10 -11 -10 -5 0 -7 5 -4 10 3 6 8 10 11 10 2 0 4 -4 4 -10z"/>
<path d="M953 3598 c-4 -7 -9 -32 -10 -55 -3 -41 -2 -43 24 -43 26 1 27 1 8
12 -19 12 -18 13 10 19 l30 6 -25 11 c-16 7 -19 11 -9 11 16 1 32 35 21 45
-10 11 -41 6 -49 -6z m27 -14 c0 -8 -5 -12 -10 -9 -6 4 -8 11 -5 16 9 14 15
11 15 -7z"/>
<path d="M1020 3569 c0 -28 4 -39 13 -36 6 2 13 10 13 18 1 8 2 20 3 28 2 22
16 2 16 -21 0 -12 6 -23 13 -25 7 -3 12 5 12 20 0 43 -10 57 -41 57 -27 0 -29
-2 -29 -41z"/>
<path d="M1105 3600 c-4 -6 -4 -14 0 -18 3 -3 10 0 14 7 6 9 11 10 15 2 4 -6
1 -11 -6 -11 -10 0 -9 -3 2 -10 8 -5 11 -12 7 -17 -5 -4 -12 -1 -17 7 -11 17
-25 7 -17 -13 3 -8 17 -14 32 -14 24 0 26 2 23 36 -2 28 -8 37 -25 39 -11 2
-24 -2 -28 -8z"/>
<path d="M1179 3606 c-8 -9 2 -76 12 -76 5 0 9 14 9 30 0 17 5 30 10 30 6 0
10 -13 10 -30 0 -16 5 -30 11 -30 6 0 9 16 7 38 -3 31 -7 37 -28 40 -14 2 -28
1 -31 -2z"/>
<path d="M1350 3590 c0 -10 8 -24 18 -29 16 -10 16 -10 0 -11 -10 0 -18 -4
-18 -10 0 -16 40 -12 46 5 5 13 8 13 21 0 29 -30 67 -7 61 37 -4 31 -52 38
-67 9 -11 -19 -41 -19 -41 0 0 4 7 5 17 2 11 -4 14 -3 9 5 -12 20 -46 14 -46
-8z m108 -18 c2 -15 -2 -22 -12 -22 -11 0 -16 9 -16 26 0 31 23 28 28 -4z"/>
<path d="M1540 3583 c0 -39 13 -55 41 -51 20 2 24 9 24 37 0 46 -25 54 -26 9
l-1 -33 -9 33 c-12 39 -29 42 -29 5z"/>
<path d="M1670 3569 c0 -25 4 -39 11 -37 6 2 10 7 10 11 -1 4 -1 21 -1 37 0
17 -4 30 -10 30 -5 0 -10 -18 -10 -41z"/>
<path d="M1720 3595 c-26 -32 13 -81 48 -59 34 22 22 74 -18 74 -10 0 -23 -7
-30 -15z m45 -16 c9 -28 -8 -45 -25 -25 -13 17 -7 46 9 46 5 0 13 -9 16 -21z"/>
<path d="M1800 3569 c0 -28 4 -39 13 -36 7 2 11 15 9 30 -2 15 1 27 7 27 6 0
11 -14 11 -31 0 -37 24 -35 26 2 2 38 -6 49 -37 49 -27 0 -29 -2 -29 -41z"/>
<path d="M2432 3568 c-58 -19 -75 -38 -32 -38 11 0 43 -9 72 -20 64 -24 61
-24 53 0 -6 20 -2 20 1709 20 1519 0 1716 2 1716 15 0 13 -197 15 -1716 15
-1521 0 -1715 2 -1710 15 7 20 -13 18 -92 -7z"/>
<path d="M2245 3515 l-25 -24 -1 -228 c0 -256 -6 -287 -56 -312 -38 -19 -41
-28 -12 -33 12 -2 31 -16 43 -31 20 -27 21 -42 24 -265 1 -147 6 -245 13 -258
12 -24 49 -44 80 -44 11 0 17 5 14 10 -3 6 -15 10 -26 10 -10 0 -28 9 -39 20
-19 19 -20 33 -20 243 0 234 -7 287 -42 312 l-22 15 21 22 c39 41 43 72 43
307 0 208 2 229 18 244 10 10 25 17 33 17 8 0 21 5 29 10 11 7 7 10 -18 10
-22 0 -41 -8 -57 -25z"/>
<path d="M2490 3450 c-8 -5 -39 -15 -67 -21 -29 -7 -53 -15 -53 -18 0 -4 26
-14 58 -23 31 -9 68 -19 81 -24 20 -6 23 -4 18 9 -6 16 116 17 1706 19 1514 3
1712 5 1712 18 0 13 -198 15 -1710 18 -1513 2 -1710 4 -1707 17 3 17 -16 19
-38 5z"/>
<path d="M2432 3298 c-35 -11 -60 -23 -57 -26 6 -6 68 -24 128 -38 23 -5 26
-4 21 10 -6 15 128 16 1710 16 1519 0 1716 2 1716 15 0 13 -197 15 -1716 15
-1521 0 -1715 2 -1710 15 7 20 -13 18 -92 -7z"/>
<path d="M2490 3180 c-8 -5 -39 -15 -67 -21 -29 -7 -53 -15 -53 -18 0 -4 26
-14 58 -23 31 -9 68 -19 81 -24 20 -6 23 -4 18 9 -6 16 116 17 1706 19 1514 3
1712 5 1712 18 0 13 -196 15 -1695 17 -932 2 -1703 3 -1712 3 -11 0 -15 5 -12
15 7 17 -13 20 -36 5z"/>
<path d="M2432 3028 c-58 -19 -75 -38 -32 -38 11 0 43 -9 72 -20 64 -24 61
-24 53 0 -6 20 -2 20 1709 20 1519 0 1716 2 1716 15 0 13 -197 15 -1716 15
-1521 0 -1715 2 -1710 15 7 20 -13 18 -92 -7z"/>
<path d="M735 2955 l0 -54 78 0 c81 1 89 6 71 53 -7 18 -54 22 -54 5 0 -6 7
-9 15 -5 31 11 14 -11 -20 -27 -58 -27 -65 -24 -65 33 0 33 -4 50 -12 50 -9 0
-13 -18 -13 -55z"/>
<path d="M1030 3000 c0 -5 5 -10 11 -10 5 0 7 5 4 10 -3 6 -8 10 -11 10 -2 0
-4 -4 -4 -10z"/>
<path d="M1341 3001 c-9 -6 -14 -25 -13 -52 3 -69 19 -70 24 -1 2 25 8 42 16
42 13 0 15 -8 14 -57 -1 -23 3 -33 14 -33 12 0 14 11 12 53 -3 47 -5 52 -28
55 -14 1 -31 -2 -39 -7z"/>
<path d="M1885 3000 c-3 -5 -1 -10 4 -10 6 0 11 5 11 10 0 6 -2 10 -4 10 -3 0
-8 -4 -11 -10z"/>
<path d="M923 2972 c-19 -3 -23 -10 -23 -38 0 -24 5 -34 15 -34 10 0 15 10 15
31 0 16 4 28 9 24 5 -3 8 -17 5 -30 -3 -18 0 -25 11 -25 10 0 15 10 15 31 0
19 4 28 11 23 6 -3 9 -17 6 -30 -3 -16 0 -24 9 -24 17 0 19 56 2 66 -13 9 -42
11 -75 6z"/>
<path d="M1095 2971 c-24 -7 -32 -71 -9 -71 9 0 14 11 14 31 0 17 4 28 10 24
6 -3 10 -17 10 -31 0 -13 5 -24 10 -24 15 0 12 67 -2 72 -7 3 -22 2 -33 -1z"/>
<path d="M1516 2971 c-8 -12 14 -71 25 -71 5 0 9 8 9 18 1 15 2 15 15 -2 16
-22 16 -22 33 17 14 34 15 37 3 37 -5 0 -12 -8 -14 -17 -4 -17 -5 -17 -6 0 0
9 -8 17 -16 17 -8 0 -15 -8 -16 -17 0 -14 -2 -13 -9 5 -10 24 -16 27 -24 13z"/>
<path d="M1746 2973 c-4 -4 -22 -6 -41 -5 -34 3 -35 1 -35 -33 0 -24 4 -35 15
-35 10 0 15 10 15 30 0 17 4 30 9 30 5 0 11 -13 15 -30 4 -24 11 -30 31 -30
31 0 33 15 3 25 -22 7 -22 7 -3 12 32 8 39 20 17 32 -10 6 -22 7 -26 4z"/>
<path d="M1030 2935 c0 -19 5 -35 10 -35 6 0 10 16 10 35 0 19 -4 35 -10 35
-5 0 -10 -16 -10 -35z"/>
<path d="M1154 2959 c-4 -8 0 -9 15 -4 11 3 21 2 21 -3 0 -5 -9 -12 -20 -15
-11 -3 -20 -12 -20 -21 0 -12 10 -16 36 -16 29 0 35 3 30 16 -3 9 -6 24 -6 35
0 13 -7 19 -24 19 -14 0 -28 -5 -32 -11z"/>
<path d="M1230 2935 c0 -19 5 -35 10 -35 6 0 10 10 10 21 0 12 8 28 18 35 15
12 14 13 -10 14 -25 0 -28 -3 -28 -35z"/>
<path d="M1431 2952 c-14 -27 8 -55 40 -50 19 2 24 9 24 33 0 25 -4 31 -27 33
-18 2 -30 -3 -37 -16z m47 -20 c2 -15 -2 -22 -12 -22 -11 0 -16 9 -16 26 0 31
23 28 28 -4z"/>
<path d="M1809 2968 c-1 -2 -3 -25 -4 -51 -2 -51 15 -71 38 -48 8 8 6 11 -8
12 -13 1 -9 4 10 9 29 8 29 8 7 15 -23 8 -23 8 -2 22 30 21 25 43 -10 43 -16
0 -31 -1 -31 -2z m28 -30 c-3 -8 -6 -5 -6 6 -1 11 2 17 5 13 3 -3 4 -12 1 -19z"/>
<path d="M1880 2935 c0 -23 5 -35 14 -35 9 0 14 12 14 35 0 23 -5 35 -14 35
-9 0 -14 -12 -14 -35z"/>
<path d="M1932 2957 c-17 -20 -3 -57 22 -57 32 0 48 15 44 41 -4 28 -47 39
-66 16z m43 -22 c0 -10 -6 -20 -12 -22 -8 -3 -13 5 -13 22 0 17 5 25 13 23 6
-3 12 -13 12 -23z"/>
<path d="M2010 2935 c0 -25 4 -35 15 -35 9 0 15 6 14 13 -3 26 1 48 10 43 4
-3 6 -17 3 -31 -3 -18 0 -25 12 -25 9 0 16 8 16 19 0 37 -12 51 -41 51 -26 0
-29 -3 -29 -35z"/>
<path d="M2490 2910 c-8 -5 -39 -15 -67 -21 -29 -7 -53 -15 -53 -18 0 -4 26
-14 58 -23 31 -9 68 -19 81 -24 20 -6 23 -4 18 9 -6 16 116 17 1706 19 1370 2
1712 6 1712 16 0 10 -341 12 -1713 12 -1710 0 -1713 0 -1707 20 7 22 -9 27
-35 10z"/>
<path d="M2425 2755 l-70 -22 45 -12 c47 -13 82 -24 114 -36 15 -7 17 -5 11
13 l-6 22 1715 0 c1519 0 1716 2 1716 15 0 13 -197 15 -1716 15 -1521 0 -1715
2 -1710 15 7 20 -13 18 -99 -10z"/>
<path d="M2460 2630 c-25 -11 -55 -19 -67 -19 -40 -1 -25 -16 35 -33 31 -9 68
-19 81 -24 20 -6 23 -4 18 9 -6 16 116 17 1706 19 1514 3 1712 5 1712 18 0 13
-198 15 -1712 18 -1516 2 -1712 4 -1707 17 8 19 -9 18 -66 -5z"/>
<path d="M2425 2485 c-66 -21 -68 -23 -40 -30 17 -4 50 -13 75 -21 51 -16 66
-15 62 3 -2 11 324 13 1713 13 1518 0 1715 2 1715 15 0 13 -197 15 -1716 15
-1521 0 -1715 2 -1710 15 7 20 -13 18 -99 -10z"/>
<path d="M2490 2370 c-8 -5 -39 -15 -67 -21 -29 -7 -53 -15 -53 -18 0 -4 26
-14 58 -23 31 -9 68 -19 81 -24 20 -6 23 -4 18 9 -6 16 114 17 1703 17 1199 0
1711 3 1715 11 4 6 4 13 0 17 -4 4 -768 8 -1698 9 -931 1 -1700 2 -1709 2 -11
1 -15 6 -12 16 7 17 -13 20 -36 5z"/>
<path d="M2370 2200 c0 -6 28 -10 65 -10 37 0 65 4 65 10 0 6 -28 10 -65 10
-37 0 -65 -4 -65 -10z"/>
<path d="M2540 2200 c0 -6 28 -10 65 -10 37 0 65 4 65 10 0 6 -28 10 -65 10
-37 0 -65 -4 -65 -10z"/>
<path d="M2715 2200 c-4 -6 20 -10 64 -10 41 0 71 4 71 10 0 6 -28 10 -64 10
-36 0 -68 -4 -71 -10z"/>
<path d="M2885 2200 c3 -5 35 -10 71 -10 36 0 64 4 64 10 0 6 -30 10 -71 10
-44 0 -68 -4 -64 -10z"/>
<path d="M3060 2200 c0 -6 28 -10 65 -10 37 0 65 4 65 10 0 6 -28 10 -65 10
-37 0 -65 -4 -65 -10z"/>
<path d="M3230 2200 c0 -6 28 -10 65 -10 37 0 65 4 65 10 0 6 -28 10 -65 10
-37 0 -65 -4 -65 -10z"/>
<path d="M3410 2200 c0 -6 28 -10 65 -10 37 0 65 4 65 10 0 6 -28 10 -65 10
-37 0 -65 -4 -65 -10z"/>
<path d="M3580 2200 c0 -6 28 -10 65 -10 37 0 65 4 65 10 0 6 -28 10 -65 10
-37 0 -65 -4 -65 -10z"/>
<path d="M3750 2200 c0 -6 30 -10 71 -10 44 0 68 4 64 10 -3 6 -35 10 -71 10
-36 0 -64 -4 -64 -10z"/>
<path d="M3925 2200 c3 -5 35 -10 71 -10 36 0 64 4 64 10 0 6 -30 10 -71 10
-44 0 -68 -4 -64 -10z"/>
<path d="M4100 2200 c0 -6 28 -10 65 -10 37 0 65 4 65 10 0 6 -28 10 -65 10
-37 0 -65 -4 -65 -10z"/>
<path d="M4270 2200 c0 -6 28 -10 65 -10 37 0 65 4 65 10 0 6 -28 10 -65 10
-37 0 -65 -4 -65 -10z"/>
<path d="M4450 2200 c0 -6 28 -10 65 -10 37 0 65 4 65 10 0 6 -28 10 -65 10
-37 0 -65 -4 -65 -10z"/>
<path d="M4620 2200 c0 -6 28 -10 65 -10 37 0 65 4 65 10 0 6 -28 10 -65 10
-37 0 -65 -4 -65 -10z"/>
<path d="M4795 2200 c-4 -6 18 -10 59 -10 37 0 66 4 66 10 0 6 -26 10 -59 10
-33 0 -63 -4 -66 -10z"/>
<path d="M4960 2200 c0 -6 30 -10 70 -10 40 0 70 4 70 10 0 6 -30 10 -70 10
-40 0 -70 -4 -70 -10z"/>
<path d="M5140 2200 c0 -6 28 -10 65 -10 37 0 65 4 65 10 0 6 -28 10 -65 10
-37 0 -65 -4 -65 -10z"/>
<path d="M5310 2200 c0 -6 28 -10 65 -10 37 0 65 4 65 10 0 6 -28 10 -65 10
-37 0 -65 -4 -65 -10z"/>
<path d="M5485 2200 c-4 -6 20 -10 64 -10 41 0 71 4 71 10 0 6 -28 10 -64 10
-36 0 -68 -4 -71 -10z"/>
<path d="M5660 2200 c0 -6 28 -10 65 -10 37 0 65 4 65 10 0 6 -28 10 -65 10
-37 0 -65 -4 -65 -10z"/>
<path d="M5830 2200 c0 -6 27 -10 60 -10 33 0 60 4 60 10 0 6 -27 10 -60 10
-33 0 -60 -4 -60 -10z"/>
<path d="M2854 2078 c13 -29 26 -66 30 -83 7 -28 8 -29 21 -11 14 18 15 18 25
-8 5 -15 10 -33 10 -40 0 -29 41 -51 98 -51 47 0 56 -3 65 -23 6 -12 19 -22
29 -22 51 0 27 -64 -57 -151 -96 -99 -102 -129 -44 -221 37 -57 93 -102 117
-93 14 5 9 12 -25 41 -48 40 -93 111 -93 148 0 18 22 50 73 105 40 44 78 95
84 113 10 35 1 78 -16 78 -6 0 -25 14 -42 31 -28 28 -36 30 -73 25 -28 -5 -48
-2 -60 7 -23 17 -47 92 -35 104 8 8 -109 103 -126 103 -2 0 6 -24 19 -52z"/>
<path d="M2639 2086 c-25 -7 -61 -23 -80 -36 -43 -29 -99 -81 -99 -92 0 -18
38 -6 61 18 41 44 119 84 166 84 36 0 49 -7 97 -51 99 -90 99 -183 0 -304 -44
-54 -74 -127 -74 -179 0 -78 54 -128 163 -151 21 -4 27 -10 23 -22 -5 -12 -1
-14 19 -9 14 4 46 9 73 12 79 9 80 14 12 40 -36 14 -69 29 -74 34 -16 16 -26
11 -26 -11 0 -14 -5 -19 -14 -16 -8 3 -32 11 -55 18 -60 18 -85 49 -85 107 1
53 19 94 75 168 95 125 92 245 -9 336 -68 61 -104 72 -173 54z"/>
<path d="M5000 2091 c0 -13 59 -57 94 -71 16 -6 75 -20 130 -30 56 -11 112
-28 126 -38 49 -37 32 -137 -35 -202 -44 -43 -119 -54 -148 -22 -31 34 -18 54
40 67 29 7 59 18 68 25 32 27 9 87 -45 115 -59 30 -86 21 -368 -119 -249 -124
-270 -137 -281 -167 -10 -29 -8 -40 13 -83 16 -32 21 -53 15 -57 -8 -5 118
-89 135 -89 2 0 -10 28 -28 63 -18 34 -35 69 -39 77 -5 13 -7 13 -16 0 -17
-23 -53 24 -49 64 3 30 13 36 266 164 164 82 275 132 293 132 21 0 40 -10 61
-30 38 -38 27 -56 -40 -66 -60 -8 -72 -19 -72 -61 0 -53 36 -83 102 -83 87 0
147 51 184 156 16 46 16 55 3 90 -18 49 -71 78 -172 94 -94 15 -134 28 -177
56 -36 25 -60 31 -60 15z"/>
<path d="M3380 2075 c0 -11 11 -15 35 -15 46 0 101 -23 114 -48 6 -12 11 -75
11 -144 0 -105 3 -128 20 -155 18 -30 25 -33 66 -33 64 0 134 40 164 92 26 46
31 108 11 132 -18 21 -69 21 -93 -1 -16 -15 -21 -15 -28 -3 -7 12 -10 11 -16
-5 -4 -11 -18 -47 -30 -79 -13 -33 -22 -61 -20 -63 2 -3 30 16 61 41 30 25 60
46 65 46 6 0 10 5 10 10 0 6 -8 10 -17 10 -16 0 -16 1 -1 16 22 22 48 11 48
-21 0 -74 -66 -138 -144 -139 -38 -1 -42 1 -53 34 -6 19 -12 86 -12 148 -1 62
-6 122 -12 134 -24 44 -179 82 -179 43z"/>
<path d="M3705 2047 c-38 -23 -63 -43 -55 -44 8 -1 48 -3 87 -5 64 -3 72 -2
68 13 -6 19 2 21 158 40 107 13 171 8 218 -17 30 -15 31 -18 27 -70 -3 -33
-13 -65 -25 -82 -23 -31 -93 -68 -145 -77 -38 -7 -50 -21 -24 -31 23 -9 121
25 164 56 28 20 44 42 56 76 23 68 20 99 -11 134 -42 46 -112 57 -260 41 -65
-7 -131 -15 -147 -18 -24 -5 -28 -3 -23 10 10 26 -11 19 -88 -26z"/>
<path d="M5840 2075 c0 -8 4 -15 8 -15 15 0 42 -58 42 -91 0 -29 -43 -119 -56
-119 -3 0 -3 13 1 30 16 73 -40 136 -98 109 -30 -14 -61 -74 -72 -139 -14 -93
-54 -148 -117 -163 -63 -16 -73 17 -34 113 13 32 27 73 31 90 5 22 11 30 22
26 12 -5 13 6 7 77 -3 45 -8 83 -9 85 -1 2 -21 -30 -43 -70 -35 -65 -38 -74
-22 -78 16 -5 16 -9 5 -50 -7 -25 -23 -71 -35 -102 -20 -49 -21 -62 -10 -87
22 -54 119 -50 173 7 29 30 67 117 67 154 0 29 37 105 55 112 23 8 45 -22 45
-64 0 -51 -34 -156 -64 -201 -50 -74 -174 -131 -311 -145 -48 -5 -65 -11 -65
-22 0 -12 12 -14 73 -9 181 16 330 111 373 239 l17 51 13 -38 c7 -21 17 -42
23 -48 19 -19 12 -63 -16 -94 -16 -16 -63 -54 -106 -82 -42 -29 -82 -61 -87
-71 -15 -29 -12 -66 9 -91 12 -15 16 -28 10 -39 -5 -8 -15 -37 -23 -65 -8 -27
-17 -58 -22 -69 -6 -15 -4 -17 15 -11 19 6 21 3 17 -17 -3 -13 -8 -40 -11 -61
-7 -42 -40 -70 -77 -65 -24 3 -30 30 -14 76 6 18 4 22 -12 22 -23 0 -32 -18
-32 -64 0 -62 63 -85 127 -47 25 16 33 30 42 71 6 28 11 60 11 70 0 13 5 18
15 14 19 -8 19 -2 -5 74 -11 35 -20 67 -20 71 0 5 22 6 50 3 38 -3 57 0 84 16
31 19 37 19 44 6 7 -12 18 -1 51 51 23 37 40 69 38 72 -4 3 -125 -51 -147 -65
-2 -2 2 -7 9 -11 10 -7 8 -12 -10 -25 -34 -23 -81 -20 -107 7 -40 42 -29 60
84 135 74 49 120 100 129 142 5 25 1 39 -19 69 -32 46 -33 67 -2 111 32 49 49
105 41 140 -12 56 -85 120 -85 75z"/>
<path d="M2263 2070 c-12 -5 -26 -18 -32 -29 -7 -13 -11 -128 -11 -324 0 -197
-4 -315 -11 -336 -7 -20 -24 -38 -48 -50 l-36 -19 25 -10 c14 -5 34 -20 45
-32 19 -21 20 -40 25 -352 l5 -330 24 -19 c13 -10 37 -19 55 -19 24 0 27 3 16
10 -8 5 -22 10 -31 10 -9 0 -23 8 -32 18 -15 16 -17 53 -17 318 0 308 -5 358
-40 389 -20 18 -20 19 -1 39 38 40 41 70 41 386 0 308 0 309 22 324 12 9 30
16 40 16 10 0 18 5 18 10 0 12 -27 12 -57 0z"/>
<path d="M4375 2060 c-9 -15 1 -26 39 -44 44 -21 106 -20 151 1 35 17 35 17
82 -17 39 -28 58 -35 110 -38 67 -5 89 -19 78 -52 -12 -38 -61 -52 -220 -63
-158 -11 -209 -7 -241 19 -16 13 -17 15 -1 10 19 -6 21 4 8 54 -5 19 -12 52
-16 74 -8 46 -17 39 -40 -31 -9 -29 -21 -55 -26 -58 -16 -10 -10 -38 6 -31 10
4 19 -3 27 -19 22 -49 66 -59 234 -52 239 10 304 34 304 111 0 46 -29 66 -95
66 -41 0 -61 7 -105 35 -59 38 -82 42 -120 20 -35 -20 -84 -18 -130 5 -24 12
-41 16 -45 10z"/>
<path d="M3095 2035 c-40 -18 -65 -40 -65 -54 0 -17 17 -13 60 14 29 18 53 25
90 25 48 0 52 -2 62 -30 11 -33 52 -60 92 -60 36 0 60 -41 59 -101 -1 -75 -19
-95 -100 -108 -37 -7 -85 -17 -105 -23 -105 -31 -111 -142 -11 -211 26 -17 58
-42 70 -54 25 -24 30 -65 10 -81 -19 -16 -119 -41 -194 -48 -56 -6 -63 -5 -57
10 8 21 3 20 -49 -8 -25 -13 -60 -29 -78 -36 l-34 -13 50 -7 c28 -4 66 -11 87
-15 31 -6 36 -4 35 11 -2 14 15 20 98 34 110 19 170 42 186 72 17 32 1 75 -42
110 -96 79 -119 105 -119 134 0 16 4 34 8 41 12 19 71 40 151 53 90 15 116 37
126 104 14 93 -23 166 -85 166 -32 0 -70 30 -70 55 0 34 -117 47 -175 20z"/>
<path d="M2555 1908 c-32 -17 -95 -80 -111 -110 -30 -57 -7 -166 45 -212 11
-11 21 -29 21 -40 0 -30 -63 -153 -76 -149 -7 2 -13 -24 -17 -74 -5 -72 -1
-106 11 -74 2 7 24 37 48 67 37 45 41 54 25 54 -17 0 -18 4 -11 28 4 15 20 52
34 82 14 30 26 63 26 72 0 10 -16 35 -35 56 -19 21 -40 59 -46 84 -11 40 -10
49 10 91 14 29 41 60 72 83 27 19 47 40 43 45 -7 11 -14 11 -39 -3z"/>
<path d="M2593 1823 c-7 -32 -15 -68 -19 -81 -5 -18 -3 -21 10 -16 14 5 16 -4
16 -74 0 -126 18 -230 51 -299 39 -82 38 -123 -2 -157 -29 -25 -94 -48 -171
-61 -22 -3 -45 -16 -56 -30 -25 -31 -35 -100 -22 -144 11 -38 46 -81 67 -81
21 0 15 23 -12 49 -21 19 -25 33 -25 76 0 75 18 93 107 110 174 33 214 103
146 251 -27 57 -34 89 -43 184 -15 169 -14 180 11 180 16 0 19 4 14 18 -4 9
-15 42 -25 72 -10 30 -22 56 -26 57 -5 2 -15 -23 -21 -54z"/>
<path d="M4895 1746 c-11 -7 -45 -22 -75 -34 -41 -15 -51 -22 -38 -27 16 -6
15 -10 -7 -39 -27 -36 -31 -57 -15 -87 8 -15 21 -19 57 -19 44 0 49 3 112 69
78 82 103 93 126 57 24 -37 7 -77 -60 -142 -71 -68 -108 -145 -113 -237 -3
-40 1 -79 8 -98 14 -32 38 -34 31 -3 -2 10 -4 51 -5 89 0 60 5 79 31 131 17
33 51 78 75 99 59 53 78 84 78 128 0 41 -35 87 -65 87 -33 0 -81 -28 -113 -66
-66 -78 -74 -84 -103 -84 -24 0 -29 4 -29 24 0 32 28 55 42 35 7 -10 11 -11
14 -2 3 6 23 37 45 68 21 31 39 58 39 60 0 9 -16 5 -35 -9z"/>
<path d="M4380 1731 c-8 -5 -39 -17 -67 -26 -48 -16 -71 -35 -42 -35 6 0 -7
-20 -29 -44 -53 -58 -70 -100 -78 -197 -9 -110 -1 -119 115 -119 98 0 144 10
191 43 59 40 75 71 74 143 -2 98 -36 135 -127 136 -31 0 -46 -6 -70 -30 -27
-27 -31 -38 -31 -84 0 -66 17 -110 39 -102 11 4 14 12 9 23 -4 9 -9 39 -12 66
-4 63 20 95 74 95 54 0 84 -36 84 -100 0 -105 -59 -151 -202 -158 -113 -6
-122 1 -113 77 11 93 24 130 62 172 25 28 39 36 47 29 9 -7 27 9 64 55 47 59
51 78 12 56z"/>
<path d="M3812 1699 c3 -10 30 -16 89 -21 118 -9 195 -27 215 -50 25 -26 9
-37 -67 -48 -146 -21 -323 -6 -469 41 -95 30 -186 35 -230 12 -60 -31 -48 -93
18 -93 19 0 22 -4 17 -21 -6 -19 -4 -21 16 -15 13 4 50 10 82 13 32 3 60 10
63 14 3 5 -1 9 -8 9 -7 0 -42 14 -76 30 -73 35 -76 35 -68 15 6 -17 -20 -21
-42 -6 -10 6 -10 10 3 21 29 24 96 22 195 -5 182 -49 243 -57 403 -51 166 7
207 19 207 62 0 61 -74 91 -254 101 -82 5 -98 4 -94 -8z"/>
<path d="M5045 1448 c-47 -49 -55 -60 -35 -54 14 4 53 12 88 19 52 9 61 14 57
28 -5 14 2 19 29 24 42 8 56 1 56 -30 0 -25 -29 -52 -100 -95 -47 -29 -80 -75
-80 -114 0 -59 104 -120 159 -93 25 12 44 42 99 162 19 43 33 61 49 63 32 5
44 -25 32 -77 -19 -87 -77 -160 -186 -238 -35 -25 -63 -49 -63 -53 0 -58 213
117 258 211 13 26 25 69 29 97 5 42 2 53 -16 71 -29 29 -85 28 -105 -1 -9 -12
-30 -56 -47 -98 -36 -87 -54 -110 -85 -110 -12 0 -36 8 -53 18 -24 13 -31 24
-31 47 0 43 21 68 90 110 65 40 80 58 80 102 0 50 -20 67 -71 61 -24 -3 -52
-9 -61 -13 -13 -5 -18 -2 -18 9 0 26 -11 19 -75 -46z"/>
<path d="M3541 1448 c-7 -18 -23 -50 -36 -70 -29 -44 -30 -48 -10 -48 8 0 17
-14 21 -35 13 -74 73 -105 201 -105 158 0 179 55 41 110 -32 12 -62 28 -69 36
-17 20 -3 58 26 74 38 20 122 16 154 -7 64 -48 85 -229 41 -348 -51 -135 -109
-179 -235 -180 -69 0 -88 4 -135 29 -79 41 -106 47 -149 32 -66 -23 -241 -157
-241 -185 0 -21 21 -11 80 38 82 68 146 111 180 121 23 7 43 1 102 -27 170
-82 332 -42 403 98 71 140 71 332 0 425 -60 79 -237 63 -266 -24 -16 -48 10
-80 92 -111 77 -30 77 -30 59 -41 -20 -13 -136 -12 -182 0 -41 12 -68 42 -68
77 0 17 4 21 17 16 14 -6 15 0 10 42 -4 26 -7 63 -7 81 0 43 -15 44 -29 2z"/>
<path d="M660 1439 c0 -6 9 -8 21 -4 20 7 21 4 18 -44 -3 -42 -1 -51 12 -51
13 0 15 9 11 51 -5 49 -4 51 17 44 12 -4 21 -2 21 4 0 6 -21 11 -50 11 -29 0
-50 -5 -50 -11z"/>
<path d="M910 1400 c0 -38 4 -52 16 -57 44 -17 69 53 27 72 -13 5 -23 15 -23
22 0 7 -4 13 -10 13 -5 0 -10 -23 -10 -50z m45 -25 c0 -10 -6 -20 -12 -22 -8
-3 -13 5 -13 22 0 17 5 25 13 23 6 -3 12 -13 12 -23z"/>
<path d="M1070 1396 c0 -44 3 -56 15 -56 12 0 15 11 13 52 -4 74 -28 77 -28 4z"/>
<path d="M1369 1438 c-7 -77 -5 -98 7 -98 13 0 20 46 15 87 -1 8 5 10 14 7 10
-4 15 -20 15 -50 0 -29 4 -44 13 -44 8 0 11 16 9 55 l-4 55 -34 0 c-20 0 -34
-5 -35 -12z"/>
<path d="M1920 1440 c0 -5 5 -10 10 -10 6 0 10 5 10 10 0 6 -4 10 -10 10 -5 0
-10 -4 -10 -10z"/>
<path d="M1277 1423 c-17 -16 -3 -83 17 -83 7 0 10 16 8 45 -4 43 -11 53 -25
38z"/>
<path d="M3365 1333 c-66 -131 -197 -339 -243 -386 -44 -46 -111 -80 -149 -75
-39 4 -54 49 -27 79 16 18 26 20 69 15 122 -15 191 91 102 157 -26 20 -32 21
-175 9 -162 -12 -203 -21 -253 -55 -69 -45 -88 -149 -36 -198 27 -25 37 -24
80 6 20 13 39 20 42 15 9 -14 25 -12 25 3 0 6 14 39 30 72 16 33 27 61 25 63
-3 3 -30 -14 -121 -76 -14 -9 -16 -14 -6 -18 10 -5 9 -10 -4 -25 -21 -23 -50
-25 -58 -3 -20 53 8 124 59 148 68 32 315 57 365 36 42 -17 48 -46 16 -79 -24
-23 -33 -26 -88 -23 -68 3 -103 -13 -118 -53 -11 -30 5 -82 30 -95 59 -32 167
12 237 97 81 96 282 451 268 473 -12 20 -22 8 -70 -87z"/>
<path d="M772 1384 c3 -36 6 -39 36 -42 33 -3 33 -3 30 35 -4 45 -20 50 -29 8
l-6 -30 -4 29 c-6 47 -31 46 -27 0z"/>
<path d="M857 1413 c-4 -3 -7 -21 -7 -40 0 -23 5 -33 15 -33 10 0 15 10 15 30
0 17 5 30 10 30 6 0 10 5 10 10 0 11 -33 14 -43 3z"/>
<path d="M992 1383 c3 -35 6 -38 33 -38 27 0 30 3 30 34 0 19 -6 36 -12 39 -9
2 -13 -7 -13 -27 0 -17 -4 -31 -10 -31 -5 0 -10 14 -10 30 0 17 -5 30 -11 30
-6 0 -9 -16 -7 -37z"/>
<path d="M1118 1395 c-13 -29 3 -55 33 -55 26 0 24 16 -3 25 -22 7 -22 7 -3
12 31 8 42 22 25 33 -25 16 -40 11 -52 -15z"/>
<path d="M1193 1380 c1 -48 27 -57 27 -10 0 17 5 30 11 30 7 0 10 -12 7 -30
-3 -20 0 -30 9 -30 13 0 18 36 7 64 -4 9 -18 16 -34 16 -26 0 -28 -3 -27 -40z"/>
<path d="M1470 1405 c-26 -32 13 -81 48 -59 34 22 22 74 -18 74 -10 0 -23 -7
-30 -15z m45 -15 c7 -21 0 -40 -15 -40 -12 0 -23 37 -15 50 10 16 23 12 30
-10z"/>
<path d="M1548 1414 c-3 -3 -1 -18 5 -35 12 -30 32 -38 40 -16 4 10 6 10 6 0
1 -7 7 -13 14 -13 16 0 39 58 26 66 -5 3 -9 -2 -9 -10 0 -9 -4 -16 -10 -16 -5
0 -10 7 -10 15 0 8 -7 15 -15 15 -9 0 -12 -6 -9 -15 4 -8 1 -15 -5 -15 -6 0
-11 7 -11 15 0 15 -12 20 -22 9z"/>
<path d="M1710 1379 c0 -26 5 -39 13 -39 9 0 12 10 9 30 -3 23 0 30 12 30 10
0 16 -9 16 -25 0 -28 21 -41 48 -29 15 7 14 8 -5 11 -29 5 -30 19 -2 26 39 10
15 32 -39 34 l-52 1 0 -39z"/>
<path d="M1853 1412 c-6 -4 -12 -21 -11 -37 0 -17 -1 -37 -3 -45 -6 -24 47
-26 60 -1 9 16 7 21 -10 26 -19 6 -19 8 -3 19 32 24 1 59 -33 38z m27 -22 c0
-5 -4 -10 -10 -10 -5 0 -10 5 -10 10 0 6 5 10 10 10 6 0 10 -4 10 -10z m10
-60 c0 -5 -7 -10 -15 -10 -8 0 -15 5 -15 10 0 6 7 10 15 10 8 0 15 -4 15 -10z"/>
<path d="M1920 1380 c0 -26 5 -40 13 -40 9 0 11 12 9 40 -2 22 -8 40 -13 40
-5 0 -9 -18 -9 -40z"/>
<path d="M1970 1405 c-26 -32 13 -81 48 -59 34 22 22 74 -18 74 -10 0 -23 -7
-30 -15z m43 -41 c-3 -8 -9 -14 -13 -14 -12 0 -23 38 -14 51 10 16 35 -18 27
-37z"/>
<path d="M2055 1413 c-15 -12 -13 -73 2 -73 8 0 13 13 13 30 0 17 5 30 10 30
6 0 10 -13 10 -30 0 -18 5 -30 13 -30 24 0 6 74 -18 78 -11 1 -24 -1 -30 -5z"/>
<path d="M4547 1289 c-54 -13 -117 -46 -154 -82 -26 -24 -33 -39 -33 -67 0
-44 27 -73 89 -95 51 -18 188 -20 245 -4 56 15 96 58 96 103 0 48 -31 69 -89
60 -35 -6 -41 -4 -41 11 0 13 -11 8 -47 -22 -27 -22 -59 -47 -73 -57 l-25 -18
40 6 c22 3 62 6 88 6 43 0 48 2 42 19 -7 24 39 35 61 14 19 -19 18 -25 -6 -56
-26 -33 -75 -47 -166 -47 -106 0 -184 35 -184 82 0 46 97 104 201 122 36 6 68
16 70 21 5 13 -66 16 -114 4z"/>
<path d="M730 1226 c0 -59 15 -75 51 -55 29 15 22 63 -8 67 -15 2 -23 10 -23
23 0 10 -4 19 -10 19 -5 0 -10 -24 -10 -54z m50 -27 c0 -10 -7 -19 -15 -19
-13 0 -14 12 -6 48 3 12 21 -13 21 -29z"/>
<path d="M897 1273 c-13 -12 -8 -103 6 -103 8 0 12 16 12 50 -1 50 -6 66 -18
53z"/>
<path d="M940 1226 c0 -52 11 -73 23 -43 4 10 6 10 6 0 1 -7 8 -13 16 -13 18
0 19 12 3 28 -8 8 -8 15 2 27 15 18 0 21 -18 3 -9 -9 -12 -6 -12 14 0 15 -4
30 -10 33 -6 4 -10 -15 -10 -49z"/>
<path d="M1210 1225 c0 -37 4 -55 13 -55 8 0 11 16 9 55 -5 71 -22 71 -22 0z"/>
<path d="M1390 1270 c0 -5 5 -10 11 -10 5 0 7 5 4 10 -3 6 -8 10 -11 10 -2 0
-4 -4 -4 -10z"/>
<path d="M5740 1216 c-12 -36 -26 -68 -31 -71 -18 -12 -9 -26 12 -20 19 6 20
4 14 -27 -4 -18 -23 -67 -43 -108 -29 -59 -37 -87 -37 -133 0 -52 3 -61 28
-83 39 -34 73 -40 113 -21 52 25 56 68 12 129 -10 13 -5 31 24 95 43 93 61
154 49 166 -15 15 -28 0 -34 -36 -3 -19 -24 -72 -48 -120 l-42 -85 27 -46 27
-45 -21 -21 c-26 -26 -43 -25 -77 4 -39 34 -36 91 11 184 20 39 38 89 42 112
6 35 9 40 27 34 17 -5 19 -3 13 12 -4 11 -13 45 -20 76 -6 31 -14 60 -18 63
-3 3 -16 -23 -28 -59z"/>
<path d="M680 1251 c-14 -26 -13 -64 3 -84 10 -15 12 -8 12 43 1 33 0 60 -2
60 -1 0 -7 -9 -13 -19z"/>
<path d="M1605 1210 c0 -60 0 -60 18 -39 9 12 17 29 17 39 0 10 -8 28 -17 39
-18 22 -18 21 -18 -39z"/>
<path d="M1339 1246 c-3 -3 -3 -21 -1 -41 6 -47 27 -46 26 2 -1 34 -12 51 -25
39z"/>
<path d="M810 1206 c0 -36 11 -45 46 -38 18 3 22 10 19 31 -2 14 -4 29 -4 34
-1 4 -5 7 -11 7 -5 0 -10 -14 -10 -31 0 -17 -4 -28 -10 -24 -5 3 -10 17 -10
31 0 13 -4 24 -10 24 -5 0 -10 -15 -10 -34z"/>
<path d="M1065 1230 c-3 -5 2 -20 11 -33 14 -17 29 -23 66 -25 43 -2 48 0 54
22 8 34 -2 46 -37 46 -21 0 -32 -6 -37 -20 -7 -19 -9 -19 -27 -4 -17 13 -17
15 -2 10 9 -3 17 -1 17 4 0 13 -37 13 -45 0z m109 -16 c7 -17 0 -34 -14 -34
-11 0 -21 30 -14 41 8 14 21 11 28 -7z"/>
<path d="M1260 1205 c0 -33 2 -35 33 -35 32 0 33 1 29 35 -5 43 -22 47 -22 5
0 -16 -4 -30 -10 -30 -5 0 -10 14 -10 30 0 17 -4 30 -10 30 -5 0 -10 -16 -10
-35z"/>
<path d="M1386 1208 c1 -47 18 -50 22 -5 2 25 -1 37 -10 37 -8 0 -13 -12 -12
-32z"/>
<path d="M1434 1226 c-12 -31 0 -51 31 -51 27 0 30 3 30 30 0 25 -4 30 -28 33
-17 2 -29 -2 -33 -12z m44 -24 c2 -15 -2 -22 -12 -22 -11 0 -16 9 -16 26 0 31
23 28 28 -4z"/>
<path d="M1514 1206 c1 -45 26 -49 26 -5 0 17 4 28 10 24 6 -3 10 -20 10 -38
0 -22 3 -28 11 -20 6 6 9 23 7 39 -2 24 -8 30 -34 32 -29 3 -31 1 -30 -32z"/>
<path d="M4113 1198 c-11 -5 -29 -25 -39 -43 -11 -21 -23 -31 -34 -28 -14 4
-16 -4 -12 -64 1 -37 4 -74 5 -81 1 -7 23 19 48 58 40 59 44 70 28 70 -18 0
-19 2 -4 30 20 38 53 46 99 25 90 -43 74 -85 -86 -226 l-79 -70 -35 31 c-59
51 -84 42 -139 -55 -50 -87 -67 -95 -201 -95 -72 0 -95 -3 -92 -12 5 -14 150
-23 205 -13 44 8 86 45 122 109 17 30 35 57 41 61 6 4 26 -7 46 -24 19 -17 43
-31 53 -31 23 0 202 158 230 204 39 63 24 117 -42 147 -47 21 -81 23 -114 7z"/>
<path d="M1060 1180 c0 -5 5 -10 11 -10 5 0 7 5 4 10 -3 6 -8 10 -11 10 -2 0
-4 -4 -4 -10z"/>
<path d="M3658 1126 c22 -24 45 -53 51 -65 14 -26 28 -27 34 -3 4 13 5 13 6
-4 1 -27 -18 -44 -62 -51 -29 -4 -39 0 -66 26 -39 38 -61 39 -119 5 l-44 -26
-24 25 c-13 14 -32 28 -43 32 -29 9 -88 -22 -117 -61 -42 -54 -18 -60 36 -10
27 26 54 46 59 46 6 0 24 -13 41 -30 38 -37 49 -37 111 -3 l48 28 35 -34 c32
-31 39 -33 82 -28 82 9 127 65 88 108 -15 17 -16 22 -4 29 8 5 12 11 10 13 -6
5 -145 47 -155 47 -4 0 11 -20 33 -44z"/>
<path d="M5422 1145 c-42 -18 -68 -74 -51 -108 6 -12 19 -30 27 -40 14 -15 14
-20 1 -32 -8 -8 -32 -17 -54 -21 -50 -8 -72 -19 -85 -44 -14 -26 -3 -48 34
-67 37 -18 66 -43 66 -55 0 -11 -62 -38 -86 -38 -10 0 -14 5 -10 15 4 12 -3
15 -37 14 -23 0 -61 -4 -85 -7 l-42 -7 67 -35 68 -35 -60 -8 c-93 -14 -174 4
-290 62 -65 33 -103 47 -109 41 -13 -13 9 -29 100 -74 38 -20 103 -43 144 -52
65 -15 86 -15 179 -4 216 26 238 25 325 -9 140 -56 196 -52 196 12 0 24 -12
43 -47 80 -30 31 -43 51 -35 54 6 3 12 9 12 14 0 5 -6 9 -12 9 -7 0 -40 14
-72 30 -32 17 -62 30 -67 30 -6 0 70 -121 88 -140 2 -2 7 1 11 7 10 16 92 -62
92 -88 0 -29 -37 -24 -143 17 -90 35 -94 36 -194 30 -105 -6 -142 6 -55 18 59
8 94 37 90 74 -3 24 -19 39 -84 78 -29 17 -3 40 53 48 26 3 55 14 65 23 24 21
23 65 -2 88 -24 22 -25 43 -4 73 15 22 54 31 54 12 0 -5 7 -10 15 -10 22 0 18
37 -4 50 -24 12 -19 12 -59 -5z"/>
<path d="M4327 1018 c-8 -35 -17 -70 -19 -78 -2 -10 3 -14 15 -12 10 2 17 -3
17 -13 0 -9 11 -27 25 -40 37 -38 94 -33 226 16 l110 41 85 -15 c91 -17 96
-16 161 16 23 12 45 18 49 14 13 -12 16 -110 6 -155 -8 -35 -7 -44 4 -49 24
-9 28 3 32 97 7 138 -20 165 -116 116 l-48 -24 -95 15 -94 16 -90 -37 c-49
-20 -113 -40 -141 -43 -46 -5 -53 -3 -68 18 -21 31 -20 38 4 32 19 -5 18 -2
-5 58 -14 34 -25 69 -25 76 0 7 -4 13 -9 13 -4 0 -15 -28 -24 -62z"/>
<path d="M2490 995 c0 -3 18 -32 40 -64 77 -112 70 -150 -40 -215 -62 -37 -80
-52 -80 -70 0 -64 73 -63 226 4 117 51 180 68 210 56 14 -5 9 -12 -25 -34 -41
-26 -60 -60 -46 -81 3 -6 24 -11 45 -11 46 0 266 56 394 99 95 33 108 36 103
24 -1 -5 2 -9 6 -11 9 -3 123 96 116 101 -2 1 -38 -4 -79 -13 -49 -10 -75 -20
-75 -29 0 -16 -63 -40 -220 -85 -248 -70 -301 -74 -217 -13 29 20 52 41 52 47
0 5 -11 17 -25 26 -42 27 -118 13 -252 -47 -117 -51 -155 -61 -175 -41 -7 7
13 23 61 52 81 48 111 81 111 120 0 31 -50 133 -82 168 -19 20 -48 30 -48 17z"/>
<path d="M3427 743 c-8 -10 -25 -39 -36 -66 -14 -31 -29 -51 -46 -57 -38 -15
-47 -12 -40 10 3 11 4 20 2 20 -2 0 -30 -9 -62 -20 -32 -11 -66 -20 -77 -20
-10 0 -18 -4 -18 -10 0 -5 9 -10 20 -10 11 0 43 -9 72 -20 63 -24 72 -25 64
-5 -3 9 0 15 10 15 39 0 83 32 99 73 19 48 42 77 61 77 7 0 29 -23 50 -51 75
-102 177 -137 251 -86 32 21 44 47 22 47 -6 0 -22 -9 -36 -20 -59 -46 -143
-12 -217 89 -32 43 -43 51 -70 51 -19 0 -40 -8 -49 -17z"/>
<path d="M3918 716 c22 -24 45 -53 51 -65 14 -24 31 -28 31 -6 0 13 6 11 29
-6 31 -23 58 -23 120 2 31 13 34 13 48 -8 21 -31 40 -29 147 17 100 42 170 59
180 42 3 -6 -7 -15 -23 -20 -36 -13 -45 -45 -21 -75 17 -20 26 -22 112 -21 76
1 106 6 161 27 76 30 157 35 197 12 29 -17 60 -19 60 -5 0 5 -18 19 -40 30
-58 30 -137 27 -240 -10 -82 -29 -157 -37 -208 -24 -30 8 -25 36 8 44 28 7 39
42 20 66 -25 29 -101 14 -244 -48 l-68 -30 -23 22 c-26 24 -52 24 -111 -1 -28
-11 -36 -10 -58 4 -30 20 -34 37 -9 37 32 0 -1 17 -74 39 -39 11 -74 21 -78
21 -4 0 11 -20 33 -44z"/>
<path d="M600 520 c-18 -11 -4 -40 20 -40 13 0 20 7 20 19 0 22 -21 33 -40 21z"/>
<path d="M664 521 c-2 -2 4 -10 14 -18 9 -8 12 -12 5 -9 -6 4 -14 2 -18 -4 -4
-6 16 -10 54 -10 49 0 62 4 71 19 5 11 10 22 10 24 0 6 -130 4 -136 -2z m108
-23 c-7 -7 -12 -8 -12 -2 0 14 12 26 19 19 2 -3 -1 -11 -7 -17z"/>
<path d="M827 506 c6 -32 23 -34 24 -3 1 22 1 22 7 1 7 -20 14 -22 120 -23
103 -2 113 0 110 15 -3 15 -17 18 -108 20 -58 1 -117 5 -131 9 -24 6 -26 5
-22 -19z"/>
<path d="M1320 505 l0 -25 141 0 c128 0 140 2 137 17 -3 16 -17 18 -130 17
-70 0 -125 3 -122 8 3 4 -2 8 -10 8 -10 0 -16 -9 -16 -25z m37 -11 c-3 -3 -12
-4 -19 -1 -8 3 -5 6 6 6 11 1 17 -2 13 -5z"/>
<path d="M1111 495 c0 -11 3 -15 5 -8 4 9 15 7 39 -7 20 -11 37 -15 40 -10 4
6 26 10 50 10 29 0 45 5 49 15 6 17 6 17 -106 19 -72 1 -78 0 -77 -19z"/>
</g>
</svg>
