<?xml version="1.0" standalone="no"?>
<!DOCTYPE svg PUBLIC "-//W3C//DTD SVG 20010904//EN"
 "http://www.w3.org/TR/2001/REC-SVG-20010904/DTD/svg10.dtd">
<svg version="1.0" xmlns="http://www.w3.org/2000/svg"
 width="362.000000pt" height="157.000000pt" viewBox="0 0 362.000000 157.000000"
 preserveAspectRatio="xMidYMid meet">

<g transform="translate(0.000000,157.000000) scale(0.100000,-0.100000)"
fill="#000000" stroke="none">
<path d="M296 1433 c-3 -4 -6 -190 -6 -415 l0 -408 440 0 c384 0 440 2 440 15
0 13 -53 15 -420 15 l-420 0 0 394 c0 329 -2 395 -14 399 -8 3 -17 3 -20 0z"/>
<path d="M1422 1008 l3 -413 435 0 c406 0 435 1 438 18 3 16 -22 17 -417 17
l-421 0 -2 392 c-3 366 -4 393 -21 396 -16 3 -17 -20 -15 -410z"/>
<path d="M2627 1413 c-4 -3 -7 -185 -7 -403 0 -295 3 -399 12 -408 14 -14 844
-17 867 -3 43 27 -9 31 -420 31 l-419 0 0 395 c0 323 -2 395 -13 395 -8 0 -17
-3 -20 -7z"/>
<path d="M2837 1333 c-6 -10 9 -281 19 -338 17 -96 65 -156 170 -208 l52 -26
64 27 c82 35 111 54 143 96 40 52 62 122 80 246 1 8 8 53 14 99 8 55 9 87 3
93 -18 18 -29 0 -35 -54 -4 -29 -11 -82 -17 -118 -36 -229 -70 -282 -220 -335
-35 -12 -41 -11 -90 16 -73 40 -87 54 -109 113 -16 45 -36 200 -44 345 -2 41
-18 64 -30 44z"/>
<path d="M430 1301 c0 -4 22 -46 49 -92 26 -46 79 -138 118 -204 38 -66 72
-128 76 -138 4 -10 17 -17 31 -17 22 0 106 -19 227 -50 51 -14 69 -12 69 5 0
15 -12 19 -186 61 l-112 26 -118 209 c-83 146 -124 209 -136 209 -10 0 -18 -4
-18 -9z"/>
<path d="M2104 1253 c-8 -21 -31 -76 -51 -123 -19 -47 -45 -107 -57 -135 -13
-27 -31 -72 -42 -98 -10 -27 -26 -52 -34 -57 -8 -4 -62 -20 -118 -34 -121 -31
-149 -43 -133 -59 7 -7 31 -5 83 7 126 30 206 56 211 69 47 115 145 344 163
385 13 29 24 59 24 67 0 29 -30 14 -46 -22z"/>
<path d="M1213 1156 c3 -7 1 -18 -5 -24 -6 -6 -1 -9 17 -9 18 0 23 3 17 9 -6
6 -8 17 -5 24 3 9 -2 14 -12 14 -10 0 -15 -5 -12 -14z"/>
<path d="M1299 1161 c-1 -6 -2 -17 -3 -23 -1 -7 -5 -16 -11 -20 -6 -5 -5 -8 3
-8 6 0 12 -8 12 -17 1 -16 2 -16 15 1 15 20 15 20 16 0 0 -14 2 -15 6 -4 3 8
11 18 17 22 7 4 5 9 -4 12 -42 13 -44 14 -22 15 14 1 22 6 20 14 -6 15 -47 22
-49 8z"/>
<path d="M64 1137 c-1 -15 4 -23 15 -23 9 -1 24 -4 34 -9 14 -6 17 -2 17 25 0
28 -2 31 -15 20 -8 -7 -12 -17 -8 -23 4 -6 1 -7 -6 -3 -7 5 -10 14 -7 22 3 9
-1 14 -12 14 -11 0 -17 -8 -18 -23z"/>
<path d="M148 1132 c-4 -30 16 -62 26 -39 3 9 7 9 13 1 6 -9 11 -8 20 1 13 14
4 26 -27 38 -10 4 -7 6 8 6 33 1 27 21 -7 21 -24 0 -29 -5 -33 -28z"/>
<path d="M1256 1151 c-3 -4 -3 -18 -1 -31 4 -19 1 -21 -21 -16 -19 5 -25 3
-22 -6 3 -7 16 -14 29 -16 23 -3 25 1 27 38 3 39 -1 49 -12 31z"/>
<path d="M2413 1126 c0 -17 5 -24 17 -23 11 1 18 9 18 24 0 15 -6 23 -18 23
-12 0 -17 -8 -17 -24z"/>
<path d="M2498 1120 c-5 -36 7 -62 21 -41 7 11 9 11 14 0 4 -12 7 -11 16 1 16
23 13 30 -11 31 l-23 0 23 10 c28 11 20 29 -12 29 -19 0 -25 -7 -28 -30z"/>
<path d="M2458 1134 c-8 -8 3 -44 13 -44 5 0 9 11 9 25 0 24 -10 32 -22 19z"/>
<path d="M70 1090 c0 -5 14 -10 32 -10 36 0 35 4 -4 14 -17 4 -28 2 -28 -4z"/>
<path d="M2422 1079 c5 -17 48 -25 48 -10 0 6 -4 11 -9 11 -5 0 -17 3 -27 7
-12 4 -15 2 -12 -8z"/>
<path d="M64 985 c-11 -27 5 -65 26 -65 11 0 20 5 20 10 0 6 6 10 13 9 6 -1
20 1 30 6 12 5 24 1 37 -10 17 -16 20 -16 26 -2 9 23 1 60 -14 65 -11 3 -12 0
-3 -16 14 -25 14 -32 1 -32 -5 0 -12 11 -16 25 -8 32 -20 32 -38 -2 -13 -24
-15 -25 -16 -8 l-1 20 -9 -20 c-7 -17 -9 -17 -9 -2 -1 25 -21 21 -21 -5 0 -16
-3 -19 -11 -11 -8 8 -8 17 0 32 8 14 8 21 1 21 -6 0 -13 -7 -16 -15z"/>
<path d="M1207 993 c-4 -3 -7 -17 -7 -29 0 -26 41 -56 48 -35 2 6 11 11 21 11
9 0 22 5 28 11 9 9 16 8 28 -5 9 -9 21 -14 26 -11 12 8 11 52 -1 60 -7 4 -8
-3 -4 -21 5 -19 4 -25 -5 -20 -6 4 -11 13 -11 21 0 26 -23 28 -42 4 -11 -15
-16 -18 -12 -6 3 9 1 17 -5 17 -6 0 -12 -10 -12 -22 -1 -21 -2 -21 -6 -3 -7
28 -32 43 -46 28z m20 -40 c-3 -10 -5 -4 -5 12 0 17 2 24 5 18 2 -7 2 -21 0
-30z"/>
<path d="M2496 963 c-13 -24 -15 -25 -16 -8 -1 19 -1 19 -14 2 -14 -18 -14
-18 -19 0 -3 12 -5 8 -6 -10 -1 -17 -5 -26 -12 -21 -6 3 -8 17 -5 30 4 13 2
24 -3 24 -5 0 -11 -9 -14 -21 -6 -23 34 -72 41 -51 2 7 15 12 28 12 13 0 24 5
24 10 0 16 22 12 36 -7 9 -14 16 -15 24 -7 14 14 10 56 -6 61 -7 2 -10 -6 -7
-24 4 -27 3 -27 -11 5 -8 17 -17 32 -20 32 -3 0 -12 -12 -20 -27z"/>
<path d="M3007 523 c-3 -15 1 -23 9 -23 8 0 14 -8 14 -17 0 -15 2 -14 18 2 10
11 19 29 20 41 1 17 -4 21 -27 21 -23 0 -30 -6 -34 -24z"/>
<path d="M3088 520 c-4 -27 -2 -30 23 -30 15 0 30 -6 32 -12 3 -7 6 6 6 30 1
40 0 42 -28 42 -24 0 -29 -5 -33 -30z m49 -12 c-3 -7 -5 -2 -5 12 0 14 2 19 5
13 2 -7 2 -19 0 -25z"/>
<path d="M3281 512 c1 -37 1 -37 9 -7 6 25 8 27 14 13 5 -10 6 -25 2 -33 -3
-8 -1 -15 3 -15 29 0 17 62 -14 74 -12 4 -15 -2 -14 -32z"/>
<path d="M2918 533 c6 -2 12 -16 12 -29 0 -31 16 -23 22 11 5 22 2 25 -21 24
-14 0 -20 -3 -13 -6z"/>
<path d="M3176 533 c-9 -10 -7 -51 3 -57 15 -10 41 5 42 23 0 12 2 11 8 -4 l8
-20 5 20 c5 16 6 17 7 3 0 -10 6 -18 11 -18 15 0 12 40 -2 44 -31 10 -76 14
-82 9z m24 -30 c0 -20 -3 -24 -11 -16 -7 7 -9 19 -6 27 10 24 17 19 17 -11z"/>
<path d="M607 503 c-3 -15 1 -23 9 -23 8 0 14 -8 14 -17 0 -15 2 -14 18 2 10
11 19 29 20 41 1 17 -4 21 -27 21 -23 0 -30 -6 -34 -24z"/>
<path d="M690 500 c0 -25 4 -30 24 -30 13 0 27 -6 29 -12 3 -7 6 6 6 30 1 40
0 42 -29 42 -27 0 -30 -3 -30 -30z m47 -12 c-3 -7 -5 -2 -5 12 0 14 2 19 5 13
2 -7 2 -19 0 -25z"/>
<path d="M880 494 c0 -23 4 -33 11 -28 6 3 9 15 6 25 -3 11 -1 16 5 13 5 -4 8
-17 5 -30 -5 -27 8 -33 17 -8 7 19 -8 50 -29 58 -12 4 -15 -2 -15 -30z"/>
<path d="M518 513 c6 -2 12 -16 12 -29 0 -34 17 -30 22 6 4 27 2 30 -21 29
-14 0 -20 -3 -13 -6z"/>
<path d="M776 513 c-9 -10 -7 -51 3 -57 15 -10 41 5 42 23 0 12 2 11 8 -4 8
-19 9 -18 13 5 5 23 5 23 7 3 0 -13 6 -23 11 -23 15 0 12 40 -2 44 -31 10 -76
14 -82 9z m24 -30 c0 -20 -3 -24 -11 -16 -7 7 -9 19 -6 27 10 24 17 19 17 -11z"/>
<path d="M1758 490 c-3 -20 0 -30 8 -30 7 0 15 -8 17 -17 4 -17 5 -17 6 0 0 9
7 17 15 17 9 0 12 8 8 25 -2 14 -8 22 -14 19 -5 -3 -15 -1 -22 5 -11 9 -15 5
-18 -19z"/>
<path d="M1838 480 c-4 -27 -2 -30 23 -30 15 0 30 -6 32 -12 3 -7 6 6 6 30 1
40 0 42 -28 42 -24 0 -29 -5 -33 -30z m49 -2 c-3 -8 -6 -5 -6 6 -1 11 2 17 5
13 3 -3 4 -12 1 -19z"/>
<path d="M2031 473 c1 -37 2 -37 8 -8 4 20 9 26 14 17 5 -7 5 -22 2 -33 -5
-15 -4 -19 4 -15 18 12 13 54 -9 66 -18 10 -20 8 -19 -27z"/>
<path d="M1666 492 c7 -4 14 -18 17 -32 l4 -25 2 27 c0 14 7 29 14 31 6 3 -1
6 -18 6 -16 0 -25 -3 -19 -7z"/>
<path d="M1921 481 c-7 -13 -6 -23 3 -36 15 -20 36 -13 36 13 1 14 2 14 12 -3
12 -19 12 -19 19 5 7 24 7 24 8 3 1 -13 6 -23 12 -23 6 0 9 10 7 23 -2 17 -11
23 -35 25 -30 3 -33 1 -33 -23 0 -16 -4 -24 -11 -19 -6 3 -8 17 -5 30 8 29 1
31 -13 5z"/>
<path d="M1816 308 c-4 -10 -6 -56 -5 -102 4 -81 3 -85 -18 -91 -13 -3 -23
-12 -23 -20 0 -17 16 -20 25 -4 4 6 13 8 20 5 8 -3 32 4 54 15 39 19 41 22 41
65 l0 46 -37 -4 -38 -3 -5 55 c-4 39 -8 50 -14 38z m74 -137 c0 -26 -14 -41
-41 -41 -10 0 -12 53 -2 63 3 4 15 7 25 7 13 0 18 -8 18 -29z"/>
<path d="M641 296 c-7 -8 -11 -32 -9 -53 3 -35 6 -38 36 -41 21 -2 41 3 51 12
20 18 31 12 31 -16 0 -10 6 -18 14 -18 12 0 13 6 4 33 -5 17 -12 41 -15 52
-12 50 -14 51 -29 31 -13 -18 -15 -18 -32 -3 -23 21 -36 21 -51 3z m57 -35
c19 -10 21 -15 11 -27 -6 -8 -22 -14 -35 -14 -20 0 -24 5 -24 28 0 31 10 48
19 34 3 -5 16 -14 29 -21z"/>
<path d="M3062 268 c-12 -12 -16 -95 -6 -122 5 -12 21 -16 66 -16 64 0 98 12
98 35 0 19 -14 19 -30 0 -10 -12 -28 -15 -64 -13 l-51 3 0 50 0 50 48 3 c26 2
47 7 47 13 0 13 -94 11 -108 -3z"/>
</g>
</svg>
