<?xml version="1.0" standalone="no"?>
<!DOCTYPE svg PUBLIC "-//W3C//DTD SVG 20010904//EN"
 "http://www.w3.org/TR/2001/REC-SVG-20010904/DTD/svg10.dtd">
<svg version="1.0" xmlns="http://www.w3.org/2000/svg"
 width="458.000000pt" height="607.000000pt" viewBox="0 0 458.000000 607.000000"
 preserveAspectRatio="xMidYMid meet">

<g transform="translate(0.000000,607.000000) scale(0.100000,-0.100000)"
fill="" stroke="none">
<path d="M3915 5904 c-246 -187 -322 -242 -525 -379 -117 -79 -168 -112 -318
-207 -15 -9 -38 -23 -52 -31 -35 -19 -82 -47 -170 -99 -41 -24 -104 -60 -140
-80 -36 -20 -92 -50 -125 -68 -163 -90 -398 -205 -555 -274 -96 -43 -190 -84
-207 -92 -60 -27 -373 -143 -442 -164 -75 -22 -151 -26 -182 -9 -11 5 -24 21
-29 35 -6 14 -14 23 -20 19 -14 -9 4 -47 33 -69 31 -23 101 -23 189 -1 78 21
421 149 558 210 58 25 128 56 155 68 70 30 358 174 490 245 150 80 221 120
360 203 50 30 98 58 107 64 112 66 486 313 603 399 291 215 366 276 337 276
-4 0 -34 -21 -67 -46z"/>
<path d="M883 5760 c-11 -16 -10 -18 2 -14 8 4 15 12 15 20 0 19 -3 18 -17 -6z"/>
<path d="M714 5746 c-3 -8 -4 -23 -2 -33 3 -11 6 -6 9 15 6 34 2 42 -7 18z"/>
<path d="M996 5708 c-3 -29 -8 -484 -10 -1010 l-6 -958 133 0 c407 0 2797 65
2897 78 54 7 55 8 55 40 1 18 -3 38 -7 45 -4 7 -8 -7 -8 -30 0 -42 -1 -43 -32
-43 -18 0 -222 -7 -453 -15 -231 -8 -450 -15 -487 -15 l-67 0 -4 38 -4 37 -1
-37 -2 -36 -82 -6 c-77 -5 -765 -26 -871 -26 -46 0 -46 0 -50 38 l-4 37 -1
-36 -2 -37 -182 -6 c-101 -3 -325 -7 -498 -8 l-315 -3 -4 25 c-2 14 0 125 4
247 l7 222 37 4 36 4 -38 1 -37 2 2 248 3 247 35 6 35 6 -38 2 -37 1 2 243 3
242 35 6 35 6 -37 2 -38 1 0 128 c0 70 3 177 7 239 l6 112 31 4 c29 4 29 4 -6
5 l-37 2 -5 -52z"/>
<path d="M769 5722 c-3 -20 -2 -29 4 -23 5 5 7 19 5 32 -3 20 -5 19 -9 -9z"/>
<path d="M887 5714 c-8 -8 3 -34 14 -34 5 0 9 9 9 20 0 19 -11 26 -23 14z"/>
<path d="M760 5247 c4 -41 5 -41 8 -8 2 18 0 37 -5 42 -5 5 -6 -11 -3 -34z"/>
<path d="M850 5279 c0 -5 5 -7 10 -4 6 3 10 8 10 11 0 2 -4 4 -10 4 -5 0 -10
-5 -10 -11z"/>
<path d="M894 5265 c-9 -18 -9 -25 0 -28 8 -3 8 -10 -1 -25 -11 -18 -10 -20 1
-16 9 4 14 21 14 50 -1 24 -2 44 -2 44 -1 0 -6 -11 -12 -25z"/>
<path d="M700 5244 c0 -10 5 -26 10 -34 8 -11 9 -7 4 15 -8 37 -14 45 -14 19z"/>
<path d="M790 5179 c0 -5 5 -7 10 -4 6 3 10 8 10 11 0 2 -4 4 -10 4 -5 0 -10
-5 -10 -11z"/>
<path d="M549 5128 c-6 -44 5 -87 12 -48 3 14 2 39 -1 55 l-6 30 -5 -37z"/>
<path d="M460 5110 c0 -24 4 -30 22 -30 21 0 21 1 3 14 -11 8 -16 19 -12 30 4
9 2 16 -3 16 -6 0 -10 -13 -10 -30z"/>
<path d="M491 5044 c0 -11 3 -14 6 -6 3 7 2 16 -1 19 -3 4 -6 -2 -5 -13z"/>
<path d="M470 4993 c0 -4 5 -15 10 -23 8 -13 10 -13 10 2 0 9 -4 20 -10 23 -5
3 -10 3 -10 -2z"/>
<path d="M506 4945 c4 -8 10 -15 16 -15 5 0 7 4 3 9 -3 5 5 12 17 14 17 3 15
5 -9 6 -25 1 -31 -2 -27 -14z"/>
<path d="M458 4923 c7 -3 16 -2 19 1 4 3 -2 6 -13 5 -11 0 -14 -3 -6 -6z"/>
<path d="M487 4894 c3 -9 0 -20 -8 -25 -11 -7 -9 -9 7 -9 17 0 22 6 20 25 0
14 -6 25 -13 25 -7 0 -10 -7 -6 -16z"/>
<path d="M525 4885 c0 -19 5 -25 20 -24 11 0 14 3 8 6 -7 2 -13 11 -13 18 0 7
6 16 13 18 6 3 3 6 -8 6 -15 1 -20 -5 -20 -24z"/>
<path d="M558 4793 c5 -83 9 -90 11 -20 0 37 -2 67 -7 67 -4 0 -6 -21 -4 -47z"/>
<path d="M465 4804 c-25 -19 -9 -49 26 -49 27 0 37 28 19 50 -15 18 -20 18
-45 -1z m45 -24 c0 -13 -7 -20 -19 -20 -22 0 -35 15 -26 30 12 19 45 11 45
-10z"/>
<path d="M851 4776 c-7 -8 -8 -17 -3 -20 6 -3 12 3 15 14 6 24 4 25 -12 6z"/>
<path d="M889 4776 c10 -11 6 -21 -19 -49 -18 -21 -26 -38 -20 -42 5 -3 10 -1
10 6 0 7 12 25 26 40 26 27 28 59 3 59 -9 0 -9 -4 0 -14z"/>
<path d="M699 4753 c-8 -25 10 -65 31 -71 11 -3 11 -1 -2 9 -9 8 -18 30 -20
49 -2 28 -4 31 -9 13z"/>
<path d="M761 4743 c-1 -6 -4 -20 -7 -30 -5 -17 -5 -17 6 0 6 10 9 23 6 30 -3
9 -5 9 -5 0z"/>
<path d="M895 4700 c-3 -5 -1 -10 4 -10 6 0 11 5 11 10 0 6 -2 10 -4 10 -3 0
-8 -4 -11 -10z"/>
<path d="M295 4561 c0 -43 3 -57 13 -54 6 3 12 16 12 29 0 19 5 24 26 24 23 0
26 -3 22 -25 -4 -17 -1 -25 8 -25 10 0 14 15 14 55 0 40 -4 55 -14 55 -9 0
-12 -8 -8 -25 4 -22 1 -25 -23 -25 -24 0 -27 3 -23 25 4 18 1 25 -11 25 -13 0
-16 -11 -16 -59z"/>
<path d="M495 4535 c0 -19 5 -35 11 -35 6 0 9 10 7 24 -6 28 12 42 32 26 11
-9 15 -9 15 -1 0 6 7 11 16 11 12 0 15 -7 12 -30 -3 -19 0 -30 7 -30 9 0 10
10 6 33 -6 30 -9 32 -56 35 l-50 3 0 -36z"/>
<path d="M625 4535 c0 -20 5 -35 12 -35 6 0 9 9 6 20 -3 11 0 27 7 35 10 12 9
15 -6 15 -15 0 -19 -7 -19 -35z"/>
<path d="M674 4536 c0 -41 12 -39 18 4 3 18 0 30 -7 30 -6 0 -11 -15 -11 -34z"/>
<path d="M715 4534 c0 -19 3 -34 8 -34 4 0 7 13 7 29 0 17 -3 32 -7 34 -5 3
-8 -10 -8 -29z"/>
<path d="M540 4515 c0 -8 5 -15 10 -15 6 0 10 7 10 15 0 8 -4 15 -10 15 -5 0
-10 -7 -10 -15z"/>
<path d="M3966 4402 c-2 -4 -1 -14 5 -22 7 -12 9 -10 9 8 0 23 -5 28 -14 14z"/>
<path d="M3700 4345 c0 -30 5 -55 10 -55 6 0 10 22 10 49 0 39 4 51 18 54 10
3 6 5 -10 6 -27 1 -28 0 -28 -54z"/>
<path d="M3800 4345 l0 -55 40 0 c35 0 40 3 40 23 -1 20 -2 20 -11 5 -5 -10
-19 -18 -30 -18 -19 0 -21 5 -17 50 2 35 -1 50 -9 50 -9 0 -13 -18 -13 -55z"/>
<path d="M3900 4381 c-5 -11 -10 -28 -10 -39 0 -24 34 -56 52 -49 9 4 7 6 -4
6 -27 1 -41 37 -29 72 11 33 7 38 -9 10z"/>
<path d="M3575 4335 c0 -48 3 -55 20 -55 15 0 16 3 7 12 -17 17 -15 38 5 38
15 0 15 1 -2 14 -11 8 -16 19 -12 30 4 9 1 16 -6 16 -8 0 -12 -18 -12 -55z"/>
<path d="M3649 4373 c0 -10 -1 -35 -2 -56 -1 -20 3 -37 8 -37 6 0 10 25 10 55
0 30 -3 55 -7 55 -5 0 -8 -8 -9 -17z"/>
<path d="M3765 4380 c4 -6 1 -18 -7 -27 -11 -14 -11 -16 2 -11 18 5 27 48 10
48 -6 0 -8 -5 -5 -10z"/>
<path d="M733 4279 c20 -12 23 -68 5 -89 -11 -12 -10 -12 5 -1 31 24 17 102
-17 101 -6 0 -3 -5 7 -11z"/>
<path d="M696 4264 c-11 -29 -6 -61 12 -75 15 -13 16 -12 3 4 -9 11 -12 30 -8
52 6 37 3 45 -7 19z"/>
<path d="M858 4239 c3 -28 0 -44 -9 -50 -11 -7 -9 -9 6 -9 18 0 20 5 17 50 -2
27 -7 50 -11 50 -3 0 -5 -19 -3 -41z"/>
<path d="M780 4170 c0 -5 5 -10 10 -10 6 0 10 5 10 10 0 6 -4 10 -10 10 -5 0
-10 -4 -10 -10z"/>
<path d="M4103 3753 c9 -2 23 -2 30 0 6 3 -1 5 -18 5 -16 0 -22 -2 -12 -5z"/>
<path d="M3958 3700 c3 -37 8 -50 19 -50 12 0 13 3 3 15 -6 8 -9 19 -6 24 8
12 -3 61 -13 61 -3 0 -4 -22 -3 -50z"/>
<path d="M4081 3728 c-1 -13 7 -18 23 -18 30 0 40 -24 20 -45 -9 -8 -11 -15
-6 -15 18 0 34 29 27 50 -4 13 -15 20 -30 20 -13 0 -26 6 -28 13 -3 7 -6 5 -6
-5z"/>
<path d="M3018 3705 c-17 -38 0 -80 32 -80 18 0 27 8 34 27 13 36 -6 78 -34
78 -12 0 -25 -10 -32 -25z m56 -11 c9 -36 -2 -64 -25 -64 -16 0 -19 7 -19 45
0 37 3 45 19 45 12 0 21 -9 25 -26z"/>
<path d="M2894 3711 c3 -5 7 -29 7 -54 2 -28 6 -44 13 -41 17 7 7 104 -11 104
-8 0 -12 -4 -9 -9z"/>
<path d="M1868 3675 c-14 -31 0 -79 22 -81 9 0 10 1 3 3 -8 3 -13 22 -13 49 0
37 3 44 20 44 17 0 20 -7 21 -42 0 -36 2 -40 10 -23 7 14 7 30 0 48 -14 35
-47 36 -63 2z"/>
<path d="M2021 3673 c1 -23 2 -24 6 -6 2 12 12 24 21 26 12 3 10 5 -5 6 -19 1
-23 -4 -22 -26z"/>
<path d="M944 3664 c-22 -33 -9 -78 24 -82 29 -4 47 39 32 77 l-10 26 5 -25
c7 -38 -5 -70 -25 -70 -33 0 -32 80 2 93 9 4 10 6 1 6 -7 1 -20 -11 -29 -25z"/>
<path d="M4080 3671 c0 -6 4 -12 8 -15 5 -3 9 1 9 9 0 8 -4 15 -9 15 -4 0 -8
-4 -8 -9z"/>
<path d="M2057 3639 c4 -15 0 -27 -12 -35 -16 -12 -17 -14 -2 -14 20 0 39 33
31 54 -9 24 -23 19 -17 -5z"/>
<path d="M4020 3640 c0 -5 5 -10 11 -10 5 0 7 5 4 10 -3 6 -8 10 -11 10 -2 0
-4 -4 -4 -10z"/>
<path d="M2010 3614 c0 -8 5 -12 10 -9 6 3 10 10 10 16 0 5 -4 9 -10 9 -5 0
-10 -7 -10 -16z"/>
<path d="M2960 3610 c0 -5 5 -10 11 -10 5 0 7 5 4 10 -3 6 -8 10 -11 10 -2 0
-4 -4 -4 -10z"/>
<path d="M1955 3580 c3 -5 8 -10 11 -10 2 0 4 5 4 10 0 6 -5 10 -11 10 -5 0
-7 -4 -4 -10z"/>
<path d="M2810 3408 c0 -9 -10 -24 -22 -32 -26 -19 -17 -22 11 -4 15 9 26 9
47 0 14 -7 29 -10 32 -8 3 3 -4 9 -14 12 -10 4 -27 16 -36 28 -15 18 -18 18
-18 4z"/>
<path d="M3433 3358 c-12 -35 -20 -64 -18 -66 5 -5 46 109 43 119 -2 5 -13
-19 -25 -53z"/>
<path d="M2239 3357 c2 -29 6 -45 9 -37 2 8 11 21 20 28 14 11 14 12 -1 12
-10 0 -17 8 -17 19 0 11 -3 22 -7 24 -5 3 -6 -18 -4 -46z"/>
<path d="M2598 3403 c16 -3 22 -10 18 -19 -3 -9 -1 -12 4 -9 21 13 10 35 -17
34 -25 -2 -26 -2 -5 -6z"/>
<path d="M2964 3403 c-38 -4 -40 -5 -36 -33 3 -21 10 -30 22 -30 11 0 20 -9
23 -22 4 -23 4 -23 6 -1 1 14 9 23 24 26 12 2 3 5 -20 6 -36 1 -43 4 -43 21 0
17 7 20 40 20 22 0 40 5 40 10 0 6 -3 9 -7 8 -5 -1 -26 -3 -49 -5z"/>
<path d="M1939 3386 c7 -8 10 -33 8 -58 -2 -23 -1 -52 4 -63 5 -13 8 9 8 58 1
65 -2 77 -15 77 -13 0 -14 -3 -5 -14z"/>
<path d="M2043 3393 c-25 -3 -33 -9 -33 -24 0 -10 5 -19 11 -19 6 0 9 7 5 15
-4 12 3 15 29 15 18 0 37 5 40 10 3 6 0 9 -7 8 -7 0 -28 -3 -45 -5z"/>
<path d="M2423 3393 c9 -2 23 -2 30 0 6 3 -1 5 -18 5 -16 0 -22 -2 -12 -5z"/>
<path d="M2162 3352 c-13 -20 -17 -30 -8 -23 9 8 24 10 38 5 19 -6 21 -4 11 7
-6 8 -12 21 -14 30 -3 12 -11 6 -27 -19z"/>
<path d="M1856 3361 c-21 -24 -20 -48 3 -56 45 -14 72 37 32 62 -15 10 -22 9
-35 -6z m42 -24 c4 -20 -25 -34 -39 -20 -14 14 1 45 20 41 9 -2 17 -11 19 -21z"/>
<path d="M2398 3373 c19 -4 21 -7 11 -19 -17 -20 -3 -44 26 -44 32 0 45 28 21
46 -16 11 -15 13 11 17 15 2 1 4 -32 4 -33 0 -50 -2 -37 -4z m57 -32 c3 -5 1
-13 -5 -16 -15 -9 -43 3 -35 15 8 13 32 13 40 1z"/>
<path d="M2546 3365 c4 -11 19 -15 53 -13 l46 1 -45 6 c-37 6 -40 8 -20 13 22
5 22 5 -7 7 -25 1 -31 -2 -27 -14z"/>
<path d="M3497 3373 c-15 -14 -6 -33 18 -39 14 -3 22 -11 19 -16 -3 -5 -18 -7
-33 -3 -20 5 -23 4 -14 -6 13 -13 63 -4 63 11 0 6 -11 16 -25 22 -27 12 -32
24 -12 31 6 3 7 6 1 6 -6 1 -14 -2 -17 -6z"/>
<path d="M2810 3358 c0 -11 -10 -18 -32 -21 -18 -2 1 -4 42 -4 41 0 62 2 45 4
-16 3 -35 12 -42 21 -11 16 -12 16 -13 0z"/>
<path d="M3201 3348 c-16 -43 20 -73 48 -41 15 16 15 16 -1 4 -22 -16 -38 -6
-38 25 0 15 6 24 15 24 8 0 15 -5 15 -11 0 -5 5 -7 10 -4 15 9 2 25 -21 25
-11 0 -23 -10 -28 -22z"/>
<path d="M3282 3335 c-1 -19 3 -35 8 -35 6 0 10 14 10 30 0 20 5 30 15 30 10
0 15 -10 15 -30 0 -16 4 -30 8 -30 4 0 8 12 7 27 0 19 6 29 19 31 16 3 18 -1
14 -27 -3 -20 0 -31 7 -31 9 0 10 10 6 33 -6 30 -9 32 -57 35 l-51 3 -1 -36z"/>
<path d="M2057 3353 c-9 -2 -15 -9 -12 -14 4 -5 -11 -9 -31 -9 -21 0 -34 -4
-28 -8 5 -4 41 -6 79 -3 63 4 66 5 30 11 -39 6 -39 7 -15 18 25 11 11 14 -23
5z"/>
<path d="M2628 3333 c6 -2 18 -2 25 0 6 3 1 5 -13 5 -14 0 -19 -2 -12 -5z"/>
<path d="M2528 3323 c6 -2 18 -2 25 0 6 3 1 5 -13 5 -14 0 -19 -2 -12 -5z"/>
<path d="M2850 3296 c0 -31 6 -34 13 -6 3 11 1 23 -4 26 -5 3 -9 -6 -9 -20z"/>
<path d="M2030 3295 c-18 -21 -5 -45 25 -45 33 0 45 28 20 46 -24 18 -30 17
-45 -1z m41 -28 c-5 -5 -17 -7 -26 -3 -14 5 -15 9 -5 21 10 12 16 13 27 4 9
-8 10 -16 4 -22z"/>
<path d="M2195 3296 c-17 -12 -17 -16 -5 -30 7 -10 23 -16 34 -14 24 4 34 37
14 49 -18 12 -21 11 -43 -5z m40 -17 c0 -7 -8 -15 -17 -17 -18 -3 -25 18 -11
32 10 10 28 1 28 -15z"/>
<path d="M2548 3284 c4 -22 9 -25 41 -22 29 2 37 8 39 26 3 20 -1 22 -41 22
-42 0 -44 -1 -39 -26z m72 0 c0 -11 -8 -14 -27 -12 -39 4 -42 28 -4 28 21 0
31 -5 31 -16z"/>
<path d="M2783 3303 c9 -2 23 -2 30 0 6 3 -1 5 -18 5 -16 0 -22 -2 -12 -5z"/>
<path d="M3018 3303 c6 -2 18 -2 25 0 6 3 1 5 -13 5 -14 0 -19 -2 -12 -5z"/>
<path d="M2420 3290 l-65 -7 73 -1 c42 -1 72 2 72 8 0 6 -3 9 -7 8 -5 -1 -37
-4 -73 -8z"/>
<path d="M2913 3293 c9 -2 23 -2 30 0 6 3 -1 5 -18 5 -16 0 -22 -2 -12 -5z"/>
<path d="M3060 3291 c0 -6 5 -13 10 -16 6 -3 10 1 10 9 0 9 -4 16 -10 16 -5 0
-10 -4 -10 -9z"/>
<path d="M2390 3081 c-16 -30 -12 -87 7 -102 15 -13 15 -12 5 8 -15 27 -15 68
-2 94 6 10 8 19 6 19 -3 0 -10 -9 -16 -19z"/>
<path d="M2529 3083 c6 -12 11 -34 11 -48 0 -14 -5 -36 -11 -48 -10 -21 -10
-21 5 -3 9 11 16 34 16 51 0 17 -7 40 -16 51 -15 18 -15 18 -5 -3z"/>
<path d="M2665 3040 c0 -33 3 -60 8 -60 4 0 7 14 7 30 0 26 4 30 26 30 23 0
26 -3 22 -25 -3 -15 -1 -25 6 -25 7 0 11 21 11 55 0 34 -4 55 -11 55 -7 0 -9
-10 -6 -25 4 -22 1 -25 -23 -25 -24 0 -27 3 -23 25 3 15 1 25 -6 25 -7 0 -11
-23 -11 -60z"/>
<path d="M2775 3045 c0 -39 4 -55 13 -55 7 0 12 8 11 18 -5 56 1 82 21 82 22
0 28 -35 8 -43 -8 -4 -7 -6 3 -6 22 -1 33 28 18 45 -6 8 -26 14 -43 14 -31 0
-31 0 -31 -55z"/>
<path d="M2875 3045 l0 -55 38 0 c20 0 37 4 37 8 0 5 -14 6 -31 4 l-31 -5 3
52 c3 30 0 51 -6 51 -5 0 -10 -25 -10 -55z"/>
<path d="M2976 3078 c-21 -29 -20 -51 2 -71 26 -24 59 -21 72 6 10 20 10 21
-4 4 -8 -11 -24 -17 -38 -15 -20 3 -23 9 -23 43 0 35 3 40 24 43 13 2 28 -2
32 -10 7 -10 9 -9 9 5 0 26 -55 23 -74 -5z"/>
<path d="M2440 3045 c-9 -10 -9 -15 -1 -15 6 0 11 5 11 10 0 6 7 10 15 10 8 0
15 -4 15 -10 0 -5 -6 -10 -12 -10 -10 0 -9 -3 1 -9 16 -11 6 -31 -16 -31 -10
0 -13 6 -9 16 3 8 2 12 -4 9 -6 -3 -10 -13 -10 -21 0 -10 10 -13 35 -11 35 2
37 8 19 65 -5 17 -29 15 -44 -3z"/>
<path d="M665 2572 c-11 -12 -3 -17 25 -16 28 1 54 12 34 15 -36 5 -54 6 -59
1z"/>
<path d="M821 2566 c-18 -21 -10 -87 12 -100 15 -9 21 -7 33 8 38 52 -5 140
-45 92z m45 -21 c9 -38 -3 -77 -24 -73 -17 3 -29 56 -18 84 9 23 35 16 42 -11z"/>
<path d="M956 2478 c-3 -35 -8 -182 -11 -329 -5 -262 -18 -671 -31 -1007 l-7
-173 619 6 c569 7 1636 -5 2687 -30 l197 -4 -2 52 -1 52 -6 -45 c-3 -25 -9
-44 -13 -42 -5 1 -102 2 -218 2 l-210 0 0 45 c0 25 -5 45 -11 45 -6 0 -9 -17
-7 -42 l3 -43 -52 0 c-29 1 -127 2 -218 3 l-165 2 0 46 c0 29 -4 43 -11 39 -6
-4 -9 -22 -7 -40 1 -19 0 -36 -2 -39 -3 -2 -97 -1 -210 2 l-205 7 -6 45 -6 45
-1 -49 -2 -49 -142 6 c-79 4 -171 7 -205 7 l-63 0 0 34 c0 19 -4 38 -10 41 -6
4 -10 -10 -10 -34 l0 -41 -205 0 -205 0 0 40 c0 22 -5 40 -11 40 -6 0 -9 -15
-7 -37 l3 -38 -203 -3 -202 -2 0 39 c0 22 -4 43 -10 46 -6 4 -10 -12 -10 -39
l0 -46 -204 0 -205 0 -4 42 -4 43 -1 -42 -2 -43 -162 0 c-90 0 -187 -3 -215
-6 l-53 -7 0 132 0 131 40 0 c22 0 40 5 40 10 0 7 -13 8 -34 5 -19 -4 -36 -2
-40 3 -3 6 -3 62 0 126 l7 116 39 0 c24 0 37 4 33 10 -3 6 -22 10 -42 10 l-36
0 6 83 c4 45 7 99 7 120 0 37 0 37 41 37 24 0 38 4 34 10 -3 6 -22 10 -41 10
l-34 0 0 108 c0 59 4 112 8 119 4 6 23 13 42 16 l35 4 -37 1 -38 2 0 120 0
120 41 0 c24 0 38 4 34 10 -3 5 -21 9 -38 7 -36 -2 -33 -17 -29 153 l2 80 35
0 c19 0 35 5 35 10 0 6 -18 10 -39 10 l-39 0 -6 -62z"/>
<path d="M690 2504 c-12 -32 -13 -47 -1 -40 8 6 21 66 14 66 -2 0 -8 -12 -13
-26z"/>
<path d="M750 2449 c0 -5 5 -7 10 -4 6 3 10 8 10 11 0 2 -4 4 -10 4 -5 0 -10
-5 -10 -11z"/>
<path d="M4220 2336 c-41 -17 -79 -34 -85 -37 -5 -4 -28 -12 -50 -19 -22 -7
-44 -16 -50 -20 -5 -4 -39 -17 -75 -30 -36 -13 -69 -26 -75 -30 -5 -4 -21 -11
-35 -15 -14 -4 -38 -13 -55 -20 -16 -8 -133 -54 -260 -104 -126 -51 -239 -96
-250 -101 -11 -5 -63 -26 -115 -46 -52 -20 -117 -47 -145 -59 -27 -12 -61 -26
-75 -30 -25 -7 -118 -45 -175 -70 -16 -8 -77 -33 -135 -56 -58 -23 -123 -50
-146 -60 -22 -11 -44 -19 -48 -19 -4 0 -32 -11 -62 -25 -30 -14 -58 -25 -62
-25 -4 -1 -25 -9 -47 -20 -22 -11 -43 -19 -47 -20 -4 0 -31 -11 -60 -24 -29
-13 -62 -26 -73 -29 -44 -13 -187 -21 -312 -19 -294 5 -481 92 -566 264 -20
40 -37 88 -39 106 -2 35 -12 49 -22 33 -10 -15 12 -101 40 -156 42 -87 112
-149 224 -202 98 -46 196 -65 355 -69 245 -5 325 11 540 106 22 10 99 41 170
70 72 29 155 63 185 76 30 12 91 37 135 54 44 17 93 37 110 45 16 8 82 34 145
59 101 39 160 63 235 96 11 5 63 25 115 45 52 21 109 43 125 50 17 7 129 52
250 100 121 48 234 93 250 101 17 7 90 36 162 65 73 28 130 56 127 60 -8 13
-21 10 -104 -25z"/>
<path d="M670 2310 c-35 -35 -16 -107 26 -98 29 5 27 62 -3 66 -26 4 -31 27
-8 36 8 3 15 1 15 -4 0 -6 5 -10 10 -10 16 0 12 17 -5 24 -9 3 -24 -3 -35 -14z
m40 -60 c0 -24 -29 -38 -40 -20 -12 19 -1 40 21 40 12 0 19 -7 19 -20z"/>
<path d="M816 2308 c-20 -28 -20 -58 -2 -84 33 -43 83 33 52 80 -20 32 -30 32
-50 4z m45 -15 c12 -32 -2 -73 -26 -73 -20 0 -30 46 -16 76 14 32 29 30 42 -3z"/>
<path d="M740 2200 c0 -5 5 -10 10 -10 6 0 10 5 10 10 0 6 -4 10 -10 10 -5 0
-10 -4 -10 -10z"/>
<path d="M348 2129 c5 -35 -8 -49 -50 -49 -21 0 -28 5 -28 20 0 15 7 20 25 20
14 0 25 5 25 11 0 6 -7 8 -16 5 -9 -3 -24 -6 -34 -6 -14 0 -17 -7 -15 -32 3
-35 13 -39 67 -25 22 6 27 3 31 -15 4 -20 4 -19 6 5 1 21 6 27 24 28 20 1 21
1 2 7 -13 5 -20 16 -20 31 0 13 -5 26 -11 28 -7 2 -9 -8 -6 -28z"/>
<path d="M657 2063 c-4 -3 -7 -16 -7 -29 0 -17 4 -21 20 -17 24 6 37 -21 20
-42 -16 -19 -30 -19 -30 0 0 8 -4 15 -10 15 -15 0 -12 -16 4 -29 22 -18 56 3
56 34 0 18 -7 26 -25 31 -32 8 -32 18 3 31 l27 11 -26 1 c-14 1 -29 -2 -32 -6z"/>
<path d="M800 2044 c-10 -26 -4 -70 11 -80 5 -3 5 6 -1 20 -12 31 3 76 25 76
20 0 30 -46 16 -78 -11 -25 -10 -26 4 -8 18 24 20 67 3 84 -20 20 -48 14 -58
-14z"/>
<path d="M279 2028 c6 -18 17 -24 50 -26 22 -2 41 1 41 7 0 6 -15 7 -35 4 -31
-5 -35 -3 -35 16 0 12 -6 21 -15 21 -11 0 -12 -6 -6 -22z"/>
<path d="M264 1964 c3 -9 6 -20 6 -25 0 -5 4 -9 9 -9 4 0 6 11 3 25 -2 14 -9
25 -14 25 -6 0 -7 -7 -4 -16z"/>
<path d="M735 1950 c-3 -5 -1 -10 4 -10 6 0 11 5 11 10 0 6 -2 10 -4 10 -3 0
-8 -4 -11 -10z"/>
<path d="M309 1933 c-1 -5 -1 -11 0 -15 0 -5 -18 -8 -41 -8 -24 0 -38 -4 -33
-9 6 -5 44 -5 85 -1 41 4 58 8 38 9 -42 1 -51 17 -15 24 19 4 18 4 -5 6 -16 0
-29 -2 -29 -6z"/>
<path d="M268 1873 c6 -2 12 -11 12 -18 0 -7 -6 -15 -12 -18 -30 -10 2 -15 47
-8 28 5 44 9 38 10 -7 0 -13 7 -13 15 0 8 6 17 13 19 6 3 -13 5 -43 5 -30 0
-49 -2 -42 -5z m52 -18 c0 -8 -4 -15 -9 -15 -5 0 -11 7 -15 15 -3 9 0 15 9 15
8 0 15 -7 15 -15z"/>
<path d="M805 1804 c-20 -21 -17 -95 5 -102 12 -4 13 -2 3 9 -16 16 -17 71 -2
86 6 6 18 9 25 6 18 -7 19 -74 2 -93 -11 -12 -10 -12 5 -1 25 19 23 87 -2 101
-15 7 -24 6 -36 -6z"/>
<path d="M344 1730 c0 -44 3 -80 8 -80 4 0 8 36 8 80 0 44 -3 80 -7 80 -5 0
-8 -36 -9 -80z"/>
<path d="M656 1772 c-32 -47 -32 -52 0 -52 14 0 23 -4 19 -10 -3 -5 0 -10 8
-10 10 0 13 12 9 53 -2 28 -5 53 -7 55 -1 1 -14 -15 -29 -36z m15 -35 c-17
-17 -24 -1 -10 25 12 21 14 21 17 4 2 -10 -1 -23 -7 -29z"/>
<path d="M246 1761 c-14 -15 -15 -24 -6 -40 14 -26 42 -27 65 -1 17 19 17 21
0 40 -23 25 -37 25 -59 1z m50 -12 c10 -17 -23 -46 -37 -32 -7 7 -9 19 -6 27
7 18 33 21 43 5z"/>
<path d="M730 1690 c0 -5 5 -10 11 -10 5 0 7 5 4 10 -3 6 -8 10 -11 10 -2 0
-4 -4 -4 -10z"/>
<path d="M4150 1561 c-28 -53 5 -108 58 -96 23 5 30 12 30 31 0 13 -6 24 -13
24 -6 0 -11 -10 -11 -22 1 -28 -26 -35 -48 -13 -21 21 -20 53 1 77 9 10 11 18
5 18 -6 0 -16 -9 -22 -19z"/>
<path d="M4206 1573 c5 -5 12 -12 16 -18 4 -6 8 -2 8 8 0 9 -7 17 -17 17 -9 0
-12 -3 -7 -7z"/>
<path d="M4277 1562 c-10 -10 -17 -27 -17 -38 0 -30 29 -64 53 -63 20 1 20 2
2 6 -46 11 -60 71 -23 97 12 9 18 16 12 16 -6 0 -18 -8 -27 -18z"/>
<path d="M4335 1560 c10 -11 19 -20 21 -20 1 0 0 9 -3 20 -3 11 -12 20 -21 20
-13 0 -12 -3 3 -20z"/>
<path d="M58 1553 c15 -6 17 -103 2 -103 -5 0 -10 -5 -10 -11 0 -6 10 -9 23
-7 17 2 21 8 19 27 -4 26 13 42 35 34 17 -6 17 -40 1 -46 -7 -3 -2 -6 12 -6
24 -1 25 1 21 50 -2 36 1 54 10 60 10 6 6 9 -12 9 -23 0 -26 -3 -21 -25 4 -22
1 -25 -22 -25 -19 0 -26 5 -26 19 0 11 6 22 13 24 6 3 -4 5 -23 5 -19 0 -29
-2 -22 -5z"/>
<path d="M803 1552 c-30 -19 -34 -102 -5 -108 7 -1 8 0 2 3 -16 8 -12 75 7 95
17 19 16 23 -4 10z"/>
<path d="M637 1543 c-10 -9 -9 -23 1 -23 5 0 9 7 9 15 0 17 -1 18 -10 8z"/>
<path d="M677 1534 c4 -11 -1 -22 -12 -30 -18 -13 -18 -14 -1 -14 12 0 16 -6
14 -22 -3 -26 -38 -38 -38 -14 0 9 -4 16 -10 16 -15 0 -12 -16 5 -30 8 -6 23
-9 34 -5 16 5 19 15 19 60 0 30 -4 55 -9 55 -5 0 -6 -7 -2 -16z"/>
<path d="M838 1509 c3 -23 -1 -46 -9 -57 -13 -15 -12 -16 4 -3 17 14 25 85 9
95 -4 2 -6 -13 -4 -35z"/>
<path d="M320 1510 c-44 -5 -45 -6 -46 -42 -1 -27 3 -38 13 -38 10 0 13 6 9
16 -9 24 3 54 21 54 12 0 14 -8 10 -35 -4 -25 -2 -35 8 -35 8 0 12 11 11 31 0
18 5 34 12 36 8 3 12 -7 12 -31 0 -20 5 -36 10 -36 14 0 12 66 -2 76 -7 5 -33
7 -58 4z"/>
<path d="M433 1510 c-13 -4 -18 -15 -19 -42 -1 -23 3 -35 10 -32 7 3 12 16 11
31 0 14 6 28 14 31 10 3 13 -3 9 -27 -3 -24 -1 -31 11 -31 11 0 16 9 16 28 0
15 5 27 10 27 6 0 10 -12 10 -27 0 -16 5 -28 11 -28 11 0 10 58 -2 69 -7 7
-56 8 -81 1z"/>
<path d="M210 1431 c0 -6 5 -13 10 -16 6 -3 10 1 10 9 0 9 -4 16 -10 16 -5 0
-10 -4 -10 -9z"/>
<path d="M715 1430 c-3 -5 -1 -10 4 -10 6 0 11 5 11 10 0 6 -2 10 -4 10 -3 0
-8 -4 -11 -10z"/>
<path d="M624 1275 c-3 -8 -4 -20 -1 -27 3 -7 6 -3 6 10 1 15 7 22 21 22 30 0
25 -32 -10 -65 -39 -37 -38 -45 5 -45 26 0 35 4 35 17 0 13 -3 14 -12 5 -7 -7
-18 -12 -26 -12 -9 0 -2 13 18 36 18 21 29 43 26 51 -3 8 -6 17 -6 19 0 12
-51 2 -56 -11z"/>
<path d="M781 1276 c-17 -21 -10 -87 11 -100 14 -8 22 -7 35 7 18 18 23 81 8
97 -7 6 -10 -10 -10 -43 0 -41 -4 -52 -17 -55 -23 -4 -35 42 -20 80 12 31 10
35 -7 14z"/>
<path d="M710 1159 c0 -5 5 -7 10 -4 6 3 10 8 10 11 0 2 -4 4 -10 4 -5 0 -10
-5 -10 -11z"/>
<path d="M1714 914 c21 -20 20 -23 -14 -64 -17 -19 -30 -37 -30 -41 0 -4 15
-6 33 -4 23 2 33 8 34 21 2 11 0 13 -3 7 -3 -7 -15 -13 -27 -13 -20 0 -19 1 6
28 15 15 27 35 27 43 0 16 -19 39 -33 39 -5 0 -1 -7 7 -16z"/>
<path d="M1836 908 c-9 -12 -16 -32 -16 -43 0 -23 26 -65 40 -65 19 0 40 33
40 65 0 32 -21 65 -40 65 -5 0 -16 -10 -24 -22z m45 -15 c12 -31 -1 -78 -22
-78 -15 0 -25 64 -15 91 9 22 26 16 37 -13z"/>
<path d="M1675 907 c-4 -10 -5 -21 -1 -24 10 -10 18 4 13 24 -4 17 -4 17 -12
0z"/>
<path d="M2547 877 l-26 -42 25 -3 c17 -2 24 -8 20 -18 -3 -9 1 -14 13 -14 18
0 21 19 6 53 -4 9 -5 26 -2 37 9 36 -8 29 -36 -13z m23 -12 c0 -16 -6 -25 -15
-25 -18 0 -19 4 -3 30 16 26 18 25 18 -5z"/>
<path d="M2692 908 c-13 -13 -16 -65 -6 -92 10 -26 53 -20 66 9 24 54 -23 120
-60 83z m46 -51 c3 -41 1 -47 -16 -47 -23 0 -36 37 -26 76 11 44 39 26 42 -29z"/>
<path d="M3407 892 c-35 -39 -12 -121 30 -108 44 14 29 85 -16 73 -25 -6 -27
2 -6 29 12 16 16 17 24 4 6 -8 13 -11 18 -7 4 5 1 12 -7 17 -21 13 -25 13 -43
-8z m41 -66 c2 -10 -1 -23 -8 -30 -14 -14 -41 19 -33 40 8 20 37 13 41 -10z"/>
<path d="M3555 886 c-3 -9 -7 -23 -10 -31 -2 -8 1 -28 6 -45 15 -41 52 -42 69
-1 9 24 9 35 -2 58 -15 32 -55 44 -63 19z m50 -46 c0 -38 -3 -45 -20 -45 -15
0 -21 8 -23 33 -4 45 4 64 25 60 14 -3 18 -13 18 -48z"/>
<path d="M4305 879 c-12 -19 4 -59 25 -59 10 0 24 -8 29 -17 6 -10 11 -13 11
-7 0 14 -33 44 -49 44 -9 0 -12 9 -9 25 6 27 3 31 -7 14z"/>
<path d="M4351 864 c0 -11 3 -14 6 -6 3 7 2 16 -1 19 -3 4 -6 -2 -5 -13z"/>
<path d="M4507 870 c6 -8 13 -31 16 -50 l4 -35 1 36 c1 24 -4 41 -15 50 -16
12 -16 12 -6 -1z"/>
<path d="M4455 820 c3 -19 13 -42 22 -50 15 -13 15 -13 6 0 -6 8 -16 31 -22
50 l-11 35 5 -35z"/>
<path d="M4290 798 c0 -9 5 -20 11 -23 17 -11 18 -2 3 19 -12 17 -14 17 -14 4z"/>
<path d="M1765 790 c3 -5 8 -10 11 -10 2 0 4 5 4 10 0 6 -5 10 -11 10 -5 0 -7
-4 -4 -10z"/>
<path d="M2620 790 c0 -5 5 -10 10 -10 6 0 10 5 10 10 0 6 -4 10 -10 10 -5 0
-10 -4 -10 -10z"/>
<path d="M3490 770 c0 -5 5 -10 10 -10 6 0 10 5 10 10 0 6 -4 10 -10 10 -5 0
-10 -4 -10 -10z"/>
<path d="M4395 750 c3 -5 8 -10 11 -10 2 0 4 5 4 10 0 6 -5 10 -11 10 -5 0 -7
-4 -4 -10z"/>
<path d="M1929 513 c2 -49 7 -78 10 -65 8 28 2 152 -7 152 -4 0 -5 -39 -3 -87z"/>
<path d="M2233 586 c4 -10 7 -36 8 -59 0 -35 2 -38 9 -19 5 12 17 22 27 23 14
0 13 2 -4 9 -13 5 -23 18 -23 29 0 11 -5 23 -12 27 -8 5 -9 2 -5 -10z"/>
<path d="M1998 564 c3 -15 12 -29 22 -31 19 -5 20 -41 1 -52 -24 -15 -8 -46
24 -46 36 0 47 31 19 52 -16 11 -12 13 27 13 25 0 54 6 64 14 14 10 25 11 38
4 10 -5 21 -7 24 -5 2 3 -4 10 -15 16 -14 7 -18 17 -15 31 3 12 0 20 -6 20 -7
0 -10 -4 -7 -9 3 -5 -3 -20 -13 -33 -15 -19 -28 -24 -60 -23 -41 1 -72 15 -33
15 12 0 22 4 22 9 0 6 -16 7 -35 4 -33 -5 -35 -4 -35 21 0 15 -6 26 -14 26 -9
0 -12 -8 -8 -26z m67 -104 c0 -8 -8 -16 -17 -18 -13 -2 -18 3 -18 18 0 15 5
20 18 18 9 -2 17 -10 17 -18z"/>
<path d="M2043 583 c9 -2 25 -2 35 0 9 3 1 5 -18 5 -19 0 -27 -2 -17 -5z"/>
<path d="M2428 578 c6 -6 18 -8 28 -6 14 3 12 5 -9 10 -19 3 -25 2 -19 -4z"/>
<path d="M2600 580 l-45 -6 45 -5 45 -6 -47 -1 c-41 -2 -46 -4 -41 -22 5 -17
13 -20 57 -18 50 1 50 2 9 5 -52 5 -58 23 -8 23 28 0 35 4 35 20 0 11 -1 19
-2 18 -2 0 -23 -4 -48 -8z"/>
<path d="M2816 549 c-28 -28 -28 -29 -6 -27 13 2 25 -2 27 -9 3 -7 -10 -13
-34 -16 -21 -2 0 -4 47 -4 47 0 70 2 52 4 -36 5 -86 43 -56 43 8 0 24 -5 36
-11 11 -6 22 -8 25 -5 3 3 -6 11 -21 17 -14 7 -26 18 -26 26 0 19 -11 14 -44
-18z"/>
<path d="M1837 555 c-11 -8 -17 -23 -15 -37 2 -18 9 -23 32 -23 40 0 56 27 32
54 -22 24 -25 25 -49 6z m41 -28 c4 -20 -25 -34 -39 -20 -14 14 1 45 20 41 9
-2 17 -11 19 -21z"/>
<path d="M2407 553 c19 -4 21 -7 11 -22 -16 -26 -3 -51 27 -51 30 0 43 25 27
51 -10 15 -8 18 11 22 12 2 -5 4 -38 4 -33 0 -50 -2 -38 -4z m61 -40 c5 -17
-26 -29 -40 -15 -6 6 -7 15 -3 22 9 14 37 9 43 -7z"/>
<path d="M2958 529 c3 -20 12 -33 23 -36 12 -3 19 -14 19 -29 0 -13 5 -24 10
-24 6 0 10 11 10 25 0 18 5 25 20 25 11 0 20 4 20 9 0 6 -19 9 -42 8 -37 -2
-43 1 -46 20 -3 19 2 22 45 26 l48 3 -56 2 -56 2 5 -31z"/>
<path d="M3506 549 c-2 -8 -14 -40 -26 -73 -11 -32 -18 -61 -16 -64 6 -5 7 -4
36 82 11 33 18 61 15 64 -2 3 -7 -1 -9 -9z"/>
<path d="M1970 510 c0 -5 12 -10 28 -9 24 0 25 1 7 9 -27 12 -35 12 -35 0z"/>
<path d="M3255 506 c-11 -8 -16 -22 -13 -41 2 -24 8 -31 31 -33 15 -2 27 1 27
6 0 6 -9 8 -19 5 -24 -6 -38 31 -21 53 11 12 14 12 26 -3 12 -16 13 -16 14 -2
0 22 -24 31 -45 15z"/>
<path d="M2530 501 c0 -5 34 -8 75 -8 98 2 98 17 0 17 -41 0 -75 -4 -75 -9z"/>
<path d="M3325 470 c0 -29 4 -40 15 -40 12 0 15 8 12 36 -3 28 -1 35 9 32 8
-3 14 -19 14 -36 0 -19 5 -32 13 -32 8 0 11 9 8 23 -2 13 -1 30 4 37 13 21 32
0 28 -31 -3 -18 0 -29 7 -29 8 0 10 12 6 38 l-6 37 -55 3 -55 2 0 -40z"/>
<path d="M3544 495 c-8 -20 4 -35 27 -35 10 0 19 -7 19 -15 0 -18 -21 -20 -38
-3 -9 9 -12 9 -12 1 0 -20 41 -26 58 -10 14 15 12 18 -16 34 -18 10 -32 21
-32 26 0 11 25 8 38 -5 8 -8 12 -8 12 -1 0 23 -48 30 -56 8z"/>
<path d="M2196 481 c-21 -23 -20 -38 3 -51 43 -23 73 31 32 57 -15 10 -22 9
-35 -6z m42 -24 c2 -12 -3 -17 -17 -17 -12 0 -21 6 -21 13 0 31 32 34 38 4z"/>
<path d="M2564 464 c3 -9 6 -21 6 -28 0 -7 14 -10 40 -8 34 4 40 7 40 28 0 22
-4 24 -46 24 -38 0 -45 -3 -40 -16z m66 -9 c0 -9 -9 -15 -25 -15 -16 0 -25 6
-25 15 0 9 9 15 25 15 16 0 25 -6 25 -15z"/>
<path d="M2370 458 c0 -5 34 -8 75 -8 41 0 75 4 75 8 0 5 -34 8 -75 8 -41 -1
-75 -4 -75 -8z"/>
<path d="M2838 463 c35 -4 42 -8 42 -26 0 -18 2 -19 10 -7 21 32 11 40 -42 38
-51 -1 -51 -2 -10 -5z"/>
<path d="M2935 450 c3 -5 18 -10 33 -9 24 0 25 1 7 9 -28 12 -47 12 -40 0z"/>
<path d="M3040 450 c-11 -7 -7 -10 18 -10 20 0 31 4 27 10 -8 13 -26 13 -45 0z"/>
<path d="M3100 431 c0 -6 5 -13 10 -16 6 -3 10 1 10 9 0 9 -4 16 -10 16 -5 0
-10 -4 -10 -9z"/>
<path d="M2506 228 c-23 -32 -20 -91 4 -119 l21 -24 -16 32 c-19 40 -19 70 -1
106 18 33 13 35 -8 5z"/>
<path d="M2645 218 c19 -46 19 -66 1 -100 -17 -31 -10 -37 10 -11 21 28 17 97
-6 124 l-20 24 15 -37z"/>
<path d="M2548 172 c3 -56 4 -58 33 -60 33 -3 45 14 35 53 -4 15 -13 25 -25
25 -10 0 -21 9 -24 20 -11 41 -22 18 -19 -38z m54 -9 c7 -25 -1 -43 -18 -43
-9 0 -14 11 -14 30 0 33 24 42 32 13z"/>
<path d="M2804 222 c-14 -9 -34 -47 -34 -64 0 -29 28 -52 63 -53 31 -1 36 2
39 27 4 21 1 28 -13 28 -12 0 -16 -6 -12 -19 6 -22 -9 -34 -31 -25 -22 8 -31
50 -17 80 13 30 35 31 55 2 16 -22 16 -22 16 -1 0 13 -8 23 -22 27 -29 7 -31
7 -44 -2z"/>
<path d="M2911 209 c-12 -13 -21 -32 -21 -44 0 -31 28 -65 54 -65 24 0 54 26
42 37 -3 3 -6 1 -6 -5 0 -17 -39 -25 -55 -12 -16 13 -19 47 -9 74 9 24 49 20
62 -6 10 -23 11 -23 11 5 1 17 -4 27 -13 27 -8 0 -21 3 -29 6 -8 3 -24 -5 -36
-17z"/>
</g>
</svg>
