<?xml version="1.0" standalone="no"?>
<!DOCTYPE svg PUBLIC "-//W3C//DTD SVG 20010904//EN"
 "http://www.w3.org/TR/2001/REC-SVG-20010904/DTD/svg10.dtd">
<svg version="1.0" xmlns="http://www.w3.org/2000/svg"
 width="236.000000pt" height="197.000000pt" viewBox="0 0 236.000000 197.000000"
 preserveAspectRatio="xMidYMid meet">

<g transform="translate(0.000000,197.000000) scale(0.100000,-0.100000)" stroke="none">
<path d="M312 1844 c-12 -38 -28 -114 -37 -169 -8 -55 -22 -129 -30 -165 -8
-36 -15 -73 -15 -82 0 -10 -14 -48 -30 -86 -36 -79 -65 -100 -150 -105 -30 -2
450 -4 1067 -5 881 -2 1122 -5 1125 -14 4 -10 11 -10 34 0 28 13 28 14 9 28
-22 16 -45 18 -45 4 0 -6 -124 -10 -351 -10 l-352 0 26 20 c58 46 73 99 148
520 15 85 20 103 27 96 7 -7 26 -116 47 -271 27 -198 45 -254 99 -312 20 -22
39 -33 55 -32 l26 1 -28 8 c-39 12 -52 24 -78 73 -23 45 -43 127 -54 222 -3
33 -12 92 -20 130 -8 39 -17 93 -20 122 -4 28 -13 60 -20 70 -12 17 -14 16
-23 -7 -10 -26 -20 -70 -47 -225 -53 -296 -74 -361 -131 -394 -33 -20 -50 -21
-345 -21 l-310 0 30 38 c32 40 64 156 96 347 14 89 24 144 41 224 3 13 8 21
11 17 8 -7 26 -113 48 -271 27 -198 45 -254 99 -312 20 -22 39 -33 55 -32 l26
1 -28 8 c-40 12 -52 24 -80 83 -27 58 -43 122 -52 212 -3 33 -12 92 -20 130
-8 39 -17 93 -20 122 -4 28 -13 60 -20 70 -12 17 -14 16 -23 -7 -11 -27 -22
-80 -48 -230 -29 -170 -64 -313 -84 -345 -11 -17 -31 -37 -45 -43 -18 -9 -131
-12 -382 -12 l-356 0 25 20 c39 30 108 228 108 309 0 63 58 317 70 304 8 -8
21 -84 46 -263 18 -135 32 -195 55 -247 22 -46 80 -103 107 -103 10 0 0 10
-22 23 -43 24 -82 86 -98 152 -5 22 -15 89 -23 148 -8 60 -19 125 -24 145 -5
20 -12 62 -16 93 -3 31 -12 65 -19 75 -12 16 -16 10 -34 -52z"/>
<path d="M309 1153 c-5 -16 -12 -34 -14 -40 -2 -7 0 -13 4 -13 5 0 11 6 14 13
3 9 9 9 26 -1 11 -7 21 -10 21 -8 0 9 -31 76 -35 76 -3 0 -10 -12 -16 -27z
m25 -8 c3 -8 1 -15 -4 -15 -6 0 -10 7 -10 15 0 8 2 15 4 15 2 0 6 -7 10 -15z"/>
<path d="M1010 1140 c0 -33 3 -40 19 -40 26 0 32 12 25 49 -5 21 -12 31 -25
31 -15 0 -19 -8 -19 -40z m30 20 c0 -5 -4 -10 -10 -10 -5 0 -10 5 -10 10 0 6
5 10 10 10 6 0 10 -4 10 -10z m2 -35 c0 -5 -5 -11 -11 -13 -6 -2 -11 4 -11 13
0 9 5 15 11 13 6 -2 11 -8 11 -13z"/>
<path d="M1721 1158 c-5 -13 -5 -31 1 -40 9 -18 43 -24 52 -10 3 5 -5 8 -17 8
-17 -1 -22 5 -22 24 0 19 5 25 22 24 12 0 20 3 17 8 -11 17 -45 7 -53 -14z"/>
<path d="M2130 1157 c0 -13 -6 -29 -12 -37 -11 -12 -10 -12 5 -1 14 11 20 11
35 0 14 -11 15 -11 5 1 -7 8 -13 24 -13 37 0 13 -4 23 -10 23 -5 0 -10 -10
-10 -23z"/>
<path d="M2180 1130 c0 -27 5 -50 10 -50 6 0 10 23 10 50 0 28 -4 50 -10 50
-5 0 -10 -22 -10 -50z"/>
<path d="M2230 1171 l25 -7 -21 -18 c-14 -12 -19 -26 -16 -42 4 -20 10 -24 41
-23 28 2 30 3 10 6 -31 5 -44 36 -23 54 24 19 17 39 -13 38 l-28 -1 25 -7z"/>
<path d="M2282 1145 c0 -22 2 -32 5 -22 2 9 10 17 16 17 9 0 9 2 1 8 -6 4 -14
14 -17 22 -3 8 -5 -3 -5 -25z"/>
<path d="M1922 774 c-12 -38 -28 -114 -37 -169 -8 -55 -22 -129 -30 -165 -8
-36 -15 -74 -15 -84 0 -23 -60 -156 -70 -156 -20 0 -59 44 -73 82 -24 64 -44
155 -52 228 -4 36 -13 92 -20 125 -7 33 -16 86 -20 117 -3 31 -13 62 -20 68
-22 19 -30 -6 -70 -235 -32 -181 -47 -242 -81 -312 -37 -80 -52 -88 -96 -53
-39 30 -79 158 -93 290 -4 36 -13 92 -20 125 -7 33 -16 86 -20 117 -3 31 -13
62 -20 68 -22 19 -30 -6 -70 -235 -31 -177 -47 -241 -78 -308 -18 -38 -39 -73
-49 -78 -9 -5 -227 -10 -485 -11 l-468 -3 470 -5 c459 -5 471 -5 493 15 53 45
90 153 127 370 24 146 43 236 49 242 10 10 21 -45 51 -259 28 -202 50 -277 97
-325 l32 -33 -90 -2 -89 -2 100 -6 c91 -5 102 -4 123 15 53 45 90 153 127 370
24 146 43 236 49 242 10 11 14 -7 56 -290 27 -178 47 -243 88 -289 l34 -38
-88 -2 -89 -1 85 -6 c58 -5 95 -3 115 6 17 7 27 12 23 13 -4 0 5 26 19 58 25
56 46 135 63 242 39 243 61 333 73 300 7 -18 23 -118 43 -260 27 -198 50 -267
109 -319 l35 -30 -98 -4 c-62 -2 -36 -4 74 -5 l172 -2 -4 -48 c-2 -26 -1 -39
2 -29 3 9 11 17 17 17 7 0 6 4 -3 10 -16 11 -12 17 37 46 17 11 16 13 -11 25
-23 11 -30 11 -34 1 -2 -8 -24 -12 -60 -12 -132 1 -192 87 -217 315 -3 33 -12
92 -20 130 -8 39 -17 93 -20 122 -4 28 -12 59 -20 69 -11 16 -15 10 -33 -52z"/>
<path d="M1169 133 c-5 -16 -12 -34 -14 -40 -2 -7 0 -13 4 -13 5 0 11 6 14 13
3 9 9 9 26 -1 11 -7 21 -10 21 -8 0 9 -31 76 -35 76 -3 0 -10 -12 -16 -27z
m25 -8 c3 -8 1 -15 -4 -15 -6 0 -10 7 -10 15 0 8 2 15 4 15 2 0 6 -7 10 -15z"/>
<path d="M1550 120 c0 -33 3 -40 19 -40 26 0 32 12 25 49 -5 21 -12 31 -25 31
-15 0 -19 -8 -19 -40z m30 20 c0 -5 -4 -10 -10 -10 -5 0 -10 5 -10 10 0 6 5
10 10 10 6 0 10 -4 10 -10z m2 -35 c0 -5 -5 -11 -11 -13 -6 -2 -11 4 -11 13 0
9 5 15 11 13 6 -2 11 -8 11 -13z"/>
<path d="M1931 138 c-5 -13 -5 -31 1 -40 9 -18 43 -24 52 -10 3 5 -5 8 -17 8
-17 -1 -22 5 -22 24 0 19 5 25 22 24 12 0 20 3 17 8 -11 17 -45 7 -53 -14z"/>
<path d="M2130 137 c0 -13 -6 -29 -12 -37 -11 -12 -10 -12 5 -1 14 11 20 11
35 0 14 -11 15 -11 5 1 -7 8 -13 24 -13 37 0 13 -4 23 -10 23 -5 0 -10 -10
-10 -23z"/>
<path d="M2180 110 c0 -27 5 -50 10 -50 6 0 10 23 10 50 0 28 -4 50 -10 50 -5
0 -10 -22 -10 -50z"/>
<path d="M2230 151 l25 -7 -21 -18 c-14 -12 -19 -26 -16 -42 4 -20 10 -24 41
-23 28 2 30 3 10 6 -31 5 -44 36 -23 54 24 19 17 39 -13 38 l-28 -1 25 -7z"/>
</g>
</svg>
